<svg width="194" height="260" viewBox="0 0 194 260" xmlns="http://www.w3.org/2000/svg"><defs><clipPath id="satori_bc-id"><path x="0" y="0" width="194" height="260" d="M16,0 h162 a16,16 0 0 1 16,16 v228 a16,16 0 0 1 -16,16 h-162 a16,16 0 0 1 -16,-16 v-228 a16,16 0 0 1 16,-16"/></clipPath></defs><mask id="satori_om-id"><rect x="1" y="1" width="192" height="258" fill="#fff"/><path width="194" height="260" fill="none" stroke="#000" stroke-width="2" d="M4.686,4.686 A16,16 0 0 1 16,0 h162 a16,16 0 0 1 16,16 v228 a16,16 0 0 1 -16,16 h-162 a16,16 0 0 1 -16,-16 v-228 A16,16 0 0 1 4.686,4.686"/></mask><path x="0" y="0" width="194" height="260" fill="#161B22" d="M16,0 h162 a16,16 0 0 1 16,16 v228 a16,16 0 0 1 -16,16 h-162 a16,16 0 0 1 -16,-16 v-228 a16,16 0 0 1 16,-16"/><path width="194" height="260" clip-path="url(#satori_bc-id)" fill="none" stroke="#30363D" stroke-width="2" d="M4.686,4.686 A16,16 0 0 1 16,0 h162 a16,16 0 0 1 16,16 v228 a16,16 0 0 1 -16,16 h-162 a16,16 0 0 1 -16,-16 v-228 A16,16 0 0 1 4.686,4.686"/><mask id="satori_om-id-0"><rect x="17" y="17" width="160" height="16" fill="#fff"/></mask><path fill="#8B949E" d="M20.5 22.5L19.7 25.9L21.5 25.9L20.7 22.5Q20.6 22.5 20.6 22.5Q20.6 22.5 20.5 22.5L20.5 22.5ZM22.2 28.8L21.8 27.2L19.4 27.2L19.0 28.8Q18.9 29.1 18.8 29.2Q18.6 29.4 18.3 29.4L18.3 29.4Q17.8 29.4 17.6 29.1Q17.4 28.9 17.5 28.3L17.5 28.3L19.3 21.4Q19.5 20.9 19.8 20.6Q20.1 20.4 20.6 20.4L20.6 20.4Q21.1 20.4 21.4 20.6Q21.7 20.9 21.9 21.4L21.9 21.4L23.7 28.3Q23.8 28.9 23.6 29.1Q23.4 29.4 22.9 29.4L22.9 29.4Q22.6 29.4 22.4 29.2Q22.3 29.1 22.2 28.8L22.2 28.8ZM24.9 25.9L24.9 25.9Q24.9 25.0 25.2 24.4Q25.4 23.7 25.8 23.3Q26.2 22.9 26.8 22.7Q27.3 22.5 27.9 22.5L27.9 22.5Q28.5 22.5 28.9 22.6Q29.3 22.7 29.6 22.9Q29.9 23.1 30.1 23.3Q30.3 23.5 30.4 23.7L30.4 23.7Q30.5 24.1 30.4 24.3Q30.3 24.6 30.0 24.8L30.0 24.8Q29.8 24.8 29.6 24.8Q29.4 24.8 29.2 24.6L29.2 24.6Q29.1 24.3 28.8 24.1Q28.5 24.0 28.1 24.0L28.1 24.0Q27.8 24.0 27.5 24.1Q27.2 24.2 27.0 24.4Q26.8 24.7 26.7 25.0Q26.5 25.4 26.5 25.9L26.5 25.9Q26.5 26.4 26.7 26.8Q26.8 27.2 27.0 27.4Q27.2 27.7 27.5 27.8Q27.7 27.9 28.0 27.9L28.0 27.9Q28.4 27.9 28.7 27.8Q29.0 27.8 29.2 27.6L29.2 27.6Q29.4 27.4 29.7 27.4Q29.9 27.3 30.2 27.5L30.2 27.5Q30.3 27.6 30.3 27.7Q30.4 27.8 30.4 28.0Q30.4 28.1 30.4 28.3Q30.4 28.4 30.3 28.5L30.3 28.5Q30.0 28.8 29.8 29.0Q29.5 29.1 29.3 29.2Q29.0 29.3 28.7 29.3Q28.4 29.4 28.1 29.4L28.1 29.4Q27.4 29.4 26.8 29.2Q26.2 29.0 25.8 28.5Q25.4 28.1 25.2 27.5Q24.9 26.8 24.9 25.9ZM35.2 22.9L37.1 22.9Q37.4 22.9 37.6 23.1Q37.8 23.3 37.8 23.6L37.8 23.6Q37.8 24.0 37.6 24.2Q37.4 24.3 37.1 24.3L37.1 24.3L35.2 24.3L35.2 26.2Q35.2 27.1 35.4 27.5Q35.6 27.9 36.0 27.9L36.0 27.9Q36.2 27.9 36.4 27.9Q36.6 27.8 36.8 27.8L36.8 27.8Q37.1 27.6 37.4 27.7Q37.6 27.8 37.8 28.1L37.8 28.1Q38.0 28.4 37.9 28.6Q37.8 28.9 37.5 29.0L37.5 29.0Q37.1 29.2 36.7 29.3Q36.3 29.4 35.8 29.4L35.8 29.4Q35.3 29.4 34.9 29.2Q34.4 29.0 34.2 28.6Q33.9 28.3 33.8 27.7Q33.6 27.1 33.6 26.4L33.6 26.4L33.6 24.3L32.5 24.3Q32.1 24.3 32.0 24.2Q31.8 24.0 31.8 23.6L31.8 23.6Q31.8 23.3 32.0 23.1Q32.2 22.9 32.5 22.9L32.5 22.9L33.6 22.9L33.6 21.6Q33.6 21.2 33.8 21.0Q34.0 20.8 34.4 20.8Q34.8 20.8 35 21.0Q35.2 21.2 35.2 21.6L35.2 21.6L35.2 22.9ZM43.3 27.8L44.6 27.8Q44.9 27.8 45.1 28.0Q45.3 28.1 45.3 28.5Q45.3 28.9 45.1 29.1Q44.9 29.2 44.6 29.2L44.6 29.2L40.2 29.2Q39.9 29.2 39.7 29.1Q39.5 28.9 39.5 28.5Q39.5 28.1 39.7 28.0Q39.8 27.8 40.2 27.8L40.2 27.8L41.7 27.8L41.7 25.0Q41.7 24.6 41.6 24.5Q41.4 24.3 41.1 24.3L41.1 24.3L40.5 24.3Q40.1 24.3 39.9 24.2Q39.7 24.0 39.7 23.6Q39.7 23.3 39.9 23.1Q40.1 22.9 40.5 22.9L40.5 22.9L42.0 22.9Q42.7 22.9 43.0 23.2Q43.3 23.5 43.3 24.2L43.3 24.2L43.3 27.8ZM42.4 21.8L42.4 21.8Q42.0 21.8 41.7 21.6Q41.4 21.3 41.4 20.9L41.4 20.9Q41.4 20.5 41.7 20.3Q42.0 20.0 42.4 20.0L42.4 20.0Q42.9 20.0 43.2 20.3Q43.4 20.5 43.4 20.9L43.4 20.9Q43.4 21.3 43.2 21.6Q42.9 21.8 42.4 21.8ZM48.4 28.6L46.5 23.4Q46.5 23.2 46.5 23.0Q46.5 22.9 46.6 22.7Q46.7 22.6 46.9 22.6Q47.1 22.5 47.2 22.5L47.2 22.5Q47.5 22.5 47.7 22.7Q47.9 22.8 48.0 23.1L48.0 23.1L49.2 26.6Q49.3 26.9 49.4 26.9Q49.5 26.9 49.6 26.6L49.6 26.6L50.8 23.1Q50.9 22.8 51.1 22.7Q51.3 22.5 51.6 22.5L51.6 22.5Q51.7 22.5 51.9 22.6Q52.1 22.6 52.2 22.7Q52.3 22.9 52.3 23.0Q52.3 23.2 52.3 23.4L52.3 23.4L50.4 28.6Q50.3 29.0 50.0 29.2Q49.8 29.4 49.4 29.4L49.4 29.4Q49.0 29.4 48.8 29.2Q48.5 29.0 48.4 28.6L48.4 28.6ZM57.7 27.8L59.0 27.8Q59.3 27.8 59.5 28.0Q59.7 28.1 59.7 28.5Q59.7 28.9 59.5 29.1Q59.3 29.2 59.0 29.2L59.0 29.2L54.6 29.2Q54.3 29.2 54.1 29.1Q53.9 28.9 53.9 28.5Q53.9 28.1 54.1 28.0Q54.2 27.8 54.6 27.8L54.6 27.8L56.1 27.8L56.1 25.0Q56.1 24.6 56.0 24.5Q55.8 24.3 55.5 24.3L55.5 24.3L54.9 24.3Q54.5 24.3 54.3 24.2Q54.1 24.0 54.1 23.6Q54.1 23.3 54.3 23.1Q54.5 22.9 54.9 22.9L54.9 22.9L56.4 22.9Q57.1 22.9 57.4 23.2Q57.7 23.5 57.7 24.2L57.7 24.2L57.7 27.8ZM56.8 21.8L56.8 21.8Q56.4 21.8 56.1 21.6Q55.8 21.3 55.8 20.9L55.8 20.9Q55.8 20.5 56.1 20.3Q56.4 20.0 56.8 20.0L56.8 20.0Q57.3 20.0 57.6 20.3Q57.8 20.5 57.8 20.9L57.8 20.9Q57.8 21.3 57.6 21.6Q57.3 21.8 56.8 21.8ZM64.0 22.9L65.9 22.9Q66.2 22.9 66.4 23.1Q66.6 23.3 66.6 23.6L66.6 23.6Q66.6 24.0 66.4 24.2Q66.2 24.3 65.9 24.3L65.9 24.3L64.0 24.3L64.0 26.2Q64.0 27.1 64.2 27.5Q64.4 27.9 64.8 27.9L64.8 27.9Q65.0 27.9 65.2 27.9Q65.4 27.8 65.6 27.8L65.6 27.8Q65.9 27.6 66.2 27.7Q66.4 27.8 66.6 28.1L66.6 28.1Q66.8 28.4 66.7 28.6Q66.6 28.9 66.3 29.0L66.3 29.0Q65.9 29.2 65.5 29.3Q65.1 29.4 64.6 29.4L64.6 29.4Q64.1 29.4 63.7 29.2Q63.2 29.0 63.0 28.6Q62.7 28.3 62.6 27.7Q62.4 27.1 62.4 26.4L62.4 26.4L62.4 24.3L61.3 24.3Q60.9 24.3 60.8 24.2Q60.6 24.0 60.6 23.6L60.6 23.6Q60.6 23.3 60.8 23.1Q61.0 22.9 61.3 22.9L61.3 22.9L62.4 22.9L62.4 21.6Q62.4 21.2 62.6 21.0Q62.8 20.8 63.2 20.8Q63.6 20.8 63.8 21.0Q64.0 21.2 64.0 21.6L64.0 21.6L64.0 22.9ZM71.0 27.2L72.6 23Q72.6 22.8 72.8 22.7Q72.9 22.6 73.1 22.6L73.1 22.6Q73.5 22.6 73.7 22.8Q73.9 22.9 73.9 23.2L73.9 23.2Q73.9 23.3 73.9 23.5Q73.9 23.6 73.8 23.7L73.8 23.7L71.9 29.4Q71.8 29.6 71.7 30.0Q71.6 30.3 71.4 30.6Q71.2 31.0 71.0 31.3Q70.8 31.6 70.6 31.8L70.6 31.8Q70.2 32.1 69.7 32.2Q69.3 32.3 69.0 32.3L69.0 32.3Q68.6 32.3 68.4 32.2Q68.2 32 68.2 31.6L68.2 31.6L68.2 31.6Q68.2 31.3 68.4 31.1Q68.5 30.9 68.8 30.9L68.8 30.9Q69.0 30.9 69.2 30.8Q69.4 30.7 69.5 30.6L69.5 30.6Q69.7 30.5 69.8 30.4Q69.9 30.2 69.9 30.1Q70.0 30.0 70.1 29.8Q70.1 29.7 70.2 29.5L70.2 29.5L70.3 29.2L68.3 23.7Q68.2 23.6 68.2 23.4Q68.2 23.3 68.2 23.2L68.2 23.2Q68.2 22.9 68.4 22.8Q68.6 22.6 68.9 22.6L68.9 22.6Q69.2 22.6 69.3 22.7Q69.5 22.8 69.5 23.0L69.5 23.0L71.0 27.2Z "/><mask id="satori_om-id-1"><rect x="17" y="41" width="160" height="191" fill="#fff"/></mask><mask id="satori_om-id-1-0"><rect x="17" y="41" width="160" height="14" fill="#fff"/></mask><mask id="satori_om-id-1-0-0"><rect x="17" y="41" width="16" height="14" fill="#fff"/></mask><path x="17" y="41" width="16" height="14" fill="#1A7F3718" d="M21,41 h8 a4,4 0 0 1 4,4 v6 a4,4 0 0 1 -4,4 h-8 a4,4 0 0 1 -4,-4 v-6 a4,4 0 0 1 4,-4"/><path fill="#1A7F37" d="M22.5 48.0L22.5 48.0Q22.5 47.3 22.6 46.6Q22.8 46.0 23.1 45.5Q23.4 45.1 23.9 44.8Q24.5 44.5 25.2 44.5L25.2 44.5Q25.6 44.5 25.9 44.6Q26.2 44.7 26.4 44.8Q26.6 44.9 26.7 45.1Q26.8 45.2 26.9 45.4L26.9 45.4Q27.0 45.7 27.0 45.9Q26.9 46.1 26.7 46.2L26.7 46.2Q26.6 46.3 26.4 46.3Q26.1 46.2 26.0 46.0L26.0 46.0Q25.9 45.8 25.7 45.7Q25.5 45.6 25.2 45.6L25.2 45.6Q24.8 45.6 24.5 45.8Q24.2 46.0 24.0 46.3Q23.8 46.7 23.7 47.1Q23.7 47.5 23.7 47.9L23.7 47.9Q23.7 48.3 23.7 48.7Q23.8 49.1 24.0 49.4Q24.1 49.7 24.4 50.0Q24.7 50.2 25.2 50.2L25.2 50.2Q25.3 50.2 25.5 50.2Q25.6 50.1 25.7 50.1Q25.8 50.1 25.9 50.0Q26.0 50.0 26.0 49.9L26.0 49.9Q26.2 49.7 26.4 49.7Q26.6 49.8 26.8 49.9L26.8 49.9Q26.9 50.0 26.9 50.3Q27.0 50.5 26.8 50.7L26.8 50.7Q26.7 50.9 26.5 51.0Q26.3 51.1 26.1 51.2Q25.9 51.2 25.6 51.2Q25.4 51.3 25.2 51.3L25.2 51.3Q24.4 51.3 23.9 51.0Q23.3 50.7 23.0 50.3Q22.7 49.8 22.6 49.2Q22.5 48.6 22.5 48.0Z "/><clipPath id="satori_cp-id-1-0-1"><rect x="38" y="41" width="139" height="13"/></clipPath><mask id="satori_om-id-1-0-1"><rect x="38" y="41" width="139" height="13" fill="#fff"/></mask><path fill="#E6EDF3" d="M39.9 48.0L39.9 50.9Q39.9 51.1 39.7 51.2Q39.6 51.3 39.4 51.3L39.4 51.3Q39.2 51.3 39.1 51.2Q39.0 51.1 39.0 50.9L39.0 50.9L39.0 44.3Q39.0 44.0 39.1 43.9Q39.2 43.8 39.4 43.8L39.4 43.8Q39.6 43.8 39.7 43.9Q39.9 44.0 39.9 44.3L39.9 44.3L39.9 46.6Q40.0 46.2 40.3 45.9Q40.7 45.6 41.2 45.6L41.2 45.6Q41.6 45.6 42.0 45.7Q42.3 45.9 42.5 46.1Q42.8 46.4 42.9 46.7Q43.0 47.1 43.0 47.5L43.0 47.5L43.0 50.9Q43.0 51.1 42.9 51.2Q42.8 51.3 42.6 51.3L42.6 51.3Q42.4 51.3 42.3 51.2Q42.1 51.1 42.1 50.9L42.1 50.9L42.1 47.8Q42.1 47.5 42.1 47.3Q42.0 47.0 41.9 46.9Q41.7 46.7 41.5 46.6Q41.3 46.5 41.1 46.5L41.1 46.5Q40.8 46.5 40.6 46.6Q40.4 46.8 40.2 47.0Q40.0 47.2 39.9 47.5Q39.9 47.8 39.9 48.0L39.9 48.0ZM47 51.3L47 51.3Q46.4 51.3 46 51.1Q45.6 50.9 45.3 50.5Q45.0 50.1 44.9 49.6Q44.8 49.1 44.8 48.4L44.8 48.4Q44.8 47.8 44.9 47.3Q45.0 46.8 45.3 46.4Q45.6 46.0 46.0 45.8Q46.4 45.6 47 45.6L47 45.6Q47.6 45.6 48.0 45.8Q48.4 46.0 48.7 46.4Q49.0 46.8 49.1 47.3Q49.3 47.8 49.3 48.4L49.3 48.4Q49.3 49.1 49.1 49.6Q49.0 50.1 48.7 50.5Q48.4 50.9 48.0 51.1Q47.6 51.3 47 51.3ZM47 50.4L47 50.4Q47.4 50.4 47.6 50.3Q47.9 50.1 48.0 49.9Q48.2 49.6 48.3 49.2Q48.4 48.9 48.4 48.4L48.4 48.4Q48.4 48.0 48.3 47.7Q48.2 47.3 48.0 47.0Q47.9 46.8 47.6 46.6Q47.4 46.5 47 46.5L47 46.5Q46.6 46.5 46.4 46.6Q46.1 46.8 46.0 47.0Q45.8 47.3 45.7 47.7Q45.6 48.0 45.6 48.5L45.6 48.5Q45.6 48.9 45.7 49.2Q45.8 49.6 46.0 49.9Q46.1 50.1 46.4 50.3Q46.6 50.4 47 50.4ZM53.0 45.9L54.8 45.9Q55.0 45.9 55.1 46.0Q55.2 46.2 55.2 46.4Q55.2 46.6 55.1 46.7Q55.0 46.8 54.8 46.8L54.8 46.8L53.0 46.8L53.0 49.0Q53.0 49.7 53.2 50.0Q53.4 50.4 53.8 50.4L53.8 50.4Q54 50.4 54.2 50.4Q54.4 50.3 54.6 50.2L54.6 50.2Q54.8 50.1 55.0 50.2Q55.1 50.2 55.2 50.4L55.2 50.4Q55.4 50.6 55.3 50.8Q55.3 51.0 55.1 51.1L55.1 51.1Q54.8 51.2 54.4 51.3Q54.1 51.3 53.6 51.3L53.6 51.3Q53.3 51.3 53.0 51.2Q52.7 51.0 52.5 50.8Q52.3 50.5 52.2 50.1Q52.0 49.7 52.0 49.1L52.0 49.1L52.0 46.8L50.9 46.8Q50.7 46.8 50.6 46.7Q50.5 46.6 50.5 46.4Q50.5 46.2 50.6 46.0Q50.7 45.9 50.9 45.9L50.9 45.9L52.0 45.9L52.0 44.6Q52.0 44.4 52.2 44.3Q52.3 44.2 52.5 44.2Q52.7 44.2 52.8 44.3Q53.0 44.4 53.0 44.6L53.0 44.6L53.0 45.9ZM59.7 50.3L61.1 50.3Q61.3 50.3 61.4 50.4Q61.5 50.6 61.5 50.8Q61.5 51.0 61.4 51.1Q61.3 51.2 61.1 51.2L61.1 51.2L57.3 51.2Q57.1 51.2 57.0 51.1Q56.9 51.0 56.9 50.8Q56.9 50.6 57.0 50.4Q57.1 50.3 57.3 50.3L57.3 50.3L58.8 50.3L58.8 47.2Q58.8 47 58.7 46.9Q58.6 46.8 58.4 46.8L58.4 46.8L57.5 46.8Q57.3 46.8 57.2 46.7Q57.0 46.6 57.0 46.4Q57.0 46.2 57.2 46.0Q57.3 45.9 57.5 45.9L57.5 45.9L58.9 45.9Q59.3 45.9 59.5 46.1Q59.7 46.3 59.7 46.7L59.7 46.7L59.7 50.3ZM59.2 44.9L59.2 44.9Q58.9 44.9 58.7 44.7Q58.5 44.6 58.5 44.3L58.5 44.3Q58.5 44.0 58.7 43.8Q58.9 43.6 59.2 43.6L59.2 43.6Q59.5 43.6 59.7 43.8Q59.9 44.0 59.9 44.3L59.9 44.3Q59.9 44.6 59.7 44.7Q59.5 44.9 59.2 44.9ZM64.4 51.3L64.4 51.3Q64.1 51.3 63.7 51.2Q63.4 51.1 63.2 50.8Q63.0 50.5 62.8 50.1Q62.7 49.6 62.7 49.0L62.7 49.0Q62.7 48.3 62.8 47.7Q63.0 47.0 63.3 46.6Q63.5 46.1 64.0 45.9Q64.4 45.6 65 45.6L65 45.6Q65.5 45.6 65.8 45.8L65.8 45.8Q66.0 46.0 66.1 46.3L66.1 46.3Q66.1 46.2 66.1 46.0L66.1 46.0Q66.2 45.8 66.3 45.7Q66.4 45.6 66.7 45.6L66.7 45.6Q66.9 45.6 67.0 45.7Q67.1 45.8 67.0 46.0L67.0 46.0Q66.9 46.6 66.9 47.2Q66.8 47.8 66.9 48.4Q66.9 49.0 67.0 49.6Q67.0 50.2 67.2 50.9L67.2 50.9Q67.3 51.1 67.2 51.2Q67.1 51.3 66.9 51.3Q66.6 51.3 66.5 51.2Q66.3 51.1 66.3 50.9L66.3 50.9Q66.2 50.4 66.1 49.9L66.1 49.9Q66.0 50.1 66.0 50.3L66.0 50.3Q65.7 50.7 65.4 51.0Q65.0 51.3 64.4 51.3ZM64.5 50.4L64.5 50.4Q64.8 50.4 65.1 50.2Q65.3 50.1 65.5 49.8Q65.7 49.5 65.8 49.1Q66.0 48.6 66.0 48.1L66.0 48.1Q66.0 47.9 65.9 47.6Q65.9 47.3 65.8 47.1Q65.8 46.8 65.6 46.7Q65.4 46.5 65.1 46.5L65.1 46.5Q64.8 46.5 64.5 46.7Q64.2 46.9 64.0 47.2Q63.8 47.6 63.7 48.0Q63.6 48.5 63.6 49.1L63.6 49.1Q63.6 49.7 63.8 50.0Q64.0 50.4 64.5 50.4ZM69.8 48.0L69.8 50.9Q69.8 51.1 69.7 51.2Q69.6 51.3 69.4 51.3L69.4 51.3Q69.2 51.3 69.1 51.2Q69.0 51.1 69.0 50.9L69.0 50.9L69.0 46.1Q69.0 45.8 69.1 45.7Q69.2 45.6 69.4 45.6L69.4 45.6Q69.6 45.6 69.7 45.7Q69.8 45.8 69.8 46.1L69.8 46.1L69.8 46.6Q70.0 46.2 70.3 45.9Q70.7 45.6 71.2 45.6L71.2 45.6Q71.6 45.6 72.0 45.7Q72.3 45.9 72.5 46.1Q72.8 46.4 72.9 46.7Q73.0 47.1 73.0 47.5L73.0 47.5L73.0 50.9Q73.0 51.1 72.9 51.2Q72.8 51.3 72.6 51.3L72.6 51.3Q72.4 51.3 72.3 51.2Q72.2 51.1 72.2 50.9L72.2 50.9L72.2 47.8Q72.2 47.5 72.1 47.3Q72.0 47.0 71.9 46.9Q71.7 46.7 71.5 46.6Q71.3 46.5 71.1 46.5L71.1 46.5Q70.8 46.5 70.6 46.6Q70.3 46.8 70.2 47.0Q70.0 47.2 69.9 47.5Q69.8 47.8 69.8 48.0L69.8 48.0ZM75.3 51.3L75.3 51.3Q75.1 51.3 75.0 51.2Q74.9 51.1 74.9 50.8L74.9 50.8L74.9 44.3Q74.9 44.0 75.0 43.9Q75.1 43.8 75.3 43.8L75.3 43.8Q75.6 43.8 75.7 43.9Q75.8 44.0 75.8 44.3L75.8 44.3L75.8 46.6Q75.9 46.2 76.3 45.9Q76.6 45.6 77.2 45.6L77.2 45.6Q77.8 45.6 78.2 45.9Q78.6 46.1 78.8 46.6Q79.0 47.0 79.1 47.6Q79.2 48.1 79.2 48.6L79.2 48.6Q79.2 49.1 79.1 49.6Q79.1 50.1 78.8 50.4Q78.6 50.8 78.3 51.1Q77.9 51.3 77.3 51.3L77.3 51.3Q77.0 51.3 76.8 51.2Q76.5 51.1 76.3 51.0Q76.2 50.9 76.0 50.7Q75.9 50.5 75.8 50.2L75.8 50.2L75.8 50.8Q75.8 51.1 75.7 51.2Q75.6 51.3 75.3 51.3ZM77.2 50.4L77.2 50.4Q77.5 50.4 77.7 50.3Q78.0 50.1 78.1 49.9Q78.2 49.6 78.3 49.3Q78.3 49.0 78.3 48.6L78.3 48.6Q78.3 48.2 78.3 47.8Q78.2 47.5 78.1 47.2Q78.0 46.9 77.7 46.7Q77.5 46.5 77.0 46.5L77.0 46.5Q76.8 46.5 76.5 46.7Q76.3 46.8 76.1 47.0Q76.0 47.3 75.9 47.5Q75.8 47.8 75.8 48.0L75.8 48.0L75.8 49.1Q75.8 49.4 75.9 49.6Q76.0 49.8 76.2 50.0Q76.4 50.2 76.7 50.3Q76.9 50.4 77.2 50.4ZM84.6 49.9L84.6 49.9Q84.8 49.9 84.9 50.0Q85.0 50.2 85.0 50.3L85.0 50.3Q85.0 50.4 85.0 50.5Q84.9 50.6 84.8 50.7L84.8 50.7Q84.7 50.9 84.5 51.0Q84.3 51.1 84.1 51.2Q83.9 51.2 83.7 51.3Q83.4 51.3 83.2 51.3L83.2 51.3Q82.6 51.3 82.2 51.1Q81.7 50.9 81.4 50.5Q81.1 50.2 80.9 49.7Q80.7 49.1 80.7 48.5L80.7 48.5Q80.7 47.9 80.9 47.4Q81.0 46.9 81.3 46.5Q81.5 46.1 82.0 45.8Q82.4 45.6 83.0 45.6L83.0 45.6Q83.7 45.6 84.0 45.8Q84.5 46.0 84.7 46.4Q84.9 46.8 85.0 47.2Q85.2 47.7 85.2 48.3L85.2 48.3Q85.2 48.5 85.0 48.7Q84.9 48.8 84.7 48.8L84.7 48.8L81.7 48.8Q81.7 49.2 81.8 49.5Q82.0 49.8 82.2 50.0Q82.3 50.2 82.6 50.3Q82.9 50.4 83.2 50.4L83.2 50.4Q83.7 50.4 83.9 50.3Q84.2 50.1 84.3 50L84.3 50Q84.4 49.9 84.5 49.9Q84.5 49.9 84.6 49.9ZM81.7 48L84.1 48Q84.1 48 84.2 47.9Q84.3 47.9 84.3 47.7L84.3 47.7Q84.3 47.5 84.2 47.3Q84.1 47.0 83.9 46.9Q83.8 46.7 83.6 46.6Q83.3 46.5 83.0 46.5L83.0 46.5Q82.7 46.5 82.5 46.6Q82.3 46.7 82.1 46.9Q81.9 47.1 81.8 47.4Q81.7 47.7 81.7 48L81.7 48ZM89 49.2L87.8 51Q87.7 51.1 87.5 51.2Q87.4 51.3 87.2 51.3L87.2 51.3Q87.1 51.3 87.0 51.3Q86.9 51.2 86.9 51.1Q86.8 51.1 86.8 51.0Q86.8 50.9 86.9 50.7L86.9 50.7L88.5 48.4L87 46.2Q86.9 46.1 86.9 45.9Q86.9 45.8 87.0 45.7Q87.0 45.7 87.1 45.6Q87.2 45.6 87.3 45.6L87.3 45.6Q87.5 45.6 87.6 45.7Q87.8 45.8 87.9 45.9L87.9 45.9L89 47.6L90.1 45.9Q90.2 45.8 90.4 45.7Q90.5 45.6 90.7 45.6L90.7 45.6Q90.8 45.6 90.9 45.6Q91.0 45.7 91.0 45.7Q91.1 45.8 91.1 45.9Q91.1 46.1 91 46.2L91 46.2L89.5 48.4L91.1 50.7Q91.2 50.9 91.2 51.0Q91.2 51.1 91.1 51.1Q91.1 51.2 91.0 51.3Q90.9 51.3 90.8 51.3L90.8 51.3Q90.6 51.3 90.5 51.2Q90.3 51.2 90.3 51L90.3 51L89 49.2ZM96.2 48.9L96.2 46.1Q96.2 45.8 96.3 45.7Q96.4 45.6 96.6 45.6L96.6 45.6Q96.8 45.6 96.9 45.7Q97.0 45.8 97.0 46.1L97.0 46.1L97.0 50.9Q97.0 51.1 96.9 51.2Q96.8 51.3 96.6 51.3L96.6 51.3Q96.4 51.3 96.3 51.2Q96.2 51.1 96.2 50.9L96.2 50.9L96.2 50.3Q96.0 50.7 95.7 51.0Q95.3 51.3 94.8 51.3L94.8 51.3Q94.4 51.3 94.0 51.2Q93.7 51.0 93.5 50.8Q93.2 50.5 93.1 50.2Q93.0 49.8 93.0 49.4L93.0 49.4L93.0 46.1Q93.0 45.8 93.1 45.7Q93.2 45.6 93.4 45.6L93.4 45.6Q93.6 45.6 93.7 45.7Q93.8 45.8 93.8 46.1L93.8 46.1L93.8 49.1Q93.8 49.4 93.9 49.6Q94.0 49.9 94.1 50.1Q94.3 50.2 94.5 50.3Q94.7 50.5 94.9 50.5L94.9 50.5Q95.2 50.5 95.4 50.3Q95.7 50.1 95.8 49.9Q96.0 49.7 96.1 49.4Q96.2 49.1 96.2 48.9L96.2 48.9ZM100.4 51.3L100.4 51.3Q100.1 51.3 99.7 51.2Q99.4 51.1 99.2 50.8Q99.0 50.5 98.8 50.1Q98.7 49.6 98.7 49.0L98.7 49.0Q98.7 48.3 98.8 47.7Q99.0 47.0 99.3 46.6Q99.5 46.1 100.0 45.9Q100.4 45.6 101 45.6L101 45.6Q101.5 45.6 101.8 45.8L101.8 45.8Q102.0 46.0 102.1 46.3L102.1 46.3Q102.1 46.2 102.1 46.0L102.1 46.0Q102.2 45.8 102.3 45.7Q102.4 45.6 102.7 45.6L102.7 45.6Q102.9 45.6 103.0 45.7Q103.1 45.8 103.0 46.0L103.0 46.0Q102.9 46.6 102.9 47.2Q102.8 47.8 102.9 48.4Q102.9 49.0 103.0 49.6Q103.0 50.2 103.2 50.9L103.2 50.9Q103.3 51.1 103.2 51.2Q103.1 51.3 102.9 51.3Q102.6 51.3 102.5 51.2Q102.3 51.1 102.3 50.9L102.3 50.9Q102.2 50.4 102.1 49.9L102.1 49.9Q102.0 50.1 102.0 50.3L102.0 50.3Q101.7 50.7 101.4 51.0Q101.0 51.3 100.4 51.3ZM100.5 50.4L100.5 50.4Q100.8 50.4 101.1 50.2Q101.3 50.1 101.5 49.8Q101.7 49.5 101.8 49.1Q102.0 48.6 102.0 48.1L102.0 48.1Q102.0 47.9 101.9 47.6Q101.9 47.3 101.8 47.1Q101.8 46.8 101.6 46.7Q101.4 46.5 101.1 46.5L101.1 46.5Q100.8 46.5 100.5 46.7Q100.2 46.9 100.0 47.2Q99.8 47.6 99.7 48.0Q99.6 48.5 99.6 49.1L99.6 49.1Q99.6 49.7 99.8 50.0Q100.0 50.4 100.5 50.4ZM105.8 48.0L105.8 50.9Q105.8 51.1 105.7 51.2Q105.6 51.3 105.4 51.3L105.4 51.3Q105.2 51.3 105.1 51.2Q105.0 51.1 105.0 50.9L105.0 50.9L105.0 46.1Q105.0 45.8 105.1 45.7Q105.2 45.6 105.4 45.6L105.4 45.6Q105.6 45.6 105.7 45.7Q105.8 45.8 105.8 46.1L105.8 46.1L105.8 46.6Q106.0 46.2 106.3 45.9Q106.7 45.6 107.2 45.6L107.2 45.6Q107.6 45.6 108.0 45.7Q108.3 45.9 108.5 46.1Q108.8 46.4 108.9 46.7Q109.0 47.1 109.0 47.5L109.0 47.5L109.0 50.9Q109.0 51.1 108.9 51.2Q108.8 51.3 108.6 51.3L108.6 51.3Q108.4 51.3 108.3 51.2Q108.2 51.1 108.2 50.9L108.2 50.9L108.2 47.8Q108.2 47.5 108.1 47.3Q108.0 47.0 107.9 46.9Q107.7 46.7 107.5 46.6Q107.3 46.5 107.1 46.5L107.1 46.5Q106.8 46.5 106.6 46.6Q106.3 46.8 106.2 47.0Q106.0 47.2 105.9 47.5Q105.8 47.8 105.8 48.0L105.8 48.0ZM113.0 45.9L114.8 45.9Q115.0 45.9 115.1 46.0Q115.2 46.2 115.2 46.4Q115.2 46.6 115.1 46.7Q115.0 46.8 114.8 46.8L114.8 46.8L113.0 46.8L113.0 49.0Q113.0 49.7 113.2 50.0Q113.4 50.4 113.8 50.4L113.8 50.4Q114 50.4 114.2 50.4Q114.4 50.3 114.6 50.2L114.6 50.2Q114.8 50.1 115.0 50.2Q115.1 50.2 115.2 50.4L115.2 50.4Q115.3 50.6 115.3 50.8Q115.3 51.0 115.1 51.1L115.1 51.1Q114.8 51.2 114.4 51.3Q114.1 51.3 113.7 51.3L113.7 51.3Q113.3 51.3 113.0 51.2Q112.7 51.0 112.5 50.8Q112.3 50.5 112.2 50.1Q112.0 49.7 112.0 49.1L112.0 49.1L112.0 46.8L110.9 46.8Q110.7 46.8 110.6 46.7Q110.5 46.6 110.5 46.4Q110.5 46.2 110.6 46.0Q110.7 45.9 110.9 45.9L110.9 45.9L112.0 45.9L112.0 44.6Q112.0 44.4 112.2 44.3Q112.3 44.2 112.5 44.2Q112.7 44.2 112.8 44.3Q113.0 44.4 113.0 44.6L113.0 44.6L113.0 45.9ZM119 51.3L119 51.3Q118.4 51.3 118 51.1Q117.6 50.9 117.3 50.5Q117.0 50.1 116.9 49.6Q116.8 49.1 116.8 48.4L116.8 48.4Q116.8 47.8 116.9 47.3Q117.0 46.8 117.3 46.4Q117.6 46.0 118.0 45.8Q118.4 45.6 119 45.6L119 45.6Q119.6 45.6 120.0 45.8Q120.4 46.0 120.7 46.4Q121.0 46.8 121.1 47.3Q121.3 47.8 121.3 48.4L121.3 48.4Q121.3 49.1 121.1 49.6Q121.0 50.1 120.7 50.5Q120.4 50.9 120.0 51.1Q119.6 51.3 119 51.3ZM119 50.4L119 50.4Q119.3 50.4 119.6 50.3Q119.9 50.1 120.0 49.9Q120.2 49.6 120.3 49.2Q120.3 48.9 120.3 48.4L120.3 48.4Q120.3 48.0 120.3 47.7Q120.2 47.3 120.0 47.0Q119.9 46.8 119.6 46.6Q119.4 46.5 119 46.5L119 46.5Q118.6 46.5 118.4 46.6Q118.1 46.8 118.0 47.0Q117.8 47.3 117.7 47.7Q117.7 48.0 117.7 48.5L117.7 48.5Q117.7 48.9 117.7 49.2Q117.8 49.6 118.0 49.9Q118.1 50.1 118.4 50.3Q118.7 50.4 119 50.4ZM124.2 50.5L124.2 50.5Q124.2 50.1 124.4 49.9Q124.7 49.6 125 49.6L125 49.6Q125.3 49.6 125.6 49.9Q125.8 50.1 125.8 50.5L125.8 50.5Q125.8 50.8 125.6 51.1Q125.3 51.3 125 51.3L125 51.3Q124.7 51.3 124.4 51.1Q124.2 50.8 124.2 50.5ZM124.2 46.8L124.2 46.8Q124.2 46.4 124.4 46.2Q124.7 45.9 125 45.9L125 45.9Q125.3 45.9 125.6 46.2Q125.8 46.4 125.8 46.8L125.8 46.8Q125.8 47.1 125.6 47.4Q125.3 47.6 125 47.6L125 47.6Q124.7 47.6 124.4 47.4Q124.2 47.1 124.2 46.8Z M134.8 48.5L134.8 48.5Q134.8 47.7 135 47.2Q135.2 46.6 135.5 46.3Q135.9 45.9 136.3 45.8Q136.8 45.6 137.3 45.6L137.3 45.6Q137.7 45.6 137.9 45.7Q138.3 45.7 138.5 45.8Q138.7 46.0 138.9 46.1Q139.0 46.2 139.1 46.4L139.1 46.4Q139.3 46.6 139.2 46.8Q139.2 47.0 139.0 47.1L139.0 47.1Q138.8 47.2 138.7 47.1Q138.5 47.1 138.4 47.0L138.4 47.0Q138.3 46.8 138.0 46.6Q137.8 46.5 137.3 46.5L137.3 46.5Q137.0 46.5 136.7 46.6Q136.4 46.7 136.2 47.0Q135.9 47.2 135.8 47.6Q135.7 47.9 135.7 48.4L135.7 48.4Q135.7 48.9 135.8 49.3Q135.9 49.7 136.2 49.9Q136.4 50.2 136.7 50.3Q137.0 50.4 137.3 50.4L137.3 50.4Q137.6 50.4 137.9 50.3Q138.1 50.3 138.3 50.1L138.3 50.1Q138.4 50 138.6 50.0Q138.8 50.0 138.9 50.1L138.9 50.1Q139.0 50.2 139.0 50.2Q139.1 50.3 139.1 50.4Q139.1 50.5 139.0 50.6Q139.0 50.7 138.9 50.8L138.9 50.8Q138.7 51.0 138.6 51.1Q138.4 51.2 138.2 51.2Q138.0 51.3 137.7 51.3Q137.5 51.3 137.3 51.3L137.3 51.3Q136.8 51.3 136.3 51.1Q135.8 51.0 135.5 50.6Q135.2 50.3 135.0 49.7Q134.8 49.2 134.8 48.5ZM141.8 48.0L141.8 50.9Q141.8 51.1 141.7 51.2Q141.6 51.3 141.4 51.3L141.4 51.3Q141.2 51.3 141.1 51.2Q140.9 51.1 140.9 50.9L140.9 50.9L140.9 44.3Q140.9 44.0 141.1 43.9Q141.2 43.8 141.4 43.8L141.4 43.8Q141.6 43.8 141.7 43.9Q141.8 44.0 141.8 44.3L141.8 44.3L141.8 46.6Q142.0 46.2 142.3 45.9Q142.7 45.6 143.2 45.6L143.2 45.6Q143.6 45.6 144.0 45.7Q144.3 45.9 144.5 46.1Q144.8 46.4 144.9 46.7Q145.1 47.1 145.1 47.5L145.1 47.5L145.1 50.9Q145.1 51.1 144.9 51.2Q144.8 51.3 144.6 51.3L144.6 51.3Q144.4 51.3 144.3 51.2Q144.2 51.1 144.2 50.9L144.2 50.9L144.2 47.8Q144.2 47.5 144.1 47.3Q144.0 47.0 143.9 46.9Q143.7 46.7 143.5 46.6Q143.3 46.5 143.1 46.5L143.1 46.5Q142.8 46.5 142.6 46.6Q142.3 46.8 142.2 47.0Q142.0 47.2 141.9 47.5Q141.8 47.8 141.8 48.0L141.8 48.0ZM149 51.3L149 51.3Q148.4 51.3 148 51.1Q147.6 50.9 147.3 50.5Q147.0 50.1 146.9 49.6Q146.8 49.1 146.8 48.4L146.8 48.4Q146.8 47.8 146.9 47.3Q147.0 46.8 147.3 46.4Q147.6 46.0 148.0 45.8Q148.4 45.6 149 45.6L149 45.6Q149.6 45.6 150.0 45.8Q150.4 46.0 150.7 46.4Q151.0 46.8 151.1 47.3Q151.3 47.8 151.3 48.4L151.3 48.4Q151.3 49.1 151.1 49.6Q151.0 50.1 150.7 50.5Q150.4 50.9 150.0 51.1Q149.6 51.3 149 51.3ZM149 50.4L149 50.4Q149.3 50.4 149.6 50.3Q149.9 50.1 150.0 49.9Q150.2 49.6 150.3 49.2Q150.3 48.9 150.3 48.4L150.3 48.4Q150.3 48.0 150.3 47.7Q150.2 47.3 150.0 47.0Q149.9 46.8 149.6 46.6Q149.4 46.5 149 46.5L149 46.5Q148.6 46.5 148.4 46.6Q148.1 46.8 148.0 47.0Q147.8 47.3 147.7 47.7Q147.7 48.0 147.7 48.5L147.7 48.5Q147.7 48.9 147.7 49.2Q147.8 49.6 148.0 49.9Q148.1 50.1 148.4 50.3Q148.7 50.4 149 50.4ZM153.6 51.3L153.6 51.3Q153.3 51.3 153.2 51.2Q153.1 51.1 153.1 50.9L153.1 50.9L153.1 46.1Q153.1 45.8 153.2 45.7Q153.3 45.6 153.6 45.6L153.6 45.6Q153.8 45.6 153.9 45.7Q154 45.8 154 46.1L154 46.1L154 46.6Q154.1 46.4 154.3 46.2Q154.5 46.0 154.7 45.9Q155.0 45.8 155.3 45.7Q155.6 45.6 155.8 45.6L155.8 45.6Q156.3 45.6 156.6 45.8Q156.9 45.9 157.0 46.2Q157.2 46.5 157.2 46.8Q157.3 47.2 157.3 47.6L157.3 47.6L157.3 47.7Q157.3 47.9 157.2 48.0Q157.1 48.2 156.8 48.2L156.8 48.2Q156.6 48.2 156.5 48.0Q156.4 47.9 156.4 47.7L156.4 47.7L156.4 47.6Q156.4 47.4 156.4 47.2Q156.3 47.0 156.2 46.8Q156.1 46.7 156.0 46.6Q155.8 46.5 155.5 46.5L155.5 46.5Q155.3 46.5 155 46.6Q154.7 46.6 154.5 46.8Q154.3 46.9 154.1 47.2Q154 47.4 154 47.7L154 47.7L154 50.9Q154 51.1 153.9 51.2Q153.8 51.3 153.6 51.3ZM162.6 49.9L162.6 49.9Q162.8 49.9 162.9 50.0Q163.0 50.2 163.0 50.3L163.0 50.3Q163.0 50.4 163.0 50.5Q162.9 50.6 162.8 50.7L162.8 50.7Q162.7 50.9 162.5 51.0Q162.3 51.1 162.1 51.2Q161.9 51.2 161.7 51.3Q161.4 51.3 161.2 51.3L161.2 51.3Q160.6 51.3 160.2 51.1Q159.7 50.9 159.4 50.5Q159.1 50.2 158.9 49.7Q158.7 49.1 158.7 48.5L158.7 48.5Q158.7 47.9 158.9 47.4Q159.0 46.9 159.3 46.5Q159.5 46.1 160.0 45.8Q160.4 45.6 161.1 45.6L161.1 45.6Q161.7 45.6 162.1 45.8Q162.4 46.0 162.7 46.4Q162.9 46.8 163.0 47.2Q163.2 47.7 163.2 48.3L163.2 48.3Q163.2 48.5 163.0 48.7Q162.9 48.8 162.7 48.8L162.7 48.8L159.7 48.8Q159.7 49.2 159.8 49.5Q159.9 49.8 160.2 50.0Q160.3 50.2 160.6 50.3Q160.9 50.4 161.2 50.4L161.2 50.4Q161.7 50.4 161.9 50.3Q162.2 50.1 162.3 50L162.3 50Q162.4 49.9 162.5 49.9Q162.5 49.9 162.6 49.9ZM159.7 48L162.1 48Q162.1 48 162.2 47.9Q162.3 47.9 162.3 47.7L162.3 47.7Q162.3 47.5 162.2 47.3Q162.1 47.0 161.9 46.9Q161.8 46.7 161.6 46.6Q161.3 46.5 161.1 46.5L161.1 46.5Q160.7 46.5 160.5 46.6Q160.3 46.7 160.1 46.9Q159.9 47.1 159.8 47.4Q159.7 47.7 159.7 48L159.7 48ZM168.4 52.1L168.4 52.1Q168.6 52.3 168.6 52.4Q168.6 52.6 168.4 52.7L168.4 52.7Q168.3 52.9 168.1 52.9Q167.9 52.9 167.8 52.8L167.8 52.8Q167.2 52.3 166.8 51.8Q166.3 51.2 166.0 50.6Q165.7 50.0 165.6 49.2Q165.4 48.5 165.4 47.7L165.4 47.7Q165.4 46.9 165.5 46.2Q165.7 45.5 166.0 44.9Q166.3 44.3 166.7 43.8Q167.1 43.3 167.7 42.8L167.7 42.8Q167.9 42.6 168.1 42.7Q168.2 42.7 168.4 42.8L168.4 42.8Q168.6 43 168.6 43.1Q168.5 43.3 168.4 43.5L168.4 43.5Q167.9 43.8 167.6 44.3Q167.2 44.8 166.9 45.3Q166.6 45.8 166.5 46.4Q166.3 47.0 166.3 47.7L166.3 47.7Q166.3 48.4 166.5 49.0Q166.6 49.6 166.9 50.2Q167.2 50.7 167.6 51.2Q168.0 51.7 168.4 52.1ZM174.9 51.3L174.9 51.3Q174.7 51.3 174.5 51.2Q174.4 51 174.4 50.8L174.4 50.8L174.4 50.7Q174.4 50.4 174.5 50.3Q174.7 50.1 174.9 50.1L174.9 50.1Q175.1 50.1 175.3 50.3Q175.4 50.4 175.4 50.7L175.4 50.7L175.4 50.8Q175.4 51 175.3 51.2Q175.1 51.3 174.9 51.3ZM171.1 51.3L171.1 51.3Q170.9 51.3 170.7 51.2Q170.6 51 170.6 50.8L170.6 50.8L170.6 50.7Q170.6 50.4 170.7 50.3Q170.9 50.1 171.1 50.1L171.1 50.1Q171.3 50.1 171.5 50.3Q171.6 50.4 171.6 50.7L171.6 50.7L171.6 50.8Q171.6 51 171.5 51.2Q171.3 51.3 171.1 51.3ZM173 51.3L173 51.3Q172.8 51.3 172.6 51.2Q172.5 51 172.5 50.8L172.5 50.8L172.5 50.7Q172.5 50.4 172.6 50.3Q172.8 50.1 173 50.1L173 50.1Q173.2 50.1 173.4 50.3Q173.5 50.4 173.5 50.7L173.5 50.7L173.5 50.8Q173.5 51 173.4 51.2Q173.2 51.3 173 51.3Z " clip-path="url(#satori_cp-id-1-0-1)" mask="url(#satori_om-id-1-0-1)"/><mask id="satori_om-id-1-1"><rect x="17" y="61" width="160" height="14" fill="#fff"/></mask><mask id="satori_om-id-1-1-0"><rect x="17" y="61" width="16" height="14" fill="#fff"/></mask><path x="17" y="61" width="16" height="14" fill="#1A7F3718" d="M21,61 h8 a4,4 0 0 1 4,4 v6 a4,4 0 0 1 -4,4 h-8 a4,4 0 0 1 -4,-4 v-6 a4,4 0 0 1 4,-4"/><path fill="#1A7F37" d="M22.5 68.0L22.5 68.0Q22.5 67.3 22.6 66.6Q22.8 66.0 23.1 65.5Q23.4 65.1 23.9 64.8Q24.5 64.5 25.2 64.5L25.2 64.5Q25.6 64.5 25.9 64.6Q26.2 64.7 26.4 64.8Q26.6 64.9 26.7 65.1Q26.8 65.2 26.9 65.4L26.9 65.4Q27.0 65.7 27.0 65.9Q26.9 66.1 26.7 66.2L26.7 66.2Q26.6 66.3 26.4 66.3Q26.1 66.2 26.0 66.0L26.0 66.0Q25.9 65.8 25.7 65.7Q25.5 65.6 25.2 65.6L25.2 65.6Q24.8 65.6 24.5 65.8Q24.2 66.0 24.0 66.3Q23.8 66.7 23.7 67.1Q23.7 67.5 23.7 67.9L23.7 67.9Q23.7 68.3 23.7 68.7Q23.8 69.1 24.0 69.4Q24.1 69.7 24.4 70.0Q24.7 70.2 25.2 70.2L25.2 70.2Q25.3 70.2 25.5 70.2Q25.6 70.1 25.7 70.1Q25.8 70.1 25.9 70.0Q26.0 70.0 26.0 69.9L26.0 69.9Q26.2 69.7 26.4 69.7Q26.6 69.8 26.8 69.9L26.8 69.9Q26.9 70.0 26.9 70.3Q27.0 70.5 26.8 70.7L26.8 70.7Q26.7 70.9 26.5 71.0Q26.3 71.1 26.1 71.2Q25.9 71.2 25.6 71.2Q25.4 71.3 25.2 71.3L25.2 71.3Q24.4 71.3 23.9 71.0Q23.3 70.7 23.0 70.3Q22.7 69.8 22.6 69.2Q22.5 68.6 22.5 68.0Z "/><clipPath id="satori_cp-id-1-1-1"><rect x="38" y="61" width="139" height="13"/></clipPath><mask id="satori_om-id-1-1-1"><rect x="38" y="61" width="139" height="13" fill="#fff"/></mask><path fill="#E6EDF3" d="M39.4 71.3L39.4 71.3Q39.1 71.3 39.0 71.2Q38.9 71.1 38.9 70.8L38.9 70.8L38.9 64.3Q38.9 64.0 39.0 63.9Q39.1 63.8 39.4 63.8L39.4 63.8Q39.6 63.8 39.7 63.9Q39.8 64.0 39.8 64.3L39.8 64.3L39.8 66.6Q39.9 66.2 40.3 65.9Q40.6 65.6 41.2 65.6L41.2 65.6Q41.8 65.6 42.2 65.9Q42.6 66.1 42.8 66.6Q43.0 67.0 43.1 67.6Q43.2 68.1 43.2 68.6L43.2 68.6Q43.2 69.1 43.1 69.6Q43.1 70.0 42.9 70.4Q42.6 70.8 42.3 71.1Q41.9 71.3 41.3 71.3L41.3 71.3Q41.0 71.3 40.8 71.2Q40.5 71.1 40.3 71.0Q40.2 70.9 40.0 70.7Q39.9 70.5 39.8 70.2L39.8 70.2L39.8 70.8Q39.8 71.1 39.7 71.2Q39.6 71.3 39.4 71.3ZM41.2 70.4L41.2 70.4Q41.5 70.4 41.7 70.3Q42.0 70.1 42.1 69.9Q42.2 69.6 42.3 69.3Q42.3 69.0 42.3 68.6L42.3 68.6Q42.3 68.2 42.3 67.8Q42.2 67.5 42.1 67.2Q42.0 66.9 41.7 66.7Q41.5 66.5 41.0 66.5L41.0 66.5Q40.8 66.5 40.5 66.7Q40.3 66.8 40.1 67.0Q40.0 67.3 39.9 67.5Q39.8 67.8 39.8 68.0L39.8 68.0L39.8 69.1Q39.8 69.4 39.9 69.6Q40.0 69.8 40.2 70.0Q40.4 70.2 40.7 70.3Q40.9 70.4 41.2 70.4ZM47.7 70.3L49.1 70.3Q49.3 70.3 49.4 70.4Q49.5 70.5 49.5 70.8Q49.5 71.0 49.4 71.1Q49.3 71.2 49.1 71.2L49.1 71.2L45.3 71.2Q45.1 71.2 45.0 71.1Q44.9 71.0 44.9 70.8Q44.9 70.5 45.0 70.4Q45.1 70.3 45.3 70.3L45.3 70.3L46.8 70.3L46.8 67.2Q46.8 67 46.7 66.9Q46.6 66.8 46.4 66.8L46.4 66.8L45.5 66.8Q45.3 66.8 45.2 66.7Q45.0 66.5 45.0 66.4Q45.0 66.2 45.2 66.0Q45.3 65.9 45.5 65.9L45.5 65.9L46.9 65.9Q47.3 65.9 47.5 66.1Q47.7 66.3 47.7 66.7L47.7 66.7L47.7 70.3ZM47.2 64.9L47.2 64.9Q46.9 64.9 46.7 64.7Q46.5 64.6 46.5 64.3L46.5 64.3Q46.5 64.0 46.7 63.8Q46.9 63.6 47.2 63.6L47.2 63.6Q47.5 63.6 47.7 63.8Q47.9 64.0 47.9 64.3L47.9 64.3Q47.9 64.6 47.7 64.7Q47.5 64.9 47.2 64.9ZM53.1 64.7L53.1 69.0Q53.1 69.7 53.3 70.0Q53.5 70.4 53.9 70.4L53.9 70.4Q54.1 70.4 54.3 70.4Q54.5 70.3 54.8 70.2L54.8 70.2Q55.0 70.1 55.1 70.2Q55.3 70.2 55.4 70.4L55.4 70.4Q55.5 70.6 55.4 70.8Q55.4 71.0 55.2 71.0L55.2 71.0Q54.9 71.2 54.6 71.3Q54.2 71.3 53.8 71.3L53.8 71.3Q53.4 71.3 53.1 71.2Q52.8 71.0 52.6 70.8Q52.4 70.5 52.3 70.1Q52.2 69.7 52.2 69.1L52.2 69.1L52.2 65.1Q52.2 64.9 52.1 64.8Q52 64.7 51.8 64.7L51.8 64.7L51.1 64.7Q50.9 64.7 50.8 64.6Q50.6 64.5 50.6 64.3L50.6 64.3Q50.6 64.1 50.8 64.0Q50.9 63.9 51.1 63.9L51.1 63.9L52.3 63.9Q52.7 63.9 52.9 64.1Q53.1 64.3 53.1 64.7L53.1 64.7ZM59.7 70.3L61.1 70.3Q61.3 70.3 61.4 70.4Q61.5 70.5 61.5 70.8Q61.5 71.0 61.4 71.1Q61.3 71.2 61.1 71.2L61.1 71.2L57.3 71.2Q57.1 71.2 57.0 71.1Q56.9 71.0 56.9 70.8Q56.9 70.5 57.0 70.4Q57.1 70.3 57.3 70.3L57.3 70.3L58.8 70.3L58.8 67.2Q58.8 67 58.7 66.9Q58.6 66.8 58.4 66.8L58.4 66.8L57.5 66.8Q57.3 66.8 57.2 66.7Q57.0 66.5 57.0 66.4Q57.0 66.2 57.2 66.0Q57.3 65.9 57.5 65.9L57.5 65.9L58.9 65.9Q59.3 65.9 59.5 66.1Q59.7 66.3 59.7 66.7L59.7 66.7L59.7 70.3ZM59.2 64.9L59.2 64.9Q58.9 64.9 58.7 64.7Q58.5 64.6 58.5 64.3L58.5 64.3Q58.5 64.0 58.7 63.8Q58.9 63.6 59.2 63.6L59.2 63.6Q59.5 63.6 59.7 63.8Q59.9 64.0 59.9 64.3L59.9 64.3Q59.9 64.6 59.7 64.7Q59.5 64.9 59.2 64.9ZM63.4 71.3L63.4 71.3Q63.1 71.3 63.0 71.2Q62.9 71.1 62.9 70.8L62.9 70.8L62.9 64.3Q62.9 64.0 63.0 63.9Q63.1 63.8 63.4 63.8L63.4 63.8Q63.6 63.8 63.7 63.9Q63.8 64.0 63.8 64.3L63.8 64.3L63.8 66.6Q63.9 66.2 64.3 65.9Q64.6 65.6 65.2 65.6L65.2 65.6Q65.8 65.6 66.2 65.9Q66.6 66.1 66.8 66.6Q67.0 67.0 67.1 67.6Q67.2 68.1 67.2 68.6L67.2 68.6Q67.2 69.1 67.1 69.6Q67.1 70.0 66.8 70.4Q66.6 70.8 66.3 71.1Q65.9 71.3 65.3 71.3L65.3 71.3Q65.0 71.3 64.8 71.2Q64.5 71.1 64.3 71.0Q64.2 70.9 64.0 70.7Q63.9 70.5 63.8 70.2L63.8 70.2L63.8 70.8Q63.8 71.1 63.7 71.2Q63.6 71.3 63.4 71.3ZM65.2 70.4L65.2 70.4Q65.5 70.4 65.7 70.3Q66.0 70.1 66.1 69.9Q66.2 69.6 66.3 69.3Q66.3 69.0 66.3 68.6L66.3 68.6Q66.3 68.2 66.3 67.8Q66.2 67.5 66.1 67.2Q66.0 66.9 65.7 66.7Q65.5 66.5 65.0 66.5L65.0 66.5Q64.8 66.5 64.5 66.7Q64.3 66.8 64.1 67.0Q64.0 67.3 63.9 67.5Q63.8 67.8 63.8 68.0L63.8 68.0L63.8 69.1Q63.8 69.4 63.9 69.6Q64.0 69.8 64.2 70.0Q64.4 70.2 64.7 70.3Q64.9 70.4 65.2 70.4ZM71.7 70.3L73.1 70.3Q73.3 70.3 73.4 70.4Q73.5 70.5 73.5 70.8Q73.5 71.0 73.4 71.1Q73.3 71.2 73.1 71.2L73.1 71.2L69.3 71.2Q69.1 71.2 69.0 71.1Q68.8 71.0 68.8 70.8Q68.8 70.5 69.0 70.4Q69.1 70.3 69.3 70.3L69.3 70.3L70.8 70.3L70.8 67.2Q70.8 67 70.7 66.9Q70.6 66.8 70.4 66.8L70.4 66.8L69.5 66.8Q69.3 66.8 69.2 66.7Q69.0 66.5 69.0 66.4Q69.0 66.2 69.2 66.0Q69.3 65.9 69.5 65.9L69.5 65.9L70.9 65.9Q71.3 65.9 71.5 66.1Q71.7 66.3 71.7 66.7L71.7 66.7L71.7 70.3ZM71.2 64.9L71.2 64.9Q70.9 64.9 70.7 64.7Q70.5 64.6 70.5 64.3L70.5 64.3Q70.5 64.0 70.7 63.8Q70.9 63.6 71.2 63.6L71.2 63.6Q71.5 63.6 71.7 63.8Q71.9 64.0 71.9 64.3L71.9 64.3Q71.9 64.6 71.7 64.7Q71.5 64.9 71.2 64.9ZM77.1 64.7L77.1 69.0Q77.1 69.7 77.3 70.0Q77.5 70.4 77.9 70.4L77.9 70.4Q78.1 70.4 78.3 70.4Q78.5 70.3 78.8 70.2L78.8 70.2Q79.0 70.1 79.1 70.2Q79.3 70.2 79.4 70.4L79.4 70.4Q79.5 70.6 79.4 70.8Q79.4 71.0 79.2 71.0L79.2 71.0Q78.9 71.2 78.6 71.3Q78.2 71.3 77.8 71.3L77.8 71.3Q77.4 71.3 77.1 71.2Q76.8 71.0 76.6 70.8Q76.4 70.5 76.3 70.1Q76.2 69.7 76.2 69.1L76.2 69.1L76.2 65.1Q76.2 64.9 76.1 64.8Q76 64.7 75.8 64.7L75.8 64.7L75.1 64.7Q74.9 64.7 74.8 64.6Q74.7 64.5 74.7 64.3L74.7 64.3Q74.7 64.1 74.8 64.0Q74.9 63.9 75.1 63.9L75.1 63.9L76.3 63.9Q76.7 63.9 76.9 64.1Q77.1 64.3 77.1 64.7L77.1 64.7ZM83.7 70.3L85.1 70.3Q85.3 70.3 85.4 70.4Q85.5 70.5 85.5 70.8Q85.5 71.0 85.4 71.1Q85.3 71.2 85.1 71.2L85.1 71.2L81.3 71.2Q81.1 71.2 81.0 71.1Q80.8 71.0 80.8 70.8Q80.8 70.5 81.0 70.4Q81.1 70.3 81.3 70.3L81.3 70.3L82.8 70.3L82.8 67.2Q82.8 67 82.7 66.9Q82.6 66.8 82.4 66.8L82.4 66.8L81.5 66.8Q81.3 66.8 81.2 66.7Q81.0 66.5 81.0 66.4Q81.0 66.2 81.2 66.0Q81.3 65.9 81.5 65.9L81.5 65.9L82.9 65.9Q83.3 65.9 83.5 66.1Q83.7 66.3 83.7 66.7L83.7 66.7L83.7 70.3ZM83.2 64.9L83.2 64.9Q82.9 64.9 82.7 64.7Q82.5 64.6 82.5 64.3L82.5 64.3Q82.5 64.0 82.7 63.8Q82.9 63.6 83.2 63.6L83.2 63.6Q83.5 63.6 83.7 63.8Q83.9 64.0 83.9 64.3L83.9 64.3Q83.9 64.6 83.7 64.7Q83.5 64.9 83.2 64.9ZM90.8 68.4L87.2 68.4Q87.0 68.4 86.9 68.2Q86.8 68.1 86.8 67.9L86.8 67.9Q86.8 67.7 86.9 67.6Q87.0 67.5 87.2 67.5L87.2 67.5L90.8 67.5Q91.0 67.5 91.1 67.6Q91.3 67.7 91.3 67.9L91.3 67.9Q91.3 68.1 91.1 68.2Q91.0 68.4 90.8 68.4L90.8 68.4ZM93.8 68.0L93.8 70.9Q93.8 71.1 93.7 71.2Q93.6 71.3 93.4 71.3L93.4 71.3Q93.2 71.3 93.1 71.2Q93.0 71.1 93.0 70.9L93.0 70.9L93.0 64.3Q93.0 64.0 93.1 63.9Q93.2 63.8 93.4 63.8L93.4 63.8Q93.6 63.8 93.7 63.9Q93.8 64.0 93.8 64.3L93.8 64.3L93.8 66.6Q94.0 66.2 94.3 65.9Q94.7 65.6 95.2 65.6L95.2 65.6Q95.6 65.6 96.0 65.7Q96.3 65.9 96.5 66.1Q96.8 66.4 96.9 66.7Q97.0 67.1 97.0 67.5L97.0 67.5L97.0 70.9Q97.0 71.1 96.9 71.2Q96.8 71.3 96.6 71.3L96.6 71.3Q96.4 71.3 96.3 71.2Q96.2 71.1 96.2 70.9L96.2 70.9L96.2 67.8Q96.2 67.5 96.1 67.3Q96.0 67.0 95.9 66.9Q95.7 66.7 95.5 66.6Q95.3 66.5 95.1 66.5L95.1 66.5Q94.8 66.5 94.6 66.6Q94.3 66.8 94.2 67.0Q94.0 67.2 93.9 67.5Q93.8 67.8 93.8 68.0L93.8 68.0ZM101.7 70.3L103.1 70.3Q103.3 70.3 103.4 70.4Q103.5 70.5 103.5 70.8Q103.5 71.0 103.4 71.1Q103.3 71.2 103.1 71.2L103.1 71.2L99.3 71.2Q99.1 71.2 99.0 71.1Q98.8 71.0 98.8 70.8Q98.8 70.5 99.0 70.4Q99.1 70.3 99.3 70.3L99.3 70.3L100.8 70.3L100.8 67.2Q100.8 67 100.7 66.9Q100.6 66.8 100.4 66.8L100.4 66.8L99.5 66.8Q99.3 66.8 99.2 66.7Q99.0 66.5 99.0 66.4Q99.0 66.2 99.2 66.0Q99.3 65.9 99.5 65.9L99.5 65.9L100.9 65.9Q101.3 65.9 101.5 66.1Q101.7 66.3 101.7 66.7L101.7 66.7L101.7 70.3ZM101.2 64.9L101.2 64.9Q100.9 64.9 100.7 64.7Q100.5 64.6 100.5 64.3L100.5 64.3Q100.5 64.0 100.7 63.8Q100.9 63.6 101.2 63.6L101.2 63.6Q101.5 63.6 101.7 63.8Q101.9 64.0 101.9 64.3L101.9 64.3Q101.9 64.6 101.7 64.7Q101.5 64.9 101.2 64.9ZM107.0 71.3L107.0 71.3Q106.7 71.3 106.4 71.3Q106.2 71.2 105.9 71.1Q105.7 71.0 105.4 70.9Q105.2 70.7 105.0 70.5L105.0 70.5Q104.9 70.4 104.9 70.2Q104.8 70.1 104.8 70.0L104.8 70.0Q104.8 69.7 104.9 69.7Q105.0 69.6 105.2 69.6L105.2 69.6Q105.3 69.6 105.4 69.6Q105.5 69.7 105.6 69.8L105.6 69.8Q105.9 70.0 106.2 70.2Q106.5 70.4 107 70.4L107 70.4Q107.2 70.4 107.4 70.4Q107.6 70.4 107.8 70.3Q108.0 70.2 108.2 70.1Q108.3 69.9 108.3 69.7L108.3 69.7Q108.3 69.5 108.2 69.3Q108.0 69.2 107.8 69.1Q107.6 69.0 107.4 68.9Q107.2 68.8 107 68.8L107 68.8Q106.7 68.7 106.3 68.6Q106.0 68.5 105.7 68.4Q105.4 68.2 105.2 67.9Q105.0 67.6 105.0 67.1L105.0 67.1Q105.0 66.7 105.2 66.4Q105.3 66.1 105.6 66.0Q105.9 65.8 106.2 65.7Q106.6 65.6 107 65.6L107 65.6Q107.7 65.6 108.2 65.8Q108.7 66.0 109.0 66.5L109.0 66.5Q109.0 66.6 109.1 66.7Q109.1 66.7 109.1 66.8L109.1 66.8Q109.1 67.0 109.0 67.1Q108.9 67.2 108.7 67.2L108.7 67.2Q108.6 67.2 108.5 67.2Q108.4 67.1 108.3 67.0L108.3 67.0Q108.0 66.8 107.7 66.6Q107.5 66.5 107 66.5L107 66.5Q106.8 66.5 106.6 66.5Q106.4 66.6 106.2 66.7Q106.1 66.7 106.0 66.8Q105.9 67.0 105.9 67.1L105.9 67.1Q105.9 67.3 106.0 67.5Q106.1 67.6 106.3 67.7Q106.5 67.8 106.7 67.8Q106.8 67.9 107 67.9L107 67.9Q107.4 68.0 107.8 68.1Q108.2 68.2 108.5 68.4Q108.8 68.6 109 68.9Q109.2 69.2 109.2 69.7L109.2 69.7Q109.2 70.2 109.0 70.5Q108.8 70.8 108.5 70.9Q108.2 71.1 107.8 71.2Q107.5 71.3 107.0 71.3ZM113.0 65.9L114.8 65.9Q115.0 65.9 115.1 66.0Q115.2 66.2 115.2 66.4Q115.2 66.5 115.1 66.7Q115.0 66.8 114.8 66.8L114.8 66.8L113.0 66.8L113.0 69.0Q113.0 69.7 113.2 70.0Q113.4 70.4 113.8 70.4L113.8 70.4Q114 70.4 114.2 70.4Q114.4 70.3 114.6 70.2L114.6 70.2Q114.8 70.1 115.0 70.2Q115.1 70.2 115.2 70.4L115.2 70.4Q115.3 70.6 115.3 70.8Q115.3 71.0 115.1 71.0L115.1 71.0Q114.8 71.2 114.4 71.3Q114.1 71.3 113.7 71.3L113.7 71.3Q113.3 71.3 113.0 71.2Q112.7 71.0 112.5 70.8Q112.3 70.5 112.2 70.1Q112.0 69.7 112.0 69.1L112.0 69.1L112.0 66.8L110.9 66.8Q110.7 66.8 110.6 66.7Q110.5 66.5 110.5 66.4Q110.5 66.2 110.6 66.0Q110.7 65.9 110.9 65.9L110.9 65.9L112.0 65.9L112.0 64.6Q112.0 64.4 112.2 64.3Q112.3 64.2 112.5 64.2Q112.7 64.2 112.8 64.3Q113.0 64.4 113.0 64.6L113.0 64.6L113.0 65.9ZM119 71.3L119 71.3Q118.4 71.3 118 71.1Q117.6 70.9 117.3 70.5Q117.0 70.1 116.9 69.6Q116.8 69.1 116.8 68.4L116.8 68.4Q116.8 67.8 116.9 67.3Q117.0 66.8 117.3 66.4Q117.6 66.0 118.0 65.8Q118.4 65.6 119 65.6L119 65.6Q119.6 65.6 120.0 65.8Q120.4 66.0 120.7 66.4Q121.0 66.8 121.1 67.3Q121.3 67.8 121.3 68.4L121.3 68.4Q121.3 69.1 121.1 69.6Q121.0 70.1 120.7 70.5Q120.4 70.9 120.0 71.1Q119.6 71.3 119 71.3ZM119 70.4L119 70.4Q119.3 70.4 119.6 70.3Q119.9 70.1 120.0 69.9Q120.2 69.6 120.3 69.2Q120.3 68.9 120.3 68.4L120.3 68.4Q120.3 68.0 120.3 67.7Q120.2 67.3 120.0 67.0Q119.9 66.8 119.6 66.6Q119.4 66.5 119 66.5L119 66.5Q118.6 66.5 118.4 66.6Q118.1 66.8 118.0 67.0Q117.8 67.3 117.7 67.7Q117.7 68.0 117.7 68.5L117.7 68.5Q117.7 68.9 117.7 69.2Q117.8 69.6 118.0 69.9Q118.1 70.1 118.4 70.3Q118.7 70.4 119 70.4ZM123.5 71.3L123.5 71.3Q123.3 71.3 123.2 71.2Q123.1 71.1 123.1 70.9L123.1 70.9L123.1 66.0Q123.1 65.8 123.2 65.7Q123.3 65.6 123.5 65.6L123.5 65.6Q123.8 65.6 123.9 65.7Q124 65.8 124 66.0L124 66.0L124 66.6Q124.1 66.4 124.3 66.2Q124.5 66.0 124.7 65.9Q125.0 65.8 125.3 65.7Q125.5 65.6 125.8 65.6L125.8 65.6Q126.3 65.6 126.6 65.8Q126.9 65.9 127.0 66.2Q127.2 66.5 127.2 66.8Q127.3 67.2 127.3 67.6L127.3 67.6L127.3 67.7Q127.3 67.9 127.2 68.0Q127.1 68.2 126.8 68.2L126.8 68.2Q126.6 68.2 126.5 68.0Q126.4 67.9 126.4 67.7L126.4 67.7L126.4 67.6Q126.4 67.4 126.4 67.2Q126.3 67.0 126.2 66.8Q126.1 66.7 126.0 66.6Q125.8 66.5 125.5 66.5L125.5 66.5Q125.3 66.5 125 66.6Q124.7 66.6 124.5 66.8Q124.3 66.9 124.1 67.2Q124 67.4 124 67.7L124 67.7L124 70.9Q124 71.1 123.9 71.2Q123.8 71.3 123.5 71.3ZM131.1 69.8L132.5 65.9Q132.5 65.8 132.6 65.8Q132.7 65.7 132.9 65.7L132.9 65.7Q133.1 65.7 133.2 65.8Q133.3 65.9 133.3 66.1L133.3 66.1Q133.3 66.1 133.3 66.2Q133.3 66.3 133.3 66.4L133.3 66.4L131.5 71.3Q131.5 71.5 131.3 71.8Q131.2 72.0 131.1 72.3Q130.9 72.6 130.7 72.8Q130.6 73.0 130.4 73.2L130.4 73.2Q130.2 73.3 129.8 73.4Q129.6 73.5 129.3 73.5L129.3 73.5Q129.0 73.5 128.9 73.4Q128.8 73.3 128.8 73.0L128.8 73.0L128.8 73.0Q128.8 72.8 128.9 72.7Q129.0 72.6 129.3 72.6L129.3 72.6Q129.4 72.6 129.6 72.5Q129.8 72.5 129.9 72.4Q130.0 72.2 130.1 72.1Q130.2 72.0 130.3 71.9Q130.4 71.8 130.4 71.6Q130.5 71.5 130.5 71.3L130.5 71.3L130.6 71.1L128.8 66.4Q128.8 66.3 128.8 66.2Q128.8 66.1 128.8 66.0L128.8 66.0Q128.8 65.9 128.9 65.8Q129.0 65.7 129.2 65.7L129.2 65.7Q129.4 65.7 129.5 65.8Q129.6 65.8 129.6 65.9L129.6 65.9L131.1 69.8ZM138.8 68.4L135.2 68.4Q135.0 68.4 134.9 68.2Q134.8 68.1 134.8 67.9L134.8 67.9Q134.8 67.7 134.9 67.6Q135.0 67.5 135.2 67.5L135.2 67.5L138.8 67.5Q139.0 67.5 139.1 67.6Q139.3 67.7 139.3 67.9L139.3 67.9Q139.3 68.1 139.1 68.2Q139.0 68.4 138.8 68.4L138.8 68.4ZM140.9 70.7L140.4 66.2Q140.3 65.9 140.4 65.7Q140.6 65.6 140.8 65.6L140.8 65.6Q141.0 65.6 141.1 65.7Q141.3 65.8 141.3 66.0L141.3 66.0L141.7 70.2L142.4 67.3Q142.5 67.0 142.6 66.9Q142.8 66.8 143 66.8L143 66.8Q143.2 66.8 143.4 66.9Q143.5 67.0 143.6 67.3L143.6 67.3L144.3 70.2L144.7 66.0Q144.8 65.8 144.9 65.7Q145.0 65.6 145.2 65.6L145.2 65.6Q145.4 65.6 145.6 65.7Q145.7 65.9 145.6 66.2L145.6 66.2L145.0 70.7Q145 71 144.8 71.2Q144.7 71.3 144.4 71.3L144.4 71.3Q144.1 71.3 143.9 71.2Q143.7 71 143.7 70.7L143.7 70.7L143 68.1L142.3 70.7Q142.3 71 142.1 71.2Q141.9 71.3 141.6 71.3L141.6 71.3Q141.3 71.3 141.2 71.2Q141.0 71 140.9 70.7L140.9 70.7ZM149 69.2L147.8 71Q147.7 71.1 147.5 71.2Q147.4 71.3 147.2 71.3L147.2 71.3Q147.1 71.3 147.0 71.3Q146.9 71.2 146.9 71.1Q146.8 71.1 146.8 71.0Q146.8 70.9 146.9 70.7L146.9 70.7L148.5 68.4L147 66.2Q146.9 66.0 146.9 65.9Q146.9 65.8 147.0 65.7Q147.0 65.7 147.1 65.6Q147.2 65.6 147.3 65.6L147.3 65.6Q147.5 65.6 147.6 65.7Q147.8 65.8 147.9 65.9L147.9 65.9L149 67.6L150.1 65.9Q150.2 65.8 150.4 65.7Q150.5 65.6 150.7 65.6L150.7 65.6Q150.8 65.6 150.9 65.6Q151.0 65.7 151.0 65.7Q151.1 65.8 151.1 65.9Q151.1 66.0 151 66.2L151 66.2L149.5 68.4L151.1 70.7Q151.2 70.9 151.2 71.0Q151.2 71.1 151.1 71.1Q151.1 71.2 151.0 71.3Q150.9 71.3 150.8 71.3L150.8 71.3Q150.6 71.3 150.5 71.2Q150.3 71.2 150.3 71L150.3 71L149 69.2ZM154.9 65.9L156.8 65.9Q157.0 65.9 157.1 66.0Q157.2 66.2 157.2 66.4Q157.2 66.5 157.1 66.7Q157.0 66.8 156.8 66.8L156.8 66.8L154.9 66.8L154.9 69.0Q154.9 69.7 155.2 70.0Q155.4 70.4 155.8 70.4L155.8 70.4Q156 70.4 156.2 70.4Q156.4 70.3 156.6 70.2L156.6 70.2Q156.8 70.1 157.0 70.2Q157.1 70.2 157.2 70.4L157.2 70.4Q157.3 70.6 157.3 70.8Q157.3 71.0 157.1 71.0L157.1 71.0Q156.8 71.2 156.4 71.3Q156.1 71.3 155.7 71.3L155.7 71.3Q155.3 71.3 155.0 71.2Q154.7 71.0 154.5 70.8Q154.3 70.5 154.2 70.1Q154.1 69.7 154.1 69.1L154.1 69.1L154.1 66.8L152.9 66.8Q152.7 66.8 152.6 66.7Q152.5 66.5 152.5 66.4Q152.5 66.2 152.6 66.0Q152.7 65.9 152.9 65.9L152.9 65.9L154.1 65.9L154.1 64.6Q154.1 64.4 154.2 64.3Q154.3 64.2 154.5 64.2Q154.7 64.2 154.8 64.3Q154.9 64.4 154.9 64.6L154.9 64.6L154.9 65.9ZM160.2 70.5L160.2 70.5Q160.2 70.1 160.4 69.9Q160.7 69.6 161 69.6L161 69.6Q161.3 69.6 161.6 69.9Q161.8 70.1 161.8 70.5L161.8 70.5Q161.8 70.8 161.6 71.0Q161.3 71.3 161 71.3L161 71.3Q160.7 71.3 160.4 71.0Q160.2 70.8 160.2 70.5ZM160.2 66.8L160.2 66.8Q160.2 66.4 160.4 66.2Q160.7 65.9 161 65.9L161 65.9Q161.3 65.9 161.6 66.2Q161.8 66.4 161.8 66.8L161.8 66.8Q161.8 67.1 161.6 67.4Q161.3 67.6 161 67.6L161 67.6Q160.7 67.6 160.4 67.4Q160.2 67.1 160.2 66.8ZM174.9 71.3L174.9 71.3Q174.7 71.3 174.5 71.2Q174.4 71 174.4 70.8L174.4 70.8L174.4 70.7Q174.4 70.4 174.5 70.3Q174.7 70.1 174.9 70.1L174.9 70.1Q175.1 70.1 175.3 70.3Q175.4 70.4 175.4 70.7L175.4 70.7L175.4 70.8Q175.4 71 175.3 71.2Q175.1 71.3 174.9 71.3ZM171.1 71.3L171.1 71.3Q170.9 71.3 170.7 71.2Q170.6 71 170.6 70.8L170.6 70.8L170.6 70.7Q170.6 70.4 170.7 70.3Q170.9 70.1 171.1 70.1L171.1 70.1Q171.3 70.1 171.5 70.3Q171.6 70.4 171.6 70.7L171.6 70.7L171.6 70.8Q171.6 71 171.5 71.2Q171.3 71.3 171.1 71.3ZM173 71.3L173 71.3Q172.8 71.3 172.6 71.2Q172.5 71 172.5 70.8L172.5 70.8L172.5 70.7Q172.5 70.4 172.6 70.3Q172.8 70.1 173 70.1L173 70.1Q173.2 70.1 173.4 70.3Q173.5 70.4 173.5 70.7L173.5 70.7L173.5 70.8Q173.5 71 173.4 71.2Q173.2 71.3 173 71.3Z " clip-path="url(#satori_cp-id-1-1-1)" mask="url(#satori_om-id-1-1-1)"/><mask id="satori_om-id-1-2"><rect x="17" y="81" width="160" height="13" fill="#fff"/></mask><mask id="satori_om-id-1-2-0"><rect x="17" y="81" width="16" height="13" fill="#fff"/></mask><path x="17" y="81" width="16" height="13" fill="#1A7F3718" d="M21,81 h8 a4,4 0 0 1 4,4 v5 a4,4 0 0 1 -4,4 h-8 a4,4 0 0 1 -4,-4 v-5 a4,4 0 0 1 4,-4"/><path fill="#1A7F37" d="M22.5 88.0L22.5 88.0Q22.5 87.3 22.6 86.6Q22.8 86.0 23.1 85.5Q23.4 85.1 23.9 84.8Q24.5 84.5 25.2 84.5L25.2 84.5Q25.6 84.5 25.9 84.6Q26.2 84.7 26.4 84.8Q26.6 84.9 26.7 85.1Q26.8 85.2 26.9 85.4L26.9 85.4Q27.0 85.7 27.0 85.9Q26.9 86.1 26.7 86.2L26.7 86.2Q26.6 86.3 26.4 86.3Q26.1 86.2 26.0 86.0L26.0 86.0Q25.9 85.8 25.7 85.7Q25.5 85.6 25.2 85.6L25.2 85.6Q24.8 85.6 24.5 85.8Q24.2 86.0 24.0 86.3Q23.8 86.7 23.7 87.1Q23.7 87.5 23.7 87.9L23.7 87.9Q23.7 88.3 23.7 88.7Q23.8 89.1 24.0 89.4Q24.1 89.7 24.4 90.0Q24.7 90.2 25.2 90.2L25.2 90.2Q25.3 90.2 25.5 90.2Q25.6 90.1 25.7 90.1Q25.8 90.1 25.9 90.0Q26.0 90.0 26.0 89.9L26.0 89.9Q26.2 89.7 26.4 89.7Q26.6 89.8 26.8 89.9L26.8 89.9Q26.9 90.0 26.9 90.3Q27.0 90.5 26.8 90.7L26.8 90.7Q26.7 90.9 26.5 91.0Q26.3 91.1 26.1 91.2Q25.9 91.2 25.6 91.2Q25.4 91.3 25.2 91.3L25.2 91.3Q24.4 91.3 23.9 91.0Q23.3 90.7 23.0 90.3Q22.7 89.8 22.6 89.2Q22.5 88.6 22.5 88.0Z "/><clipPath id="satori_cp-id-1-2-1"><rect x="38" y="81" width="139" height="13"/></clipPath><mask id="satori_om-id-1-2-1"><rect x="38" y="81" width="139" height="13" fill="#fff"/></mask><path fill="#E6EDF3" d="M39.4 91.3L39.4 91.3Q39.1 91.3 39.0 91.2Q38.9 91.1 38.9 90.8L38.9 90.8L38.9 84.3Q38.9 84.0 39.0 83.9Q39.1 83.8 39.4 83.8L39.4 83.8Q39.6 83.8 39.7 83.9Q39.8 84.0 39.8 84.3L39.8 84.3L39.8 86.6Q39.9 86.2 40.3 85.9Q40.6 85.6 41.2 85.6L41.2 85.6Q41.8 85.6 42.2 85.9Q42.6 86.1 42.8 86.6Q43.0 87.0 43.1 87.6Q43.2 88.1 43.2 88.6L43.2 88.6Q43.2 89.1 43.1 89.6Q43.1 90.0 42.9 90.4Q42.6 90.8 42.3 91.1Q41.9 91.3 41.3 91.3L41.3 91.3Q41.0 91.3 40.8 91.2Q40.5 91.1 40.3 91.0Q40.2 90.9 40.0 90.7Q39.9 90.5 39.8 90.2L39.8 90.2L39.8 90.8Q39.8 91.1 39.7 91.2Q39.6 91.3 39.4 91.3ZM41.2 90.4L41.2 90.4Q41.5 90.4 41.7 90.3Q42.0 90.1 42.1 89.9Q42.2 89.6 42.3 89.3Q42.3 89.0 42.3 88.6L42.3 88.6Q42.3 88.2 42.3 87.8Q42.2 87.5 42.1 87.2Q42.0 86.9 41.7 86.7Q41.5 86.5 41.0 86.5L41.0 86.5Q40.8 86.5 40.5 86.7Q40.3 86.8 40.1 87.0Q40.0 87.3 39.9 87.5Q39.8 87.8 39.8 88.0L39.8 88.0L39.8 89.1Q39.8 89.4 39.9 89.6Q40.0 89.8 40.2 90.0Q40.4 90.2 40.7 90.3Q40.9 90.4 41.2 90.4ZM47.7 90.3L49.1 90.3Q49.3 90.3 49.4 90.4Q49.5 90.5 49.5 90.8Q49.5 91.0 49.4 91.1Q49.3 91.2 49.1 91.2L49.1 91.2L45.3 91.2Q45.1 91.2 45.0 91.1Q44.9 91.0 44.9 90.8Q44.9 90.5 45.0 90.4Q45.1 90.3 45.3 90.3L45.3 90.3L46.8 90.3L46.8 87.2Q46.8 87 46.7 86.9Q46.6 86.8 46.4 86.8L46.4 86.8L45.5 86.8Q45.3 86.8 45.2 86.7Q45.0 86.5 45.0 86.4Q45.0 86.2 45.2 86.0Q45.3 85.9 45.5 85.9L45.5 85.9L46.9 85.9Q47.3 85.9 47.5 86.1Q47.7 86.3 47.7 86.7L47.7 86.7L47.7 90.3ZM47.2 84.9L47.2 84.9Q46.9 84.9 46.7 84.7Q46.5 84.6 46.5 84.3L46.5 84.3Q46.5 84.0 46.7 83.8Q46.9 83.6 47.2 83.6L47.2 83.6Q47.5 83.6 47.7 83.8Q47.9 84.0 47.9 84.3L47.9 84.3Q47.9 84.6 47.7 84.7Q47.5 84.9 47.2 84.9ZM53.1 84.7L53.1 89.0Q53.1 89.7 53.3 90.0Q53.5 90.4 53.9 90.4L53.9 90.4Q54.1 90.4 54.3 90.4Q54.5 90.3 54.8 90.2L54.8 90.2Q55.0 90.1 55.1 90.2Q55.3 90.2 55.4 90.4L55.4 90.4Q55.5 90.6 55.4 90.8Q55.4 91.0 55.2 91.0L55.2 91.0Q54.9 91.2 54.6 91.3Q54.2 91.3 53.8 91.3L53.8 91.3Q53.4 91.3 53.1 91.2Q52.8 91.0 52.6 90.8Q52.4 90.5 52.3 90.1Q52.2 89.7 52.2 89.1L52.2 89.1L52.2 85.1Q52.2 84.9 52.1 84.8Q52 84.7 51.8 84.7L51.8 84.7L51.1 84.7Q50.9 84.7 50.8 84.6Q50.6 84.5 50.6 84.3L50.6 84.3Q50.6 84.1 50.8 84.0Q50.9 83.9 51.1 83.9L51.1 83.9L52.3 83.9Q52.7 83.9 52.9 84.1Q53.1 84.3 53.1 84.7L53.1 84.7ZM59.7 90.3L61.1 90.3Q61.3 90.3 61.4 90.4Q61.5 90.5 61.5 90.8Q61.5 91.0 61.4 91.1Q61.3 91.2 61.1 91.2L61.1 91.2L57.3 91.2Q57.1 91.2 57.0 91.1Q56.9 91.0 56.9 90.8Q56.9 90.5 57.0 90.4Q57.1 90.3 57.3 90.3L57.3 90.3L58.8 90.3L58.8 87.2Q58.8 87 58.7 86.9Q58.6 86.8 58.4 86.8L58.4 86.8L57.5 86.8Q57.3 86.8 57.2 86.7Q57.0 86.5 57.0 86.4Q57.0 86.2 57.2 86.0Q57.3 85.9 57.5 85.9L57.5 85.9L58.9 85.9Q59.3 85.9 59.5 86.1Q59.7 86.3 59.7 86.7L59.7 86.7L59.7 90.3ZM59.2 84.9L59.2 84.9Q58.9 84.9 58.7 84.7Q58.5 84.6 58.5 84.3L58.5 84.3Q58.5 84.0 58.7 83.8Q58.9 83.6 59.2 83.6L59.2 83.6Q59.5 83.6 59.7 83.8Q59.9 84.0 59.9 84.3L59.9 84.3Q59.9 84.6 59.7 84.7Q59.5 84.9 59.2 84.9ZM63.4 91.3L63.4 91.3Q63.1 91.3 63.0 91.2Q62.9 91.1 62.9 90.8L62.9 90.8L62.9 84.3Q62.9 84.0 63.0 83.9Q63.1 83.8 63.4 83.8L63.4 83.8Q63.6 83.8 63.7 83.9Q63.8 84.0 63.8 84.3L63.8 84.3L63.8 86.6Q63.9 86.2 64.3 85.9Q64.6 85.6 65.2 85.6L65.2 85.6Q65.8 85.6 66.2 85.9Q66.6 86.1 66.8 86.6Q67.0 87.0 67.1 87.6Q67.2 88.1 67.2 88.6L67.2 88.6Q67.2 89.1 67.1 89.6Q67.1 90.0 66.8 90.4Q66.6 90.8 66.3 91.1Q65.9 91.3 65.3 91.3L65.3 91.3Q65.0 91.3 64.8 91.2Q64.5 91.1 64.3 91.0Q64.2 90.9 64.0 90.7Q63.9 90.5 63.8 90.2L63.8 90.2L63.8 90.8Q63.8 91.1 63.7 91.2Q63.6 91.3 63.4 91.3ZM65.2 90.4L65.2 90.4Q65.5 90.4 65.7 90.3Q66.0 90.1 66.1 89.9Q66.2 89.6 66.3 89.3Q66.3 89.0 66.3 88.6L66.3 88.6Q66.3 88.2 66.3 87.8Q66.2 87.5 66.1 87.2Q66.0 86.9 65.7 86.7Q65.5 86.5 65.0 86.5L65.0 86.5Q64.8 86.5 64.5 86.7Q64.3 86.8 64.1 87.0Q64.0 87.3 63.9 87.5Q63.8 87.8 63.8 88.0L63.8 88.0L63.8 89.1Q63.8 89.4 63.9 89.6Q64.0 89.8 64.2 90.0Q64.4 90.2 64.7 90.3Q64.9 90.4 65.2 90.4ZM71.7 90.3L73.1 90.3Q73.3 90.3 73.4 90.4Q73.5 90.5 73.5 90.8Q73.5 91.0 73.4 91.1Q73.3 91.2 73.1 91.2L73.1 91.2L69.3 91.2Q69.1 91.2 69.0 91.1Q68.8 91.0 68.8 90.8Q68.8 90.5 69.0 90.4Q69.1 90.3 69.3 90.3L69.3 90.3L70.8 90.3L70.8 87.2Q70.8 87 70.7 86.9Q70.6 86.8 70.4 86.8L70.4 86.8L69.5 86.8Q69.3 86.8 69.2 86.7Q69.0 86.5 69.0 86.4Q69.0 86.2 69.2 86.0Q69.3 85.9 69.5 85.9L69.5 85.9L70.9 85.9Q71.3 85.9 71.5 86.1Q71.7 86.3 71.7 86.7L71.7 86.7L71.7 90.3ZM71.2 84.9L71.2 84.9Q70.9 84.9 70.7 84.7Q70.5 84.6 70.5 84.3L70.5 84.3Q70.5 84.0 70.7 83.8Q70.9 83.6 71.2 83.6L71.2 83.6Q71.5 83.6 71.7 83.8Q71.9 84.0 71.9 84.3L71.9 84.3Q71.9 84.6 71.7 84.7Q71.5 84.9 71.2 84.9ZM77.1 84.7L77.1 89.0Q77.1 89.7 77.3 90.0Q77.5 90.4 77.9 90.4L77.9 90.4Q78.1 90.4 78.3 90.4Q78.5 90.3 78.8 90.2L78.8 90.2Q79.0 90.1 79.1 90.2Q79.3 90.2 79.4 90.4L79.4 90.4Q79.5 90.6 79.4 90.8Q79.4 91.0 79.2 91.0L79.2 91.0Q78.9 91.2 78.6 91.3Q78.2 91.3 77.8 91.3L77.8 91.3Q77.4 91.3 77.1 91.2Q76.8 91.0 76.6 90.8Q76.4 90.5 76.3 90.1Q76.2 89.7 76.2 89.1L76.2 89.1L76.2 85.1Q76.2 84.9 76.1 84.8Q76 84.7 75.8 84.7L75.8 84.7L75.1 84.7Q74.9 84.7 74.8 84.6Q74.7 84.5 74.7 84.3L74.7 84.3Q74.7 84.1 74.8 84.0Q74.9 83.9 75.1 83.9L75.1 83.9L76.3 83.9Q76.7 83.9 76.9 84.1Q77.1 84.3 77.1 84.7L77.1 84.7ZM83.7 90.3L85.1 90.3Q85.3 90.3 85.4 90.4Q85.5 90.5 85.5 90.8Q85.5 91.0 85.4 91.1Q85.3 91.2 85.1 91.2L85.1 91.2L81.3 91.2Q81.1 91.2 81.0 91.1Q80.8 91.0 80.8 90.8Q80.8 90.5 81.0 90.4Q81.1 90.3 81.3 90.3L81.3 90.3L82.8 90.3L82.8 87.2Q82.8 87 82.7 86.9Q82.6 86.8 82.4 86.8L82.4 86.8L81.5 86.8Q81.3 86.8 81.2 86.7Q81.0 86.5 81.0 86.4Q81.0 86.2 81.2 86.0Q81.3 85.9 81.5 85.9L81.5 85.9L82.9 85.9Q83.3 85.9 83.5 86.1Q83.7 86.3 83.7 86.7L83.7 86.7L83.7 90.3ZM83.2 84.9L83.2 84.9Q82.9 84.9 82.7 84.7Q82.5 84.6 82.5 84.3L82.5 84.3Q82.5 84.0 82.7 83.8Q82.9 83.6 83.2 83.6L83.2 83.6Q83.5 83.6 83.7 83.8Q83.9 84.0 83.9 84.3L83.9 84.3Q83.9 84.6 83.7 84.7Q83.5 84.9 83.2 84.9ZM90.8 88.4L87.2 88.4Q87.0 88.4 86.9 88.2Q86.8 88.1 86.8 87.9L86.8 87.9Q86.8 87.7 86.9 87.6Q87.0 87.5 87.2 87.5L87.2 87.5L90.8 87.5Q91.0 87.5 91.1 87.6Q91.3 87.7 91.3 87.9L91.3 87.9Q91.3 88.1 91.1 88.2Q91.0 88.4 90.8 88.4L90.8 88.4ZM93.8 88.0L93.8 90.9Q93.8 91.1 93.7 91.2Q93.6 91.3 93.4 91.3L93.4 91.3Q93.2 91.3 93.1 91.2Q93.0 91.1 93.0 90.9L93.0 90.9L93.0 84.3Q93.0 84.0 93.1 83.9Q93.2 83.8 93.4 83.8L93.4 83.8Q93.6 83.8 93.7 83.9Q93.8 84.0 93.8 84.3L93.8 84.3L93.8 86.6Q94.0 86.2 94.3 85.9Q94.7 85.6 95.2 85.6L95.2 85.6Q95.6 85.6 96.0 85.7Q96.3 85.9 96.5 86.1Q96.8 86.4 96.9 86.7Q97.0 87.1 97.0 87.5L97.0 87.5L97.0 90.9Q97.0 91.1 96.9 91.2Q96.8 91.3 96.6 91.3L96.6 91.3Q96.4 91.3 96.3 91.2Q96.2 91.1 96.2 90.9L96.2 90.9L96.2 87.8Q96.2 87.5 96.1 87.3Q96.0 87.0 95.9 86.9Q95.7 86.7 95.5 86.6Q95.3 86.5 95.1 86.5L95.1 86.5Q94.8 86.5 94.6 86.6Q94.3 86.8 94.2 87.0Q94.0 87.2 93.9 87.5Q93.8 87.8 93.8 88.0L93.8 88.0ZM101.7 90.3L103.1 90.3Q103.3 90.3 103.4 90.4Q103.5 90.5 103.5 90.8Q103.5 91.0 103.4 91.1Q103.3 91.2 103.1 91.2L103.1 91.2L99.3 91.2Q99.1 91.2 99.0 91.1Q98.8 91.0 98.8 90.8Q98.8 90.5 99.0 90.4Q99.1 90.3 99.3 90.3L99.3 90.3L100.8 90.3L100.8 87.2Q100.8 87 100.7 86.9Q100.6 86.8 100.4 86.8L100.4 86.8L99.5 86.8Q99.3 86.8 99.2 86.7Q99.0 86.5 99.0 86.4Q99.0 86.2 99.2 86.0Q99.3 85.9 99.5 85.9L99.5 85.9L100.9 85.9Q101.3 85.9 101.5 86.1Q101.7 86.3 101.7 86.7L101.7 86.7L101.7 90.3ZM101.2 84.9L101.2 84.9Q100.9 84.9 100.7 84.7Q100.5 84.6 100.5 84.3L100.5 84.3Q100.5 84.0 100.7 83.8Q100.9 83.6 101.2 83.6L101.2 83.6Q101.5 83.6 101.7 83.8Q101.9 84.0 101.9 84.3L101.9 84.3Q101.9 84.6 101.7 84.7Q101.5 84.9 101.2 84.9ZM107.0 91.3L107.0 91.3Q106.7 91.3 106.4 91.3Q106.2 91.2 105.9 91.1Q105.7 91.0 105.4 90.9Q105.2 90.7 105.0 90.5L105.0 90.5Q104.9 90.4 104.9 90.2Q104.8 90.1 104.8 90.0L104.8 90.0Q104.8 89.7 104.9 89.7Q105.0 89.6 105.2 89.6L105.2 89.6Q105.3 89.6 105.4 89.6Q105.5 89.7 105.6 89.8L105.6 89.8Q105.9 90.0 106.2 90.2Q106.5 90.4 107 90.4L107 90.4Q107.2 90.4 107.4 90.4Q107.6 90.4 107.8 90.3Q108.0 90.2 108.2 90.1Q108.3 89.9 108.3 89.7L108.3 89.7Q108.3 89.5 108.2 89.3Q108.0 89.2 107.8 89.1Q107.6 89.0 107.4 88.9Q107.2 88.8 107 88.8L107 88.8Q106.7 88.7 106.3 88.6Q106.0 88.5 105.7 88.4Q105.4 88.2 105.2 87.9Q105.0 87.6 105.0 87.1L105.0 87.1Q105.0 86.7 105.2 86.4Q105.3 86.1 105.6 86.0Q105.9 85.8 106.2 85.7Q106.6 85.6 107 85.6L107 85.6Q107.7 85.6 108.2 85.8Q108.7 86.0 109.0 86.5L109.0 86.5Q109.0 86.6 109.1 86.7Q109.1 86.7 109.1 86.8L109.1 86.8Q109.1 87.0 109.0 87.1Q108.9 87.2 108.7 87.2L108.7 87.2Q108.6 87.2 108.5 87.2Q108.4 87.1 108.3 87.0L108.3 87.0Q108.0 86.8 107.7 86.6Q107.5 86.5 107 86.5L107 86.5Q106.8 86.5 106.6 86.5Q106.4 86.6 106.2 86.7Q106.1 86.7 106.0 86.8Q105.9 87.0 105.9 87.1L105.9 87.1Q105.9 87.3 106.0 87.5Q106.1 87.6 106.3 87.7Q106.5 87.8 106.7 87.8Q106.8 87.9 107 87.9L107 87.9Q107.4 88.0 107.8 88.1Q108.2 88.2 108.5 88.4Q108.8 88.6 109 88.9Q109.2 89.2 109.2 89.7L109.2 89.7Q109.2 90.2 109.0 90.5Q108.8 90.8 108.5 90.9Q108.2 91.1 107.8 91.2Q107.5 91.3 107.0 91.3ZM113.0 85.9L114.8 85.9Q115.0 85.9 115.1 86.0Q115.2 86.2 115.2 86.4Q115.2 86.5 115.1 86.7Q115.0 86.8 114.8 86.8L114.8 86.8L113.0 86.8L113.0 89.0Q113.0 89.7 113.2 90.0Q113.4 90.4 113.8 90.4L113.8 90.4Q114 90.4 114.2 90.4Q114.4 90.3 114.6 90.2L114.6 90.2Q114.8 90.1 115.0 90.2Q115.1 90.2 115.2 90.4L115.2 90.4Q115.3 90.6 115.3 90.8Q115.3 91.0 115.1 91.0L115.1 91.0Q114.8 91.2 114.4 91.3Q114.1 91.3 113.7 91.3L113.7 91.3Q113.3 91.3 113.0 91.2Q112.7 91.0 112.5 90.8Q112.3 90.5 112.2 90.1Q112.0 89.7 112.0 89.1L112.0 89.1L112.0 86.8L110.9 86.8Q110.7 86.8 110.6 86.7Q110.5 86.5 110.5 86.4Q110.5 86.2 110.6 86.0Q110.7 85.9 110.9 85.9L110.9 85.9L112.0 85.9L112.0 84.6Q112.0 84.4 112.2 84.3Q112.3 84.2 112.5 84.2Q112.7 84.2 112.8 84.3Q113.0 84.4 113.0 84.6L113.0 84.6L113.0 85.9ZM119 91.3L119 91.3Q118.4 91.3 118 91.1Q117.6 90.9 117.3 90.5Q117.0 90.1 116.9 89.6Q116.8 89.1 116.8 88.4L116.8 88.4Q116.8 87.8 116.9 87.3Q117.0 86.8 117.3 86.4Q117.6 86.0 118.0 85.8Q118.4 85.6 119 85.6L119 85.6Q119.6 85.6 120.0 85.8Q120.4 86.0 120.7 86.4Q121.0 86.8 121.1 87.3Q121.3 87.8 121.3 88.4L121.3 88.4Q121.3 89.1 121.1 89.6Q121.0 90.1 120.7 90.5Q120.4 90.9 120.0 91.1Q119.6 91.3 119 91.3ZM119 90.4L119 90.4Q119.3 90.4 119.6 90.3Q119.9 90.1 120.0 89.9Q120.2 89.6 120.3 89.2Q120.3 88.9 120.3 88.4L120.3 88.4Q120.3 88.0 120.3 87.7Q120.2 87.3 120.0 87.0Q119.9 86.8 119.6 86.6Q119.4 86.5 119 86.5L119 86.5Q118.6 86.5 118.4 86.6Q118.1 86.8 118.0 87.0Q117.8 87.3 117.7 87.7Q117.7 88.0 117.7 88.5L117.7 88.5Q117.7 88.9 117.7 89.2Q117.8 89.6 118.0 89.9Q118.1 90.1 118.4 90.3Q118.7 90.4 119 90.4ZM123.5 91.3L123.5 91.3Q123.3 91.3 123.2 91.2Q123.1 91.1 123.1 90.9L123.1 90.9L123.1 86.0Q123.1 85.8 123.2 85.7Q123.3 85.6 123.5 85.6L123.5 85.6Q123.8 85.6 123.9 85.7Q124 85.8 124 86.0L124 86.0L124 86.6Q124.1 86.4 124.3 86.2Q124.5 86.0 124.7 85.9Q125.0 85.8 125.3 85.7Q125.5 85.6 125.8 85.6L125.8 85.6Q126.3 85.6 126.6 85.8Q126.9 85.9 127.0 86.2Q127.2 86.5 127.2 86.8Q127.3 87.2 127.3 87.6L127.3 87.6L127.3 87.7Q127.3 87.9 127.2 88.0Q127.1 88.2 126.8 88.2L126.8 88.2Q126.6 88.2 126.5 88.0Q126.4 87.9 126.4 87.7L126.4 87.7L126.4 87.6Q126.4 87.4 126.4 87.2Q126.3 87.0 126.2 86.8Q126.1 86.7 126.0 86.6Q125.8 86.5 125.5 86.5L125.5 86.5Q125.3 86.5 125 86.6Q124.7 86.6 124.5 86.8Q124.3 86.9 124.1 87.2Q124 87.4 124 87.7L124 87.7L124 90.9Q124 91.1 123.9 91.2Q123.8 91.3 123.5 91.3ZM131.1 89.8L132.5 85.9Q132.5 85.8 132.6 85.8Q132.7 85.7 132.9 85.7L132.9 85.7Q133.1 85.7 133.2 85.8Q133.3 85.9 133.3 86.1L133.3 86.1Q133.3 86.1 133.3 86.2Q133.3 86.3 133.3 86.4L133.3 86.4L131.5 91.3Q131.5 91.5 131.3 91.8Q131.2 92.0 131.1 92.3Q130.9 92.6 130.7 92.8Q130.6 93.0 130.4 93.2L130.4 93.2Q130.2 93.3 129.8 93.4Q129.6 93.5 129.3 93.5L129.3 93.5Q129.0 93.5 128.9 93.4Q128.8 93.3 128.8 93.0L128.8 93.0L128.8 93.0Q128.8 92.8 128.9 92.7Q129.0 92.6 129.3 92.6L129.3 92.6Q129.4 92.6 129.6 92.5Q129.8 92.5 129.9 92.4Q130.0 92.2 130.1 92.1Q130.2 92.0 130.3 91.9Q130.4 91.8 130.4 91.6Q130.5 91.5 130.5 91.3L130.5 91.3L130.6 91.1L128.8 86.4Q128.8 86.3 128.8 86.2Q128.8 86.1 128.8 86.0L128.8 86.0Q128.8 85.9 128.9 85.8Q129.0 85.7 129.2 85.7L129.2 85.7Q129.4 85.7 129.5 85.8Q129.6 85.8 129.6 85.9L129.6 85.9L131.1 89.8ZM138.8 88.4L135.2 88.4Q135.0 88.4 134.9 88.2Q134.8 88.1 134.8 87.9L134.8 87.9Q134.8 87.7 134.9 87.6Q135.0 87.5 135.2 87.5L135.2 87.5L138.8 87.5Q139.0 87.5 139.1 87.6Q139.3 87.7 139.3 87.9L139.3 87.9Q139.3 88.1 139.1 88.2Q139.0 88.4 138.8 88.4L138.8 88.4ZM140.9 90.7L140.4 86.2Q140.3 85.9 140.4 85.7Q140.6 85.6 140.8 85.6L140.8 85.6Q141.0 85.6 141.1 85.7Q141.3 85.8 141.3 86.0L141.3 86.0L141.7 90.2L142.4 87.3Q142.5 87.0 142.6 86.9Q142.8 86.8 143 86.8L143 86.8Q143.2 86.8 143.4 86.9Q143.5 87.0 143.6 87.3L143.6 87.3L144.3 90.2L144.7 86.0Q144.8 85.8 144.9 85.7Q145.0 85.6 145.2 85.6L145.2 85.6Q145.4 85.6 145.6 85.7Q145.7 85.9 145.6 86.2L145.6 86.2L145.0 90.7Q145 91 144.8 91.2Q144.7 91.3 144.4 91.3L144.4 91.3Q144.1 91.3 143.9 91.2Q143.7 91 143.7 90.7L143.7 90.7L143 88.1L142.3 90.7Q142.3 91 142.1 91.2Q141.9 91.3 141.6 91.3L141.6 91.3Q141.3 91.3 141.2 91.2Q141.0 91 140.9 90.7L140.9 90.7ZM149 89.2L147.8 91Q147.7 91.1 147.5 91.2Q147.4 91.3 147.2 91.3L147.2 91.3Q147.1 91.3 147.0 91.3Q146.9 91.2 146.9 91.1Q146.8 91.1 146.8 91.0Q146.8 90.9 146.9 90.7L146.9 90.7L148.5 88.4L147 86.2Q146.9 86.0 146.9 85.9Q146.9 85.8 147.0 85.7Q147.0 85.7 147.1 85.6Q147.2 85.6 147.3 85.6L147.3 85.6Q147.5 85.6 147.6 85.7Q147.8 85.8 147.9 85.9L147.9 85.9L149 87.6L150.1 85.9Q150.2 85.8 150.4 85.7Q150.5 85.6 150.7 85.6L150.7 85.6Q150.8 85.6 150.9 85.6Q151.0 85.7 151.0 85.7Q151.1 85.8 151.1 85.9Q151.1 86.0 151 86.2L151 86.2L149.5 88.4L151.1 90.7Q151.2 90.9 151.2 91.0Q151.2 91.1 151.1 91.1Q151.1 91.2 151.0 91.3Q150.9 91.3 150.8 91.3L150.8 91.3Q150.6 91.3 150.5 91.2Q150.3 91.2 150.3 91L150.3 91L149 89.2ZM154.9 85.9L156.8 85.9Q157.0 85.9 157.1 86.0Q157.2 86.2 157.2 86.4Q157.2 86.5 157.1 86.7Q157.0 86.8 156.8 86.8L156.8 86.8L154.9 86.8L154.9 89.0Q154.9 89.7 155.2 90.0Q155.4 90.4 155.8 90.4L155.8 90.4Q156 90.4 156.2 90.4Q156.4 90.3 156.6 90.2L156.6 90.2Q156.8 90.1 157.0 90.2Q157.1 90.2 157.2 90.4L157.2 90.4Q157.3 90.6 157.3 90.8Q157.3 91.0 157.1 91.0L157.1 91.0Q156.8 91.2 156.4 91.3Q156.1 91.3 155.7 91.3L155.7 91.3Q155.3 91.3 155.0 91.2Q154.7 91.0 154.5 90.8Q154.3 90.5 154.2 90.1Q154.1 89.7 154.1 89.1L154.1 89.1L154.1 86.8L152.9 86.8Q152.7 86.8 152.6 86.7Q152.5 86.5 152.5 86.4Q152.5 86.2 152.6 86.0Q152.7 85.9 152.9 85.9L152.9 85.9L154.1 85.9L154.1 84.6Q154.1 84.4 154.2 84.3Q154.3 84.2 154.5 84.2Q154.7 84.2 154.8 84.3Q154.9 84.4 154.9 84.6L154.9 84.6L154.9 85.9ZM160.2 90.5L160.2 90.5Q160.2 90.1 160.4 89.9Q160.7 89.6 161 89.6L161 89.6Q161.3 89.6 161.6 89.9Q161.8 90.1 161.8 90.5L161.8 90.5Q161.8 90.8 161.6 91.0Q161.3 91.3 161 91.3L161 91.3Q160.7 91.3 160.4 91.0Q160.2 90.8 160.2 90.5ZM160.2 86.8L160.2 86.8Q160.2 86.4 160.4 86.2Q160.7 85.9 161 85.9L161 85.9Q161.3 85.9 161.6 86.2Q161.8 86.4 161.8 86.8L161.8 86.8Q161.8 87.1 161.6 87.4Q161.3 87.6 161 87.6L161 87.6Q160.7 87.6 160.4 87.4Q160.2 87.1 160.2 86.8ZM174.9 91.3L174.9 91.3Q174.7 91.3 174.5 91.2Q174.4 91 174.4 90.8L174.4 90.8L174.4 90.7Q174.4 90.4 174.5 90.3Q174.7 90.1 174.9 90.1L174.9 90.1Q175.1 90.1 175.3 90.3Q175.4 90.4 175.4 90.7L175.4 90.7L175.4 90.8Q175.4 91 175.3 91.2Q175.1 91.3 174.9 91.3ZM171.1 91.3L171.1 91.3Q170.9 91.3 170.7 91.2Q170.6 91 170.6 90.8L170.6 90.8L170.6 90.7Q170.6 90.4 170.7 90.3Q170.9 90.1 171.1 90.1L171.1 90.1Q171.3 90.1 171.5 90.3Q171.6 90.4 171.6 90.7L171.6 90.7L171.6 90.8Q171.6 91 171.5 91.2Q171.3 91.3 171.1 91.3ZM173 91.3L173 91.3Q172.8 91.3 172.6 91.2Q172.5 91 172.5 90.8L172.5 90.8L172.5 90.7Q172.5 90.4 172.6 90.3Q172.8 90.1 173 90.1L173 90.1Q173.2 90.1 173.4 90.3Q173.5 90.4 173.5 90.7L173.5 90.7L173.5 90.8Q173.5 91 173.4 91.2Q173.2 91.3 173 91.3Z " clip-path="url(#satori_cp-id-1-2-1)" mask="url(#satori_om-id-1-2-1)"/><mask id="satori_om-id-1-3"><rect x="17" y="101" width="160" height="14" fill="#fff"/></mask><mask id="satori_om-id-1-3-0"><rect x="17" y="101" width="16" height="14" fill="#fff"/></mask><path x="17" y="101" width="16" height="14" fill="#1A7F3718" d="M21,101 h8 a4,4 0 0 1 4,4 v6 a4,4 0 0 1 -4,4 h-8 a4,4 0 0 1 -4,-4 v-6 a4,4 0 0 1 4,-4"/><path fill="#1A7F37" d="M22.5 108.0L22.5 108.0Q22.5 107.3 22.6 106.6Q22.8 106.0 23.1 105.5Q23.4 105.1 23.9 104.8Q24.5 104.5 25.2 104.5L25.2 104.5Q25.6 104.5 25.9 104.6Q26.2 104.7 26.4 104.8Q26.6 104.9 26.7 105.1Q26.8 105.2 26.9 105.4L26.9 105.4Q27.0 105.7 27.0 105.9Q26.9 106.1 26.7 106.2L26.7 106.2Q26.6 106.3 26.4 106.3Q26.1 106.2 26.0 106.0L26.0 106.0Q25.9 105.8 25.7 105.7Q25.5 105.6 25.2 105.6L25.2 105.6Q24.8 105.6 24.5 105.8Q24.2 106.0 24.0 106.3Q23.8 106.7 23.7 107.1Q23.7 107.5 23.7 107.9L23.7 107.9Q23.7 108.3 23.7 108.7Q23.8 109.1 24.0 109.4Q24.1 109.7 24.4 110.0Q24.7 110.2 25.2 110.2L25.2 110.2Q25.3 110.2 25.5 110.2Q25.6 110.1 25.7 110.1Q25.8 110.1 25.9 110.0Q26.0 110.0 26.0 109.9L26.0 109.9Q26.2 109.7 26.4 109.7Q26.6 109.8 26.8 109.9L26.8 109.9Q26.9 110.0 26.9 110.3Q27.0 110.5 26.8 110.7L26.8 110.7Q26.7 110.9 26.5 111.0Q26.3 111.1 26.1 111.2Q25.9 111.2 25.6 111.2Q25.4 111.3 25.2 111.3L25.2 111.3Q24.4 111.3 23.9 111.0Q23.3 110.7 23.0 110.3Q22.7 109.8 22.6 109.2Q22.5 108.6 22.5 108.0Z "/><clipPath id="satori_cp-id-1-3-1"><rect x="38" y="101" width="139" height="13"/></clipPath><mask id="satori_om-id-1-3-1"><rect x="38" y="101" width="139" height="13" fill="#fff"/></mask><path fill="#E6EDF3" d="M39.4 111.3L39.4 111.3Q39.1 111.3 39.0 111.2Q38.9 111.1 38.9 110.8L38.9 110.8L38.9 104.3Q38.9 104.0 39.0 103.9Q39.1 103.8 39.4 103.8L39.4 103.8Q39.6 103.8 39.7 103.9Q39.8 104.0 39.8 104.3L39.8 104.3L39.8 106.6Q39.9 106.2 40.3 105.9Q40.6 105.6 41.2 105.6L41.2 105.6Q41.8 105.6 42.2 105.9Q42.6 106.1 42.8 106.6Q43.0 107.0 43.1 107.6Q43.2 108.1 43.2 108.6L43.2 108.6Q43.2 109.1 43.1 109.6Q43.1 110.0 42.9 110.4Q42.6 110.8 42.3 111.1Q41.9 111.3 41.3 111.3L41.3 111.3Q41.0 111.3 40.8 111.2Q40.5 111.1 40.3 111.0Q40.2 110.9 40.0 110.7Q39.9 110.5 39.8 110.2L39.8 110.2L39.8 110.8Q39.8 111.1 39.7 111.2Q39.6 111.3 39.4 111.3ZM41.2 110.4L41.2 110.4Q41.5 110.4 41.7 110.3Q42.0 110.1 42.1 109.9Q42.2 109.6 42.3 109.3Q42.3 109.0 42.3 108.6L42.3 108.6Q42.3 108.2 42.3 107.8Q42.2 107.5 42.1 107.2Q42.0 106.9 41.7 106.7Q41.5 106.5 41.0 106.5L41.0 106.5Q40.8 106.5 40.5 106.7Q40.3 106.8 40.1 107.0Q40.0 107.3 39.9 107.5Q39.8 107.8 39.8 108.0L39.8 108.0L39.8 109.1Q39.8 109.4 39.9 109.6Q40.0 109.8 40.2 110.0Q40.4 110.2 40.7 110.3Q40.9 110.4 41.2 110.4ZM47.7 110.3L49.1 110.3Q49.3 110.3 49.4 110.4Q49.5 110.5 49.5 110.8Q49.5 111.0 49.4 111.1Q49.3 111.2 49.1 111.2L49.1 111.2L45.3 111.2Q45.1 111.2 45.0 111.1Q44.9 111.0 44.9 110.8Q44.9 110.5 45.0 110.4Q45.1 110.3 45.3 110.3L45.3 110.3L46.8 110.3L46.8 107.2Q46.8 107 46.7 106.9Q46.6 106.8 46.4 106.8L46.4 106.8L45.5 106.8Q45.3 106.8 45.2 106.7Q45.0 106.5 45.0 106.4Q45.0 106.2 45.2 106.0Q45.3 105.9 45.5 105.9L45.5 105.9L46.9 105.9Q47.3 105.9 47.5 106.1Q47.7 106.3 47.7 106.7L47.7 106.7L47.7 110.3ZM47.2 104.9L47.2 104.9Q46.9 104.9 46.7 104.7Q46.5 104.6 46.5 104.3L46.5 104.3Q46.5 104.0 46.7 103.8Q46.9 103.6 47.2 103.6L47.2 103.6Q47.5 103.6 47.7 103.8Q47.9 104.0 47.9 104.3L47.9 104.3Q47.9 104.6 47.7 104.7Q47.5 104.9 47.2 104.9ZM53.1 104.7L53.1 109.0Q53.1 109.7 53.3 110.0Q53.5 110.4 53.9 110.4L53.9 110.4Q54.1 110.4 54.3 110.4Q54.5 110.3 54.8 110.2L54.8 110.2Q55.0 110.1 55.1 110.2Q55.3 110.2 55.4 110.4L55.4 110.4Q55.5 110.6 55.4 110.8Q55.4 111.0 55.2 111.0L55.2 111.0Q54.9 111.2 54.6 111.3Q54.2 111.3 53.8 111.3L53.8 111.3Q53.4 111.3 53.1 111.2Q52.8 111.0 52.6 110.8Q52.4 110.5 52.3 110.1Q52.2 109.7 52.2 109.1L52.2 109.1L52.2 105.1Q52.2 104.9 52.1 104.8Q52 104.7 51.8 104.7L51.8 104.7L51.1 104.7Q50.9 104.7 50.8 104.6Q50.6 104.5 50.6 104.3L50.6 104.3Q50.6 104.1 50.8 104.0Q50.9 103.9 51.1 103.9L51.1 103.9L52.3 103.9Q52.7 103.9 52.9 104.1Q53.1 104.3 53.1 104.7L53.1 104.7ZM59.7 110.3L61.1 110.3Q61.3 110.3 61.4 110.4Q61.5 110.5 61.5 110.8Q61.5 111.0 61.4 111.1Q61.3 111.2 61.1 111.2L61.1 111.2L57.3 111.2Q57.1 111.2 57.0 111.1Q56.9 111.0 56.9 110.8Q56.9 110.5 57.0 110.4Q57.1 110.3 57.3 110.3L57.3 110.3L58.8 110.3L58.8 107.2Q58.8 107 58.7 106.9Q58.6 106.8 58.4 106.8L58.4 106.8L57.5 106.8Q57.3 106.8 57.2 106.7Q57.0 106.5 57.0 106.4Q57.0 106.2 57.2 106.0Q57.3 105.9 57.5 105.9L57.5 105.9L58.9 105.9Q59.3 105.9 59.5 106.1Q59.7 106.3 59.7 106.7L59.7 106.7L59.7 110.3ZM59.2 104.9L59.2 104.9Q58.9 104.9 58.7 104.7Q58.5 104.6 58.5 104.3L58.5 104.3Q58.5 104.0 58.7 103.8Q58.9 103.6 59.2 103.6L59.2 103.6Q59.5 103.6 59.7 103.8Q59.9 104.0 59.9 104.3L59.9 104.3Q59.9 104.6 59.7 104.7Q59.5 104.9 59.2 104.9ZM63.4 111.3L63.4 111.3Q63.1 111.3 63.0 111.2Q62.9 111.1 62.9 110.8L62.9 110.8L62.9 104.3Q62.9 104.0 63.0 103.9Q63.1 103.8 63.4 103.8L63.4 103.8Q63.6 103.8 63.7 103.9Q63.8 104.0 63.8 104.3L63.8 104.3L63.8 106.6Q63.9 106.2 64.3 105.9Q64.6 105.6 65.2 105.6L65.2 105.6Q65.8 105.6 66.2 105.9Q66.6 106.1 66.8 106.6Q67.0 107.0 67.1 107.6Q67.2 108.1 67.2 108.6L67.2 108.6Q67.2 109.1 67.1 109.6Q67.1 110.0 66.8 110.4Q66.6 110.8 66.3 111.1Q65.9 111.3 65.3 111.3L65.3 111.3Q65.0 111.3 64.8 111.2Q64.5 111.1 64.3 111.0Q64.2 110.9 64.0 110.7Q63.9 110.5 63.8 110.2L63.8 110.2L63.8 110.8Q63.8 111.1 63.7 111.2Q63.6 111.3 63.4 111.3ZM65.2 110.4L65.2 110.4Q65.5 110.4 65.7 110.3Q66.0 110.1 66.1 109.9Q66.2 109.6 66.3 109.3Q66.3 109.0 66.3 108.6L66.3 108.6Q66.3 108.2 66.3 107.8Q66.2 107.5 66.1 107.2Q66.0 106.9 65.7 106.7Q65.5 106.5 65.0 106.5L65.0 106.5Q64.8 106.5 64.5 106.7Q64.3 106.8 64.1 107.0Q64.0 107.3 63.9 107.5Q63.8 107.8 63.8 108.0L63.8 108.0L63.8 109.1Q63.8 109.4 63.9 109.6Q64.0 109.8 64.2 110.0Q64.4 110.2 64.7 110.3Q64.9 110.4 65.2 110.4ZM71.7 110.3L73.1 110.3Q73.3 110.3 73.4 110.4Q73.5 110.5 73.5 110.8Q73.5 111.0 73.4 111.1Q73.3 111.2 73.1 111.2L73.1 111.2L69.3 111.2Q69.1 111.2 69.0 111.1Q68.8 111.0 68.8 110.8Q68.8 110.5 69.0 110.4Q69.1 110.3 69.3 110.3L69.3 110.3L70.8 110.3L70.8 107.2Q70.8 107 70.7 106.9Q70.6 106.8 70.4 106.8L70.4 106.8L69.5 106.8Q69.3 106.8 69.2 106.7Q69.0 106.5 69.0 106.4Q69.0 106.2 69.2 106.0Q69.3 105.9 69.5 105.9L69.5 105.9L70.9 105.9Q71.3 105.9 71.5 106.1Q71.7 106.3 71.7 106.7L71.7 106.7L71.7 110.3ZM71.2 104.9L71.2 104.9Q70.9 104.9 70.7 104.7Q70.5 104.6 70.5 104.3L70.5 104.3Q70.5 104.0 70.7 103.8Q70.9 103.6 71.2 103.6L71.2 103.6Q71.5 103.6 71.7 103.8Q71.9 104.0 71.9 104.3L71.9 104.3Q71.9 104.6 71.7 104.7Q71.5 104.9 71.2 104.9ZM77.1 104.7L77.1 109.0Q77.1 109.7 77.3 110.0Q77.5 110.4 77.9 110.4L77.9 110.4Q78.1 110.4 78.3 110.4Q78.5 110.3 78.8 110.2L78.8 110.2Q79.0 110.1 79.1 110.2Q79.3 110.2 79.4 110.4L79.4 110.4Q79.5 110.6 79.4 110.8Q79.4 111.0 79.2 111.0L79.2 111.0Q78.9 111.2 78.6 111.3Q78.2 111.3 77.8 111.3L77.8 111.3Q77.4 111.3 77.1 111.2Q76.8 111.0 76.6 110.8Q76.4 110.5 76.3 110.1Q76.2 109.7 76.2 109.1L76.2 109.1L76.2 105.1Q76.2 104.9 76.1 104.8Q76 104.7 75.8 104.7L75.8 104.7L75.1 104.7Q74.9 104.7 74.8 104.6Q74.7 104.5 74.7 104.3L74.7 104.3Q74.7 104.1 74.8 104.0Q74.9 103.9 75.1 103.9L75.1 103.9L76.3 103.9Q76.7 103.9 76.9 104.1Q77.1 104.3 77.1 104.7L77.1 104.7ZM83.7 110.3L85.1 110.3Q85.3 110.3 85.4 110.4Q85.5 110.5 85.5 110.8Q85.5 111.0 85.4 111.1Q85.3 111.2 85.1 111.2L85.1 111.2L81.3 111.2Q81.1 111.2 81.0 111.1Q80.8 111.0 80.8 110.8Q80.8 110.5 81.0 110.4Q81.1 110.3 81.3 110.3L81.3 110.3L82.8 110.3L82.8 107.2Q82.8 107 82.7 106.9Q82.6 106.8 82.4 106.8L82.4 106.8L81.5 106.8Q81.3 106.8 81.2 106.7Q81.0 106.5 81.0 106.4Q81.0 106.2 81.2 106.0Q81.3 105.9 81.5 105.9L81.5 105.9L82.9 105.9Q83.3 105.9 83.5 106.1Q83.7 106.3 83.7 106.7L83.7 106.7L83.7 110.3ZM83.2 104.9L83.2 104.9Q82.9 104.9 82.7 104.7Q82.5 104.6 82.5 104.3L82.5 104.3Q82.5 104.0 82.7 103.8Q82.9 103.6 83.2 103.6L83.2 103.6Q83.5 103.6 83.7 103.8Q83.9 104.0 83.9 104.3L83.9 104.3Q83.9 104.6 83.7 104.7Q83.5 104.9 83.2 104.9ZM90.8 108.4L87.2 108.4Q87.0 108.4 86.9 108.2Q86.8 108.1 86.8 107.9L86.8 107.9Q86.8 107.7 86.9 107.6Q87.0 107.5 87.2 107.5L87.2 107.5L90.8 107.5Q91.0 107.5 91.1 107.6Q91.3 107.7 91.3 107.9L91.3 107.9Q91.3 108.1 91.1 108.2Q91.0 108.4 90.8 108.4L90.8 108.4ZM93.8 108.0L93.8 110.9Q93.8 111.1 93.7 111.2Q93.6 111.3 93.4 111.3L93.4 111.3Q93.2 111.3 93.1 111.2Q93.0 111.1 93.0 110.9L93.0 110.9L93.0 104.3Q93.0 104.0 93.1 103.9Q93.2 103.8 93.4 103.8L93.4 103.8Q93.6 103.8 93.7 103.9Q93.8 104.0 93.8 104.3L93.8 104.3L93.8 106.6Q94.0 106.2 94.3 105.9Q94.7 105.6 95.2 105.6L95.2 105.6Q95.6 105.6 96.0 105.7Q96.3 105.9 96.5 106.1Q96.8 106.4 96.9 106.7Q97.0 107.1 97.0 107.5L97.0 107.5L97.0 110.9Q97.0 111.1 96.9 111.2Q96.8 111.3 96.6 111.3L96.6 111.3Q96.4 111.3 96.3 111.2Q96.2 111.1 96.2 110.9L96.2 110.9L96.2 107.8Q96.2 107.5 96.1 107.3Q96.0 107.0 95.9 106.9Q95.7 106.7 95.5 106.6Q95.3 106.5 95.1 106.5L95.1 106.5Q94.8 106.5 94.6 106.6Q94.3 106.8 94.2 107.0Q94.0 107.2 93.9 107.5Q93.8 107.8 93.8 108.0L93.8 108.0ZM101.7 110.3L103.1 110.3Q103.3 110.3 103.4 110.4Q103.5 110.5 103.5 110.8Q103.5 111.0 103.4 111.1Q103.3 111.2 103.1 111.2L103.1 111.2L99.3 111.2Q99.1 111.2 99.0 111.1Q98.8 111.0 98.8 110.8Q98.8 110.5 99.0 110.4Q99.1 110.3 99.3 110.3L99.3 110.3L100.8 110.3L100.8 107.2Q100.8 107 100.7 106.9Q100.6 106.8 100.4 106.8L100.4 106.8L99.5 106.8Q99.3 106.8 99.2 106.7Q99.0 106.5 99.0 106.4Q99.0 106.2 99.2 106.0Q99.3 105.9 99.5 105.9L99.5 105.9L100.9 105.9Q101.3 105.9 101.5 106.1Q101.7 106.3 101.7 106.7L101.7 106.7L101.7 110.3ZM101.2 104.9L101.2 104.9Q100.9 104.9 100.7 104.7Q100.5 104.6 100.5 104.3L100.5 104.3Q100.5 104.0 100.7 103.8Q100.9 103.6 101.2 103.6L101.2 103.6Q101.5 103.6 101.7 103.8Q101.9 104.0 101.9 104.3L101.9 104.3Q101.9 104.6 101.7 104.7Q101.5 104.9 101.2 104.9ZM107.0 111.3L107.0 111.3Q106.7 111.3 106.4 111.3Q106.2 111.2 105.9 111.1Q105.7 111.0 105.4 110.9Q105.2 110.7 105.0 110.5L105.0 110.5Q104.9 110.4 104.9 110.2Q104.8 110.1 104.8 110.0L104.8 110.0Q104.8 109.7 104.9 109.7Q105.0 109.6 105.2 109.6L105.2 109.6Q105.3 109.6 105.4 109.6Q105.5 109.7 105.6 109.8L105.6 109.8Q105.9 110.0 106.2 110.2Q106.5 110.4 107 110.4L107 110.4Q107.2 110.4 107.4 110.4Q107.6 110.4 107.8 110.3Q108.0 110.2 108.2 110.1Q108.3 109.9 108.3 109.7L108.3 109.7Q108.3 109.5 108.2 109.3Q108.0 109.2 107.8 109.1Q107.6 109.0 107.4 108.9Q107.2 108.8 107 108.8L107 108.8Q106.7 108.7 106.3 108.6Q106.0 108.5 105.7 108.4Q105.4 108.2 105.2 107.9Q105.0 107.6 105.0 107.1L105.0 107.1Q105.0 106.7 105.2 106.4Q105.3 106.1 105.6 106.0Q105.9 105.8 106.2 105.7Q106.6 105.6 107 105.6L107 105.6Q107.7 105.6 108.2 105.8Q108.7 106.0 109.0 106.5L109.0 106.5Q109.0 106.6 109.1 106.7Q109.1 106.7 109.1 106.8L109.1 106.8Q109.1 107.0 109.0 107.1Q108.9 107.2 108.7 107.2L108.7 107.2Q108.6 107.2 108.5 107.2Q108.4 107.1 108.3 107.0L108.3 107.0Q108.0 106.8 107.7 106.6Q107.5 106.5 107 106.5L107 106.5Q106.8 106.5 106.6 106.5Q106.4 106.6 106.2 106.7Q106.1 106.7 106.0 106.8Q105.9 107.0 105.9 107.1L105.9 107.1Q105.9 107.3 106.0 107.5Q106.1 107.6 106.3 107.7Q106.5 107.8 106.7 107.8Q106.8 107.9 107 107.9L107 107.9Q107.4 108.0 107.8 108.1Q108.2 108.2 108.5 108.4Q108.8 108.6 109 108.9Q109.2 109.2 109.2 109.7L109.2 109.7Q109.2 110.2 109.0 110.5Q108.8 110.8 108.5 110.9Q108.2 111.1 107.8 111.2Q107.5 111.3 107.0 111.3ZM113.0 105.9L114.8 105.9Q115.0 105.9 115.1 106.0Q115.2 106.2 115.2 106.4Q115.2 106.5 115.1 106.7Q115.0 106.8 114.8 106.8L114.8 106.8L113.0 106.8L113.0 109.0Q113.0 109.7 113.2 110.0Q113.4 110.4 113.8 110.4L113.8 110.4Q114 110.4 114.2 110.4Q114.4 110.3 114.6 110.2L114.6 110.2Q114.8 110.1 115.0 110.2Q115.1 110.2 115.2 110.4L115.2 110.4Q115.3 110.6 115.3 110.8Q115.3 111.0 115.1 111.0L115.1 111.0Q114.8 111.2 114.4 111.3Q114.1 111.3 113.7 111.3L113.7 111.3Q113.3 111.3 113.0 111.2Q112.7 111.0 112.5 110.8Q112.3 110.5 112.2 110.1Q112.0 109.7 112.0 109.1L112.0 109.1L112.0 106.8L110.9 106.8Q110.7 106.8 110.6 106.7Q110.5 106.5 110.5 106.4Q110.5 106.2 110.6 106.0Q110.7 105.9 110.9 105.9L110.9 105.9L112.0 105.9L112.0 104.6Q112.0 104.4 112.2 104.3Q112.3 104.2 112.5 104.2Q112.7 104.2 112.8 104.3Q113.0 104.4 113.0 104.6L113.0 104.6L113.0 105.9ZM119 111.3L119 111.3Q118.4 111.3 118 111.1Q117.6 110.9 117.3 110.5Q117.0 110.1 116.9 109.6Q116.8 109.1 116.8 108.4L116.8 108.4Q116.8 107.8 116.9 107.3Q117.0 106.8 117.3 106.4Q117.6 106.0 118.0 105.8Q118.4 105.6 119 105.6L119 105.6Q119.6 105.6 120.0 105.8Q120.4 106.0 120.7 106.4Q121.0 106.8 121.1 107.3Q121.3 107.8 121.3 108.4L121.3 108.4Q121.3 109.1 121.1 109.6Q121.0 110.1 120.7 110.5Q120.4 110.9 120.0 111.1Q119.6 111.3 119 111.3ZM119 110.4L119 110.4Q119.3 110.4 119.6 110.3Q119.9 110.1 120.0 109.9Q120.2 109.6 120.3 109.2Q120.3 108.9 120.3 108.4L120.3 108.4Q120.3 108.0 120.3 107.7Q120.2 107.3 120.0 107.0Q119.9 106.8 119.6 106.6Q119.4 106.5 119 106.5L119 106.5Q118.6 106.5 118.4 106.6Q118.1 106.8 118.0 107.0Q117.8 107.3 117.7 107.7Q117.7 108.0 117.7 108.5L117.7 108.5Q117.7 108.9 117.7 109.2Q117.8 109.6 118.0 109.9Q118.1 110.1 118.4 110.3Q118.7 110.4 119 110.4ZM123.5 111.3L123.5 111.3Q123.3 111.3 123.2 111.2Q123.1 111.1 123.1 110.9L123.1 110.9L123.1 106.0Q123.1 105.8 123.2 105.7Q123.3 105.6 123.5 105.6L123.5 105.6Q123.8 105.6 123.9 105.7Q124 105.8 124 106.0L124 106.0L124 106.6Q124.1 106.4 124.3 106.2Q124.5 106.0 124.7 105.9Q125.0 105.8 125.3 105.7Q125.5 105.6 125.8 105.6L125.8 105.6Q126.3 105.6 126.6 105.8Q126.9 105.9 127.0 106.2Q127.2 106.5 127.2 106.8Q127.3 107.2 127.3 107.6L127.3 107.6L127.3 107.7Q127.3 107.9 127.2 108.0Q127.1 108.2 126.8 108.2L126.8 108.2Q126.6 108.2 126.5 108.0Q126.4 107.9 126.4 107.7L126.4 107.7L126.4 107.6Q126.4 107.4 126.4 107.2Q126.3 107.0 126.2 106.8Q126.1 106.7 126.0 106.6Q125.8 106.5 125.5 106.5L125.5 106.5Q125.3 106.5 125 106.6Q124.7 106.6 124.5 106.8Q124.3 106.9 124.1 107.2Q124 107.4 124 107.7L124 107.7L124 110.9Q124 111.1 123.9 111.2Q123.8 111.3 123.5 111.3ZM131.1 109.8L132.5 105.9Q132.5 105.8 132.6 105.8Q132.7 105.7 132.9 105.7L132.9 105.7Q133.1 105.7 133.2 105.8Q133.3 105.9 133.3 106.1L133.3 106.1Q133.3 106.1 133.3 106.2Q133.3 106.3 133.3 106.4L133.3 106.4L131.5 111.3Q131.5 111.5 131.3 111.8Q131.2 112.0 131.1 112.3Q130.9 112.6 130.7 112.8Q130.6 113.0 130.4 113.2L130.4 113.2Q130.2 113.3 129.8 113.4Q129.6 113.5 129.3 113.5L129.3 113.5Q129.0 113.5 128.9 113.4Q128.8 113.3 128.8 113.0L128.8 113.0L128.8 113.0Q128.8 112.8 128.9 112.7Q129.0 112.6 129.3 112.6L129.3 112.6Q129.4 112.6 129.6 112.5Q129.8 112.5 129.9 112.4Q130.0 112.2 130.1 112.1Q130.2 112.0 130.3 111.9Q130.4 111.8 130.4 111.6Q130.5 111.5 130.5 111.3L130.5 111.3L130.6 111.1L128.8 106.4Q128.8 106.3 128.8 106.2Q128.8 106.1 128.8 106.0L128.8 106.0Q128.8 105.9 128.9 105.8Q129.0 105.7 129.2 105.7L129.2 105.7Q129.4 105.7 129.5 105.8Q129.6 105.8 129.6 105.9L129.6 105.9L131.1 109.8ZM138.8 108.4L135.2 108.4Q135.0 108.4 134.9 108.2Q134.8 108.1 134.8 107.9L134.8 107.9Q134.8 107.7 134.9 107.6Q135.0 107.5 135.2 107.5L135.2 107.5L138.8 107.5Q139.0 107.5 139.1 107.6Q139.3 107.7 139.3 107.9L139.3 107.9Q139.3 108.1 139.1 108.2Q139.0 108.4 138.8 108.4L138.8 108.4ZM140.9 110.7L140.4 106.2Q140.3 105.9 140.4 105.7Q140.6 105.6 140.8 105.6L140.8 105.6Q141.0 105.6 141.1 105.7Q141.3 105.8 141.3 106.0L141.3 106.0L141.7 110.2L142.4 107.3Q142.5 107.0 142.6 106.9Q142.8 106.8 143 106.8L143 106.8Q143.2 106.8 143.4 106.9Q143.5 107.0 143.6 107.3L143.6 107.3L144.3 110.2L144.7 106.0Q144.8 105.8 144.9 105.7Q145.0 105.6 145.2 105.6L145.2 105.6Q145.4 105.6 145.6 105.7Q145.7 105.9 145.6 106.2L145.6 106.2L145.0 110.7Q145 111 144.8 111.2Q144.7 111.3 144.4 111.3L144.4 111.3Q144.1 111.3 143.9 111.2Q143.7 111 143.7 110.7L143.7 110.7L143 108.1L142.3 110.7Q142.3 111 142.1 111.2Q141.9 111.3 141.6 111.3L141.6 111.3Q141.3 111.3 141.2 111.2Q141.0 111 140.9 110.7L140.9 110.7ZM149 109.2L147.8 111Q147.7 111.1 147.5 111.2Q147.4 111.3 147.2 111.3L147.2 111.3Q147.1 111.3 147.0 111.3Q146.9 111.2 146.9 111.1Q146.8 111.1 146.8 111.0Q146.8 110.9 146.9 110.7L146.9 110.7L148.5 108.4L147 106.2Q146.9 106.0 146.9 105.9Q146.9 105.8 147.0 105.7Q147.0 105.7 147.1 105.6Q147.2 105.6 147.3 105.6L147.3 105.6Q147.5 105.6 147.6 105.7Q147.8 105.8 147.9 105.9L147.9 105.9L149 107.6L150.1 105.9Q150.2 105.8 150.4 105.7Q150.5 105.6 150.7 105.6L150.7 105.6Q150.8 105.6 150.9 105.6Q151.0 105.7 151.0 105.7Q151.1 105.8 151.1 105.9Q151.1 106.0 151 106.2L151 106.2L149.5 108.4L151.1 110.7Q151.2 110.9 151.2 111.0Q151.2 111.1 151.1 111.1Q151.1 111.2 151.0 111.3Q150.9 111.3 150.8 111.3L150.8 111.3Q150.6 111.3 150.5 111.2Q150.3 111.2 150.3 111L150.3 111L149 109.2ZM154.9 105.9L156.8 105.9Q157.0 105.9 157.1 106.0Q157.2 106.2 157.2 106.4Q157.2 106.5 157.1 106.7Q157.0 106.8 156.8 106.8L156.8 106.8L154.9 106.8L154.9 109.0Q154.9 109.7 155.2 110.0Q155.4 110.4 155.8 110.4L155.8 110.4Q156 110.4 156.2 110.4Q156.4 110.3 156.6 110.2L156.6 110.2Q156.8 110.1 157.0 110.2Q157.1 110.2 157.2 110.4L157.2 110.4Q157.3 110.6 157.3 110.8Q157.3 111.0 157.1 111.0L157.1 111.0Q156.8 111.2 156.4 111.3Q156.1 111.3 155.7 111.3L155.7 111.3Q155.3 111.3 155.0 111.2Q154.7 111.0 154.5 110.8Q154.3 110.5 154.2 110.1Q154.1 109.7 154.1 109.1L154.1 109.1L154.1 106.8L152.9 106.8Q152.7 106.8 152.6 106.7Q152.5 106.5 152.5 106.4Q152.5 106.2 152.6 106.0Q152.7 105.9 152.9 105.9L152.9 105.9L154.1 105.9L154.1 104.6Q154.1 104.4 154.2 104.3Q154.3 104.2 154.5 104.2Q154.7 104.2 154.8 104.3Q154.9 104.4 154.9 104.6L154.9 104.6L154.9 105.9ZM160.2 110.5L160.2 110.5Q160.2 110.1 160.4 109.9Q160.7 109.6 161 109.6L161 109.6Q161.3 109.6 161.6 109.9Q161.8 110.1 161.8 110.5L161.8 110.5Q161.8 110.8 161.6 111.0Q161.3 111.3 161 111.3L161 111.3Q160.7 111.3 160.4 111.0Q160.2 110.8 160.2 110.5ZM160.2 106.8L160.2 106.8Q160.2 106.4 160.4 106.2Q160.7 105.9 161 105.9L161 105.9Q161.3 105.9 161.6 106.2Q161.8 106.4 161.8 106.8L161.8 106.8Q161.8 107.1 161.6 107.4Q161.3 107.6 161 107.6L161 107.6Q160.7 107.6 160.4 107.4Q160.2 107.1 160.2 106.8ZM174.9 111.3L174.9 111.3Q174.7 111.3 174.5 111.2Q174.4 111 174.4 110.8L174.4 110.8L174.4 110.7Q174.4 110.4 174.5 110.3Q174.7 110.1 174.9 110.1L174.9 110.1Q175.1 110.1 175.3 110.3Q175.4 110.4 175.4 110.7L175.4 110.7L175.4 110.8Q175.4 111 175.3 111.2Q175.1 111.3 174.9 111.3ZM171.1 111.3L171.1 111.3Q170.9 111.3 170.7 111.2Q170.6 111 170.6 110.8L170.6 110.8L170.6 110.7Q170.6 110.4 170.7 110.3Q170.9 110.1 171.1 110.1L171.1 110.1Q171.3 110.1 171.5 110.3Q171.6 110.4 171.6 110.7L171.6 110.7L171.6 110.8Q171.6 111 171.5 111.2Q171.3 111.3 171.1 111.3ZM173 111.3L173 111.3Q172.8 111.3 172.6 111.2Q172.5 111 172.5 110.8L172.5 110.8L172.5 110.7Q172.5 110.4 172.6 110.3Q172.8 110.1 173 110.1L173 110.1Q173.2 110.1 173.4 110.3Q173.5 110.4 173.5 110.7L173.5 110.7L173.5 110.8Q173.5 111 173.4 111.2Q173.2 111.3 173 111.3Z " clip-path="url(#satori_cp-id-1-3-1)" mask="url(#satori_om-id-1-3-1)"/><mask id="satori_om-id-2"><rect x="17" y="232" width="160" height="11" fill="#fff"/></mask><path fill="#656D76" d="M17.7 238.5L17.7 234.7Q17.7 234.5 17.8 234.4Q17.9 234.3 18.1 234.3L18.1 234.3Q18.3 234.3 18.4 234.4Q18.4 234.5 18.4 234.7L18.4 234.7L18.4 238.5Q18.4 238.7 18.5 238.9Q18.6 239.1 18.7 239.2Q18.8 239.4 19.0 239.4Q19.2 239.5 19.4 239.5L19.4 239.5Q19.6 239.5 19.8 239.4Q20.0 239.4 20.1 239.2Q20.2 239.1 20.3 238.9Q20.4 238.7 20.4 238.5L20.4 238.5L20.4 234.7Q20.4 234.5 20.4 234.4Q20.5 234.3 20.7 234.3L20.7 234.3Q20.9 234.3 21.0 234.4Q21.1 234.5 21.1 234.7L21.1 234.7L21.1 238.5Q21.1 238.9 21.0 239.2Q20.9 239.5 20.6 239.8Q20.4 240.0 20.1 240.1Q19.8 240.2 19.4 240.2L19.4 240.2Q19.0 240.2 18.7 240.1Q18.4 240.0 18.2 239.8Q17.9 239.5 17.8 239.2Q17.7 238.9 17.7 238.5L17.7 238.5ZM22.9 235.7L22.9 235.7Q23.1 235.7 23.2 235.8Q23.2 235.9 23.2 236.0L23.2 236.0L23.2 236.6Q23.3 236.4 23.4 236.2Q23.5 236.0 23.7 235.9Q23.8 235.8 24 235.7Q24.2 235.7 24.4 235.7L24.4 235.7Q24.9 235.7 25.2 235.9Q25.5 236.1 25.7 236.4Q25.8 236.7 25.9 237.1Q26.0 237.4 26.0 237.8L26.0 237.8Q26.0 238.2 25.9 238.7Q25.8 239.1 25.7 239.5Q25.5 239.8 25.2 240.0Q24.8 240.2 24.3 240.2L24.3 240.2Q23.9 240.2 23.6 240.0Q23.3 239.8 23.2 239.4L23.2 239.4L23.2 241.3Q23.2 241.5 23.2 241.6Q23.1 241.7 22.9 241.7L22.9 241.7Q22.7 241.7 22.6 241.6Q22.5 241.5 22.5 241.3L22.5 241.3L22.5 236.0Q22.5 235.9 22.6 235.8Q22.7 235.7 22.9 235.7ZM24.3 236.4L24.3 236.4Q24.1 236.4 23.9 236.5Q23.7 236.6 23.6 236.7Q23.4 236.9 23.3 237.0Q23.2 237.2 23.2 237.4L23.2 237.4L23.2 238.3Q23.2 238.5 23.3 238.7Q23.4 238.9 23.5 239.1Q23.6 239.3 23.8 239.4Q24 239.5 24.2 239.5L24.2 239.5Q24.6 239.5 24.8 239.4Q25.0 239.2 25.1 239.0Q25.2 238.8 25.2 238.5Q25.2 238.2 25.2 237.9L25.2 237.9Q25.2 237.5 25.2 237.3Q25.2 237.0 25.1 236.8Q25.0 236.6 24.8 236.5Q24.6 236.4 24.3 236.4ZM30.3 240.2L30.3 240.2Q30.1 240.2 30.0 240.1Q30.0 240.1 30.0 239.9L30.0 239.9L30.0 239.4Q29.9 239.6 29.8 239.7Q29.7 239.9 29.5 240.0Q29.4 240.1 29.2 240.2Q29.0 240.2 28.8 240.2L28.8 240.2Q28.3 240.2 28.0 240.0Q27.7 239.9 27.5 239.5Q27.4 239.2 27.3 238.9Q27.2 238.5 27.2 238.1L27.2 238.1Q27.2 237.7 27.3 237.2Q27.4 236.8 27.5 236.5Q27.7 236.1 28.0 235.9Q28.4 235.7 28.9 235.7L28.9 235.7Q29.3 235.7 29.6 235.9Q29.9 236.2 30.0 236.5L30.0 236.5L30.0 234.6Q30.0 234.4 30.0 234.3Q30.1 234.2 30.3 234.2L30.3 234.2Q30.5 234.2 30.6 234.3Q30.7 234.4 30.7 234.6L30.7 234.6L30.7 239.9Q30.7 240.1 30.6 240.1Q30.5 240.2 30.3 240.2ZM28.9 239.5L28.9 239.5Q29.1 239.5 29.3 239.4Q29.5 239.3 29.6 239.2Q29.8 239.1 29.9 238.9Q30.0 238.7 30.0 238.5L30.0 238.5L30.0 237.6Q30.0 237.4 29.9 237.2Q29.8 237.0 29.7 236.8Q29.6 236.6 29.4 236.5Q29.2 236.4 29.0 236.4L29.0 236.4Q28.6 236.4 28.4 236.5Q28.2 236.7 28.1 236.9Q28.0 237.2 28.0 237.5Q28.0 237.8 28.0 238.1L28.0 238.1Q28.0 238.4 28 238.6Q28.0 238.9 28.1 239.1Q28.2 239.3 28.4 239.4Q28.6 239.5 28.9 239.5ZM33.3 240.2L33.3 240.2Q33.0 240.2 32.8 240.1Q32.5 240.0 32.4 239.8Q32.2 239.6 32.1 239.3Q32.0 238.9 32.0 238.4L32.0 238.4Q32.0 237.8 32.1 237.3Q32.2 236.8 32.4 236.5Q32.6 236.1 33.0 235.9Q33.3 235.7 33.8 235.7L33.8 235.7Q34.2 235.7 34.4 235.9L34.4 235.9Q34.6 236.0 34.7 236.3L34.7 236.3Q34.7 236.1 34.7 236.0L34.7 236.0Q34.7 235.8 34.8 235.8Q35.0 235.7 35.1 235.7L35.1 235.7Q35.3 235.7 35.4 235.8Q35.5 235.8 35.4 236.0L35.4 236.0Q35.4 236.5 35.3 237.0Q35.3 237.4 35.3 237.9Q35.3 238.4 35.4 238.9Q35.4 239.3 35.6 239.9L35.6 239.9Q35.6 240.1 35.5 240.2Q35.5 240.2 35.3 240.2Q35.1 240.2 35.0 240.2Q34.9 240.1 34.8 239.9L34.8 239.9Q34.7 239.5 34.7 239.1L34.7 239.1Q34.6 239.3 34.6 239.4L34.6 239.4Q34.4 239.8 34.1 240.0Q33.8 240.2 33.3 240.2ZM33.4 239.5L33.4 239.5Q33.7 239.5 33.9 239.4Q34.1 239.3 34.2 239.0Q34.4 238.8 34.5 238.4Q34.6 238.1 34.6 237.7L34.6 237.7Q34.6 237.5 34.5 237.3Q34.5 237.0 34.5 236.9Q34.4 236.7 34.3 236.5Q34.1 236.4 33.9 236.4L33.9 236.4Q33.6 236.4 33.4 236.6Q33.2 236.7 33.0 237.0Q32.9 237.3 32.8 237.6Q32.7 238.0 32.7 238.4L32.7 238.4Q32.7 239.0 32.9 239.2Q33.0 239.5 33.4 239.5ZM38.6 235.9L40.0 235.9Q40.2 235.9 40.3 236.0Q40.4 236.1 40.4 236.3Q40.4 236.4 40.3 236.5Q40.2 236.6 40.0 236.6L40.0 236.6L38.6 236.6L38.6 238.4Q38.6 238.9 38.7 239.2Q38.9 239.5 39.2 239.5L39.2 239.5Q39.4 239.5 39.6 239.5Q39.7 239.5 39.9 239.4L39.9 239.4Q40.0 239.3 40.2 239.3Q40.3 239.4 40.4 239.5L40.4 239.5Q40.5 239.7 40.4 239.8Q40.4 240.0 40.3 240.0L40.3 240.0Q40.0 240.2 39.7 240.2Q39.5 240.2 39.1 240.2L39.1 240.2Q38.8 240.2 38.6 240.1Q38.4 240.0 38.2 239.8Q38.0 239.6 37.9 239.3Q37.8 239.0 37.8 238.5L37.8 238.5L37.8 236.6L36.9 236.6Q36.7 236.6 36.7 236.5Q36.6 236.4 36.6 236.3Q36.6 236.1 36.7 236.0Q36.7 235.9 36.9 235.9L36.9 235.9L37.8 235.9L37.8 234.9Q37.8 234.7 37.9 234.6Q38.0 234.5 38.2 234.5Q38.4 234.5 38.5 234.6Q38.6 234.7 38.6 234.9L38.6 234.9L38.6 235.9ZM44.7 239.1L44.7 239.1Q44.8 239.1 44.9 239.2Q45.0 239.3 45.0 239.5L45.0 239.5Q45.0 239.5 45.0 239.6Q45.0 239.7 44.9 239.8L44.9 239.8Q44.7 239.9 44.6 240.0Q44.4 240.1 44.3 240.1Q44.1 240.2 43.9 240.2Q43.8 240.2 43.6 240.2L43.6 240.2Q43.1 240.2 42.7 240.1Q42.4 239.9 42.1 239.6Q41.9 239.3 41.7 238.9Q41.6 238.5 41.6 238.0L41.6 238.0Q41.6 237.5 41.7 237.1Q41.8 236.7 42.0 236.4Q42.2 236.1 42.6 235.9Q42.9 235.7 43.4 235.7L43.4 235.7Q43.9 235.7 44.2 235.8Q44.6 236.0 44.8 236.3Q45.0 236.6 45.0 237.0Q45.1 237.4 45.1 237.9L45.1 237.9Q45.1 238.0 45.0 238.1Q44.9 238.2 44.7 238.2L44.7 238.2L42.3 238.2Q42.4 238.6 42.5 238.8Q42.6 239.0 42.7 239.2Q42.9 239.4 43.1 239.4Q43.3 239.5 43.6 239.5L43.6 239.5Q43.9 239.5 44.1 239.4Q44.3 239.3 44.5 239.2L44.5 239.2Q44.5 239.1 44.6 239.1Q44.6 239.1 44.7 239.1ZM42.3 237.6L44.3 237.6Q44.3 237.6 44.4 237.6Q44.4 237.5 44.4 237.3L44.4 237.3Q44.4 237.2 44.3 237Q44.3 236.8 44.1 236.7Q44.0 236.6 43.8 236.5Q43.7 236.4 43.4 236.4L43.4 236.4Q43.2 236.4 43.0 236.5Q42.8 236.6 42.7 236.7Q42.5 236.9 42.4 237.1Q42.4 237.3 42.3 237.6L42.3 237.6ZM49.5 240.2L49.5 240.2Q49.3 240.2 49.2 240.1Q49.2 240.1 49.2 239.9L49.2 239.9L49.2 239.4Q49.1 239.6 49.0 239.7Q48.9 239.9 48.7 240.0Q48.6 240.1 48.4 240.2Q48.2 240.2 48.0 240.2L48.0 240.2Q47.5 240.2 47.2 240.0Q46.9 239.9 46.7 239.5Q46.6 239.2 46.5 238.9Q46.4 238.5 46.4 238.1L46.4 238.1Q46.4 237.7 46.5 237.2Q46.6 236.8 46.7 236.5Q46.9 236.1 47.2 235.9Q47.6 235.7 48.1 235.7L48.1 235.7Q48.5 235.7 48.8 235.9Q49.1 236.2 49.2 236.5L49.2 236.5L49.2 234.6Q49.2 234.4 49.2 234.3Q49.3 234.2 49.5 234.2L49.5 234.2Q49.7 234.2 49.8 234.3Q49.9 234.4 49.9 234.6L49.9 234.6L49.9 239.9Q49.9 240.1 49.8 240.1Q49.7 240.2 49.5 240.2ZM48.1 239.5L48.1 239.5Q48.3 239.5 48.5 239.4Q48.7 239.3 48.8 239.2Q49.0 239.1 49.1 238.9Q49.2 238.7 49.2 238.5L49.2 238.5L49.2 237.6Q49.2 237.4 49.1 237.2Q49.0 237.0 48.9 236.8Q48.8 236.6 48.6 236.5Q48.4 236.4 48.2 236.4L48.2 236.4Q47.8 236.4 47.6 236.5Q47.4 236.7 47.3 236.9Q47.2 237.2 47.2 237.5Q47.2 237.8 47.2 238.1L47.2 238.1Q47.2 238.4 47.2 238.6Q47.2 238.9 47.3 239.1Q47.4 239.3 47.6 239.4Q47.8 239.5 48.1 239.5ZM52.3 239.6L52.3 239.6Q52.3 239.3 52.5 239.1Q52.7 238.9 53.0 238.9L53.0 238.9Q53.3 238.9 53.5 239.1Q53.7 239.3 53.7 239.6L53.7 239.6Q53.7 239.8 53.5 240.0Q53.3 240.2 53.0 240.2L53.0 240.2Q52.7 240.2 52.5 240.0Q52.3 239.8 52.3 239.6ZM52.3 236.6L52.3 236.6Q52.3 236.3 52.5 236.1Q52.7 235.9 53.0 235.9L53.0 235.9Q53.3 235.9 53.5 236.1Q53.7 236.3 53.7 236.6L53.7 236.6Q53.7 236.9 53.5 237.1Q53.3 237.3 53.0 237.3L53.0 237.3Q52.7 237.3 52.5 237.1Q52.3 236.9 52.3 236.6Z M64.1 240.2L61.3 240.2Q61.1 240.2 60.9 240.0Q60.8 239.9 60.8 239.7L60.8 239.7Q60.8 239.6 60.8 239.5Q60.9 239.4 61.0 239.3L61.0 239.3L62.8 237.4Q62.9 237.3 63.0 237.1Q63.2 236.9 63.3 236.8Q63.4 236.6 63.5 236.4Q63.6 236.2 63.6 236.0L63.6 236.0Q63.6 235.7 63.5 235.5Q63.4 235.3 63.3 235.2Q63.1 235.1 62.9 235.0Q62.7 235.0 62.5 235.0L62.5 235.0Q62.2 235.0 61.9 235.0Q61.7 235.1 61.5 235.2L61.5 235.2Q61.4 235.3 61.2 235.3Q61.1 235.2 61.0 235.1L61.0 235.1Q61.0 234.9 61.0 234.8Q61.0 234.7 61.2 234.6L61.2 234.6Q61.4 234.4 61.7 234.3Q62.1 234.2 62.5 234.2L62.5 234.2Q62.9 234.2 63.2 234.3Q63.6 234.4 63.8 234.6Q64.0 234.8 64.2 235.1Q64.3 235.4 64.3 235.9L64.3 235.9Q64.3 236.1 64.3 236.4Q64.2 236.6 64.1 236.9Q63.9 237.1 63.7 237.3Q63.6 237.6 63.4 237.8L63.4 237.8L61.9 239.3Q61.9 239.3 61.9 239.4Q61.9 239.4 62.1 239.4L62.1 239.4L64.1 239.4Q64.3 239.4 64.4 239.5Q64.5 239.6 64.5 239.8L64.5 239.8Q64.5 240.0 64.4 240.1Q64.3 240.2 64.1 240.2L64.1 240.2ZM67.4 240.2L67.4 240.2Q66.8 240.2 66.4 239.9Q66.1 239.7 65.9 239.2Q65.6 238.8 65.6 238.2Q65.5 237.7 65.5 237.2Q65.5 236.8 65.6 236.2Q65.6 235.7 65.9 235.3Q66.1 234.8 66.4 234.5Q66.8 234.2 67.4 234.2L67.4 234.2Q68.0 234.2 68.4 234.5Q68.8 234.8 69.0 235.3Q69.2 235.7 69.2 236.2Q69.3 236.7 69.3 237.2L69.3 237.2Q69.3 237.7 69.2 238.2Q69.2 238.8 68.9 239.2Q68.7 239.7 68.4 239.9Q68 240.2 67.4 240.2ZM67.4 239.5L67.4 239.5Q67.8 239.5 68.0 239.3Q68.2 239.0 68.4 238.7Q68.5 238.3 68.5 237.9Q68.6 237.5 68.6 237.2L68.6 237.2Q68.6 237.0 68.6 236.8L68.6 236.8L66.4 238.6Q66.4 238.6 66.4 238.7L66.4 238.7Q66.6 239.0 66.8 239.3Q67.0 239.5 67.4 239.5ZM66.2 237.7L68.4 235.8Q68.4 235.8 68.4 235.8L68.4 235.8Q68.2 235.5 68.0 235.2Q67.8 235.0 67.4 235.0Q67.0 235.0 66.8 235.2Q66.6 235.5 66.4 235.8Q66.3 236.2 66.3 236.6Q66.2 237.0 66.2 237.2L66.2 237.2Q66.2 237.4 66.2 237.7L66.2 237.7ZM73.7 240.2L70.9 240.2Q70.7 240.2 70.5 240.0Q70.4 239.9 70.4 239.7L70.4 239.7Q70.4 239.6 70.4 239.5Q70.5 239.4 70.6 239.3L70.6 239.3L72.4 237.4Q72.5 237.3 72.6 237.1Q72.8 236.9 72.9 236.8Q73.0 236.6 73.1 236.4Q73.2 236.2 73.2 236.0L73.2 236.0Q73.2 235.7 73.1 235.5Q73.0 235.3 72.9 235.2Q72.7 235.1 72.5 235.0Q72.3 235.0 72.1 235.0L72.1 235.0Q71.8 235.0 71.5 235.0Q71.3 235.1 71.1 235.2L71.1 235.2Q71.0 235.3 70.8 235.3Q70.7 235.2 70.6 235.1L70.6 235.1Q70.6 234.9 70.6 234.8Q70.6 234.7 70.8 234.6L70.8 234.6Q71.0 234.4 71.3 234.3Q71.7 234.2 72.1 234.2L72.1 234.2Q72.5 234.2 72.8 234.3Q73.2 234.4 73.4 234.6Q73.6 234.8 73.8 235.1Q73.9 235.4 73.9 235.9L73.9 235.9Q73.9 236.1 73.9 236.4Q73.8 236.6 73.7 236.9Q73.5 237.1 73.3 237.3Q73.2 237.6 73.0 237.8L73.0 237.8L71.5 239.3Q71.5 239.3 71.5 239.4Q71.5 239.4 71.7 239.4L71.7 239.4L73.7 239.4Q73.9 239.4 74.0 239.5Q74.1 239.6 74.1 239.8L74.1 239.8Q74.1 240.0 74.0 240.1Q73.9 240.2 73.7 240.2L73.7 240.2ZM77.0 234.5L77.0 234.5Q77.1 234.4 77.2 234.3Q77.4 234.2 77.5 234.2L77.5 234.2Q77.7 234.2 77.7 234.3Q77.8 234.3 77.8 234.4Q77.8 234.5 77.8 234.6Q77.8 234.6 77.7 234.7L77.7 234.7Q77 235.2 76.5 235.9Q76.1 236.5 75.9 237.2L75.9 237.2Q76 237.0 76.1 236.9Q76.3 236.8 76.5 236.7Q76.6 236.6 76.9 236.5Q77.1 236.5 77.3 236.5L77.3 236.5Q77.7 236.5 78.0 236.6Q78.3 236.7 78.5 237.0Q78.7 237.2 78.8 237.6Q78.9 237.9 78.9 238.4L78.9 238.4Q78.9 238.8 78.7 239.2Q78.6 239.5 78.4 239.8Q78.1 240 77.8 240.1Q77.4 240.2 77.0 240.2L77.0 240.2Q76.6 240.2 76.2 240.1Q75.9 240 75.6 239.8Q75.4 239.5 75.3 239.2Q75.1 238.8 75.1 238.4L75.1 238.4Q75.1 237.9 75.2 237.5Q75.2 237.1 75.3 236.7L75.3 236.7Q75.6 236.1 76.0 235.5Q76.4 234.9 77.0 234.5ZM77 239.5L77 239.5Q77.5 239.5 77.8 239.2Q78.2 238.9 78.2 238.4L78.2 238.4Q78.2 237.8 77.9 237.4Q77.6 237.1 77 237.1L77 237.1Q76.7 237.1 76.5 237.2Q76.3 237.3 76.2 237.5Q76 237.7 75.9 237.9Q75.8 238.1 75.8 238.4L75.8 238.4Q75.8 238.9 76.2 239.2Q76.5 239.5 77 239.5ZM83.2 237.9L80.4 237.9Q80.2 237.9 80.1 237.8Q80.0 237.7 80.0 237.5L80.0 237.5Q80.0 237.3 80.1 237.2Q80.2 237.2 80.4 237.2L80.4 237.2L83.2 237.2Q83.4 237.2 83.5 237.2Q83.6 237.3 83.6 237.5L83.6 237.5Q83.6 237.7 83.5 237.8Q83.4 237.9 83.2 237.9L83.2 237.9ZM86.6 240.2L86.6 240.2Q86.0 240.2 85.6 239.9Q85.3 239.7 85.1 239.2Q84.8 238.8 84.8 238.2Q84.7 237.7 84.7 237.2Q84.7 236.8 84.8 236.2Q84.8 235.7 85.1 235.3Q85.3 234.8 85.6 234.5Q86.0 234.2 86.6 234.2L86.6 234.2Q87.2 234.2 87.6 234.5Q88.0 234.8 88.2 235.3Q88.4 235.7 88.4 236.2Q88.5 236.7 88.5 237.2L88.5 237.2Q88.5 237.7 88.4 238.2Q88.4 238.8 88.1 239.2Q87.9 239.7 87.6 239.9Q87.2 240.2 86.6 240.2ZM86.6 239.5L86.6 239.5Q87.0 239.5 87.2 239.3Q87.4 239.0 87.6 238.7Q87.7 238.3 87.7 237.9Q87.8 237.5 87.8 237.2L87.8 237.2Q87.8 237.0 87.8 236.8L87.8 236.8L85.6 238.6Q85.6 238.6 85.6 238.7L85.6 238.7Q85.8 239.0 86.0 239.3Q86.2 239.5 86.6 239.5ZM85.4 237.7L87.6 235.8Q87.6 235.8 87.6 235.8L87.6 235.8Q87.4 235.5 87.2 235.2Q87.0 235.0 86.6 235.0Q86.2 235.0 86.0 235.2Q85.8 235.5 85.6 235.8Q85.5 236.2 85.5 236.6Q85.4 237.0 85.4 237.2L85.4 237.2Q85.4 237.4 85.4 237.7L85.4 237.7ZM90.6 238.1L91.9 238.1L91.9 235.9Q91.9 235.8 91.9 235.7Q91.9 235.7 91.8 235.7L91.8 235.7Q91.8 235.7 91.8 235.7Q91.8 235.7 91.7 235.8L91.7 235.8L90.5 237.8Q90.5 237.9 90.4 237.9Q90.4 238.0 90.4 238.0L90.4 238.0Q90.4 238.1 90.5 238.1Q90.5 238.1 90.6 238.1L90.6 238.1ZM91.9 239.9L91.9 238.8L90.0 238.8Q89.8 238.8 89.6 238.7Q89.5 238.6 89.5 238.3L89.5 238.3Q89.5 238.2 89.5 238.1Q89.5 238.0 89.6 238.0L89.6 238.0L91.8 234.4Q91.8 234.3 91.9 234.3Q92.0 234.2 92.2 234.2L92.2 234.2Q92.4 234.2 92.5 234.4Q92.6 234.5 92.6 234.7L92.6 234.7L92.6 238.1L93.1 238.1Q93.3 238.1 93.4 238.2Q93.4 238.3 93.4 238.5L93.4 238.5Q93.4 238.7 93.4 238.8Q93.3 238.8 93.1 238.8L93.1 238.8L92.6 238.8L92.6 239.9Q92.6 240.1 92.5 240.2Q92.4 240.2 92.2 240.2L92.2 240.2Q92.1 240.2 92.0 240.2Q91.9 240.1 91.9 239.9L91.9 239.9ZM97.6 237.9L94.8 237.9Q94.6 237.9 94.5 237.8Q94.4 237.7 94.4 237.5L94.4 237.5Q94.4 237.3 94.5 237.2Q94.6 237.2 94.8 237.2L94.8 237.2L97.6 237.2Q97.8 237.2 97.9 237.2Q98.0 237.3 98.0 237.5L98.0 237.5Q98.0 237.7 97.9 237.8Q97.8 237.9 97.6 237.9L97.6 237.9ZM102.6 240.2L99.6 240.2Q99.4 240.2 99.3 240.1Q99.2 240.0 99.2 239.8Q99.2 239.6 99.3 239.5Q99.4 239.4 99.6 239.4L99.6 239.4L100.9 239.4L100.9 235.3Q100.9 235.2 100.9 235.1Q100.9 235.1 100.8 235.1L100.8 235.1Q100.8 235.1 100.7 235.1Q100.7 235.1 100.7 235.1L100.7 235.1L99.9 235.8Q99.8 235.9 99.7 235.9Q99.6 235.9 99.5 235.9L99.5 235.9Q99.4 235.9 99.4 235.9Q99.3 235.8 99.3 235.6L99.3 235.6Q99.3 235.4 99.4 235.3Q99.4 235.2 99.5 235.1L99.5 235.1L100.4 234.4Q100.5 234.3 100.7 234.3Q100.8 234.2 101.0 234.2L101.0 234.2Q101.3 234.2 101.5 234.4Q101.6 234.6 101.6 234.9L101.6 234.9L101.6 239.4L102.6 239.4Q102.8 239.4 102.9 239.5Q103.0 239.6 103.0 239.8Q103.0 240.0 102.9 240.1Q102.8 240.2 102.6 240.2L102.6 240.2ZM107.6 238.5L107.6 238.5Q107.6 238.9 107.4 239.2Q107.3 239.5 107.0 239.8Q106.8 240.0 106.4 240.1Q106.1 240.2 105.6 240.2L105.6 240.2Q105.2 240.2 104.9 240.2Q104.5 240.1 104.2 240.0L104.2 240.0Q104.0 239.9 104.0 239.8Q103.9 239.6 104.0 239.5L104.0 239.5Q104.1 239.3 104.2 239.3Q104.3 239.2 104.6 239.3L104.6 239.3Q104.8 239.4 105.0 239.5Q105.3 239.5 105.6 239.5L105.6 239.5Q106.2 239.5 106.5 239.2Q106.8 238.9 106.8 238.4L106.8 238.4Q106.8 238.1 106.7 237.9Q106.6 237.7 106.3 237.6Q106.1 237.4 105.8 237.4Q105.5 237.4 105.1 237.4L105.1 237.4L104.9 237.4Q104.6 237.4 104.4 237.2Q104.3 237.0 104.3 236.7L104.3 236.7L104.3 235.0Q104.3 234.6 104.4 234.5Q104.6 234.3 104.9 234.3L104.9 234.3L107.1 234.3Q107.3 234.3 107.4 234.4Q107.4 234.5 107.4 234.7L107.4 234.7Q107.4 234.9 107.4 235.0Q107.3 235.0 107.1 235.0L107.1 235.0L105.3 235.0Q105.2 235.0 105.1 235.1Q105.0 235.2 105.0 235.4L105.0 235.4L105.0 236.3Q105.0 236.5 105.1 236.6Q105.2 236.6 105.3 236.6L105.3 236.6Q105.7 236.6 106.1 236.7Q106.5 236.7 106.8 236.9Q107.2 237.1 107.4 237.5Q107.6 237.9 107.6 238.5Z M117.0 240.2L114.0 240.2Q113.8 240.2 113.7 240.1Q113.6 240.0 113.6 239.8Q113.6 239.6 113.7 239.5Q113.8 239.4 114.0 239.4L114.0 239.4L115.3 239.4L115.3 235.3Q115.3 235.2 115.3 235.1Q115.3 235.1 115.2 235.1L115.2 235.1Q115.2 235.1 115.1 235.1Q115.1 235.1 115.1 235.1L115.1 235.1L114.3 235.8Q114.2 235.9 114.1 235.9Q114.0 235.9 113.9 235.9L113.9 235.9Q113.8 235.9 113.8 235.9Q113.7 235.8 113.7 235.6L113.7 235.6Q113.7 235.4 113.8 235.3Q113.8 235.2 113.9 235.1L113.9 235.1L114.8 234.4Q114.9 234.3 115.1 234.3Q115.2 234.2 115.4 234.2L115.4 234.2Q115.7 234.2 115.9 234.4Q116.0 234.6 116.0 234.9L116.0 234.9L116.0 239.4L117.0 239.4Q117.2 239.4 117.3 239.5Q117.4 239.6 117.4 239.8Q117.4 240.0 117.3 240.1Q117.2 240.2 117.0 240.2L117.0 240.2ZM118.6 240.0L118.6 240.0Q118.4 239.9 118.4 239.8Q118.3 239.6 118.4 239.5L118.4 239.5Q118.5 239.3 118.6 239.3Q118.7 239.2 119.0 239.3L119.0 239.3Q119.2 239.4 119.4 239.5Q119.7 239.5 120.0 239.5L120.0 239.5Q120.6 239.5 120.9 239.2Q121.2 238.9 121.2 238.4L121.2 238.4Q121.2 238.0 121.1 237.9Q120.9 237.7 120.6 237.6Q120.3 237.5 120.0 237.5Q119.7 237.4 119.4 237.5L119.4 237.5Q119.4 237.5 119.3 237.5Q119.2 237.4 119.2 237.4Q119.1 237.3 119.1 237.3Q119.1 237.2 119.1 237.1L119.1 237.1Q119.1 236.9 119.2 236.8Q119.3 236.7 119.5 236.7L119.5 236.7Q119.7 236.7 120.0 236.7Q120.2 236.7 120.5 236.5Q120.7 236.4 120.8 236.2Q121.0 236.1 121.0 235.8L121.0 235.8Q121.0 235.5 120.9 235.4Q120.8 235.2 120.6 235.1Q120.4 235.0 120.2 235.0Q120.0 235.0 119.8 235.0L119.8 235.0Q119.6 235.0 119.4 235.0Q119.2 235.0 119.0 235.2L119.0 235.2Q118.9 235.2 118.8 235.2Q118.6 235.1 118.6 235.0L118.6 235.0Q118.5 234.9 118.5 234.7Q118.6 234.6 118.7 234.5L118.7 234.5Q118.9 234.4 119.2 234.3Q119.5 234.2 119.8 234.2L119.8 234.2Q120.2 234.2 120.5 234.3Q120.9 234.4 121.1 234.6Q121.4 234.7 121.5 235.0Q121.7 235.3 121.7 235.7L121.7 235.7Q121.7 235.9 121.6 236.1Q121.6 236.4 121.5 236.5Q121.4 236.7 121.2 236.8Q121.0 237.0 120.8 237.0L120.8 237.0Q121.1 237.0 121.3 237.2Q121.6 237.3 121.7 237.5Q121.8 237.7 121.9 238.0Q122.0 238.2 122.0 238.5L122.0 238.5Q122.0 238.9 121.8 239.2Q121.7 239.5 121.4 239.8Q121.2 240.0 120.8 240.1Q120.5 240.2 120.0 240.2L120.0 240.2Q119.6 240.2 119.3 240.2Q118.9 240.1 118.6 240.0ZM124.3 239.6L124.3 239.6Q124.3 239.3 124.5 239.1Q124.7 238.9 125.0 238.9L125.0 238.9Q125.3 238.9 125.5 239.1Q125.7 239.3 125.7 239.6L125.7 239.6Q125.7 239.8 125.5 240.0Q125.3 240.2 125.0 240.2L125.0 240.2Q124.7 240.2 124.5 240.0Q124.3 239.8 124.3 239.6ZM124.3 236.6L124.3 236.6Q124.3 236.3 124.5 236.1Q124.7 235.9 125.0 235.9L125.0 235.9Q125.3 235.9 125.5 236.1Q125.7 236.3 125.7 236.6L125.7 236.6Q125.7 236.9 125.5 237.1Q125.3 237.3 125.0 237.3L125.0 237.3Q124.7 237.3 124.5 237.1Q124.3 236.9 124.3 236.6ZM129.8 240.2L129.8 240.2Q129.2 240.2 128.8 239.9Q128.5 239.7 128.3 239.2Q128.0 238.8 128.0 238.2Q127.9 237.7 127.9 237.2Q127.9 236.8 128.0 236.2Q128.0 235.7 128.3 235.3Q128.5 234.8 128.8 234.5Q129.2 234.2 129.8 234.2L129.8 234.2Q130.4 234.2 130.8 234.5Q131.2 234.8 131.4 235.3Q131.6 235.7 131.6 236.2Q131.7 236.7 131.7 237.2L131.7 237.2Q131.7 237.7 131.6 238.2Q131.6 238.8 131.3 239.2Q131.1 239.7 130.8 239.9Q130.4 240.2 129.8 240.2ZM129.8 239.5L129.8 239.5Q130.2 239.5 130.4 239.3Q130.6 239.0 130.8 238.7Q130.9 238.3 130.9 237.9Q131.0 237.5 131.0 237.2L131.0 237.2Q131.0 237.0 131.0 236.8L131.0 236.8L128.8 238.6Q128.8 238.6 128.8 238.7L128.8 238.7Q129.0 239.0 129.2 239.3Q129.4 239.5 129.8 239.5ZM128.6 237.7L130.8 235.8Q130.8 235.8 130.8 235.8L130.8 235.8Q130.6 235.5 130.4 235.2Q130.2 235.0 129.8 235.0Q129.4 235.0 129.2 235.2Q129.0 235.5 128.8 235.8Q128.7 236.2 128.7 236.6Q128.6 237.0 128.6 237.2L128.6 237.2Q128.6 237.4 128.6 237.7L128.6 237.7ZM133.8 239.8L135.5 235.3Q135.5 235.3 135.5 235.3Q135.6 235.2 135.6 235.2L135.6 235.2Q135.6 235.1 135.5 235.1Q135.4 235.0 135.3 235.0L135.3 235.0L133.1 235.0Q132.9 235.0 132.8 235.0Q132.7 234.9 132.7 234.7L132.7 234.7Q132.7 234.5 132.8 234.4Q132.9 234.3 133.1 234.3L133.1 234.3L135.8 234.3Q136.1 234.3 136.3 234.5Q136.4 234.6 136.4 234.9L136.4 234.9Q136.4 235.0 136.4 235.0Q136.4 235.1 136.4 235.2L136.4 235.2L134.4 240Q134.4 240.1 134.3 240.2Q134.2 240.2 134.0 240.2L134.0 240.2Q133.9 240.2 133.8 240.2Q133.7 240.1 133.7 240.0L133.7 240.0Q133.7 239.9 133.7 239.9Q133.7 239.8 133.8 239.8L133.8 239.8Z M142.3 237.2L142.3 237.2Q142.3 236.6 142.4 236.1Q142.5 235.5 142.8 235.1Q143.1 234.7 143.6 234.5Q144.0 234.2 144.6 234.2L144.6 234.2Q145.0 234.2 145.2 234.3Q145.5 234.4 145.7 234.5Q145.8 234.6 145.9 234.7Q146.1 234.8 146.1 235.0L146.1 235.0Q146.2 235.2 146.1 235.3Q146.1 235.4 146.0 235.5L146.0 235.5Q145.9 235.6 145.8 235.5Q145.6 235.5 145.5 235.4L145.5 235.4Q145.4 235.2 145.2 235.1Q145.0 235.0 144.6 235.0L144.6 235.0Q144.2 235.0 143.9 235.1Q143.6 235.3 143.4 235.6Q143.2 236.0 143.1 236.4Q143.0 236.8 143.0 237.2L143.0 237.2Q143.0 237.6 143.1 238.0Q143.2 238.4 143.4 238.8Q143.6 239.1 143.9 239.3Q144.2 239.5 144.7 239.5L144.7 239.5Q144.8 239.5 144.9 239.5Q145.0 239.5 145.1 239.5Q145.3 239.4 145.4 239.4Q145.5 239.4 145.5 239.3L145.5 239.3Q145.7 239.2 145.8 239.2Q146.0 239.2 146.1 239.3L146.1 239.3Q146.2 239.4 146.2 239.6Q146.2 239.7 146.0 239.9L146.0 239.9Q145.9 240.0 145.7 240.1Q145.6 240.1 145.4 240.2Q145.2 240.2 145.0 240.2Q144.8 240.2 144.6 240.2L144.6 240.2Q144.0 240.2 143.5 240.0Q143.1 239.7 142.8 239.3Q142.5 238.9 142.4 238.4Q142.3 237.8 142.3 237.2ZM149.9 235.5L149.9 235.5Q149.8 235.2 149.5 235.1Q149.3 235.0 149 235.0L149 235.0Q148.6 235.0 148.3 235.2Q148.0 235.4 148.0 235.8L148.0 235.8Q148.0 236.0 148.1 236.2Q148.2 236.4 148.3 236.5Q148.4 236.6 148.6 236.6Q148.8 236.7 149 236.7L149 236.7Q149.4 236.8 149.7 237.0Q150.0 237.1 150.3 237.3Q150.5 237.5 150.7 237.8Q150.8 238.1 150.8 238.6L150.8 238.6Q150.8 239.0 150.7 239.3Q150.6 239.6 150.3 239.8Q150.1 240 149.8 240.1Q149.4 240.2 149 240.2L149 240.2Q148.6 240.2 148.3 240.2Q148.0 240.1 147.8 239.9Q147.6 239.7 147.4 239.5Q147.3 239.2 147.2 238.9L147.2 238.9Q147.2 238.8 147.3 238.7Q147.3 238.6 147.5 238.6L147.5 238.6Q147.7 238.6 147.8 238.6Q147.9 238.7 148.0 238.9L148.0 238.9Q148.1 239.2 148.3 239.4Q148.6 239.5 149 239.5L149 239.5Q149.3 239.5 149.5 239.5Q149.7 239.4 149.8 239.3Q150.0 239.2 150.0 239.0Q150.1 238.8 150.1 238.6L150.1 238.6Q150.1 238.3 150.0 238.1Q149.9 237.9 149.8 237.8Q149.6 237.7 149.4 237.6Q149.2 237.5 149 237.5L149 237.5Q148.7 237.4 148.3 237.3Q148.0 237.2 147.8 237.0Q147.6 236.8 147.5 236.5Q147.3 236.2 147.3 235.8L147.3 235.8Q147.3 235.4 147.4 235.2Q147.6 234.9 147.8 234.7Q148 234.5 148.3 234.4Q148.6 234.2 149 234.2L149 234.2Q149.3 234.2 149.6 234.3Q149.9 234.4 150.1 234.6Q150.3 234.7 150.4 234.9Q150.6 235.2 150.6 235.4L150.6 235.4Q150.7 235.6 150.6 235.7Q150.5 235.8 150.3 235.8L150.3 235.8Q150.1 235.8 150.1 235.7Q150.0 235.6 149.9 235.5ZM153.4 239.9L153.4 235.0L152.2 235.0Q152.0 235.0 151.9 234.9Q151.8 234.8 151.8 234.7L151.8 234.7Q151.8 234.5 151.9 234.4Q152.0 234.3 152.2 234.3L152.2 234.3L155.4 234.3Q155.6 234.3 155.7 234.4Q155.8 234.5 155.8 234.7L155.8 234.7Q155.8 234.8 155.7 234.9Q155.6 235.0 155.4 235.0L155.4 235.0L154.2 235.0L154.2 239.9Q154.2 240.1 154.1 240.2Q154.0 240.2 153.8 240.2L153.8 240.2Q153.6 240.2 153.5 240.2Q153.4 240.1 153.4 239.9L153.4 239.9Z "/></svg>