<svg width="194" height="260" viewBox="0 0 194 260" xmlns="http://www.w3.org/2000/svg"><defs><clipPath id="satori_bc-id"><path x="0" y="0" width="194" height="260" d="M16,0 h162 a16,16 0 0 1 16,16 v228 a16,16 0 0 1 -16,16 h-162 a16,16 0 0 1 -16,-16 v-228 a16,16 0 0 1 16,-16"/></clipPath></defs><mask id="satori_om-id"><rect x="1" y="1" width="192" height="258" fill="#fff"/><path width="194" height="260" fill="none" stroke="#000" stroke-width="2" d="M4.686,4.686 A16,16 0 0 1 16,0 h162 a16,16 0 0 1 16,16 v228 a16,16 0 0 1 -16,16 h-162 a16,16 0 0 1 -16,-16 v-228 A16,16 0 0 1 4.686,4.686"/></mask><path x="0" y="0" width="194" height="260" fill="#161B22" d="M16,0 h162 a16,16 0 0 1 16,16 v228 a16,16 0 0 1 -16,16 h-162 a16,16 0 0 1 -16,-16 v-228 a16,16 0 0 1 16,-16"/><path width="194" height="260" clip-path="url(#satori_bc-id)" fill="none" stroke="#30363D" stroke-width="2" d="M4.686,4.686 A16,16 0 0 1 16,0 h162 a16,16 0 0 1 16,16 v228 a16,16 0 0 1 -16,16 h-162 a16,16 0 0 1 -16,-16 v-228 A16,16 0 0 1 4.686,4.686"/><mask id="satori_om-id-0"><rect x="17" y="17" width="160" height="16" fill="#fff"/></mask><path fill="#8B949E" d="M20.5 22.5L19.7 25.9L21.5 25.9L20.7 22.5Q20.6 22.5 20.6 22.5Q20.6 22.5 20.5 22.5L20.5 22.5ZM22.2 28.8L21.8 27.2L19.4 27.2L19.0 28.8Q18.9 29.1 18.8 29.2Q18.6 29.4 18.3 29.4L18.3 29.4Q17.8 29.4 17.6 29.1Q17.4 28.9 17.5 28.3L17.5 28.3L19.3 21.4Q19.5 20.9 19.8 20.6Q20.1 20.4 20.6 20.4L20.6 20.4Q21.1 20.4 21.4 20.6Q21.7 20.9 21.9 21.4L21.9 21.4L23.7 28.3Q23.8 28.9 23.6 29.1Q23.4 29.4 22.9 29.4L22.9 29.4Q22.6 29.4 22.4 29.2Q22.3 29.1 22.2 28.8L22.2 28.8ZM24.9 25.9L24.9 25.9Q24.9 25.0 25.2 24.4Q25.4 23.7 25.8 23.3Q26.2 22.9 26.8 22.7Q27.3 22.5 27.9 22.5L27.9 22.5Q28.5 22.5 28.9 22.6Q29.3 22.7 29.6 22.9Q29.9 23.1 30.1 23.3Q30.3 23.5 30.4 23.7L30.4 23.7Q30.5 24.1 30.4 24.3Q30.3 24.6 30.0 24.8L30.0 24.8Q29.8 24.8 29.6 24.8Q29.4 24.8 29.2 24.6L29.2 24.6Q29.1 24.3 28.8 24.1Q28.5 24.0 28.1 24.0L28.1 24.0Q27.8 24.0 27.5 24.1Q27.2 24.2 27.0 24.4Q26.8 24.7 26.7 25.0Q26.5 25.4 26.5 25.9L26.5 25.9Q26.5 26.4 26.7 26.8Q26.8 27.2 27.0 27.4Q27.2 27.7 27.5 27.8Q27.7 27.9 28.0 27.9L28.0 27.9Q28.4 27.9 28.7 27.8Q29.0 27.8 29.2 27.6L29.2 27.6Q29.4 27.4 29.7 27.4Q29.9 27.3 30.2 27.5L30.2 27.5Q30.3 27.6 30.3 27.7Q30.4 27.8 30.4 28.0Q30.4 28.1 30.4 28.3Q30.4 28.4 30.3 28.5L30.3 28.5Q30.0 28.8 29.8 29.0Q29.5 29.1 29.3 29.2Q29.0 29.3 28.7 29.3Q28.4 29.4 28.1 29.4L28.1 29.4Q27.4 29.4 26.8 29.2Q26.2 29.0 25.8 28.5Q25.4 28.1 25.2 27.5Q24.9 26.8 24.9 25.9ZM35.2 22.9L37.1 22.9Q37.4 22.9 37.6 23.1Q37.8 23.3 37.8 23.6L37.8 23.6Q37.8 24.0 37.6 24.2Q37.4 24.3 37.1 24.3L37.1 24.3L35.2 24.3L35.2 26.2Q35.2 27.1 35.4 27.5Q35.6 27.9 36.0 27.9L36.0 27.9Q36.2 27.9 36.4 27.9Q36.6 27.8 36.8 27.8L36.8 27.8Q37.1 27.6 37.4 27.7Q37.6 27.8 37.8 28.1L37.8 28.1Q38.0 28.4 37.9 28.6Q37.8 28.9 37.5 29.0L37.5 29.0Q37.1 29.2 36.7 29.3Q36.3 29.4 35.8 29.4L35.8 29.4Q35.3 29.4 34.9 29.2Q34.4 29.0 34.2 28.6Q33.9 28.3 33.8 27.7Q33.6 27.1 33.6 26.4L33.6 26.4L33.6 24.3L32.5 24.3Q32.1 24.3 32.0 24.2Q31.8 24.0 31.8 23.6L31.8 23.6Q31.8 23.3 32.0 23.1Q32.2 22.9 32.5 22.9L32.5 22.9L33.6 22.9L33.6 21.6Q33.6 21.2 33.8 21.0Q34.0 20.8 34.4 20.8Q34.8 20.8 35 21.0Q35.2 21.2 35.2 21.6L35.2 21.6L35.2 22.9ZM43.3 27.8L44.6 27.8Q44.9 27.8 45.1 28.0Q45.3 28.1 45.3 28.5Q45.3 28.9 45.1 29.1Q44.9 29.2 44.6 29.2L44.6 29.2L40.2 29.2Q39.9 29.2 39.7 29.1Q39.5 28.9 39.5 28.5Q39.5 28.1 39.7 28.0Q39.8 27.8 40.2 27.8L40.2 27.8L41.7 27.8L41.7 25.0Q41.7 24.6 41.6 24.5Q41.4 24.3 41.1 24.3L41.1 24.3L40.5 24.3Q40.1 24.3 39.9 24.2Q39.7 24.0 39.7 23.6Q39.7 23.3 39.9 23.1Q40.1 22.9 40.5 22.9L40.5 22.9L42.0 22.9Q42.7 22.9 43.0 23.2Q43.3 23.5 43.3 24.2L43.3 24.2L43.3 27.8ZM42.4 21.8L42.4 21.8Q42.0 21.8 41.7 21.6Q41.4 21.3 41.4 20.9L41.4 20.9Q41.4 20.5 41.7 20.3Q42.0 20.0 42.4 20.0L42.4 20.0Q42.9 20.0 43.2 20.3Q43.4 20.5 43.4 20.9L43.4 20.9Q43.4 21.3 43.2 21.6Q42.9 21.8 42.4 21.8ZM48.4 28.6L46.5 23.4Q46.5 23.2 46.5 23.0Q46.5 22.9 46.6 22.7Q46.7 22.6 46.9 22.6Q47.1 22.5 47.2 22.5L47.2 22.5Q47.5 22.5 47.7 22.7Q47.9 22.8 48.0 23.1L48.0 23.1L49.2 26.6Q49.3 26.9 49.4 26.9Q49.5 26.9 49.6 26.6L49.6 26.6L50.8 23.1Q50.9 22.8 51.1 22.7Q51.3 22.5 51.6 22.5L51.6 22.5Q51.7 22.5 51.9 22.6Q52.1 22.6 52.2 22.7Q52.3 22.9 52.3 23.0Q52.3 23.2 52.3 23.4L52.3 23.4L50.4 28.6Q50.3 29.0 50.0 29.2Q49.8 29.4 49.4 29.4L49.4 29.4Q49.0 29.4 48.8 29.2Q48.5 29.0 48.4 28.6L48.4 28.6ZM57.7 27.8L59.0 27.8Q59.3 27.8 59.5 28.0Q59.7 28.1 59.7 28.5Q59.7 28.9 59.5 29.1Q59.3 29.2 59.0 29.2L59.0 29.2L54.6 29.2Q54.3 29.2 54.1 29.1Q53.9 28.9 53.9 28.5Q53.9 28.1 54.1 28.0Q54.2 27.8 54.6 27.8L54.6 27.8L56.1 27.8L56.1 25.0Q56.1 24.6 56.0 24.5Q55.8 24.3 55.5 24.3L55.5 24.3L54.9 24.3Q54.5 24.3 54.3 24.2Q54.1 24.0 54.1 23.6Q54.1 23.3 54.3 23.1Q54.5 22.9 54.9 22.9L54.9 22.9L56.4 22.9Q57.1 22.9 57.4 23.2Q57.7 23.5 57.7 24.2L57.7 24.2L57.7 27.8ZM56.8 21.8L56.8 21.8Q56.4 21.8 56.1 21.6Q55.8 21.3 55.8 20.9L55.8 20.9Q55.8 20.5 56.1 20.3Q56.4 20.0 56.8 20.0L56.8 20.0Q57.3 20.0 57.6 20.3Q57.8 20.5 57.8 20.9L57.8 20.9Q57.8 21.3 57.6 21.6Q57.3 21.8 56.8 21.8ZM64.0 22.9L65.9 22.9Q66.2 22.9 66.4 23.1Q66.6 23.3 66.6 23.6L66.6 23.6Q66.6 24.0 66.4 24.2Q66.2 24.3 65.9 24.3L65.9 24.3L64.0 24.3L64.0 26.2Q64.0 27.1 64.2 27.5Q64.4 27.9 64.8 27.9L64.8 27.9Q65.0 27.9 65.2 27.9Q65.4 27.8 65.6 27.8L65.6 27.8Q65.9 27.6 66.2 27.7Q66.4 27.8 66.6 28.1L66.6 28.1Q66.8 28.4 66.7 28.6Q66.6 28.9 66.3 29.0L66.3 29.0Q65.9 29.2 65.5 29.3Q65.1 29.4 64.6 29.4L64.6 29.4Q64.1 29.4 63.7 29.2Q63.2 29.0 63.0 28.6Q62.7 28.3 62.6 27.7Q62.4 27.1 62.4 26.4L62.4 26.4L62.4 24.3L61.3 24.3Q60.9 24.3 60.8 24.2Q60.6 24.0 60.6 23.6L60.6 23.6Q60.6 23.3 60.8 23.1Q61.0 22.9 61.3 22.9L61.3 22.9L62.4 22.9L62.4 21.6Q62.4 21.2 62.6 21.0Q62.8 20.8 63.2 20.8Q63.6 20.8 63.8 21.0Q64.0 21.2 64.0 21.6L64.0 21.6L64.0 22.9ZM71.0 27.2L72.6 23Q72.6 22.8 72.8 22.7Q72.9 22.6 73.1 22.6L73.1 22.6Q73.5 22.6 73.7 22.8Q73.9 22.9 73.9 23.2L73.9 23.2Q73.9 23.3 73.9 23.5Q73.9 23.6 73.8 23.7L73.8 23.7L71.9 29.4Q71.8 29.6 71.7 30.0Q71.6 30.3 71.4 30.6Q71.2 31.0 71.0 31.3Q70.8 31.6 70.6 31.8L70.6 31.8Q70.2 32.1 69.7 32.2Q69.3 32.3 69.0 32.3L69.0 32.3Q68.6 32.3 68.4 32.2Q68.2 32 68.2 31.6L68.2 31.6L68.2 31.6Q68.2 31.3 68.4 31.1Q68.5 30.9 68.8 30.9L68.8 30.9Q69.0 30.9 69.2 30.8Q69.4 30.7 69.5 30.6L69.5 30.6Q69.7 30.5 69.8 30.4Q69.9 30.2 69.9 30.1Q70.0 30.0 70.1 29.8Q70.1 29.7 70.2 29.5L70.2 29.5L70.3 29.2L68.3 23.7Q68.2 23.6 68.2 23.4Q68.2 23.3 68.2 23.2L68.2 23.2Q68.2 22.9 68.4 22.8Q68.6 22.6 68.9 22.6L68.9 22.6Q69.2 22.6 69.3 22.7Q69.5 22.8 69.5 23.0L69.5 23.0L71.0 27.2Z "/><mask id="satori_om-id-1"><rect x="17" y="41" width="160" height="191" fill="#fff"/></mask><mask id="satori_om-id-1-0"><rect x="17" y="41" width="160" height="14" fill="#fff"/></mask><mask id="satori_om-id-1-0-0"><rect x="17" y="41" width="16" height="14" fill="#fff"/></mask><path x="17" y="41" width="16" height="14" fill="#1A7F3718" d="M21,41 h8 a4,4 0 0 1 4,4 v6 a4,4 0 0 1 -4,4 h-8 a4,4 0 0 1 -4,-4 v-6 a4,4 0 0 1 4,-4"/><path fill="#1A7F37" d="M22.5 48.0L22.5 48.0Q22.5 47.3 22.6 46.6Q22.8 46.0 23.1 45.5Q23.4 45.1 23.9 44.8Q24.5 44.5 25.2 44.5L25.2 44.5Q25.6 44.5 25.9 44.6Q26.2 44.7 26.4 44.8Q26.6 44.9 26.7 45.1Q26.8 45.2 26.9 45.4L26.9 45.4Q27.0 45.7 27.0 45.9Q26.9 46.1 26.7 46.2L26.7 46.2Q26.6 46.3 26.4 46.3Q26.1 46.2 26.0 46.0L26.0 46.0Q25.9 45.8 25.7 45.7Q25.5 45.6 25.2 45.6L25.2 45.6Q24.8 45.6 24.5 45.8Q24.2 46.0 24.0 46.3Q23.8 46.7 23.7 47.1Q23.7 47.5 23.7 47.9L23.7 47.9Q23.7 48.3 23.7 48.7Q23.8 49.1 24.0 49.4Q24.1 49.7 24.4 50.0Q24.7 50.2 25.2 50.2L25.2 50.2Q25.3 50.2 25.5 50.2Q25.6 50.1 25.7 50.1Q25.8 50.1 25.9 50.0Q26.0 50.0 26.0 49.9L26.0 49.9Q26.2 49.7 26.4 49.7Q26.6 49.8 26.8 49.9L26.8 49.9Q26.9 50.0 26.9 50.3Q27.0 50.5 26.8 50.7L26.8 50.7Q26.7 50.9 26.5 51.0Q26.3 51.1 26.1 51.2Q25.9 51.2 25.6 51.2Q25.4 51.3 25.2 51.3L25.2 51.3Q24.4 51.3 23.9 51.0Q23.3 50.7 23.0 50.3Q22.7 49.8 22.6 49.2Q22.5 48.6 22.5 48.0Z "/><clipPath id="satori_cp-id-1-0-1"><rect x="38" y="41" width="139" height="13"/></clipPath><mask id="satori_om-id-1-0-1"><rect x="38" y="41" width="139" height="13" fill="#fff"/></mask><path fill="#E6EDF3" d="M39.9 48.0L39.9 50.9Q39.9 51.1 39.7 51.2Q39.6 51.3 39.4 51.3L39.4 51.3Q39.2 51.3 39.1 51.2Q39.0 51.1 39.0 50.9L39.0 50.9L39.0 44.3Q39.0 44.0 39.1 43.9Q39.2 43.8 39.4 43.8L39.4 43.8Q39.6 43.8 39.7 43.9Q39.9 44.0 39.9 44.3L39.9 44.3L39.9 46.6Q40.0 46.2 40.3 45.9Q40.7 45.6 41.2 45.6L41.2 45.6Q41.6 45.6 42.0 45.7Q42.3 45.9 42.5 46.1Q42.8 46.4 42.9 46.7Q43.0 47.1 43.0 47.5L43.0 47.5L43.0 50.9Q43.0 51.1 42.9 51.2Q42.8 51.3 42.6 51.3L42.6 51.3Q42.4 51.3 42.3 51.2Q42.1 51.1 42.1 50.9L42.1 50.9L42.1 47.8Q42.1 47.5 42.1 47.3Q42.0 47.0 41.9 46.9Q41.7 46.7 41.5 46.6Q41.3 46.5 41.1 46.5L41.1 46.5Q40.8 46.5 40.6 46.6Q40.4 46.8 40.2 47.0Q40.0 47.2 39.9 47.5Q39.9 47.8 39.9 48.0L39.9 48.0ZM47 51.3L47 51.3Q46.4 51.3 46 51.1Q45.6 50.9 45.3 50.5Q45.0 50.1 44.9 49.6Q44.8 49.1 44.8 48.4L44.8 48.4Q44.8 47.8 44.9 47.3Q45.0 46.8 45.3 46.4Q45.6 46.0 46.0 45.8Q46.4 45.6 47 45.6L47 45.6Q47.6 45.6 48.0 45.8Q48.4 46.0 48.7 46.4Q49.0 46.8 49.1 47.3Q49.3 47.8 49.3 48.4L49.3 48.4Q49.3 49.1 49.1 49.6Q49.0 50.1 48.7 50.5Q48.4 50.9 48.0 51.1Q47.6 51.3 47 51.3ZM47 50.4L47 50.4Q47.4 50.4 47.6 50.3Q47.9 50.1 48.0 49.9Q48.2 49.6 48.3 49.2Q48.4 48.9 48.4 48.4L48.4 48.4Q48.4 48.0 48.3 47.7Q48.2 47.3 48.0 47.0Q47.9 46.8 47.6 46.6Q47.4 46.5 47 46.5L47 46.5Q46.6 46.5 46.4 46.6Q46.1 46.8 46.0 47.0Q45.8 47.3 45.7 47.7Q45.6 48.0 45.6 48.5L45.6 48.5Q45.6 48.9 45.7 49.2Q45.8 49.6 46.0 49.9Q46.1 50.1 46.4 50.3Q46.6 50.4 47 50.4ZM53.0 45.9L54.8 45.9Q55.0 45.9 55.1 46.0Q55.2 46.2 55.2 46.4Q55.2 46.6 55.1 46.7Q55.0 46.8 54.8 46.8L54.8 46.8L53.0 46.8L53.0 49.0Q53.0 49.7 53.2 50.0Q53.4 50.4 53.8 50.4L53.8 50.4Q54 50.4 54.2 50.4Q54.4 50.3 54.6 50.2L54.6 50.2Q54.8 50.1 55.0 50.2Q55.1 50.2 55.2 50.4L55.2 50.4Q55.4 50.6 55.3 50.8Q55.3 51.0 55.1 51.1L55.1 51.1Q54.8 51.2 54.4 51.3Q54.1 51.3 53.6 51.3L53.6 51.3Q53.3 51.3 53.0 51.2Q52.7 51.0 52.5 50.8Q52.3 50.5 52.2 50.1Q52.0 49.7 52.0 49.1L52.0 49.1L52.0 46.8L50.9 46.8Q50.7 46.8 50.6 46.7Q50.5 46.6 50.5 46.4Q50.5 46.2 50.6 46.0Q50.7 45.9 50.9 45.9L50.9 45.9L52.0 45.9L52.0 44.6Q52.0 44.4 52.2 44.3Q52.3 44.2 52.5 44.2Q52.7 44.2 52.8 44.3Q53.0 44.4 53.0 44.6L53.0 44.6L53.0 45.9ZM59.7 50.3L61.1 50.3Q61.3 50.3 61.4 50.4Q61.5 50.6 61.5 50.8Q61.5 51.0 61.4 51.1Q61.3 51.2 61.1 51.2L61.1 51.2L57.3 51.2Q57.1 51.2 57.0 51.1Q56.9 51.0 56.9 50.8Q56.9 50.6 57.0 50.4Q57.1 50.3 57.3 50.3L57.3 50.3L58.8 50.3L58.8 47.2Q58.8 47 58.7 46.9Q58.6 46.8 58.4 46.8L58.4 46.8L57.5 46.8Q57.3 46.8 57.2 46.7Q57.0 46.6 57.0 46.4Q57.0 46.2 57.2 46.0Q57.3 45.9 57.5 45.9L57.5 45.9L58.9 45.9Q59.3 45.9 59.5 46.1Q59.7 46.3 59.7 46.7L59.7 46.7L59.7 50.3ZM59.2 44.9L59.2 44.9Q58.9 44.9 58.7 44.7Q58.5 44.6 58.5 44.3L58.5 44.3Q58.5 44.0 58.7 43.8Q58.9 43.6 59.2 43.6L59.2 43.6Q59.5 43.6 59.7 43.8Q59.9 44.0 59.9 44.3L59.9 44.3Q59.9 44.6 59.7 44.7Q59.5 44.9 59.2 44.9ZM64.4 51.3L64.4 51.3Q64.1 51.3 63.7 51.2Q63.4 51.1 63.2 50.8Q63.0 50.5 62.8 50.1Q62.7 49.6 62.7 49.0L62.7 49.0Q62.7 48.3 62.8 47.7Q63.0 47.0 63.3 46.6Q63.5 46.1 64.0 45.9Q64.4 45.6 65 45.6L65 45.6Q65.5 45.6 65.8 45.8L65.8 45.8Q66.0 46.0 66.1 46.3L66.1 46.3Q66.1 46.2 66.1 46.0L66.1 46.0Q66.2 45.8 66.3 45.7Q66.4 45.6 66.7 45.6L66.7 45.6Q66.9 45.6 67.0 45.7Q67.1 45.8 67.0 46.0L67.0 46.0Q66.9 46.6 66.9 47.2Q66.8 47.8 66.9 48.4Q66.9 49.0 67.0 49.6Q67.0 50.2 67.2 50.9L67.2 50.9Q67.3 51.1 67.2 51.2Q67.1 51.3 66.9 51.3Q66.6 51.3 66.5 51.2Q66.3 51.1 66.3 50.9L66.3 50.9Q66.2 50.4 66.1 49.9L66.1 49.9Q66.0 50.1 66.0 50.3L66.0 50.3Q65.7 50.7 65.4 51.0Q65.0 51.3 64.4 51.3ZM64.5 50.4L64.5 50.4Q64.8 50.4 65.1 50.2Q65.3 50.1 65.5 49.8Q65.7 49.5 65.8 49.1Q66.0 48.6 66.0 48.1L66.0 48.1Q66.0 47.9 65.9 47.6Q65.9 47.3 65.8 47.1Q65.8 46.8 65.6 46.7Q65.4 46.5 65.1 46.5L65.1 46.5Q64.8 46.5 64.5 46.7Q64.2 46.9 64.0 47.2Q63.8 47.6 63.7 48.0Q63.6 48.5 63.6 49.1L63.6 49.1Q63.6 49.7 63.8 50.0Q64.0 50.4 64.5 50.4ZM69.8 48.0L69.8 50.9Q69.8 51.1 69.7 51.2Q69.6 51.3 69.4 51.3L69.4 51.3Q69.2 51.3 69.1 51.2Q69.0 51.1 69.0 50.9L69.0 50.9L69.0 46.1Q69.0 45.8 69.1 45.7Q69.2 45.6 69.4 45.6L69.4 45.6Q69.6 45.6 69.7 45.7Q69.8 45.8 69.8 46.1L69.8 46.1L69.8 46.6Q70.0 46.2 70.3 45.9Q70.7 45.6 71.2 45.6L71.2 45.6Q71.6 45.6 72.0 45.7Q72.3 45.9 72.5 46.1Q72.8 46.4 72.9 46.7Q73.0 47.1 73.0 47.5L73.0 47.5L73.0 50.9Q73.0 51.1 72.9 51.2Q72.8 51.3 72.6 51.3L72.6 51.3Q72.4 51.3 72.3 51.2Q72.2 51.1 72.2 50.9L72.2 50.9L72.2 47.8Q72.2 47.5 72.1 47.3Q72.0 47.0 71.9 46.9Q71.7 46.7 71.5 46.6Q71.3 46.5 71.1 46.5L71.1 46.5Q70.8 46.5 70.6 46.6Q70.3 46.8 70.2 47.0Q70.0 47.2 69.9 47.5Q69.8 47.8 69.8 48.0L69.8 48.0ZM75.3 51.3L75.3 51.3Q75.1 51.3 75.0 51.2Q74.9 51.1 74.9 50.8L74.9 50.8L74.9 44.3Q74.9 44.0 75.0 43.9Q75.1 43.8 75.3 43.8L75.3 43.8Q75.6 43.8 75.7 43.9Q75.8 44.0 75.8 44.3L75.8 44.3L75.8 46.6Q75.9 46.2 76.3 45.9Q76.6 45.6 77.2 45.6L77.2 45.6Q77.8 45.6 78.2 45.9Q78.6 46.1 78.8 46.6Q79.0 47.0 79.1 47.6Q79.2 48.1 79.2 48.6L79.2 48.6Q79.2 49.1 79.1 49.6Q79.1 50.1 78.8 50.4Q78.6 50.8 78.3 51.1Q77.9 51.3 77.3 51.3L77.3 51.3Q77.0 51.3 76.8 51.2Q76.5 51.1 76.3 51.0Q76.2 50.9 76.0 50.7Q75.9 50.5 75.8 50.2L75.8 50.2L75.8 50.8Q75.8 51.1 75.7 51.2Q75.6 51.3 75.3 51.3ZM77.2 50.4L77.2 50.4Q77.5 50.4 77.7 50.3Q78.0 50.1 78.1 49.9Q78.2 49.6 78.3 49.3Q78.3 49.0 78.3 48.6L78.3 48.6Q78.3 48.2 78.3 47.8Q78.2 47.5 78.1 47.2Q78.0 46.9 77.7 46.7Q77.5 46.5 77.0 46.5L77.0 46.5Q76.8 46.5 76.5 46.7Q76.3 46.8 76.1 47.0Q76.0 47.3 75.9 47.5Q75.8 47.8 75.8 48.0L75.8 48.0L75.8 49.1Q75.8 49.4 75.9 49.6Q76.0 49.8 76.2 50.0Q76.4 50.2 76.7 50.3Q76.9 50.4 77.2 50.4ZM84.6 49.9L84.6 49.9Q84.8 49.9 84.9 50.0Q85.0 50.2 85.0 50.3L85.0 50.3Q85.0 50.4 85.0 50.5Q84.9 50.6 84.8 50.7L84.8 50.7Q84.7 50.9 84.5 51.0Q84.3 51.1 84.1 51.2Q83.9 51.2 83.7 51.3Q83.4 51.3 83.2 51.3L83.2 51.3Q82.6 51.3 82.2 51.1Q81.7 50.9 81.4 50.5Q81.1 50.2 80.9 49.7Q80.7 49.1 80.7 48.5L80.7 48.5Q80.7 47.9 80.9 47.4Q81.0 46.9 81.3 46.5Q81.5 46.1 82.0 45.8Q82.4 45.6 83.0 45.6L83.0 45.6Q83.7 45.6 84.0 45.8Q84.5 46.0 84.7 46.4Q84.9 46.8 85.0 47.2Q85.2 47.7 85.2 48.3L85.2 48.3Q85.2 48.5 85.0 48.7Q84.9 48.8 84.7 48.8L84.7 48.8L81.7 48.8Q81.7 49.2 81.8 49.5Q82.0 49.8 82.2 50.0Q82.3 50.2 82.6 50.3Q82.9 50.4 83.2 50.4L83.2 50.4Q83.7 50.4 83.9 50.3Q84.2 50.1 84.3 50L84.3 50Q84.4 49.9 84.5 49.9Q84.5 49.9 84.6 49.9ZM81.7 48L84.1 48Q84.1 48 84.2 47.9Q84.3 47.9 84.3 47.7L84.3 47.7Q84.3 47.5 84.2 47.3Q84.1 47.0 83.9 46.9Q83.8 46.7 83.6 46.6Q83.3 46.5 83.0 46.5L83.0 46.5Q82.7 46.5 82.5 46.6Q82.3 46.7 82.1 46.9Q81.9 47.1 81.8 47.4Q81.7 47.7 81.7 48L81.7 48ZM89 49.2L87.8 51Q87.7 51.1 87.5 51.2Q87.4 51.3 87.2 51.3L87.2 51.3Q87.1 51.3 87.0 51.3Q86.9 51.2 86.9 51.1Q86.8 51.1 86.8 51.0Q86.8 50.9 86.9 50.7L86.9 50.7L88.5 48.4L87 46.2Q86.9 46.1 86.9 45.9Q86.9 45.8 87.0 45.7Q87.0 45.7 87.1 45.6Q87.2 45.6 87.3 45.6L87.3 45.6Q87.5 45.6 87.6 45.7Q87.8 45.8 87.9 45.9L87.9 45.9L89 47.6L90.1 45.9Q90.2 45.8 90.4 45.7Q90.5 45.6 90.7 45.6L90.7 45.6Q90.8 45.6 90.9 45.6Q91.0 45.7 91.0 45.7Q91.1 45.8 91.1 45.9Q91.1 46.1 91 46.2L91 46.2L89.5 48.4L91.1 50.7Q91.2 50.9 91.2 51.0Q91.2 51.1 91.1 51.1Q91.1 51.2 91.0 51.3Q90.9 51.3 90.8 51.3L90.8 51.3Q90.6 51.3 90.5 51.2Q90.3 51.2 90.3 51L90.3 51L89 49.2ZM96.2 48.9L96.2 46.1Q96.2 45.8 96.3 45.7Q96.4 45.6 96.6 45.6L96.6 45.6Q96.8 45.6 96.9 45.7Q97.0 45.8 97.0 46.1L97.0 46.1L97.0 50.9Q97.0 51.1 96.9 51.2Q96.8 51.3 96.6 51.3L96.6 51.3Q96.4 51.3 96.3 51.2Q96.2 51.1 96.2 50.9L96.2 50.9L96.2 50.3Q96.0 50.7 95.7 51.0Q95.3 51.3 94.8 51.3L94.8 51.3Q94.4 51.3 94.0 51.2Q93.7 51.0 93.5 50.8Q93.2 50.5 93.1 50.2Q93.0 49.8 93.0 49.4L93.0 49.4L93.0 46.1Q93.0 45.8 93.1 45.7Q93.2 45.6 93.4 45.6L93.4 45.6Q93.6 45.6 93.7 45.7Q93.8 45.8 93.8 46.1L93.8 46.1L93.8 49.1Q93.8 49.4 93.9 49.6Q94.0 49.9 94.1 50.1Q94.3 50.2 94.5 50.3Q94.7 50.5 94.9 50.5L94.9 50.5Q95.2 50.5 95.4 50.3Q95.7 50.1 95.8 49.9Q96.0 49.7 96.1 49.4Q96.2 49.1 96.2 48.9L96.2 48.9ZM100.4 51.3L100.4 51.3Q100.1 51.3 99.7 51.2Q99.4 51.1 99.2 50.8Q99.0 50.5 98.8 50.1Q98.7 49.6 98.7 49.0L98.7 49.0Q98.7 48.3 98.8 47.7Q99.0 47.0 99.3 46.6Q99.5 46.1 100.0 45.9Q100.4 45.6 101 45.6L101 45.6Q101.5 45.6 101.8 45.8L101.8 45.8Q102.0 46.0 102.1 46.3L102.1 46.3Q102.1 46.2 102.1 46.0L102.1 46.0Q102.2 45.8 102.3 45.7Q102.4 45.6 102.7 45.6L102.7 45.6Q102.9 45.6 103.0 45.7Q103.1 45.8 103.0 46.0L103.0 46.0Q102.9 46.6 102.9 47.2Q102.8 47.8 102.9 48.4Q102.9 49.0 103.0 49.6Q103.0 50.2 103.2 50.9L103.2 50.9Q103.3 51.1 103.2 51.2Q103.1 51.3 102.9 51.3Q102.6 51.3 102.5 51.2Q102.3 51.1 102.3 50.9L102.3 50.9Q102.2 50.4 102.1 49.9L102.1 49.9Q102.0 50.1 102.0 50.3L102.0 50.3Q101.7 50.7 101.4 51.0Q101.0 51.3 100.4 51.3ZM100.5 50.4L100.5 50.4Q100.8 50.4 101.1 50.2Q101.3 50.1 101.5 49.8Q101.7 49.5 101.8 49.1Q102.0 48.6 102.0 48.1L102.0 48.1Q102.0 47.9 101.9 47.6Q101.9 47.3 101.8 47.1Q101.8 46.8 101.6 46.7Q101.4 46.5 101.1 46.5L101.1 46.5Q100.8 46.5 100.5 46.7Q100.2 46.9 100.0 47.2Q99.8 47.6 99.7 48.0Q99.6 48.5 99.6 49.1L99.6 49.1Q99.6 49.7 99.8 50.0Q100.0 50.4 100.5 50.4ZM105.8 48.0L105.8 50.9Q105.8 51.1 105.7 51.2Q105.6 51.3 105.4 51.3L105.4 51.3Q105.2 51.3 105.1 51.2Q105.0 51.1 105.0 50.9L105.0 50.9L105.0 46.1Q105.0 45.8 105.1 45.7Q105.2 45.6 105.4 45.6L105.4 45.6Q105.6 45.6 105.7 45.7Q105.8 45.8 105.8 46.1L105.8 46.1L105.8 46.6Q106.0 46.2 106.3 45.9Q106.7 45.6 107.2 45.6L107.2 45.6Q107.6 45.6 108.0 45.7Q108.3 45.9 108.5 46.1Q108.8 46.4 108.9 46.7Q109.0 47.1 109.0 47.5L109.0 47.5L109.0 50.9Q109.0 51.1 108.9 51.2Q108.8 51.3 108.6 51.3L108.6 51.3Q108.4 51.3 108.3 51.2Q108.2 51.1 108.2 50.9L108.2 50.9L108.2 47.8Q108.2 47.5 108.1 47.3Q108.0 47.0 107.9 46.9Q107.7 46.7 107.5 46.6Q107.3 46.5 107.1 46.5L107.1 46.5Q106.8 46.5 106.6 46.6Q106.3 46.8 106.2 47.0Q106.0 47.2 105.9 47.5Q105.8 47.8 105.8 48.0L105.8 48.0ZM113.0 45.9L114.8 45.9Q115.0 45.9 115.1 46.0Q115.2 46.2 115.2 46.4Q115.2 46.6 115.1 46.7Q115.0 46.8 114.8 46.8L114.8 46.8L113.0 46.8L113.0 49.0Q113.0 49.7 113.2 50.0Q113.4 50.4 113.8 50.4L113.8 50.4Q114 50.4 114.2 50.4Q114.4 50.3 114.6 50.2L114.6 50.2Q114.8 50.1 115.0 50.2Q115.1 50.2 115.2 50.4L115.2 50.4Q115.3 50.6 115.3 50.8Q115.3 51.0 115.1 51.1L115.1 51.1Q114.8 51.2 114.4 51.3Q114.1 51.3 113.7 51.3L113.7 51.3Q113.3 51.3 113.0 51.2Q112.7 51.0 112.5 50.8Q112.3 50.5 112.2 50.1Q112.0 49.7 112.0 49.1L112.0 49.1L112.0 46.8L110.9 46.8Q110.7 46.8 110.6 46.7Q110.5 46.6 110.5 46.4Q110.5 46.2 110.6 46.0Q110.7 45.9 110.9 45.9L110.9 45.9L112.0 45.9L112.0 44.6Q112.0 44.4 112.2 44.3Q112.3 44.2 112.5 44.2Q112.7 44.2 112.8 44.3Q113.0 44.4 113.0 44.6L113.0 44.6L113.0 45.9ZM119 51.3L119 51.3Q118.4 51.3 118 51.1Q117.6 50.9 117.3 50.5Q117.0 50.1 116.9 49.6Q116.8 49.1 116.8 48.4L116.8 48.4Q116.8 47.8 116.9 47.3Q117.0 46.8 117.3 46.4Q117.6 46.0 118.0 45.8Q118.4 45.6 119 45.6L119 45.6Q119.6 45.6 120.0 45.8Q120.4 46.0 120.7 46.4Q121.0 46.8 121.1 47.3Q121.3 47.8 121.3 48.4L121.3 48.4Q121.3 49.1 121.1 49.6Q121.0 50.1 120.7 50.5Q120.4 50.9 120.0 51.1Q119.6 51.3 119 51.3ZM119 50.4L119 50.4Q119.3 50.4 119.6 50.3Q119.9 50.1 120.0 49.9Q120.2 49.6 120.3 49.2Q120.3 48.9 120.3 48.4L120.3 48.4Q120.3 48.0 120.3 47.7Q120.2 47.3 120.0 47.0Q119.9 46.8 119.6 46.6Q119.4 46.5 119 46.5L119 46.5Q118.6 46.5 118.4 46.6Q118.1 46.8 118.0 47.0Q117.8 47.3 117.7 47.7Q117.7 48.0 117.7 48.5L117.7 48.5Q117.7 48.9 117.7 49.2Q117.8 49.6 118.0 49.9Q118.1 50.1 118.4 50.3Q118.7 50.4 119 50.4ZM124.2 50.5L124.2 50.5Q124.2 50.1 124.4 49.9Q124.7 49.6 125 49.6L125 49.6Q125.3 49.6 125.6 49.9Q125.8 50.1 125.8 50.5L125.8 50.5Q125.8 50.8 125.6 51.1Q125.3 51.3 125 51.3L125 51.3Q124.7 51.3 124.4 51.1Q124.2 50.8 124.2 50.5ZM124.2 46.8L124.2 46.8Q124.2 46.4 124.4 46.2Q124.7 45.9 125 45.9L125 45.9Q125.3 45.9 125.6 46.2Q125.8 46.4 125.8 46.8L125.8 46.8Q125.8 47.1 125.6 47.4Q125.3 47.6 125 47.6L125 47.6Q124.7 47.6 124.4 47.4Q124.2 47.1 124.2 46.8Z M134.8 48.5L134.8 48.5Q134.8 47.7 135 47.2Q135.2 46.6 135.5 46.3Q135.9 45.9 136.3 45.8Q136.8 45.6 137.3 45.6L137.3 45.6Q137.7 45.6 137.9 45.7Q138.3 45.7 138.5 45.8Q138.7 46.0 138.9 46.1Q139.0 46.2 139.1 46.4L139.1 46.4Q139.3 46.6 139.2 46.8Q139.2 47.0 139.0 47.1L139.0 47.1Q138.8 47.2 138.7 47.1Q138.5 47.1 138.4 47.0L138.4 47.0Q138.3 46.8 138.0 46.6Q137.8 46.5 137.3 46.5L137.3 46.5Q137.0 46.5 136.7 46.6Q136.4 46.7 136.2 47.0Q135.9 47.2 135.8 47.6Q135.7 47.9 135.7 48.4L135.7 48.4Q135.7 48.9 135.8 49.3Q135.9 49.7 136.2 49.9Q136.4 50.2 136.7 50.3Q137.0 50.4 137.3 50.4L137.3 50.4Q137.6 50.4 137.9 50.3Q138.1 50.3 138.3 50.1L138.3 50.1Q138.4 50 138.6 50.0Q138.8 50.0 138.9 50.1L138.9 50.1Q139.0 50.2 139.0 50.2Q139.1 50.3 139.1 50.4Q139.1 50.5 139.0 50.6Q139.0 50.7 138.9 50.8L138.9 50.8Q138.7 51.0 138.6 51.1Q138.4 51.2 138.2 51.2Q138.0 51.3 137.7 51.3Q137.5 51.3 137.3 51.3L137.3 51.3Q136.8 51.3 136.3 51.1Q135.8 51.0 135.5 50.6Q135.2 50.3 135.0 49.7Q134.8 49.2 134.8 48.5ZM141.8 48.0L141.8 50.9Q141.8 51.1 141.7 51.2Q141.6 51.3 141.4 51.3L141.4 51.3Q141.2 51.3 141.1 51.2Q140.9 51.1 140.9 50.9L140.9 50.9L140.9 44.3Q140.9 44.0 141.1 43.9Q141.2 43.8 141.4 43.8L141.4 43.8Q141.6 43.8 141.7 43.9Q141.8 44.0 141.8 44.3L141.8 44.3L141.8 46.6Q142.0 46.2 142.3 45.9Q142.7 45.6 143.2 45.6L143.2 45.6Q143.6 45.6 144.0 45.7Q144.3 45.9 144.5 46.1Q144.8 46.4 144.9 46.7Q145.1 47.1 145.1 47.5L145.1 47.5L145.1 50.9Q145.1 51.1 144.9 51.2Q144.8 51.3 144.6 51.3L144.6 51.3Q144.4 51.3 144.3 51.2Q144.2 51.1 144.2 50.9L144.2 50.9L144.2 47.8Q144.2 47.5 144.1 47.3Q144.0 47.0 143.9 46.9Q143.7 46.7 143.5 46.6Q143.3 46.5 143.1 46.5L143.1 46.5Q142.8 46.5 142.6 46.6Q142.3 46.8 142.2 47.0Q142.0 47.2 141.9 47.5Q141.8 47.8 141.8 48.0L141.8 48.0ZM149 51.3L149 51.3Q148.4 51.3 148 51.1Q147.6 50.9 147.3 50.5Q147.0 50.1 146.9 49.6Q146.8 49.1 146.8 48.4L146.8 48.4Q146.8 47.8 146.9 47.3Q147.0 46.8 147.3 46.4Q147.6 46.0 148.0 45.8Q148.4 45.6 149 45.6L149 45.6Q149.6 45.6 150.0 45.8Q150.4 46.0 150.7 46.4Q151.0 46.8 151.1 47.3Q151.3 47.8 151.3 48.4L151.3 48.4Q151.3 49.1 151.1 49.6Q151.0 50.1 150.7 50.5Q150.4 50.9 150.0 51.1Q149.6 51.3 149 51.3ZM149 50.4L149 50.4Q149.3 50.4 149.6 50.3Q149.9 50.1 150.0 49.9Q150.2 49.6 150.3 49.2Q150.3 48.9 150.3 48.4L150.3 48.4Q150.3 48.0 150.3 47.7Q150.2 47.3 150.0 47.0Q149.9 46.8 149.6 46.6Q149.4 46.5 149 46.5L149 46.5Q148.6 46.5 148.4 46.6Q148.1 46.8 148.0 47.0Q147.8 47.3 147.7 47.7Q147.7 48.0 147.7 48.5L147.7 48.5Q147.7 48.9 147.7 49.2Q147.8 49.6 148.0 49.9Q148.1 50.1 148.4 50.3Q148.7 50.4 149 50.4ZM153.6 51.3L153.6 51.3Q153.3 51.3 153.2 51.2Q153.1 51.1 153.1 50.9L153.1 50.9L153.1 46.1Q153.1 45.8 153.2 45.7Q153.3 45.6 153.6 45.6L153.6 45.6Q153.8 45.6 153.9 45.7Q154 45.8 154 46.1L154 46.1L154 46.6Q154.1 46.4 154.3 46.2Q154.5 46.0 154.7 45.9Q155.0 45.8 155.3 45.7Q155.6 45.6 155.8 45.6L155.8 45.6Q156.3 45.6 156.6 45.8Q156.9 45.9 157.0 46.2Q157.2 46.5 157.2 46.8Q157.3 47.2 157.3 47.6L157.3 47.6L157.3 47.7Q157.3 47.9 157.2 48.0Q157.1 48.2 156.8 48.2L156.8 48.2Q156.6 48.2 156.5 48.0Q156.4 47.9 156.4 47.7L156.4 47.7L156.4 47.6Q156.4 47.4 156.4 47.2Q156.3 47.0 156.2 46.8Q156.1 46.7 156.0 46.6Q155.8 46.5 155.5 46.5L155.5 46.5Q155.3 46.5 155 46.6Q154.7 46.6 154.5 46.8Q154.3 46.9 154.1 47.2Q154 47.4 154 47.7L154 47.7L154 50.9Q154 51.1 153.9 51.2Q153.8 51.3 153.6 51.3ZM162.6 49.9L162.6 49.9Q162.8 49.9 162.9 50.0Q163.0 50.2 163.0 50.3L163.0 50.3Q163.0 50.4 163.0 50.5Q162.9 50.6 162.8 50.7L162.8 50.7Q162.7 50.9 162.5 51.0Q162.3 51.1 162.1 51.2Q161.9 51.2 161.7 51.3Q161.4 51.3 161.2 51.3L161.2 51.3Q160.6 51.3 160.2 51.1Q159.7 50.9 159.4 50.5Q159.1 50.2 158.9 49.7Q158.7 49.1 158.7 48.5L158.7 48.5Q158.7 47.9 158.9 47.4Q159.0 46.9 159.3 46.5Q159.5 46.1 160.0 45.8Q160.4 45.6 161.1 45.6L161.1 45.6Q161.7 45.6 162.1 45.8Q162.4 46.0 162.7 46.4Q162.9 46.8 163.0 47.2Q163.2 47.7 163.2 48.3L163.2 48.3Q163.2 48.5 163.0 48.7Q162.9 48.8 162.7 48.8L162.7 48.8L159.7 48.8Q159.7 49.2 159.8 49.5Q159.9 49.8 160.2 50.0Q160.3 50.2 160.6 50.3Q160.9 50.4 161.2 50.4L161.2 50.4Q161.7 50.4 161.9 50.3Q162.2 50.1 162.3 50L162.3 50Q162.4 49.9 162.5 49.9Q162.5 49.9 162.6 49.9ZM159.7 48L162.1 48Q162.1 48 162.2 47.9Q162.3 47.9 162.3 47.7L162.3 47.7Q162.3 47.5 162.2 47.3Q162.1 47.0 161.9 46.9Q161.8 46.7 161.6 46.6Q161.3 46.5 161.1 46.5L161.1 46.5Q160.7 46.5 160.5 46.6Q160.3 46.7 160.1 46.9Q159.9 47.1 159.8 47.4Q159.7 47.7 159.7 48L159.7 48ZM168.4 52.1L168.4 52.1Q168.6 52.3 168.6 52.4Q168.6 52.6 168.4 52.7L168.4 52.7Q168.3 52.9 168.1 52.9Q167.9 52.9 167.8 52.8L167.8 52.8Q167.2 52.3 166.8 51.8Q166.3 51.2 166.0 50.6Q165.7 50.0 165.6 49.2Q165.4 48.5 165.4 47.7L165.4 47.7Q165.4 46.9 165.5 46.2Q165.7 45.5 166.0 44.9Q166.3 44.3 166.7 43.8Q167.1 43.3 167.7 42.8L167.7 42.8Q167.9 42.6 168.1 42.7Q168.2 42.7 168.4 42.8L168.4 42.8Q168.6 43 168.6 43.1Q168.5 43.3 168.4 43.5L168.4 43.5Q167.9 43.8 167.6 44.3Q167.2 44.8 166.9 45.3Q166.6 45.8 166.5 46.4Q166.3 47.0 166.3 47.7L166.3 47.7Q166.3 48.4 166.5 49.0Q166.6 49.6 166.9 50.2Q167.2 50.7 167.6 51.2Q168.0 51.7 168.4 52.1ZM174.9 51.3L174.9 51.3Q174.7 51.3 174.5 51.2Q174.4 51 174.4 50.8L174.4 50.8L174.4 50.7Q174.4 50.4 174.5 50.3Q174.7 50.1 174.9 50.1L174.9 50.1Q175.1 50.1 175.3 50.3Q175.4 50.4 175.4 50.7L175.4 50.7L175.4 50.8Q175.4 51 175.3 51.2Q175.1 51.3 174.9 51.3ZM171.1 51.3L171.1 51.3Q170.9 51.3 170.7 51.2Q170.6 51 170.6 50.8L170.6 50.8L170.6 50.7Q170.6 50.4 170.7 50.3Q170.9 50.1 171.1 50.1L171.1 50.1Q171.3 50.1 171.5 50.3Q171.6 50.4 171.6 50.7L171.6 50.7L171.6 50.8Q171.6 51 171.5 51.2Q171.3 51.3 171.1 51.3ZM173 51.3L173 51.3Q172.8 51.3 172.6 51.2Q172.5 51 172.5 50.8L172.5 50.8L172.5 50.7Q172.5 50.4 172.6 50.3Q172.8 50.1 173 50.1L173 50.1Q173.2 50.1 173.4 50.3Q173.5 50.4 173.5 50.7L173.5 50.7L173.5 50.8Q173.5 51 173.4 51.2Q173.2 51.3 173 51.3Z " clip-path="url(#satori_cp-id-1-0-1)" mask="url(#satori_om-id-1-0-1)"/><mask id="satori_om-id-1-1"><rect x="17" y="61" width="160" height="14" fill="#fff"/></mask><mask id="satori_om-id-1-1-0"><rect x="17" y="61" width="16" height="14" fill="#fff"/></mask><path x="17" y="61" width="16" height="14" fill="#1A7F3718" d="M21,61 h8 a4,4 0 0 1 4,4 v6 a4,4 0 0 1 -4,4 h-8 a4,4 0 0 1 -4,-4 v-6 a4,4 0 0 1 4,-4"/><path fill="#1A7F37" d="M22.5 68.0L22.5 68.0Q22.5 67.3 22.6 66.6Q22.8 66.0 23.1 65.5Q23.4 65.1 23.9 64.8Q24.5 64.5 25.2 64.5L25.2 64.5Q25.6 64.5 25.9 64.6Q26.2 64.7 26.4 64.8Q26.6 64.9 26.7 65.1Q26.8 65.2 26.9 65.4L26.9 65.4Q27.0 65.7 27.0 65.9Q26.9 66.1 26.7 66.2L26.7 66.2Q26.6 66.3 26.4 66.3Q26.1 66.2 26.0 66.0L26.0 66.0Q25.9 65.8 25.7 65.7Q25.5 65.6 25.2 65.6L25.2 65.6Q24.8 65.6 24.5 65.8Q24.2 66.0 24.0 66.3Q23.8 66.7 23.7 67.1Q23.7 67.5 23.7 67.9L23.7 67.9Q23.7 68.3 23.7 68.7Q23.8 69.1 24.0 69.4Q24.1 69.7 24.4 70.0Q24.7 70.2 25.2 70.2L25.2 70.2Q25.3 70.2 25.5 70.2Q25.6 70.1 25.7 70.1Q25.8 70.1 25.9 70.0Q26.0 70.0 26.0 69.9L26.0 69.9Q26.2 69.7 26.4 69.7Q26.6 69.8 26.8 69.9L26.8 69.9Q26.9 70.0 26.9 70.3Q27.0 70.5 26.8 70.7L26.8 70.7Q26.7 70.9 26.5 71.0Q26.3 71.1 26.1 71.2Q25.9 71.2 25.6 71.2Q25.4 71.3 25.2 71.3L25.2 71.3Q24.4 71.3 23.9 71.0Q23.3 70.7 23.0 70.3Q22.7 69.8 22.6 69.2Q22.5 68.6 22.5 68.0Z "/><clipPath id="satori_cp-id-1-1-1"><rect x="38" y="61" width="139" height="13"/></clipPath><mask id="satori_om-id-1-1-1"><rect x="38" y="61" width="139" height="13" fill="#fff"/></mask><path fill="#E6EDF3" d="M39.9 69.3L39.9 70.9Q39.9 71.1 39.8 71.2Q39.7 71.3 39.5 71.3Q39.2 71.3 39.1 71.2Q39 71.1 39 70.9L39 70.9L39 64.3Q39 64.0 39.1 63.9Q39.2 63.8 39.5 63.8Q39.7 63.8 39.8 63.9Q39.9 64.0 39.9 64.3L39.9 64.3L39.9 68.1L42.1 65.8Q42.3 65.7 42.4 65.7Q42.5 65.6 42.6 65.6L42.6 65.6Q42.8 65.6 42.9 65.7Q43.0 65.7 43.0 65.8Q43.0 65.9 43.0 66.0Q43.0 66.1 42.9 66.2L42.9 66.2L41.4 67.8L43.2 70.7Q43.3 70.9 43.3 71.0Q43.3 71.1 43.2 71.1Q43.2 71.2 43.1 71.3Q43 71.3 42.9 71.3L42.9 71.3Q42.7 71.3 42.6 71.3Q42.4 71.2 42.3 71.0L42.3 71.0L40.8 68.4L39.9 69.3ZM47.7 70.3L49.1 70.3Q49.3 70.3 49.4 70.4Q49.5 70.5 49.5 70.8Q49.5 71.0 49.4 71.1Q49.3 71.2 49.1 71.2L49.1 71.2L45.3 71.2Q45.1 71.2 45.0 71.1Q44.9 71.0 44.9 70.8Q44.9 70.5 45.0 70.4Q45.1 70.3 45.3 70.3L45.3 70.3L46.8 70.3L46.8 67.2Q46.8 67 46.7 66.9Q46.6 66.8 46.4 66.8L46.4 66.8L45.5 66.8Q45.3 66.8 45.2 66.7Q45.0 66.5 45.0 66.4Q45.0 66.2 45.2 66.0Q45.3 65.9 45.5 65.9L45.5 65.9L46.9 65.9Q47.3 65.9 47.5 66.1Q47.7 66.3 47.7 66.7L47.7 66.7L47.7 70.3ZM47.2 64.9L47.2 64.9Q46.9 64.9 46.7 64.7Q46.5 64.6 46.5 64.3L46.5 64.3Q46.5 64.0 46.7 63.8Q46.9 63.6 47.2 63.6L47.2 63.6Q47.5 63.6 47.7 63.8Q47.9 64.0 47.9 64.3L47.9 64.3Q47.9 64.6 47.7 64.7Q47.5 64.9 47.2 64.9ZM51.5 71.3L51.5 71.3Q51.3 71.3 51.2 71.2Q51.1 71.1 51.1 70.9L51.1 70.9L51.1 66.0Q51.1 65.8 51.2 65.7Q51.3 65.6 51.5 65.6L51.5 65.6Q51.8 65.6 51.9 65.7Q52 65.8 52 66.0L52 66.0L52 66.6Q52.1 66.4 52.3 66.2Q52.5 66.0 52.7 65.9Q53.0 65.8 53.3 65.7Q53.5 65.6 53.8 65.6L53.8 65.6Q54.3 65.6 54.6 65.8Q54.9 65.9 55.0 66.2Q55.2 66.5 55.2 66.8Q55.3 67.2 55.3 67.6L55.3 67.6L55.3 67.7Q55.3 67.9 55.2 68.0Q55.1 68.2 54.9 68.2L54.9 68.2Q54.6 68.2 54.5 68.0Q54.4 67.9 54.4 67.7L54.4 67.7L54.4 67.6Q54.4 67.4 54.4 67.2Q54.3 67.0 54.2 66.8Q54.1 66.7 54.0 66.6Q53.8 66.5 53.5 66.5L53.5 66.5Q53.3 66.5 53 66.6Q52.7 66.6 52.5 66.8Q52.3 66.9 52.1 67.2Q52 67.4 52 67.7L52 67.7L52 70.9Q52 71.1 51.9 71.2Q51.8 71.3 51.5 71.3ZM59 71.3L59 71.3Q58.4 71.3 58 71.1Q57.6 70.9 57.3 70.5Q57.0 70.1 56.9 69.6Q56.8 69.1 56.8 68.4L56.8 68.4Q56.8 67.8 56.9 67.3Q57.0 66.8 57.3 66.4Q57.6 66.0 58.0 65.8Q58.4 65.6 59 65.6L59 65.6Q59.6 65.6 60.0 65.8Q60.4 66.0 60.7 66.4Q61.0 66.8 61.1 67.3Q61.3 67.8 61.3 68.4L61.3 68.4Q61.3 69.1 61.1 69.6Q61.0 70.1 60.7 70.5Q60.4 70.9 60.0 71.1Q59.6 71.3 59 71.3ZM59 70.4L59 70.4Q59.4 70.4 59.6 70.3Q59.9 70.1 60.0 69.9Q60.2 69.6 60.3 69.2Q60.4 68.9 60.4 68.4L60.4 68.4Q60.4 68.0 60.3 67.7Q60.2 67.3 60.0 67.0Q59.9 66.8 59.6 66.6Q59.4 66.5 59 66.5L59 66.5Q58.6 66.5 58.4 66.6Q58.1 66.8 58.0 67.0Q57.8 67.3 57.7 67.7Q57.6 68.0 57.6 68.5L57.6 68.5Q57.6 68.9 57.7 69.2Q57.8 69.6 58.0 69.9Q58.1 70.1 58.4 70.3Q58.6 70.4 59 70.4ZM66.9 71.2L63.4 71.2Q63.1 71.2 62.9 71.1Q62.8 70.9 62.8 70.6L62.8 70.6Q62.8 70.5 62.8 70.3Q62.9 70.2 63.0 70.1L63.0 70.1L65.2 67.8Q65.3 67.6 65.5 67.4Q65.7 67.2 65.9 66.9Q66.1 66.7 66.2 66.4Q66.3 66.2 66.3 65.9L66.3 65.9Q66.3 65.6 66.2 65.4Q66.1 65.1 65.9 65.0Q65.7 64.8 65.4 64.8Q65.2 64.7 64.9 64.7L64.9 64.7Q64.5 64.7 64.2 64.8Q63.9 64.9 63.7 65.0L63.7 65.0Q63.5 65.2 63.3 65.1Q63.1 65 63.0 64.8L63.0 64.8Q62.9 64.7 63.0 64.5Q63.0 64.3 63.2 64.2L63.2 64.2Q63.5 64.0 63.9 63.9Q64.3 63.8 64.9 63.8L64.9 63.8Q65.4 63.8 65.8 63.9Q66.2 64.0 66.5 64.2Q66.8 64.5 67.0 64.8Q67.2 65.2 67.2 65.8L67.2 65.8Q67.2 66.1 67.1 66.5Q67.0 66.8 66.8 67.1Q66.7 67.4 66.4 67.7Q66.2 68.0 66.0 68.2L66.0 68.2L64.2 70.1Q64.1 70.2 64.2 70.2Q64.2 70.3 64.3 70.3L64.3 70.3L66.9 70.3Q67.2 70.3 67.3 70.4Q67.4 70.5 67.4 70.8L67.4 70.8Q67.4 71.0 67.3 71.1Q67.2 71.2 66.9 71.2L66.9 71.2ZM70.4 71.3L70.4 71.3Q70.1 71.3 69.7 71.2Q69.4 71.1 69.2 70.8Q69.0 70.5 68.8 70.1Q68.7 69.6 68.7 69.0L68.7 69.0Q68.7 68.3 68.8 67.7Q69.0 67.0 69.3 66.6Q69.5 66.1 70.0 65.9Q70.4 65.6 71 65.6L71 65.6Q71.5 65.6 71.8 65.8L71.8 65.8Q72.0 66.0 72.1 66.3L72.1 66.3Q72.1 66.2 72.1 66.0L72.1 66.0Q72.2 65.8 72.3 65.7Q72.4 65.6 72.7 65.6L72.7 65.6Q72.9 65.6 73.0 65.7Q73.1 65.8 73.0 66.0L73.0 66.0Q72.9 66.6 72.9 67.2Q72.8 67.8 72.9 68.4Q72.9 69.0 73.0 69.6Q73.0 70.2 73.2 70.9L73.2 70.9Q73.3 71.1 73.2 71.2Q73.1 71.3 72.9 71.3Q72.6 71.3 72.5 71.2Q72.3 71.1 72.3 70.9L72.3 70.9Q72.2 70.4 72.1 69.9L72.1 69.9Q72.0 70.1 72.0 70.3L72.0 70.3Q71.7 70.7 71.4 71.0Q71.0 71.3 70.4 71.3ZM70.5 70.4L70.5 70.4Q70.8 70.4 71.1 70.2Q71.3 70.1 71.5 69.8Q71.7 69.5 71.8 69.0Q72.0 68.6 72.0 68.1L72.0 68.1Q72.0 67.9 71.9 67.6Q71.9 67.3 71.8 67.1Q71.8 66.8 71.6 66.7Q71.4 66.5 71.1 66.5L71.1 66.5Q70.8 66.5 70.5 66.7Q70.2 66.9 70.0 67.2Q69.8 67.6 69.7 68.0Q69.6 68.5 69.6 69.0L69.6 69.0Q69.6 69.7 69.8 70.0Q70.0 70.4 70.5 70.4ZM75.3 65.6L75.3 65.6Q75.6 65.6 75.7 65.7Q75.8 65.8 75.8 66.1L75.8 66.1L75.8 66.7Q75.9 66.5 76.0 66.3Q76.2 66.0 76.3 65.9Q76.5 65.8 76.8 65.7Q77.0 65.6 77.3 65.6L77.3 65.6Q77.9 65.6 78.3 65.8Q78.6 66.1 78.8 66.5Q79.1 66.9 79.1 67.3Q79.2 67.8 79.2 68.3L79.2 68.3Q79.2 68.8 79.1 69.3Q79.0 69.9 78.8 70.3Q78.6 70.8 78.2 71.0Q77.8 71.3 77.2 71.3L77.2 71.3Q76.6 71.3 76.3 71.0Q75.9 70.7 75.8 70.3L75.8 70.3L75.8 72.7Q75.8 72.9 75.7 73.0Q75.6 73.1 75.3 73.1L75.3 73.1Q75.1 73.1 75.0 73.0Q74.9 72.9 74.9 72.7L74.9 72.7L74.9 66.1Q74.9 65.8 75.0 65.7Q75.1 65.6 75.3 65.6ZM77.2 66.5L77.2 66.5Q76.9 66.5 76.7 66.6Q76.4 66.7 76.2 66.9Q76.0 67.1 75.9 67.3Q75.8 67.5 75.8 67.8L75.8 67.8L75.8 68.9Q75.8 69.1 75.9 69.4Q76.0 69.6 76.1 69.9Q76.3 70.1 76.5 70.3Q76.8 70.4 77.0 70.4L77.0 70.4Q77.5 70.4 77.7 70.2Q78.0 70.0 78.1 69.7Q78.2 69.5 78.3 69.1Q78.3 68.7 78.3 68.3L78.3 68.3Q78.3 67.9 78.3 67.6Q78.2 67.3 78.1 67.0Q78.0 66.8 77.7 66.6Q77.5 66.5 77.2 66.5ZM83.7 70.3L85.1 70.3Q85.3 70.3 85.4 70.4Q85.5 70.5 85.5 70.8Q85.5 71.0 85.4 71.1Q85.3 71.2 85.1 71.2L85.1 71.2L81.3 71.2Q81.1 71.2 81.0 71.1Q80.8 71.0 80.8 70.8Q80.8 70.5 81.0 70.4Q81.1 70.3 81.3 70.3L81.3 70.3L82.8 70.3L82.8 67.2Q82.8 67 82.7 66.9Q82.6 66.8 82.4 66.8L82.4 66.8L81.5 66.8Q81.3 66.8 81.2 66.7Q81.0 66.5 81.0 66.4Q81.0 66.2 81.2 66.0Q81.3 65.9 81.5 65.9L81.5 65.9L82.9 65.9Q83.3 65.9 83.5 66.1Q83.7 66.3 83.7 66.7L83.7 66.7L83.7 70.3ZM83.2 64.9L83.2 64.9Q82.9 64.9 82.7 64.7Q82.5 64.6 82.5 64.3L82.5 64.3Q82.5 64.0 82.7 63.8Q82.9 63.6 83.2 63.6L83.2 63.6Q83.5 63.6 83.7 63.8Q83.9 64.0 83.9 64.3L83.9 64.3Q83.9 64.6 83.7 64.7Q83.5 64.9 83.2 64.9ZM88.2 70.5L88.2 70.5Q88.2 70.1 88.4 69.9Q88.7 69.6 89 69.6L89 69.6Q89.3 69.6 89.6 69.9Q89.8 70.1 89.8 70.5L89.8 70.5Q89.8 70.8 89.6 71.0Q89.3 71.3 89 71.3L89 71.3Q88.7 71.3 88.4 71.0Q88.2 70.8 88.2 70.5ZM88.2 66.8L88.2 66.8Q88.2 66.4 88.4 66.2Q88.7 65.9 89 65.9L89 65.9Q89.3 65.9 89.6 66.2Q89.8 66.4 89.8 66.8L89.8 66.8Q89.8 67.1 89.6 67.4Q89.3 67.6 89 67.6L89 67.6Q88.7 67.6 88.4 67.4Q88.2 67.1 88.2 66.8Z M99.3 65.6L99.3 65.6Q99.6 65.6 99.7 65.7Q99.8 65.8 99.8 66.1L99.8 66.1L99.8 66.7Q99.9 66.5 100.0 66.3Q100.2 66.0 100.3 65.9Q100.5 65.8 100.8 65.7Q101.0 65.6 101.3 65.6L101.3 65.6Q101.9 65.6 102.3 65.8Q102.6 66.1 102.8 66.5Q103.1 66.9 103.1 67.3Q103.2 67.8 103.2 68.3L103.2 68.3Q103.2 68.8 103.1 69.3Q103.0 69.9 102.8 70.3Q102.6 70.8 102.2 71.0Q101.8 71.3 101.2 71.3L101.2 71.3Q100.6 71.3 100.3 71.0Q99.9 70.7 99.8 70.3L99.8 70.3L99.8 72.7Q99.8 72.9 99.7 73.0Q99.6 73.1 99.3 73.1L99.3 73.1Q99.1 73.1 99.0 73.0Q98.9 72.9 98.9 72.7L98.9 72.7L98.9 66.1Q98.9 65.8 99.0 65.7Q99.1 65.6 99.3 65.6ZM101.2 66.5L101.2 66.5Q100.9 66.5 100.7 66.6Q100.4 66.7 100.2 66.9Q100.0 67.1 99.9 67.3Q99.8 67.5 99.8 67.8L99.8 67.8L99.8 68.9Q99.8 69.1 99.9 69.4Q100.0 69.6 100.1 69.9Q100.3 70.1 100.5 70.3Q100.8 70.4 101.0 70.4L101.0 70.4Q101.5 70.4 101.7 70.2Q102.0 70.0 102.1 69.7Q102.2 69.5 102.3 69.1Q102.3 68.7 102.3 68.3L102.3 68.3Q102.3 67.9 102.3 67.6Q102.2 67.3 102.1 67.0Q102.0 66.8 101.7 66.6Q101.5 66.5 101.2 66.5ZM108.2 68.9L108.2 66.0Q108.2 65.8 108.3 65.7Q108.4 65.6 108.6 65.6L108.6 65.6Q108.8 65.6 108.9 65.7Q109.0 65.8 109.0 66.0L109.0 66.0L109.0 70.9Q109.0 71.1 108.9 71.2Q108.8 71.3 108.6 71.3L108.6 71.3Q108.4 71.3 108.3 71.2Q108.2 71.1 108.2 70.9L108.2 70.9L108.2 70.3Q108.0 70.7 107.7 71.0Q107.3 71.3 106.8 71.3L106.8 71.3Q106.4 71.3 106.0 71.2Q105.7 71.0 105.5 70.8Q105.2 70.5 105.1 70.2Q105.0 69.8 105.0 69.4L105.0 69.4L105.0 66.0Q105.0 65.8 105.1 65.7Q105.2 65.6 105.4 65.6L105.4 65.6Q105.6 65.6 105.7 65.7Q105.8 65.8 105.8 66.0L105.8 66.0L105.8 69.1Q105.8 69.4 105.9 69.6Q106.0 69.9 106.1 70.0Q106.3 70.2 106.5 70.3Q106.7 70.5 106.9 70.5L106.9 70.5Q107.2 70.5 107.4 70.3Q107.7 70.1 107.8 69.9Q108.0 69.7 108.1 69.4Q108.2 69.1 108.2 68.9L108.2 68.9ZM113.0 71.3L113.0 71.3Q112.7 71.3 112.4 71.3Q112.2 71.2 111.9 71.1Q111.7 71.0 111.4 70.9Q111.2 70.7 111.0 70.5L111.0 70.5Q110.9 70.4 110.9 70.2Q110.8 70.1 110.8 70.0L110.8 70.0Q110.8 69.7 110.9 69.7Q111.0 69.6 111.2 69.6L111.2 69.6Q111.3 69.6 111.4 69.6Q111.5 69.7 111.6 69.8L111.6 69.8Q111.9 70.0 112.2 70.2Q112.5 70.4 113 70.4L113 70.4Q113.2 70.4 113.4 70.4Q113.6 70.4 113.8 70.3Q114.0 70.2 114.2 70.1Q114.3 69.9 114.3 69.7L114.3 69.7Q114.3 69.5 114.2 69.3Q114.0 69.2 113.8 69.1Q113.6 69.0 113.4 68.9Q113.2 68.8 113 68.8L113 68.8Q112.7 68.7 112.3 68.6Q112.0 68.5 111.7 68.4Q111.4 68.2 111.2 67.9Q111.0 67.6 111.0 67.1L111.0 67.1Q111.0 66.7 111.2 66.4Q111.3 66.1 111.6 66.0Q111.9 65.8 112.2 65.7Q112.6 65.6 113 65.6L113 65.6Q113.7 65.6 114.2 65.8Q114.7 66.0 115.0 66.5L115.0 66.5Q115.0 66.6 115.1 66.7Q115.1 66.7 115.1 66.8L115.1 66.8Q115.1 67.0 115.0 67.1Q114.9 67.2 114.7 67.2L114.7 67.2Q114.6 67.2 114.5 67.2Q114.4 67.1 114.3 67.0L114.3 67.0Q114.0 66.8 113.7 66.6Q113.5 66.5 113 66.5L113 66.5Q112.8 66.5 112.6 66.5Q112.4 66.6 112.2 66.7Q112.1 66.7 112.0 66.8Q111.9 67.0 111.9 67.1L111.9 67.1Q111.9 67.3 112.0 67.5Q112.1 67.6 112.3 67.7Q112.5 67.8 112.7 67.8Q112.8 67.9 113 67.9L113 67.9Q113.4 68.0 113.8 68.1Q114.2 68.2 114.5 68.4Q114.8 68.6 115 68.9Q115.2 69.2 115.2 69.7L115.2 69.7Q115.2 70.2 115.0 70.5Q114.8 70.8 114.5 70.9Q114.2 71.1 113.8 71.2Q113.5 71.3 113.0 71.3ZM117.8 68.0L117.8 70.9Q117.8 71.1 117.7 71.2Q117.6 71.3 117.4 71.3L117.4 71.3Q117.2 71.3 117.1 71.2Q117.0 71.1 117.0 70.9L117.0 70.9L117.0 64.3Q117.0 64.0 117.1 63.9Q117.2 63.8 117.4 63.8L117.4 63.8Q117.6 63.8 117.7 63.9Q117.8 64.0 117.8 64.3L117.8 64.3L117.8 66.6Q118.0 66.2 118.3 65.9Q118.7 65.6 119.2 65.6L119.2 65.6Q119.6 65.6 120.0 65.7Q120.3 65.9 120.5 66.1Q120.8 66.4 120.9 66.7Q121.0 67.1 121.0 67.5L121.0 67.5L121.0 70.9Q121.0 71.1 120.9 71.2Q120.8 71.3 120.6 71.3L120.6 71.3Q120.4 71.3 120.3 71.2Q120.2 71.1 120.2 70.9L120.2 70.9L120.2 67.8Q120.2 67.5 120.1 67.3Q120.0 67.0 119.9 66.9Q119.7 66.7 119.5 66.6Q119.3 66.5 119.1 66.5L119.1 66.5Q118.8 66.5 118.6 66.6Q118.3 66.8 118.2 67.0Q118.0 67.2 117.9 67.5Q117.8 67.8 117.8 68.0L117.8 68.0ZM123.0 71.0L123.0 71.0Q122.8 70.9 122.7 70.7Q122.7 70.6 122.8 70.4L122.8 70.4Q122.8 70.2 123.0 70.1Q123.2 70.0 123.4 70.1L123.4 70.1Q123.7 70.3 124.1 70.3Q124.4 70.4 124.7 70.4L124.7 70.4Q125.4 70.4 125.9 70.0Q126.3 69.7 126.3 68.9L126.3 68.9Q126.3 68.5 126.1 68.3Q125.8 68.1 125.5 68.0Q125.2 67.9 124.8 67.8Q124.4 67.8 124.0 67.8L124.0 67.8Q124.0 67.8 123.9 67.8Q123.8 67.8 123.7 67.7Q123.7 67.7 123.6 67.6Q123.6 67.5 123.6 67.4L123.6 67.4Q123.6 67.1 123.7 67.0Q123.9 66.9 124.2 66.9L124.2 66.9Q124.4 66.9 124.7 66.9Q125.0 66.8 125.3 66.7Q125.6 66.5 125.8 66.3Q126.0 66.1 126.0 65.7L126.0 65.7Q126.0 65.4 125.8 65.2Q125.7 65.0 125.5 64.9Q125.3 64.8 125.0 64.7Q124.8 64.7 124.5 64.7L124.5 64.7Q124.3 64.7 124.0 64.8Q123.8 64.8 123.5 64.9L123.5 64.9Q123.4 65.0 123.2 65.0Q123.1 64.9 123.0 64.7L123.0 64.7Q122.9 64.6 122.9 64.4Q123.0 64.2 123.2 64.1L123.2 64.1Q123.4 64.0 123.8 63.9Q124.1 63.8 124.5 63.8L124.5 63.8Q125.0 63.8 125.4 63.9Q125.8 64.0 126.1 64.2Q126.5 64.4 126.7 64.8Q126.9 65.1 126.9 65.6L126.9 65.6Q126.9 65.9 126.8 66.2Q126.7 66.5 126.6 66.7Q126.5 66.9 126.3 67.1Q126.0 67.2 125.8 67.3L125.8 67.3Q126.1 67.3 126.4 67.4Q126.7 67.6 126.9 67.9Q127.0 68.1 127.1 68.4Q127.2 68.8 127.2 69.2L127.2 69.2Q127.2 69.6 127.0 70.0Q126.9 70.4 126.6 70.7Q126.2 71.0 125.8 71.1Q125.3 71.3 124.7 71.3L124.7 71.3Q124.3 71.3 123.8 71.2Q123.3 71.1 123.0 71.0Z " clip-path="url(#satori_cp-id-1-1-1)" mask="url(#satori_om-id-1-1-1)"/><mask id="satori_om-id-1-2"><rect x="17" y="81" width="160" height="13" fill="#fff"/></mask><mask id="satori_om-id-1-2-0"><rect x="17" y="81" width="16" height="13" fill="#fff"/></mask><path x="17" y="81" width="16" height="13" fill="#1A7F3718" d="M21,81 h8 a4,4 0 0 1 4,4 v5 a4,4 0 0 1 -4,4 h-8 a4,4 0 0 1 -4,-4 v-5 a4,4 0 0 1 4,-4"/><path fill="#1A7F37" d="M22.5 88.0L22.5 88.0Q22.5 87.3 22.6 86.6Q22.8 86.0 23.1 85.5Q23.4 85.1 23.9 84.8Q24.5 84.5 25.2 84.5L25.2 84.5Q25.6 84.5 25.9 84.6Q26.2 84.7 26.4 84.8Q26.6 84.9 26.7 85.1Q26.8 85.2 26.9 85.4L26.9 85.4Q27.0 85.7 27.0 85.9Q26.9 86.1 26.7 86.2L26.7 86.2Q26.6 86.3 26.4 86.3Q26.1 86.2 26.0 86.0L26.0 86.0Q25.9 85.8 25.7 85.7Q25.5 85.6 25.2 85.6L25.2 85.6Q24.8 85.6 24.5 85.8Q24.2 86.0 24.0 86.3Q23.8 86.7 23.7 87.1Q23.7 87.5 23.7 87.9L23.7 87.9Q23.7 88.3 23.7 88.7Q23.8 89.1 24.0 89.4Q24.1 89.7 24.4 90.0Q24.7 90.2 25.2 90.2L25.2 90.2Q25.3 90.2 25.5 90.2Q25.6 90.1 25.7 90.1Q25.8 90.1 25.9 90.0Q26.0 90.0 26.0 89.9L26.0 89.9Q26.2 89.7 26.4 89.7Q26.6 89.8 26.8 89.9L26.8 89.9Q26.9 90.0 26.9 90.3Q27.0 90.5 26.8 90.7L26.8 90.7Q26.7 90.9 26.5 91.0Q26.3 91.1 26.1 91.2Q25.9 91.2 25.6 91.2Q25.4 91.3 25.2 91.3L25.2 91.3Q24.4 91.3 23.9 91.0Q23.3 90.7 23.0 90.3Q22.7 89.8 22.6 89.2Q22.5 88.6 22.5 88.0Z "/><clipPath id="satori_cp-id-1-2-1"><rect x="38" y="81" width="139" height="13"/></clipPath><mask id="satori_om-id-1-2-1"><rect x="38" y="81" width="139" height="13" fill="#fff"/></mask><path fill="#E6EDF3" d="M39.9 89.3L39.9 90.9Q39.9 91.1 39.8 91.2Q39.7 91.3 39.5 91.3Q39.2 91.3 39.1 91.2Q39 91.1 39 90.9L39 90.9L39 84.3Q39 84.0 39.1 83.9Q39.2 83.8 39.5 83.8Q39.7 83.8 39.8 83.9Q39.9 84.0 39.9 84.3L39.9 84.3L39.9 88.1L42.1 85.8Q42.3 85.7 42.4 85.7Q42.5 85.6 42.6 85.6L42.6 85.6Q42.8 85.6 42.9 85.7Q43.0 85.7 43.0 85.8Q43.0 85.9 43.0 86.0Q43.0 86.1 42.9 86.2L42.9 86.2L41.4 87.8L43.2 90.7Q43.3 90.9 43.3 91.0Q43.3 91.1 43.2 91.1Q43.2 91.2 43.1 91.3Q43 91.3 42.9 91.3L42.9 91.3Q42.7 91.3 42.6 91.3Q42.4 91.2 42.3 91.0L42.3 91.0L40.8 88.4L39.9 89.3ZM47.7 90.3L49.1 90.3Q49.3 90.3 49.4 90.4Q49.5 90.5 49.5 90.8Q49.5 91.0 49.4 91.1Q49.3 91.2 49.1 91.2L49.1 91.2L45.3 91.2Q45.1 91.2 45.0 91.1Q44.9 91.0 44.9 90.8Q44.9 90.5 45.0 90.4Q45.1 90.3 45.3 90.3L45.3 90.3L46.8 90.3L46.8 87.2Q46.8 87 46.7 86.9Q46.6 86.8 46.4 86.8L46.4 86.8L45.5 86.8Q45.3 86.8 45.2 86.7Q45.0 86.5 45.0 86.4Q45.0 86.2 45.2 86.0Q45.3 85.9 45.5 85.9L45.5 85.9L46.9 85.9Q47.3 85.9 47.5 86.1Q47.7 86.3 47.7 86.7L47.7 86.7L47.7 90.3ZM47.2 84.9L47.2 84.9Q46.9 84.9 46.7 84.7Q46.5 84.6 46.5 84.3L46.5 84.3Q46.5 84.0 46.7 83.8Q46.9 83.6 47.2 83.6L47.2 83.6Q47.5 83.6 47.7 83.8Q47.9 84.0 47.9 84.3L47.9 84.3Q47.9 84.6 47.7 84.7Q47.5 84.9 47.2 84.9ZM51.5 91.3L51.5 91.3Q51.3 91.3 51.2 91.2Q51.1 91.1 51.1 90.9L51.1 90.9L51.1 86.0Q51.1 85.8 51.2 85.7Q51.3 85.6 51.5 85.6L51.5 85.6Q51.8 85.6 51.9 85.7Q52 85.8 52 86.0L52 86.0L52 86.6Q52.1 86.4 52.3 86.2Q52.5 86.0 52.7 85.9Q53.0 85.8 53.3 85.7Q53.5 85.6 53.8 85.6L53.8 85.6Q54.3 85.6 54.6 85.8Q54.9 85.9 55.0 86.2Q55.2 86.5 55.2 86.8Q55.3 87.2 55.3 87.6L55.3 87.6L55.3 87.7Q55.3 87.9 55.2 88.0Q55.1 88.2 54.9 88.2L54.9 88.2Q54.6 88.2 54.5 88.0Q54.4 87.9 54.4 87.7L54.4 87.7L54.4 87.6Q54.4 87.4 54.4 87.2Q54.3 87.0 54.2 86.8Q54.1 86.7 54.0 86.6Q53.8 86.5 53.5 86.5L53.5 86.5Q53.3 86.5 53 86.6Q52.7 86.6 52.5 86.8Q52.3 86.9 52.1 87.2Q52 87.4 52 87.7L52 87.7L52 90.9Q52 91.1 51.9 91.2Q51.8 91.3 51.5 91.3ZM59 91.3L59 91.3Q58.4 91.3 58 91.1Q57.6 90.9 57.3 90.5Q57.0 90.1 56.9 89.6Q56.8 89.1 56.8 88.4L56.8 88.4Q56.8 87.8 56.9 87.3Q57.0 86.8 57.3 86.4Q57.6 86.0 58.0 85.8Q58.4 85.6 59 85.6L59 85.6Q59.6 85.6 60.0 85.8Q60.4 86.0 60.7 86.4Q61.0 86.8 61.1 87.3Q61.3 87.8 61.3 88.4L61.3 88.4Q61.3 89.1 61.1 89.6Q61.0 90.1 60.7 90.5Q60.4 90.9 60.0 91.1Q59.6 91.3 59 91.3ZM59 90.4L59 90.4Q59.4 90.4 59.6 90.3Q59.9 90.1 60.0 89.9Q60.2 89.6 60.3 89.2Q60.4 88.9 60.4 88.4L60.4 88.4Q60.4 88.0 60.3 87.7Q60.2 87.3 60.0 87.0Q59.9 86.8 59.6 86.6Q59.4 86.5 59 86.5L59 86.5Q58.6 86.5 58.4 86.6Q58.1 86.8 58.0 87.0Q57.8 87.3 57.7 87.7Q57.6 88.0 57.6 88.5L57.6 88.5Q57.6 88.9 57.7 89.2Q57.8 89.6 58.0 89.9Q58.1 90.1 58.4 90.3Q58.6 90.4 59 90.4ZM66.9 91.2L63.4 91.2Q63.1 91.2 62.9 91.1Q62.8 90.9 62.8 90.6L62.8 90.6Q62.8 90.5 62.8 90.3Q62.9 90.2 63.0 90.1L63.0 90.1L65.2 87.8Q65.3 87.6 65.5 87.4Q65.7 87.2 65.9 86.9Q66.1 86.7 66.2 86.4Q66.3 86.2 66.3 85.9L66.3 85.9Q66.3 85.6 66.2 85.4Q66.1 85.1 65.9 85.0Q65.7 84.8 65.4 84.8Q65.2 84.7 64.9 84.7L64.9 84.7Q64.5 84.7 64.2 84.8Q63.9 84.9 63.7 85.0L63.7 85.0Q63.5 85.2 63.3 85.1Q63.1 85 63.0 84.8L63.0 84.8Q62.9 84.7 63.0 84.5Q63.0 84.3 63.2 84.2L63.2 84.2Q63.5 84.0 63.9 83.9Q64.3 83.8 64.9 83.8L64.9 83.8Q65.4 83.8 65.8 83.9Q66.2 84.0 66.5 84.2Q66.8 84.5 67.0 84.8Q67.2 85.2 67.2 85.8L67.2 85.8Q67.2 86.1 67.1 86.5Q67.0 86.8 66.8 87.1Q66.7 87.4 66.4 87.7Q66.2 88.0 66.0 88.2L66.0 88.2L64.2 90.1Q64.1 90.2 64.2 90.2Q64.2 90.3 64.3 90.3L64.3 90.3L66.9 90.3Q67.2 90.3 67.3 90.4Q67.4 90.5 67.4 90.8L67.4 90.8Q67.4 91.0 67.3 91.1Q67.2 91.2 66.9 91.2L66.9 91.2ZM70.4 91.3L70.4 91.3Q70.1 91.3 69.7 91.2Q69.4 91.1 69.2 90.8Q69.0 90.5 68.8 90.1Q68.7 89.6 68.7 89.0L68.7 89.0Q68.7 88.3 68.8 87.7Q69.0 87.0 69.3 86.6Q69.5 86.1 70.0 85.9Q70.4 85.6 71 85.6L71 85.6Q71.5 85.6 71.8 85.8L71.8 85.8Q72.0 86.0 72.1 86.3L72.1 86.3Q72.1 86.2 72.1 86.0L72.1 86.0Q72.2 85.8 72.3 85.7Q72.4 85.6 72.7 85.6L72.7 85.6Q72.9 85.6 73.0 85.7Q73.1 85.8 73.0 86.0L73.0 86.0Q72.9 86.6 72.9 87.2Q72.8 87.8 72.9 88.4Q72.9 89.0 73.0 89.6Q73.0 90.2 73.2 90.9L73.2 90.9Q73.3 91.1 73.2 91.2Q73.1 91.3 72.9 91.3Q72.6 91.3 72.5 91.2Q72.3 91.1 72.3 90.9L72.3 90.9Q72.2 90.4 72.1 89.9L72.1 89.9Q72.0 90.1 72.0 90.3L72.0 90.3Q71.7 90.7 71.4 91.0Q71.0 91.3 70.4 91.3ZM70.5 90.4L70.5 90.4Q70.8 90.4 71.1 90.2Q71.3 90.1 71.5 89.8Q71.7 89.5 71.8 89.0Q72.0 88.6 72.0 88.1L72.0 88.1Q72.0 87.9 71.9 87.6Q71.9 87.3 71.8 87.1Q71.8 86.8 71.6 86.7Q71.4 86.5 71.1 86.5L71.1 86.5Q70.8 86.5 70.5 86.7Q70.2 86.9 70.0 87.2Q69.8 87.6 69.7 88.0Q69.6 88.5 69.6 89.0L69.6 89.0Q69.6 89.7 69.8 90.0Q70.0 90.4 70.5 90.4ZM75.3 85.6L75.3 85.6Q75.6 85.6 75.7 85.7Q75.8 85.8 75.8 86.1L75.8 86.1L75.8 86.7Q75.9 86.5 76.0 86.3Q76.2 86.0 76.3 85.9Q76.5 85.8 76.8 85.7Q77.0 85.6 77.3 85.6L77.3 85.6Q77.9 85.6 78.3 85.8Q78.6 86.1 78.8 86.5Q79.1 86.9 79.1 87.3Q79.2 87.8 79.2 88.3L79.2 88.3Q79.2 88.8 79.1 89.3Q79.0 89.9 78.8 90.3Q78.6 90.8 78.2 91.0Q77.8 91.3 77.2 91.3L77.2 91.3Q76.6 91.3 76.3 91.0Q75.9 90.7 75.8 90.3L75.8 90.3L75.8 92.7Q75.8 92.9 75.7 93.0Q75.6 93.1 75.3 93.1L75.3 93.1Q75.1 93.1 75.0 93.0Q74.9 92.9 74.9 92.7L74.9 92.7L74.9 86.1Q74.9 85.8 75.0 85.7Q75.1 85.6 75.3 85.6ZM77.2 86.5L77.2 86.5Q76.9 86.5 76.7 86.6Q76.4 86.7 76.2 86.9Q76.0 87.1 75.9 87.3Q75.8 87.5 75.8 87.8L75.8 87.8L75.8 88.9Q75.8 89.1 75.9 89.4Q76.0 89.6 76.1 89.9Q76.3 90.1 76.5 90.3Q76.8 90.4 77.0 90.4L77.0 90.4Q77.5 90.4 77.7 90.2Q78.0 90.0 78.1 89.7Q78.2 89.5 78.3 89.1Q78.3 88.7 78.3 88.3L78.3 88.3Q78.3 87.9 78.3 87.6Q78.2 87.3 78.1 87.0Q78.0 86.8 77.7 86.6Q77.5 86.5 77.2 86.5ZM83.7 90.3L85.1 90.3Q85.3 90.3 85.4 90.4Q85.5 90.5 85.5 90.8Q85.5 91.0 85.4 91.1Q85.3 91.2 85.1 91.2L85.1 91.2L81.3 91.2Q81.1 91.2 81.0 91.1Q80.8 91.0 80.8 90.8Q80.8 90.5 81.0 90.4Q81.1 90.3 81.3 90.3L81.3 90.3L82.8 90.3L82.8 87.2Q82.8 87 82.7 86.9Q82.6 86.8 82.4 86.8L82.4 86.8L81.5 86.8Q81.3 86.8 81.2 86.7Q81.0 86.5 81.0 86.4Q81.0 86.2 81.2 86.0Q81.3 85.9 81.5 85.9L81.5 85.9L82.9 85.9Q83.3 85.9 83.5 86.1Q83.7 86.3 83.7 86.7L83.7 86.7L83.7 90.3ZM83.2 84.9L83.2 84.9Q82.9 84.9 82.7 84.7Q82.5 84.6 82.5 84.3L82.5 84.3Q82.5 84.0 82.7 83.8Q82.9 83.6 83.2 83.6L83.2 83.6Q83.5 83.6 83.7 83.8Q83.9 84.0 83.9 84.3L83.9 84.3Q83.9 84.6 83.7 84.7Q83.5 84.9 83.2 84.9ZM88.2 90.5L88.2 90.5Q88.2 90.1 88.4 89.9Q88.7 89.6 89 89.6L89 89.6Q89.3 89.6 89.6 89.9Q89.8 90.1 89.8 90.5L89.8 90.5Q89.8 90.8 89.6 91.0Q89.3 91.3 89 91.3L89 91.3Q88.7 91.3 88.4 91.0Q88.2 90.8 88.2 90.5ZM88.2 86.8L88.2 86.8Q88.2 86.4 88.4 86.2Q88.7 85.9 89 85.9L89 85.9Q89.3 85.9 89.6 86.2Q89.8 86.4 89.8 86.8L89.8 86.8Q89.8 87.1 89.6 87.4Q89.3 87.6 89 87.6L89 87.6Q88.7 87.6 88.4 87.4Q88.2 87.1 88.2 86.8Z M99.3 85.6L99.3 85.6Q99.6 85.6 99.7 85.7Q99.8 85.8 99.8 86.1L99.8 86.1L99.8 86.7Q99.9 86.5 100.0 86.3Q100.2 86.0 100.3 85.9Q100.5 85.8 100.8 85.7Q101.0 85.6 101.3 85.6L101.3 85.6Q101.9 85.6 102.3 85.8Q102.6 86.1 102.8 86.5Q103.1 86.9 103.1 87.3Q103.2 87.8 103.2 88.3L103.2 88.3Q103.2 88.8 103.1 89.3Q103.0 89.9 102.8 90.3Q102.6 90.8 102.2 91.0Q101.8 91.3 101.2 91.3L101.2 91.3Q100.6 91.3 100.3 91.0Q99.9 90.7 99.8 90.3L99.8 90.3L99.8 92.7Q99.8 92.9 99.7 93.0Q99.6 93.1 99.3 93.1L99.3 93.1Q99.1 93.1 99.0 93.0Q98.9 92.9 98.9 92.7L98.9 92.7L98.9 86.1Q98.9 85.8 99.0 85.7Q99.1 85.6 99.3 85.6ZM101.2 86.5L101.2 86.5Q100.9 86.5 100.7 86.6Q100.4 86.7 100.2 86.9Q100.0 87.1 99.9 87.3Q99.8 87.5 99.8 87.8L99.8 87.8L99.8 88.9Q99.8 89.1 99.9 89.4Q100.0 89.6 100.1 89.9Q100.3 90.1 100.5 90.3Q100.8 90.4 101.0 90.4L101.0 90.4Q101.5 90.4 101.7 90.2Q102.0 90.0 102.1 89.7Q102.2 89.5 102.3 89.1Q102.3 88.7 102.3 88.3L102.3 88.3Q102.3 87.9 102.3 87.6Q102.2 87.3 102.1 87.0Q102.0 86.8 101.7 86.6Q101.5 86.5 101.2 86.5ZM108.2 88.9L108.2 86.0Q108.2 85.8 108.3 85.7Q108.4 85.6 108.6 85.6L108.6 85.6Q108.8 85.6 108.9 85.7Q109.0 85.8 109.0 86.0L109.0 86.0L109.0 90.9Q109.0 91.1 108.9 91.2Q108.8 91.3 108.6 91.3L108.6 91.3Q108.4 91.3 108.3 91.2Q108.2 91.1 108.2 90.9L108.2 90.9L108.2 90.3Q108.0 90.7 107.7 91.0Q107.3 91.3 106.8 91.3L106.8 91.3Q106.4 91.3 106.0 91.2Q105.7 91.0 105.5 90.8Q105.2 90.5 105.1 90.2Q105.0 89.8 105.0 89.4L105.0 89.4L105.0 86.0Q105.0 85.8 105.1 85.7Q105.2 85.6 105.4 85.6L105.4 85.6Q105.6 85.6 105.7 85.7Q105.8 85.8 105.8 86.0L105.8 86.0L105.8 89.1Q105.8 89.4 105.9 89.6Q106.0 89.9 106.1 90.0Q106.3 90.2 106.5 90.3Q106.7 90.5 106.9 90.5L106.9 90.5Q107.2 90.5 107.4 90.3Q107.7 90.1 107.8 89.9Q108.0 89.7 108.1 89.4Q108.2 89.1 108.2 88.9L108.2 88.9ZM113.0 91.3L113.0 91.3Q112.7 91.3 112.4 91.3Q112.2 91.2 111.9 91.1Q111.7 91.0 111.4 90.9Q111.2 90.7 111.0 90.5L111.0 90.5Q110.9 90.4 110.9 90.2Q110.8 90.1 110.8 90.0L110.8 90.0Q110.8 89.7 110.9 89.7Q111.0 89.6 111.2 89.6L111.2 89.6Q111.3 89.6 111.4 89.6Q111.5 89.7 111.6 89.8L111.6 89.8Q111.9 90.0 112.2 90.2Q112.5 90.4 113 90.4L113 90.4Q113.2 90.4 113.4 90.4Q113.6 90.4 113.8 90.3Q114.0 90.2 114.2 90.1Q114.3 89.9 114.3 89.7L114.3 89.7Q114.3 89.5 114.2 89.3Q114.0 89.2 113.8 89.1Q113.6 89.0 113.4 88.9Q113.2 88.8 113 88.8L113 88.8Q112.7 88.7 112.3 88.6Q112.0 88.5 111.7 88.4Q111.4 88.2 111.2 87.9Q111.0 87.6 111.0 87.1L111.0 87.1Q111.0 86.7 111.2 86.4Q111.3 86.1 111.6 86.0Q111.9 85.8 112.2 85.7Q112.6 85.6 113 85.6L113 85.6Q113.7 85.6 114.2 85.8Q114.7 86.0 115.0 86.5L115.0 86.5Q115.0 86.6 115.1 86.7Q115.1 86.7 115.1 86.8L115.1 86.8Q115.1 87.0 115.0 87.1Q114.9 87.2 114.7 87.2L114.7 87.2Q114.6 87.2 114.5 87.2Q114.4 87.1 114.3 87.0L114.3 87.0Q114.0 86.8 113.7 86.6Q113.5 86.5 113 86.5L113 86.5Q112.8 86.5 112.6 86.5Q112.4 86.6 112.2 86.7Q112.1 86.7 112.0 86.8Q111.9 87.0 111.9 87.1L111.9 87.1Q111.9 87.3 112.0 87.5Q112.1 87.6 112.3 87.7Q112.5 87.8 112.7 87.8Q112.8 87.9 113 87.9L113 87.9Q113.4 88.0 113.8 88.1Q114.2 88.2 114.5 88.4Q114.8 88.6 115 88.9Q115.2 89.2 115.2 89.7L115.2 89.7Q115.2 90.2 115.0 90.5Q114.8 90.8 114.5 90.9Q114.2 91.1 113.8 91.2Q113.5 91.3 113.0 91.3ZM117.8 88.0L117.8 90.9Q117.8 91.1 117.7 91.2Q117.6 91.3 117.4 91.3L117.4 91.3Q117.2 91.3 117.1 91.2Q117.0 91.1 117.0 90.9L117.0 90.9L117.0 84.3Q117.0 84.0 117.1 83.9Q117.2 83.8 117.4 83.8L117.4 83.8Q117.6 83.8 117.7 83.9Q117.8 84.0 117.8 84.3L117.8 84.3L117.8 86.6Q118.0 86.2 118.3 85.9Q118.7 85.6 119.2 85.6L119.2 85.6Q119.6 85.6 120.0 85.7Q120.3 85.9 120.5 86.1Q120.8 86.4 120.9 86.7Q121.0 87.1 121.0 87.5L121.0 87.5L121.0 90.9Q121.0 91.1 120.9 91.2Q120.8 91.3 120.6 91.3L120.6 91.3Q120.4 91.3 120.3 91.2Q120.2 91.1 120.2 90.9L120.2 90.9L120.2 87.8Q120.2 87.5 120.1 87.3Q120.0 87.0 119.9 86.9Q119.7 86.7 119.5 86.6Q119.3 86.5 119.1 86.5L119.1 86.5Q118.8 86.5 118.6 86.6Q118.3 86.8 118.2 87.0Q118.0 87.2 117.9 87.5Q117.8 87.8 117.8 88.0L117.8 88.0Z " clip-path="url(#satori_cp-id-1-2-1)" mask="url(#satori_om-id-1-2-1)"/><mask id="satori_om-id-1-3"><rect x="17" y="101" width="160" height="14" fill="#fff"/></mask><mask id="satori_om-id-1-3-0"><rect x="17" y="101" width="16" height="14" fill="#fff"/></mask><path x="17" y="101" width="16" height="14" fill="#1A7F3718" d="M21,101 h8 a4,4 0 0 1 4,4 v6 a4,4 0 0 1 -4,4 h-8 a4,4 0 0 1 -4,-4 v-6 a4,4 0 0 1 4,-4"/><path fill="#1A7F37" d="M22.5 108.0L22.5 108.0Q22.5 107.3 22.6 106.6Q22.8 106.0 23.1 105.5Q23.4 105.1 23.9 104.8Q24.5 104.5 25.2 104.5L25.2 104.5Q25.6 104.5 25.9 104.6Q26.2 104.7 26.4 104.8Q26.6 104.9 26.7 105.1Q26.8 105.2 26.9 105.4L26.9 105.4Q27.0 105.7 27.0 105.9Q26.9 106.1 26.7 106.2L26.7 106.2Q26.6 106.3 26.4 106.3Q26.1 106.2 26.0 106.0L26.0 106.0Q25.9 105.8 25.7 105.7Q25.5 105.6 25.2 105.6L25.2 105.6Q24.8 105.6 24.5 105.8Q24.2 106.0 24.0 106.3Q23.8 106.7 23.7 107.1Q23.7 107.5 23.7 107.9L23.7 107.9Q23.7 108.3 23.7 108.7Q23.8 109.1 24.0 109.4Q24.1 109.7 24.4 110.0Q24.7 110.2 25.2 110.2L25.2 110.2Q25.3 110.2 25.5 110.2Q25.6 110.1 25.7 110.1Q25.8 110.1 25.9 110.0Q26.0 110.0 26.0 109.9L26.0 109.9Q26.2 109.7 26.4 109.7Q26.6 109.8 26.8 109.9L26.8 109.9Q26.9 110.0 26.9 110.3Q27.0 110.5 26.8 110.7L26.8 110.7Q26.7 110.9 26.5 111.0Q26.3 111.1 26.1 111.2Q25.9 111.2 25.6 111.2Q25.4 111.3 25.2 111.3L25.2 111.3Q24.4 111.3 23.9 111.0Q23.3 110.7 23.0 110.3Q22.7 109.8 22.6 109.2Q22.5 108.6 22.5 108.0Z "/><clipPath id="satori_cp-id-1-3-1"><rect x="38" y="101" width="139" height="13"/></clipPath><mask id="satori_om-id-1-3-1"><rect x="38" y="101" width="139" height="13" fill="#fff"/></mask><path fill="#E6EDF3" d="M39.9 109.3L39.9 110.9Q39.9 111.1 39.8 111.2Q39.7 111.3 39.5 111.3Q39.2 111.3 39.1 111.2Q39 111.1 39 110.9L39 110.9L39 104.3Q39 104.0 39.1 103.9Q39.2 103.8 39.5 103.8Q39.7 103.8 39.8 103.9Q39.9 104.0 39.9 104.3L39.9 104.3L39.9 108.1L42.1 105.8Q42.3 105.7 42.4 105.7Q42.5 105.6 42.6 105.6L42.6 105.6Q42.8 105.6 42.9 105.7Q43.0 105.7 43.0 105.8Q43.0 105.9 43.0 106.0Q43.0 106.1 42.9 106.2L42.9 106.2L41.4 107.8L43.2 110.7Q43.3 110.9 43.3 111.0Q43.3 111.1 43.2 111.1Q43.2 111.2 43.1 111.3Q43 111.3 42.9 111.3L42.9 111.3Q42.7 111.3 42.6 111.3Q42.4 111.2 42.3 111.0L42.3 111.0L40.8 108.4L39.9 109.3ZM47.7 110.3L49.1 110.3Q49.3 110.3 49.4 110.4Q49.5 110.5 49.5 110.8Q49.5 111.0 49.4 111.1Q49.3 111.2 49.1 111.2L49.1 111.2L45.3 111.2Q45.1 111.2 45.0 111.1Q44.9 111.0 44.9 110.8Q44.9 110.5 45.0 110.4Q45.1 110.3 45.3 110.3L45.3 110.3L46.8 110.3L46.8 107.2Q46.8 107 46.7 106.9Q46.6 106.8 46.4 106.8L46.4 106.8L45.5 106.8Q45.3 106.8 45.2 106.7Q45.0 106.5 45.0 106.4Q45.0 106.2 45.2 106.0Q45.3 105.9 45.5 105.9L45.5 105.9L46.9 105.9Q47.3 105.9 47.5 106.1Q47.7 106.3 47.7 106.7L47.7 106.7L47.7 110.3ZM47.2 104.9L47.2 104.9Q46.9 104.9 46.7 104.7Q46.5 104.6 46.5 104.3L46.5 104.3Q46.5 104.0 46.7 103.8Q46.9 103.6 47.2 103.6L47.2 103.6Q47.5 103.6 47.7 103.8Q47.9 104.0 47.9 104.3L47.9 104.3Q47.9 104.6 47.7 104.7Q47.5 104.9 47.2 104.9ZM51.5 111.3L51.5 111.3Q51.3 111.3 51.2 111.2Q51.1 111.1 51.1 110.9L51.1 110.9L51.1 106.0Q51.1 105.8 51.2 105.7Q51.3 105.6 51.5 105.6L51.5 105.6Q51.8 105.6 51.9 105.7Q52 105.8 52 106.0L52 106.0L52 106.6Q52.1 106.4 52.3 106.2Q52.5 106.0 52.7 105.9Q53.0 105.8 53.3 105.7Q53.5 105.6 53.8 105.6L53.8 105.6Q54.3 105.6 54.6 105.8Q54.9 105.9 55.0 106.2Q55.2 106.5 55.2 106.8Q55.3 107.2 55.3 107.6L55.3 107.6L55.3 107.7Q55.3 107.9 55.2 108.0Q55.1 108.2 54.9 108.2L54.9 108.2Q54.6 108.2 54.5 108.0Q54.4 107.9 54.4 107.7L54.4 107.7L54.4 107.6Q54.4 107.4 54.4 107.2Q54.3 107.0 54.2 106.8Q54.1 106.7 54.0 106.6Q53.8 106.5 53.5 106.5L53.5 106.5Q53.3 106.5 53 106.6Q52.7 106.6 52.5 106.8Q52.3 106.9 52.1 107.2Q52 107.4 52 107.7L52 107.7L52 110.9Q52 111.1 51.9 111.2Q51.8 111.3 51.5 111.3ZM59 111.3L59 111.3Q58.4 111.3 58 111.1Q57.6 110.9 57.3 110.5Q57.0 110.1 56.9 109.6Q56.8 109.1 56.8 108.4L56.8 108.4Q56.8 107.8 56.9 107.3Q57.0 106.8 57.3 106.4Q57.6 106.0 58.0 105.8Q58.4 105.6 59 105.6L59 105.6Q59.6 105.6 60.0 105.8Q60.4 106.0 60.7 106.4Q61.0 106.8 61.1 107.3Q61.3 107.8 61.3 108.4L61.3 108.4Q61.3 109.1 61.1 109.6Q61.0 110.1 60.7 110.5Q60.4 110.9 60.0 111.1Q59.6 111.3 59 111.3ZM59 110.4L59 110.4Q59.4 110.4 59.6 110.3Q59.9 110.1 60.0 109.9Q60.2 109.6 60.3 109.2Q60.4 108.9 60.4 108.4L60.4 108.4Q60.4 108.0 60.3 107.7Q60.2 107.3 60.0 107.0Q59.9 106.8 59.6 106.6Q59.4 106.5 59 106.5L59 106.5Q58.6 106.5 58.4 106.6Q58.1 106.8 58.0 107.0Q57.8 107.3 57.7 107.7Q57.6 108.0 57.6 108.5L57.6 108.5Q57.6 108.9 57.7 109.2Q57.8 109.6 58.0 109.9Q58.1 110.1 58.4 110.3Q58.6 110.4 59 110.4ZM66.9 111.2L63.4 111.2Q63.1 111.2 62.9 111.1Q62.8 110.9 62.8 110.6L62.8 110.6Q62.8 110.5 62.8 110.3Q62.9 110.2 63.0 110.1L63.0 110.1L65.2 107.8Q65.3 107.6 65.5 107.4Q65.7 107.2 65.9 106.9Q66.1 106.7 66.2 106.4Q66.3 106.2 66.3 105.9L66.3 105.9Q66.3 105.6 66.2 105.4Q66.1 105.1 65.9 105.0Q65.7 104.8 65.4 104.8Q65.2 104.7 64.9 104.7L64.9 104.7Q64.5 104.7 64.2 104.8Q63.9 104.9 63.7 105.0L63.7 105.0Q63.5 105.2 63.3 105.1Q63.1 105 63.0 104.8L63.0 104.8Q62.9 104.7 63.0 104.5Q63.0 104.3 63.2 104.2L63.2 104.2Q63.5 104.0 63.9 103.9Q64.3 103.8 64.9 103.8L64.9 103.8Q65.4 103.8 65.8 103.9Q66.2 104.0 66.5 104.2Q66.8 104.5 67.0 104.8Q67.2 105.2 67.2 105.8L67.2 105.8Q67.2 106.1 67.1 106.5Q67.0 106.8 66.8 107.1Q66.7 107.4 66.4 107.7Q66.2 108.0 66.0 108.2L66.0 108.2L64.2 110.1Q64.1 110.2 64.2 110.2Q64.2 110.3 64.3 110.3L64.3 110.3L66.9 110.3Q67.2 110.3 67.3 110.4Q67.4 110.5 67.4 110.8L67.4 110.8Q67.4 111.0 67.3 111.1Q67.2 111.2 66.9 111.2L66.9 111.2ZM70.4 111.3L70.4 111.3Q70.1 111.3 69.7 111.2Q69.4 111.1 69.2 110.8Q69.0 110.5 68.8 110.1Q68.7 109.6 68.7 109.0L68.7 109.0Q68.7 108.3 68.8 107.7Q69.0 107.0 69.3 106.6Q69.5 106.1 70.0 105.9Q70.4 105.6 71 105.6L71 105.6Q71.5 105.6 71.8 105.8L71.8 105.8Q72.0 106.0 72.1 106.3L72.1 106.3Q72.1 106.2 72.1 106.0L72.1 106.0Q72.2 105.8 72.3 105.7Q72.4 105.6 72.7 105.6L72.7 105.6Q72.9 105.6 73.0 105.7Q73.1 105.8 73.0 106.0L73.0 106.0Q72.9 106.6 72.9 107.2Q72.8 107.8 72.9 108.4Q72.9 109.0 73.0 109.6Q73.0 110.2 73.2 110.9L73.2 110.9Q73.3 111.1 73.2 111.2Q73.1 111.3 72.9 111.3Q72.6 111.3 72.5 111.2Q72.3 111.1 72.3 110.9L72.3 110.9Q72.2 110.4 72.1 109.9L72.1 109.9Q72.0 110.1 72.0 110.3L72.0 110.3Q71.7 110.7 71.4 111.0Q71.0 111.3 70.4 111.3ZM70.5 110.4L70.5 110.4Q70.8 110.4 71.1 110.2Q71.3 110.1 71.5 109.8Q71.7 109.5 71.8 109.0Q72.0 108.6 72.0 108.1L72.0 108.1Q72.0 107.9 71.9 107.6Q71.9 107.3 71.8 107.1Q71.8 106.8 71.6 106.7Q71.4 106.5 71.1 106.5L71.1 106.5Q70.8 106.5 70.5 106.7Q70.2 106.9 70.0 107.2Q69.8 107.6 69.7 108.0Q69.6 108.5 69.6 109.0L69.6 109.0Q69.6 109.7 69.8 110.0Q70.0 110.4 70.5 110.4ZM75.3 105.6L75.3 105.6Q75.6 105.6 75.7 105.7Q75.8 105.8 75.8 106.1L75.8 106.1L75.8 106.7Q75.9 106.5 76.0 106.3Q76.2 106.0 76.3 105.9Q76.5 105.8 76.8 105.7Q77.0 105.6 77.3 105.6L77.3 105.6Q77.9 105.6 78.3 105.8Q78.6 106.1 78.8 106.5Q79.1 106.9 79.1 107.3Q79.2 107.8 79.2 108.3L79.2 108.3Q79.2 108.8 79.1 109.3Q79.0 109.9 78.8 110.3Q78.6 110.8 78.2 111.0Q77.8 111.3 77.2 111.3L77.2 111.3Q76.6 111.3 76.3 111.0Q75.9 110.7 75.8 110.3L75.8 110.3L75.8 112.7Q75.8 112.9 75.7 113.0Q75.6 113.1 75.3 113.1L75.3 113.1Q75.1 113.1 75.0 113.0Q74.9 112.9 74.9 112.7L74.9 112.7L74.9 106.1Q74.9 105.8 75.0 105.7Q75.1 105.6 75.3 105.6ZM77.2 106.5L77.2 106.5Q76.9 106.5 76.7 106.6Q76.4 106.7 76.2 106.9Q76.0 107.1 75.9 107.3Q75.8 107.5 75.8 107.8L75.8 107.8L75.8 108.9Q75.8 109.1 75.9 109.4Q76.0 109.6 76.1 109.9Q76.3 110.1 76.5 110.3Q76.8 110.4 77.0 110.4L77.0 110.4Q77.5 110.4 77.7 110.2Q78.0 110.0 78.1 109.7Q78.2 109.5 78.3 109.1Q78.3 108.7 78.3 108.3L78.3 108.3Q78.3 107.9 78.3 107.6Q78.2 107.3 78.1 107.0Q78.0 106.8 77.7 106.6Q77.5 106.5 77.2 106.5ZM83.7 110.3L85.1 110.3Q85.3 110.3 85.4 110.4Q85.5 110.5 85.5 110.8Q85.5 111.0 85.4 111.1Q85.3 111.2 85.1 111.2L85.1 111.2L81.3 111.2Q81.1 111.2 81.0 111.1Q80.8 111.0 80.8 110.8Q80.8 110.5 81.0 110.4Q81.1 110.3 81.3 110.3L81.3 110.3L82.8 110.3L82.8 107.2Q82.8 107 82.7 106.9Q82.6 106.8 82.4 106.8L82.4 106.8L81.5 106.8Q81.3 106.8 81.2 106.7Q81.0 106.5 81.0 106.4Q81.0 106.2 81.2 106.0Q81.3 105.9 81.5 105.9L81.5 105.9L82.9 105.9Q83.3 105.9 83.5 106.1Q83.7 106.3 83.7 106.7L83.7 106.7L83.7 110.3ZM83.2 104.9L83.2 104.9Q82.9 104.9 82.7 104.7Q82.5 104.6 82.5 104.3L82.5 104.3Q82.5 104.0 82.7 103.8Q82.9 103.6 83.2 103.6L83.2 103.6Q83.5 103.6 83.7 103.8Q83.9 104.0 83.9 104.3L83.9 104.3Q83.9 104.6 83.7 104.7Q83.5 104.9 83.2 104.9ZM88.2 110.5L88.2 110.5Q88.2 110.1 88.4 109.9Q88.7 109.6 89 109.6L89 109.6Q89.3 109.6 89.6 109.9Q89.8 110.1 89.8 110.5L89.8 110.5Q89.8 110.8 89.6 111.0Q89.3 111.3 89 111.3L89 111.3Q88.7 111.3 88.4 111.0Q88.2 110.8 88.2 110.5ZM88.2 106.8L88.2 106.8Q88.2 106.4 88.4 106.2Q88.7 105.9 89 105.9L89 105.9Q89.3 105.9 89.6 106.2Q89.8 106.4 89.8 106.8L89.8 106.8Q89.8 107.1 89.6 107.4Q89.3 107.6 89 107.6L89 107.6Q88.7 107.6 88.4 107.4Q88.2 107.1 88.2 106.8Z M99.3 105.6L99.3 105.6Q99.6 105.6 99.7 105.7Q99.8 105.8 99.8 106.1L99.8 106.1L99.8 106.7Q99.9 106.5 100.0 106.3Q100.2 106.0 100.3 105.9Q100.5 105.8 100.8 105.7Q101.0 105.6 101.3 105.6L101.3 105.6Q101.9 105.6 102.3 105.8Q102.6 106.1 102.8 106.5Q103.1 106.9 103.1 107.3Q103.2 107.8 103.2 108.3L103.2 108.3Q103.2 108.8 103.1 109.3Q103.0 109.9 102.8 110.3Q102.6 110.8 102.2 111.0Q101.8 111.3 101.2 111.3L101.2 111.3Q100.6 111.3 100.3 111.0Q99.9 110.7 99.8 110.3L99.8 110.3L99.8 112.7Q99.8 112.9 99.7 113.0Q99.6 113.1 99.3 113.1L99.3 113.1Q99.1 113.1 99.0 113.0Q98.9 112.9 98.9 112.7L98.9 112.7L98.9 106.1Q98.9 105.8 99.0 105.7Q99.1 105.6 99.3 105.6ZM101.2 106.5L101.2 106.5Q100.9 106.5 100.7 106.6Q100.4 106.7 100.2 106.9Q100.0 107.1 99.9 107.3Q99.8 107.5 99.8 107.8L99.8 107.8L99.8 108.9Q99.8 109.1 99.9 109.4Q100.0 109.6 100.1 109.9Q100.3 110.1 100.5 110.3Q100.8 110.4 101.0 110.4L101.0 110.4Q101.5 110.4 101.7 110.2Q102.0 110.0 102.1 109.7Q102.2 109.5 102.3 109.1Q102.3 108.7 102.3 108.3L102.3 108.3Q102.3 107.9 102.3 107.6Q102.2 107.3 102.1 107.0Q102.0 106.8 101.7 106.6Q101.5 106.5 101.2 106.5ZM108.2 108.9L108.2 106.0Q108.2 105.8 108.3 105.7Q108.4 105.6 108.6 105.6L108.6 105.6Q108.8 105.6 108.9 105.7Q109.0 105.8 109.0 106.0L109.0 106.0L109.0 110.9Q109.0 111.1 108.9 111.2Q108.8 111.3 108.6 111.3L108.6 111.3Q108.4 111.3 108.3 111.2Q108.2 111.1 108.2 110.9L108.2 110.9L108.2 110.3Q108.0 110.7 107.7 111.0Q107.3 111.3 106.8 111.3L106.8 111.3Q106.4 111.3 106.0 111.2Q105.7 111.0 105.5 110.8Q105.2 110.5 105.1 110.2Q105.0 109.8 105.0 109.4L105.0 109.4L105.0 106.0Q105.0 105.8 105.1 105.7Q105.2 105.6 105.4 105.6L105.4 105.6Q105.6 105.6 105.7 105.7Q105.8 105.8 105.8 106.0L105.8 106.0L105.8 109.1Q105.8 109.4 105.9 109.6Q106.0 109.9 106.1 110.0Q106.3 110.2 106.5 110.3Q106.7 110.5 106.9 110.5L106.9 110.5Q107.2 110.5 107.4 110.3Q107.7 110.1 107.8 109.9Q108.0 109.7 108.1 109.4Q108.2 109.1 108.2 108.9L108.2 108.9ZM113.0 111.3L113.0 111.3Q112.7 111.3 112.4 111.3Q112.2 111.2 111.9 111.1Q111.7 111.0 111.4 110.9Q111.2 110.7 111.0 110.5L111.0 110.5Q110.9 110.4 110.9 110.2Q110.8 110.1 110.8 110.0L110.8 110.0Q110.8 109.7 110.9 109.7Q111.0 109.6 111.2 109.6L111.2 109.6Q111.3 109.6 111.4 109.6Q111.5 109.7 111.6 109.8L111.6 109.8Q111.9 110.0 112.2 110.2Q112.5 110.4 113 110.4L113 110.4Q113.2 110.4 113.4 110.4Q113.6 110.4 113.8 110.3Q114.0 110.2 114.2 110.1Q114.3 109.9 114.3 109.7L114.3 109.7Q114.3 109.5 114.2 109.3Q114.0 109.2 113.8 109.1Q113.6 109.0 113.4 108.9Q113.2 108.8 113 108.8L113 108.8Q112.7 108.7 112.3 108.6Q112.0 108.5 111.7 108.4Q111.4 108.2 111.2 107.9Q111.0 107.6 111.0 107.1L111.0 107.1Q111.0 106.7 111.2 106.4Q111.3 106.1 111.6 106.0Q111.9 105.8 112.2 105.7Q112.6 105.6 113 105.6L113 105.6Q113.7 105.6 114.2 105.8Q114.7 106.0 115.0 106.5L115.0 106.5Q115.0 106.6 115.1 106.7Q115.1 106.7 115.1 106.8L115.1 106.8Q115.1 107.0 115.0 107.1Q114.9 107.2 114.7 107.2L114.7 107.2Q114.6 107.2 114.5 107.2Q114.4 107.1 114.3 107.0L114.3 107.0Q114.0 106.8 113.7 106.6Q113.5 106.5 113 106.5L113 106.5Q112.8 106.5 112.6 106.5Q112.4 106.6 112.2 106.7Q112.1 106.7 112.0 106.8Q111.9 107.0 111.9 107.1L111.9 107.1Q111.9 107.3 112.0 107.5Q112.1 107.6 112.3 107.7Q112.5 107.8 112.7 107.8Q112.8 107.9 113 107.9L113 107.9Q113.4 108.0 113.8 108.1Q114.2 108.2 114.5 108.4Q114.8 108.6 115 108.9Q115.2 109.2 115.2 109.7L115.2 109.7Q115.2 110.2 115.0 110.5Q114.8 110.8 114.5 110.9Q114.2 111.1 113.8 111.2Q113.5 111.3 113.0 111.3ZM117.8 108.0L117.8 110.9Q117.8 111.1 117.7 111.2Q117.6 111.3 117.4 111.3L117.4 111.3Q117.2 111.3 117.1 111.2Q117.0 111.1 117.0 110.9L117.0 110.9L117.0 104.3Q117.0 104.0 117.1 103.9Q117.2 103.8 117.4 103.8L117.4 103.8Q117.6 103.8 117.7 103.9Q117.8 104.0 117.8 104.3L117.8 104.3L117.8 106.6Q118.0 106.2 118.3 105.9Q118.7 105.6 119.2 105.6L119.2 105.6Q119.6 105.6 120.0 105.7Q120.3 105.9 120.5 106.1Q120.8 106.4 120.9 106.7Q121.0 107.1 121.0 107.5L121.0 107.5L121.0 110.9Q121.0 111.1 120.9 111.2Q120.8 111.3 120.6 111.3L120.6 111.3Q120.4 111.3 120.3 111.2Q120.2 111.1 120.2 110.9L120.2 110.9L120.2 107.8Q120.2 107.5 120.1 107.3Q120.0 107.0 119.9 106.9Q119.7 106.7 119.5 106.6Q119.3 106.5 119.1 106.5L119.1 106.5Q118.8 106.5 118.6 106.6Q118.3 106.8 118.2 107.0Q118.0 107.2 117.9 107.5Q117.8 107.8 117.8 108.0L117.8 108.0ZM126.9 111.2L123.4 111.2Q123.1 111.2 122.9 111.1Q122.8 110.9 122.8 110.6L122.8 110.6Q122.8 110.5 122.8 110.3Q122.9 110.2 123.0 110.1L123.0 110.1L125.2 107.8Q125.3 107.6 125.5 107.4Q125.7 107.2 125.9 106.9Q126.1 106.7 126.2 106.4Q126.3 106.2 126.3 105.9L126.3 105.9Q126.3 105.6 126.2 105.4Q126.1 105.1 125.9 105.0Q125.7 104.8 125.4 104.8Q125.2 104.7 124.9 104.7L124.9 104.7Q124.5 104.7 124.2 104.8Q123.9 104.9 123.7 105.0L123.7 105.0Q123.5 105.2 123.3 105.1Q123.1 105 123.0 104.8L123.0 104.8Q122.9 104.7 123.0 104.5Q123.0 104.3 123.2 104.2L123.2 104.2Q123.5 104.0 123.9 103.9Q124.3 103.8 124.9 103.8L124.9 103.8Q125.4 103.8 125.8 103.9Q126.2 104.0 126.5 104.2Q126.8 104.5 127.0 104.8Q127.2 105.2 127.2 105.8L127.2 105.8Q127.2 106.1 127.1 106.5Q127.0 106.8 126.8 107.1Q126.7 107.4 126.4 107.7Q126.2 108.0 126.0 108.2L126.0 108.2L124.2 110.1Q124.1 110.2 124.2 110.2Q124.2 110.3 124.3 110.3L124.3 110.3L126.9 110.3Q127.2 110.3 127.3 110.4Q127.4 110.5 127.4 110.8L127.4 110.8Q127.4 111.0 127.3 111.1Q127.2 111.2 126.9 111.2L126.9 111.2Z " clip-path="url(#satori_cp-id-1-3-1)" mask="url(#satori_om-id-1-3-1)"/><mask id="satori_om-id-2"><rect x="17" y="232" width="160" height="11" fill="#fff"/></mask><path fill="#656D76" d="M17.7 238.5L17.7 234.7Q17.7 234.5 17.8 234.4Q17.9 234.3 18.1 234.3L18.1 234.3Q18.3 234.3 18.4 234.4Q18.4 234.5 18.4 234.7L18.4 234.7L18.4 238.5Q18.4 238.7 18.5 238.9Q18.6 239.1 18.7 239.2Q18.8 239.4 19.0 239.4Q19.2 239.5 19.4 239.5L19.4 239.5Q19.6 239.5 19.8 239.4Q20.0 239.4 20.1 239.2Q20.2 239.1 20.3 238.9Q20.4 238.7 20.4 238.5L20.4 238.5L20.4 234.7Q20.4 234.5 20.4 234.4Q20.5 234.3 20.7 234.3L20.7 234.3Q20.9 234.3 21.0 234.4Q21.1 234.5 21.1 234.7L21.1 234.7L21.1 238.5Q21.1 238.9 21.0 239.2Q20.9 239.5 20.6 239.8Q20.4 240.0 20.1 240.1Q19.8 240.2 19.4 240.2L19.4 240.2Q19.0 240.2 18.7 240.1Q18.4 240.0 18.2 239.8Q17.9 239.5 17.8 239.2Q17.7 238.9 17.7 238.5L17.7 238.5ZM22.9 235.7L22.9 235.7Q23.1 235.7 23.2 235.8Q23.2 235.9 23.2 236.0L23.2 236.0L23.2 236.6Q23.3 236.4 23.4 236.2Q23.5 236.0 23.7 235.9Q23.8 235.8 24 235.7Q24.2 235.7 24.4 235.7L24.4 235.7Q24.9 235.7 25.2 235.9Q25.5 236.1 25.7 236.4Q25.8 236.7 25.9 237.1Q26.0 237.4 26.0 237.8L26.0 237.8Q26.0 238.2 25.9 238.7Q25.8 239.1 25.7 239.5Q25.5 239.8 25.2 240.0Q24.8 240.2 24.3 240.2L24.3 240.2Q23.9 240.2 23.6 240.0Q23.3 239.8 23.2 239.4L23.2 239.4L23.2 241.3Q23.2 241.5 23.2 241.6Q23.1 241.7 22.9 241.7L22.9 241.7Q22.7 241.7 22.6 241.6Q22.5 241.5 22.5 241.3L22.5 241.3L22.5 236.0Q22.5 235.9 22.6 235.8Q22.7 235.7 22.9 235.7ZM24.3 236.4L24.3 236.4Q24.1 236.4 23.9 236.5Q23.7 236.6 23.6 236.7Q23.4 236.9 23.3 237.0Q23.2 237.2 23.2 237.4L23.2 237.4L23.2 238.3Q23.2 238.5 23.3 238.7Q23.4 238.9 23.5 239.1Q23.6 239.3 23.8 239.4Q24 239.5 24.2 239.5L24.2 239.5Q24.6 239.5 24.8 239.4Q25.0 239.2 25.1 239.0Q25.2 238.8 25.2 238.5Q25.2 238.2 25.2 237.9L25.2 237.9Q25.2 237.5 25.2 237.3Q25.2 237.0 25.1 236.8Q25.0 236.6 24.8 236.5Q24.6 236.4 24.3 236.4ZM30.3 240.2L30.3 240.2Q30.1 240.2 30.0 240.1Q30.0 240.1 30.0 239.9L30.0 239.9L30.0 239.4Q29.9 239.6 29.8 239.7Q29.7 239.9 29.5 240.0Q29.4 240.1 29.2 240.2Q29.0 240.2 28.8 240.2L28.8 240.2Q28.3 240.2 28.0 240.0Q27.7 239.9 27.5 239.5Q27.4 239.2 27.3 238.9Q27.2 238.5 27.2 238.1L27.2 238.1Q27.2 237.7 27.3 237.2Q27.4 236.8 27.5 236.5Q27.7 236.1 28.0 235.9Q28.4 235.7 28.9 235.7L28.9 235.7Q29.3 235.7 29.6 235.9Q29.9 236.2 30.0 236.5L30.0 236.5L30.0 234.6Q30.0 234.4 30.0 234.3Q30.1 234.2 30.3 234.2L30.3 234.2Q30.5 234.2 30.6 234.3Q30.7 234.4 30.7 234.6L30.7 234.6L30.7 239.9Q30.7 240.1 30.6 240.1Q30.5 240.2 30.3 240.2ZM28.9 239.5L28.9 239.5Q29.1 239.5 29.3 239.4Q29.5 239.3 29.6 239.2Q29.8 239.1 29.9 238.9Q30.0 238.7 30.0 238.5L30.0 238.5L30.0 237.6Q30.0 237.4 29.9 237.2Q29.8 237.0 29.7 236.8Q29.6 236.6 29.4 236.5Q29.2 236.4 29.0 236.4L29.0 236.4Q28.6 236.4 28.4 236.5Q28.2 236.7 28.1 236.9Q28.0 237.2 28.0 237.5Q28.0 237.8 28.0 238.1L28.0 238.1Q28.0 238.4 28 238.6Q28.0 238.9 28.1 239.1Q28.2 239.3 28.4 239.4Q28.6 239.5 28.9 239.5ZM33.3 240.2L33.3 240.2Q33.0 240.2 32.8 240.1Q32.5 240.0 32.4 239.8Q32.2 239.6 32.1 239.3Q32.0 238.9 32.0 238.4L32.0 238.4Q32.0 237.8 32.1 237.3Q32.2 236.8 32.4 236.5Q32.6 236.1 33.0 235.9Q33.3 235.7 33.8 235.7L33.8 235.7Q34.2 235.7 34.4 235.9L34.4 235.9Q34.6 236.0 34.7 236.3L34.7 236.3Q34.7 236.1 34.7 236.0L34.7 236.0Q34.7 235.8 34.8 235.8Q35.0 235.7 35.1 235.7L35.1 235.7Q35.3 235.7 35.4 235.8Q35.5 235.8 35.4 236.0L35.4 236.0Q35.4 236.5 35.3 237.0Q35.3 237.4 35.3 237.9Q35.3 238.4 35.4 238.9Q35.4 239.3 35.6 239.9L35.6 239.9Q35.6 240.1 35.5 240.2Q35.5 240.2 35.3 240.2Q35.1 240.2 35.0 240.2Q34.9 240.1 34.8 239.9L34.8 239.9Q34.7 239.5 34.7 239.1L34.7 239.1Q34.6 239.3 34.6 239.4L34.6 239.4Q34.4 239.8 34.1 240.0Q33.8 240.2 33.3 240.2ZM33.4 239.5L33.4 239.5Q33.7 239.5 33.9 239.4Q34.1 239.3 34.2 239.0Q34.4 238.8 34.5 238.4Q34.6 238.1 34.6 237.7L34.6 237.7Q34.6 237.5 34.5 237.3Q34.5 237.0 34.5 236.9Q34.4 236.7 34.3 236.5Q34.1 236.4 33.9 236.4L33.9 236.4Q33.6 236.4 33.4 236.6Q33.2 236.7 33.0 237.0Q32.9 237.3 32.8 237.6Q32.7 238.0 32.7 238.4L32.7 238.4Q32.7 239.0 32.9 239.2Q33.0 239.5 33.4 239.5ZM38.6 235.9L40.0 235.9Q40.2 235.9 40.3 236.0Q40.4 236.1 40.4 236.3Q40.4 236.4 40.3 236.5Q40.2 236.6 40.0 236.6L40.0 236.6L38.6 236.6L38.6 238.4Q38.6 238.9 38.7 239.2Q38.9 239.5 39.2 239.5L39.2 239.5Q39.4 239.5 39.6 239.5Q39.7 239.5 39.9 239.4L39.9 239.4Q40.0 239.3 40.2 239.3Q40.3 239.4 40.4 239.5L40.4 239.5Q40.5 239.7 40.4 239.8Q40.4 240.0 40.3 240.0L40.3 240.0Q40.0 240.2 39.7 240.2Q39.5 240.2 39.1 240.2L39.1 240.2Q38.8 240.2 38.6 240.1Q38.4 240.0 38.2 239.8Q38.0 239.6 37.9 239.3Q37.8 239.0 37.8 238.5L37.8 238.5L37.8 236.6L36.9 236.6Q36.7 236.6 36.7 236.5Q36.6 236.4 36.6 236.3Q36.6 236.1 36.7 236.0Q36.7 235.9 36.9 235.9L36.9 235.9L37.8 235.9L37.8 234.9Q37.8 234.7 37.9 234.6Q38.0 234.5 38.2 234.5Q38.4 234.5 38.5 234.6Q38.6 234.7 38.6 234.9L38.6 234.9L38.6 235.9ZM44.7 239.1L44.7 239.1Q44.8 239.1 44.9 239.2Q45.0 239.3 45.0 239.5L45.0 239.5Q45.0 239.5 45.0 239.6Q45.0 239.7 44.9 239.8L44.9 239.8Q44.7 239.9 44.6 240.0Q44.4 240.1 44.3 240.1Q44.1 240.2 43.9 240.2Q43.8 240.2 43.6 240.2L43.6 240.2Q43.1 240.2 42.7 240.1Q42.4 239.9 42.1 239.6Q41.9 239.3 41.7 238.9Q41.6 238.5 41.6 238.0L41.6 238.0Q41.6 237.5 41.7 237.1Q41.8 236.7 42.0 236.4Q42.2 236.1 42.6 235.9Q42.9 235.7 43.4 235.7L43.4 235.7Q43.9 235.7 44.2 235.8Q44.6 236.0 44.8 236.3Q45.0 236.6 45.0 237.0Q45.1 237.4 45.1 237.9L45.1 237.9Q45.1 238.0 45.0 238.1Q44.9 238.2 44.7 238.2L44.7 238.2L42.3 238.2Q42.4 238.6 42.5 238.8Q42.6 239.0 42.7 239.2Q42.9 239.4 43.1 239.4Q43.3 239.5 43.6 239.5L43.6 239.5Q43.9 239.5 44.1 239.4Q44.3 239.3 44.5 239.2L44.5 239.2Q44.5 239.1 44.6 239.1Q44.6 239.1 44.7 239.1ZM42.3 237.6L44.3 237.6Q44.3 237.6 44.4 237.6Q44.4 237.5 44.4 237.3L44.4 237.3Q44.4 237.2 44.3 237Q44.3 236.8 44.1 236.7Q44.0 236.6 43.8 236.5Q43.7 236.4 43.4 236.4L43.4 236.4Q43.2 236.4 43.0 236.5Q42.8 236.6 42.7 236.7Q42.5 236.9 42.4 237.1Q42.4 237.3 42.3 237.6L42.3 237.6ZM49.5 240.2L49.5 240.2Q49.3 240.2 49.2 240.1Q49.2 240.1 49.2 239.9L49.2 239.9L49.2 239.4Q49.1 239.6 49.0 239.7Q48.9 239.9 48.7 240.0Q48.6 240.1 48.4 240.2Q48.2 240.2 48.0 240.2L48.0 240.2Q47.5 240.2 47.2 240.0Q46.9 239.9 46.7 239.5Q46.6 239.2 46.5 238.9Q46.4 238.5 46.4 238.1L46.4 238.1Q46.4 237.7 46.5 237.2Q46.6 236.8 46.7 236.5Q46.9 236.1 47.2 235.9Q47.6 235.7 48.1 235.7L48.1 235.7Q48.5 235.7 48.8 235.9Q49.1 236.2 49.2 236.5L49.2 236.5L49.2 234.6Q49.2 234.4 49.2 234.3Q49.3 234.2 49.5 234.2L49.5 234.2Q49.7 234.2 49.8 234.3Q49.9 234.4 49.9 234.6L49.9 234.6L49.9 239.9Q49.9 240.1 49.8 240.1Q49.7 240.2 49.5 240.2ZM48.1 239.5L48.1 239.5Q48.3 239.5 48.5 239.4Q48.7 239.3 48.8 239.2Q49.0 239.1 49.1 238.9Q49.2 238.7 49.2 238.5L49.2 238.5L49.2 237.6Q49.2 237.4 49.1 237.2Q49.0 237.0 48.9 236.8Q48.8 236.6 48.6 236.5Q48.4 236.4 48.2 236.4L48.2 236.4Q47.8 236.4 47.6 236.5Q47.4 236.7 47.3 236.9Q47.2 237.2 47.2 237.5Q47.2 237.8 47.2 238.1L47.2 238.1Q47.2 238.4 47.2 238.6Q47.2 238.9 47.3 239.1Q47.4 239.3 47.6 239.4Q47.8 239.5 48.1 239.5ZM52.3 239.6L52.3 239.6Q52.3 239.3 52.5 239.1Q52.7 238.9 53.0 238.9L53.0 238.9Q53.3 238.9 53.5 239.1Q53.7 239.3 53.7 239.6L53.7 239.6Q53.7 239.8 53.5 240.0Q53.3 240.2 53.0 240.2L53.0 240.2Q52.7 240.2 52.5 240.0Q52.3 239.8 52.3 239.6ZM52.3 236.6L52.3 236.6Q52.3 236.3 52.5 236.1Q52.7 235.9 53.0 235.9L53.0 235.9Q53.3 235.9 53.5 236.1Q53.7 236.3 53.7 236.6L53.7 236.6Q53.7 236.9 53.5 237.1Q53.3 237.3 53.0 237.3L53.0 237.3Q52.7 237.3 52.5 237.1Q52.3 236.9 52.3 236.6Z M64.1 240.2L61.3 240.2Q61.1 240.2 60.9 240.0Q60.8 239.9 60.8 239.7L60.8 239.7Q60.8 239.6 60.8 239.5Q60.9 239.4 61.0 239.3L61.0 239.3L62.8 237.4Q62.9 237.3 63.0 237.1Q63.2 236.9 63.3 236.8Q63.4 236.6 63.5 236.4Q63.6 236.2 63.6 236.0L63.6 236.0Q63.6 235.7 63.5 235.5Q63.4 235.3 63.3 235.2Q63.1 235.1 62.9 235.0Q62.7 235.0 62.5 235.0L62.5 235.0Q62.2 235.0 61.9 235.0Q61.7 235.1 61.5 235.2L61.5 235.2Q61.4 235.3 61.2 235.3Q61.1 235.2 61.0 235.1L61.0 235.1Q61.0 234.9 61.0 234.8Q61.0 234.7 61.2 234.6L61.2 234.6Q61.4 234.4 61.7 234.3Q62.1 234.2 62.5 234.2L62.5 234.2Q62.9 234.2 63.2 234.3Q63.6 234.4 63.8 234.6Q64.0 234.8 64.2 235.1Q64.3 235.4 64.3 235.9L64.3 235.9Q64.3 236.1 64.3 236.4Q64.2 236.6 64.1 236.9Q63.9 237.1 63.7 237.3Q63.6 237.6 63.4 237.8L63.4 237.8L61.9 239.3Q61.9 239.3 61.9 239.4Q61.9 239.4 62.1 239.4L62.1 239.4L64.1 239.4Q64.3 239.4 64.4 239.5Q64.5 239.6 64.5 239.8L64.5 239.8Q64.5 240.0 64.4 240.1Q64.3 240.2 64.1 240.2L64.1 240.2ZM67.4 240.2L67.4 240.2Q66.8 240.2 66.4 239.9Q66.1 239.7 65.9 239.2Q65.6 238.8 65.6 238.2Q65.5 237.7 65.5 237.2Q65.5 236.8 65.6 236.2Q65.6 235.7 65.9 235.3Q66.1 234.8 66.4 234.5Q66.8 234.2 67.4 234.2L67.4 234.2Q68.0 234.2 68.4 234.5Q68.8 234.8 69.0 235.3Q69.2 235.7 69.2 236.2Q69.3 236.7 69.3 237.2L69.3 237.2Q69.3 237.7 69.2 238.2Q69.2 238.8 68.9 239.2Q68.7 239.7 68.4 239.9Q68 240.2 67.4 240.2ZM67.4 239.5L67.4 239.5Q67.8 239.5 68.0 239.3Q68.2 239.0 68.4 238.7Q68.5 238.3 68.5 237.9Q68.6 237.5 68.6 237.2L68.6 237.2Q68.6 237.0 68.6 236.8L68.6 236.8L66.4 238.6Q66.4 238.6 66.4 238.7L66.4 238.7Q66.6 239.0 66.8 239.3Q67.0 239.5 67.4 239.5ZM66.2 237.7L68.4 235.8Q68.4 235.8 68.4 235.8L68.4 235.8Q68.2 235.5 68.0 235.2Q67.8 235.0 67.4 235.0Q67.0 235.0 66.8 235.2Q66.6 235.5 66.4 235.8Q66.3 236.2 66.3 236.6Q66.2 237.0 66.2 237.2L66.2 237.2Q66.2 237.4 66.2 237.7L66.2 237.7ZM73.7 240.2L70.9 240.2Q70.7 240.2 70.5 240.0Q70.4 239.9 70.4 239.7L70.4 239.7Q70.4 239.6 70.4 239.5Q70.5 239.4 70.6 239.3L70.6 239.3L72.4 237.4Q72.5 237.3 72.6 237.1Q72.8 236.9 72.9 236.8Q73.0 236.6 73.1 236.4Q73.2 236.2 73.2 236.0L73.2 236.0Q73.2 235.7 73.1 235.5Q73.0 235.3 72.9 235.2Q72.7 235.1 72.5 235.0Q72.3 235.0 72.1 235.0L72.1 235.0Q71.8 235.0 71.5 235.0Q71.3 235.1 71.1 235.2L71.1 235.2Q71.0 235.3 70.8 235.3Q70.7 235.2 70.6 235.1L70.6 235.1Q70.6 234.9 70.6 234.8Q70.6 234.7 70.8 234.6L70.8 234.6Q71.0 234.4 71.3 234.3Q71.7 234.2 72.1 234.2L72.1 234.2Q72.5 234.2 72.8 234.3Q73.2 234.4 73.4 234.6Q73.6 234.8 73.8 235.1Q73.9 235.4 73.9 235.9L73.9 235.9Q73.9 236.1 73.9 236.4Q73.8 236.6 73.7 236.9Q73.5 237.1 73.3 237.3Q73.2 237.6 73.0 237.8L73.0 237.8L71.5 239.3Q71.5 239.3 71.5 239.4Q71.5 239.4 71.7 239.4L71.7 239.4L73.7 239.4Q73.9 239.4 74.0 239.5Q74.1 239.6 74.1 239.8L74.1 239.8Q74.1 240.0 74.0 240.1Q73.9 240.2 73.7 240.2L73.7 240.2ZM77.0 234.5L77.0 234.5Q77.1 234.4 77.2 234.3Q77.4 234.2 77.5 234.2L77.5 234.2Q77.7 234.2 77.7 234.3Q77.8 234.3 77.8 234.4Q77.8 234.5 77.8 234.6Q77.8 234.6 77.7 234.7L77.7 234.7Q77 235.2 76.5 235.9Q76.1 236.5 75.9 237.2L75.9 237.2Q76 237.0 76.1 236.9Q76.3 236.8 76.5 236.7Q76.6 236.6 76.9 236.5Q77.1 236.5 77.3 236.5L77.3 236.5Q77.7 236.5 78.0 236.6Q78.3 236.7 78.5 237.0Q78.7 237.2 78.8 237.6Q78.9 237.9 78.9 238.4L78.9 238.4Q78.9 238.8 78.7 239.2Q78.6 239.5 78.4 239.8Q78.1 240 77.8 240.1Q77.4 240.2 77.0 240.2L77.0 240.2Q76.6 240.2 76.2 240.1Q75.9 240 75.6 239.8Q75.4 239.5 75.3 239.2Q75.1 238.8 75.1 238.4L75.1 238.4Q75.1 237.9 75.2 237.5Q75.2 237.1 75.3 236.7L75.3 236.7Q75.6 236.1 76.0 235.5Q76.4 234.9 77.0 234.5ZM77 239.5L77 239.5Q77.5 239.5 77.8 239.2Q78.2 238.9 78.2 238.4L78.2 238.4Q78.2 237.8 77.9 237.4Q77.6 237.1 77 237.1L77 237.1Q76.7 237.1 76.5 237.2Q76.3 237.3 76.2 237.5Q76 237.7 75.9 237.9Q75.8 238.1 75.8 238.4L75.8 238.4Q75.8 238.9 76.2 239.2Q76.5 239.5 77 239.5ZM83.2 237.9L80.4 237.9Q80.2 237.9 80.1 237.8Q80.0 237.7 80.0 237.5L80.0 237.5Q80.0 237.3 80.1 237.2Q80.2 237.2 80.4 237.2L80.4 237.2L83.2 237.2Q83.4 237.2 83.5 237.2Q83.6 237.3 83.6 237.5L83.6 237.5Q83.6 237.7 83.5 237.8Q83.4 237.9 83.2 237.9L83.2 237.9ZM86.6 240.2L86.6 240.2Q86.0 240.2 85.6 239.9Q85.3 239.7 85.1 239.2Q84.8 238.8 84.8 238.2Q84.7 237.7 84.7 237.2Q84.7 236.8 84.8 236.2Q84.8 235.7 85.1 235.3Q85.3 234.8 85.6 234.5Q86.0 234.2 86.6 234.2L86.6 234.2Q87.2 234.2 87.6 234.5Q88.0 234.8 88.2 235.3Q88.4 235.7 88.4 236.2Q88.5 236.7 88.5 237.2L88.5 237.2Q88.5 237.7 88.4 238.2Q88.4 238.8 88.1 239.2Q87.9 239.7 87.6 239.9Q87.2 240.2 86.6 240.2ZM86.6 239.5L86.6 239.5Q87.0 239.5 87.2 239.3Q87.4 239.0 87.6 238.7Q87.7 238.3 87.7 237.9Q87.8 237.5 87.8 237.2L87.8 237.2Q87.8 237.0 87.8 236.8L87.8 236.8L85.6 238.6Q85.6 238.6 85.6 238.7L85.6 238.7Q85.8 239.0 86.0 239.3Q86.2 239.5 86.6 239.5ZM85.4 237.7L87.6 235.8Q87.6 235.8 87.6 235.8L87.6 235.8Q87.4 235.5 87.2 235.2Q87.0 235.0 86.6 235.0Q86.2 235.0 86.0 235.2Q85.8 235.5 85.6 235.8Q85.5 236.2 85.5 236.6Q85.4 237.0 85.4 237.2L85.4 237.2Q85.4 237.4 85.4 237.7L85.4 237.7ZM89.8 240.0L89.8 240.0Q89.6 239.9 89.6 239.8Q89.5 239.6 89.6 239.5L89.6 239.5Q89.7 239.3 89.8 239.3Q89.9 239.2 90.2 239.3L90.2 239.3Q90.4 239.4 90.6 239.5Q90.9 239.5 91.2 239.5L91.2 239.5Q91.8 239.5 92.1 239.2Q92.4 238.9 92.4 238.4L92.4 238.4Q92.4 238.0 92.3 237.9Q92.1 237.7 91.8 237.6Q91.5 237.5 91.2 237.5Q90.9 237.4 90.6 237.5L90.6 237.5Q90.6 237.5 90.5 237.5Q90.4 237.4 90.4 237.4Q90.3 237.3 90.3 237.3Q90.3 237.2 90.3 237.1L90.3 237.1Q90.3 236.9 90.4 236.8Q90.5 236.7 90.7 236.7L90.7 236.7Q90.9 236.7 91.2 236.7Q91.4 236.7 91.7 236.5Q91.9 236.4 92.0 236.2Q92.2 236.1 92.2 235.8L92.2 235.8Q92.2 235.5 92.1 235.4Q92.0 235.2 91.8 235.1Q91.6 235.0 91.4 235.0Q91.2 235.0 91.0 235.0L91.0 235.0Q90.8 235.0 90.6 235.0Q90.4 235.0 90.2 235.2L90.2 235.2Q90.1 235.2 90.0 235.2Q89.8 235.1 89.8 235.0L89.8 235.0Q89.7 234.9 89.7 234.7Q89.8 234.6 89.9 234.5L89.9 234.5Q90.1 234.4 90.4 234.3Q90.7 234.2 91.0 234.2L91.0 234.2Q91.4 234.2 91.7 234.3Q92.1 234.4 92.3 234.6Q92.6 234.7 92.7 235.0Q92.9 235.3 92.9 235.7L92.9 235.7Q92.9 235.9 92.8 236.1Q92.8 236.4 92.7 236.5Q92.6 236.7 92.4 236.8Q92.2 237.0 92.0 237.0L92.0 237.0Q92.3 237.0 92.5 237.2Q92.8 237.3 92.9 237.5Q93.0 237.7 93.1 238.0Q93.2 238.2 93.2 238.5L93.2 238.5Q93.2 238.9 93.0 239.2Q92.9 239.5 92.6 239.8Q92.4 240.0 92.0 240.1Q91.7 240.2 91.2 240.2L91.2 240.2Q90.8 240.2 90.5 240.2Q90.1 240.1 89.8 240.0ZM97.6 237.9L94.8 237.9Q94.6 237.9 94.5 237.8Q94.4 237.7 94.4 237.5L94.4 237.5Q94.4 237.3 94.5 237.2Q94.6 237.2 94.8 237.2L94.8 237.2L97.6 237.2Q97.8 237.2 97.9 237.2Q98.0 237.3 98.0 237.5L98.0 237.5Q98.0 237.7 97.9 237.8Q97.8 237.9 97.6 237.9L97.6 237.9ZM101.0 240.2L101.0 240.2Q100.4 240.2 100.0 239.9Q99.7 239.7 99.5 239.2Q99.2 238.8 99.2 238.2Q99.1 237.7 99.1 237.2Q99.1 236.8 99.2 236.2Q99.2 235.7 99.5 235.3Q99.7 234.8 100.0 234.5Q100.4 234.2 101.0 234.2L101.0 234.2Q101.6 234.2 102.0 234.5Q102.4 234.8 102.6 235.3Q102.8 235.7 102.8 236.2Q102.9 236.7 102.9 237.2L102.9 237.2Q102.9 237.7 102.8 238.2Q102.8 238.8 102.5 239.2Q102.3 239.7 102.0 239.9Q101.6 240.2 101.0 240.2ZM101.0 239.5L101.0 239.5Q101.4 239.5 101.6 239.3Q101.8 239.0 102.0 238.7Q102.1 238.3 102.1 237.9Q102.2 237.5 102.2 237.2L102.2 237.2Q102.2 237.0 102.2 236.8L102.2 236.8L100.0 238.6Q100.0 238.6 100.0 238.7L100.0 238.7Q100.2 239.0 100.4 239.3Q100.6 239.5 101.0 239.5ZM99.8 237.7L102.0 235.8Q102.0 235.8 102.0 235.8L102.0 235.8Q101.8 235.5 101.6 235.2Q101.4 235.0 101.0 235.0Q100.6 235.0 100.4 235.2Q100.2 235.5 100.0 235.8Q99.9 236.2 99.9 236.6Q99.8 237.0 99.8 237.2L99.8 237.2Q99.8 237.4 99.8 237.7L99.8 237.7ZM107.3 240.2L104.5 240.2Q104.3 240.2 104.1 240.0Q104.0 239.9 104.0 239.7L104.0 239.7Q104.0 239.6 104.0 239.5Q104.1 239.4 104.2 239.3L104.2 239.3L106.0 237.4Q106.1 237.3 106.2 237.1Q106.4 236.9 106.5 236.8Q106.6 236.6 106.7 236.4Q106.8 236.2 106.8 236.0L106.8 236.0Q106.8 235.7 106.7 235.5Q106.6 235.3 106.5 235.2Q106.3 235.1 106.1 235.0Q105.9 235.0 105.7 235.0L105.7 235.0Q105.4 235.0 105.1 235.0Q104.9 235.1 104.7 235.2L104.7 235.2Q104.6 235.3 104.4 235.3Q104.3 235.2 104.2 235.1L104.2 235.1Q104.2 234.9 104.2 234.8Q104.2 234.7 104.4 234.6L104.4 234.6Q104.6 234.4 104.9 234.3Q105.3 234.2 105.7 234.2L105.7 234.2Q106.1 234.2 106.4 234.3Q106.8 234.4 107.0 234.6Q107.2 234.8 107.4 235.1Q107.5 235.4 107.5 235.9L107.5 235.9Q107.5 236.1 107.5 236.4Q107.4 236.6 107.3 236.9Q107.1 237.1 106.9 237.3Q106.8 237.6 106.6 237.8L106.6 237.8L105.1 239.3Q105.1 239.3 105.1 239.4Q105.1 239.4 105.3 239.4L105.3 239.4L107.3 239.4Q107.5 239.4 107.6 239.5Q107.7 239.6 107.7 239.8L107.7 239.8Q107.7 240.0 107.6 240.1Q107.5 240.2 107.3 240.2L107.3 240.2Z M117.0 240.2L114.0 240.2Q113.8 240.2 113.7 240.1Q113.6 240.0 113.6 239.8Q113.6 239.6 113.7 239.5Q113.8 239.4 114.0 239.4L114.0 239.4L115.3 239.4L115.3 235.3Q115.3 235.2 115.3 235.1Q115.3 235.1 115.2 235.1L115.2 235.1Q115.2 235.1 115.1 235.1Q115.1 235.1 115.1 235.1L115.1 235.1L114.3 235.8Q114.2 235.9 114.1 235.9Q114.0 235.9 113.9 235.9L113.9 235.9Q113.8 235.9 113.8 235.9Q113.7 235.8 113.7 235.6L113.7 235.6Q113.7 235.4 113.8 235.3Q113.8 235.2 113.9 235.1L113.9 235.1L114.8 234.4Q114.9 234.3 115.1 234.3Q115.2 234.2 115.4 234.2L115.4 234.2Q115.7 234.2 115.9 234.4Q116.0 234.6 116.0 234.9L116.0 234.9L116.0 239.4L117.0 239.4Q117.2 239.4 117.3 239.5Q117.4 239.6 117.4 239.8Q117.4 240.0 117.3 240.1Q117.2 240.2 117.0 240.2L117.0 240.2ZM121.7 240.2L118.9 240.2Q118.7 240.2 118.5 240.0Q118.4 239.9 118.4 239.7L118.4 239.7Q118.4 239.6 118.4 239.5Q118.5 239.4 118.6 239.3L118.6 239.3L120.4 237.4Q120.5 237.3 120.6 237.1Q120.8 236.9 120.9 236.8Q121.0 236.6 121.1 236.4Q121.2 236.2 121.2 236.0L121.2 236.0Q121.2 235.7 121.1 235.5Q121.0 235.3 120.9 235.2Q120.7 235.1 120.5 235.0Q120.3 235.0 120.1 235.0L120.1 235.0Q119.8 235.0 119.5 235.0Q119.3 235.1 119.1 235.2L119.1 235.2Q119.0 235.3 118.8 235.3Q118.7 235.2 118.6 235.1L118.6 235.1Q118.6 234.9 118.6 234.8Q118.6 234.7 118.8 234.6L118.8 234.6Q119.0 234.4 119.3 234.3Q119.7 234.2 120.1 234.2L120.1 234.2Q120.5 234.2 120.8 234.3Q121.2 234.4 121.4 234.6Q121.6 234.8 121.8 235.1Q121.9 235.4 121.9 235.9L121.9 235.9Q121.9 236.1 121.9 236.4Q121.8 236.6 121.7 236.9Q121.5 237.1 121.3 237.3Q121.2 237.6 121.0 237.8L121.0 237.8L119.5 239.3Q119.5 239.3 119.5 239.4Q119.5 239.4 119.7 239.4L119.7 239.4L121.7 239.4Q121.9 239.4 122.0 239.5Q122.1 239.6 122.1 239.8L122.1 239.8Q122.1 240.0 122.0 240.1Q121.9 240.2 121.7 240.2L121.7 240.2ZM124.3 239.6L124.3 239.6Q124.3 239.3 124.5 239.1Q124.7 238.9 125.0 238.9L125.0 238.9Q125.3 238.9 125.5 239.1Q125.7 239.3 125.7 239.6L125.7 239.6Q125.7 239.8 125.5 240.0Q125.3 240.2 125.0 240.2L125.0 240.2Q124.7 240.2 124.5 240.0Q124.3 239.8 124.3 239.6ZM124.3 236.6L124.3 236.6Q124.3 236.3 124.5 236.1Q124.7 235.9 125.0 235.9L125.0 235.9Q125.3 235.9 125.5 236.1Q125.7 236.3 125.7 236.6L125.7 236.6Q125.7 236.9 125.5 237.1Q125.3 237.3 125.0 237.3L125.0 237.3Q124.7 237.3 124.5 237.1Q124.3 236.9 124.3 236.6ZM131.3 240.2L128.5 240.2Q128.3 240.2 128.1 240.0Q128.0 239.9 128.0 239.7L128.0 239.7Q128.0 239.6 128.0 239.5Q128.1 239.4 128.2 239.3L128.2 239.3L130.0 237.4Q130.1 237.3 130.2 237.1Q130.4 236.9 130.5 236.8Q130.6 236.6 130.7 236.4Q130.8 236.2 130.8 236.0L130.8 236.0Q130.8 235.7 130.7 235.5Q130.6 235.3 130.5 235.2Q130.3 235.1 130.1 235.0Q129.9 235.0 129.7 235.0L129.7 235.0Q129.4 235.0 129.1 235.0Q128.9 235.1 128.7 235.2L128.7 235.2Q128.6 235.3 128.4 235.3Q128.3 235.2 128.2 235.1L128.2 235.1Q128.2 234.9 128.2 234.8Q128.2 234.7 128.4 234.6L128.4 234.6Q128.6 234.4 128.9 234.3Q129.3 234.2 129.7 234.2L129.7 234.2Q130.1 234.2 130.4 234.3Q130.8 234.4 131.0 234.6Q131.2 234.8 131.4 235.1Q131.5 235.4 131.5 235.9L131.5 235.9Q131.5 236.1 131.5 236.4Q131.4 236.6 131.3 236.9Q131.1 237.1 130.9 237.3Q130.8 237.6 130.6 237.8L130.6 237.8L129.1 239.3Q129.1 239.3 129.1 239.4Q129.1 239.4 129.3 239.4L129.3 239.4L131.3 239.4Q131.5 239.4 131.6 239.5Q131.7 239.6 131.7 239.8L131.7 239.8Q131.7 240.0 131.6 240.1Q131.5 240.2 131.3 240.2L131.3 240.2ZM133.0 240.0L133.0 240.0Q132.8 239.9 132.8 239.8Q132.7 239.6 132.8 239.5L132.8 239.5Q132.9 239.3 133.0 239.3Q133.1 239.2 133.4 239.3L133.4 239.3Q133.6 239.4 133.8 239.5Q134.1 239.5 134.4 239.5L134.4 239.5Q135.0 239.5 135.3 239.2Q135.6 238.9 135.6 238.4L135.6 238.4Q135.6 238.0 135.5 237.9Q135.3 237.7 135.0 237.6Q134.7 237.5 134.4 237.5Q134.1 237.4 133.8 237.5L133.8 237.5Q133.8 237.5 133.7 237.5Q133.6 237.4 133.6 237.4Q133.5 237.3 133.5 237.3Q133.5 237.2 133.5 237.1L133.5 237.1Q133.5 236.9 133.6 236.8Q133.7 236.7 133.9 236.7L133.9 236.7Q134.1 236.7 134.4 236.7Q134.6 236.7 134.9 236.5Q135.1 236.4 135.2 236.2Q135.4 236.1 135.4 235.8L135.4 235.8Q135.4 235.5 135.3 235.4Q135.2 235.2 135.0 235.1Q134.8 235.0 134.6 235.0Q134.4 235.0 134.2 235.0L134.2 235.0Q134.0 235.0 133.8 235.0Q133.6 235.0 133.4 235.2L133.4 235.2Q133.3 235.2 133.2 235.2Q133.0 235.1 133.0 235.0L133.0 235.0Q132.9 234.9 132.9 234.7Q133.0 234.6 133.1 234.5L133.1 234.5Q133.3 234.4 133.6 234.3Q133.9 234.2 134.2 234.2L134.2 234.2Q134.6 234.2 134.9 234.3Q135.3 234.4 135.5 234.6Q135.8 234.7 135.9 235.0Q136.1 235.3 136.1 235.7L136.1 235.7Q136.1 235.9 136.0 236.1Q136.0 236.4 135.9 236.5Q135.8 236.7 135.6 236.8Q135.4 237.0 135.2 237.0L135.2 237.0Q135.5 237.0 135.7 237.2Q136.0 237.3 136.1 237.5Q136.2 237.7 136.3 238.0Q136.4 238.2 136.4 238.5L136.4 238.5Q136.4 238.9 136.2 239.2Q136.1 239.5 135.8 239.8Q135.6 240.0 135.2 240.1Q134.9 240.2 134.4 240.2L134.4 240.2Q134.0 240.2 133.7 240.2Q133.3 240.1 133.0 240.0Z M142.3 237.2L142.3 237.2Q142.3 236.6 142.4 236.1Q142.5 235.5 142.8 235.1Q143.1 234.7 143.6 234.5Q144.0 234.2 144.6 234.2L144.6 234.2Q145.0 234.2 145.2 234.3Q145.5 234.4 145.7 234.5Q145.8 234.6 145.9 234.7Q146.1 234.8 146.1 235.0L146.1 235.0Q146.2 235.2 146.1 235.3Q146.1 235.4 146.0 235.5L146.0 235.5Q145.9 235.6 145.8 235.5Q145.6 235.5 145.5 235.4L145.5 235.4Q145.4 235.2 145.2 235.1Q145.0 235.0 144.6 235.0L144.6 235.0Q144.2 235.0 143.9 235.1Q143.6 235.3 143.4 235.6Q143.2 236.0 143.1 236.4Q143.0 236.8 143.0 237.2L143.0 237.2Q143.0 237.6 143.1 238.0Q143.2 238.4 143.4 238.8Q143.6 239.1 143.9 239.3Q144.2 239.5 144.7 239.5L144.7 239.5Q144.8 239.5 144.9 239.5Q145.0 239.5 145.1 239.5Q145.3 239.4 145.4 239.4Q145.5 239.4 145.5 239.3L145.5 239.3Q145.7 239.2 145.8 239.2Q146.0 239.2 146.1 239.3L146.1 239.3Q146.2 239.4 146.2 239.6Q146.2 239.7 146.0 239.9L146.0 239.9Q145.9 240.0 145.7 240.1Q145.6 240.1 145.4 240.2Q145.2 240.2 145.0 240.2Q144.8 240.2 144.6 240.2L144.6 240.2Q144.0 240.2 143.5 240.0Q143.1 239.7 142.8 239.3Q142.5 238.9 142.4 238.4Q142.3 237.8 142.3 237.2ZM149.9 235.5L149.9 235.5Q149.8 235.2 149.5 235.1Q149.3 235.0 149 235.0L149 235.0Q148.6 235.0 148.3 235.2Q148.0 235.4 148.0 235.8L148.0 235.8Q148.0 236.0 148.1 236.2Q148.2 236.4 148.3 236.5Q148.4 236.6 148.6 236.6Q148.8 236.7 149 236.7L149 236.7Q149.4 236.8 149.7 237.0Q150.0 237.1 150.3 237.3Q150.5 237.5 150.7 237.8Q150.8 238.1 150.8 238.6L150.8 238.6Q150.8 239.0 150.7 239.3Q150.6 239.6 150.3 239.8Q150.1 240 149.8 240.1Q149.4 240.2 149 240.2L149 240.2Q148.6 240.2 148.3 240.2Q148.0 240.1 147.8 239.9Q147.6 239.7 147.4 239.5Q147.3 239.2 147.2 238.9L147.2 238.9Q147.2 238.8 147.3 238.7Q147.3 238.6 147.5 238.6L147.5 238.6Q147.7 238.6 147.8 238.6Q147.9 238.7 148.0 238.9L148.0 238.9Q148.1 239.2 148.3 239.4Q148.6 239.5 149 239.5L149 239.5Q149.3 239.5 149.5 239.5Q149.7 239.4 149.8 239.3Q150.0 239.2 150.0 239.0Q150.1 238.8 150.1 238.6L150.1 238.6Q150.1 238.3 150.0 238.1Q149.9 237.9 149.8 237.8Q149.6 237.7 149.4 237.6Q149.2 237.5 149 237.5L149 237.5Q148.7 237.4 148.3 237.3Q148.0 237.2 147.8 237.0Q147.6 236.8 147.5 236.5Q147.3 236.2 147.3 235.8L147.3 235.8Q147.3 235.4 147.4 235.2Q147.6 234.9 147.8 234.7Q148 234.5 148.3 234.4Q148.6 234.2 149 234.2L149 234.2Q149.3 234.2 149.6 234.3Q149.9 234.4 150.1 234.6Q150.3 234.7 150.4 234.9Q150.6 235.2 150.6 235.4L150.6 235.4Q150.7 235.6 150.6 235.7Q150.5 235.8 150.3 235.8L150.3 235.8Q150.1 235.8 150.1 235.7Q150.0 235.6 149.9 235.5ZM153.4 239.9L153.4 235.0L152.2 235.0Q152.0 235.0 151.9 234.9Q151.8 234.8 151.8 234.7L151.8 234.7Q151.8 234.5 151.9 234.4Q152.0 234.3 152.2 234.3L152.2 234.3L155.4 234.3Q155.6 234.3 155.7 234.4Q155.8 234.5 155.8 234.7L155.8 234.7Q155.8 234.8 155.7 234.9Q155.6 235.0 155.4 235.0L155.4 235.0L154.2 235.0L154.2 239.9Q154.2 240.1 154.1 240.2Q154.0 240.2 153.8 240.2L153.8 240.2Q153.6 240.2 153.5 240.2Q153.4 240.1 153.4 239.9L153.4 239.9Z "/></svg>