<svg width="390" height="260" viewBox="0 0 390 260" xmlns="http://www.w3.org/2000/svg"><defs><clipPath id="satori_bc-id"><path x="0" y="0" width="390" height="260" d="M16,0 h358 a16,16 0 0 1 16,16 v228 a16,16 0 0 1 -16,16 h-358 a16,16 0 0 1 -16,-16 v-228 a16,16 0 0 1 16,-16"/></clipPath></defs><mask id="satori_om-id"><rect x="1" y="1" width="388" height="258" fill="#fff"/><path width="390" height="260" fill="none" stroke="#000" stroke-width="2" d="M4.686,4.686 A16,16 0 0 1 16,0 h358 a16,16 0 0 1 16,16 v228 a16,16 0 0 1 -16,16 h-358 a16,16 0 0 1 -16,-16 v-228 A16,16 0 0 1 4.686,4.686"/></mask><path x="0" y="0" width="390" height="260" fill="#161B22" d="M16,0 h358 a16,16 0 0 1 16,16 v228 a16,16 0 0 1 -16,16 h-358 a16,16 0 0 1 -16,-16 v-228 a16,16 0 0 1 16,-16"/><path width="390" height="260" clip-path="url(#satori_bc-id)" fill="none" stroke="#30363D" stroke-width="2" d="M4.686,4.686 A16,16 0 0 1 16,0 h358 a16,16 0 0 1 16,16 v228 a16,16 0 0 1 -16,16 h-358 a16,16 0 0 1 -16,-16 v-228 A16,16 0 0 1 4.686,4.686"/><mask id="satori_om-id-0"><rect x="25" y="25" width="340" height="17" fill="#fff"/></mask><path fill="#8B949E" d="M28.0 38.6L25.9 38.6L25.9 28.4L29.9 28.4Q31.1 28.4 31.9 28.8Q32.7 29.2 33.1 29.9Q33.5 30.7 33.5 31.7Q33.5 32.7 33.1 33.4Q32.7 34.2 31.8 34.5L31.8 34.5Q31.8 34.6 31.7 34.6L31.7 34.6L33.9 38.6L31.6 38.6L29.6 34.9L28.0 34.9L28.0 38.6ZM28.0 30.1L28.0 33.2L29.5 33.2Q30.2 33.2 30.6 33.1Q31.0 32.9 31.2 32.5Q31.4 32.2 31.4 31.7L31.4 31.7Q31.4 31.2 31.2 30.8Q31.0 30.5 30.6 30.3Q30.1 30.1 29.5 30.1L29.5 30.1L28.0 30.1ZM38.5 38.7L38.5 38.7Q37.4 38.7 36.5 38.2Q35.7 37.8 35.2 36.9Q34.7 36.0 34.7 34.8L34.7 34.8Q34.7 33.6 35.2 32.7Q35.7 31.8 36.5 31.3Q37.3 30.8 38.4 30.8L38.4 30.8Q39.2 30.8 39.8 31.1Q40.5 31.3 41.0 31.8Q41.5 32.3 41.7 33.0Q42.0 33.7 42.0 34.7L42.0 34.7L42.0 35.3L36.8 35.3Q36.8 35.9 37.0 36.3L37.0 36.3Q37.2 36.7 37.6 36.9Q38.0 37.2 38.6 37.2L38.6 37.2Q38.9 37.2 39.2 37.1Q39.5 37.0 39.7 36.8Q39.9 36.6 40.0 36.3L40.0 36.3L41.9 36.6Q41.7 37.2 41.2 37.7Q40.8 38.2 40.1 38.5Q39.4 38.7 38.5 38.7ZM36.8 34.0L36.8 34.0L40.0 34.0Q40.0 33.6 39.9 33.3L39.9 33.3Q39.7 32.9 39.3 32.6Q39.0 32.4 38.4 32.4L38.4 32.4Q37.9 32.4 37.5 32.6Q37.2 32.9 37.0 33.3L37.0 33.3Q36.8 33.6 36.8 34.0ZM46.8 38.7L46.8 38.7Q45.7 38.7 44.8 38.2Q44.0 37.7 43.5 36.8Q43.1 36.0 43.1 34.8L43.1 34.8Q43.1 33.6 43.5 32.7Q44.0 31.8 44.8 31.3Q45.7 30.8 46.8 30.8L46.8 30.8Q47.5 30.8 48.1 31.0Q48.7 31.2 49.1 31.5Q49.5 31.8 49.8 32.3Q50.1 32.8 50.2 33.4L50.2 33.4L48.3 33.7Q48.3 33.4 48.1 33.2Q48.0 33.0 47.8 32.8Q47.6 32.6 47.4 32.5Q47.1 32.4 46.8 32.4L46.8 32.4Q46.3 32.4 45.9 32.7Q45.6 33.0 45.4 33.6Q45.2 34.1 45.2 34.8L45.2 34.8Q45.2 35.4 45.4 36.0Q45.6 36.5 45.9 36.8Q46.3 37.1 46.8 37.1L46.8 37.1Q47.1 37.1 47.4 37.0Q47.6 36.9 47.8 36.7Q48.0 36.6 48.1 36.3Q48.3 36.1 48.3 35.8L48.3 35.8L50.2 36.1Q50.1 36.7 49.8 37.2Q49.6 37.7 49.1 38.0Q48.7 38.4 48.1 38.5Q47.5 38.7 46.8 38.7ZM55.1 38.7L55.1 38.7Q53.9 38.7 53.1 38.2Q52.2 37.8 51.8 36.9Q51.3 36.0 51.3 34.8L51.3 34.8Q51.3 33.6 51.8 32.7Q52.2 31.8 53.1 31.3Q53.9 30.8 55.0 30.8L55.0 30.8Q55.7 30.8 56.4 31.1Q57.0 31.3 57.5 31.8Q58.0 32.3 58.3 33.0Q58.6 33.7 58.6 34.7L58.6 34.7L58.6 35.3L53.4 35.3Q53.4 35.9 53.6 36.3L53.6 36.3Q53.8 36.7 54.2 36.9Q54.6 37.2 55.1 37.2L55.1 37.2Q55.5 37.2 55.8 37.1Q56.1 37.0 56.3 36.8Q56.5 36.6 56.6 36.3L56.6 36.3L58.5 36.6Q58.3 37.2 57.8 37.7Q57.4 38.2 56.7 38.5Q56.0 38.7 55.1 38.7ZM53.4 34.0L53.4 34.0L56.6 34.0Q56.6 33.6 56.4 33.3L56.4 33.3Q56.3 32.9 55.9 32.6Q55.5 32.4 55.0 32.4L55.0 32.4Q54.5 32.4 54.1 32.6Q53.7 32.9 53.5 33.3L53.5 33.3Q53.4 33.6 53.4 34.0ZM62.0 34.1L62.0 34.1L62.0 38.6L60.0 38.6L60.0 30.9L61.9 30.9L61.9 32.5Q62.2 31.8 62.7 31.3L62.7 31.3Q63.4 30.8 64.3 30.8L64.3 30.8Q65.1 30.8 65.7 31.2Q66.3 31.5 66.6 32.2Q67.0 32.8 67.0 33.7L67.0 33.7L67.0 38.6L64.9 38.6L64.9 34.1Q64.9 33.3 64.5 32.9Q64.2 32.5 63.5 32.5L63.5 32.5Q63.1 32.5 62.8 32.7Q62.4 32.9 62.2 33.3Q62.0 33.6 62.0 34.1ZM71.1 30.9L72.5 30.9L72.5 32.5L71.1 32.5L71.1 36.3Q71.1 36.7 71.2 36.9Q71.4 37.0 71.8 37.0L71.8 37.0Q71.9 37.0 72.1 37.0Q72.3 37.0 72.4 36.9L72.4 36.9L72.7 38.5Q72.4 38.6 72.0 38.6Q71.7 38.7 71.4 38.7L71.4 38.7Q70.2 38.7 69.6 38.1Q69.0 37.6 69.0 36.5L69.0 36.5L69.0 32.5L68.0 32.5L68.0 30.9L69.0 30.9L69.0 29.1L71.1 29.1L71.1 30.9Z M78.9 38.6L76.6 38.6L80.1 28.4L82.8 28.4L86.4 38.6L84.1 38.6L83.3 36.2L79.7 36.2L78.9 38.6ZM80.2 34.6L82.7 34.6L82.4 33.6Q82.1 32.7 81.8 31.6L81.8 31.6Q81.6 30.8 81.4 30.0L81.4 30.0Q81.2 30.8 81.0 31.6L81.0 31.6Q80.8 32.7 80.5 33.6L80.5 33.6L80.2 34.6ZM91.0 38.7L91.0 38.7Q89.9 38.7 89.0 38.2Q88.2 37.7 87.7 36.8Q87.3 36.0 87.3 34.8L87.3 34.8Q87.3 33.6 87.7 32.7Q88.2 31.8 89.0 31.3Q89.9 30.8 91.0 30.8L91.0 30.8Q91.7 30.8 92.3 31.0Q92.8 31.2 93.3 31.5Q93.7 31.8 94.0 32.3Q94.3 32.8 94.4 33.4L94.4 33.4L92.5 33.7Q92.4 33.4 92.3 33.2Q92.2 33.0 92.0 32.8Q91.8 32.6 91.6 32.5Q91.3 32.4 91.0 32.4L91.0 32.4Q90.5 32.4 90.1 32.7Q89.7 33.0 89.6 33.6Q89.4 34.1 89.4 34.8L89.4 34.8Q89.4 35.4 89.6 36.0Q89.7 36.5 90.1 36.8Q90.5 37.1 91.0 37.1L91.0 37.1Q91.3 37.1 91.6 37.0Q91.8 36.9 92.0 36.7Q92.2 36.6 92.3 36.3Q92.5 36.1 92.5 35.8L92.5 35.8L94.4 36.1Q94.3 36.7 94.0 37.2Q93.7 37.7 93.3 38.0Q92.9 38.4 92.3 38.5Q91.7 38.7 91.0 38.7ZM98.2 30.9L99.6 30.9L99.6 32.5L98.2 32.5L98.2 36.3Q98.2 36.7 98.4 36.9Q98.5 37.0 98.9 37.0L98.9 37.0Q99.0 37.0 99.2 37.0Q99.4 37.0 99.5 36.9L99.5 36.9L99.8 38.5Q99.5 38.6 99.2 38.6Q98.8 38.7 98.5 38.7L98.5 38.7Q97.4 38.7 96.8 38.1Q96.1 37.6 96.1 36.5L96.1 36.5L96.1 32.5L95.1 32.5L95.1 30.9L96.1 30.9L96.1 29.1L98.2 29.1L98.2 30.9ZM103.0 38.6L101.0 38.6L101.0 30.9L103.0 30.9L103.0 38.6ZM102.0 29.9L102.0 29.9Q101.5 29.9 101.2 29.6Q100.9 29.3 100.9 28.9L100.9 28.9Q100.9 28.4 101.2 28.1Q101.5 27.8 102.0 27.8L102.0 27.8Q102.5 27.8 102.8 28.1Q103.1 28.4 103.1 28.9L103.1 28.9Q103.1 29.3 102.8 29.6Q102.5 29.9 102.0 29.9ZM109.2 38.6L106.9 38.6L104.1 30.9L106.3 30.9L107.6 34.9Q107.8 35.6 108.0 36.4L108.0 36.4Q108.0 36.7 108.1 37.0L108.1 37.0Q108.2 36.7 108.2 36.4L108.2 36.4Q108.4 35.6 108.6 34.9L108.6 34.9L109.9 30.9L112.1 30.9L109.2 38.6ZM115.2 38.6L113.1 38.6L113.1 30.9L115.2 30.9L115.2 38.6ZM114.2 29.9L114.2 29.9Q113.7 29.9 113.4 29.6Q113.1 29.3 113.1 28.9L113.1 28.9Q113.1 28.4 113.4 28.1Q113.7 27.8 114.2 27.8L114.2 27.8Q114.6 27.8 115.0 28.1Q115.3 28.4 115.3 28.9L115.3 28.9Q115.3 29.3 115.0 29.6Q114.6 29.9 114.2 29.9ZM119.3 30.9L120.7 30.9L120.7 32.5L119.3 32.5L119.3 36.3Q119.3 36.7 119.5 36.9Q119.6 37.0 120.0 37.0L120.0 37.0Q120.1 37.0 120.3 37.0Q120.5 37.0 120.7 36.9L120.7 36.9L120.9 38.5Q120.6 38.6 120.3 38.6Q119.9 38.7 119.6 38.7L119.6 38.7Q118.5 38.7 117.9 38.1Q117.3 37.6 117.3 36.5L117.3 36.5L117.3 32.5L116.2 32.5L116.2 30.9L117.3 30.9L117.3 29.1L119.3 29.1L119.3 30.9ZM122.0 41.3L122.0 41.3L122.5 39.7L122.7 39.8Q123.2 39.9 123.5 39.8Q123.8 39.8 124.0 39.6Q124.2 39.4 124.2 39.0L124.2 39.0L124.3 38.6L121.4 30.9L123.6 30.9L124.9 34.9Q125.1 35.6 125.3 36.4L125.3 36.4Q125.3 36.6 125.4 36.9L125.4 36.9Q125.4 36.6 125.5 36.4L125.5 36.4Q125.7 35.6 125.9 34.9L125.9 34.9L127.3 30.9L129.4 30.9L126.2 39.5Q125.9 40.1 125.6 40.5Q125.2 41.0 124.7 41.2Q124.1 41.5 123.4 41.5L123.4 41.5Q122.9 41.5 122.6 41.4Q122.2 41.4 122.0 41.3Z "/><mask id="satori_om-id-1"><rect x="25" y="52" width="340" height="183" fill="#fff"/></mask><mask id="satori_om-id-1-0"><rect x="141" y="136" width="109" height="15" fill="#fff"/></mask><path fill="#656D76" d="M143.4 148.6L142.1 148.6L142.1 139.1L143.6 139.1L147.4 145.2Q147.6 145.4 147.8 145.8Q148.0 146.2 148.2 146.6L148.2 146.6Q148.4 146.9 148.5 147.2L148.5 147.2Q148.5 146.9 148.5 146.6L148.5 146.6Q148.5 146.1 148.5 145.6Q148.4 145.2 148.4 144.9L148.4 144.9L148.4 139.1L149.7 139.1L149.7 148.6L148.2 148.6L144.8 143.2Q144.6 142.8 144.3 142.4Q144.1 142.0 143.8 141.5L143.8 141.5Q143.6 141.1 143.3 140.6L143.3 140.6Q143.3 141.0 143.3 141.5L143.3 141.5Q143.3 142.1 143.3 142.5Q143.4 142.9 143.4 143.2L143.4 143.2L143.4 148.6ZM154.7 148.7L154.7 148.7Q153.7 148.7 153.0 148.3Q152.3 147.8 151.9 147.0Q151.5 146.2 151.5 145.1L151.5 145.1Q151.5 144.0 151.9 143.2Q152.3 142.3 153.0 141.9Q153.7 141.4 154.7 141.4L154.7 141.4Q155.7 141.4 156.4 141.9Q157.1 142.3 157.5 143.2Q157.9 144.0 157.9 145.1L157.9 145.1Q157.9 146.2 157.5 147.0Q157.1 147.8 156.4 148.3Q155.7 148.7 154.7 148.7ZM154.7 147.7L154.7 147.7Q155.4 147.7 155.9 147.4Q156.3 147.0 156.6 146.4Q156.8 145.8 156.8 145.1L156.8 145.1Q156.8 144.4 156.6 143.8Q156.3 143.2 155.9 142.8Q155.4 142.4 154.7 142.4L154.7 142.4Q154.0 142.4 153.5 142.8Q153.1 143.2 152.8 143.8Q152.6 144.4 152.6 145.1L152.6 145.1Q152.6 145.8 152.8 146.4Q153.1 147.0 153.5 147.4Q154.0 147.7 154.7 147.7Z M164.4 148.6L163.2 148.6L163.2 141.5L164.4 141.5L164.4 142.6L164.4 142.6Q164.6 142.0 165.1 141.7Q165.6 141.4 166.3 141.4L166.3 141.4Q166.4 141.4 166.6 141.4Q166.7 141.4 166.8 141.4L166.8 141.4L166.8 142.6Q166.8 142.6 166.6 142.5Q166.4 142.5 166.2 142.5L166.2 142.5Q165.7 142.5 165.3 142.7Q164.8 142.9 164.6 143.3Q164.4 143.7 164.4 144.2L164.4 144.2L164.4 148.6ZM171.1 148.7L171.1 148.7Q170.1 148.7 169.4 148.3Q168.6 147.8 168.2 147.0Q167.8 146.2 167.8 145.1Q167.8 144.0 168.2 143.2Q168.6 142.3 169.3 141.9Q170.0 141.4 171.0 141.4L171.0 141.4Q171.6 141.4 172.1 141.6Q172.7 141.8 173.1 142.2Q173.6 142.6 173.8 143.3Q174.1 144.0 174.1 145.0L174.1 145.0L174.1 145.4L169.0 145.4Q169.0 146.1 169.2 146.6L169.2 146.6Q169.5 147.2 170.0 147.4Q170.5 147.7 171.1 147.7L171.1 147.7Q171.6 147.7 171.9 147.6Q172.2 147.5 172.5 147.2Q172.7 147.0 172.9 146.6L172.9 146.6L174.0 146.9Q173.8 147.5 173.4 147.9Q173.0 148.3 172.4 148.5Q171.9 148.7 171.1 148.7ZM169.0 144.5L169.0 144.5L172.9 144.5Q172.9 144.0 172.7 143.6L172.7 143.6Q172.5 143.0 172.1 142.7Q171.6 142.4 171.0 142.4Q170.4 142.4 169.9 142.7Q169.4 143.1 169.2 143.6L169.2 143.6Q169.0 144.0 169.0 144.5ZM178.6 148.7L178.6 148.7Q177.6 148.7 176.9 148.3Q176.2 147.8 175.8 147.0Q175.4 146.2 175.4 145.1L175.4 145.1Q175.4 144.0 175.8 143.2Q176.2 142.3 176.9 141.9Q177.6 141.4 178.6 141.4L178.6 141.4Q179.1 141.4 179.6 141.5Q180.0 141.7 180.4 141.9Q180.8 142.2 181.1 142.5Q181.3 142.9 181.5 143.4L181.5 143.4L180.4 143.7Q180.3 143.4 180.2 143.2Q180.0 143.0 179.8 142.8Q179.5 142.6 179.3 142.5Q179.0 142.4 178.6 142.4L178.6 142.4Q177.9 142.4 177.4 142.8Q177.0 143.2 176.8 143.8Q176.5 144.4 176.5 145.1L176.5 145.1Q176.5 145.8 176.8 146.4Q177.0 147.0 177.4 147.4Q177.9 147.7 178.6 147.7L178.6 147.7Q179.0 147.7 179.3 147.6Q179.6 147.5 179.8 147.4Q180.0 147.2 180.2 146.9Q180.3 146.7 180.4 146.4L180.4 146.4L181.5 146.7Q181.4 147.2 181.1 147.6Q180.8 147.9 180.4 148.2Q180.1 148.5 179.6 148.6Q179.1 148.7 178.6 148.7ZM186.1 148.7L186.1 148.7Q185.1 148.7 184.4 148.3Q183.6 147.8 183.2 147.0Q182.8 146.2 182.8 145.1Q182.8 144.0 183.2 143.2Q183.6 142.3 184.3 141.9Q185.0 141.4 186.0 141.4L186.0 141.4Q186.6 141.4 187.1 141.6Q187.7 141.8 188.1 142.2Q188.6 142.6 188.8 143.3Q189.1 144.0 189.1 145.0L189.1 145.0L189.1 145.4L184.0 145.4Q184.0 146.1 184.2 146.6L184.2 146.6Q184.5 147.2 185.0 147.4Q185.5 147.7 186.1 147.7L186.1 147.7Q186.6 147.7 186.9 147.6Q187.2 147.5 187.5 147.2Q187.7 147.0 187.9 146.6L187.9 146.6L189.0 146.9Q188.8 147.5 188.4 147.9Q188.0 148.3 187.4 148.5Q186.9 148.7 186.1 148.7ZM184.0 144.5L184.0 144.5L187.9 144.5Q187.9 144.0 187.7 143.6L187.7 143.6Q187.5 143.0 187.1 142.7Q186.6 142.4 186.0 142.4Q185.4 142.4 184.9 142.7Q184.4 143.1 184.2 143.6L184.2 143.6Q184.0 144.0 184.0 144.5ZM191.9 144.3L191.9 144.3L191.9 148.6L190.7 148.6L190.7 141.5L191.8 141.5L191.8 142.8Q192.1 142.1 192.6 141.8L192.6 141.8Q193.2 141.4 194.0 141.4L194.0 141.4Q194.7 141.4 195.3 141.7Q195.8 142.0 196.1 142.6Q196.4 143.2 196.4 144.1L196.4 144.1L196.4 148.6L195.3 148.6L195.3 144.2Q195.3 143.4 194.8 142.9Q194.4 142.4 193.7 142.4L193.7 142.4Q193.2 142.4 192.7 142.7Q192.3 142.9 192.1 143.3Q191.9 143.7 191.9 144.3ZM199.7 141.5L201.2 141.5L201.2 142.5L199.7 142.5L199.7 146.8Q199.7 147.2 199.9 147.4Q200.1 147.7 200.6 147.7L200.6 147.7Q200.7 147.7 200.9 147.6Q201.0 147.6 201.2 147.6L201.2 147.6L201.4 148.6Q201.2 148.6 201.0 148.7Q200.8 148.7 200.5 148.7L200.5 148.7Q199.6 148.7 199.1 148.2Q198.6 147.7 198.6 146.8L198.6 146.8L198.6 142.5L197.5 142.5L197.5 141.5L198.6 141.5L198.6 139.8L199.7 139.8L199.7 141.5Z M208.3 148.8L208.3 148.8Q207.6 148.8 207.1 148.5Q206.5 148.3 206.2 147.8Q205.9 147.3 205.9 146.6L205.9 146.6Q205.9 146.0 206.1 145.6Q206.4 145.2 206.8 145.0Q207.2 144.8 207.7 144.7Q208.2 144.6 208.6 144.5L208.6 144.5Q209.3 144.4 209.7 144.4Q210.1 144.3 210.3 144.2Q210.5 144.1 210.5 143.8L210.5 143.8L210.5 143.8Q210.5 143.4 210.3 143.0Q210.1 142.7 209.8 142.6Q209.5 142.4 209.0 142.4L209.0 142.4Q208.5 142.4 208.1 142.6Q207.8 142.7 207.5 143.0Q207.3 143.2 207.2 143.5L207.2 143.5L206.1 143.1Q206.4 142.4 206.8 142.1Q207.3 141.7 207.8 141.6Q208.4 141.4 209.0 141.4L209.0 141.4Q209.3 141.4 209.8 141.5Q210.2 141.6 210.6 141.8Q211.1 142.1 211.3 142.6Q211.6 143.1 211.6 143.9L211.6 143.9L211.6 148.6L210.5 148.6L210.5 147.6L210.4 147.6Q210.3 147.9 210.0 148.1Q209.8 148.4 209.3 148.6Q208.9 148.8 208.3 148.8ZM208.5 147.7L208.5 147.7Q209.1 147.7 209.6 147.5Q210.0 147.3 210.2 146.9Q210.5 146.5 210.5 146.0L210.5 146.0L210.5 145.0Q210.4 145.1 210.2 145.2Q209.9 145.3 209.6 145.3Q209.3 145.4 209.0 145.4Q208.8 145.4 208.6 145.5L208.6 145.5Q208.2 145.5 207.8 145.6Q207.5 145.8 207.3 146.0Q207.0 146.2 207.0 146.6L207.0 146.6Q207.0 147.0 207.2 147.2Q207.4 147.5 207.7 147.6Q208.1 147.7 208.5 147.7ZM216.5 148.7L216.5 148.7Q215.5 148.7 214.8 148.3Q214.1 147.8 213.7 147.0Q213.3 146.2 213.3 145.1L213.3 145.1Q213.3 144.0 213.7 143.2Q214.1 142.3 214.8 141.9Q215.5 141.4 216.5 141.4L216.5 141.4Q217.0 141.4 217.5 141.5Q217.9 141.7 218.3 141.9Q218.7 142.2 219.0 142.5Q219.2 142.9 219.4 143.4L219.4 143.4L218.3 143.7Q218.2 143.4 218.0 143.2Q217.9 143.0 217.7 142.8Q217.4 142.6 217.1 142.5Q216.9 142.4 216.5 142.4L216.5 142.4Q215.8 142.4 215.3 142.8Q214.9 143.2 214.7 143.8Q214.4 144.4 214.4 145.1L214.4 145.1Q214.4 145.8 214.7 146.4Q214.9 147.0 215.3 147.4Q215.8 147.7 216.5 147.7L216.5 147.7Q216.9 147.7 217.2 147.6Q217.5 147.5 217.7 147.4Q217.9 147.2 218.1 146.9Q218.2 146.7 218.3 146.4L218.3 146.4L219.4 146.7Q219.3 147.2 219.0 147.6Q218.7 147.9 218.3 148.2Q218.0 148.5 217.5 148.6Q217.0 148.7 216.5 148.7ZM222.4 141.5L223.8 141.5L223.8 142.5L222.4 142.5L222.4 146.8Q222.4 147.2 222.6 147.4Q222.8 147.7 223.2 147.7L223.2 147.7Q223.3 147.7 223.5 147.6Q223.7 147.6 223.8 147.6L223.8 147.6L224.0 148.6Q223.9 148.6 223.6 148.7Q223.4 148.7 223.2 148.7L223.2 148.7Q222.3 148.7 221.7 148.2Q221.2 147.7 221.2 146.8L221.2 146.8L221.2 142.5L220.2 142.5L220.2 141.5L221.2 141.5L221.2 139.8L222.4 139.8L222.4 141.5ZM226.4 148.6L225.3 148.6L225.3 141.5L226.4 141.5L226.4 148.6ZM225.9 140.3L225.9 140.3Q225.6 140.3 225.3 140.1Q225.1 139.9 225.1 139.6L225.1 139.6Q225.1 139.3 225.3 139.0Q225.6 138.8 225.9 138.8L225.9 138.8Q226.2 138.8 226.4 139.0Q226.7 139.3 226.7 139.6L226.7 139.6Q226.7 139.9 226.4 140.1Q226.2 140.3 225.9 140.3ZM231.7 148.6L230.5 148.6L227.8 141.5L229.0 141.5L230.5 145.7Q230.8 146.4 231.0 147.0L231.0 147.0Q231.0 147.3 231.1 147.5L231.1 147.5Q231.2 147.3 231.2 147.0L231.2 147.0Q231.4 146.4 231.6 145.7L231.6 145.7L233.2 141.5L234.4 141.5L231.7 148.6ZM236.9 148.6L235.8 148.6L235.8 141.5L236.9 141.5L236.9 148.6ZM236.3 140.3L236.3 140.3Q236.0 140.3 235.8 140.1Q235.5 139.9 235.5 139.6L235.5 139.6Q235.5 139.3 235.8 139.0Q236.0 138.8 236.3 138.8L236.3 138.8Q236.7 138.8 236.9 139.0Q237.1 139.3 237.1 139.6L237.1 139.6Q237.1 139.9 236.9 140.1Q236.7 140.3 236.3 140.3ZM240.2 141.5L241.7 141.5L241.7 142.5L240.2 142.5L240.2 146.8Q240.2 147.2 240.4 147.4Q240.6 147.7 241.1 147.7L241.1 147.7Q241.2 147.7 241.3 147.6Q241.5 147.6 241.7 147.6L241.7 147.6L241.9 148.6Q241.7 148.6 241.5 148.7Q241.3 148.7 241.0 148.7L241.0 148.7Q240.1 148.7 239.6 148.2Q239.1 147.7 239.1 146.8L239.1 146.8L239.1 142.5L238.0 142.5L238.0 141.5L239.1 141.5L239.1 139.8L240.2 139.8L240.2 141.5ZM243.0 151.2L243.0 151.2L243.3 150.2L243.5 150.2Q243.8 150.3 244.1 150.3Q244.4 150.2 244.6 150.0Q244.8 149.7 245 149.2L245 149.2L245.2 148.6L242.5 141.5L243.7 141.5L245.3 145.7Q245.5 146.4 245.7 147.0L245.7 147.0Q245.7 147.3 245.8 147.5L245.8 147.5Q245.9 147.3 245.9 147.0L245.9 147.0Q246.1 146.4 246.3 145.7L246.3 145.7L247.9 141.5L249.1 141.5L246.0 149.7Q245.8 150.2 245.5 150.6Q245.2 150.9 244.8 151.1Q244.4 151.3 243.9 151.3L243.9 151.3Q243.6 151.3 243.3 151.3Q243.1 151.2 243.0 151.2Z "/></svg>