<svg width="194" height="260" viewBox="0 0 194 260" xmlns="http://www.w3.org/2000/svg"><defs><clipPath id="satori_bc-id"><path x="0" y="0" width="194" height="260" d="M16,0 h162 a16,16 0 0 1 16,16 v228 a16,16 0 0 1 -16,16 h-162 a16,16 0 0 1 -16,-16 v-228 a16,16 0 0 1 16,-16"/></clipPath></defs><mask id="satori_om-id"><rect x="1" y="1" width="192" height="258" fill="#fff"/><path width="194" height="260" fill="none" stroke="#000" stroke-width="2" d="M4.686,4.686 A16,16 0 0 1 16,0 h162 a16,16 0 0 1 16,16 v228 a16,16 0 0 1 -16,16 h-162 a16,16 0 0 1 -16,-16 v-228 A16,16 0 0 1 4.686,4.686"/></mask><path x="0" y="0" width="194" height="260" fill="#161B22" d="M16,0 h162 a16,16 0 0 1 16,16 v228 a16,16 0 0 1 -16,16 h-162 a16,16 0 0 1 -16,-16 v-228 a16,16 0 0 1 16,-16"/><path width="194" height="260" clip-path="url(#satori_bc-id)" fill="none" stroke="#30363D" stroke-width="2" d="M4.686,4.686 A16,16 0 0 1 16,0 h162 a16,16 0 0 1 16,16 v228 a16,16 0 0 1 -16,16 h-162 a16,16 0 0 1 -16,-16 v-228 A16,16 0 0 1 4.686,4.686"/><mask id="satori_om-id-0"><rect x="17" y="17" width="160" height="16" fill="#fff"/></mask><path fill="#8B949E" d="M20.5 22.5L19.7 25.9L21.5 25.9L20.7 22.5Q20.6 22.5 20.6 22.5Q20.6 22.5 20.5 22.5L20.5 22.5ZM22.2 28.8L21.8 27.2L19.4 27.2L19.0 28.8Q18.9 29.1 18.8 29.2Q18.6 29.4 18.3 29.4L18.3 29.4Q17.8 29.4 17.6 29.1Q17.4 28.9 17.5 28.3L17.5 28.3L19.3 21.4Q19.5 20.9 19.8 20.6Q20.1 20.4 20.6 20.4L20.6 20.4Q21.1 20.4 21.4 20.6Q21.7 20.9 21.9 21.4L21.9 21.4L23.7 28.3Q23.8 28.9 23.6 29.1Q23.4 29.4 22.9 29.4L22.9 29.4Q22.6 29.4 22.4 29.2Q22.3 29.1 22.2 28.8L22.2 28.8ZM24.9 25.9L24.9 25.9Q24.9 25.0 25.2 24.4Q25.4 23.7 25.8 23.3Q26.2 22.9 26.8 22.7Q27.3 22.5 27.9 22.5L27.9 22.5Q28.5 22.5 28.9 22.6Q29.3 22.7 29.6 22.9Q29.9 23.1 30.1 23.3Q30.3 23.5 30.4 23.7L30.4 23.7Q30.5 24.1 30.4 24.3Q30.3 24.6 30.0 24.8L30.0 24.8Q29.8 24.8 29.6 24.8Q29.4 24.8 29.2 24.6L29.2 24.6Q29.1 24.3 28.8 24.1Q28.5 24.0 28.1 24.0L28.1 24.0Q27.8 24.0 27.5 24.1Q27.2 24.2 27.0 24.4Q26.8 24.7 26.7 25.0Q26.5 25.4 26.5 25.9L26.5 25.9Q26.5 26.4 26.7 26.8Q26.8 27.2 27.0 27.4Q27.2 27.7 27.5 27.8Q27.7 27.9 28.0 27.9L28.0 27.9Q28.4 27.9 28.7 27.8Q29.0 27.8 29.2 27.6L29.2 27.6Q29.4 27.4 29.7 27.4Q29.9 27.3 30.2 27.5L30.2 27.5Q30.3 27.6 30.3 27.7Q30.4 27.8 30.4 28.0Q30.4 28.1 30.4 28.3Q30.4 28.4 30.3 28.5L30.3 28.5Q30.0 28.8 29.8 29.0Q29.5 29.1 29.3 29.2Q29.0 29.3 28.7 29.3Q28.4 29.4 28.1 29.4L28.1 29.4Q27.4 29.4 26.8 29.2Q26.2 29.0 25.8 28.5Q25.4 28.1 25.2 27.5Q24.9 26.8 24.9 25.9ZM35.2 22.9L37.1 22.9Q37.4 22.9 37.6 23.1Q37.8 23.3 37.8 23.6L37.8 23.6Q37.8 24.0 37.6 24.2Q37.4 24.3 37.1 24.3L37.1 24.3L35.2 24.3L35.2 26.2Q35.2 27.1 35.4 27.5Q35.6 27.9 36.0 27.9L36.0 27.9Q36.2 27.9 36.4 27.9Q36.6 27.8 36.8 27.8L36.8 27.8Q37.1 27.6 37.4 27.7Q37.6 27.8 37.8 28.1L37.8 28.1Q38.0 28.4 37.9 28.6Q37.8 28.9 37.5 29.0L37.5 29.0Q37.1 29.2 36.7 29.3Q36.3 29.4 35.8 29.4L35.8 29.4Q35.3 29.4 34.9 29.2Q34.4 29.0 34.2 28.6Q33.9 28.3 33.8 27.7Q33.6 27.1 33.6 26.4L33.6 26.4L33.6 24.3L32.5 24.3Q32.1 24.3 32.0 24.2Q31.8 24.0 31.8 23.6L31.8 23.6Q31.8 23.3 32.0 23.1Q32.2 22.9 32.5 22.9L32.5 22.9L33.6 22.9L33.6 21.6Q33.6 21.2 33.8 21.0Q34.0 20.8 34.4 20.8Q34.8 20.8 35 21.0Q35.2 21.2 35.2 21.6L35.2 21.6L35.2 22.9ZM43.3 27.8L44.6 27.8Q44.9 27.8 45.1 28.0Q45.3 28.1 45.3 28.5Q45.3 28.9 45.1 29.1Q44.9 29.2 44.6 29.2L44.6 29.2L40.2 29.2Q39.9 29.2 39.7 29.1Q39.5 28.9 39.5 28.5Q39.5 28.1 39.7 28.0Q39.8 27.8 40.2 27.8L40.2 27.8L41.7 27.8L41.7 25.0Q41.7 24.6 41.6 24.5Q41.4 24.3 41.1 24.3L41.1 24.3L40.5 24.3Q40.1 24.3 39.9 24.2Q39.7 24.0 39.7 23.6Q39.7 23.3 39.9 23.1Q40.1 22.9 40.5 22.9L40.5 22.9L42.0 22.9Q42.7 22.9 43.0 23.2Q43.3 23.5 43.3 24.2L43.3 24.2L43.3 27.8ZM42.4 21.8L42.4 21.8Q42.0 21.8 41.7 21.6Q41.4 21.3 41.4 20.9L41.4 20.9Q41.4 20.5 41.7 20.3Q42.0 20.0 42.4 20.0L42.4 20.0Q42.9 20.0 43.2 20.3Q43.4 20.5 43.4 20.9L43.4 20.9Q43.4 21.3 43.2 21.6Q42.9 21.8 42.4 21.8ZM48.4 28.6L46.5 23.4Q46.5 23.2 46.5 23.0Q46.5 22.9 46.6 22.7Q46.7 22.6 46.9 22.6Q47.1 22.5 47.2 22.5L47.2 22.5Q47.5 22.5 47.7 22.7Q47.9 22.8 48.0 23.1L48.0 23.1L49.2 26.6Q49.3 26.9 49.4 26.9Q49.5 26.9 49.6 26.6L49.6 26.6L50.8 23.1Q50.9 22.8 51.1 22.7Q51.3 22.5 51.6 22.5L51.6 22.5Q51.7 22.5 51.9 22.6Q52.1 22.6 52.2 22.7Q52.3 22.9 52.3 23.0Q52.3 23.2 52.3 23.4L52.3 23.4L50.4 28.6Q50.3 29.0 50.0 29.2Q49.8 29.4 49.4 29.4L49.4 29.4Q49.0 29.4 48.8 29.2Q48.5 29.0 48.4 28.6L48.4 28.6ZM57.7 27.8L59.0 27.8Q59.3 27.8 59.5 28.0Q59.7 28.1 59.7 28.5Q59.7 28.9 59.5 29.1Q59.3 29.2 59.0 29.2L59.0 29.2L54.6 29.2Q54.3 29.2 54.1 29.1Q53.9 28.9 53.9 28.5Q53.9 28.1 54.1 28.0Q54.2 27.8 54.6 27.8L54.6 27.8L56.1 27.8L56.1 25.0Q56.1 24.6 56.0 24.5Q55.8 24.3 55.5 24.3L55.5 24.3L54.9 24.3Q54.5 24.3 54.3 24.2Q54.1 24.0 54.1 23.6Q54.1 23.3 54.3 23.1Q54.5 22.9 54.9 22.9L54.9 22.9L56.4 22.9Q57.1 22.9 57.4 23.2Q57.7 23.5 57.7 24.2L57.7 24.2L57.7 27.8ZM56.8 21.8L56.8 21.8Q56.4 21.8 56.1 21.6Q55.8 21.3 55.8 20.9L55.8 20.9Q55.8 20.5 56.1 20.3Q56.4 20.0 56.8 20.0L56.8 20.0Q57.3 20.0 57.6 20.3Q57.8 20.5 57.8 20.9L57.8 20.9Q57.8 21.3 57.6 21.6Q57.3 21.8 56.8 21.8ZM64.0 22.9L65.9 22.9Q66.2 22.9 66.4 23.1Q66.6 23.3 66.6 23.6L66.6 23.6Q66.6 24.0 66.4 24.2Q66.2 24.3 65.9 24.3L65.9 24.3L64.0 24.3L64.0 26.2Q64.0 27.1 64.2 27.5Q64.4 27.9 64.8 27.9L64.8 27.9Q65.0 27.9 65.2 27.9Q65.4 27.8 65.6 27.8L65.6 27.8Q65.9 27.6 66.2 27.7Q66.4 27.8 66.6 28.1L66.6 28.1Q66.8 28.4 66.7 28.6Q66.6 28.9 66.3 29.0L66.3 29.0Q65.9 29.2 65.5 29.3Q65.1 29.4 64.6 29.4L64.6 29.4Q64.1 29.4 63.7 29.2Q63.2 29.0 63.0 28.6Q62.7 28.3 62.6 27.7Q62.4 27.1 62.4 26.4L62.4 26.4L62.4 24.3L61.3 24.3Q60.9 24.3 60.8 24.2Q60.6 24.0 60.6 23.6L60.6 23.6Q60.6 23.3 60.8 23.1Q61.0 22.9 61.3 22.9L61.3 22.9L62.4 22.9L62.4 21.6Q62.4 21.2 62.6 21.0Q62.8 20.8 63.2 20.8Q63.6 20.8 63.8 21.0Q64.0 21.2 64.0 21.6L64.0 21.6L64.0 22.9ZM71.0 27.2L72.6 23Q72.6 22.8 72.8 22.7Q72.9 22.6 73.1 22.6L73.1 22.6Q73.5 22.6 73.7 22.8Q73.9 22.9 73.9 23.2L73.9 23.2Q73.9 23.3 73.9 23.5Q73.9 23.6 73.8 23.7L73.8 23.7L71.9 29.4Q71.8 29.6 71.7 30.0Q71.6 30.3 71.4 30.6Q71.2 31.0 71.0 31.3Q70.8 31.6 70.6 31.8L70.6 31.8Q70.2 32.1 69.7 32.2Q69.3 32.3 69.0 32.3L69.0 32.3Q68.6 32.3 68.4 32.2Q68.2 32 68.2 31.6L68.2 31.6L68.2 31.6Q68.2 31.3 68.4 31.1Q68.5 30.9 68.8 30.9L68.8 30.9Q69.0 30.9 69.2 30.8Q69.4 30.7 69.5 30.6L69.5 30.6Q69.7 30.5 69.8 30.4Q69.9 30.2 69.9 30.1Q70.0 30.0 70.1 29.8Q70.1 29.7 70.2 29.5L70.2 29.5L70.3 29.2L68.3 23.7Q68.2 23.6 68.2 23.4Q68.2 23.3 68.2 23.2L68.2 23.2Q68.2 22.9 68.4 22.8Q68.6 22.6 68.9 22.6L68.9 22.6Q69.2 22.6 69.3 22.7Q69.5 22.8 69.5 23.0L69.5 23.0L71.0 27.2Z "/><mask id="satori_om-id-1"><rect x="17" y="41" width="160" height="191" fill="#fff"/></mask><mask id="satori_om-id-1-0"><rect x="17" y="41" width="160" height="14" fill="#fff"/></mask><mask id="satori_om-id-1-0-0"><rect x="17" y="41" width="16" height="14" fill="#fff"/></mask><path x="17" y="41" width="16" height="14" fill="#1A7F3718" d="M21,41 h8 a4,4 0 0 1 4,4 v6 a4,4 0 0 1 -4,4 h-8 a4,4 0 0 1 -4,-4 v-6 a4,4 0 0 1 4,-4"/><path fill="#1A7F37" d="M22.5 48.0L22.5 48.0Q22.5 47.3 22.6 46.6Q22.8 46.0 23.1 45.5Q23.4 45.1 23.9 44.8Q24.5 44.5 25.2 44.5L25.2 44.5Q25.6 44.5 25.9 44.6Q26.2 44.7 26.4 44.8Q26.6 44.9 26.7 45.1Q26.8 45.2 26.9 45.4L26.9 45.4Q27.0 45.7 27.0 45.9Q26.9 46.1 26.7 46.2L26.7 46.2Q26.6 46.3 26.4 46.3Q26.1 46.2 26.0 46.0L26.0 46.0Q25.9 45.8 25.7 45.7Q25.5 45.6 25.2 45.6L25.2 45.6Q24.8 45.6 24.5 45.8Q24.2 46.0 24.0 46.3Q23.8 46.7 23.7 47.1Q23.7 47.5 23.7 47.9L23.7 47.9Q23.7 48.3 23.7 48.7Q23.8 49.1 24.0 49.4Q24.1 49.7 24.4 50.0Q24.7 50.2 25.2 50.2L25.2 50.2Q25.3 50.2 25.5 50.2Q25.6 50.1 25.7 50.1Q25.8 50.1 25.9 50.0Q26.0 50.0 26.0 49.9L26.0 49.9Q26.2 49.7 26.4 49.7Q26.6 49.8 26.8 49.9L26.8 49.9Q26.9 50.0 26.9 50.3Q27.0 50.5 26.8 50.7L26.8 50.7Q26.7 50.9 26.5 51.0Q26.3 51.1 26.1 51.2Q25.9 51.2 25.6 51.2Q25.4 51.3 25.2 51.3L25.2 51.3Q24.4 51.3 23.9 51.0Q23.3 50.7 23.0 50.3Q22.7 49.8 22.6 49.2Q22.5 48.6 22.5 48.0Z "/><clipPath id="satori_cp-id-1-0-1"><rect x="38" y="41" width="139" height="13"/></clipPath><mask id="satori_om-id-1-0-1"><rect x="38" y="41" width="139" height="13" fill="#fff"/></mask><path fill="#E6EDF3" d="M39.9 49.3L39.9 50.9Q39.9 51.1 39.8 51.2Q39.7 51.3 39.5 51.3Q39.2 51.3 39.1 51.2Q39 51.1 39 50.9L39 50.9L39 44.3Q39 44.0 39.1 43.9Q39.2 43.8 39.5 43.8Q39.7 43.8 39.8 43.9Q39.9 44.0 39.9 44.3L39.9 44.3L39.9 48.1L42.1 45.8Q42.3 45.7 42.4 45.7Q42.5 45.6 42.6 45.6L42.6 45.6Q42.8 45.6 42.9 45.7Q43.0 45.7 43.0 45.8Q43.0 45.9 43.0 46.0Q43.0 46.1 42.9 46.2L42.9 46.2L41.4 47.8L43.2 50.7Q43.3 50.9 43.3 51.0Q43.3 51.1 43.2 51.1Q43.2 51.2 43.1 51.3Q43 51.3 42.9 51.3L42.9 51.3Q42.7 51.3 42.6 51.3Q42.4 51.2 42.3 51.0L42.3 51.0L40.8 48.4L39.9 49.3ZM47.7 50.3L49.1 50.3Q49.3 50.3 49.4 50.4Q49.5 50.6 49.5 50.8Q49.5 51.0 49.4 51.1Q49.3 51.2 49.1 51.2L49.1 51.2L45.3 51.2Q45.1 51.2 45.0 51.1Q44.9 51.0 44.9 50.8Q44.9 50.6 45.0 50.4Q45.1 50.3 45.3 50.3L45.3 50.3L46.8 50.3L46.8 47.2Q46.8 47 46.7 46.9Q46.6 46.8 46.4 46.8L46.4 46.8L45.5 46.8Q45.3 46.8 45.2 46.7Q45.0 46.6 45.0 46.4Q45.0 46.2 45.2 46.0Q45.3 45.9 45.5 45.9L45.5 45.9L46.9 45.9Q47.3 45.9 47.5 46.1Q47.7 46.3 47.7 46.7L47.7 46.7L47.7 50.3ZM47.2 44.9L47.2 44.9Q46.9 44.9 46.7 44.7Q46.5 44.6 46.5 44.3L46.5 44.3Q46.5 44.0 46.7 43.8Q46.9 43.6 47.2 43.6L47.2 43.6Q47.5 43.6 47.7 43.8Q47.9 44.0 47.9 44.3L47.9 44.3Q47.9 44.6 47.7 44.7Q47.5 44.9 47.2 44.9ZM51.5 51.3L51.5 51.3Q51.3 51.3 51.2 51.2Q51.1 51.1 51.1 50.9L51.1 50.9L51.1 46.1Q51.1 45.8 51.2 45.7Q51.3 45.6 51.5 45.6L51.5 45.6Q51.8 45.6 51.9 45.7Q52 45.8 52 46.1L52 46.1L52 46.6Q52.1 46.4 52.3 46.2Q52.5 46.0 52.7 45.9Q53.0 45.8 53.3 45.7Q53.5 45.6 53.8 45.6L53.8 45.6Q54.3 45.6 54.6 45.8Q54.9 45.9 55.0 46.2Q55.2 46.5 55.2 46.8Q55.3 47.2 55.3 47.6L55.3 47.6L55.3 47.7Q55.3 47.9 55.2 48.0Q55.1 48.2 54.9 48.2L54.9 48.2Q54.6 48.2 54.5 48.0Q54.4 47.9 54.4 47.7L54.4 47.7L54.4 47.6Q54.4 47.4 54.4 47.2Q54.3 47.0 54.2 46.8Q54.1 46.7 54.0 46.6Q53.8 46.5 53.5 46.5L53.5 46.5Q53.3 46.5 53 46.6Q52.7 46.6 52.5 46.8Q52.3 46.9 52.1 47.2Q52 47.4 52 47.7L52 47.7L52 50.9Q52 51.1 51.9 51.2Q51.8 51.3 51.5 51.3ZM59 51.3L59 51.3Q58.4 51.3 58 51.1Q57.6 50.9 57.3 50.5Q57.0 50.1 56.9 49.6Q56.8 49.1 56.8 48.4L56.8 48.4Q56.8 47.8 56.9 47.3Q57.0 46.8 57.3 46.4Q57.6 46.0 58.0 45.8Q58.4 45.6 59 45.6L59 45.6Q59.6 45.6 60.0 45.8Q60.4 46.0 60.7 46.4Q61.0 46.8 61.1 47.3Q61.3 47.8 61.3 48.4L61.3 48.4Q61.3 49.1 61.1 49.6Q61.0 50.1 60.7 50.5Q60.4 50.9 60.0 51.1Q59.6 51.3 59 51.3ZM59 50.4L59 50.4Q59.4 50.4 59.6 50.3Q59.9 50.1 60.0 49.9Q60.2 49.6 60.3 49.2Q60.4 48.9 60.4 48.4L60.4 48.4Q60.4 48.0 60.3 47.7Q60.2 47.3 60.0 47.0Q59.9 46.8 59.6 46.6Q59.4 46.5 59 46.5L59 46.5Q58.6 46.5 58.4 46.6Q58.1 46.8 58.0 47.0Q57.8 47.3 57.7 47.7Q57.6 48.0 57.6 48.5L57.6 48.5Q57.6 48.9 57.7 49.2Q57.8 49.6 58.0 49.9Q58.1 50.1 58.4 50.3Q58.6 50.4 59 50.4ZM66.9 51.2L63.4 51.2Q63.1 51.2 62.9 51.1Q62.8 50.9 62.8 50.6L62.8 50.6Q62.8 50.5 62.8 50.3Q62.9 50.2 63.0 50.1L63.0 50.1L65.2 47.8Q65.3 47.6 65.5 47.4Q65.7 47.2 65.9 46.9Q66.1 46.7 66.2 46.4Q66.3 46.2 66.3 45.9L66.3 45.9Q66.3 45.6 66.2 45.4Q66.1 45.1 65.9 45.0Q65.7 44.8 65.4 44.8Q65.2 44.7 64.9 44.7L64.9 44.7Q64.5 44.7 64.2 44.8Q63.9 44.9 63.7 45.0L63.7 45.0Q63.5 45.2 63.3 45.1Q63.1 45 63.0 44.8L63.0 44.8Q62.9 44.7 63.0 44.5Q63.0 44.3 63.2 44.2L63.2 44.2Q63.5 44.0 63.9 43.9Q64.3 43.8 64.9 43.8L64.9 43.8Q65.4 43.8 65.8 43.9Q66.2 44.0 66.5 44.2Q66.8 44.5 67.0 44.8Q67.2 45.2 67.2 45.8L67.2 45.8Q67.2 46.1 67.1 46.5Q67.0 46.8 66.8 47.1Q66.7 47.4 66.4 47.7Q66.2 48.0 66.0 48.2L66.0 48.2L64.2 50.1Q64.1 50.2 64.2 50.2Q64.2 50.3 64.3 50.3L64.3 50.3L66.9 50.3Q67.2 50.3 67.3 50.4Q67.4 50.5 67.4 50.8L67.4 50.8Q67.4 51.0 67.3 51.1Q67.2 51.2 66.9 51.2L66.9 51.2ZM70.4 51.3L70.4 51.3Q70.1 51.3 69.7 51.2Q69.4 51.1 69.2 50.8Q69.0 50.5 68.8 50.1Q68.7 49.6 68.7 49.0L68.7 49.0Q68.7 48.3 68.8 47.7Q69.0 47.0 69.3 46.6Q69.5 46.1 70.0 45.9Q70.4 45.6 71 45.6L71 45.6Q71.5 45.6 71.8 45.8L71.8 45.8Q72.0 46.0 72.1 46.3L72.1 46.3Q72.1 46.2 72.1 46.0L72.1 46.0Q72.2 45.8 72.3 45.7Q72.4 45.6 72.7 45.6L72.7 45.6Q72.9 45.6 73.0 45.7Q73.1 45.8 73.0 46.0L73.0 46.0Q72.9 46.6 72.9 47.2Q72.8 47.8 72.9 48.4Q72.9 49.0 73.0 49.6Q73.0 50.2 73.2 50.9L73.2 50.9Q73.3 51.1 73.2 51.2Q73.1 51.3 72.9 51.3Q72.6 51.3 72.5 51.2Q72.3 51.1 72.3 50.9L72.3 50.9Q72.2 50.4 72.1 49.9L72.1 49.9Q72.0 50.1 72.0 50.3L72.0 50.3Q71.7 50.7 71.4 51.0Q71.0 51.3 70.4 51.3ZM70.5 50.4L70.5 50.4Q70.8 50.4 71.1 50.2Q71.3 50.1 71.5 49.8Q71.7 49.5 71.8 49.1Q72.0 48.6 72.0 48.1L72.0 48.1Q72.0 47.9 71.9 47.6Q71.9 47.3 71.8 47.1Q71.8 46.8 71.6 46.7Q71.4 46.5 71.1 46.5L71.1 46.5Q70.8 46.5 70.5 46.7Q70.2 46.9 70.0 47.2Q69.8 47.6 69.7 48.0Q69.6 48.5 69.6 49.1L69.6 49.1Q69.6 49.7 69.8 50.0Q70.0 50.4 70.5 50.4ZM75.3 45.6L75.3 45.6Q75.6 45.6 75.7 45.7Q75.8 45.8 75.8 46.1L75.8 46.1L75.8 46.7Q75.9 46.5 76.0 46.3Q76.2 46.1 76.3 45.9Q76.5 45.8 76.8 45.7Q77.0 45.6 77.3 45.6L77.3 45.6Q77.9 45.6 78.3 45.8Q78.6 46.1 78.8 46.5Q79.1 46.9 79.1 47.3Q79.2 47.8 79.2 48.3L79.2 48.3Q79.2 48.8 79.1 49.3Q79.0 49.9 78.8 50.3Q78.6 50.8 78.2 51.0Q77.8 51.3 77.2 51.3L77.2 51.3Q76.6 51.3 76.3 51.0Q75.9 50.7 75.8 50.3L75.8 50.3L75.8 52.7Q75.8 52.9 75.7 53.0Q75.6 53.1 75.3 53.1L75.3 53.1Q75.1 53.1 75.0 53.0Q74.9 52.9 74.9 52.7L74.9 52.7L74.9 46.1Q74.9 45.8 75.0 45.7Q75.1 45.6 75.3 45.6ZM77.2 46.5L77.2 46.5Q76.9 46.5 76.7 46.6Q76.4 46.7 76.2 46.9Q76.0 47.1 75.9 47.3Q75.8 47.5 75.8 47.8L75.8 47.8L75.8 48.9Q75.8 49.1 75.9 49.4Q76.0 49.6 76.1 49.9Q76.3 50.1 76.5 50.3Q76.8 50.4 77.0 50.4L77.0 50.4Q77.5 50.4 77.7 50.2Q78.0 50.0 78.1 49.7Q78.2 49.5 78.3 49.1Q78.3 48.7 78.3 48.3L78.3 48.3Q78.3 47.9 78.3 47.6Q78.2 47.3 78.1 47.0Q78.0 46.8 77.7 46.6Q77.5 46.5 77.2 46.5ZM83.7 50.3L85.1 50.3Q85.3 50.3 85.4 50.4Q85.5 50.6 85.5 50.8Q85.5 51.0 85.4 51.1Q85.3 51.2 85.1 51.2L85.1 51.2L81.3 51.2Q81.1 51.2 81.0 51.1Q80.8 51.0 80.8 50.8Q80.8 50.6 81.0 50.4Q81.1 50.3 81.3 50.3L81.3 50.3L82.8 50.3L82.8 47.2Q82.8 47 82.7 46.9Q82.6 46.8 82.4 46.8L82.4 46.8L81.5 46.8Q81.3 46.8 81.2 46.7Q81.0 46.6 81.0 46.4Q81.0 46.2 81.2 46.0Q81.3 45.9 81.5 45.9L81.5 45.9L82.9 45.9Q83.3 45.9 83.5 46.1Q83.7 46.3 83.7 46.7L83.7 46.7L83.7 50.3ZM83.2 44.9L83.2 44.9Q82.9 44.9 82.7 44.7Q82.5 44.6 82.5 44.3L82.5 44.3Q82.5 44.0 82.7 43.8Q82.9 43.6 83.2 43.6L83.2 43.6Q83.5 43.6 83.7 43.8Q83.9 44.0 83.9 44.3L83.9 44.3Q83.9 44.6 83.7 44.7Q83.5 44.9 83.2 44.9ZM88.2 50.5L88.2 50.5Q88.2 50.1 88.4 49.9Q88.7 49.6 89 49.6L89 49.6Q89.3 49.6 89.6 49.9Q89.8 50.1 89.8 50.5L89.8 50.5Q89.8 50.8 89.6 51.1Q89.3 51.3 89 51.3L89 51.3Q88.7 51.3 88.4 51.1Q88.2 50.8 88.2 50.5ZM88.2 46.8L88.2 46.8Q88.2 46.4 88.4 46.2Q88.7 45.9 89 45.9L89 45.9Q89.3 45.9 89.6 46.2Q89.8 46.4 89.8 46.8L89.8 46.8Q89.8 47.1 89.6 47.4Q89.3 47.6 89 47.6L89 47.6Q88.7 47.6 88.4 47.4Q88.2 47.1 88.2 46.8Z M99.3 45.6L99.3 45.6Q99.6 45.6 99.7 45.7Q99.8 45.8 99.8 46.1L99.8 46.1L99.8 46.7Q99.9 46.5 100.0 46.3Q100.2 46.1 100.3 45.9Q100.5 45.8 100.8 45.7Q101.0 45.6 101.3 45.6L101.3 45.6Q101.9 45.6 102.3 45.8Q102.6 46.1 102.8 46.5Q103.1 46.9 103.1 47.3Q103.2 47.8 103.2 48.3L103.2 48.3Q103.2 48.8 103.1 49.3Q103.0 49.9 102.8 50.3Q102.6 50.8 102.2 51.0Q101.8 51.3 101.2 51.3L101.2 51.3Q100.6 51.3 100.3 51.0Q99.9 50.7 99.8 50.3L99.8 50.3L99.8 52.7Q99.8 52.9 99.7 53.0Q99.6 53.1 99.3 53.1L99.3 53.1Q99.1 53.1 99.0 53.0Q98.9 52.9 98.9 52.7L98.9 52.7L98.9 46.1Q98.9 45.8 99.0 45.7Q99.1 45.6 99.3 45.6ZM101.2 46.5L101.2 46.5Q100.9 46.5 100.7 46.6Q100.4 46.7 100.2 46.9Q100.0 47.1 99.9 47.3Q99.8 47.5 99.8 47.8L99.8 47.8L99.8 48.9Q99.8 49.1 99.9 49.4Q100.0 49.6 100.1 49.9Q100.3 50.1 100.5 50.3Q100.8 50.4 101.0 50.4L101.0 50.4Q101.5 50.4 101.7 50.2Q102.0 50.0 102.1 49.7Q102.2 49.5 102.3 49.1Q102.3 48.7 102.3 48.3L102.3 48.3Q102.3 47.9 102.3 47.6Q102.2 47.3 102.1 47.0Q102.0 46.8 101.7 46.6Q101.5 46.5 101.2 46.5ZM108.2 48.9L108.2 46.1Q108.2 45.8 108.3 45.7Q108.4 45.6 108.6 45.6L108.6 45.6Q108.8 45.6 108.9 45.7Q109.0 45.8 109.0 46.1L109.0 46.1L109.0 50.9Q109.0 51.1 108.9 51.2Q108.8 51.3 108.6 51.3L108.6 51.3Q108.4 51.3 108.3 51.2Q108.2 51.1 108.2 50.9L108.2 50.9L108.2 50.3Q108.0 50.7 107.7 51.0Q107.3 51.3 106.8 51.3L106.8 51.3Q106.4 51.3 106.0 51.2Q105.7 51.0 105.5 50.8Q105.2 50.5 105.1 50.2Q105.0 49.8 105.0 49.4L105.0 49.4L105.0 46.1Q105.0 45.8 105.1 45.7Q105.2 45.6 105.4 45.6L105.4 45.6Q105.6 45.6 105.7 45.7Q105.8 45.8 105.8 46.1L105.8 46.1L105.8 49.1Q105.8 49.4 105.9 49.6Q106.0 49.9 106.1 50.1Q106.3 50.2 106.5 50.3Q106.7 50.5 106.9 50.5L106.9 50.5Q107.2 50.5 107.4 50.3Q107.7 50.1 107.8 49.9Q108.0 49.7 108.1 49.4Q108.2 49.1 108.2 48.9L108.2 48.9ZM113.0 51.3L113.0 51.3Q112.7 51.3 112.4 51.3Q112.2 51.2 111.9 51.1Q111.7 51.0 111.4 50.9Q111.2 50.7 111.0 50.5L111.0 50.5Q110.9 50.4 110.9 50.2Q110.8 50.1 110.8 50.0L110.8 50.0Q110.8 49.7 110.9 49.7Q111.0 49.6 111.2 49.6L111.2 49.6Q111.3 49.6 111.4 49.6Q111.5 49.7 111.6 49.8L111.6 49.8Q111.9 50.0 112.2 50.2Q112.5 50.4 113 50.4L113 50.4Q113.2 50.4 113.4 50.4Q113.6 50.4 113.8 50.3Q114.0 50.2 114.2 50.1Q114.3 49.9 114.3 49.7L114.3 49.7Q114.3 49.5 114.2 49.3Q114.0 49.2 113.8 49.1Q113.6 49.0 113.4 48.9Q113.2 48.8 113 48.8L113 48.8Q112.7 48.7 112.3 48.6Q112.0 48.5 111.7 48.4Q111.4 48.2 111.2 47.9Q111.0 47.6 111.0 47.1L111.0 47.1Q111.0 46.7 111.2 46.4Q111.3 46.1 111.6 46.0Q111.9 45.8 112.2 45.7Q112.6 45.6 113 45.6L113 45.6Q113.7 45.6 114.2 45.8Q114.7 46.0 115.0 46.5L115.0 46.5Q115.0 46.6 115.1 46.7Q115.1 46.7 115.1 46.8L115.1 46.8Q115.1 47.0 115.0 47.1Q114.9 47.2 114.7 47.2L114.7 47.2Q114.6 47.2 114.5 47.2Q114.4 47.1 114.3 47.0L114.3 47.0Q114.0 46.8 113.7 46.6Q113.5 46.5 113 46.5L113 46.5Q112.8 46.5 112.6 46.5Q112.4 46.6 112.2 46.7Q112.1 46.7 112.0 46.8Q111.9 47.0 111.9 47.1L111.9 47.1Q111.9 47.3 112.0 47.5Q112.1 47.6 112.3 47.7Q112.5 47.8 112.7 47.8Q112.8 47.9 113 47.9L113 47.9Q113.4 48.0 113.8 48.1Q114.2 48.2 114.5 48.4Q114.8 48.6 115 48.9Q115.2 49.2 115.2 49.7L115.2 49.7Q115.2 50.2 115.0 50.5Q114.8 50.8 114.5 50.9Q114.2 51.1 113.8 51.2Q113.5 51.3 113.0 51.3ZM117.8 48.0L117.8 50.9Q117.8 51.1 117.7 51.2Q117.6 51.3 117.4 51.3L117.4 51.3Q117.2 51.3 117.1 51.2Q117.0 51.1 117.0 50.9L117.0 50.9L117.0 44.3Q117.0 44.0 117.1 43.9Q117.2 43.8 117.4 43.8L117.4 43.8Q117.6 43.8 117.7 43.9Q117.8 44.0 117.8 44.3L117.8 44.3L117.8 46.6Q118.0 46.2 118.3 45.9Q118.7 45.6 119.2 45.6L119.2 45.6Q119.6 45.6 120.0 45.7Q120.3 45.9 120.5 46.1Q120.8 46.4 120.9 46.7Q121.0 47.1 121.0 47.5L121.0 47.5L121.0 50.9Q121.0 51.1 120.9 51.2Q120.8 51.3 120.6 51.3L120.6 51.3Q120.4 51.3 120.3 51.2Q120.2 51.1 120.2 50.9L120.2 50.9L120.2 47.8Q120.2 47.5 120.1 47.3Q120.0 47.0 119.9 46.9Q119.7 46.7 119.5 46.6Q119.3 46.5 119.1 46.5L119.1 46.5Q118.8 46.5 118.6 46.6Q118.3 46.8 118.2 47.0Q118.0 47.2 117.9 47.5Q117.8 47.8 117.8 48.0L117.8 48.0ZM123.0 51.0L123.0 51.0Q122.8 50.9 122.7 50.7Q122.7 50.6 122.8 50.4L122.8 50.4Q122.8 50.2 123.0 50.1Q123.2 50.0 123.4 50.1L123.4 50.1Q123.7 50.3 124.1 50.3Q124.4 50.4 124.7 50.4L124.7 50.4Q125.4 50.4 125.9 50.0Q126.3 49.7 126.3 48.9L126.3 48.9Q126.3 48.6 126.1 48.3Q125.8 48.1 125.5 48.0Q125.2 47.9 124.8 47.8Q124.4 47.8 124.0 47.8L124.0 47.8Q124.0 47.8 123.9 47.8Q123.8 47.8 123.7 47.7Q123.7 47.7 123.6 47.6Q123.6 47.5 123.6 47.4L123.6 47.4Q123.6 47.1 123.7 47.0Q123.9 46.9 124.2 46.9L124.2 46.9Q124.4 46.9 124.7 46.9Q125.0 46.8 125.3 46.7Q125.6 46.5 125.8 46.3Q126.0 46.1 126.0 45.7L126.0 45.7Q126.0 45.4 125.8 45.2Q125.7 45.0 125.5 44.9Q125.3 44.8 125.0 44.7Q124.8 44.7 124.5 44.7L124.5 44.7Q124.3 44.7 124.0 44.8Q123.8 44.8 123.5 44.9L123.5 44.9Q123.4 45.0 123.2 45.0Q123.1 44.9 123.0 44.7L123.0 44.7Q122.9 44.6 122.9 44.4Q123.0 44.2 123.2 44.1L123.2 44.1Q123.4 44.0 123.8 43.9Q124.1 43.8 124.5 43.8L124.5 43.8Q125.0 43.8 125.4 43.9Q125.8 44.0 126.1 44.2Q126.5 44.4 126.7 44.8Q126.9 45.1 126.9 45.6L126.9 45.6Q126.9 45.9 126.8 46.2Q126.7 46.5 126.6 46.7Q126.5 46.9 126.3 47.1Q126.0 47.2 125.8 47.3L125.8 47.3Q126.1 47.3 126.4 47.4Q126.7 47.6 126.9 47.9Q127.0 48.1 127.1 48.4Q127.2 48.8 127.2 49.2L127.2 49.2Q127.2 49.6 127.0 50.0Q126.9 50.4 126.6 50.7Q126.2 51.0 125.8 51.1Q125.3 51.3 124.7 51.3L124.7 51.3Q124.3 51.3 123.8 51.2Q123.3 51.1 123.0 51.0Z " clip-path="url(#satori_cp-id-1-0-1)" mask="url(#satori_om-id-1-0-1)"/><mask id="satori_om-id-1-1"><rect x="17" y="61" width="160" height="14" fill="#fff"/></mask><mask id="satori_om-id-1-1-0"><rect x="17" y="61" width="16" height="14" fill="#fff"/></mask><path x="17" y="61" width="16" height="14" fill="#1A7F3718" d="M21,61 h8 a4,4 0 0 1 4,4 v6 a4,4 0 0 1 -4,4 h-8 a4,4 0 0 1 -4,-4 v-6 a4,4 0 0 1 4,-4"/><path fill="#1A7F37" d="M22.5 68.0L22.5 68.0Q22.5 67.3 22.6 66.6Q22.8 66.0 23.1 65.5Q23.4 65.1 23.9 64.8Q24.5 64.5 25.2 64.5L25.2 64.5Q25.6 64.5 25.9 64.6Q26.2 64.7 26.4 64.8Q26.6 64.9 26.7 65.1Q26.8 65.2 26.9 65.4L26.9 65.4Q27.0 65.7 27.0 65.9Q26.9 66.1 26.7 66.2L26.7 66.2Q26.6 66.3 26.4 66.3Q26.1 66.2 26.0 66.0L26.0 66.0Q25.9 65.8 25.7 65.7Q25.5 65.6 25.2 65.6L25.2 65.6Q24.8 65.6 24.5 65.8Q24.2 66.0 24.0 66.3Q23.8 66.7 23.7 67.1Q23.7 67.5 23.7 67.9L23.7 67.9Q23.7 68.3 23.7 68.7Q23.8 69.1 24.0 69.4Q24.1 69.7 24.4 70.0Q24.7 70.2 25.2 70.2L25.2 70.2Q25.3 70.2 25.5 70.2Q25.6 70.1 25.7 70.1Q25.8 70.1 25.9 70.0Q26.0 70.0 26.0 69.9L26.0 69.9Q26.2 69.7 26.4 69.7Q26.6 69.8 26.8 69.9L26.8 69.9Q26.9 70.0 26.9 70.3Q27.0 70.5 26.8 70.7L26.8 70.7Q26.7 70.9 26.5 71.0Q26.3 71.1 26.1 71.2Q25.9 71.2 25.6 71.2Q25.4 71.3 25.2 71.3L25.2 71.3Q24.4 71.3 23.9 71.0Q23.3 70.7 23.0 70.3Q22.7 69.8 22.6 69.2Q22.5 68.6 22.5 68.0Z "/><clipPath id="satori_cp-id-1-1-1"><rect x="38" y="61" width="139" height="13"/></clipPath><mask id="satori_om-id-1-1-1"><rect x="38" y="61" width="139" height="13" fill="#fff"/></mask><path fill="#E6EDF3" d="M39.9 69.3L39.9 70.9Q39.9 71.1 39.8 71.2Q39.7 71.3 39.5 71.3Q39.2 71.3 39.1 71.2Q39 71.1 39 70.9L39 70.9L39 64.3Q39 64.0 39.1 63.9Q39.2 63.8 39.5 63.8Q39.7 63.8 39.8 63.9Q39.9 64.0 39.9 64.3L39.9 64.3L39.9 68.1L42.1 65.8Q42.3 65.7 42.4 65.7Q42.5 65.6 42.6 65.6L42.6 65.6Q42.8 65.6 42.9 65.7Q43.0 65.7 43.0 65.8Q43.0 65.9 43.0 66.0Q43.0 66.1 42.9 66.2L42.9 66.2L41.4 67.8L43.2 70.7Q43.3 70.9 43.3 71.0Q43.3 71.1 43.2 71.1Q43.2 71.2 43.1 71.3Q43 71.3 42.9 71.3L42.9 71.3Q42.7 71.3 42.6 71.3Q42.4 71.2 42.3 71.0L42.3 71.0L40.8 68.4L39.9 69.3ZM47.7 70.3L49.1 70.3Q49.3 70.3 49.4 70.4Q49.5 70.5 49.5 70.8Q49.5 71.0 49.4 71.1Q49.3 71.2 49.1 71.2L49.1 71.2L45.3 71.2Q45.1 71.2 45.0 71.1Q44.9 71.0 44.9 70.8Q44.9 70.5 45.0 70.4Q45.1 70.3 45.3 70.3L45.3 70.3L46.8 70.3L46.8 67.2Q46.8 67 46.7 66.9Q46.6 66.8 46.4 66.8L46.4 66.8L45.5 66.8Q45.3 66.8 45.2 66.7Q45.0 66.5 45.0 66.4Q45.0 66.2 45.2 66.0Q45.3 65.9 45.5 65.9L45.5 65.9L46.9 65.9Q47.3 65.9 47.5 66.1Q47.7 66.3 47.7 66.7L47.7 66.7L47.7 70.3ZM47.2 64.9L47.2 64.9Q46.9 64.9 46.7 64.7Q46.5 64.6 46.5 64.3L46.5 64.3Q46.5 64.0 46.7 63.8Q46.9 63.6 47.2 63.6L47.2 63.6Q47.5 63.6 47.7 63.8Q47.9 64.0 47.9 64.3L47.9 64.3Q47.9 64.6 47.7 64.7Q47.5 64.9 47.2 64.9ZM51.5 71.3L51.5 71.3Q51.3 71.3 51.2 71.2Q51.1 71.1 51.1 70.9L51.1 70.9L51.1 66.0Q51.1 65.8 51.2 65.7Q51.3 65.6 51.5 65.6L51.5 65.6Q51.8 65.6 51.9 65.7Q52 65.8 52 66.0L52 66.0L52 66.6Q52.1 66.4 52.3 66.2Q52.5 66.0 52.7 65.9Q53.0 65.8 53.3 65.7Q53.5 65.6 53.8 65.6L53.8 65.6Q54.3 65.6 54.6 65.8Q54.9 65.9 55.0 66.2Q55.2 66.5 55.2 66.8Q55.3 67.2 55.3 67.6L55.3 67.6L55.3 67.7Q55.3 67.9 55.2 68.0Q55.1 68.2 54.9 68.2L54.9 68.2Q54.6 68.2 54.5 68.0Q54.4 67.9 54.4 67.7L54.4 67.7L54.4 67.6Q54.4 67.4 54.4 67.2Q54.3 67.0 54.2 66.8Q54.1 66.7 54.0 66.6Q53.8 66.5 53.5 66.5L53.5 66.5Q53.3 66.5 53 66.6Q52.7 66.6 52.5 66.8Q52.3 66.9 52.1 67.2Q52 67.4 52 67.7L52 67.7L52 70.9Q52 71.1 51.9 71.2Q51.8 71.3 51.5 71.3ZM59 71.3L59 71.3Q58.4 71.3 58 71.1Q57.6 70.9 57.3 70.5Q57.0 70.1 56.9 69.6Q56.8 69.1 56.8 68.4L56.8 68.4Q56.8 67.8 56.9 67.3Q57.0 66.8 57.3 66.4Q57.6 66.0 58.0 65.8Q58.4 65.6 59 65.6L59 65.6Q59.6 65.6 60.0 65.8Q60.4 66.0 60.7 66.4Q61.0 66.8 61.1 67.3Q61.3 67.8 61.3 68.4L61.3 68.4Q61.3 69.1 61.1 69.6Q61.0 70.1 60.7 70.5Q60.4 70.9 60.0 71.1Q59.6 71.3 59 71.3ZM59 70.4L59 70.4Q59.4 70.4 59.6 70.3Q59.9 70.1 60.0 69.9Q60.2 69.6 60.3 69.2Q60.4 68.9 60.4 68.4L60.4 68.4Q60.4 68.0 60.3 67.7Q60.2 67.3 60.0 67.0Q59.9 66.8 59.6 66.6Q59.4 66.5 59 66.5L59 66.5Q58.6 66.5 58.4 66.6Q58.1 66.8 58.0 67.0Q57.8 67.3 57.7 67.7Q57.6 68.0 57.6 68.5L57.6 68.5Q57.6 68.9 57.7 69.2Q57.8 69.6 58.0 69.9Q58.1 70.1 58.4 70.3Q58.6 70.4 59 70.4ZM66.9 71.2L63.4 71.2Q63.1 71.2 62.9 71.1Q62.8 70.9 62.8 70.6L62.8 70.6Q62.8 70.5 62.8 70.3Q62.9 70.2 63.0 70.1L63.0 70.1L65.2 67.8Q65.3 67.6 65.5 67.4Q65.7 67.2 65.9 66.9Q66.1 66.7 66.2 66.4Q66.3 66.2 66.3 65.9L66.3 65.9Q66.3 65.6 66.2 65.4Q66.1 65.1 65.9 65.0Q65.7 64.8 65.4 64.8Q65.2 64.7 64.9 64.7L64.9 64.7Q64.5 64.7 64.2 64.8Q63.9 64.9 63.7 65.0L63.7 65.0Q63.5 65.2 63.3 65.1Q63.1 65 63.0 64.8L63.0 64.8Q62.9 64.7 63.0 64.5Q63.0 64.3 63.2 64.2L63.2 64.2Q63.5 64.0 63.9 63.9Q64.3 63.8 64.9 63.8L64.9 63.8Q65.4 63.8 65.8 63.9Q66.2 64.0 66.5 64.2Q66.8 64.5 67.0 64.8Q67.2 65.2 67.2 65.8L67.2 65.8Q67.2 66.1 67.1 66.5Q67.0 66.8 66.8 67.1Q66.7 67.4 66.4 67.7Q66.2 68.0 66.0 68.2L66.0 68.2L64.2 70.1Q64.1 70.2 64.2 70.2Q64.2 70.3 64.3 70.3L64.3 70.3L66.9 70.3Q67.2 70.3 67.3 70.4Q67.4 70.5 67.4 70.8L67.4 70.8Q67.4 71.0 67.3 71.1Q67.2 71.2 66.9 71.2L66.9 71.2ZM70.4 71.3L70.4 71.3Q70.1 71.3 69.7 71.2Q69.4 71.1 69.2 70.8Q69.0 70.5 68.8 70.1Q68.7 69.6 68.7 69.0L68.7 69.0Q68.7 68.3 68.8 67.7Q69.0 67.0 69.3 66.6Q69.5 66.1 70.0 65.9Q70.4 65.6 71 65.6L71 65.6Q71.5 65.6 71.8 65.8L71.8 65.8Q72.0 66.0 72.1 66.3L72.1 66.3Q72.1 66.2 72.1 66.0L72.1 66.0Q72.2 65.8 72.3 65.7Q72.4 65.6 72.7 65.6L72.7 65.6Q72.9 65.6 73.0 65.7Q73.1 65.8 73.0 66.0L73.0 66.0Q72.9 66.6 72.9 67.2Q72.8 67.8 72.9 68.4Q72.9 69.0 73.0 69.6Q73.0 70.2 73.2 70.9L73.2 70.9Q73.3 71.1 73.2 71.2Q73.1 71.3 72.9 71.3Q72.6 71.3 72.5 71.2Q72.3 71.1 72.3 70.9L72.3 70.9Q72.2 70.4 72.1 69.9L72.1 69.9Q72.0 70.1 72.0 70.3L72.0 70.3Q71.7 70.7 71.4 71.0Q71.0 71.3 70.4 71.3ZM70.5 70.4L70.5 70.4Q70.8 70.4 71.1 70.2Q71.3 70.1 71.5 69.8Q71.7 69.5 71.8 69.0Q72.0 68.6 72.0 68.1L72.0 68.1Q72.0 67.9 71.9 67.6Q71.9 67.3 71.8 67.1Q71.8 66.8 71.6 66.7Q71.4 66.5 71.1 66.5L71.1 66.5Q70.8 66.5 70.5 66.7Q70.2 66.9 70.0 67.2Q69.8 67.6 69.7 68.0Q69.6 68.5 69.6 69.0L69.6 69.0Q69.6 69.7 69.8 70.0Q70.0 70.4 70.5 70.4ZM75.3 65.6L75.3 65.6Q75.6 65.6 75.7 65.7Q75.8 65.8 75.8 66.1L75.8 66.1L75.8 66.7Q75.9 66.5 76.0 66.3Q76.2 66.0 76.3 65.9Q76.5 65.8 76.8 65.7Q77.0 65.6 77.3 65.6L77.3 65.6Q77.9 65.6 78.3 65.8Q78.6 66.1 78.8 66.5Q79.1 66.9 79.1 67.3Q79.2 67.8 79.2 68.3L79.2 68.3Q79.2 68.8 79.1 69.3Q79.0 69.9 78.8 70.3Q78.6 70.8 78.2 71.0Q77.8 71.3 77.2 71.3L77.2 71.3Q76.6 71.3 76.3 71.0Q75.9 70.7 75.8 70.3L75.8 70.3L75.8 72.7Q75.8 72.9 75.7 73.0Q75.6 73.1 75.3 73.1L75.3 73.1Q75.1 73.1 75.0 73.0Q74.9 72.9 74.9 72.7L74.9 72.7L74.9 66.1Q74.9 65.8 75.0 65.7Q75.1 65.6 75.3 65.6ZM77.2 66.5L77.2 66.5Q76.9 66.5 76.7 66.6Q76.4 66.7 76.2 66.9Q76.0 67.1 75.9 67.3Q75.8 67.5 75.8 67.8L75.8 67.8L75.8 68.9Q75.8 69.1 75.9 69.4Q76.0 69.6 76.1 69.9Q76.3 70.1 76.5 70.3Q76.8 70.4 77.0 70.4L77.0 70.4Q77.5 70.4 77.7 70.2Q78.0 70.0 78.1 69.7Q78.2 69.5 78.3 69.1Q78.3 68.7 78.3 68.3L78.3 68.3Q78.3 67.9 78.3 67.6Q78.2 67.3 78.1 67.0Q78.0 66.8 77.7 66.6Q77.5 66.5 77.2 66.5ZM83.7 70.3L85.1 70.3Q85.3 70.3 85.4 70.4Q85.5 70.5 85.5 70.8Q85.5 71.0 85.4 71.1Q85.3 71.2 85.1 71.2L85.1 71.2L81.3 71.2Q81.1 71.2 81.0 71.1Q80.8 71.0 80.8 70.8Q80.8 70.5 81.0 70.4Q81.1 70.3 81.3 70.3L81.3 70.3L82.8 70.3L82.8 67.2Q82.8 67 82.7 66.9Q82.6 66.8 82.4 66.8L82.4 66.8L81.5 66.8Q81.3 66.8 81.2 66.7Q81.0 66.5 81.0 66.4Q81.0 66.2 81.2 66.0Q81.3 65.9 81.5 65.9L81.5 65.9L82.9 65.9Q83.3 65.9 83.5 66.1Q83.7 66.3 83.7 66.7L83.7 66.7L83.7 70.3ZM83.2 64.9L83.2 64.9Q82.9 64.9 82.7 64.7Q82.5 64.6 82.5 64.3L82.5 64.3Q82.5 64.0 82.7 63.8Q82.9 63.6 83.2 63.6L83.2 63.6Q83.5 63.6 83.7 63.8Q83.9 64.0 83.9 64.3L83.9 64.3Q83.9 64.6 83.7 64.7Q83.5 64.9 83.2 64.9ZM88.2 70.5L88.2 70.5Q88.2 70.1 88.4 69.9Q88.7 69.6 89 69.6L89 69.6Q89.3 69.6 89.6 69.9Q89.8 70.1 89.8 70.5L89.8 70.5Q89.8 70.8 89.6 71.0Q89.3 71.3 89 71.3L89 71.3Q88.7 71.3 88.4 71.0Q88.2 70.8 88.2 70.5ZM88.2 66.8L88.2 66.8Q88.2 66.4 88.4 66.2Q88.7 65.9 89 65.9L89 65.9Q89.3 65.9 89.6 66.2Q89.8 66.4 89.8 66.8L89.8 66.8Q89.8 67.1 89.6 67.4Q89.3 67.6 89 67.6L89 67.6Q88.7 67.6 88.4 67.4Q88.2 67.1 88.2 66.8Z M99.3 65.6L99.3 65.6Q99.6 65.6 99.7 65.7Q99.8 65.8 99.8 66.1L99.8 66.1L99.8 66.7Q99.9 66.5 100.0 66.3Q100.2 66.0 100.3 65.9Q100.5 65.8 100.8 65.7Q101.0 65.6 101.3 65.6L101.3 65.6Q101.9 65.6 102.3 65.8Q102.6 66.1 102.8 66.5Q103.1 66.9 103.1 67.3Q103.2 67.8 103.2 68.3L103.2 68.3Q103.2 68.8 103.1 69.3Q103.0 69.9 102.8 70.3Q102.6 70.8 102.2 71.0Q101.8 71.3 101.2 71.3L101.2 71.3Q100.6 71.3 100.3 71.0Q99.9 70.7 99.8 70.3L99.8 70.3L99.8 72.7Q99.8 72.9 99.7 73.0Q99.6 73.1 99.3 73.1L99.3 73.1Q99.1 73.1 99.0 73.0Q98.9 72.9 98.9 72.7L98.9 72.7L98.9 66.1Q98.9 65.8 99.0 65.7Q99.1 65.6 99.3 65.6ZM101.2 66.5L101.2 66.5Q100.9 66.5 100.7 66.6Q100.4 66.7 100.2 66.9Q100.0 67.1 99.9 67.3Q99.8 67.5 99.8 67.8L99.8 67.8L99.8 68.9Q99.8 69.1 99.9 69.4Q100.0 69.6 100.1 69.9Q100.3 70.1 100.5 70.3Q100.8 70.4 101.0 70.4L101.0 70.4Q101.5 70.4 101.7 70.2Q102.0 70.0 102.1 69.7Q102.2 69.5 102.3 69.1Q102.3 68.7 102.3 68.3L102.3 68.3Q102.3 67.9 102.3 67.6Q102.2 67.3 102.1 67.0Q102.0 66.8 101.7 66.6Q101.5 66.5 101.2 66.5ZM108.2 68.9L108.2 66.0Q108.2 65.8 108.3 65.7Q108.4 65.6 108.6 65.6L108.6 65.6Q108.8 65.6 108.9 65.7Q109.0 65.8 109.0 66.0L109.0 66.0L109.0 70.9Q109.0 71.1 108.9 71.2Q108.8 71.3 108.6 71.3L108.6 71.3Q108.4 71.3 108.3 71.2Q108.2 71.1 108.2 70.9L108.2 70.9L108.2 70.3Q108.0 70.7 107.7 71.0Q107.3 71.3 106.8 71.3L106.8 71.3Q106.4 71.3 106.0 71.2Q105.7 71.0 105.5 70.8Q105.2 70.5 105.1 70.2Q105.0 69.8 105.0 69.4L105.0 69.4L105.0 66.0Q105.0 65.8 105.1 65.7Q105.2 65.6 105.4 65.6L105.4 65.6Q105.6 65.6 105.7 65.7Q105.8 65.8 105.8 66.0L105.8 66.0L105.8 69.1Q105.8 69.4 105.9 69.6Q106.0 69.9 106.1 70.0Q106.3 70.2 106.5 70.3Q106.7 70.5 106.9 70.5L106.9 70.5Q107.2 70.5 107.4 70.3Q107.7 70.1 107.8 69.9Q108.0 69.7 108.1 69.4Q108.2 69.1 108.2 68.9L108.2 68.9ZM113.0 71.3L113.0 71.3Q112.7 71.3 112.4 71.3Q112.2 71.2 111.9 71.1Q111.7 71.0 111.4 70.9Q111.2 70.7 111.0 70.5L111.0 70.5Q110.9 70.4 110.9 70.2Q110.8 70.1 110.8 70.0L110.8 70.0Q110.8 69.7 110.9 69.7Q111.0 69.6 111.2 69.6L111.2 69.6Q111.3 69.6 111.4 69.6Q111.5 69.7 111.6 69.8L111.6 69.8Q111.9 70.0 112.2 70.2Q112.5 70.4 113 70.4L113 70.4Q113.2 70.4 113.4 70.4Q113.6 70.4 113.8 70.3Q114.0 70.2 114.2 70.1Q114.3 69.9 114.3 69.7L114.3 69.7Q114.3 69.5 114.2 69.3Q114.0 69.2 113.8 69.1Q113.6 69.0 113.4 68.9Q113.2 68.8 113 68.8L113 68.8Q112.7 68.7 112.3 68.6Q112.0 68.5 111.7 68.4Q111.4 68.2 111.2 67.9Q111.0 67.6 111.0 67.1L111.0 67.1Q111.0 66.7 111.2 66.4Q111.3 66.1 111.6 66.0Q111.9 65.8 112.2 65.7Q112.6 65.6 113 65.6L113 65.6Q113.7 65.6 114.2 65.8Q114.7 66.0 115.0 66.5L115.0 66.5Q115.0 66.6 115.1 66.7Q115.1 66.7 115.1 66.8L115.1 66.8Q115.1 67.0 115.0 67.1Q114.9 67.2 114.7 67.2L114.7 67.2Q114.6 67.2 114.5 67.2Q114.4 67.1 114.3 67.0L114.3 67.0Q114.0 66.8 113.7 66.6Q113.5 66.5 113 66.5L113 66.5Q112.8 66.5 112.6 66.5Q112.4 66.6 112.2 66.7Q112.1 66.7 112.0 66.8Q111.9 67.0 111.9 67.1L111.9 67.1Q111.9 67.3 112.0 67.5Q112.1 67.6 112.3 67.7Q112.5 67.8 112.7 67.8Q112.8 67.9 113 67.9L113 67.9Q113.4 68.0 113.8 68.1Q114.2 68.2 114.5 68.4Q114.8 68.6 115 68.9Q115.2 69.2 115.2 69.7L115.2 69.7Q115.2 70.2 115.0 70.5Q114.8 70.8 114.5 70.9Q114.2 71.1 113.8 71.2Q113.5 71.3 113.0 71.3ZM117.8 68.0L117.8 70.9Q117.8 71.1 117.7 71.2Q117.6 71.3 117.4 71.3L117.4 71.3Q117.2 71.3 117.1 71.2Q117.0 71.1 117.0 70.9L117.0 70.9L117.0 64.3Q117.0 64.0 117.1 63.9Q117.2 63.8 117.4 63.8L117.4 63.8Q117.6 63.8 117.7 63.9Q117.8 64.0 117.8 64.3L117.8 64.3L117.8 66.6Q118.0 66.2 118.3 65.9Q118.7 65.6 119.2 65.6L119.2 65.6Q119.6 65.6 120.0 65.7Q120.3 65.9 120.5 66.1Q120.8 66.4 120.9 66.7Q121.0 67.1 121.0 67.5L121.0 67.5L121.0 70.9Q121.0 71.1 120.9 71.2Q120.8 71.3 120.6 71.3L120.6 71.3Q120.4 71.3 120.3 71.2Q120.2 71.1 120.2 70.9L120.2 70.9L120.2 67.8Q120.2 67.5 120.1 67.3Q120.0 67.0 119.9 66.9Q119.7 66.7 119.5 66.6Q119.3 66.5 119.1 66.5L119.1 66.5Q118.8 66.5 118.6 66.6Q118.3 66.8 118.2 67.0Q118.0 67.2 117.9 67.5Q117.8 67.8 117.8 68.0L117.8 68.0Z " clip-path="url(#satori_cp-id-1-1-1)" mask="url(#satori_om-id-1-1-1)"/><mask id="satori_om-id-1-2"><rect x="17" y="81" width="160" height="13" fill="#fff"/></mask><mask id="satori_om-id-1-2-0"><rect x="17" y="81" width="16" height="13" fill="#fff"/></mask><path x="17" y="81" width="16" height="13" fill="#1A7F3718" d="M21,81 h8 a4,4 0 0 1 4,4 v5 a4,4 0 0 1 -4,4 h-8 a4,4 0 0 1 -4,-4 v-5 a4,4 0 0 1 4,-4"/><path fill="#1A7F37" d="M22.5 88.0L22.5 88.0Q22.5 87.3 22.6 86.6Q22.8 86.0 23.1 85.5Q23.4 85.1 23.9 84.8Q24.5 84.5 25.2 84.5L25.2 84.5Q25.6 84.5 25.9 84.6Q26.2 84.7 26.4 84.8Q26.6 84.9 26.7 85.1Q26.8 85.2 26.9 85.4L26.9 85.4Q27.0 85.7 27.0 85.9Q26.9 86.1 26.7 86.2L26.7 86.2Q26.6 86.3 26.4 86.3Q26.1 86.2 26.0 86.0L26.0 86.0Q25.9 85.8 25.7 85.7Q25.5 85.6 25.2 85.6L25.2 85.6Q24.8 85.6 24.5 85.8Q24.2 86.0 24.0 86.3Q23.8 86.7 23.7 87.1Q23.7 87.5 23.7 87.9L23.7 87.9Q23.7 88.3 23.7 88.7Q23.8 89.1 24.0 89.4Q24.1 89.7 24.4 90.0Q24.7 90.2 25.2 90.2L25.2 90.2Q25.3 90.2 25.5 90.2Q25.6 90.1 25.7 90.1Q25.8 90.1 25.9 90.0Q26.0 90.0 26.0 89.9L26.0 89.9Q26.2 89.7 26.4 89.7Q26.6 89.8 26.8 89.9L26.8 89.9Q26.9 90.0 26.9 90.3Q27.0 90.5 26.8 90.7L26.8 90.7Q26.7 90.9 26.5 91.0Q26.3 91.1 26.1 91.2Q25.9 91.2 25.6 91.2Q25.4 91.3 25.2 91.3L25.2 91.3Q24.4 91.3 23.9 91.0Q23.3 90.7 23.0 90.3Q22.7 89.8 22.6 89.2Q22.5 88.6 22.5 88.0Z "/><clipPath id="satori_cp-id-1-2-1"><rect x="38" y="81" width="139" height="13"/></clipPath><mask id="satori_om-id-1-2-1"><rect x="38" y="81" width="139" height="13" fill="#fff"/></mask><path fill="#E6EDF3" d="M39.9 89.3L39.9 90.9Q39.9 91.1 39.8 91.2Q39.7 91.3 39.5 91.3Q39.2 91.3 39.1 91.2Q39 91.1 39 90.9L39 90.9L39 84.3Q39 84.0 39.1 83.9Q39.2 83.8 39.5 83.8Q39.7 83.8 39.8 83.9Q39.9 84.0 39.9 84.3L39.9 84.3L39.9 88.1L42.1 85.8Q42.3 85.7 42.4 85.7Q42.5 85.6 42.6 85.6L42.6 85.6Q42.8 85.6 42.9 85.7Q43.0 85.7 43.0 85.8Q43.0 85.9 43.0 86.0Q43.0 86.1 42.9 86.2L42.9 86.2L41.4 87.8L43.2 90.7Q43.3 90.9 43.3 91.0Q43.3 91.1 43.2 91.1Q43.2 91.2 43.1 91.3Q43 91.3 42.9 91.3L42.9 91.3Q42.7 91.3 42.6 91.3Q42.4 91.2 42.3 91.0L42.3 91.0L40.8 88.4L39.9 89.3ZM47.7 90.3L49.1 90.3Q49.3 90.3 49.4 90.4Q49.5 90.5 49.5 90.8Q49.5 91.0 49.4 91.1Q49.3 91.2 49.1 91.2L49.1 91.2L45.3 91.2Q45.1 91.2 45.0 91.1Q44.9 91.0 44.9 90.8Q44.9 90.5 45.0 90.4Q45.1 90.3 45.3 90.3L45.3 90.3L46.8 90.3L46.8 87.2Q46.8 87 46.7 86.9Q46.6 86.8 46.4 86.8L46.4 86.8L45.5 86.8Q45.3 86.8 45.2 86.7Q45.0 86.5 45.0 86.4Q45.0 86.2 45.2 86.0Q45.3 85.9 45.5 85.9L45.5 85.9L46.9 85.9Q47.3 85.9 47.5 86.1Q47.7 86.3 47.7 86.7L47.7 86.7L47.7 90.3ZM47.2 84.9L47.2 84.9Q46.9 84.9 46.7 84.7Q46.5 84.6 46.5 84.3L46.5 84.3Q46.5 84.0 46.7 83.8Q46.9 83.6 47.2 83.6L47.2 83.6Q47.5 83.6 47.7 83.8Q47.9 84.0 47.9 84.3L47.9 84.3Q47.9 84.6 47.7 84.7Q47.5 84.9 47.2 84.9ZM51.5 91.3L51.5 91.3Q51.3 91.3 51.2 91.2Q51.1 91.1 51.1 90.9L51.1 90.9L51.1 86.0Q51.1 85.8 51.2 85.7Q51.3 85.6 51.5 85.6L51.5 85.6Q51.8 85.6 51.9 85.7Q52 85.8 52 86.0L52 86.0L52 86.6Q52.1 86.4 52.3 86.2Q52.5 86.0 52.7 85.9Q53.0 85.8 53.3 85.7Q53.5 85.6 53.8 85.6L53.8 85.6Q54.3 85.6 54.6 85.8Q54.9 85.9 55.0 86.2Q55.2 86.5 55.2 86.8Q55.3 87.2 55.3 87.6L55.3 87.6L55.3 87.7Q55.3 87.9 55.2 88.0Q55.1 88.2 54.9 88.2L54.9 88.2Q54.6 88.2 54.5 88.0Q54.4 87.9 54.4 87.7L54.4 87.7L54.4 87.6Q54.4 87.4 54.4 87.2Q54.3 87.0 54.2 86.8Q54.1 86.7 54.0 86.6Q53.8 86.5 53.5 86.5L53.5 86.5Q53.3 86.5 53 86.6Q52.7 86.6 52.5 86.8Q52.3 86.9 52.1 87.2Q52 87.4 52 87.7L52 87.7L52 90.9Q52 91.1 51.9 91.2Q51.8 91.3 51.5 91.3ZM59 91.3L59 91.3Q58.4 91.3 58 91.1Q57.6 90.9 57.3 90.5Q57.0 90.1 56.9 89.6Q56.8 89.1 56.8 88.4L56.8 88.4Q56.8 87.8 56.9 87.3Q57.0 86.8 57.3 86.4Q57.6 86.0 58.0 85.8Q58.4 85.6 59 85.6L59 85.6Q59.6 85.6 60.0 85.8Q60.4 86.0 60.7 86.4Q61.0 86.8 61.1 87.3Q61.3 87.8 61.3 88.4L61.3 88.4Q61.3 89.1 61.1 89.6Q61.0 90.1 60.7 90.5Q60.4 90.9 60.0 91.1Q59.6 91.3 59 91.3ZM59 90.4L59 90.4Q59.4 90.4 59.6 90.3Q59.9 90.1 60.0 89.9Q60.2 89.6 60.3 89.2Q60.4 88.9 60.4 88.4L60.4 88.4Q60.4 88.0 60.3 87.7Q60.2 87.3 60.0 87.0Q59.9 86.8 59.6 86.6Q59.4 86.5 59 86.5L59 86.5Q58.6 86.5 58.4 86.6Q58.1 86.8 58.0 87.0Q57.8 87.3 57.7 87.7Q57.6 88.0 57.6 88.5L57.6 88.5Q57.6 88.9 57.7 89.2Q57.8 89.6 58.0 89.9Q58.1 90.1 58.4 90.3Q58.6 90.4 59 90.4ZM66.9 91.2L63.4 91.2Q63.1 91.2 62.9 91.1Q62.8 90.9 62.8 90.6L62.8 90.6Q62.8 90.5 62.8 90.3Q62.9 90.2 63.0 90.1L63.0 90.1L65.2 87.8Q65.3 87.6 65.5 87.4Q65.7 87.2 65.9 86.9Q66.1 86.7 66.2 86.4Q66.3 86.2 66.3 85.9L66.3 85.9Q66.3 85.6 66.2 85.4Q66.1 85.1 65.9 85.0Q65.7 84.8 65.4 84.8Q65.2 84.7 64.9 84.7L64.9 84.7Q64.5 84.7 64.2 84.8Q63.9 84.9 63.7 85.0L63.7 85.0Q63.5 85.2 63.3 85.1Q63.1 85 63.0 84.8L63.0 84.8Q62.9 84.7 63.0 84.5Q63.0 84.3 63.2 84.2L63.2 84.2Q63.5 84.0 63.9 83.9Q64.3 83.8 64.9 83.8L64.9 83.8Q65.4 83.8 65.8 83.9Q66.2 84.0 66.5 84.2Q66.8 84.5 67.0 84.8Q67.2 85.2 67.2 85.8L67.2 85.8Q67.2 86.1 67.1 86.5Q67.0 86.8 66.8 87.1Q66.7 87.4 66.4 87.7Q66.2 88.0 66.0 88.2L66.0 88.2L64.2 90.1Q64.1 90.2 64.2 90.2Q64.2 90.3 64.3 90.3L64.3 90.3L66.9 90.3Q67.2 90.3 67.3 90.4Q67.4 90.5 67.4 90.8L67.4 90.8Q67.4 91.0 67.3 91.1Q67.2 91.2 66.9 91.2L66.9 91.2ZM70.4 91.3L70.4 91.3Q70.1 91.3 69.7 91.2Q69.4 91.1 69.2 90.8Q69.0 90.5 68.8 90.1Q68.7 89.6 68.7 89.0L68.7 89.0Q68.7 88.3 68.8 87.7Q69.0 87.0 69.3 86.6Q69.5 86.1 70.0 85.9Q70.4 85.6 71 85.6L71 85.6Q71.5 85.6 71.8 85.8L71.8 85.8Q72.0 86.0 72.1 86.3L72.1 86.3Q72.1 86.2 72.1 86.0L72.1 86.0Q72.2 85.8 72.3 85.7Q72.4 85.6 72.7 85.6L72.7 85.6Q72.9 85.6 73.0 85.7Q73.1 85.8 73.0 86.0L73.0 86.0Q72.9 86.6 72.9 87.2Q72.8 87.8 72.9 88.4Q72.9 89.0 73.0 89.6Q73.0 90.2 73.2 90.9L73.2 90.9Q73.3 91.1 73.2 91.2Q73.1 91.3 72.9 91.3Q72.6 91.3 72.5 91.2Q72.3 91.1 72.3 90.9L72.3 90.9Q72.2 90.4 72.1 89.9L72.1 89.9Q72.0 90.1 72.0 90.3L72.0 90.3Q71.7 90.7 71.4 91.0Q71.0 91.3 70.4 91.3ZM70.5 90.4L70.5 90.4Q70.8 90.4 71.1 90.2Q71.3 90.1 71.5 89.8Q71.7 89.5 71.8 89.0Q72.0 88.6 72.0 88.1L72.0 88.1Q72.0 87.9 71.9 87.6Q71.9 87.3 71.8 87.1Q71.8 86.8 71.6 86.7Q71.4 86.5 71.1 86.5L71.1 86.5Q70.8 86.5 70.5 86.7Q70.2 86.9 70.0 87.2Q69.8 87.6 69.7 88.0Q69.6 88.5 69.6 89.0L69.6 89.0Q69.6 89.7 69.8 90.0Q70.0 90.4 70.5 90.4ZM75.3 85.6L75.3 85.6Q75.6 85.6 75.7 85.7Q75.8 85.8 75.8 86.1L75.8 86.1L75.8 86.7Q75.9 86.5 76.0 86.3Q76.2 86.0 76.3 85.9Q76.5 85.8 76.8 85.7Q77.0 85.6 77.3 85.6L77.3 85.6Q77.9 85.6 78.3 85.8Q78.6 86.1 78.8 86.5Q79.1 86.9 79.1 87.3Q79.2 87.8 79.2 88.3L79.2 88.3Q79.2 88.8 79.1 89.3Q79.0 89.9 78.8 90.3Q78.6 90.8 78.2 91.0Q77.8 91.3 77.2 91.3L77.2 91.3Q76.6 91.3 76.3 91.0Q75.9 90.7 75.8 90.3L75.8 90.3L75.8 92.7Q75.8 92.9 75.7 93.0Q75.6 93.1 75.3 93.1L75.3 93.1Q75.1 93.1 75.0 93.0Q74.9 92.9 74.9 92.7L74.9 92.7L74.9 86.1Q74.9 85.8 75.0 85.7Q75.1 85.6 75.3 85.6ZM77.2 86.5L77.2 86.5Q76.9 86.5 76.7 86.6Q76.4 86.7 76.2 86.9Q76.0 87.1 75.9 87.3Q75.8 87.5 75.8 87.8L75.8 87.8L75.8 88.9Q75.8 89.1 75.9 89.4Q76.0 89.6 76.1 89.9Q76.3 90.1 76.5 90.3Q76.8 90.4 77.0 90.4L77.0 90.4Q77.5 90.4 77.7 90.2Q78.0 90.0 78.1 89.7Q78.2 89.5 78.3 89.1Q78.3 88.7 78.3 88.3L78.3 88.3Q78.3 87.9 78.3 87.6Q78.2 87.3 78.1 87.0Q78.0 86.8 77.7 86.6Q77.5 86.5 77.2 86.5ZM83.7 90.3L85.1 90.3Q85.3 90.3 85.4 90.4Q85.5 90.5 85.5 90.8Q85.5 91.0 85.4 91.1Q85.3 91.2 85.1 91.2L85.1 91.2L81.3 91.2Q81.1 91.2 81.0 91.1Q80.8 91.0 80.8 90.8Q80.8 90.5 81.0 90.4Q81.1 90.3 81.3 90.3L81.3 90.3L82.8 90.3L82.8 87.2Q82.8 87 82.7 86.9Q82.6 86.8 82.4 86.8L82.4 86.8L81.5 86.8Q81.3 86.8 81.2 86.7Q81.0 86.5 81.0 86.4Q81.0 86.2 81.2 86.0Q81.3 85.9 81.5 85.9L81.5 85.9L82.9 85.9Q83.3 85.9 83.5 86.1Q83.7 86.3 83.7 86.7L83.7 86.7L83.7 90.3ZM83.2 84.9L83.2 84.9Q82.9 84.9 82.7 84.7Q82.5 84.6 82.5 84.3L82.5 84.3Q82.5 84.0 82.7 83.8Q82.9 83.6 83.2 83.6L83.2 83.6Q83.5 83.6 83.7 83.8Q83.9 84.0 83.9 84.3L83.9 84.3Q83.9 84.6 83.7 84.7Q83.5 84.9 83.2 84.9ZM88.2 90.5L88.2 90.5Q88.2 90.1 88.4 89.9Q88.7 89.6 89 89.6L89 89.6Q89.3 89.6 89.6 89.9Q89.8 90.1 89.8 90.5L89.8 90.5Q89.8 90.8 89.6 91.0Q89.3 91.3 89 91.3L89 91.3Q88.7 91.3 88.4 91.0Q88.2 90.8 88.2 90.5ZM88.2 86.8L88.2 86.8Q88.2 86.4 88.4 86.2Q88.7 85.9 89 85.9L89 85.9Q89.3 85.9 89.6 86.2Q89.8 86.4 89.8 86.8L89.8 86.8Q89.8 87.1 89.6 87.4Q89.3 87.6 89 87.6L89 87.6Q88.7 87.6 88.4 87.4Q88.2 87.1 88.2 86.8Z M99.3 85.6L99.3 85.6Q99.6 85.6 99.7 85.7Q99.8 85.8 99.8 86.1L99.8 86.1L99.8 86.7Q99.9 86.5 100.0 86.3Q100.2 86.0 100.3 85.9Q100.5 85.8 100.8 85.7Q101.0 85.6 101.3 85.6L101.3 85.6Q101.9 85.6 102.3 85.8Q102.6 86.1 102.8 86.5Q103.1 86.9 103.1 87.3Q103.2 87.8 103.2 88.3L103.2 88.3Q103.2 88.8 103.1 89.3Q103.0 89.9 102.8 90.3Q102.6 90.8 102.2 91.0Q101.8 91.3 101.2 91.3L101.2 91.3Q100.6 91.3 100.3 91.0Q99.9 90.7 99.8 90.3L99.8 90.3L99.8 92.7Q99.8 92.9 99.7 93.0Q99.6 93.1 99.3 93.1L99.3 93.1Q99.1 93.1 99.0 93.0Q98.9 92.9 98.9 92.7L98.9 92.7L98.9 86.1Q98.9 85.8 99.0 85.7Q99.1 85.6 99.3 85.6ZM101.2 86.5L101.2 86.5Q100.9 86.5 100.7 86.6Q100.4 86.7 100.2 86.9Q100.0 87.1 99.9 87.3Q99.8 87.5 99.8 87.8L99.8 87.8L99.8 88.9Q99.8 89.1 99.9 89.4Q100.0 89.6 100.1 89.9Q100.3 90.1 100.5 90.3Q100.8 90.4 101.0 90.4L101.0 90.4Q101.5 90.4 101.7 90.2Q102.0 90.0 102.1 89.7Q102.2 89.5 102.3 89.1Q102.3 88.7 102.3 88.3L102.3 88.3Q102.3 87.9 102.3 87.6Q102.2 87.3 102.1 87.0Q102.0 86.8 101.7 86.6Q101.5 86.5 101.2 86.5ZM108.2 88.9L108.2 86.0Q108.2 85.8 108.3 85.7Q108.4 85.6 108.6 85.6L108.6 85.6Q108.8 85.6 108.9 85.7Q109.0 85.8 109.0 86.0L109.0 86.0L109.0 90.9Q109.0 91.1 108.9 91.2Q108.8 91.3 108.6 91.3L108.6 91.3Q108.4 91.3 108.3 91.2Q108.2 91.1 108.2 90.9L108.2 90.9L108.2 90.3Q108.0 90.7 107.7 91.0Q107.3 91.3 106.8 91.3L106.8 91.3Q106.4 91.3 106.0 91.2Q105.7 91.0 105.5 90.8Q105.2 90.5 105.1 90.2Q105.0 89.8 105.0 89.4L105.0 89.4L105.0 86.0Q105.0 85.8 105.1 85.7Q105.2 85.6 105.4 85.6L105.4 85.6Q105.6 85.6 105.7 85.7Q105.8 85.8 105.8 86.0L105.8 86.0L105.8 89.1Q105.8 89.4 105.9 89.6Q106.0 89.9 106.1 90.0Q106.3 90.2 106.5 90.3Q106.7 90.5 106.9 90.5L106.9 90.5Q107.2 90.5 107.4 90.3Q107.7 90.1 107.8 89.9Q108.0 89.7 108.1 89.4Q108.2 89.1 108.2 88.9L108.2 88.9ZM113.0 91.3L113.0 91.3Q112.7 91.3 112.4 91.3Q112.2 91.2 111.9 91.1Q111.7 91.0 111.4 90.9Q111.2 90.7 111.0 90.5L111.0 90.5Q110.9 90.4 110.9 90.2Q110.8 90.1 110.8 90.0L110.8 90.0Q110.8 89.7 110.9 89.7Q111.0 89.6 111.2 89.6L111.2 89.6Q111.3 89.6 111.4 89.6Q111.5 89.7 111.6 89.8L111.6 89.8Q111.9 90.0 112.2 90.2Q112.5 90.4 113 90.4L113 90.4Q113.2 90.4 113.4 90.4Q113.6 90.4 113.8 90.3Q114.0 90.2 114.2 90.1Q114.3 89.9 114.3 89.7L114.3 89.7Q114.3 89.5 114.2 89.3Q114.0 89.2 113.8 89.1Q113.6 89.0 113.4 88.9Q113.2 88.8 113 88.8L113 88.8Q112.7 88.7 112.3 88.6Q112.0 88.5 111.7 88.4Q111.4 88.2 111.2 87.9Q111.0 87.6 111.0 87.1L111.0 87.1Q111.0 86.7 111.2 86.4Q111.3 86.1 111.6 86.0Q111.9 85.8 112.2 85.7Q112.6 85.6 113 85.6L113 85.6Q113.7 85.6 114.2 85.8Q114.7 86.0 115.0 86.5L115.0 86.5Q115.0 86.6 115.1 86.7Q115.1 86.7 115.1 86.8L115.1 86.8Q115.1 87.0 115.0 87.1Q114.9 87.2 114.7 87.2L114.7 87.2Q114.6 87.2 114.5 87.2Q114.4 87.1 114.3 87.0L114.3 87.0Q114.0 86.8 113.7 86.6Q113.5 86.5 113 86.5L113 86.5Q112.8 86.5 112.6 86.5Q112.4 86.6 112.2 86.7Q112.1 86.7 112.0 86.8Q111.9 87.0 111.9 87.1L111.9 87.1Q111.9 87.3 112.0 87.5Q112.1 87.6 112.3 87.7Q112.5 87.8 112.7 87.8Q112.8 87.9 113 87.9L113 87.9Q113.4 88.0 113.8 88.1Q114.2 88.2 114.5 88.4Q114.8 88.6 115 88.9Q115.2 89.2 115.2 89.7L115.2 89.7Q115.2 90.2 115.0 90.5Q114.8 90.8 114.5 90.9Q114.2 91.1 113.8 91.2Q113.5 91.3 113.0 91.3ZM117.8 88.0L117.8 90.9Q117.8 91.1 117.7 91.2Q117.6 91.3 117.4 91.3L117.4 91.3Q117.2 91.3 117.1 91.2Q117.0 91.1 117.0 90.9L117.0 90.9L117.0 84.3Q117.0 84.0 117.1 83.9Q117.2 83.8 117.4 83.8L117.4 83.8Q117.6 83.8 117.7 83.9Q117.8 84.0 117.8 84.3L117.8 84.3L117.8 86.6Q118.0 86.2 118.3 85.9Q118.7 85.6 119.2 85.6L119.2 85.6Q119.6 85.6 120.0 85.7Q120.3 85.9 120.5 86.1Q120.8 86.4 120.9 86.7Q121.0 87.1 121.0 87.5L121.0 87.5L121.0 90.9Q121.0 91.1 120.9 91.2Q120.8 91.3 120.6 91.3L120.6 91.3Q120.4 91.3 120.3 91.2Q120.2 91.1 120.2 90.9L120.2 90.9L120.2 87.8Q120.2 87.5 120.1 87.3Q120.0 87.0 119.9 86.9Q119.7 86.7 119.5 86.6Q119.3 86.5 119.1 86.5L119.1 86.5Q118.8 86.5 118.6 86.6Q118.3 86.8 118.2 87.0Q118.0 87.2 117.9 87.5Q117.8 87.8 117.8 88.0L117.8 88.0ZM126.9 91.2L123.4 91.2Q123.1 91.2 122.9 91.1Q122.8 90.9 122.8 90.6L122.8 90.6Q122.8 90.5 122.8 90.3Q122.9 90.2 123.0 90.1L123.0 90.1L125.2 87.8Q125.3 87.6 125.5 87.4Q125.7 87.2 125.9 86.9Q126.1 86.7 126.2 86.4Q126.3 86.2 126.3 85.9L126.3 85.9Q126.3 85.6 126.2 85.4Q126.1 85.1 125.9 85.0Q125.7 84.8 125.4 84.8Q125.2 84.7 124.9 84.7L124.9 84.7Q124.5 84.7 124.2 84.8Q123.9 84.9 123.7 85.0L123.7 85.0Q123.5 85.2 123.3 85.1Q123.1 85 123.0 84.8L123.0 84.8Q122.9 84.7 123.0 84.5Q123.0 84.3 123.2 84.2L123.2 84.2Q123.5 84.0 123.9 83.9Q124.3 83.8 124.9 83.8L124.9 83.8Q125.4 83.8 125.8 83.9Q126.2 84.0 126.5 84.2Q126.8 84.5 127.0 84.8Q127.2 85.2 127.2 85.8L127.2 85.8Q127.2 86.1 127.1 86.5Q127.0 86.8 126.8 87.1Q126.7 87.4 126.4 87.7Q126.2 88.0 126.0 88.2L126.0 88.2L124.2 90.1Q124.1 90.2 124.2 90.2Q124.2 90.3 124.3 90.3L124.3 90.3L126.9 90.3Q127.2 90.3 127.3 90.4Q127.4 90.5 127.4 90.8L127.4 90.8Q127.4 91.0 127.3 91.1Q127.2 91.2 126.9 91.2L126.9 91.2Z " clip-path="url(#satori_cp-id-1-2-1)" mask="url(#satori_om-id-1-2-1)"/><mask id="satori_om-id-1-3"><rect x="17" y="101" width="160" height="14" fill="#fff"/></mask><mask id="satori_om-id-1-3-0"><rect x="17" y="101" width="16" height="14" fill="#fff"/></mask><path x="17" y="101" width="16" height="14" fill="#1A7F3718" d="M21,101 h8 a4,4 0 0 1 4,4 v6 a4,4 0 0 1 -4,4 h-8 a4,4 0 0 1 -4,-4 v-6 a4,4 0 0 1 4,-4"/><path fill="#1A7F37" d="M22.5 108.0L22.5 108.0Q22.5 107.3 22.6 106.6Q22.8 106.0 23.1 105.5Q23.4 105.1 23.9 104.8Q24.5 104.5 25.2 104.5L25.2 104.5Q25.6 104.5 25.9 104.6Q26.2 104.7 26.4 104.8Q26.6 104.9 26.7 105.1Q26.8 105.2 26.9 105.4L26.9 105.4Q27.0 105.7 27.0 105.9Q26.9 106.1 26.7 106.2L26.7 106.2Q26.6 106.3 26.4 106.3Q26.1 106.2 26.0 106.0L26.0 106.0Q25.9 105.8 25.7 105.7Q25.5 105.6 25.2 105.6L25.2 105.6Q24.8 105.6 24.5 105.8Q24.2 106.0 24.0 106.3Q23.8 106.7 23.7 107.1Q23.7 107.5 23.7 107.9L23.7 107.9Q23.7 108.3 23.7 108.7Q23.8 109.1 24.0 109.4Q24.1 109.7 24.4 110.0Q24.7 110.2 25.2 110.2L25.2 110.2Q25.3 110.2 25.5 110.2Q25.6 110.1 25.7 110.1Q25.8 110.1 25.9 110.0Q26.0 110.0 26.0 109.9L26.0 109.9Q26.2 109.7 26.4 109.7Q26.6 109.8 26.8 109.9L26.8 109.9Q26.9 110.0 26.9 110.3Q27.0 110.5 26.8 110.7L26.8 110.7Q26.7 110.9 26.5 111.0Q26.3 111.1 26.1 111.2Q25.9 111.2 25.6 111.2Q25.4 111.3 25.2 111.3L25.2 111.3Q24.4 111.3 23.9 111.0Q23.3 110.7 23.0 110.3Q22.7 109.8 22.6 109.2Q22.5 108.6 22.5 108.0Z "/><clipPath id="satori_cp-id-1-3-1"><rect x="38" y="101" width="139" height="13"/></clipPath><mask id="satori_om-id-1-3-1"><rect x="38" y="101" width="139" height="13" fill="#fff"/></mask><path fill="#E6EDF3" d="M39.9 108.0L39.9 110.9Q39.9 111.1 39.7 111.2Q39.6 111.3 39.4 111.3L39.4 111.3Q39.2 111.3 39.1 111.2Q39.0 111.1 39.0 110.9L39.0 110.9L39.0 106.0Q39.0 105.8 39.1 105.7Q39.2 105.6 39.4 105.6L39.4 105.6Q39.6 105.6 39.7 105.7Q39.9 105.8 39.9 106.0L39.9 106.0L39.9 106.6Q40.0 106.2 40.3 105.9Q40.7 105.6 41.2 105.6L41.2 105.6Q41.6 105.6 42.0 105.7Q42.3 105.9 42.5 106.1Q42.8 106.4 42.9 106.7Q43.0 107.1 43.0 107.5L43.0 107.5L43.0 110.9Q43.0 111.1 42.9 111.2Q42.8 111.3 42.6 111.3L42.6 111.3Q42.4 111.3 42.3 111.2Q42.1 111.1 42.1 110.9L42.1 110.9L42.1 107.8Q42.1 107.5 42.1 107.3Q42.0 107.0 41.9 106.9Q41.7 106.7 41.5 106.6Q41.3 106.5 41.1 106.5L41.1 106.5Q40.8 106.5 40.6 106.6Q40.4 106.8 40.2 107.0Q40.0 107.2 39.9 107.5Q39.9 107.8 39.9 108.0L39.9 108.0ZM48.6 109.9L48.6 109.9Q48.8 109.9 48.9 110.0Q49.0 110.2 49.0 110.3L49.0 110.3Q49.0 110.4 49.0 110.5Q48.9 110.6 48.8 110.7L48.8 110.7Q48.7 110.9 48.5 111.0Q48.3 111.1 48.1 111.2Q47.9 111.2 47.7 111.3Q47.4 111.3 47.2 111.3L47.2 111.3Q46.6 111.3 46.2 111.1Q45.7 110.9 45.4 110.5Q45.1 110.2 44.9 109.7Q44.7 109.1 44.7 108.5L44.7 108.5Q44.7 107.9 44.9 107.4Q45.0 106.9 45.3 106.5Q45.5 106.1 46.0 105.8Q46.4 105.6 47.0 105.6L47.0 105.6Q47.6 105.6 48.0 105.8Q48.5 106.0 48.7 106.4Q48.9 106.8 49.0 107.2Q49.1 107.7 49.1 108.3L49.1 108.3Q49.1 108.5 49.0 108.7Q48.9 108.8 48.7 108.8L48.7 108.8L45.6 108.8Q45.7 109.2 45.8 109.5Q46.0 109.8 46.1 110.0Q46.4 110.2 46.6 110.3Q46.9 110.4 47.2 110.4L47.2 110.4Q47.6 110.4 47.9 110.3Q48.2 110.1 48.3 110L48.3 110Q48.4 109.9 48.5 109.9Q48.5 109.9 48.6 109.9ZM45.6 108L48.1 108Q48.1 108 48.2 107.9Q48.3 107.9 48.3 107.7L48.3 107.7Q48.3 107.5 48.2 107.3Q48.1 107.0 47.9 106.9Q47.8 106.7 47.6 106.6Q47.3 106.5 47.0 106.5L47.0 106.5Q46.7 106.5 46.5 106.6Q46.3 106.7 46.1 106.9Q45.9 107.1 45.8 107.4Q45.7 107.7 45.6 108L45.6 108ZM51.0 110.7L50.4 106.2Q50.3 105.9 50.5 105.7Q50.6 105.6 50.8 105.6L50.8 105.6Q51.0 105.6 51.1 105.7Q51.3 105.8 51.3 106.0L51.3 106.0L51.7 110.2L52.4 107.3Q52.5 107.0 52.6 106.9Q52.8 106.8 53 106.8L53 106.8Q53.2 106.8 53.4 106.9Q53.5 107.0 53.6 107.3L53.6 107.3L54.3 110.2L54.7 106.0Q54.8 105.8 54.9 105.7Q55.0 105.6 55.2 105.6L55.2 105.6Q55.4 105.6 55.5 105.7Q55.7 105.9 55.6 106.2L55.6 106.2L55.0 110.7Q55 111 54.8 111.2Q54.7 111.3 54.4 111.3L54.4 111.3Q54.0 111.3 53.9 111.2Q53.7 111 53.6 110.7L53.6 110.7L53 108.1L52.4 110.7Q52.3 111 52.1 111.2Q52.0 111.3 51.6 111.3L51.6 111.3Q51.3 111.3 51.2 111.2Q51.0 111 51.0 110.7L51.0 110.7ZM60.8 108.4L57.2 108.4Q57.0 108.4 56.9 108.2Q56.8 108.1 56.8 107.9L56.8 107.9Q56.8 107.7 56.9 107.6Q57.0 107.5 57.2 107.5L57.2 107.5L60.8 107.5Q61.0 107.5 61.1 107.6Q61.3 107.7 61.3 107.9L61.3 107.9Q61.3 108.1 61.1 108.2Q61.0 108.4 60.8 108.4L60.8 108.4ZM64.4 111.3L64.4 111.3Q64.1 111.3 63.7 111.2Q63.4 111.1 63.2 110.8Q63.0 110.5 62.8 110.1Q62.7 109.6 62.7 109.0L62.7 109.0Q62.7 108.3 62.8 107.7Q63.0 107.0 63.3 106.6Q63.5 106.1 64.0 105.9Q64.4 105.6 65 105.6L65 105.6Q65.5 105.6 65.8 105.8L65.8 105.8Q66.0 106.0 66.1 106.3L66.1 106.3Q66.1 106.2 66.1 106.0L66.1 106.0Q66.2 105.8 66.3 105.7Q66.4 105.6 66.7 105.6L66.7 105.6Q66.9 105.6 67.0 105.7Q67.1 105.8 67.0 106.0L67.0 106.0Q66.9 106.6 66.9 107.2Q66.8 107.8 66.9 108.4Q66.9 109.0 67.0 109.6Q67.0 110.2 67.2 110.9L67.2 110.9Q67.3 111.1 67.2 111.2Q67.1 111.3 66.9 111.3Q66.6 111.3 66.5 111.2Q66.3 111.1 66.3 110.9L66.3 110.9Q66.2 110.4 66.1 109.9L66.1 109.9Q66.0 110.1 66.0 110.3L66.0 110.3Q65.7 110.7 65.4 111.0Q65.0 111.3 64.4 111.3ZM64.5 110.4L64.5 110.4Q64.8 110.4 65.1 110.2Q65.3 110.1 65.5 109.8Q65.7 109.5 65.8 109.0Q66.0 108.6 66.0 108.1L66.0 108.1Q66.0 107.9 65.9 107.6Q65.9 107.3 65.8 107.1Q65.8 106.8 65.6 106.7Q65.4 106.5 65.1 106.5L65.1 106.5Q64.8 106.5 64.5 106.7Q64.2 106.9 64.0 107.2Q63.8 107.6 63.7 108.0Q63.6 108.5 63.6 109.0L63.6 109.0Q63.6 109.7 63.8 110.0Q64.0 110.4 64.5 110.4ZM69.3 105.6L69.3 105.6Q69.6 105.6 69.7 105.7Q69.8 105.8 69.8 106.1L69.8 106.1L69.8 106.7Q69.9 106.5 70.0 106.3Q70.2 106.0 70.3 105.9Q70.5 105.8 70.8 105.7Q71.0 105.6 71.3 105.6L71.3 105.6Q71.9 105.6 72.3 105.8Q72.6 106.1 72.8 106.5Q73.1 106.9 73.1 107.3Q73.2 107.8 73.2 108.3L73.2 108.3Q73.2 108.8 73.1 109.3Q73.0 109.9 72.8 110.3Q72.6 110.8 72.2 111.0Q71.8 111.3 71.2 111.3L71.2 111.3Q70.6 111.3 70.3 111.0Q69.9 110.7 69.8 110.3L69.8 110.3L69.8 112.7Q69.8 112.9 69.7 113.0Q69.6 113.1 69.3 113.1L69.3 113.1Q69.1 113.1 69.0 113.0Q68.9 112.9 68.9 112.7L68.9 112.7L68.9 106.1Q68.9 105.8 69.0 105.7Q69.1 105.6 69.3 105.6ZM71.2 106.5L71.2 106.5Q70.9 106.5 70.7 106.6Q70.4 106.7 70.2 106.9Q70.0 107.1 69.9 107.3Q69.8 107.5 69.8 107.8L69.8 107.8L69.8 108.9Q69.8 109.1 69.9 109.4Q70.0 109.6 70.1 109.9Q70.3 110.1 70.5 110.3Q70.8 110.4 71.0 110.4L71.0 110.4Q71.5 110.4 71.7 110.2Q72.0 110.0 72.1 109.7Q72.2 109.5 72.3 109.1Q72.3 108.7 72.3 108.3L72.3 108.3Q72.3 107.9 72.3 107.6Q72.2 107.3 72.1 107.0Q72.0 106.8 71.7 106.6Q71.5 106.5 71.2 106.5ZM77.7 110.3L79.1 110.3Q79.3 110.3 79.4 110.4Q79.5 110.5 79.5 110.8Q79.5 111.0 79.4 111.1Q79.3 111.2 79.1 111.2L79.1 111.2L75.3 111.2Q75.1 111.2 75.0 111.1Q74.8 111.0 74.8 110.8Q74.8 110.5 75.0 110.4Q75.1 110.3 75.3 110.3L75.3 110.3L76.8 110.3L76.8 107.2Q76.8 107 76.7 106.9Q76.6 106.8 76.4 106.8L76.4 106.8L75.5 106.8Q75.3 106.8 75.2 106.7Q75.0 106.5 75.0 106.4Q75.0 106.2 75.2 106.0Q75.3 105.9 75.5 105.9L75.5 105.9L76.9 105.9Q77.3 105.9 77.5 106.1Q77.7 106.3 77.7 106.7L77.7 106.7L77.7 110.3ZM77.2 104.9L77.2 104.9Q76.9 104.9 76.7 104.7Q76.5 104.6 76.5 104.3L76.5 104.3Q76.5 104.0 76.7 103.8Q76.9 103.6 77.2 103.6L77.2 103.6Q77.5 103.6 77.7 103.8Q77.9 104.0 77.9 104.3L77.9 104.3Q77.9 104.6 77.7 104.7Q77.5 104.9 77.2 104.9ZM82.2 110.5L82.2 110.5Q82.2 110.1 82.4 109.9Q82.7 109.6 83 109.6L83 109.6Q83.3 109.6 83.6 109.9Q83.8 110.1 83.8 110.5L83.8 110.5Q83.8 110.8 83.6 111.0Q83.3 111.3 83 111.3L83 111.3Q82.7 111.3 82.4 111.0Q82.2 110.8 82.2 110.5ZM82.2 106.8L82.2 106.8Q82.2 106.4 82.4 106.2Q82.7 105.9 83 105.9L83 105.9Q83.3 105.9 83.6 106.2Q83.8 106.4 83.8 106.8L83.8 106.8Q83.8 107.1 83.6 107.4Q83.3 107.6 83 107.6L83 107.6Q82.7 107.6 82.4 107.4Q82.2 107.1 82.2 106.8Z M97.4 104.7L97.4 110.9Q97.4 111.1 97.3 111.2Q97.2 111.3 97.0 111.3L97.0 111.3Q96.7 111.3 96.6 111.2Q96.5 111.1 96.5 110.9L96.5 110.9L96.5 104.8L95.5 108.2Q95.5 108.4 95.3 108.5Q95.2 108.6 95 108.6L95 108.6Q94.8 108.6 94.7 108.5Q94.5 108.4 94.5 108.2L94.5 108.2L93.5 104.8L93.5 110.9Q93.5 111.1 93.4 111.2Q93.3 111.3 93.0 111.3L93.0 111.3Q92.8 111.3 92.7 111.2Q92.6 111.1 92.6 110.9L92.6 110.9L92.6 104.7Q92.6 104.2 92.8 104.0Q93.0 103.8 93.4 103.8L93.4 103.8Q93.7 103.8 93.9 103.9Q94.1 104.1 94.2 104.4L94.2 104.4L95 107.3L95.8 104.4Q95.9 104.1 96.1 103.9Q96.3 103.8 96.6 103.8L96.6 103.8Q97.0 103.8 97.2 104.0Q97.4 104.2 97.4 104.7L97.4 104.7ZM102.6 109.9L102.6 109.9Q102.8 109.9 102.9 110.0Q103.0 110.2 103.0 110.3L103.0 110.3Q103.0 110.4 103.0 110.5Q102.9 110.6 102.8 110.7L102.8 110.7Q102.7 110.9 102.5 111.0Q102.3 111.1 102.1 111.2Q101.9 111.2 101.7 111.3Q101.4 111.3 101.2 111.3L101.2 111.3Q100.6 111.3 100.2 111.1Q99.7 110.9 99.4 110.5Q99.1 110.2 98.9 109.7Q98.7 109.1 98.7 108.5L98.7 108.5Q98.7 107.9 98.9 107.4Q99.0 106.9 99.3 106.5Q99.5 106.1 100.0 105.8Q100.4 105.6 101.0 105.6L101.0 105.6Q101.7 105.6 102.0 105.8Q102.5 106.0 102.7 106.4Q102.9 106.8 103.0 107.2Q103.2 107.7 103.2 108.3L103.2 108.3Q103.2 108.5 103.0 108.7Q102.9 108.8 102.7 108.8L102.7 108.8L99.7 108.8Q99.7 109.2 99.8 109.5Q100.0 109.8 100.2 110.0Q100.3 110.2 100.6 110.3Q100.9 110.4 101.2 110.4L101.2 110.4Q101.7 110.4 101.9 110.3Q102.2 110.1 102.3 110L102.3 110Q102.4 109.9 102.5 109.9Q102.5 109.9 102.6 109.9ZM99.7 108L102.1 108Q102.1 108 102.2 107.9Q102.3 107.9 102.3 107.7L102.3 107.7Q102.3 107.5 102.2 107.3Q102.1 107.0 101.9 106.9Q101.8 106.7 101.6 106.6Q101.3 106.5 101.0 106.5L101.0 106.5Q100.7 106.5 100.5 106.6Q100.3 106.7 100.1 106.9Q99.9 107.1 99.8 107.4Q99.7 107.7 99.7 108L99.7 108ZM105.5 111.3L105.5 111.3Q105.3 111.3 105.2 111.2Q105.1 111.1 105.1 110.9L105.1 110.9L105.1 106.0Q105.1 105.8 105.2 105.7Q105.3 105.6 105.5 105.6L105.5 105.6Q105.8 105.6 105.9 105.7Q106 105.8 106 106.0L106 106.0L106 106.6Q106.1 106.4 106.3 106.2Q106.5 106.0 106.7 105.9Q107.0 105.8 107.3 105.7Q107.5 105.6 107.8 105.6L107.8 105.6Q108.3 105.6 108.6 105.8Q108.9 105.9 109.0 106.2Q109.2 106.5 109.2 106.8Q109.3 107.2 109.3 107.6L109.3 107.6L109.3 107.7Q109.3 107.9 109.2 108.0Q109.1 108.2 108.8 108.2L108.8 108.2Q108.6 108.2 108.5 108.0Q108.4 107.9 108.4 107.7L108.4 107.7L108.4 107.6Q108.4 107.4 108.4 107.2Q108.3 107.0 108.2 106.8Q108.1 106.7 108.0 106.6Q107.8 106.5 107.5 106.5L107.5 106.5Q107.3 106.5 107 106.6Q106.7 106.6 106.5 106.8Q106.3 106.9 106.1 107.2Q106 107.4 106 107.7L106 107.7L106 110.9Q106 111.1 105.9 111.2Q105.8 111.3 105.5 111.3ZM114.2 111.2L114.2 110Q114.1 110.3 114.0 110.5Q113.8 110.7 113.6 110.8Q113.5 111.0 113.2 111.0Q113.0 111.1 112.7 111.1L112.7 111.1Q112.1 111.1 111.8 110.9Q111.4 110.6 111.2 110.2Q111.0 109.8 110.9 109.3Q110.8 108.9 110.8 108.4L110.8 108.4Q110.8 107.9 110.9 107.4Q111.0 106.9 111.2 106.5Q111.4 106.1 111.8 105.9Q112.2 105.6 112.8 105.6L112.8 105.6Q113.4 105.6 113.7 105.9Q114.1 106.2 114.2 106.6L114.2 106.6L114.2 106.0Q114.2 105.8 114.3 105.7Q114.4 105.6 114.7 105.6L114.7 105.6Q114.9 105.6 115.0 105.7Q115.1 105.8 115.1 106.0L115.1 106.0L115.1 111.2Q115.1 111.8 114.9 112.3Q114.8 112.7 114.5 113.0Q114.2 113.3 113.8 113.5Q113.4 113.6 112.9 113.6L112.9 113.6Q112.6 113.6 112.3 113.5Q112.0 113.5 111.8 113.4Q111.5 113.2 111.4 113.1Q111.2 112.9 111.1 112.8L111.1 112.8Q111.0 112.7 111.0 112.6Q110.9 112.5 110.9 112.4L110.9 112.4Q110.9 112.3 111.0 112.2Q111.0 112.1 111.0 112.0Q111.1 112.0 111.2 111.9Q111.3 111.8 111.4 111.8L111.4 111.8Q111.5 111.8 111.6 111.9Q111.7 111.9 111.7 112.0L111.7 112.0Q111.8 112.2 112.0 112.3Q112.1 112.4 112.3 112.5Q112.5 112.6 112.6 112.6Q112.8 112.7 113.0 112.7L113.0 112.7Q113.2 112.7 113.4 112.6Q113.6 112.5 113.8 112.4Q114.0 112.2 114.1 111.9Q114.2 111.6 114.2 111.2L114.2 111.2ZM112.8 110.3L112.8 110.3Q113.1 110.3 113.3 110.1Q113.6 110.0 113.8 109.8Q114.0 109.6 114.1 109.4Q114.2 109.2 114.2 108.9L114.2 108.9L114.2 108.0Q114.2 107.8 114.1 107.5Q114.0 107.2 113.9 107.0Q113.7 106.8 113.5 106.6Q113.3 106.5 113.0 106.5L113.0 106.5Q112.5 106.5 112.3 106.6Q112.0 106.8 111.9 107.1Q111.8 107.4 111.7 107.7Q111.7 108.0 111.7 108.3L111.7 108.3Q111.7 108.7 111.7 109.0Q111.8 109.3 111.9 109.6Q112.0 109.9 112.2 110.1Q112.5 110.3 112.8 110.3ZM120.6 109.9L120.6 109.9Q120.8 109.9 120.9 110.0Q121.0 110.2 121.0 110.3L121.0 110.3Q121.0 110.4 121.0 110.5Q120.9 110.6 120.8 110.7L120.8 110.7Q120.7 110.9 120.5 111.0Q120.3 111.1 120.1 111.2Q119.9 111.2 119.7 111.3Q119.4 111.3 119.2 111.3L119.2 111.3Q118.6 111.3 118.2 111.1Q117.7 110.9 117.4 110.5Q117.1 110.2 116.9 109.7Q116.7 109.1 116.7 108.5L116.7 108.5Q116.7 107.9 116.9 107.4Q117.0 106.9 117.3 106.5Q117.5 106.1 118.0 105.8Q118.4 105.6 119.0 105.6L119.0 105.6Q119.7 105.6 120.0 105.8Q120.5 106.0 120.7 106.4Q120.9 106.8 121.0 107.2Q121.2 107.7 121.2 108.3L121.2 108.3Q121.2 108.5 121.0 108.7Q120.9 108.8 120.7 108.8L120.7 108.8L117.7 108.8Q117.7 109.2 117.8 109.5Q118.0 109.8 118.2 110.0Q118.3 110.2 118.6 110.3Q118.9 110.4 119.2 110.4L119.2 110.4Q119.7 110.4 119.9 110.3Q120.2 110.1 120.3 110L120.3 110Q120.4 109.9 120.5 109.9Q120.5 109.9 120.6 109.9ZM117.7 108L120.1 108Q120.1 108 120.2 107.9Q120.3 107.9 120.3 107.7L120.3 107.7Q120.3 107.5 120.2 107.3Q120.1 107.0 119.9 106.9Q119.8 106.7 119.6 106.6Q119.3 106.5 119.0 106.5L119.0 106.5Q118.7 106.5 118.5 106.6Q118.3 106.7 118.1 106.9Q117.9 107.1 117.8 107.4Q117.7 107.7 117.7 108L117.7 108Z M129.3 105.6L129.3 105.6Q129.6 105.6 129.7 105.7Q129.8 105.8 129.8 106.1L129.8 106.1L129.8 106.7Q129.9 106.5 130.0 106.3Q130.2 106.0 130.3 105.9Q130.5 105.8 130.8 105.7Q131.0 105.6 131.3 105.6L131.3 105.6Q131.9 105.6 132.3 105.8Q132.6 106.1 132.8 106.5Q133.1 106.9 133.1 107.3Q133.2 107.8 133.2 108.3L133.2 108.3Q133.2 108.8 133.1 109.3Q133.0 109.9 132.8 110.3Q132.6 110.8 132.2 111.0Q131.8 111.3 131.2 111.3L131.2 111.3Q130.6 111.3 130.3 111.0Q129.9 110.7 129.8 110.3L129.8 110.3L129.8 112.7Q129.8 112.9 129.7 113.0Q129.6 113.1 129.3 113.1L129.3 113.1Q129.1 113.1 129.0 113.0Q128.9 112.9 128.9 112.7L128.9 112.7L128.9 106.1Q128.9 105.8 129.0 105.7Q129.1 105.6 129.3 105.6ZM131.2 106.5L131.2 106.5Q130.9 106.5 130.7 106.6Q130.4 106.7 130.2 106.9Q130.0 107.1 129.9 107.3Q129.8 107.5 129.8 107.8L129.8 107.8L129.8 108.9Q129.8 109.1 129.9 109.4Q130.0 109.6 130.1 109.9Q130.3 110.1 130.5 110.3Q130.8 110.4 131.0 110.4L131.0 110.4Q131.4 110.4 131.7 110.2Q131.9 110.0 132.1 109.7Q132.2 109.5 132.3 109.1Q132.3 108.7 132.3 108.3L132.3 108.3Q132.3 107.9 132.3 107.6Q132.2 107.3 132.1 107.0Q131.9 106.8 131.7 106.6Q131.5 106.5 131.2 106.5ZM138.2 108.9L138.2 106.0Q138.2 105.8 138.3 105.7Q138.4 105.6 138.6 105.6L138.6 105.6Q138.8 105.6 138.9 105.7Q139.1 105.8 139.1 106.0L139.1 106.0L139.1 110.9Q139.1 111.1 138.9 111.2Q138.8 111.3 138.6 111.3L138.6 111.3Q138.4 111.3 138.3 111.2Q138.2 111.1 138.2 110.9L138.2 110.9L138.2 110.3Q138.0 110.7 137.7 111.0Q137.3 111.3 136.8 111.3L136.8 111.3Q136.4 111.3 136.0 111.2Q135.7 111.0 135.5 110.8Q135.2 110.5 135.1 110.2Q134.9 109.8 134.9 109.4L134.9 109.4L134.9 106.0Q134.9 105.8 135.1 105.7Q135.2 105.6 135.4 105.6L135.4 105.6Q135.6 105.6 135.7 105.7Q135.8 105.8 135.8 106.0L135.8 106.0L135.8 109.1Q135.8 109.4 135.9 109.6Q136.0 109.9 136.1 110.0Q136.3 110.2 136.5 110.3Q136.7 110.5 136.9 110.5L136.9 110.5Q137.2 110.5 137.4 110.3Q137.7 110.1 137.8 109.9Q138.0 109.7 138.1 109.4Q138.2 109.1 138.2 108.9L138.2 108.9ZM143.1 104.7L143.1 109.0Q143.1 109.7 143.3 110.0Q143.5 110.4 143.9 110.4L143.9 110.4Q144.1 110.4 144.3 110.4Q144.5 110.3 144.8 110.2L144.8 110.2Q144.9 110.1 145.1 110.2Q145.3 110.2 145.4 110.4L145.4 110.4Q145.5 110.6 145.4 110.8Q145.4 111.0 145.2 111.0L145.2 111.0Q144.9 111.2 144.6 111.3Q144.2 111.3 143.8 111.3L143.8 111.3Q143.4 111.3 143.1 111.2Q142.8 111.0 142.6 110.8Q142.4 110.5 142.3 110.1Q142.2 109.7 142.2 109.1L142.2 109.1L142.2 105.1Q142.2 104.9 142.1 104.8Q142 104.7 141.8 104.7L141.8 104.7L141.1 104.7Q140.9 104.7 140.8 104.6Q140.7 104.5 140.7 104.3L140.7 104.3Q140.7 104.1 140.8 104.0Q140.9 103.9 141.1 103.9L141.1 103.9L142.3 103.9Q142.7 103.9 142.9 104.1Q143.1 104.3 143.1 104.7L143.1 104.7ZM149.1 104.7L149.1 109.0Q149.1 109.7 149.3 110.0Q149.5 110.4 149.9 110.4L149.9 110.4Q150.1 110.4 150.3 110.4Q150.5 110.3 150.8 110.2L150.8 110.2Q150.9 110.1 151.1 110.2Q151.3 110.2 151.4 110.4L151.4 110.4Q151.5 110.6 151.4 110.8Q151.4 111.0 151.2 111.0L151.2 111.0Q150.9 111.2 150.6 111.3Q150.2 111.3 149.8 111.3L149.8 111.3Q149.4 111.3 149.1 111.2Q148.8 111.0 148.6 110.8Q148.4 110.5 148.3 110.1Q148.2 109.7 148.2 109.1L148.2 109.1L148.2 105.1Q148.2 104.9 148.1 104.8Q148 104.7 147.8 104.7L147.8 104.7L147.1 104.7Q146.9 104.7 146.8 104.6Q146.7 104.5 146.7 104.3L146.7 104.3Q146.7 104.1 146.8 104.0Q146.9 103.9 147.1 103.9L147.1 103.9L148.3 103.9Q148.7 103.9 148.9 104.1Q149.1 104.3 149.1 104.7L149.1 104.7Z M159.6 111.3L159.6 111.3Q159.3 111.3 159.2 111.2Q159.1 111.1 159.1 110.9L159.1 110.9L159.1 106.0Q159.1 105.8 159.2 105.7Q159.3 105.6 159.6 105.6L159.6 105.6Q159.8 105.6 159.9 105.7Q160 105.8 160 106.0L160 106.0L160 106.6Q160.1 106.4 160.3 106.2Q160.5 106.0 160.7 105.9Q161.0 105.8 161.3 105.7Q161.6 105.6 161.8 105.6L161.8 105.6Q162.3 105.6 162.6 105.8Q162.9 105.9 163.0 106.2Q163.2 106.5 163.2 106.8Q163.3 107.2 163.3 107.6L163.3 107.6L163.3 107.7Q163.3 107.9 163.2 108.0Q163.1 108.2 162.8 108.2L162.8 108.2Q162.6 108.2 162.5 108.0Q162.4 107.9 162.4 107.7L162.4 107.7L162.4 107.6Q162.4 107.4 162.4 107.2Q162.3 107.0 162.2 106.8Q162.1 106.7 162.0 106.6Q161.8 106.5 161.5 106.5L161.5 106.5Q161.3 106.5 161 106.6Q160.7 106.6 160.5 106.8Q160.3 106.9 160.1 107.2Q160 107.4 160 107.7L160 107.7L160 110.9Q160 111.1 159.9 111.2Q159.8 111.3 159.6 111.3ZM168.6 109.9L168.6 109.9Q168.8 109.9 168.9 110.0Q169.0 110.2 169.0 110.3L169.0 110.3Q169.0 110.4 169.0 110.5Q168.9 110.6 168.8 110.7L168.8 110.7Q168.7 110.9 168.5 111.0Q168.3 111.1 168.1 111.2Q167.9 111.2 167.7 111.3Q167.4 111.3 167.2 111.3L167.2 111.3Q166.6 111.3 166.2 111.1Q165.7 110.9 165.4 110.5Q165.1 110.2 164.9 109.7Q164.7 109.1 164.7 108.5L164.7 108.5Q164.7 107.9 164.9 107.4Q165.0 106.9 165.3 106.5Q165.5 106.1 166.0 105.8Q166.4 105.6 167.1 105.6L167.1 105.6Q167.7 105.6 168.1 105.8Q168.4 106.0 168.7 106.4Q168.9 106.8 169.0 107.2Q169.2 107.7 169.2 108.3L169.2 108.3Q169.2 108.5 169.0 108.7Q168.9 108.8 168.7 108.8L168.7 108.8L165.7 108.8Q165.7 109.2 165.8 109.5Q165.9 109.8 166.2 110.0Q166.3 110.2 166.6 110.3Q166.9 110.4 167.2 110.4L167.2 110.4Q167.7 110.4 167.9 110.3Q168.2 110.1 168.3 110L168.3 110Q168.4 109.9 168.5 109.9Q168.5 109.9 168.6 109.9ZM165.7 108L168.1 108Q168.1 108 168.2 107.9Q168.3 107.9 168.3 107.7L168.3 107.7Q168.3 107.5 168.2 107.3Q168.1 107.0 167.9 106.9Q167.8 106.7 167.6 106.6Q167.3 106.5 167.1 106.5L167.1 106.5Q166.7 106.5 166.5 106.6Q166.3 106.7 166.1 106.9Q165.9 107.1 165.8 107.4Q165.7 107.7 165.7 108L165.7 108ZM174.9 111.3L174.9 111.3Q174.7 111.3 174.5 111.2Q174.4 111 174.4 110.8L174.4 110.8L174.4 110.7Q174.4 110.4 174.5 110.3Q174.7 110.1 174.9 110.1L174.9 110.1Q175.1 110.1 175.3 110.3Q175.4 110.4 175.4 110.7L175.4 110.7L175.4 110.8Q175.4 111 175.3 111.2Q175.1 111.3 174.9 111.3ZM171.1 111.3L171.1 111.3Q170.9 111.3 170.7 111.2Q170.6 111 170.6 110.8L170.6 110.8L170.6 110.7Q170.6 110.4 170.7 110.3Q170.9 110.1 171.1 110.1L171.1 110.1Q171.3 110.1 171.5 110.3Q171.6 110.4 171.6 110.7L171.6 110.7L171.6 110.8Q171.6 111 171.5 111.2Q171.3 111.3 171.1 111.3ZM173 111.3L173 111.3Q172.8 111.3 172.6 111.2Q172.5 111 172.5 110.8L172.5 110.8L172.5 110.7Q172.5 110.4 172.6 110.3Q172.8 110.1 173 110.1L173 110.1Q173.2 110.1 173.4 110.3Q173.5 110.4 173.5 110.7L173.5 110.7L173.5 110.8Q173.5 111 173.4 111.2Q173.2 111.3 173 111.3Z " clip-path="url(#satori_cp-id-1-3-1)" mask="url(#satori_om-id-1-3-1)"/><mask id="satori_om-id-2"><rect x="17" y="232" width="160" height="11" fill="#fff"/></mask><path fill="#656D76" d="M17.7 238.5L17.7 234.7Q17.7 234.5 17.8 234.4Q17.9 234.3 18.1 234.3L18.1 234.3Q18.3 234.3 18.4 234.4Q18.4 234.5 18.4 234.7L18.4 234.7L18.4 238.5Q18.4 238.7 18.5 238.9Q18.6 239.1 18.7 239.2Q18.8 239.4 19.0 239.4Q19.2 239.5 19.4 239.5L19.4 239.5Q19.6 239.5 19.8 239.4Q20.0 239.4 20.1 239.2Q20.2 239.1 20.3 238.9Q20.4 238.7 20.4 238.5L20.4 238.5L20.4 234.7Q20.4 234.5 20.4 234.4Q20.5 234.3 20.7 234.3L20.7 234.3Q20.9 234.3 21.0 234.4Q21.1 234.5 21.1 234.7L21.1 234.7L21.1 238.5Q21.1 238.9 21.0 239.2Q20.9 239.5 20.6 239.8Q20.4 240.0 20.1 240.1Q19.8 240.2 19.4 240.2L19.4 240.2Q19.0 240.2 18.7 240.1Q18.4 240.0 18.2 239.8Q17.9 239.5 17.8 239.2Q17.7 238.9 17.7 238.5L17.7 238.5ZM22.9 235.7L22.9 235.7Q23.1 235.7 23.2 235.8Q23.2 235.9 23.2 236.0L23.2 236.0L23.2 236.6Q23.3 236.4 23.4 236.2Q23.5 236.0 23.7 235.9Q23.8 235.8 24 235.7Q24.2 235.7 24.4 235.7L24.4 235.7Q24.9 235.7 25.2 235.9Q25.5 236.1 25.7 236.4Q25.8 236.7 25.9 237.1Q26.0 237.4 26.0 237.8L26.0 237.8Q26.0 238.2 25.9 238.7Q25.8 239.1 25.7 239.5Q25.5 239.8 25.2 240.0Q24.8 240.2 24.3 240.2L24.3 240.2Q23.9 240.2 23.6 240.0Q23.3 239.8 23.2 239.4L23.2 239.4L23.2 241.3Q23.2 241.5 23.2 241.6Q23.1 241.7 22.9 241.7L22.9 241.7Q22.7 241.7 22.6 241.6Q22.5 241.5 22.5 241.3L22.5 241.3L22.5 236.0Q22.5 235.9 22.6 235.8Q22.7 235.7 22.9 235.7ZM24.3 236.4L24.3 236.4Q24.1 236.4 23.9 236.5Q23.7 236.6 23.6 236.7Q23.4 236.9 23.3 237.0Q23.2 237.2 23.2 237.4L23.2 237.4L23.2 238.3Q23.2 238.5 23.3 238.7Q23.4 238.9 23.5 239.1Q23.6 239.3 23.8 239.4Q24 239.5 24.2 239.5L24.2 239.5Q24.6 239.5 24.8 239.4Q25.0 239.2 25.1 239.0Q25.2 238.8 25.2 238.5Q25.2 238.2 25.2 237.9L25.2 237.9Q25.2 237.5 25.2 237.3Q25.2 237.0 25.1 236.8Q25.0 236.6 24.8 236.5Q24.6 236.4 24.3 236.4ZM30.3 240.2L30.3 240.2Q30.1 240.2 30.0 240.1Q30.0 240.1 30.0 239.9L30.0 239.9L30.0 239.4Q29.9 239.6 29.8 239.7Q29.7 239.9 29.5 240.0Q29.4 240.1 29.2 240.2Q29.0 240.2 28.8 240.2L28.8 240.2Q28.3 240.2 28.0 240.0Q27.7 239.9 27.5 239.5Q27.4 239.2 27.3 238.9Q27.2 238.5 27.2 238.1L27.2 238.1Q27.2 237.7 27.3 237.2Q27.4 236.8 27.5 236.5Q27.7 236.1 28.0 235.9Q28.4 235.7 28.9 235.7L28.9 235.7Q29.3 235.7 29.6 235.9Q29.9 236.2 30.0 236.5L30.0 236.5L30.0 234.6Q30.0 234.4 30.0 234.3Q30.1 234.2 30.3 234.2L30.3 234.2Q30.5 234.2 30.6 234.3Q30.7 234.4 30.7 234.6L30.7 234.6L30.7 239.9Q30.7 240.1 30.6 240.1Q30.5 240.2 30.3 240.2ZM28.9 239.5L28.9 239.5Q29.1 239.5 29.3 239.4Q29.5 239.3 29.6 239.2Q29.8 239.1 29.9 238.9Q30.0 238.7 30.0 238.5L30.0 238.5L30.0 237.6Q30.0 237.4 29.9 237.2Q29.8 237.0 29.7 236.8Q29.6 236.6 29.4 236.5Q29.2 236.4 29.0 236.4L29.0 236.4Q28.6 236.4 28.4 236.5Q28.2 236.7 28.1 236.9Q28.0 237.2 28.0 237.5Q28.0 237.8 28.0 238.1L28.0 238.1Q28.0 238.4 28 238.6Q28.0 238.9 28.1 239.1Q28.2 239.3 28.4 239.4Q28.6 239.5 28.9 239.5ZM33.3 240.2L33.3 240.2Q33.0 240.2 32.8 240.1Q32.5 240.0 32.4 239.8Q32.2 239.6 32.1 239.3Q32.0 238.9 32.0 238.4L32.0 238.4Q32.0 237.8 32.1 237.3Q32.2 236.8 32.4 236.5Q32.6 236.1 33.0 235.9Q33.3 235.7 33.8 235.7L33.8 235.7Q34.2 235.7 34.4 235.9L34.4 235.9Q34.6 236.0 34.7 236.3L34.7 236.3Q34.7 236.1 34.7 236.0L34.7 236.0Q34.7 235.8 34.8 235.8Q35.0 235.7 35.1 235.7L35.1 235.7Q35.3 235.7 35.4 235.8Q35.5 235.8 35.4 236.0L35.4 236.0Q35.4 236.5 35.3 237.0Q35.3 237.4 35.3 237.9Q35.3 238.4 35.4 238.9Q35.4 239.3 35.6 239.9L35.6 239.9Q35.6 240.1 35.5 240.2Q35.5 240.2 35.3 240.2Q35.1 240.2 35.0 240.2Q34.9 240.1 34.8 239.9L34.8 239.9Q34.7 239.5 34.7 239.1L34.7 239.1Q34.6 239.3 34.6 239.4L34.6 239.4Q34.4 239.8 34.1 240.0Q33.8 240.2 33.3 240.2ZM33.4 239.5L33.4 239.5Q33.7 239.5 33.9 239.4Q34.1 239.3 34.2 239.0Q34.4 238.8 34.5 238.4Q34.6 238.1 34.6 237.7L34.6 237.7Q34.6 237.5 34.5 237.3Q34.5 237.0 34.5 236.9Q34.4 236.7 34.3 236.5Q34.1 236.4 33.9 236.4L33.9 236.4Q33.6 236.4 33.4 236.6Q33.2 236.7 33.0 237.0Q32.9 237.3 32.8 237.6Q32.7 238.0 32.7 238.4L32.7 238.4Q32.7 239.0 32.9 239.2Q33.0 239.5 33.4 239.5ZM38.6 235.9L40.0 235.9Q40.2 235.9 40.3 236.0Q40.4 236.1 40.4 236.3Q40.4 236.4 40.3 236.5Q40.2 236.6 40.0 236.6L40.0 236.6L38.6 236.6L38.6 238.4Q38.6 238.9 38.7 239.2Q38.9 239.5 39.2 239.5L39.2 239.5Q39.4 239.5 39.6 239.5Q39.7 239.5 39.9 239.4L39.9 239.4Q40.0 239.3 40.2 239.3Q40.3 239.4 40.4 239.5L40.4 239.5Q40.5 239.7 40.4 239.8Q40.4 240.0 40.3 240.0L40.3 240.0Q40.0 240.2 39.7 240.2Q39.5 240.2 39.1 240.2L39.1 240.2Q38.8 240.2 38.6 240.1Q38.4 240.0 38.2 239.8Q38.0 239.6 37.9 239.3Q37.8 239.0 37.8 238.5L37.8 238.5L37.8 236.6L36.9 236.6Q36.7 236.6 36.7 236.5Q36.6 236.4 36.6 236.3Q36.6 236.1 36.7 236.0Q36.7 235.9 36.9 235.9L36.9 235.9L37.8 235.9L37.8 234.9Q37.8 234.7 37.9 234.6Q38.0 234.5 38.2 234.5Q38.4 234.5 38.5 234.6Q38.6 234.7 38.6 234.9L38.6 234.9L38.6 235.9ZM44.7 239.1L44.7 239.1Q44.8 239.1 44.9 239.2Q45.0 239.3 45.0 239.5L45.0 239.5Q45.0 239.5 45.0 239.6Q45.0 239.7 44.9 239.8L44.9 239.8Q44.7 239.9 44.6 240.0Q44.4 240.1 44.3 240.1Q44.1 240.2 43.9 240.2Q43.8 240.2 43.6 240.2L43.6 240.2Q43.1 240.2 42.7 240.1Q42.4 239.9 42.1 239.6Q41.9 239.3 41.7 238.9Q41.6 238.5 41.6 238.0L41.6 238.0Q41.6 237.5 41.7 237.1Q41.8 236.7 42.0 236.4Q42.2 236.1 42.6 235.9Q42.9 235.7 43.4 235.7L43.4 235.7Q43.9 235.7 44.2 235.8Q44.6 236.0 44.8 236.3Q45.0 236.6 45.0 237.0Q45.1 237.4 45.1 237.9L45.1 237.9Q45.1 238.0 45.0 238.1Q44.9 238.2 44.7 238.2L44.7 238.2L42.3 238.2Q42.4 238.6 42.5 238.8Q42.6 239.0 42.7 239.2Q42.9 239.4 43.1 239.4Q43.3 239.5 43.6 239.5L43.6 239.5Q43.9 239.5 44.1 239.4Q44.3 239.3 44.5 239.2L44.5 239.2Q44.5 239.1 44.6 239.1Q44.6 239.1 44.7 239.1ZM42.3 237.6L44.3 237.6Q44.3 237.6 44.4 237.6Q44.4 237.5 44.4 237.3L44.4 237.3Q44.4 237.2 44.3 237Q44.3 236.8 44.1 236.7Q44.0 236.6 43.8 236.5Q43.7 236.4 43.4 236.4L43.4 236.4Q43.2 236.4 43.0 236.5Q42.8 236.6 42.7 236.7Q42.5 236.9 42.4 237.1Q42.4 237.3 42.3 237.6L42.3 237.6ZM49.5 240.2L49.5 240.2Q49.3 240.2 49.2 240.1Q49.2 240.1 49.2 239.9L49.2 239.9L49.2 239.4Q49.1 239.6 49.0 239.7Q48.9 239.9 48.7 240.0Q48.6 240.1 48.4 240.2Q48.2 240.2 48.0 240.2L48.0 240.2Q47.5 240.2 47.2 240.0Q46.9 239.9 46.7 239.5Q46.6 239.2 46.5 238.9Q46.4 238.5 46.4 238.1L46.4 238.1Q46.4 237.7 46.5 237.2Q46.6 236.8 46.7 236.5Q46.9 236.1 47.2 235.9Q47.6 235.7 48.1 235.7L48.1 235.7Q48.5 235.7 48.8 235.9Q49.1 236.2 49.2 236.5L49.2 236.5L49.2 234.6Q49.2 234.4 49.2 234.3Q49.3 234.2 49.5 234.2L49.5 234.2Q49.7 234.2 49.8 234.3Q49.9 234.4 49.9 234.6L49.9 234.6L49.9 239.9Q49.9 240.1 49.8 240.1Q49.7 240.2 49.5 240.2ZM48.1 239.5L48.1 239.5Q48.3 239.5 48.5 239.4Q48.7 239.3 48.8 239.2Q49.0 239.1 49.1 238.9Q49.2 238.7 49.2 238.5L49.2 238.5L49.2 237.6Q49.2 237.4 49.1 237.2Q49.0 237.0 48.9 236.8Q48.8 236.6 48.6 236.5Q48.4 236.4 48.2 236.4L48.2 236.4Q47.8 236.4 47.6 236.5Q47.4 236.7 47.3 236.9Q47.2 237.2 47.2 237.5Q47.2 237.8 47.2 238.1L47.2 238.1Q47.2 238.4 47.2 238.6Q47.2 238.9 47.3 239.1Q47.4 239.3 47.6 239.4Q47.8 239.5 48.1 239.5ZM52.3 239.6L52.3 239.6Q52.3 239.3 52.5 239.1Q52.7 238.9 53.0 238.9L53.0 238.9Q53.3 238.9 53.5 239.1Q53.7 239.3 53.7 239.6L53.7 239.6Q53.7 239.8 53.5 240.0Q53.3 240.2 53.0 240.2L53.0 240.2Q52.7 240.2 52.5 240.0Q52.3 239.8 52.3 239.6ZM52.3 236.6L52.3 236.6Q52.3 236.3 52.5 236.1Q52.7 235.9 53.0 235.9L53.0 235.9Q53.3 235.9 53.5 236.1Q53.7 236.3 53.7 236.6L53.7 236.6Q53.7 236.9 53.5 237.1Q53.3 237.3 53.0 237.3L53.0 237.3Q52.7 237.3 52.5 237.1Q52.3 236.9 52.3 236.6Z M64.1 240.2L61.3 240.2Q61.1 240.2 60.9 240.0Q60.8 239.9 60.8 239.7L60.8 239.7Q60.8 239.6 60.8 239.5Q60.9 239.4 61.0 239.3L61.0 239.3L62.8 237.4Q62.9 237.3 63.0 237.1Q63.2 236.9 63.3 236.8Q63.4 236.6 63.5 236.4Q63.6 236.2 63.6 236.0L63.6 236.0Q63.6 235.7 63.5 235.5Q63.4 235.3 63.3 235.2Q63.1 235.1 62.9 235.0Q62.7 235.0 62.5 235.0L62.5 235.0Q62.2 235.0 61.9 235.0Q61.7 235.1 61.5 235.2L61.5 235.2Q61.4 235.3 61.2 235.3Q61.1 235.2 61.0 235.1L61.0 235.1Q61.0 234.9 61.0 234.8Q61.0 234.7 61.2 234.6L61.2 234.6Q61.4 234.4 61.7 234.3Q62.1 234.2 62.5 234.2L62.5 234.2Q62.9 234.2 63.2 234.3Q63.6 234.4 63.8 234.6Q64.0 234.8 64.2 235.1Q64.3 235.4 64.3 235.9L64.3 235.9Q64.3 236.1 64.3 236.4Q64.2 236.6 64.1 236.9Q63.9 237.1 63.7 237.3Q63.6 237.6 63.4 237.8L63.4 237.8L61.9 239.3Q61.9 239.3 61.9 239.4Q61.9 239.4 62.1 239.4L62.1 239.4L64.1 239.4Q64.3 239.4 64.4 239.5Q64.5 239.6 64.5 239.8L64.5 239.8Q64.5 240.0 64.4 240.1Q64.3 240.2 64.1 240.2L64.1 240.2ZM67.4 240.2L67.4 240.2Q66.8 240.2 66.4 239.9Q66.1 239.7 65.9 239.2Q65.6 238.8 65.6 238.2Q65.5 237.7 65.5 237.2Q65.5 236.8 65.6 236.2Q65.6 235.7 65.9 235.3Q66.1 234.8 66.4 234.5Q66.8 234.2 67.4 234.2L67.4 234.2Q68.0 234.2 68.4 234.5Q68.8 234.8 69.0 235.3Q69.2 235.7 69.2 236.2Q69.3 236.7 69.3 237.2L69.3 237.2Q69.3 237.7 69.2 238.2Q69.2 238.8 68.9 239.2Q68.7 239.7 68.4 239.9Q68 240.2 67.4 240.2ZM67.4 239.5L67.4 239.5Q67.8 239.5 68.0 239.3Q68.2 239.0 68.4 238.7Q68.5 238.3 68.5 237.9Q68.6 237.5 68.6 237.2L68.6 237.2Q68.6 237.0 68.6 236.8L68.6 236.8L66.4 238.6Q66.4 238.6 66.4 238.7L66.4 238.7Q66.6 239.0 66.8 239.3Q67.0 239.5 67.4 239.5ZM66.2 237.7L68.4 235.8Q68.4 235.8 68.4 235.8L68.4 235.8Q68.2 235.5 68.0 235.2Q67.8 235.0 67.4 235.0Q67.0 235.0 66.8 235.2Q66.6 235.5 66.4 235.8Q66.3 236.2 66.3 236.6Q66.2 237.0 66.2 237.2L66.2 237.2Q66.2 237.4 66.2 237.7L66.2 237.7ZM73.7 240.2L70.9 240.2Q70.7 240.2 70.5 240.0Q70.4 239.9 70.4 239.7L70.4 239.7Q70.4 239.6 70.4 239.5Q70.5 239.4 70.6 239.3L70.6 239.3L72.4 237.4Q72.5 237.3 72.6 237.1Q72.8 236.9 72.9 236.8Q73.0 236.6 73.1 236.4Q73.2 236.2 73.2 236.0L73.2 236.0Q73.2 235.7 73.1 235.5Q73.0 235.3 72.9 235.2Q72.7 235.1 72.5 235.0Q72.3 235.0 72.1 235.0L72.1 235.0Q71.8 235.0 71.5 235.0Q71.3 235.1 71.1 235.2L71.1 235.2Q71.0 235.3 70.8 235.3Q70.7 235.2 70.6 235.1L70.6 235.1Q70.6 234.9 70.6 234.8Q70.6 234.7 70.8 234.6L70.8 234.6Q71.0 234.4 71.3 234.3Q71.7 234.2 72.1 234.2L72.1 234.2Q72.5 234.2 72.8 234.3Q73.2 234.4 73.4 234.6Q73.6 234.8 73.8 235.1Q73.9 235.4 73.9 235.9L73.9 235.9Q73.9 236.1 73.9 236.4Q73.8 236.6 73.7 236.9Q73.5 237.1 73.3 237.3Q73.2 237.6 73.0 237.8L73.0 237.8L71.5 239.3Q71.5 239.3 71.5 239.4Q71.5 239.4 71.7 239.4L71.7 239.4L73.7 239.4Q73.9 239.4 74.0 239.5Q74.1 239.6 74.1 239.8L74.1 239.8Q74.1 240.0 74.0 240.1Q73.9 240.2 73.7 240.2L73.7 240.2ZM77.0 234.5L77.0 234.5Q77.1 234.4 77.2 234.3Q77.4 234.2 77.5 234.2L77.5 234.2Q77.7 234.2 77.7 234.3Q77.8 234.3 77.8 234.4Q77.8 234.5 77.8 234.6Q77.8 234.6 77.7 234.7L77.7 234.7Q77 235.2 76.5 235.9Q76.1 236.5 75.9 237.2L75.9 237.2Q76 237.0 76.1 236.9Q76.3 236.8 76.5 236.7Q76.6 236.6 76.9 236.5Q77.1 236.5 77.3 236.5L77.3 236.5Q77.7 236.5 78.0 236.6Q78.3 236.7 78.5 237.0Q78.7 237.2 78.8 237.6Q78.9 237.9 78.9 238.4L78.9 238.4Q78.9 238.8 78.7 239.2Q78.6 239.5 78.4 239.8Q78.1 240 77.8 240.1Q77.4 240.2 77.0 240.2L77.0 240.2Q76.6 240.2 76.2 240.1Q75.9 240 75.6 239.8Q75.4 239.5 75.3 239.2Q75.1 238.8 75.1 238.4L75.1 238.4Q75.1 237.9 75.2 237.5Q75.2 237.1 75.3 236.7L75.3 236.7Q75.6 236.1 76.0 235.5Q76.4 234.9 77.0 234.5ZM77 239.5L77 239.5Q77.5 239.5 77.8 239.2Q78.2 238.9 78.2 238.4L78.2 238.4Q78.2 237.8 77.9 237.4Q77.6 237.1 77 237.1L77 237.1Q76.7 237.1 76.5 237.2Q76.3 237.3 76.2 237.5Q76 237.7 75.9 237.9Q75.8 238.1 75.8 238.4L75.8 238.4Q75.8 238.9 76.2 239.2Q76.5 239.5 77 239.5ZM83.2 237.9L80.4 237.9Q80.2 237.9 80.1 237.8Q80.0 237.7 80.0 237.5L80.0 237.5Q80.0 237.3 80.1 237.2Q80.2 237.2 80.4 237.2L80.4 237.2L83.2 237.2Q83.4 237.2 83.5 237.2Q83.6 237.3 83.6 237.5L83.6 237.5Q83.6 237.7 83.5 237.8Q83.4 237.9 83.2 237.9L83.2 237.9ZM86.6 240.2L86.6 240.2Q86.0 240.2 85.6 239.9Q85.3 239.7 85.1 239.2Q84.8 238.8 84.8 238.2Q84.7 237.7 84.7 237.2Q84.7 236.8 84.8 236.2Q84.8 235.7 85.1 235.3Q85.3 234.8 85.6 234.5Q86.0 234.2 86.6 234.2L86.6 234.2Q87.2 234.2 87.6 234.5Q88.0 234.8 88.2 235.3Q88.4 235.7 88.4 236.2Q88.5 236.7 88.5 237.2L88.5 237.2Q88.5 237.7 88.4 238.2Q88.4 238.8 88.1 239.2Q87.9 239.7 87.6 239.9Q87.2 240.2 86.6 240.2ZM86.6 239.5L86.6 239.5Q87.0 239.5 87.2 239.3Q87.4 239.0 87.6 238.7Q87.7 238.3 87.7 237.9Q87.8 237.5 87.8 237.2L87.8 237.2Q87.8 237.0 87.8 236.8L87.8 236.8L85.6 238.6Q85.6 238.6 85.6 238.7L85.6 238.7Q85.8 239.0 86.0 239.3Q86.2 239.5 86.6 239.5ZM85.4 237.7L87.6 235.8Q87.6 235.8 87.6 235.8L87.6 235.8Q87.4 235.5 87.2 235.2Q87.0 235.0 86.6 235.0Q86.2 235.0 86.0 235.2Q85.8 235.5 85.6 235.8Q85.5 236.2 85.5 236.6Q85.4 237.0 85.4 237.2L85.4 237.2Q85.4 237.4 85.4 237.7L85.4 237.7ZM89.8 240.0L89.8 240.0Q89.6 239.9 89.6 239.8Q89.5 239.6 89.6 239.5L89.6 239.5Q89.7 239.3 89.8 239.3Q89.9 239.2 90.2 239.3L90.2 239.3Q90.4 239.4 90.6 239.5Q90.9 239.5 91.2 239.5L91.2 239.5Q91.8 239.5 92.1 239.2Q92.4 238.9 92.4 238.4L92.4 238.4Q92.4 238.0 92.3 237.9Q92.1 237.7 91.8 237.6Q91.5 237.5 91.2 237.5Q90.9 237.4 90.6 237.5L90.6 237.5Q90.6 237.5 90.5 237.5Q90.4 237.4 90.4 237.4Q90.3 237.3 90.3 237.3Q90.3 237.2 90.3 237.1L90.3 237.1Q90.3 236.9 90.4 236.8Q90.5 236.7 90.7 236.7L90.7 236.7Q90.9 236.7 91.2 236.7Q91.4 236.7 91.7 236.5Q91.9 236.4 92.0 236.2Q92.2 236.1 92.2 235.8L92.2 235.8Q92.2 235.5 92.1 235.4Q92.0 235.2 91.8 235.1Q91.6 235.0 91.4 235.0Q91.2 235.0 91.0 235.0L91.0 235.0Q90.8 235.0 90.6 235.0Q90.4 235.0 90.2 235.2L90.2 235.2Q90.1 235.2 90.0 235.2Q89.8 235.1 89.8 235.0L89.8 235.0Q89.7 234.9 89.7 234.7Q89.8 234.6 89.9 234.5L89.9 234.5Q90.1 234.4 90.4 234.3Q90.7 234.2 91.0 234.2L91.0 234.2Q91.4 234.2 91.7 234.3Q92.1 234.4 92.3 234.6Q92.6 234.7 92.7 235.0Q92.9 235.3 92.9 235.7L92.9 235.7Q92.9 235.9 92.8 236.1Q92.8 236.4 92.7 236.5Q92.6 236.7 92.4 236.8Q92.2 237.0 92.0 237.0L92.0 237.0Q92.3 237.0 92.5 237.2Q92.8 237.3 92.9 237.5Q93.0 237.7 93.1 238.0Q93.2 238.2 93.2 238.5L93.2 238.5Q93.2 238.9 93.0 239.2Q92.9 239.5 92.6 239.8Q92.4 240.0 92.0 240.1Q91.7 240.2 91.2 240.2L91.2 240.2Q90.8 240.2 90.5 240.2Q90.1 240.1 89.8 240.0ZM97.6 237.9L94.8 237.9Q94.6 237.9 94.5 237.8Q94.4 237.7 94.4 237.5L94.4 237.5Q94.4 237.3 94.5 237.2Q94.6 237.2 94.8 237.2L94.8 237.2L97.6 237.2Q97.8 237.2 97.9 237.2Q98.0 237.3 98.0 237.5L98.0 237.5Q98.0 237.7 97.9 237.8Q97.8 237.9 97.6 237.9L97.6 237.9ZM101.0 240.2L101.0 240.2Q100.4 240.2 100.0 239.9Q99.7 239.7 99.5 239.2Q99.2 238.8 99.2 238.2Q99.1 237.7 99.1 237.2Q99.1 236.8 99.2 236.2Q99.2 235.7 99.5 235.3Q99.7 234.8 100.0 234.5Q100.4 234.2 101.0 234.2L101.0 234.2Q101.6 234.2 102.0 234.5Q102.4 234.8 102.6 235.3Q102.8 235.7 102.8 236.2Q102.9 236.7 102.9 237.2L102.9 237.2Q102.9 237.7 102.8 238.2Q102.8 238.8 102.5 239.2Q102.3 239.7 102.0 239.9Q101.6 240.2 101.0 240.2ZM101.0 239.5L101.0 239.5Q101.4 239.5 101.6 239.3Q101.8 239.0 102.0 238.7Q102.1 238.3 102.1 237.9Q102.2 237.5 102.2 237.2L102.2 237.2Q102.2 237.0 102.2 236.8L102.2 236.8L100.0 238.6Q100.0 238.6 100.0 238.7L100.0 238.7Q100.2 239.0 100.4 239.3Q100.6 239.5 101.0 239.5ZM99.8 237.7L102.0 235.8Q102.0 235.8 102.0 235.8L102.0 235.8Q101.8 235.5 101.6 235.2Q101.4 235.0 101.0 235.0Q100.6 235.0 100.4 235.2Q100.2 235.5 100.0 235.8Q99.9 236.2 99.9 236.6Q99.8 237.0 99.8 237.2L99.8 237.2Q99.8 237.4 99.8 237.7L99.8 237.7ZM107.4 240.2L104.4 240.2Q104.2 240.2 104.1 240.1Q104.0 240.0 104.0 239.8Q104.0 239.6 104.1 239.5Q104.2 239.4 104.4 239.4L104.4 239.4L105.7 239.4L105.7 235.3Q105.7 235.2 105.7 235.1Q105.7 235.1 105.6 235.1L105.6 235.1Q105.6 235.1 105.5 235.1Q105.5 235.1 105.5 235.1L105.5 235.1L104.7 235.8Q104.6 235.9 104.5 235.9Q104.4 235.9 104.3 235.9L104.3 235.9Q104.2 235.9 104.2 235.9Q104.1 235.8 104.1 235.6L104.1 235.6Q104.1 235.4 104.2 235.3Q104.2 235.2 104.3 235.1L104.3 235.1L105.2 234.4Q105.3 234.3 105.5 234.3Q105.6 234.2 105.8 234.2L105.8 234.2Q106.1 234.2 106.3 234.4Q106.4 234.6 106.4 234.9L106.4 234.9L106.4 239.4L107.4 239.4Q107.6 239.4 107.7 239.5Q107.8 239.6 107.8 239.8Q107.8 240.0 107.7 240.1Q107.6 240.2 107.4 240.2L107.4 240.2Z M117.0 240.2L114.0 240.2Q113.8 240.2 113.7 240.1Q113.6 240.0 113.6 239.8Q113.6 239.6 113.7 239.5Q113.8 239.4 114.0 239.4L114.0 239.4L115.3 239.4L115.3 235.3Q115.3 235.2 115.3 235.1Q115.3 235.1 115.2 235.1L115.2 235.1Q115.2 235.1 115.1 235.1Q115.1 235.1 115.1 235.1L115.1 235.1L114.3 235.8Q114.2 235.9 114.1 235.9Q114.0 235.9 113.9 235.9L113.9 235.9Q113.8 235.9 113.8 235.9Q113.7 235.8 113.7 235.6L113.7 235.6Q113.7 235.4 113.8 235.3Q113.8 235.2 113.9 235.1L113.9 235.1L114.8 234.4Q114.9 234.3 115.1 234.3Q115.2 234.2 115.4 234.2L115.4 234.2Q115.7 234.2 115.9 234.4Q116.0 234.6 116.0 234.9L116.0 234.9L116.0 239.4L117.0 239.4Q117.2 239.4 117.3 239.5Q117.4 239.6 117.4 239.8Q117.4 240.0 117.3 240.1Q117.2 240.2 117.0 240.2L117.0 240.2ZM121.7 240.2L118.9 240.2Q118.7 240.2 118.5 240.0Q118.4 239.9 118.4 239.7L118.4 239.7Q118.4 239.6 118.4 239.5Q118.5 239.4 118.6 239.3L118.6 239.3L120.4 237.4Q120.5 237.3 120.6 237.1Q120.8 236.9 120.9 236.8Q121.0 236.6 121.1 236.4Q121.2 236.2 121.2 236.0L121.2 236.0Q121.2 235.7 121.1 235.5Q121.0 235.3 120.9 235.2Q120.7 235.1 120.5 235.0Q120.3 235.0 120.1 235.0L120.1 235.0Q119.8 235.0 119.5 235.0Q119.3 235.1 119.1 235.2L119.1 235.2Q119.0 235.3 118.8 235.3Q118.7 235.2 118.6 235.1L118.6 235.1Q118.6 234.9 118.6 234.8Q118.6 234.7 118.8 234.6L118.8 234.6Q119.0 234.4 119.3 234.3Q119.7 234.2 120.1 234.2L120.1 234.2Q120.5 234.2 120.8 234.3Q121.2 234.4 121.4 234.6Q121.6 234.8 121.8 235.1Q121.9 235.4 121.9 235.9L121.9 235.9Q121.9 236.1 121.9 236.4Q121.8 236.6 121.7 236.9Q121.5 237.1 121.3 237.3Q121.2 237.6 121.0 237.8L121.0 237.8L119.5 239.3Q119.5 239.3 119.5 239.4Q119.5 239.4 119.7 239.4L119.7 239.4L121.7 239.4Q121.9 239.4 122.0 239.5Q122.1 239.6 122.1 239.8L122.1 239.8Q122.1 240.0 122.0 240.1Q121.9 240.2 121.7 240.2L121.7 240.2ZM124.3 239.6L124.3 239.6Q124.3 239.3 124.5 239.1Q124.7 238.9 125.0 238.9L125.0 238.9Q125.3 238.9 125.5 239.1Q125.7 239.3 125.7 239.6L125.7 239.6Q125.7 239.8 125.5 240.0Q125.3 240.2 125.0 240.2L125.0 240.2Q124.7 240.2 124.5 240.0Q124.3 239.8 124.3 239.6ZM124.3 236.6L124.3 236.6Q124.3 236.3 124.5 236.1Q124.7 235.9 125.0 235.9L125.0 235.9Q125.3 235.9 125.5 236.1Q125.7 236.3 125.7 236.6L125.7 236.6Q125.7 236.9 125.5 237.1Q125.3 237.3 125.0 237.3L125.0 237.3Q124.7 237.3 124.5 237.1Q124.3 236.9 124.3 236.6ZM128.2 240.0L128.2 240.0Q128.0 239.9 128.0 239.8Q127.9 239.6 128.0 239.5L128.0 239.5Q128.1 239.3 128.2 239.3Q128.3 239.2 128.6 239.3L128.6 239.3Q128.8 239.4 129.0 239.5Q129.3 239.5 129.6 239.5L129.6 239.5Q130.2 239.5 130.5 239.2Q130.8 238.9 130.8 238.4L130.8 238.4Q130.8 238.0 130.7 237.9Q130.5 237.7 130.2 237.6Q129.9 237.5 129.6 237.5Q129.3 237.4 129.0 237.5L129.0 237.5Q129.0 237.5 128.9 237.5Q128.8 237.4 128.8 237.4Q128.7 237.3 128.7 237.3Q128.7 237.2 128.7 237.1L128.7 237.1Q128.7 236.9 128.8 236.8Q128.9 236.7 129.1 236.7L129.1 236.7Q129.3 236.7 129.6 236.7Q129.8 236.7 130.1 236.5Q130.3 236.4 130.4 236.2Q130.6 236.1 130.6 235.8L130.6 235.8Q130.6 235.5 130.5 235.4Q130.4 235.2 130.2 235.1Q130.0 235.0 129.8 235.0Q129.6 235.0 129.4 235.0L129.4 235.0Q129.2 235.0 129.0 235.0Q128.8 235.0 128.6 235.2L128.6 235.2Q128.5 235.2 128.4 235.2Q128.2 235.1 128.2 235.0L128.2 235.0Q128.1 234.9 128.1 234.7Q128.2 234.6 128.3 234.5L128.3 234.5Q128.5 234.4 128.8 234.3Q129.1 234.2 129.4 234.2L129.4 234.2Q129.8 234.2 130.1 234.3Q130.5 234.4 130.7 234.6Q131.0 234.7 131.1 235.0Q131.3 235.3 131.3 235.7L131.3 235.7Q131.3 235.9 131.2 236.1Q131.2 236.4 131.1 236.5Q131.0 236.7 130.8 236.8Q130.6 237.0 130.4 237.0L130.4 237.0Q130.7 237.0 130.9 237.2Q131.2 237.3 131.3 237.5Q131.4 237.7 131.5 238.0Q131.6 238.2 131.6 238.5L131.6 238.5Q131.6 238.9 131.4 239.2Q131.3 239.5 131.0 239.8Q130.8 240.0 130.4 240.1Q130.1 240.2 129.6 240.2L129.6 240.2Q129.2 240.2 128.9 240.2Q128.5 240.1 128.2 240.0ZM136.2 240.2L133.2 240.2Q133.0 240.2 132.9 240.1Q132.8 240.0 132.8 239.8Q132.8 239.6 132.9 239.5Q133.0 239.4 133.2 239.4L133.2 239.4L134.5 239.4L134.5 235.3Q134.5 235.2 134.5 235.1Q134.5 235.1 134.4 235.1L134.4 235.1Q134.4 235.1 134.3 235.1Q134.3 235.1 134.3 235.1L134.3 235.1L133.5 235.8Q133.4 235.9 133.3 235.9Q133.2 235.9 133.1 235.9L133.1 235.9Q133.0 235.9 133.0 235.9Q132.9 235.8 132.9 235.6L132.9 235.6Q132.9 235.4 133.0 235.3Q133.0 235.2 133.1 235.1L133.1 235.1L134.0 234.4Q134.1 234.3 134.3 234.3Q134.4 234.2 134.6 234.2L134.6 234.2Q134.9 234.2 135.1 234.4Q135.2 234.6 135.2 234.9L135.2 234.9L135.2 239.4L136.2 239.4Q136.4 239.4 136.5 239.5Q136.6 239.6 136.6 239.8Q136.6 240.0 136.5 240.1Q136.4 240.2 136.2 240.2L136.2 240.2Z M142.3 237.2L142.3 237.2Q142.3 236.6 142.4 236.1Q142.5 235.5 142.8 235.1Q143.1 234.7 143.6 234.5Q144.0 234.2 144.6 234.2L144.6 234.2Q145.0 234.2 145.2 234.3Q145.5 234.4 145.7 234.5Q145.8 234.6 145.9 234.7Q146.1 234.8 146.1 235.0L146.1 235.0Q146.2 235.2 146.1 235.3Q146.1 235.4 146.0 235.5L146.0 235.5Q145.9 235.6 145.8 235.5Q145.6 235.5 145.5 235.4L145.5 235.4Q145.4 235.2 145.2 235.1Q145.0 235.0 144.6 235.0L144.6 235.0Q144.2 235.0 143.9 235.1Q143.6 235.3 143.4 235.6Q143.2 236.0 143.1 236.4Q143.0 236.8 143.0 237.2L143.0 237.2Q143.0 237.6 143.1 238.0Q143.2 238.4 143.4 238.8Q143.6 239.1 143.9 239.3Q144.2 239.5 144.7 239.5L144.7 239.5Q144.8 239.5 144.9 239.5Q145.0 239.5 145.1 239.5Q145.3 239.4 145.4 239.4Q145.5 239.4 145.5 239.3L145.5 239.3Q145.7 239.2 145.8 239.2Q146.0 239.2 146.1 239.3L146.1 239.3Q146.2 239.4 146.2 239.6Q146.2 239.7 146.0 239.9L146.0 239.9Q145.9 240.0 145.7 240.1Q145.6 240.1 145.4 240.2Q145.2 240.2 145.0 240.2Q144.8 240.2 144.6 240.2L144.6 240.2Q144.0 240.2 143.5 240.0Q143.1 239.7 142.8 239.3Q142.5 238.9 142.4 238.4Q142.3 237.8 142.3 237.2ZM149.9 235.5L149.9 235.5Q149.8 235.2 149.5 235.1Q149.3 235.0 149 235.0L149 235.0Q148.6 235.0 148.3 235.2Q148.0 235.4 148.0 235.8L148.0 235.8Q148.0 236.0 148.1 236.2Q148.2 236.4 148.3 236.5Q148.4 236.6 148.6 236.6Q148.8 236.7 149 236.7L149 236.7Q149.4 236.8 149.7 237.0Q150.0 237.1 150.3 237.3Q150.5 237.5 150.7 237.8Q150.8 238.1 150.8 238.6L150.8 238.6Q150.8 239.0 150.7 239.3Q150.6 239.6 150.3 239.8Q150.1 240 149.8 240.1Q149.4 240.2 149 240.2L149 240.2Q148.6 240.2 148.3 240.2Q148.0 240.1 147.8 239.9Q147.6 239.7 147.4 239.5Q147.3 239.2 147.2 238.9L147.2 238.9Q147.2 238.8 147.3 238.7Q147.3 238.6 147.5 238.6L147.5 238.6Q147.7 238.6 147.8 238.6Q147.9 238.7 148.0 238.9L148.0 238.9Q148.1 239.2 148.3 239.4Q148.6 239.5 149 239.5L149 239.5Q149.3 239.5 149.5 239.5Q149.7 239.4 149.8 239.3Q150.0 239.2 150.0 239.0Q150.1 238.8 150.1 238.6L150.1 238.6Q150.1 238.3 150.0 238.1Q149.9 237.9 149.8 237.8Q149.6 237.7 149.4 237.6Q149.2 237.5 149 237.5L149 237.5Q148.7 237.4 148.3 237.3Q148.0 237.2 147.8 237.0Q147.6 236.8 147.5 236.5Q147.3 236.2 147.3 235.8L147.3 235.8Q147.3 235.4 147.4 235.2Q147.6 234.9 147.8 234.7Q148 234.5 148.3 234.4Q148.6 234.2 149 234.2L149 234.2Q149.3 234.2 149.6 234.3Q149.9 234.4 150.1 234.6Q150.3 234.7 150.4 234.9Q150.6 235.2 150.6 235.4L150.6 235.4Q150.7 235.6 150.6 235.7Q150.5 235.8 150.3 235.8L150.3 235.8Q150.1 235.8 150.1 235.7Q150.0 235.6 149.9 235.5ZM153.4 239.9L153.4 235.0L152.2 235.0Q152.0 235.0 151.9 234.9Q151.8 234.8 151.8 234.7L151.8 234.7Q151.8 234.5 151.9 234.4Q152.0 234.3 152.2 234.3L152.2 234.3L155.4 234.3Q155.6 234.3 155.7 234.4Q155.8 234.5 155.8 234.7L155.8 234.7Q155.8 234.8 155.7 234.9Q155.6 235.0 155.4 235.0L155.4 235.0L154.2 235.0L154.2 239.9Q154.2 240.1 154.1 240.2Q154.0 240.2 153.8 240.2L153.8 240.2Q153.6 240.2 153.5 240.2Q153.4 240.1 153.4 239.9L153.4 239.9Z "/></svg>