<svg width="194" height="260" viewBox="0 0 194 260" xmlns="http://www.w3.org/2000/svg"><defs><clipPath id="satori_bc-id"><path x="0" y="0" width="194" height="260" d="M16,0 h162 a16,16 0 0 1 16,16 v228 a16,16 0 0 1 -16,16 h-162 a16,16 0 0 1 -16,-16 v-228 a16,16 0 0 1 16,-16"/></clipPath></defs><mask id="satori_om-id"><rect x="1" y="1" width="192" height="258" fill="#fff"/><path width="194" height="260" fill="none" stroke="#000" stroke-width="2" d="M4.686,4.686 A16,16 0 0 1 16,0 h162 a16,16 0 0 1 16,16 v228 a16,16 0 0 1 -16,16 h-162 a16,16 0 0 1 -16,-16 v-228 A16,16 0 0 1 4.686,4.686"/></mask><path x="0" y="0" width="194" height="260" fill="#161B22" d="M16,0 h162 a16,16 0 0 1 16,16 v228 a16,16 0 0 1 -16,16 h-162 a16,16 0 0 1 -16,-16 v-228 a16,16 0 0 1 16,-16"/><path width="194" height="260" clip-path="url(#satori_bc-id)" fill="none" stroke="#30363D" stroke-width="2" d="M4.686,4.686 A16,16 0 0 1 16,0 h162 a16,16 0 0 1 16,16 v228 a16,16 0 0 1 -16,16 h-162 a16,16 0 0 1 -16,-16 v-228 A16,16 0 0 1 4.686,4.686"/><mask id="satori_om-id-0"><rect x="17" y="17" width="160" height="16" fill="#fff"/></mask><path fill="#8B949E" d="M20.5 22.5L19.7 25.9L21.5 25.9L20.7 22.5Q20.6 22.5 20.6 22.5Q20.6 22.5 20.5 22.5L20.5 22.5ZM22.2 28.8L21.8 27.2L19.4 27.2L19.0 28.8Q18.9 29.1 18.8 29.2Q18.6 29.4 18.3 29.4L18.3 29.4Q17.8 29.4 17.6 29.1Q17.4 28.9 17.5 28.3L17.5 28.3L19.3 21.4Q19.5 20.9 19.8 20.6Q20.1 20.4 20.6 20.4L20.6 20.4Q21.1 20.4 21.4 20.6Q21.7 20.9 21.9 21.4L21.9 21.4L23.7 28.3Q23.8 28.9 23.6 29.1Q23.4 29.4 22.9 29.4L22.9 29.4Q22.6 29.4 22.4 29.2Q22.3 29.1 22.2 28.8L22.2 28.8ZM24.9 25.9L24.9 25.9Q24.9 25.0 25.2 24.4Q25.4 23.7 25.8 23.3Q26.2 22.9 26.8 22.7Q27.3 22.5 27.9 22.5L27.9 22.5Q28.5 22.5 28.9 22.6Q29.3 22.7 29.6 22.9Q29.9 23.1 30.1 23.3Q30.3 23.5 30.4 23.7L30.4 23.7Q30.5 24.1 30.4 24.3Q30.3 24.6 30.0 24.8L30.0 24.8Q29.8 24.8 29.6 24.8Q29.4 24.8 29.2 24.6L29.2 24.6Q29.1 24.3 28.8 24.1Q28.5 24.0 28.1 24.0L28.1 24.0Q27.8 24.0 27.5 24.1Q27.2 24.2 27.0 24.4Q26.8 24.7 26.7 25.0Q26.5 25.4 26.5 25.9L26.5 25.9Q26.5 26.4 26.7 26.8Q26.8 27.2 27.0 27.4Q27.2 27.7 27.5 27.8Q27.7 27.9 28.0 27.9L28.0 27.9Q28.4 27.9 28.7 27.8Q29.0 27.8 29.2 27.6L29.2 27.6Q29.4 27.4 29.7 27.4Q29.9 27.3 30.2 27.5L30.2 27.5Q30.3 27.6 30.3 27.7Q30.4 27.8 30.4 28.0Q30.4 28.1 30.4 28.3Q30.4 28.4 30.3 28.5L30.3 28.5Q30.0 28.8 29.8 29.0Q29.5 29.1 29.3 29.2Q29.0 29.3 28.7 29.3Q28.4 29.4 28.1 29.4L28.1 29.4Q27.4 29.4 26.8 29.2Q26.2 29.0 25.8 28.5Q25.4 28.1 25.2 27.5Q24.9 26.8 24.9 25.9ZM35.2 22.9L37.1 22.9Q37.4 22.9 37.6 23.1Q37.8 23.3 37.8 23.6L37.8 23.6Q37.8 24.0 37.6 24.2Q37.4 24.3 37.1 24.3L37.1 24.3L35.2 24.3L35.2 26.2Q35.2 27.1 35.4 27.5Q35.6 27.9 36.0 27.9L36.0 27.9Q36.2 27.9 36.4 27.9Q36.6 27.8 36.8 27.8L36.8 27.8Q37.1 27.6 37.4 27.7Q37.6 27.8 37.8 28.1L37.8 28.1Q38.0 28.4 37.9 28.6Q37.8 28.9 37.5 29.0L37.5 29.0Q37.1 29.2 36.7 29.3Q36.3 29.4 35.8 29.4L35.8 29.4Q35.3 29.4 34.9 29.2Q34.4 29.0 34.2 28.6Q33.9 28.3 33.8 27.7Q33.6 27.1 33.6 26.4L33.6 26.4L33.6 24.3L32.5 24.3Q32.1 24.3 32.0 24.2Q31.8 24.0 31.8 23.6L31.8 23.6Q31.8 23.3 32.0 23.1Q32.2 22.9 32.5 22.9L32.5 22.9L33.6 22.9L33.6 21.6Q33.6 21.2 33.8 21.0Q34.0 20.8 34.4 20.8Q34.8 20.8 35 21.0Q35.2 21.2 35.2 21.6L35.2 21.6L35.2 22.9ZM43.3 27.8L44.6 27.8Q44.9 27.8 45.1 28.0Q45.3 28.1 45.3 28.5Q45.3 28.9 45.1 29.1Q44.9 29.2 44.6 29.2L44.6 29.2L40.2 29.2Q39.9 29.2 39.7 29.1Q39.5 28.9 39.5 28.5Q39.5 28.1 39.7 28.0Q39.8 27.8 40.2 27.8L40.2 27.8L41.7 27.8L41.7 25.0Q41.7 24.6 41.6 24.5Q41.4 24.3 41.1 24.3L41.1 24.3L40.5 24.3Q40.1 24.3 39.9 24.2Q39.7 24.0 39.7 23.6Q39.7 23.3 39.9 23.1Q40.1 22.9 40.5 22.9L40.5 22.9L42.0 22.9Q42.7 22.9 43.0 23.2Q43.3 23.5 43.3 24.2L43.3 24.2L43.3 27.8ZM42.4 21.8L42.4 21.8Q42.0 21.8 41.7 21.6Q41.4 21.3 41.4 20.9L41.4 20.9Q41.4 20.5 41.7 20.3Q42.0 20.0 42.4 20.0L42.4 20.0Q42.9 20.0 43.2 20.3Q43.4 20.5 43.4 20.9L43.4 20.9Q43.4 21.3 43.2 21.6Q42.9 21.8 42.4 21.8ZM48.4 28.6L46.5 23.4Q46.5 23.2 46.5 23.0Q46.5 22.9 46.6 22.7Q46.7 22.6 46.9 22.6Q47.1 22.5 47.2 22.5L47.2 22.5Q47.5 22.5 47.7 22.7Q47.9 22.8 48.0 23.1L48.0 23.1L49.2 26.6Q49.3 26.9 49.4 26.9Q49.5 26.9 49.6 26.6L49.6 26.6L50.8 23.1Q50.9 22.8 51.1 22.7Q51.3 22.5 51.6 22.5L51.6 22.5Q51.7 22.5 51.9 22.6Q52.1 22.6 52.2 22.7Q52.3 22.9 52.3 23.0Q52.3 23.2 52.3 23.4L52.3 23.4L50.4 28.6Q50.3 29.0 50.0 29.2Q49.8 29.4 49.4 29.4L49.4 29.4Q49.0 29.4 48.8 29.2Q48.5 29.0 48.4 28.6L48.4 28.6ZM57.7 27.8L59.0 27.8Q59.3 27.8 59.5 28.0Q59.7 28.1 59.7 28.5Q59.7 28.9 59.5 29.1Q59.3 29.2 59.0 29.2L59.0 29.2L54.6 29.2Q54.3 29.2 54.1 29.1Q53.9 28.9 53.9 28.5Q53.9 28.1 54.1 28.0Q54.2 27.8 54.6 27.8L54.6 27.8L56.1 27.8L56.1 25.0Q56.1 24.6 56.0 24.5Q55.8 24.3 55.5 24.3L55.5 24.3L54.9 24.3Q54.5 24.3 54.3 24.2Q54.1 24.0 54.1 23.6Q54.1 23.3 54.3 23.1Q54.5 22.9 54.9 22.9L54.9 22.9L56.4 22.9Q57.1 22.9 57.4 23.2Q57.7 23.5 57.7 24.2L57.7 24.2L57.7 27.8ZM56.8 21.8L56.8 21.8Q56.4 21.8 56.1 21.6Q55.8 21.3 55.8 20.9L55.8 20.9Q55.8 20.5 56.1 20.3Q56.4 20.0 56.8 20.0L56.8 20.0Q57.3 20.0 57.6 20.3Q57.8 20.5 57.8 20.9L57.8 20.9Q57.8 21.3 57.6 21.6Q57.3 21.8 56.8 21.8ZM64.0 22.9L65.9 22.9Q66.2 22.9 66.4 23.1Q66.6 23.3 66.6 23.6L66.6 23.6Q66.6 24.0 66.4 24.2Q66.2 24.3 65.9 24.3L65.9 24.3L64.0 24.3L64.0 26.2Q64.0 27.1 64.2 27.5Q64.4 27.9 64.8 27.9L64.8 27.9Q65.0 27.9 65.2 27.9Q65.4 27.8 65.6 27.8L65.6 27.8Q65.9 27.6 66.2 27.7Q66.4 27.8 66.6 28.1L66.6 28.1Q66.8 28.4 66.7 28.6Q66.6 28.9 66.3 29.0L66.3 29.0Q65.9 29.2 65.5 29.3Q65.1 29.4 64.6 29.4L64.6 29.4Q64.1 29.4 63.7 29.2Q63.2 29.0 63.0 28.6Q62.7 28.3 62.6 27.7Q62.4 27.1 62.4 26.4L62.4 26.4L62.4 24.3L61.3 24.3Q60.9 24.3 60.8 24.2Q60.6 24.0 60.6 23.6L60.6 23.6Q60.6 23.3 60.8 23.1Q61.0 22.9 61.3 22.9L61.3 22.9L62.4 22.9L62.4 21.6Q62.4 21.2 62.6 21.0Q62.8 20.8 63.2 20.8Q63.6 20.8 63.8 21.0Q64.0 21.2 64.0 21.6L64.0 21.6L64.0 22.9ZM71.0 27.2L72.6 23Q72.6 22.8 72.8 22.7Q72.9 22.6 73.1 22.6L73.1 22.6Q73.5 22.6 73.7 22.8Q73.9 22.9 73.9 23.2L73.9 23.2Q73.9 23.3 73.9 23.5Q73.9 23.6 73.8 23.7L73.8 23.7L71.9 29.4Q71.8 29.6 71.7 30.0Q71.6 30.3 71.4 30.6Q71.2 31.0 71.0 31.3Q70.8 31.6 70.6 31.8L70.6 31.8Q70.2 32.1 69.7 32.2Q69.3 32.3 69.0 32.3L69.0 32.3Q68.6 32.3 68.4 32.2Q68.2 32 68.2 31.6L68.2 31.6L68.2 31.6Q68.2 31.3 68.4 31.1Q68.5 30.9 68.8 30.9L68.8 30.9Q69.0 30.9 69.2 30.8Q69.4 30.7 69.5 30.6L69.5 30.6Q69.7 30.5 69.8 30.4Q69.9 30.2 69.9 30.1Q70.0 30.0 70.1 29.8Q70.1 29.7 70.2 29.5L70.2 29.5L70.3 29.2L68.3 23.7Q68.2 23.6 68.2 23.4Q68.2 23.3 68.2 23.2L68.2 23.2Q68.2 22.9 68.4 22.8Q68.6 22.6 68.9 22.6L68.9 22.6Q69.2 22.6 69.3 22.7Q69.5 22.8 69.5 23.0L69.5 23.0L71.0 27.2Z "/><mask id="satori_om-id-1"><rect x="17" y="41" width="160" height="191" fill="#fff"/></mask><mask id="satori_om-id-1-0"><rect x="38" y="130" width="119" height="15" fill="#fff"/></mask><path fill="#656D76" d="M38.9 140.8L38.9 133.9Q38.9 133.5 39.1 133.3Q39.3 133.1 39.7 133.1L39.7 133.1Q40.0 133.1 40.2 133.2Q40.4 133.4 40.5 133.6L40.5 133.6L42.7 139.8L42.7 133.6Q42.7 133.3 42.9 133.2Q43.0 133.1 43.2 133.1L43.2 133.1Q43.5 133.1 43.6 133.2Q43.7 133.3 43.7 133.6L43.7 133.6L43.7 140.5Q43.7 140.9 43.5 141.1Q43.3 141.3 42.9 141.3L42.9 141.3Q42.6 141.3 42.4 141.2Q42.2 141.1 42.1 140.8L42.1 140.8L39.9 134.6L39.9 140.8Q39.9 141.1 39.7 141.2Q39.6 141.3 39.4 141.3L39.4 141.3Q39.1 141.3 39.0 141.2Q38.9 141.1 38.9 140.8L38.9 140.8ZM47.9 141.3L47.9 141.3Q47.3 141.3 46.8 141.1Q46.3 140.9 46.0 140.4Q45.7 140.0 45.6 139.4Q45.4 138.9 45.4 138.2L45.4 138.2Q45.4 137.5 45.6 136.9Q45.7 136.4 46.0 135.9Q46.3 135.5 46.8 135.3Q47.3 135.1 47.9 135.1L47.9 135.1Q48.5 135.1 49.0 135.3Q49.5 135.5 49.8 135.9Q50.1 136.4 50.2 136.9Q50.4 137.5 50.4 138.2L50.4 138.2Q50.4 138.9 50.2 139.4Q50.1 140.0 49.8 140.4Q49.5 140.9 49.0 141.1Q48.5 141.3 47.9 141.3ZM47.9 140.3L47.9 140.3Q48.3 140.3 48.6 140.2Q48.8 140.0 49.0 139.7Q49.2 139.5 49.3 139.1Q49.4 138.7 49.4 138.2L49.4 138.2Q49.4 137.7 49.3 137.3Q49.2 136.9 49.0 136.6Q48.9 136.4 48.6 136.2Q48.3 136.1 47.9 136.1L47.9 136.1Q47.5 136.1 47.2 136.2Q46.9 136.4 46.8 136.6Q46.6 136.9 46.5 137.3Q46.4 137.7 46.4 138.2L46.4 138.2Q46.4 138.7 46.5 139.1Q46.6 139.5 46.8 139.7Q47.0 140.0 47.2 140.2Q47.5 140.3 47.9 140.3Z M59.5 141.3L59.5 141.3Q59.3 141.3 59.1 141.2Q59.0 141.1 59.0 140.8L59.0 140.8L59.0 135.6Q59.0 135.3 59.1 135.2Q59.3 135.1 59.5 135.1L59.5 135.1Q59.8 135.1 59.9 135.2Q60 135.3 60 135.6L60 135.6L60 136.2Q60.1 135.9 60.3 135.7Q60.5 135.5 60.8 135.4Q61.1 135.2 61.4 135.1Q61.7 135.1 62.0 135.1L62.0 135.1Q62.5 135.1 62.8 135.2Q63.1 135.4 63.3 135.7Q63.5 136.0 63.6 136.4Q63.6 136.8 63.6 137.2L63.6 137.2L63.6 137.4Q63.6 137.6 63.5 137.7Q63.4 137.9 63.1 137.9L63.1 137.9Q62.9 137.9 62.8 137.7Q62.6 137.6 62.6 137.4L62.6 137.4L62.6 137.2Q62.6 137.0 62.6 136.8Q62.6 136.6 62.5 136.4Q62.4 136.2 62.2 136.1Q62.0 136.1 61.7 136.1L61.7 136.1Q61.4 136.1 61.1 136.1Q60.8 136.2 60.6 136.4Q60.3 136.5 60.2 136.8Q60 137.0 60 137.4L60 137.4L60 140.8Q60 141.1 59.9 141.2Q59.8 141.3 59.5 141.3ZM69.4 139.8L69.4 139.8Q69.7 139.8 69.8 139.9Q69.9 140.1 69.9 140.3L69.9 140.3Q69.9 140.4 69.9 140.4Q69.8 140.5 69.7 140.7L69.7 140.7Q69.5 140.8 69.3 141.0Q69.1 141.1 68.9 141.2Q68.7 141.3 68.4 141.3Q68.2 141.3 67.9 141.3L67.9 141.3Q67.3 141.3 66.8 141.1Q66.3 140.9 65.9 140.5Q65.6 140.1 65.4 139.5Q65.2 138.9 65.2 138.2L65.2 138.2Q65.2 137.6 65.3 137.0Q65.5 136.4 65.8 136.0Q66.1 135.6 66.6 135.3Q67.1 135.1 67.8 135.1L67.8 135.1Q68.4 135.1 68.9 135.3Q69.3 135.5 69.6 135.9Q69.8 136.3 69.9 136.9Q70.1 137.4 70.1 138.1L70.1 138.1Q70.1 138.3 69.9 138.4Q69.8 138.6 69.5 138.6L69.5 138.6L66.2 138.6Q66.3 139.0 66.4 139.4Q66.5 139.7 66.8 139.9Q67.0 140.1 67.3 140.2Q67.6 140.3 67.9 140.3L67.9 140.3Q68.4 140.3 68.7 140.2Q69.0 140.0 69.2 139.9L69.2 139.9Q69.3 139.8 69.3 139.8Q69.4 139.8 69.4 139.8ZM66.2 137.7L68.9 137.7Q69.0 137.7 69.0 137.6Q69.1 137.6 69.1 137.3L69.1 137.3Q69.1 137.1 69.0 136.9Q68.9 136.6 68.7 136.5Q68.6 136.3 68.3 136.2Q68.1 136.1 67.8 136.1L67.8 136.1Q67.4 136.1 67.1 136.2Q66.9 136.3 66.7 136.5Q66.5 136.7 66.4 137.0Q66.3 137.3 66.2 137.7L66.2 137.7ZM71.9 138.2L71.9 138.2Q71.9 137.4 72.1 136.8Q72.3 136.2 72.7 135.8Q73.1 135.4 73.6 135.2Q74.0 135.1 74.6 135.1L74.6 135.1Q75.0 135.1 75.3 135.1Q75.7 135.2 75.9 135.3Q76.2 135.4 76.3 135.6Q76.5 135.8 76.6 135.9L76.6 135.9Q76.8 136.2 76.7 136.4Q76.7 136.5 76.5 136.7L76.5 136.7Q76.3 136.8 76.1 136.7Q76.0 136.7 75.9 136.5L75.9 136.5Q75.7 136.4 75.4 136.2Q75.1 136.1 74.7 136.1L74.7 136.1Q74.3 136.1 73.9 136.2Q73.6 136.3 73.4 136.6Q73.1 136.8 73.0 137.2Q72.9 137.6 72.9 138.2L72.9 138.2Q72.9 138.7 73.0 139.1Q73.1 139.5 73.4 139.8Q73.6 140.1 73.9 140.2Q74.3 140.3 74.7 140.3L74.7 140.3Q74.9 140.3 75.2 140.3Q75.6 140.2 75.7 140.0L75.7 140.0Q75.9 139.9 76.0 139.9Q76.2 139.9 76.4 140.0L76.4 140.0Q76.5 140.1 76.5 140.2Q76.6 140.2 76.6 140.3Q76.6 140.4 76.5 140.6Q76.5 140.7 76.3 140.8L76.3 140.8Q76.2 141.0 76.0 141.1Q75.8 141.2 75.6 141.2Q75.4 141.3 75.1 141.3Q74.9 141.3 74.6 141.3L74.6 141.3Q74.0 141.3 73.5 141.1Q73.0 141.0 72.6 140.6Q72.3 140.2 72.1 139.6Q71.9 139.0 71.9 138.2ZM82.6 139.8L82.6 139.8Q82.9 139.8 83.0 139.9Q83.1 140.1 83.1 140.3L83.1 140.3Q83.1 140.4 83.1 140.4Q83.0 140.5 82.9 140.7L82.9 140.7Q82.7 140.8 82.5 141.0Q82.3 141.1 82.1 141.2Q81.9 141.3 81.6 141.3Q81.4 141.3 81.1 141.3L81.1 141.3Q80.5 141.3 80.0 141.1Q79.5 140.9 79.1 140.5Q78.8 140.1 78.6 139.5Q78.4 138.9 78.4 138.2L78.4 138.2Q78.4 137.6 78.5 137.0Q78.7 136.4 79.0 136.0Q79.3 135.6 79.8 135.3Q80.3 135.1 81.0 135.1L81.0 135.1Q81.6 135.1 82.1 135.3Q82.5 135.5 82.8 135.9Q83.0 136.3 83.1 136.9Q83.3 137.4 83.3 138.1L83.3 138.1Q83.3 138.3 83.1 138.4Q83.0 138.6 82.7 138.6L82.7 138.6L79.4 138.6Q79.5 139.0 79.6 139.4Q79.7 139.7 80.0 139.9Q80.2 140.1 80.5 140.2Q80.8 140.3 81.1 140.3L81.1 140.3Q81.6 140.3 81.9 140.2Q82.2 140.0 82.4 139.9L82.4 139.9Q82.5 139.8 82.5 139.8Q82.6 139.8 82.6 139.8ZM79.4 137.7L82.1 137.7Q82.2 137.7 82.2 137.6Q82.3 137.6 82.3 137.3L82.3 137.3Q82.3 137.1 82.2 136.9Q82.1 136.6 81.9 136.5Q81.8 136.3 81.5 136.2Q81.3 136.1 81.0 136.1L81.0 136.1Q80.6 136.1 80.3 136.2Q80.1 136.3 79.9 136.5Q79.7 136.7 79.6 137.0Q79.5 137.3 79.4 137.7L79.4 137.7ZM86.2 137.7L86.2 140.8Q86.2 141.1 86.1 141.2Q86.0 141.3 85.7 141.3L85.7 141.3Q85.5 141.3 85.4 141.2Q85.2 141.1 85.2 140.8L85.2 140.8L85.2 135.6Q85.2 135.3 85.4 135.2Q85.5 135.1 85.7 135.1L85.7 135.1Q86.0 135.1 86.1 135.2Q86.2 135.3 86.2 135.6L86.2 135.6L86.2 136.2Q86.4 135.7 86.8 135.4Q87.1 135.1 87.7 135.1L87.7 135.1Q88.2 135.1 88.6 135.2Q88.9 135.4 89.2 135.6Q89.5 135.9 89.6 136.3Q89.8 136.7 89.8 137.2L89.8 137.2L89.8 140.8Q89.8 141.1 89.6 141.2Q89.5 141.3 89.3 141.3L89.3 141.3Q89.0 141.3 88.9 141.2Q88.8 141.1 88.8 140.8L88.8 140.8L88.8 137.4Q88.8 137.2 88.7 136.9Q88.6 136.6 88.5 136.4Q88.3 136.2 88.1 136.1Q87.9 136.0 87.6 136.0L87.6 136.0Q87.3 136.0 87.0 136.2Q86.8 136.3 86.6 136.6Q86.4 136.9 86.3 137.2Q86.2 137.5 86.2 137.7L86.2 137.7ZM94.0 135.4L96.1 135.4Q96.3 135.4 96.4 135.5Q96.5 135.7 96.5 135.9Q96.5 136.1 96.4 136.2Q96.3 136.4 96.1 136.4L96.1 136.4L94.0 136.4L94.0 138.8Q94.0 139.5 94.3 139.9Q94.5 140.3 95.0 140.3L95.0 140.3Q95.2 140.3 95.4 140.3Q95.6 140.3 95.9 140.2L95.9 140.2Q96.1 140.0 96.3 140.1Q96.4 140.2 96.6 140.4L96.6 140.4Q96.7 140.6 96.6 140.8Q96.6 140.9 96.4 141.1L96.4 141.1Q96.0 141.2 95.7 141.3Q95.3 141.3 94.8 141.3L94.8 141.3Q94.4 141.3 94.1 141.2Q93.8 141.0 93.5 140.8Q93.3 140.5 93.2 140.0Q93.1 139.6 93.1 138.9L93.1 138.9L93.1 136.4L91.8 136.4Q91.5 136.4 91.4 136.2Q91.3 136.1 91.3 135.9Q91.3 135.7 91.4 135.5Q91.5 135.4 91.8 135.4L91.8 135.4L93.1 135.4L93.1 134.0Q93.1 133.7 93.2 133.6Q93.3 133.5 93.5 133.5Q93.8 133.5 93.9 133.6Q94.0 133.7 94.0 134.0L94.0 134.0L94.0 135.4Z M106.7 141.3L106.7 141.3Q106.3 141.3 105.9 141.2Q105.6 141.1 105.3 140.8Q105.1 140.5 104.9 140.0Q104.8 139.5 104.8 138.8L104.8 138.8Q104.8 138.0 104.9 137.3Q105.1 136.6 105.4 136.1Q105.7 135.6 106.2 135.4Q106.7 135.1 107.3 135.1L107.3 135.1Q107.8 135.1 108.1 135.3L108.1 135.3Q108.4 135.5 108.5 135.9L108.5 135.9Q108.5 135.7 108.6 135.5L108.6 135.5Q108.6 135.3 108.7 135.2Q108.9 135.1 109.1 135.1L109.1 135.1Q109.4 135.1 109.5 135.2Q109.6 135.3 109.5 135.5L109.5 135.5Q109.4 136.2 109.4 136.8Q109.3 137.5 109.3 138.1Q109.4 138.7 109.5 139.4Q109.5 140.1 109.7 140.8L109.7 140.8Q109.8 141.1 109.7 141.2Q109.6 141.3 109.3 141.3Q109.1 141.3 108.9 141.2Q108.8 141.1 108.7 140.8L108.7 140.8Q108.6 140.3 108.5 139.8L108.5 139.8Q108.4 140.0 108.4 140.2L108.4 140.2Q108.1 140.7 107.7 141.0Q107.3 141.3 106.7 141.3ZM106.8 140.3L106.8 140.3Q107.1 140.3 107.4 140.2Q107.7 140.0 107.9 139.6Q108.1 139.3 108.2 138.9Q108.3 138.4 108.3 137.8L108.3 137.8Q108.3 137.6 108.3 137.3Q108.3 136.9 108.2 136.7Q108.1 136.4 107.9 136.2Q107.8 136.1 107.4 136.1L107.4 136.1Q107.0 136.1 106.8 136.3Q106.5 136.5 106.2 136.9Q106.0 137.2 105.9 137.7Q105.8 138.3 105.8 138.9L105.8 138.9Q105.8 139.6 106.0 139.9Q106.3 140.3 106.8 140.3ZM111.5 138.2L111.5 138.2Q111.5 137.4 111.7 136.8Q111.9 136.2 112.3 135.8Q112.7 135.4 113.2 135.2Q113.6 135.1 114.2 135.1L114.2 135.1Q114.6 135.1 114.9 135.1Q115.3 135.2 115.5 135.3Q115.8 135.4 115.9 135.6Q116.1 135.8 116.2 135.9L116.2 135.9Q116.4 136.2 116.3 136.4Q116.3 136.5 116.1 136.7L116.1 136.7Q115.9 136.8 115.7 136.7Q115.6 136.7 115.5 136.5L115.5 136.5Q115.3 136.4 115.0 136.2Q114.7 136.1 114.3 136.1L114.3 136.1Q113.9 136.1 113.5 136.2Q113.2 136.3 113.0 136.6Q112.7 136.8 112.6 137.2Q112.5 137.6 112.5 138.2L112.5 138.2Q112.5 138.7 112.6 139.1Q112.7 139.5 113.0 139.8Q113.2 140.1 113.5 140.2Q113.9 140.3 114.3 140.3L114.3 140.3Q114.5 140.3 114.8 140.3Q115.2 140.2 115.3 140.0L115.3 140.0Q115.5 139.9 115.6 139.9Q115.8 139.9 116.0 140.0L116.0 140.0Q116.1 140.1 116.1 140.2Q116.2 140.2 116.2 140.3Q116.2 140.4 116.1 140.6Q116.1 140.7 115.9 140.8L115.9 140.8Q115.8 141.0 115.6 141.1Q115.4 141.2 115.2 141.2Q115.0 141.3 114.7 141.3Q114.5 141.3 114.2 141.3L114.2 141.3Q113.6 141.3 113.1 141.1Q112.6 141.0 112.3 140.6Q111.9 140.2 111.7 139.6Q111.5 139.0 111.5 138.2ZM120.4 135.4L122.5 135.4Q122.7 135.4 122.8 135.5Q122.9 135.7 122.9 135.9Q122.9 136.1 122.8 136.2Q122.7 136.4 122.5 136.4L122.5 136.4L120.4 136.4L120.4 138.8Q120.4 139.5 120.7 139.9Q120.9 140.3 121.4 140.3L121.4 140.3Q121.6 140.3 121.8 140.3Q122.0 140.3 122.3 140.2L122.3 140.2Q122.5 140.0 122.7 140.1Q122.8 140.2 123.0 140.4L123.0 140.4Q123.1 140.6 123.0 140.8Q123.0 140.9 122.8 141.1L122.8 141.1Q122.4 141.2 122.1 141.3Q121.7 141.3 121.2 141.3L121.2 141.3Q120.8 141.3 120.5 141.2Q120.2 141.0 119.9 140.8Q119.7 140.5 119.6 140.0Q119.5 139.6 119.5 138.9L119.5 138.9L119.5 136.4L118.2 136.4Q117.9 136.4 117.8 136.2Q117.7 136.1 117.7 135.9Q117.7 135.7 117.8 135.5Q117.9 135.4 118.2 135.4L118.2 135.4L119.5 135.4L119.5 134.0Q119.5 133.7 119.6 133.6Q119.7 133.5 119.9 133.5Q120.2 133.5 120.3 133.6Q120.4 133.7 120.4 134.0L120.4 134.0L120.4 135.4ZM127.9 140.2L129.4 140.2Q129.7 140.2 129.8 140.4Q129.9 140.5 129.9 140.7Q129.9 140.9 129.8 141.1Q129.7 141.2 129.4 141.2L129.4 141.2L125.2 141.2Q125.0 141.2 124.9 141.1Q124.7 140.9 124.7 140.7Q124.7 140.5 124.9 140.4Q125.0 140.2 125.2 140.2L125.2 140.2L126.9 140.2L126.9 136.8Q126.9 136.6 126.8 136.5Q126.7 136.4 126.4 136.4L126.4 136.4L125.4 136.4Q125.2 136.4 125.1 136.2Q125.0 136.1 125.0 135.9Q125.0 135.7 125.1 135.5Q125.2 135.4 125.4 135.4L125.4 135.4L127.0 135.4Q127.4 135.4 127.7 135.6Q127.9 135.8 127.9 136.3L127.9 136.3L127.9 140.2ZM127.3 134.3L127.3 134.3Q127.0 134.3 126.7 134.1Q126.5 133.9 126.5 133.6L126.5 133.6Q126.5 133.3 126.7 133.1Q127.0 132.9 127.3 132.9L127.3 132.9Q127.7 132.9 127.9 133.1Q128.1 133.3 128.1 133.6L128.1 133.6Q128.1 133.9 127.9 134.1Q127.7 134.3 127.3 134.3ZM133.0 140.8L131.2 135.6Q131.2 135.5 131.2 135.4Q131.2 135.3 131.3 135.2Q131.3 135.2 131.4 135.1Q131.5 135.1 131.7 135.1L131.7 135.1Q131.9 135.1 132.0 135.2Q132.1 135.3 132.2 135.4L132.2 135.4L133.5 139.3Q133.6 139.5 133.7 139.5Q133.8 139.5 133.9 139.3L133.9 139.3L135.2 135.4Q135.3 135.3 135.4 135.2Q135.5 135.1 135.7 135.1L135.7 135.1Q135.9 135.1 136.0 135.1Q136.1 135.2 136.1 135.2Q136.2 135.3 136.2 135.4Q136.2 135.5 136.2 135.6L136.2 135.6L134.4 140.8Q134.3 141.1 134.1 141.2Q134.0 141.3 133.7 141.3L133.7 141.3Q133.4 141.3 133.3 141.2Q133.1 141.1 133.0 140.8L133.0 140.8ZM141.1 140.2L142.6 140.2Q142.9 140.2 143.0 140.4Q143.1 140.5 143.1 140.7Q143.1 140.9 143.0 141.1Q142.9 141.2 142.6 141.2L142.6 141.2L138.4 141.2Q138.2 141.2 138.1 141.1Q137.9 140.9 137.9 140.7Q137.9 140.5 138.1 140.4Q138.2 140.2 138.4 140.2L138.4 140.2L140.1 140.2L140.1 136.8Q140.1 136.6 140.0 136.5Q139.9 136.4 139.6 136.4L139.6 136.4L138.6 136.4Q138.4 136.4 138.3 136.2Q138.2 136.1 138.2 135.9Q138.2 135.7 138.3 135.5Q138.4 135.4 138.6 135.4L138.6 135.4L140.2 135.4Q140.6 135.4 140.9 135.6Q141.1 135.8 141.1 136.3L141.1 136.3L141.1 140.2ZM140.5 134.3L140.5 134.3Q140.2 134.3 139.9 134.1Q139.7 133.9 139.7 133.6L139.7 133.6Q139.7 133.3 139.9 133.1Q140.2 132.9 140.5 132.9L140.5 132.9Q140.9 132.9 141.1 133.1Q141.3 133.3 141.3 133.6L141.3 133.6Q141.3 133.9 141.1 134.1Q140.9 134.3 140.5 134.3ZM146.8 135.4L148.9 135.4Q149.1 135.4 149.2 135.5Q149.3 135.7 149.3 135.9Q149.3 136.1 149.2 136.2Q149.1 136.4 148.9 136.4L148.9 136.4L146.8 136.4L146.8 138.8Q146.8 139.5 147.1 139.9Q147.3 140.3 147.8 140.3L147.8 140.3Q148.0 140.3 148.2 140.3Q148.4 140.3 148.7 140.2L148.7 140.2Q148.9 140.0 149.1 140.1Q149.2 140.2 149.4 140.4L149.4 140.4Q149.5 140.6 149.4 140.8Q149.4 140.9 149.2 141.1L149.2 141.1Q148.8 141.2 148.5 141.3Q148.1 141.3 147.6 141.3L147.6 141.3Q147.2 141.3 146.9 141.2Q146.6 141.0 146.3 140.8Q146.1 140.5 146.0 140.0Q145.9 139.6 145.9 138.9L145.9 138.9L145.9 136.4L144.6 136.4Q144.3 136.4 144.2 136.2Q144.1 136.1 144.1 135.9Q144.1 135.7 144.2 135.5Q144.3 135.4 144.6 135.4L144.6 135.4L145.9 135.4L145.9 134.0Q145.9 133.7 146.0 133.6Q146.1 133.5 146.3 133.5Q146.6 133.5 146.7 133.6Q146.8 133.7 146.8 134.0L146.8 134.0L146.8 135.4ZM153.6 139.7L155.1 135.4Q155.2 135.3 155.3 135.2Q155.4 135.2 155.5 135.2L155.5 135.2Q155.8 135.2 155.9 135.3Q156.1 135.4 156.1 135.6L156.1 135.6Q156.1 135.6 156.0 135.7Q156.0 135.8 156.0 135.9L156.0 135.9L154.1 141.3Q154.0 141.6 153.9 141.9Q153.7 142.1 153.6 142.4Q153.4 142.7 153.2 143.0Q153.0 143.2 152.8 143.4L152.8 143.4Q152.6 143.6 152.2 143.7Q151.9 143.7 151.6 143.7L151.6 143.7Q151.3 143.7 151.2 143.6Q151.1 143.5 151.1 143.3L151.1 143.3L151.1 143.2Q151.1 143.0 151.2 142.9Q151.3 142.7 151.6 142.7L151.6 142.7Q151.8 142.7 152.0 142.7Q152.1 142.6 152.3 142.5Q152.4 142.4 152.5 142.2Q152.7 142.1 152.7 142.0Q152.8 141.8 152.9 141.7Q152.9 141.5 153.0 141.3L153.0 141.3L153.1 141.1L151.1 135.9Q151.1 135.8 151.1 135.7Q151.1 135.6 151.1 135.6L151.1 135.6Q151.1 135.4 151.2 135.3Q151.3 135.2 151.6 135.2L151.6 135.2Q151.8 135.2 151.8 135.2Q151.9 135.3 152.0 135.4L152.0 135.4L153.6 139.7Z "/><mask id="satori_om-id-2"><rect x="17" y="232" width="160" height="11" fill="#fff"/></mask><path fill="#656D76" d="M17.7 238.5L17.7 234.7Q17.7 234.5 17.8 234.4Q17.9 234.3 18.1 234.3L18.1 234.3Q18.3 234.3 18.4 234.4Q18.4 234.5 18.4 234.7L18.4 234.7L18.4 238.5Q18.4 238.7 18.5 238.9Q18.6 239.1 18.7 239.2Q18.8 239.4 19.0 239.4Q19.2 239.5 19.4 239.5L19.4 239.5Q19.6 239.5 19.8 239.4Q20.0 239.4 20.1 239.2Q20.2 239.1 20.3 238.9Q20.4 238.7 20.4 238.5L20.4 238.5L20.4 234.7Q20.4 234.5 20.4 234.4Q20.5 234.3 20.7 234.3L20.7 234.3Q20.9 234.3 21.0 234.4Q21.1 234.5 21.1 234.7L21.1 234.7L21.1 238.5Q21.1 238.9 21.0 239.2Q20.9 239.5 20.6 239.8Q20.4 240.0 20.1 240.1Q19.8 240.2 19.4 240.2L19.4 240.2Q19.0 240.2 18.7 240.1Q18.4 240.0 18.2 239.8Q17.9 239.5 17.8 239.2Q17.7 238.9 17.7 238.5L17.7 238.5ZM22.9 235.7L22.9 235.7Q23.1 235.7 23.2 235.8Q23.2 235.9 23.2 236.0L23.2 236.0L23.2 236.6Q23.3 236.4 23.4 236.2Q23.5 236.0 23.7 235.9Q23.8 235.8 24 235.7Q24.2 235.7 24.4 235.7L24.4 235.7Q24.9 235.7 25.2 235.9Q25.5 236.1 25.7 236.4Q25.8 236.7 25.9 237.1Q26.0 237.4 26.0 237.8L26.0 237.8Q26.0 238.2 25.9 238.7Q25.8 239.1 25.7 239.5Q25.5 239.8 25.2 240.0Q24.8 240.2 24.3 240.2L24.3 240.2Q23.9 240.2 23.6 240.0Q23.3 239.8 23.2 239.4L23.2 239.4L23.2 241.3Q23.2 241.5 23.2 241.6Q23.1 241.7 22.9 241.7L22.9 241.7Q22.7 241.7 22.6 241.6Q22.5 241.5 22.5 241.3L22.5 241.3L22.5 236.0Q22.5 235.9 22.6 235.8Q22.7 235.7 22.9 235.7ZM24.3 236.4L24.3 236.4Q24.1 236.4 23.9 236.5Q23.7 236.6 23.6 236.7Q23.4 236.9 23.3 237.0Q23.2 237.2 23.2 237.4L23.2 237.4L23.2 238.3Q23.2 238.5 23.3 238.7Q23.4 238.9 23.5 239.1Q23.6 239.3 23.8 239.4Q24 239.5 24.2 239.5L24.2 239.5Q24.6 239.5 24.8 239.4Q25.0 239.2 25.1 239.0Q25.2 238.8 25.2 238.5Q25.2 238.2 25.2 237.9L25.2 237.9Q25.2 237.5 25.2 237.3Q25.2 237.0 25.1 236.8Q25.0 236.6 24.8 236.5Q24.6 236.4 24.3 236.4ZM30.3 240.2L30.3 240.2Q30.1 240.2 30.0 240.1Q30.0 240.1 30.0 239.9L30.0 239.9L30.0 239.4Q29.9 239.6 29.8 239.7Q29.7 239.9 29.5 240.0Q29.4 240.1 29.2 240.2Q29.0 240.2 28.8 240.2L28.8 240.2Q28.3 240.2 28.0 240.0Q27.7 239.9 27.5 239.5Q27.4 239.2 27.3 238.9Q27.2 238.5 27.2 238.1L27.2 238.1Q27.2 237.7 27.3 237.2Q27.4 236.8 27.5 236.5Q27.7 236.1 28.0 235.9Q28.4 235.7 28.9 235.7L28.9 235.7Q29.3 235.7 29.6 235.9Q29.9 236.2 30.0 236.5L30.0 236.5L30.0 234.6Q30.0 234.4 30.0 234.3Q30.1 234.2 30.3 234.2L30.3 234.2Q30.5 234.2 30.6 234.3Q30.7 234.4 30.7 234.6L30.7 234.6L30.7 239.9Q30.7 240.1 30.6 240.1Q30.5 240.2 30.3 240.2ZM28.9 239.5L28.9 239.5Q29.1 239.5 29.3 239.4Q29.5 239.3 29.6 239.2Q29.8 239.1 29.9 238.9Q30.0 238.7 30.0 238.5L30.0 238.5L30.0 237.6Q30.0 237.4 29.9 237.2Q29.8 237.0 29.7 236.8Q29.6 236.6 29.4 236.5Q29.2 236.4 29.0 236.4L29.0 236.4Q28.6 236.4 28.4 236.5Q28.2 236.7 28.1 236.9Q28.0 237.2 28.0 237.5Q28.0 237.8 28.0 238.1L28.0 238.1Q28.0 238.4 28 238.6Q28.0 238.9 28.1 239.1Q28.2 239.3 28.4 239.4Q28.6 239.5 28.9 239.5ZM33.3 240.2L33.3 240.2Q33.0 240.2 32.8 240.1Q32.5 240.0 32.4 239.8Q32.2 239.6 32.1 239.3Q32.0 238.9 32.0 238.4L32.0 238.4Q32.0 237.8 32.1 237.3Q32.2 236.8 32.4 236.5Q32.6 236.1 33.0 235.9Q33.3 235.7 33.8 235.7L33.8 235.7Q34.2 235.7 34.4 235.9L34.4 235.9Q34.6 236.0 34.7 236.3L34.7 236.3Q34.7 236.1 34.7 236.0L34.7 236.0Q34.7 235.8 34.8 235.8Q35.0 235.7 35.1 235.7L35.1 235.7Q35.3 235.7 35.4 235.8Q35.5 235.8 35.4 236.0L35.4 236.0Q35.4 236.5 35.3 237.0Q35.3 237.4 35.3 237.9Q35.3 238.4 35.4 238.9Q35.4 239.3 35.6 239.9L35.6 239.9Q35.6 240.1 35.5 240.2Q35.5 240.2 35.3 240.2Q35.1 240.2 35.0 240.2Q34.9 240.1 34.8 239.9L34.8 239.9Q34.7 239.5 34.7 239.1L34.7 239.1Q34.6 239.3 34.6 239.4L34.6 239.4Q34.4 239.8 34.1 240.0Q33.8 240.2 33.3 240.2ZM33.4 239.5L33.4 239.5Q33.7 239.5 33.9 239.4Q34.1 239.3 34.2 239.0Q34.4 238.8 34.5 238.4Q34.6 238.1 34.6 237.7L34.6 237.7Q34.6 237.5 34.5 237.3Q34.5 237.0 34.5 236.9Q34.4 236.7 34.3 236.5Q34.1 236.4 33.9 236.4L33.9 236.4Q33.6 236.4 33.4 236.6Q33.2 236.7 33.0 237.0Q32.9 237.3 32.8 237.6Q32.7 238.0 32.7 238.4L32.7 238.4Q32.7 239.0 32.9 239.2Q33.0 239.5 33.4 239.5ZM38.6 235.9L40.0 235.9Q40.2 235.9 40.3 236.0Q40.4 236.1 40.4 236.3Q40.4 236.4 40.3 236.5Q40.2 236.6 40.0 236.6L40.0 236.6L38.6 236.6L38.6 238.4Q38.6 238.9 38.7 239.2Q38.9 239.5 39.2 239.5L39.2 239.5Q39.4 239.5 39.6 239.5Q39.7 239.5 39.9 239.4L39.9 239.4Q40.0 239.3 40.2 239.3Q40.3 239.4 40.4 239.5L40.4 239.5Q40.5 239.7 40.4 239.8Q40.4 240.0 40.3 240.0L40.3 240.0Q40.0 240.2 39.7 240.2Q39.5 240.2 39.1 240.2L39.1 240.2Q38.8 240.2 38.6 240.1Q38.4 240.0 38.2 239.8Q38.0 239.6 37.9 239.3Q37.8 239.0 37.8 238.5L37.8 238.5L37.8 236.6L36.9 236.6Q36.7 236.6 36.7 236.5Q36.6 236.4 36.6 236.3Q36.6 236.1 36.7 236.0Q36.7 235.9 36.9 235.9L36.9 235.9L37.8 235.9L37.8 234.9Q37.8 234.7 37.9 234.6Q38.0 234.5 38.2 234.5Q38.4 234.5 38.5 234.6Q38.6 234.7 38.6 234.9L38.6 234.9L38.6 235.9ZM44.7 239.1L44.7 239.1Q44.8 239.1 44.9 239.2Q45.0 239.3 45.0 239.5L45.0 239.5Q45.0 239.5 45.0 239.6Q45.0 239.7 44.9 239.8L44.9 239.8Q44.7 239.9 44.6 240.0Q44.4 240.1 44.3 240.1Q44.1 240.2 43.9 240.2Q43.8 240.2 43.6 240.2L43.6 240.2Q43.1 240.2 42.7 240.1Q42.4 239.9 42.1 239.6Q41.9 239.3 41.7 238.9Q41.6 238.5 41.6 238.0L41.6 238.0Q41.6 237.5 41.7 237.1Q41.8 236.7 42.0 236.4Q42.2 236.1 42.6 235.9Q42.9 235.7 43.4 235.7L43.4 235.7Q43.9 235.7 44.2 235.8Q44.6 236.0 44.8 236.3Q45.0 236.6 45.0 237.0Q45.1 237.4 45.1 237.9L45.1 237.9Q45.1 238.0 45.0 238.1Q44.9 238.2 44.7 238.2L44.7 238.2L42.3 238.2Q42.4 238.6 42.5 238.8Q42.6 239.0 42.7 239.2Q42.9 239.4 43.1 239.4Q43.3 239.5 43.6 239.5L43.6 239.5Q43.9 239.5 44.1 239.4Q44.3 239.3 44.5 239.2L44.5 239.2Q44.5 239.1 44.6 239.1Q44.6 239.1 44.7 239.1ZM42.3 237.6L44.3 237.6Q44.3 237.6 44.4 237.6Q44.4 237.5 44.4 237.3L44.4 237.3Q44.4 237.2 44.3 237Q44.3 236.8 44.1 236.7Q44.0 236.6 43.8 236.5Q43.7 236.4 43.4 236.4L43.4 236.4Q43.2 236.4 43.0 236.5Q42.8 236.6 42.7 236.7Q42.5 236.9 42.4 237.1Q42.4 237.3 42.3 237.6L42.3 237.6ZM49.5 240.2L49.5 240.2Q49.3 240.2 49.2 240.1Q49.2 240.1 49.2 239.9L49.2 239.9L49.2 239.4Q49.1 239.6 49.0 239.7Q48.9 239.9 48.7 240.0Q48.6 240.1 48.4 240.2Q48.2 240.2 48.0 240.2L48.0 240.2Q47.5 240.2 47.2 240.0Q46.9 239.9 46.7 239.5Q46.6 239.2 46.5 238.9Q46.4 238.5 46.4 238.1L46.4 238.1Q46.4 237.7 46.5 237.2Q46.6 236.8 46.7 236.5Q46.9 236.1 47.2 235.9Q47.6 235.7 48.1 235.7L48.1 235.7Q48.5 235.7 48.8 235.9Q49.1 236.2 49.2 236.5L49.2 236.5L49.2 234.6Q49.2 234.4 49.2 234.3Q49.3 234.2 49.5 234.2L49.5 234.2Q49.7 234.2 49.8 234.3Q49.9 234.4 49.9 234.6L49.9 234.6L49.9 239.9Q49.9 240.1 49.8 240.1Q49.7 240.2 49.5 240.2ZM48.1 239.5L48.1 239.5Q48.3 239.5 48.5 239.4Q48.7 239.3 48.8 239.2Q49.0 239.1 49.1 238.9Q49.2 238.7 49.2 238.5L49.2 238.5L49.2 237.6Q49.2 237.4 49.1 237.2Q49.0 237.0 48.9 236.8Q48.8 236.6 48.6 236.5Q48.4 236.4 48.2 236.4L48.2 236.4Q47.8 236.4 47.6 236.5Q47.4 236.7 47.3 236.9Q47.2 237.2 47.2 237.5Q47.2 237.8 47.2 238.1L47.2 238.1Q47.2 238.4 47.2 238.6Q47.2 238.9 47.3 239.1Q47.4 239.3 47.6 239.4Q47.8 239.5 48.1 239.5ZM52.3 239.6L52.3 239.6Q52.3 239.3 52.5 239.1Q52.7 238.9 53.0 238.9L53.0 238.9Q53.3 238.9 53.5 239.1Q53.7 239.3 53.7 239.6L53.7 239.6Q53.7 239.8 53.5 240.0Q53.3 240.2 53.0 240.2L53.0 240.2Q52.7 240.2 52.5 240.0Q52.3 239.8 52.3 239.6ZM52.3 236.6L52.3 236.6Q52.3 236.3 52.5 236.1Q52.7 235.9 53.0 235.9L53.0 235.9Q53.3 235.9 53.5 236.1Q53.7 236.3 53.7 236.6L53.7 236.6Q53.7 236.9 53.5 237.1Q53.3 237.3 53.0 237.3L53.0 237.3Q52.7 237.3 52.5 237.1Q52.3 236.9 52.3 236.6Z M64.1 240.2L61.3 240.2Q61.1 240.2 60.9 240.0Q60.8 239.9 60.8 239.7L60.8 239.7Q60.8 239.6 60.8 239.5Q60.9 239.4 61.0 239.3L61.0 239.3L62.8 237.4Q62.9 237.3 63.0 237.1Q63.2 236.9 63.3 236.8Q63.4 236.6 63.5 236.4Q63.6 236.2 63.6 236.0L63.6 236.0Q63.6 235.7 63.5 235.5Q63.4 235.3 63.3 235.2Q63.1 235.1 62.9 235.0Q62.7 235.0 62.5 235.0L62.5 235.0Q62.2 235.0 61.9 235.0Q61.7 235.1 61.5 235.2L61.5 235.2Q61.4 235.3 61.2 235.3Q61.1 235.2 61.0 235.1L61.0 235.1Q61.0 234.9 61.0 234.8Q61.0 234.7 61.2 234.6L61.2 234.6Q61.4 234.4 61.7 234.3Q62.1 234.2 62.5 234.2L62.5 234.2Q62.9 234.2 63.2 234.3Q63.6 234.4 63.8 234.6Q64.0 234.8 64.2 235.1Q64.3 235.4 64.3 235.9L64.3 235.9Q64.3 236.1 64.3 236.4Q64.2 236.6 64.1 236.9Q63.9 237.1 63.7 237.3Q63.6 237.6 63.4 237.8L63.4 237.8L61.9 239.3Q61.9 239.3 61.9 239.4Q61.9 239.4 62.1 239.4L62.1 239.4L64.1 239.4Q64.3 239.4 64.4 239.5Q64.5 239.6 64.5 239.8L64.5 239.8Q64.5 240.0 64.4 240.1Q64.3 240.2 64.1 240.2L64.1 240.2ZM67.4 240.2L67.4 240.2Q66.8 240.2 66.4 239.9Q66.1 239.7 65.9 239.2Q65.6 238.8 65.6 238.2Q65.5 237.7 65.5 237.2Q65.5 236.8 65.6 236.2Q65.6 235.7 65.9 235.3Q66.1 234.8 66.4 234.5Q66.8 234.2 67.4 234.2L67.4 234.2Q68.0 234.2 68.4 234.5Q68.8 234.8 69.0 235.3Q69.2 235.7 69.2 236.2Q69.3 236.7 69.3 237.2L69.3 237.2Q69.3 237.7 69.2 238.2Q69.2 238.8 68.9 239.2Q68.7 239.7 68.4 239.9Q68 240.2 67.4 240.2ZM67.4 239.5L67.4 239.5Q67.8 239.5 68.0 239.3Q68.2 239.0 68.4 238.7Q68.5 238.3 68.5 237.9Q68.6 237.5 68.6 237.2L68.6 237.2Q68.6 237.0 68.6 236.8L68.6 236.8L66.4 238.6Q66.4 238.6 66.4 238.7L66.4 238.7Q66.6 239.0 66.8 239.3Q67.0 239.5 67.4 239.5ZM66.2 237.7L68.4 235.8Q68.4 235.8 68.4 235.8L68.4 235.8Q68.2 235.5 68.0 235.2Q67.8 235.0 67.4 235.0Q67.0 235.0 66.8 235.2Q66.6 235.5 66.4 235.8Q66.3 236.2 66.3 236.6Q66.2 237.0 66.2 237.2L66.2 237.2Q66.2 237.4 66.2 237.7L66.2 237.7ZM73.7 240.2L70.9 240.2Q70.7 240.2 70.5 240.0Q70.4 239.9 70.4 239.7L70.4 239.7Q70.4 239.6 70.4 239.5Q70.5 239.4 70.6 239.3L70.6 239.3L72.4 237.4Q72.5 237.3 72.6 237.1Q72.8 236.9 72.9 236.8Q73.0 236.6 73.1 236.4Q73.2 236.2 73.2 236.0L73.2 236.0Q73.2 235.7 73.1 235.5Q73.0 235.3 72.9 235.2Q72.7 235.1 72.5 235.0Q72.3 235.0 72.1 235.0L72.1 235.0Q71.8 235.0 71.5 235.0Q71.3 235.1 71.1 235.2L71.1 235.2Q71.0 235.3 70.8 235.3Q70.7 235.2 70.6 235.1L70.6 235.1Q70.6 234.9 70.6 234.8Q70.6 234.7 70.8 234.6L70.8 234.6Q71.0 234.4 71.3 234.3Q71.7 234.2 72.1 234.2L72.1 234.2Q72.5 234.2 72.8 234.3Q73.2 234.4 73.4 234.6Q73.6 234.8 73.8 235.1Q73.9 235.4 73.9 235.9L73.9 235.9Q73.9 236.1 73.9 236.4Q73.8 236.6 73.7 236.9Q73.5 237.1 73.3 237.3Q73.2 237.6 73.0 237.8L73.0 237.8L71.5 239.3Q71.5 239.3 71.5 239.4Q71.5 239.4 71.7 239.4L71.7 239.4L73.7 239.4Q73.9 239.4 74.0 239.5Q74.1 239.6 74.1 239.8L74.1 239.8Q74.1 240.0 74.0 240.1Q73.9 240.2 73.7 240.2L73.7 240.2ZM77.0 234.5L77.0 234.5Q77.1 234.4 77.2 234.3Q77.4 234.2 77.5 234.2L77.5 234.2Q77.7 234.2 77.7 234.3Q77.8 234.3 77.8 234.4Q77.8 234.5 77.8 234.6Q77.8 234.6 77.7 234.7L77.7 234.7Q77 235.2 76.5 235.9Q76.1 236.5 75.9 237.2L75.9 237.2Q76 237.0 76.1 236.9Q76.3 236.8 76.5 236.7Q76.6 236.6 76.9 236.5Q77.1 236.5 77.3 236.5L77.3 236.5Q77.7 236.5 78.0 236.6Q78.3 236.7 78.5 237.0Q78.7 237.2 78.8 237.6Q78.9 237.9 78.9 238.4L78.9 238.4Q78.9 238.8 78.7 239.2Q78.6 239.5 78.4 239.8Q78.1 240 77.8 240.1Q77.4 240.2 77.0 240.2L77.0 240.2Q76.6 240.2 76.2 240.1Q75.9 240 75.6 239.8Q75.4 239.5 75.3 239.2Q75.1 238.8 75.1 238.4L75.1 238.4Q75.1 237.9 75.2 237.5Q75.2 237.1 75.3 236.7L75.3 236.7Q75.6 236.1 76.0 235.5Q76.4 234.9 77.0 234.5ZM77 239.5L77 239.5Q77.5 239.5 77.8 239.2Q78.2 238.9 78.2 238.4L78.2 238.4Q78.2 237.8 77.9 237.4Q77.6 237.1 77 237.1L77 237.1Q76.7 237.1 76.5 237.2Q76.3 237.3 76.2 237.5Q76 237.7 75.9 237.9Q75.8 238.1 75.8 238.4L75.8 238.4Q75.8 238.9 76.2 239.2Q76.5 239.5 77 239.5ZM83.2 237.9L80.4 237.9Q80.2 237.9 80.1 237.8Q80.0 237.7 80.0 237.5L80.0 237.5Q80.0 237.3 80.1 237.2Q80.2 237.2 80.4 237.2L80.4 237.2L83.2 237.2Q83.4 237.2 83.5 237.2Q83.6 237.3 83.6 237.5L83.6 237.5Q83.6 237.7 83.5 237.8Q83.4 237.9 83.2 237.9L83.2 237.9ZM86.6 240.2L86.6 240.2Q86.0 240.2 85.6 239.9Q85.3 239.7 85.1 239.2Q84.8 238.8 84.8 238.2Q84.7 237.7 84.7 237.2Q84.7 236.8 84.8 236.2Q84.8 235.7 85.1 235.3Q85.3 234.8 85.6 234.5Q86.0 234.2 86.6 234.2L86.6 234.2Q87.2 234.2 87.6 234.5Q88.0 234.8 88.2 235.3Q88.4 235.7 88.4 236.2Q88.5 236.7 88.5 237.2L88.5 237.2Q88.5 237.7 88.4 238.2Q88.4 238.8 88.1 239.2Q87.9 239.7 87.6 239.9Q87.2 240.2 86.6 240.2ZM86.6 239.5L86.6 239.5Q87.0 239.5 87.2 239.3Q87.4 239.0 87.6 238.7Q87.7 238.3 87.7 237.9Q87.8 237.5 87.8 237.2L87.8 237.2Q87.8 237.0 87.8 236.8L87.8 236.8L85.6 238.6Q85.6 238.6 85.6 238.7L85.6 238.7Q85.8 239.0 86.0 239.3Q86.2 239.5 86.6 239.5ZM85.4 237.7L87.6 235.8Q87.6 235.8 87.6 235.8L87.6 235.8Q87.4 235.5 87.2 235.2Q87.0 235.0 86.6 235.0Q86.2 235.0 86.0 235.2Q85.8 235.5 85.6 235.8Q85.5 236.2 85.5 236.6Q85.4 237.0 85.4 237.2L85.4 237.2Q85.4 237.4 85.4 237.7L85.4 237.7ZM92.9 240.2L90.1 240.2Q89.9 240.2 89.7 240.0Q89.6 239.9 89.6 239.7L89.6 239.7Q89.6 239.6 89.6 239.5Q89.7 239.4 89.8 239.3L89.8 239.3L91.6 237.4Q91.7 237.3 91.8 237.1Q92.0 236.9 92.1 236.8Q92.2 236.6 92.3 236.4Q92.4 236.2 92.4 236.0L92.4 236.0Q92.4 235.7 92.3 235.5Q92.2 235.3 92.1 235.2Q91.9 235.1 91.7 235.0Q91.5 235.0 91.3 235.0L91.3 235.0Q91.0 235.0 90.7 235.0Q90.5 235.1 90.3 235.2L90.3 235.2Q90.2 235.3 90.0 235.3Q89.9 235.2 89.8 235.1L89.8 235.1Q89.8 234.9 89.8 234.8Q89.8 234.7 90.0 234.6L90.0 234.6Q90.2 234.4 90.5 234.3Q90.9 234.2 91.3 234.2L91.3 234.2Q91.7 234.2 92.0 234.3Q92.4 234.4 92.6 234.6Q92.8 234.8 93.0 235.1Q93.1 235.4 93.1 235.9L93.1 235.9Q93.1 236.1 93.1 236.4Q93.0 236.6 92.9 236.9Q92.7 237.1 92.5 237.3Q92.4 237.6 92.2 237.8L92.2 237.8L90.7 239.3Q90.7 239.3 90.7 239.4Q90.7 239.4 90.9 239.4L90.9 239.4L92.9 239.4Q93.1 239.4 93.2 239.5Q93.3 239.6 93.3 239.8L93.3 239.8Q93.3 240.0 93.2 240.1Q93.1 240.2 92.9 240.2L92.9 240.2ZM97.6 237.9L94.8 237.9Q94.6 237.9 94.5 237.8Q94.4 237.7 94.4 237.5L94.4 237.5Q94.4 237.3 94.5 237.2Q94.6 237.2 94.8 237.2L94.8 237.2L97.6 237.2Q97.8 237.2 97.9 237.2Q98.0 237.3 98.0 237.5L98.0 237.5Q98.0 237.7 97.9 237.8Q97.8 237.9 97.6 237.9L97.6 237.9ZM101.0 240.2L101.0 240.2Q100.4 240.2 100.0 239.9Q99.7 239.7 99.5 239.2Q99.2 238.8 99.2 238.2Q99.1 237.7 99.1 237.2Q99.1 236.8 99.2 236.2Q99.2 235.7 99.5 235.3Q99.7 234.8 100.0 234.5Q100.4 234.2 101.0 234.2L101.0 234.2Q101.6 234.2 102.0 234.5Q102.4 234.8 102.6 235.3Q102.8 235.7 102.8 236.2Q102.9 236.7 102.9 237.2L102.9 237.2Q102.9 237.7 102.8 238.2Q102.8 238.8 102.5 239.2Q102.3 239.7 102.0 239.9Q101.6 240.2 101.0 240.2ZM101.0 239.5L101.0 239.5Q101.4 239.5 101.6 239.3Q101.8 239.0 102.0 238.7Q102.1 238.3 102.1 237.9Q102.2 237.5 102.2 237.2L102.2 237.2Q102.2 237.0 102.2 236.8L102.2 236.8L100.0 238.6Q100.0 238.6 100.0 238.7L100.0 238.7Q100.2 239.0 100.4 239.3Q100.6 239.5 101.0 239.5ZM99.8 237.7L102.0 235.8Q102.0 235.8 102.0 235.8L102.0 235.8Q101.8 235.5 101.6 235.2Q101.4 235.0 101.0 235.0Q100.6 235.0 100.4 235.2Q100.2 235.5 100.0 235.8Q99.9 236.2 99.9 236.6Q99.8 237.0 99.8 237.2L99.8 237.2Q99.8 237.4 99.8 237.7L99.8 237.7ZM105.8 234.5L105.8 234.5Q105.9 234.4 106.0 234.3Q106.2 234.2 106.3 234.2L106.3 234.2Q106.5 234.2 106.5 234.3Q106.6 234.3 106.6 234.4Q106.6 234.5 106.6 234.6Q106.6 234.6 106.5 234.7L106.5 234.7Q105.8 235.2 105.3 235.9Q104.9 236.5 104.7 237.2L104.7 237.2Q104.8 237.0 104.9 236.9Q105.1 236.8 105.3 236.7Q105.4 236.6 105.7 236.5Q105.9 236.5 106.1 236.5L106.1 236.5Q106.5 236.5 106.8 236.6Q107.1 236.7 107.3 237.0Q107.5 237.2 107.6 237.6Q107.7 237.9 107.7 238.4L107.7 238.4Q107.7 238.8 107.5 239.2Q107.4 239.5 107.2 239.8Q106.9 240 106.6 240.1Q106.2 240.2 105.8 240.2L105.8 240.2Q105.4 240.2 105.0 240.1Q104.7 240 104.4 239.8Q104.2 239.5 104.1 239.2Q103.9 238.8 103.9 238.4L103.9 238.4Q103.9 237.9 104.0 237.5Q104.0 237.1 104.1 236.7L104.1 236.7Q104.4 236.1 104.8 235.5Q105.2 234.9 105.8 234.5ZM105.8 239.5L105.8 239.5Q106.3 239.5 106.6 239.2Q107.0 238.9 107.0 238.4L107.0 238.4Q107.0 237.8 106.7 237.4Q106.4 237.1 105.8 237.1L105.8 237.1Q105.5 237.1 105.3 237.2Q105.1 237.3 105.0 237.5Q104.8 237.7 104.7 237.9Q104.6 238.1 104.6 238.4L104.6 238.4Q104.6 238.9 105.0 239.2Q105.3 239.5 105.8 239.5Z M116.9 240.2L114.1 240.2Q113.9 240.2 113.7 240.0Q113.6 239.9 113.6 239.7L113.6 239.7Q113.6 239.6 113.6 239.5Q113.7 239.4 113.8 239.3L113.8 239.3L115.6 237.4Q115.7 237.3 115.8 237.1Q116.0 236.9 116.1 236.8Q116.2 236.6 116.3 236.4Q116.4 236.2 116.4 236.0L116.4 236.0Q116.4 235.7 116.3 235.5Q116.2 235.3 116.1 235.2Q115.9 235.1 115.7 235.0Q115.5 235.0 115.3 235.0L115.3 235.0Q115.0 235.0 114.7 235.0Q114.5 235.1 114.3 235.2L114.3 235.2Q114.2 235.3 114.0 235.3Q113.9 235.2 113.8 235.1L113.8 235.1Q113.8 234.9 113.8 234.8Q113.8 234.7 114.0 234.6L114.0 234.6Q114.2 234.4 114.5 234.3Q114.9 234.2 115.3 234.2L115.3 234.2Q115.7 234.2 116.0 234.3Q116.4 234.4 116.6 234.6Q116.8 234.8 117.0 235.1Q117.1 235.4 117.1 235.9L117.1 235.9Q117.1 236.1 117.1 236.4Q117.0 236.6 116.9 236.9Q116.7 237.1 116.5 237.3Q116.4 237.6 116.2 237.8L116.2 237.8L114.7 239.3Q114.7 239.3 114.7 239.4Q114.7 239.4 114.9 239.4L114.9 239.4L116.9 239.4Q117.1 239.4 117.2 239.5Q117.3 239.6 117.3 239.8L117.3 239.8Q117.3 240.0 117.2 240.1Q117.1 240.2 116.9 240.2L116.9 240.2ZM120.2 240.2L120.2 240.2Q119.6 240.2 119.2 239.9Q118.9 239.7 118.7 239.2Q118.4 238.8 118.4 238.2Q118.3 237.7 118.3 237.2Q118.3 236.8 118.4 236.2Q118.4 235.7 118.7 235.3Q118.9 234.8 119.2 234.5Q119.6 234.2 120.2 234.2L120.2 234.2Q120.8 234.2 121.2 234.5Q121.6 234.8 121.8 235.3Q122.0 235.7 122.0 236.2Q122.1 236.7 122.1 237.2L122.1 237.2Q122.1 237.7 122.0 238.2Q122.0 238.8 121.7 239.2Q121.5 239.7 121.2 239.9Q120.8 240.2 120.2 240.2ZM120.2 239.5L120.2 239.5Q120.6 239.5 120.8 239.3Q121.0 239.0 121.2 238.7Q121.3 238.3 121.3 237.9Q121.4 237.5 121.4 237.2L121.4 237.2Q121.4 237.0 121.4 236.8L121.4 236.8L119.2 238.6Q119.2 238.6 119.2 238.7L119.2 238.7Q119.4 239.0 119.6 239.3Q119.8 239.5 120.2 239.5ZM119.0 237.7L121.2 235.8Q121.2 235.8 121.2 235.8L121.2 235.8Q121.0 235.5 120.8 235.2Q120.6 235.0 120.2 235.0Q119.8 235.0 119.6 235.2Q119.4 235.5 119.2 235.8Q119.1 236.2 119.1 236.6Q119.0 237.0 119.0 237.2L119.0 237.2Q119.0 237.4 119.0 237.7L119.0 237.7ZM124.3 239.6L124.3 239.6Q124.3 239.3 124.5 239.1Q124.7 238.9 125.0 238.9L125.0 238.9Q125.3 238.9 125.5 239.1Q125.7 239.3 125.7 239.6L125.7 239.6Q125.7 239.8 125.5 240.0Q125.3 240.2 125.0 240.2L125.0 240.2Q124.7 240.2 124.5 240.0Q124.3 239.8 124.3 239.6ZM124.3 236.6L124.3 236.6Q124.3 236.3 124.5 236.1Q124.7 235.9 125.0 235.9L125.0 235.9Q125.3 235.9 125.5 236.1Q125.7 236.3 125.7 236.6L125.7 236.6Q125.7 236.9 125.5 237.1Q125.3 237.3 125.0 237.3L125.0 237.3Q124.7 237.3 124.5 237.1Q124.3 236.9 124.3 236.6ZM131.3 240.2L128.5 240.2Q128.3 240.2 128.1 240.0Q128.0 239.9 128.0 239.7L128.0 239.7Q128.0 239.6 128.0 239.5Q128.1 239.4 128.2 239.3L128.2 239.3L130.0 237.4Q130.1 237.3 130.2 237.1Q130.4 236.9 130.5 236.8Q130.6 236.6 130.7 236.4Q130.8 236.2 130.8 236.0L130.8 236.0Q130.8 235.7 130.7 235.5Q130.6 235.3 130.5 235.2Q130.3 235.1 130.1 235.0Q129.9 235.0 129.7 235.0L129.7 235.0Q129.4 235.0 129.1 235.0Q128.9 235.1 128.7 235.2L128.7 235.2Q128.6 235.3 128.4 235.3Q128.3 235.2 128.2 235.1L128.2 235.1Q128.2 234.9 128.2 234.8Q128.2 234.7 128.4 234.6L128.4 234.6Q128.6 234.4 128.9 234.3Q129.3 234.2 129.7 234.2L129.7 234.2Q130.1 234.2 130.4 234.3Q130.8 234.4 131.0 234.6Q131.2 234.8 131.4 235.1Q131.5 235.4 131.5 235.9L131.5 235.9Q131.5 236.1 131.5 236.4Q131.4 236.6 131.3 236.9Q131.1 237.1 130.9 237.3Q130.8 237.6 130.6 237.8L130.6 237.8L129.1 239.3Q129.1 239.3 129.1 239.4Q129.1 239.4 129.3 239.4L129.3 239.4L131.3 239.4Q131.5 239.4 131.6 239.5Q131.7 239.6 131.7 239.8L131.7 239.8Q131.7 240.0 131.6 240.1Q131.5 240.2 131.3 240.2L131.3 240.2ZM133.0 240.0L133.0 240.0Q132.8 239.9 132.8 239.8Q132.7 239.6 132.8 239.5L132.8 239.5Q132.9 239.3 133.0 239.3Q133.1 239.2 133.4 239.3L133.4 239.3Q133.6 239.4 133.8 239.5Q134.1 239.5 134.4 239.5L134.4 239.5Q135.0 239.5 135.3 239.2Q135.6 238.9 135.6 238.4L135.6 238.4Q135.6 238.0 135.5 237.9Q135.3 237.7 135.0 237.6Q134.7 237.5 134.4 237.5Q134.1 237.4 133.8 237.5L133.8 237.5Q133.8 237.5 133.7 237.5Q133.6 237.4 133.6 237.4Q133.5 237.3 133.5 237.3Q133.5 237.2 133.5 237.1L133.5 237.1Q133.5 236.9 133.6 236.8Q133.7 236.7 133.9 236.7L133.9 236.7Q134.1 236.7 134.4 236.7Q134.6 236.7 134.9 236.5Q135.1 236.4 135.2 236.2Q135.4 236.1 135.4 235.8L135.4 235.8Q135.4 235.5 135.3 235.4Q135.2 235.2 135.0 235.1Q134.8 235.0 134.6 235.0Q134.4 235.0 134.2 235.0L134.2 235.0Q134.0 235.0 133.8 235.0Q133.6 235.0 133.4 235.2L133.4 235.2Q133.3 235.2 133.2 235.2Q133.0 235.1 133.0 235.0L133.0 235.0Q132.9 234.9 132.9 234.7Q133.0 234.6 133.1 234.5L133.1 234.5Q133.3 234.4 133.6 234.3Q133.9 234.2 134.2 234.2L134.2 234.2Q134.6 234.2 134.9 234.3Q135.3 234.4 135.5 234.6Q135.8 234.7 135.9 235.0Q136.1 235.3 136.1 235.7L136.1 235.7Q136.1 235.9 136.0 236.1Q136.0 236.4 135.9 236.5Q135.8 236.7 135.6 236.8Q135.4 237.0 135.2 237.0L135.2 237.0Q135.5 237.0 135.7 237.2Q136.0 237.3 136.1 237.5Q136.2 237.7 136.3 238.0Q136.4 238.2 136.4 238.5L136.4 238.5Q136.4 238.9 136.2 239.2Q136.1 239.5 135.8 239.8Q135.6 240.0 135.2 240.1Q134.9 240.2 134.4 240.2L134.4 240.2Q134.0 240.2 133.7 240.2Q133.3 240.1 133.0 240.0Z M142.3 237.2L142.3 237.2Q142.3 236.6 142.4 236.1Q142.5 235.5 142.8 235.1Q143.1 234.7 143.6 234.5Q144.0 234.2 144.6 234.2L144.6 234.2Q145.0 234.2 145.2 234.3Q145.5 234.4 145.7 234.5Q145.8 234.6 145.9 234.7Q146.1 234.8 146.1 235.0L146.1 235.0Q146.2 235.2 146.1 235.3Q146.1 235.4 146.0 235.5L146.0 235.5Q145.9 235.6 145.8 235.5Q145.6 235.5 145.5 235.4L145.5 235.4Q145.4 235.2 145.2 235.1Q145.0 235.0 144.6 235.0L144.6 235.0Q144.2 235.0 143.9 235.1Q143.6 235.3 143.4 235.6Q143.2 236.0 143.1 236.4Q143.0 236.8 143.0 237.2L143.0 237.2Q143.0 237.6 143.1 238.0Q143.2 238.4 143.4 238.8Q143.6 239.1 143.9 239.3Q144.2 239.5 144.7 239.5L144.7 239.5Q144.8 239.5 144.9 239.5Q145.0 239.5 145.1 239.5Q145.3 239.4 145.4 239.4Q145.5 239.4 145.5 239.3L145.5 239.3Q145.7 239.2 145.8 239.2Q146.0 239.2 146.1 239.3L146.1 239.3Q146.2 239.4 146.2 239.6Q146.2 239.7 146.0 239.9L146.0 239.9Q145.9 240.0 145.7 240.1Q145.6 240.1 145.4 240.2Q145.2 240.2 145.0 240.2Q144.8 240.2 144.6 240.2L144.6 240.2Q144.0 240.2 143.5 240.0Q143.1 239.7 142.8 239.3Q142.5 238.9 142.4 238.4Q142.3 237.8 142.3 237.2ZM149.9 235.5L149.9 235.5Q149.8 235.2 149.5 235.1Q149.3 235.0 149 235.0L149 235.0Q148.6 235.0 148.3 235.2Q148.0 235.4 148.0 235.8L148.0 235.8Q148.0 236.0 148.1 236.2Q148.2 236.4 148.3 236.5Q148.4 236.6 148.6 236.6Q148.8 236.7 149 236.7L149 236.7Q149.4 236.8 149.7 237.0Q150.0 237.1 150.3 237.3Q150.5 237.5 150.7 237.8Q150.8 238.1 150.8 238.6L150.8 238.6Q150.8 239.0 150.7 239.3Q150.6 239.6 150.3 239.8Q150.1 240 149.8 240.1Q149.4 240.2 149 240.2L149 240.2Q148.6 240.2 148.3 240.2Q148.0 240.1 147.8 239.9Q147.6 239.7 147.4 239.5Q147.3 239.2 147.2 238.9L147.2 238.9Q147.2 238.8 147.3 238.7Q147.3 238.6 147.5 238.6L147.5 238.6Q147.7 238.6 147.8 238.6Q147.9 238.7 148.0 238.9L148.0 238.9Q148.1 239.2 148.3 239.4Q148.6 239.5 149 239.5L149 239.5Q149.3 239.5 149.5 239.5Q149.7 239.4 149.8 239.3Q150.0 239.2 150.0 239.0Q150.1 238.8 150.1 238.6L150.1 238.6Q150.1 238.3 150.0 238.1Q149.9 237.9 149.8 237.8Q149.6 237.7 149.4 237.6Q149.2 237.5 149 237.5L149 237.5Q148.7 237.4 148.3 237.3Q148.0 237.2 147.8 237.0Q147.6 236.8 147.5 236.5Q147.3 236.2 147.3 235.8L147.3 235.8Q147.3 235.4 147.4 235.2Q147.6 234.9 147.8 234.7Q148 234.5 148.3 234.4Q148.6 234.2 149 234.2L149 234.2Q149.3 234.2 149.6 234.3Q149.9 234.4 150.1 234.6Q150.3 234.7 150.4 234.9Q150.6 235.2 150.6 235.4L150.6 235.4Q150.7 235.6 150.6 235.7Q150.5 235.8 150.3 235.8L150.3 235.8Q150.1 235.8 150.1 235.7Q150.0 235.6 149.9 235.5ZM153.4 239.9L153.4 235.0L152.2 235.0Q152.0 235.0 151.9 234.9Q151.8 234.8 151.8 234.7L151.8 234.7Q151.8 234.5 151.9 234.4Q152.0 234.3 152.2 234.3L152.2 234.3L155.4 234.3Q155.6 234.3 155.7 234.4Q155.8 234.5 155.8 234.7L155.8 234.7Q155.8 234.8 155.7 234.9Q155.6 235.0 155.4 235.0L155.4 235.0L154.2 235.0L154.2 239.9Q154.2 240.1 154.1 240.2Q154.0 240.2 153.8 240.2L153.8 240.2Q153.6 240.2 153.5 240.2Q153.4 240.1 153.4 239.9L153.4 239.9Z "/></svg>