<svg width="194" height="260" viewBox="0 0 194 260" xmlns="http://www.w3.org/2000/svg"><defs><clipPath id="satori_bc-id"><path x="0" y="0" width="194" height="260" d="M16,0 h162 a16,16 0 0 1 16,16 v228 a16,16 0 0 1 -16,16 h-162 a16,16 0 0 1 -16,-16 v-228 a16,16 0 0 1 16,-16"/></clipPath></defs><mask id="satori_om-id"><rect x="1" y="1" width="192" height="258" fill="#fff"/><path width="194" height="260" fill="none" stroke="#000" stroke-width="2" d="M4.686,4.686 A16,16 0 0 1 16,0 h162 a16,16 0 0 1 16,16 v228 a16,16 0 0 1 -16,16 h-162 a16,16 0 0 1 -16,-16 v-228 A16,16 0 0 1 4.686,4.686"/></mask><path x="0" y="0" width="194" height="260" fill="#161B22" d="M16,0 h162 a16,16 0 0 1 16,16 v228 a16,16 0 0 1 -16,16 h-162 a16,16 0 0 1 -16,-16 v-228 a16,16 0 0 1 16,-16"/><path width="194" height="260" clip-path="url(#satori_bc-id)" fill="none" stroke="#30363D" stroke-width="2" d="M4.686,4.686 A16,16 0 0 1 16,0 h162 a16,16 0 0 1 16,16 v228 a16,16 0 0 1 -16,16 h-162 a16,16 0 0 1 -16,-16 v-228 A16,16 0 0 1 4.686,4.686"/><mask id="satori_om-id-0"><rect x="17" y="17" width="160" height="16" fill="#fff"/></mask><path fill="#8B949E" d="M22.1 26.8L22.1 26.2Q22.1 25.9 21.9 25.8Q21.8 25.7 21.6 25.7L21.6 25.7L21.0 25.7Q20.7 25.7 20.5 25.6Q20.4 25.4 20.4 25.1L20.4 25.1Q20.4 24.7 20.5 24.6Q20.7 24.4 21.0 24.4L21.0 24.4L22.2 24.4Q22.8 24.4 23.1 24.7Q23.5 25.1 23.5 25.7L23.5 25.7L23.5 26.8Q23.5 27.4 23.3 27.8Q23.1 28.3 22.7 28.6Q22.4 29.0 21.8 29.2Q21.3 29.4 20.7 29.4L20.7 29.4Q19.7 29.4 19.0 29.0Q18.4 28.5 18.0 27.9Q17.7 27.2 17.5 26.5Q17.4 25.7 17.4 24.9L17.4 24.9Q17.4 24.0 17.5 23.2Q17.7 22.4 18.0 21.8Q18.4 21.1 19.0 20.8Q19.6 20.4 20.5 20.4L20.5 20.4Q21.0 20.4 21.4 20.5Q21.8 20.5 22.2 20.7Q22.5 20.9 22.8 21.2Q23.0 21.5 23.2 21.9L23.2 21.9Q23.4 22.4 23.2 22.7Q23.0 23.0 22.5 23.0L22.5 23.0Q22.2 23.0 22.1 22.9Q21.9 22.8 21.9 22.6L21.9 22.6Q21.8 22.3 21.4 22.1Q21.1 21.8 20.6 21.8L20.6 21.8Q20.1 21.8 19.7 22.1Q19.4 22.5 19.3 22.9Q19.1 23.4 19.0 23.9Q19.0 24.5 19.0 24.9L19.0 24.9Q19.0 25.3 19.0 25.8Q19.0 26.3 19.2 26.8Q19.4 27.3 19.7 27.6Q20.0 27.9 20.6 27.9L20.6 27.9Q21.3 27.9 21.7 27.6Q22.1 27.3 22.1 26.8L22.1 26.8ZM28.9 27.8L30.2 27.8Q30.5 27.8 30.7 28.0Q30.9 28.1 30.9 28.5Q30.9 28.9 30.7 29.1Q30.5 29.2 30.2 29.2L30.2 29.2L25.8 29.2Q25.5 29.2 25.3 29.1Q25.1 28.9 25.1 28.5Q25.1 28.1 25.3 28.0Q25.4 27.8 25.8 27.8L25.8 27.8L27.3 27.8L27.3 25.0Q27.3 24.6 27.2 24.5Q27.0 24.3 26.7 24.3L26.7 24.3L26.1 24.3Q25.7 24.3 25.5 24.2Q25.3 24.0 25.3 23.6Q25.3 23.3 25.5 23.1Q25.7 22.9 26.1 22.9L26.1 22.9L27.6 22.9Q28.3 22.9 28.6 23.2Q28.9 23.5 28.9 24.2L28.9 24.2L28.9 27.8ZM28.0 21.8L28.0 21.8Q27.6 21.8 27.3 21.6Q27.0 21.3 27.0 20.9L27.0 20.9Q27.0 20.5 27.3 20.3Q27.6 20.0 28.0 20.0L28.0 20.0Q28.5 20.0 28.8 20.3Q29.0 20.5 29.0 20.9L29.0 20.9Q29.0 21.3 28.8 21.6Q28.5 21.8 28.0 21.8ZM35.2 22.9L37.1 22.9Q37.4 22.9 37.6 23.1Q37.8 23.3 37.8 23.6L37.8 23.6Q37.8 24.0 37.6 24.2Q37.4 24.3 37.1 24.3L37.1 24.3L35.2 24.3L35.2 26.2Q35.2 27.1 35.4 27.5Q35.6 27.9 36.0 27.9L36.0 27.9Q36.2 27.9 36.4 27.9Q36.6 27.8 36.8 27.8L36.8 27.8Q37.1 27.6 37.4 27.7Q37.6 27.8 37.8 28.1L37.8 28.1Q38.0 28.4 37.9 28.6Q37.8 28.9 37.5 29.0L37.5 29.0Q37.1 29.2 36.7 29.3Q36.3 29.4 35.8 29.4L35.8 29.4Q35.3 29.4 34.9 29.2Q34.4 29.0 34.2 28.6Q33.9 28.3 33.8 27.7Q33.6 27.1 33.6 26.4L33.6 26.4L33.6 24.3L32.5 24.3Q32.1 24.3 32.0 24.2Q31.8 24.0 31.8 23.6L31.8 23.6Q31.8 23.3 32.0 23.1Q32.2 22.9 32.5 22.9L32.5 22.9L33.6 22.9L33.6 21.6Q33.6 21.2 33.8 21.0Q34.0 20.8 34.4 20.8Q34.8 20.8 35 21.0Q35.2 21.2 35.2 21.6L35.2 21.6L35.2 22.9ZM43.3 28.6L43.3 25.4L41.1 25.4L41.1 28.6Q41.1 29.0 40.9 29.2Q40.7 29.4 40.3 29.4L40.3 29.4Q39.9 29.4 39.7 29.2Q39.5 29.0 39.5 28.6L39.5 28.6L39.5 21.2Q39.5 20.7 39.7 20.6Q39.9 20.4 40.3 20.4L40.3 20.4Q40.7 20.4 40.9 20.6Q41.1 20.7 41.1 21.2L41.1 21.2L41.1 23.9L43.3 23.9L43.3 21.2Q43.3 20.7 43.5 20.6Q43.7 20.4 44.1 20.4L44.1 20.4Q44.5 20.4 44.7 20.6Q44.9 20.7 44.9 21.2L44.9 21.2L44.9 28.6Q44.9 29.0 44.7 29.2Q44.5 29.4 44.1 29.4L44.1 29.4Q43.7 29.4 43.5 29.2Q43.3 29.0 43.3 28.6L43.3 28.6ZM50.6 26.4L50.6 23.3Q50.6 22.9 50.8 22.7Q50.9 22.5 51.3 22.5L51.3 22.5Q51.8 22.5 51.9 22.7Q52.1 22.9 52.1 23.3L52.1 23.3L52.1 28.6Q52.1 29.0 52.0 29.2Q51.8 29.4 51.4 29.4L51.4 29.4Q51.0 29.4 50.8 29.2Q50.6 29.0 50.6 28.6L50.6 28.6L50.6 28.1Q50.4 28.7 50.0 29.0Q49.6 29.4 49.0 29.4L49.0 29.4Q48.4 29.4 48.0 29.2Q47.6 29.0 47.3 28.7Q47.0 28.3 46.8 27.9Q46.7 27.5 46.7 26.9L46.7 26.9L46.7 23.3Q46.7 22.9 46.9 22.7Q47.0 22.5 47.5 22.5L47.5 22.5Q47.9 22.5 48.1 22.7Q48.2 22.9 48.2 23.3L48.2 23.3L48.2 26.6Q48.2 26.8 48.3 27.1Q48.4 27.3 48.5 27.5Q48.6 27.7 48.8 27.8Q49.0 27.9 49.3 27.9L49.3 27.9Q49.6 27.9 49.8 27.7Q50.0 27.6 50.2 27.4Q50.4 27.2 50.5 27.0Q50.6 26.7 50.6 26.4L50.6 26.4ZM54.6 29.4L54.6 29.4Q54.2 29.4 54.0 29.2Q53.8 29.0 53.8 28.6L53.8 28.6L53.8 21.2Q53.8 20.8 54.0 20.6Q54.2 20.4 54.6 20.4L54.6 20.4Q55.0 20.4 55.2 20.6Q55.4 20.8 55.4 21.2L55.4 21.2L55.4 23.7Q55.5 23.2 55.9 22.9Q56.4 22.5 57.0 22.5L57.0 22.5Q57.8 22.5 58.3 22.8Q58.7 23.2 59.0 23.7Q59.3 24.2 59.4 24.8Q59.5 25.4 59.5 26.0L59.5 26.0Q59.5 26.7 59.4 27.3Q59.3 27.9 59.1 28.4Q58.8 28.8 58.4 29.1Q57.9 29.4 57.2 29.4L57.2 29.4Q56.8 29.4 56.5 29.3Q56.2 29.1 56.0 29.0Q55.8 28.8 55.7 28.5Q55.5 28.3 55.4 28.0L55.4 28.0L55.4 28.6Q55.4 29.0 55.2 29.2Q55.0 29.4 54.6 29.4ZM56.8 27.9L56.8 27.9Q57.2 27.9 57.4 27.7Q57.6 27.6 57.7 27.3Q57.9 27.0 57.9 26.7Q57.9 26.3 57.9 26L57.9 26Q57.9 25.7 57.9 25.3Q57.9 24.9 57.7 24.6Q57.6 24.3 57.4 24.2Q57.1 24.0 56.7 24.0L56.7 24.0Q56.4 24.0 56.2 24.1Q55.9 24.3 55.8 24.5Q55.6 24.7 55.5 25.0Q55.4 25.3 55.4 25.6L55.4 25.6L55.4 26.4Q55.4 26.7 55.5 27.0Q55.6 27.3 55.8 27.5Q56.0 27.7 56.3 27.8Q56.5 27.9 56.8 27.9Z M72.1 22.4L72.1 22.4Q71.9 22.1 71.6 22.0Q71.4 21.8 71 21.8L71 21.8Q70.4 21.8 70.1 22.1Q69.8 22.3 69.8 22.8L69.8 22.8Q69.8 23.1 69.9 23.3Q70.0 23.5 70.1 23.6Q70.3 23.7 70.5 23.8Q70.7 23.9 71 23.9L71 23.9Q71.6 24.1 72.1 24.3Q72.7 24.5 73.1 24.8Q73.5 25.1 73.7 25.6Q74.0 26.0 74.0 26.8L74.0 26.8Q74.0 27.4 73.8 27.8Q73.6 28.3 73.2 28.7Q72.8 29.0 72.3 29.2Q71.7 29.4 71 29.4L71 29.4Q70.4 29.4 70.0 29.3Q69.6 29.1 69.2 28.9Q68.9 28.7 68.6 28.4Q68.4 28.1 68.3 27.8L68.3 27.8Q68.1 27.3 68.3 27.1Q68.4 26.8 68.9 26.8L68.9 26.8Q69.2 26.8 69.4 26.8Q69.5 26.9 69.7 27.2L69.7 27.2Q69.9 27.5 70.2 27.7Q70.5 27.9 71 27.9L71 27.9Q71.3 27.9 71.6 27.8Q71.8 27.8 72.0 27.6Q72.2 27.5 72.3 27.3Q72.4 27.1 72.4 26.8L72.4 26.8Q72.4 26.4 72.3 26.2Q72.2 26.0 72.0 25.8Q71.8 25.7 71.5 25.6Q71.3 25.5 71 25.5L71 25.5Q70.4 25.3 69.9 25.1Q69.4 25.0 69.0 24.7Q68.7 24.4 68.5 24.0Q68.3 23.5 68.3 22.8L68.3 22.8Q68.3 22.2 68.5 21.8Q68.6 21.3 69.0 21.0Q69.4 20.7 69.9 20.5Q70.4 20.4 71 20.4L71 20.4Q71.5 20.4 71.9 20.5Q72.3 20.6 72.6 20.8Q72.9 20.9 73.2 21.2Q73.4 21.5 73.5 21.8L73.5 21.8Q73.7 22.3 73.6 22.6Q73.4 22.8 72.9 22.8L72.9 22.8Q72.6 22.8 72.4 22.7Q72.2 22.6 72.1 22.4ZM78.4 22.9L80.3 22.9Q80.6 22.9 80.8 23.1Q81.0 23.3 81.0 23.6L81.0 23.6Q81.0 24.0 80.8 24.2Q80.6 24.3 80.3 24.3L80.3 24.3L78.4 24.3L78.4 26.2Q78.4 27.1 78.6 27.5Q78.8 27.9 79.2 27.9L79.2 27.9Q79.4 27.9 79.6 27.9Q79.8 27.8 80.0 27.8L80.0 27.8Q80.3 27.6 80.6 27.7Q80.8 27.8 81.0 28.1L81.0 28.1Q81.2 28.4 81.1 28.6Q81.0 28.9 80.7 29.0L80.7 29.0Q80.3 29.2 79.9 29.3Q79.5 29.4 79.0 29.4L79.0 29.4Q78.5 29.4 78.1 29.2Q77.6 29.0 77.4 28.6Q77.1 28.3 77.0 27.7Q76.8 27.1 76.8 26.4L76.8 26.4L76.8 24.3L75.7 24.3Q75.3 24.3 75.2 24.2Q75.0 24.0 75.0 23.6L75.0 23.6Q75.0 23.3 75.2 23.1Q75.4 22.9 75.7 22.9L75.7 22.9L76.8 22.9L76.8 21.6Q76.8 21.2 77.0 21.0Q77.2 20.8 77.6 20.8Q78.0 20.8 78.2 21.0Q78.4 21.2 78.4 21.6L78.4 21.6L78.4 22.9ZM84.6 29.4L84.6 29.4Q84.2 29.4 83.8 29.2Q83.4 29.0 83.1 28.7Q82.8 28.3 82.6 27.8Q82.4 27.2 82.4 26.4L82.4 26.4Q82.4 25.6 82.6 24.9Q82.7 24.2 83.1 23.7Q83.4 23.1 83.9 22.8Q84.5 22.5 85.1 22.5L85.1 22.5Q85.7 22.5 86.1 22.8L86.1 22.8Q86.3 23 86.5 23.3L86.5 23.3Q86.5 23.3 86.5 23.2L86.5 23.2Q86.6 22.9 86.8 22.7Q87.0 22.5 87.4 22.5L87.4 22.5Q87.8 22.5 87.9 22.7Q88.1 22.9 88.0 23.2L88.0 23.2Q87.9 23.9 87.8 24.5Q87.8 25.2 87.8 25.8Q87.8 26.5 87.9 27.2Q87.9 27.9 88.1 28.7L88.1 28.7Q88.2 29.0 88.1 29.2Q88.0 29.4 87.6 29.4Q87.2 29.4 87.0 29.2Q86.7 29.0 86.6 28.7L86.6 28.7Q86.6 28.4 86.5 28.1L86.5 28.1Q86.5 28.2 86.4 28.3L86.4 28.3Q86.1 28.8 85.7 29.1Q85.2 29.4 84.6 29.4ZM84.9 27.9L84.9 27.9Q85.2 27.9 85.4 27.8Q85.7 27.6 85.9 27.3Q86.1 27.1 86.2 26.6Q86.3 26.2 86.3 25.7L86.3 25.7Q86.3 25.3 86.3 25.0Q86.3 24.7 86.2 24.5Q86.1 24.3 85.9 24.1Q85.7 24.0 85.5 24.0L85.5 24.0Q85.1 24.0 84.8 24.2Q84.6 24.4 84.4 24.7Q84.2 25.0 84.1 25.5Q84.0 25.9 84.0 26.4L84.0 26.4Q84.0 27.1 84.2 27.5Q84.4 27.9 84.9 27.9ZM92.8 22.9L94.7 22.9Q95.0 22.9 95.2 23.1Q95.4 23.3 95.4 23.6L95.4 23.6Q95.4 24.0 95.2 24.2Q95.0 24.3 94.7 24.3L94.7 24.3L92.8 24.3L92.8 26.2Q92.8 27.1 93.0 27.5Q93.2 27.9 93.6 27.9L93.6 27.9Q93.8 27.9 94.0 27.9Q94.2 27.8 94.4 27.8L94.4 27.8Q94.7 27.6 95.0 27.7Q95.2 27.8 95.4 28.1L95.4 28.1Q95.6 28.4 95.5 28.6Q95.4 28.9 95.1 29.0L95.1 29.0Q94.7 29.2 94.3 29.3Q93.9 29.4 93.4 29.4L93.4 29.4Q92.9 29.4 92.5 29.2Q92.0 29.0 91.8 28.6Q91.5 28.3 91.4 27.7Q91.2 27.1 91.2 26.4L91.2 26.4L91.2 24.3L90.1 24.3Q89.7 24.3 89.6 24.2Q89.4 24.0 89.4 23.6L89.4 23.6Q89.4 23.3 89.6 23.1Q89.8 22.9 90.1 22.9L90.1 22.9L91.2 22.9L91.2 21.6Q91.2 21.2 91.4 21.0Q91.6 20.8 92.0 20.8Q92.4 20.8 92.6 21.0Q92.8 21.2 92.8 21.6L92.8 21.6L92.8 22.9ZM99.8 29.4L99.8 29.4Q99.4 29.4 99.1 29.3Q98.7 29.3 98.4 29.2Q98.1 29.1 97.9 28.9Q97.6 28.7 97.4 28.5L97.4 28.5Q97.2 28.3 97.1 28.1Q97.1 28.0 97.1 27.7L97.1 27.7Q97.1 27.4 97.2 27.2Q97.4 27.1 97.7 27.1L97.7 27.1Q97.8 27.1 97.9 27.1Q98.0 27.1 98.2 27.2L98.2 27.2Q98.5 27.5 98.9 27.7Q99.3 27.9 99.8 27.9L99.8 27.9Q100.0 27.9 100.2 27.9Q100.4 27.9 100.6 27.8Q100.8 27.8 100.9 27.7Q101.0 27.5 101.0 27.4L101.0 27.4Q101.0 27.2 100.9 27.0Q100.8 26.9 100.6 26.8Q100.4 26.7 100.2 26.7Q100.0 26.6 99.8 26.6L99.8 26.6Q99.3 26.5 98.9 26.3Q98.5 26.2 98.1 26.0Q97.7 25.8 97.5 25.4Q97.3 25.0 97.3 24.4L97.3 24.4Q97.3 23.9 97.5 23.6Q97.6 23.2 98.0 23.0Q98.3 22.7 98.8 22.6Q99.2 22.5 99.8 22.5L99.8 22.5Q100.5 22.5 101.2 22.7Q101.8 23.0 102.2 23.4L102.2 23.4Q102.2 23.5 102.3 23.6Q102.4 23.8 102.4 24.0L102.4 24.0Q102.4 24.3 102.2 24.5Q102.0 24.7 101.7 24.7L101.7 24.7Q101.6 24.7 101.4 24.6Q101.3 24.6 101.2 24.4L101.2 24.4Q101.0 24.2 100.6 24.1Q100.3 23.9 99.8 23.9L99.8 23.9Q99.6 23.9 99.4 24.0Q99.2 24.0 99.1 24.1Q99.0 24.1 98.9 24.2Q98.9 24.3 98.9 24.5L98.9 24.5Q98.9 24.7 98.9 24.8Q99.0 24.9 99.2 25.0Q99.3 25.0 99.5 25.1Q99.6 25.1 99.8 25.2L99.8 25.2Q100.3 25.3 100.8 25.4Q101.3 25.5 101.7 25.8Q102.1 26.0 102.4 26.4Q102.6 26.8 102.6 27.4L102.6 27.4Q102.6 28.0 102.4 28.4Q102.1 28.7 101.8 29.0Q101.4 29.2 100.9 29.3Q100.4 29.4 99.8 29.4Z "/><mask id="satori_om-id-1"><rect x="17" y="41" width="160" height="191" fill="#fff"/></mask><mask id="satori_om-id-1-0"><rect x="17" y="41" width="160" height="17" fill="#fff"/></mask><clipPath id="satori_cp-id-1-0-0"><rect x="17" y="43" width="14" height="14"/></clipPath><mask id="satori_om-id-1-0-0"><rect x="17" y="43" width="14" height="14" fill="#fff"/></mask><image x="17" y="43" width="14" height="14" href="data:image/svg+xml;utf8,%3Csvg  fill=%22%23B186D6%22 xmlns=%22http://www.w3.org/2000/svg%22 width=%2214%22 height=%2214%22 viewBox=%220 0 24 24%22%3E%3Cpath d=%22M12 2l3.09 6.26L22 9.27l-5 4.87L18.18 21 12 17.27 5.82 21 7 14.14 2 9.27l6.91-1.01L12 2z%22%3E%3C/path%3E%3C/svg%3E" preserveAspectRatio="none" clip-path="url(#satori_cp-id-1-0-0)" mask="url(#satori_om-id-1-0-0)"/><mask id="satori_om-id-1-0-0-0"><rect x="17" y="43" width="0" height="14" fill="#fff"/></mask><mask id="satori_om-id-1-0-1"><rect x="37" y="43" width="118" height="13" fill="#fff"/></mask><path fill="#656D76" d="M41.1 47.4L41.1 47.4Q41.0 47.0 40.7 46.8Q40.4 46.7 40 46.7L40 46.7Q39.4 46.7 39.1 47Q38.8 47.3 38.8 47.7L38.8 47.7Q38.8 48.0 38.9 48.2Q39.0 48.4 39.1 48.6Q39.3 48.7 39.5 48.8Q39.8 48.9 40 48.9L40 48.9Q40.5 49.1 40.9 49.2Q41.3 49.4 41.6 49.6Q41.9 49.9 42.1 50.2Q42.3 50.6 42.3 51.2L42.3 51.2Q42.3 51.7 42.1 52.1Q42.0 52.5 41.7 52.7Q41.4 53 41.0 53.2Q40.5 53.3 40 53.3L40 53.3Q39.5 53.3 39.2 53.2Q38.8 53.1 38.5 52.9Q38.2 52.7 38.0 52.3Q37.8 52.0 37.8 51.7L37.8 51.7Q37.7 51.5 37.8 51.3Q37.9 51.2 38.1 51.2L38.1 51.2Q38.3 51.2 38.5 51.3Q38.6 51.4 38.7 51.6L38.7 51.6Q38.9 52.0 39.2 52.2Q39.5 52.4 40 52.4L40 52.4Q40.3 52.4 40.6 52.3Q40.8 52.2 41.0 52.1Q41.2 51.9 41.3 51.7Q41.4 51.5 41.4 51.2L41.4 51.2Q41.4 50.9 41.3 50.6Q41.2 50.4 41.0 50.3Q40.8 50.1 40.5 50.0Q40.3 49.9 40 49.9L40 49.9Q39.6 49.7 39.2 49.6Q38.8 49.4 38.5 49.2Q38.2 49.0 38.1 48.6Q37.9 48.3 37.9 47.8L37.9 47.8Q37.9 47.3 38.0 47.0Q38.2 46.6 38.5 46.3Q38.8 46.1 39.1 45.9Q39.5 45.8 40 45.8L40 45.8Q40.4 45.8 40.7 45.9Q41.1 46.0 41.3 46.2Q41.6 46.4 41.8 46.7Q42.0 47.0 42.0 47.3L42.0 47.3Q42.1 47.5 42.0 47.6Q41.9 47.7 41.6 47.7L41.6 47.7Q41.4 47.7 41.3 47.6Q41.2 47.6 41.1 47.4ZM46.0 47.9L47.8 47.9Q48.0 47.9 48.1 48.0Q48.2 48.2 48.2 48.4Q48.2 48.6 48.1 48.7Q48.0 48.8 47.8 48.8L47.8 48.8L46.0 48.8L46.0 51.0Q46.0 51.7 46.2 52.0Q46.4 52.4 46.8 52.4L46.8 52.4Q47 52.4 47.2 52.4Q47.4 52.3 47.6 52.2L47.6 52.2Q47.8 52.1 48.0 52.2Q48.1 52.2 48.2 52.4L48.2 52.4Q48.4 52.6 48.3 52.8Q48.3 53.0 48.1 53.1L48.1 53.1Q47.8 53.2 47.4 53.3Q47.1 53.3 46.6 53.3L46.6 53.3Q46.3 53.3 46.0 53.2Q45.7 53.0 45.5 52.8Q45.3 52.5 45.2 52.1Q45.0 51.7 45.0 51.1L45.0 51.1L45.0 48.8L43.9 48.8Q43.7 48.8 43.6 48.7Q43.5 48.6 43.5 48.4Q43.5 48.2 43.6 48.0Q43.7 47.9 43.9 47.9L43.9 47.9L45.0 47.9L45.0 46.6Q45.0 46.4 45.2 46.3Q45.3 46.2 45.5 46.2Q45.7 46.2 45.8 46.3Q46.0 46.4 46.0 46.6L46.0 46.6L46.0 47.9ZM51.4 53.3L51.4 53.3Q51.1 53.3 50.7 53.2Q50.4 53.1 50.2 52.8Q50.0 52.5 49.8 52.1Q49.7 51.6 49.7 51.0L49.7 51.0Q49.7 50.3 49.8 49.7Q50.0 49.0 50.3 48.6Q50.5 48.1 51.0 47.9Q51.4 47.6 52 47.6L52 47.6Q52.5 47.6 52.8 47.8L52.8 47.8Q53.0 48.0 53.1 48.3L53.1 48.3Q53.1 48.2 53.1 48.0L53.1 48.0Q53.2 47.8 53.3 47.7Q53.4 47.6 53.6 47.6L53.6 47.6Q53.9 47.6 54.0 47.7Q54.1 47.8 54.0 48.0L54.0 48.0Q53.9 48.6 53.9 49.2Q53.8 49.8 53.9 50.4Q53.9 51.0 54.0 51.6Q54.0 52.2 54.2 52.9L54.2 52.9Q54.3 53.1 54.2 53.2Q54.1 53.3 53.9 53.3Q53.6 53.3 53.5 53.2Q53.4 53.1 53.3 52.9L53.3 52.9Q53.2 52.4 53.1 51.9L53.1 51.9Q53.0 52.1 53.0 52.3L53.0 52.3Q52.7 52.7 52.4 53.0Q52.0 53.3 51.4 53.3ZM51.5 52.4L51.5 52.4Q51.8 52.4 52.1 52.2Q52.4 52.1 52.5 51.8Q52.7 51.5 52.8 51.1Q53.0 50.6 53.0 50.1L53.0 50.1Q53.0 49.9 52.9 49.6Q52.9 49.3 52.8 49.1Q52.8 48.8 52.6 48.7Q52.4 48.5 52.1 48.5L52.1 48.5Q51.8 48.5 51.5 48.7Q51.2 48.9 51.0 49.2Q50.8 49.6 50.7 50.0Q50.6 50.5 50.6 51.1L50.6 51.1Q50.6 51.7 50.8 52.0Q51.0 52.4 51.5 52.4ZM56.5 53.3L56.5 53.3Q56.3 53.3 56.2 53.2Q56.1 53.1 56.1 52.9L56.1 52.9L56.1 48.1Q56.1 47.8 56.2 47.7Q56.3 47.6 56.5 47.6L56.5 47.6Q56.8 47.6 56.9 47.7Q57 47.8 57 48.1L57 48.1L57 48.6Q57.1 48.4 57.3 48.2Q57.5 48.0 57.7 47.9Q58.0 47.8 58.3 47.7Q58.5 47.6 58.8 47.6L58.8 47.6Q59.3 47.6 59.6 47.8Q59.9 47.9 60.0 48.2Q60.2 48.5 60.2 48.8Q60.3 49.2 60.3 49.6L60.3 49.6L60.3 49.7Q60.3 49.9 60.2 50.0Q60.1 50.2 59.9 50.2L59.9 50.2Q59.6 50.2 59.5 50.0Q59.4 49.9 59.4 49.7L59.4 49.7L59.4 49.6Q59.4 49.4 59.4 49.2Q59.3 49.0 59.2 48.8Q59.1 48.7 59.0 48.6Q58.8 48.5 58.5 48.5L58.5 48.5Q58.3 48.5 58 48.6Q57.7 48.6 57.5 48.8Q57.3 48.9 57.1 49.2Q57 49.4 57 49.7L57 49.7L57 52.9Q57 53.1 56.9 53.2Q56.8 53.3 56.5 53.3ZM64.0 53.3L64.0 53.3Q63.7 53.3 63.4 53.3Q63.1 53.2 62.9 53.1Q62.7 53.0 62.4 52.9Q62.2 52.7 62.0 52.5L62.0 52.5Q61.9 52.4 61.9 52.2Q61.8 52.1 61.8 52.0L61.8 52.0Q61.8 51.7 61.9 51.7Q62.0 51.6 62.2 51.6L62.2 51.6Q62.3 51.6 62.4 51.6Q62.5 51.7 62.6 51.8L62.6 51.8Q62.9 52.0 63.2 52.2Q63.5 52.4 64 52.4L64 52.4Q64.2 52.4 64.4 52.4Q64.6 52.4 64.8 52.3Q65.0 52.2 65.2 52.1Q65.3 51.9 65.3 51.7L65.3 51.7Q65.3 51.5 65.2 51.3Q65.0 51.2 64.8 51.1Q64.6 51.0 64.4 50.9Q64.2 50.8 64 50.8L64 50.8Q63.7 50.7 63.3 50.6Q63.0 50.5 62.7 50.4Q62.4 50.2 62.2 49.9Q62.0 49.6 62.0 49.1L62.0 49.1Q62.0 48.7 62.2 48.4Q62.3 48.1 62.6 48.0Q62.9 47.8 63.2 47.7Q63.6 47.6 64 47.6L64 47.6Q64.7 47.6 65.2 47.8Q65.7 48.0 66.0 48.5L66.0 48.5Q66.0 48.6 66.1 48.7Q66.1 48.7 66.1 48.8L66.1 48.8Q66.1 49.0 66.0 49.1Q65.9 49.2 65.7 49.2L65.7 49.2Q65.6 49.2 65.5 49.2Q65.4 49.1 65.3 49.0L65.3 49.0Q65.0 48.8 64.7 48.6Q64.5 48.5 64 48.5L64 48.5Q63.8 48.5 63.6 48.5Q63.4 48.6 63.2 48.7Q63.1 48.7 63.0 48.8Q62.9 49.0 62.9 49.1L62.9 49.1Q62.9 49.3 63.0 49.5Q63.1 49.6 63.3 49.7Q63.5 49.8 63.6 49.8Q63.8 49.9 64 49.9L64 49.9Q64.4 50.0 64.8 50.1Q65.2 50.2 65.5 50.4Q65.8 50.6 66 50.9Q66.2 51.2 66.2 51.7L66.2 51.7Q66.2 52.2 66.0 52.5Q65.8 52.8 65.5 52.9Q65.2 53.1 64.8 53.2Q64.5 53.3 64.0 53.3Z "/><mask id="satori_om-id-1-0-2"><rect x="161" y="41" width="16" height="17" fill="#fff"/></mask><path fill="#E6EDF3" d="M167.6 54.3L162.7 54.3Q162.3 54.3 162.1 54.0Q161.9 53.8 161.9 53.4Q161.9 53.1 162.1 52.8Q162.3 52.6 162.7 52.6L162.7 52.6L164.5 52.6L164.5 47.2Q164.5 47.0 164.5 46.9Q164.4 46.8 164.3 46.8L164.3 46.8Q164.3 46.8 164.2 46.8Q164.1 46.8 164.0 46.9L164.0 46.9L163.3 47.5Q163.1 47.7 162.9 47.8Q162.7 47.9 162.5 47.9L162.5 47.9Q162.3 47.9 162.2 47.6Q162.1 47.4 162.1 46.9L162.1 46.9Q162.1 46.6 162.2 46.4Q162.3 46.2 162.5 46.0L162.5 46.0L163.8 45.0Q164.1 44.8 164.4 44.7Q164.6 44.6 165.0 44.6L165.0 44.6Q165.6 44.6 165.9 44.9Q166.2 45.2 166.2 45.9L166.2 45.9L166.2 52.6L167.6 52.6Q168.0 52.6 168.1 52.8Q168.3 53.1 168.3 53.4Q168.3 53.8 168.1 54.0Q168.0 54.3 167.6 54.3L167.6 54.3ZM175.2 54.3L170.8 54.3Q170.2 54.3 169.9 54.0Q169.6 53.8 169.6 53.2L169.6 53.2Q169.6 53.0 169.7 52.8Q169.8 52.6 169.9 52.4L169.9 52.4L172.9 49.5Q173.1 49.2 173.3 49.0Q173.5 48.7 173.7 48.5Q173.8 48.3 173.9 48.0Q174.0 47.8 174.0 47.6L174.0 47.6Q174.0 47.2 173.9 46.9Q173.8 46.7 173.6 46.5Q173.4 46.3 173.1 46.3Q172.9 46.2 172.5 46.2L172.5 46.2Q172.1 46.2 171.7 46.3Q171.3 46.4 171.0 46.6L171.0 46.6Q170.7 46.8 170.4 46.7Q170.1 46.6 169.9 46.3L169.9 46.3Q169.7 46.0 169.8 45.7Q169.9 45.4 170.2 45.2L170.2 45.2Q170.6 45.0 171.1 44.8Q171.6 44.6 172.5 44.6L172.5 44.6Q173.2 44.6 173.8 44.8Q174.4 44.9 174.8 45.3Q175.2 45.6 175.5 46.1Q175.7 46.6 175.7 47.4L175.7 47.4Q175.7 47.8 175.6 48.2Q175.5 48.6 175.3 49.0Q175.1 49.3 174.9 49.7Q174.6 50.1 174.2 50.4L174.2 50.4L172.2 52.5Q172.1 52.5 172.2 52.6Q172.2 52.7 172.3 52.7L172.3 52.7L175.2 52.7Q175.6 52.7 175.8 52.9Q176.0 53.1 176.0 53.5L176.0 53.5Q176.0 53.9 175.8 54.1Q175.6 54.3 175.2 54.3L175.2 54.3Z "/><mask id="satori_om-id-1-1"><rect x="17" y="66" width="160" height="17" fill="#fff"/></mask><clipPath id="satori_cp-id-1-1-0"><rect x="17" y="68" width="14" height="14"/></clipPath><mask id="satori_om-id-1-1-0"><rect x="17" y="68" width="14" height="14" fill="#fff"/></mask><image x="17" y="68" width="14" height="14" href="data:image/svg+xml;utf8,%3Csvg  fill=%22%23B186D6%22 xmlns=%22http://www.w3.org/2000/svg%22 width=%2214%22 height=%2214%22 viewBox=%220 0 24 24%22%3E%3Cpath d=%22M12 2C6.48 2 2 6.48 2 12s4.48 10 10 10 10-4.48 10-10S17.52 2 12 2zm0 14c-2.21 0-4-1.79-4-4s1.79-4 4-4 4 1.79 4 4-1.79 4-4 4z%22%3E%3C/path%3E%3C/svg%3E" preserveAspectRatio="none" clip-path="url(#satori_cp-id-1-1-0)" mask="url(#satori_om-id-1-1-0)"/><mask id="satori_om-id-1-1-0-0"><rect x="17" y="68" width="0" height="14" fill="#fff"/></mask><mask id="satori_om-id-1-1-1"><rect x="37" y="68" width="110" height="13" fill="#fff"/></mask><path fill="#656D76" d="M37.6 74.5L37.6 74.5Q37.6 73.8 37.8 73.1Q37.9 72.4 38.3 71.9Q38.6 71.4 39.2 71.1Q39.8 70.8 40.6 70.8L40.6 70.8Q41.0 70.8 41.3 70.9Q41.6 71.0 41.8 71.1Q42.0 71.2 42.2 71.4Q42.3 71.6 42.4 71.7L42.4 71.7Q42.5 72.0 42.4 72.1Q42.4 72.3 42.3 72.4L42.3 72.4Q42.1 72.5 41.9 72.4Q41.8 72.4 41.6 72.2L41.6 72.2Q41.5 72.0 41.2 71.9Q41.0 71.7 40.5 71.7L40.5 71.7Q40 71.7 39.6 71.9Q39.3 72.2 39 72.6Q38.8 73.0 38.6 73.5Q38.5 74.0 38.5 74.5L38.5 74.5Q38.5 75.0 38.6 75.5Q38.7 76.0 39.0 76.5Q39.2 76.9 39.6 77.1Q40.0 77.4 40.6 77.4L40.6 77.4Q40.7 77.4 40.9 77.4Q41.0 77.4 41.2 77.3Q41.3 77.3 41.5 77.2Q41.6 77.2 41.7 77.1L41.7 77.1Q41.8 77.0 42.0 77.0Q42.2 77.0 42.3 77.1L42.3 77.1Q42.5 77.3 42.5 77.5Q42.5 77.6 42.3 77.8L42.3 77.8Q42.1 78.0 41.9 78.1Q41.7 78.2 41.5 78.2Q41.3 78.3 41.0 78.3Q40.8 78.3 40.5 78.3L40.5 78.3Q39.7 78.3 39.2 78.0Q38.6 77.7 38.3 77.2Q37.9 76.6 37.8 76.0Q37.6 75.3 37.6 74.5ZM46 78.3L46 78.3Q45.4 78.3 45 78.1Q44.6 77.9 44.3 77.5Q44.0 77.1 43.9 76.6Q43.8 76.1 43.8 75.4L43.8 75.4Q43.8 74.8 43.9 74.3Q44.0 73.8 44.3 73.4Q44.6 73.0 45.0 72.8Q45.4 72.6 46 72.6L46 72.6Q46.6 72.6 47.0 72.8Q47.4 73.0 47.7 73.4Q48.0 73.8 48.1 74.3Q48.3 74.8 48.3 75.4L48.3 75.4Q48.3 76.1 48.1 76.6Q48.0 77.1 47.7 77.5Q47.4 77.9 47.0 78.1Q46.6 78.3 46 78.3ZM46 77.4L46 77.4Q46.4 77.4 46.6 77.3Q46.9 77.1 47.0 76.9Q47.2 76.6 47.3 76.2Q47.4 75.9 47.4 75.4L47.4 75.4Q47.4 75.0 47.3 74.7Q47.2 74.3 47.0 74.0Q46.9 73.8 46.6 73.6Q46.4 73.5 46 73.5L46 73.5Q45.6 73.5 45.4 73.6Q45.1 73.8 45.0 74.0Q44.8 74.3 44.7 74.7Q44.6 75.0 44.6 75.5L44.6 75.5Q44.6 75.9 44.7 76.2Q44.8 76.6 45.0 76.9Q45.1 77.1 45.4 77.3Q45.6 77.4 46 77.4ZM50.0 78.3L50.0 78.3Q49.8 78.3 49.7 78.2Q49.5 78.0 49.5 77.8L49.5 77.8L49.5 73Q49.5 72.8 49.7 72.7Q49.8 72.6 50 72.6L50 72.6Q50.2 72.6 50.3 72.7Q50.5 72.8 50.5 73L50.5 73L50.5 73.4Q50.6 73 50.8 72.8Q50.9 72.6 51.4 72.6L51.4 72.6Q51.8 72.6 52.0 72.8Q52.3 73.0 52.3 73.4L52.3 73.4Q52.4 73.0 52.6 72.8Q52.9 72.6 53.4 72.6L53.4 72.6Q53.7 72.6 53.9 72.7Q54.1 72.8 54.2 73.0Q54.3 73.2 54.4 73.5Q54.5 73.7 54.5 74.0L54.5 74.0L54.5 77.8Q54.5 78.0 54.3 78.2Q54.2 78.3 54.0 78.3L54.0 78.3Q53.8 78.3 53.6 78.2Q53.5 78.0 53.5 77.8L53.5 77.8L53.5 74.1Q53.5 73.8 53.4 73.6Q53.3 73.4 53.0 73.4L53.0 73.4Q52.6 73.4 52.5 73.6Q52.4 73.8 52.4 74.1L52.4 74.1L52.4 77.9Q52.4 78.1 52.3 78.2Q52.2 78.3 52 78.3L52 78.3Q51.8 78.3 51.7 78.2Q51.6 78.1 51.6 77.9L51.6 77.9L51.6 74.1Q51.6 73.9 51.5 73.6Q51.4 73.4 51.0 73.4L51.0 73.4Q50.7 73.4 50.6 73.6Q50.5 73.8 50.5 74.1L50.5 74.1L50.5 77.8Q50.5 78.0 50.4 78.2Q50.2 78.3 50.0 78.3ZM56.0 78.3L56.0 78.3Q55.8 78.3 55.7 78.2Q55.5 78.0 55.5 77.8L55.5 77.8L55.5 73Q55.5 72.8 55.7 72.7Q55.8 72.6 56 72.6L56 72.6Q56.2 72.6 56.3 72.7Q56.5 72.8 56.5 73L56.5 73L56.5 73.4Q56.6 73 56.8 72.8Q56.9 72.6 57.4 72.6L57.4 72.6Q57.8 72.6 58.0 72.8Q58.3 73.0 58.3 73.4L58.3 73.4Q58.4 73.0 58.6 72.8Q58.9 72.6 59.4 72.6L59.4 72.6Q59.7 72.6 59.9 72.7Q60.1 72.8 60.2 73.0Q60.3 73.2 60.4 73.5Q60.5 73.7 60.5 74.0L60.5 74.0L60.5 77.8Q60.5 78.0 60.3 78.2Q60.2 78.3 60.0 78.3L60.0 78.3Q59.8 78.3 59.6 78.2Q59.5 78.0 59.5 77.8L59.5 77.8L59.5 74.1Q59.5 73.8 59.4 73.6Q59.3 73.4 59.0 73.4L59.0 73.4Q58.6 73.4 58.5 73.6Q58.4 73.8 58.4 74.1L58.4 74.1L58.4 77.9Q58.4 78.1 58.3 78.2Q58.2 78.3 58 78.3L58 78.3Q57.8 78.3 57.7 78.2Q57.6 78.1 57.6 77.9L57.6 77.9L57.6 74.1Q57.6 73.9 57.5 73.6Q57.4 73.4 57.0 73.4L57.0 73.4Q56.7 73.4 56.6 73.6Q56.5 73.8 56.5 74.1L56.5 74.1L56.5 77.8Q56.5 78.0 56.4 78.2Q56.2 78.3 56.0 78.3ZM64.7 77.3L66.1 77.3Q66.3 77.3 66.4 77.4Q66.5 77.5 66.5 77.8Q66.5 78.0 66.4 78.1Q66.3 78.2 66.1 78.2L66.1 78.2L62.3 78.2Q62.1 78.2 62.0 78.1Q61.9 78.0 61.9 77.8Q61.9 77.5 62.0 77.4Q62.1 77.3 62.3 77.3L62.3 77.3L63.8 77.3L63.8 74.2Q63.8 74 63.7 73.9Q63.6 73.8 63.4 73.8L63.4 73.8L62.5 73.8Q62.3 73.8 62.2 73.7Q62.0 73.5 62.0 73.4Q62.0 73.2 62.2 73.0Q62.3 72.9 62.5 72.9L62.5 72.9L63.9 72.9Q64.3 72.9 64.5 73.1Q64.7 73.3 64.7 73.7L64.7 73.7L64.7 77.3ZM64.2 71.9L64.2 71.9Q63.9 71.9 63.7 71.7Q63.5 71.6 63.5 71.3L63.5 71.3Q63.5 71.0 63.7 70.8Q63.9 70.6 64.2 70.6L64.2 70.6Q64.5 70.6 64.7 70.8Q64.9 71.0 64.9 71.3L64.9 71.3Q64.9 71.6 64.7 71.7Q64.5 71.9 64.2 71.9ZM70.0 72.9L71.8 72.9Q72.0 72.9 72.1 73.0Q72.2 73.2 72.2 73.4Q72.2 73.5 72.1 73.7Q72.0 73.8 71.8 73.8L71.8 73.8L70.0 73.8L70.0 76.0Q70.0 76.7 70.2 77.0Q70.4 77.4 70.8 77.4L70.8 77.4Q71 77.4 71.2 77.4Q71.4 77.3 71.6 77.2L71.6 77.2Q71.8 77.1 72.0 77.2Q72.1 77.2 72.2 77.4L72.2 77.4Q72.3 77.6 72.3 77.8Q72.3 78.0 72.1 78.0L72.1 78.0Q71.8 78.2 71.4 78.3Q71.1 78.3 70.7 78.3L70.7 78.3Q70.3 78.3 70.0 78.2Q69.7 78.0 69.5 77.8Q69.3 77.5 69.2 77.1Q69.0 76.7 69.0 76.1L69.0 76.1L69.0 73.8L67.9 73.8Q67.7 73.8 67.6 73.7Q67.5 73.5 67.5 73.4Q67.5 73.2 67.6 73.0Q67.7 72.9 67.9 72.9L67.9 72.9L69.0 72.9L69.0 71.6Q69.0 71.4 69.2 71.3Q69.3 71.2 69.5 71.2Q69.7 71.2 69.8 71.3Q70.0 71.4 70.0 71.6L70.0 71.6L70.0 72.9ZM76.0 78.3L76.0 78.3Q75.7 78.3 75.4 78.3Q75.2 78.2 74.9 78.1Q74.7 78.0 74.4 77.9Q74.2 77.7 74.0 77.5L74.0 77.5Q73.9 77.4 73.9 77.2Q73.8 77.1 73.8 77.0L73.8 77.0Q73.8 76.7 73.9 76.7Q74.0 76.6 74.2 76.6L74.2 76.6Q74.3 76.6 74.4 76.6Q74.5 76.7 74.6 76.8L74.6 76.8Q74.9 77.0 75.2 77.2Q75.5 77.4 76 77.4L76 77.4Q76.2 77.4 76.4 77.4Q76.6 77.4 76.8 77.3Q77.0 77.2 77.2 77.1Q77.3 76.9 77.3 76.7L77.3 76.7Q77.3 76.5 77.2 76.3Q77.0 76.2 76.8 76.1Q76.6 76.0 76.4 75.9Q76.2 75.8 76 75.8L76 75.8Q75.7 75.7 75.3 75.6Q75.0 75.5 74.7 75.4Q74.4 75.2 74.2 74.9Q74.0 74.6 74.0 74.1L74.0 74.1Q74.0 73.7 74.2 73.4Q74.3 73.1 74.6 73.0Q74.9 72.8 75.2 72.7Q75.6 72.6 76 72.6L76 72.6Q76.7 72.6 77.2 72.8Q77.7 73.0 78.0 73.5L78.0 73.5Q78.0 73.6 78.1 73.7Q78.1 73.7 78.1 73.8L78.1 73.8Q78.1 74.0 78.0 74.1Q77.9 74.2 77.7 74.2L77.7 74.2Q77.6 74.2 77.5 74.2Q77.4 74.1 77.3 74.0L77.3 74.0Q77.0 73.8 76.7 73.6Q76.5 73.5 76 73.5L76 73.5Q75.8 73.5 75.6 73.5Q75.4 73.6 75.2 73.7Q75.1 73.7 75.0 73.8Q74.9 74.0 74.9 74.1L74.9 74.1Q74.9 74.3 75.0 74.5Q75.1 74.6 75.3 74.7Q75.5 74.8 75.7 74.8Q75.8 74.9 76 74.9L76 74.9Q76.4 75.0 76.8 75.1Q77.2 75.2 77.5 75.4Q77.8 75.6 78 75.9Q78.2 76.2 78.2 76.7L78.2 76.7Q78.2 77.2 78.0 77.5Q77.8 77.8 77.5 77.9Q77.2 78.1 76.8 78.2Q76.5 78.3 76.0 78.3Z "/><mask id="satori_om-id-1-1-2"><rect x="153" y="66" width="24" height="17" fill="#fff"/></mask><path fill="#E6EDF3" d="M159.6 79.3L154.7 79.3Q154.3 79.3 154.1 79.0Q153.9 78.8 153.9 78.4Q153.9 78.1 154.1 77.8Q154.3 77.6 154.7 77.6L154.7 77.6L156.5 77.6L156.5 72.2Q156.5 72.0 156.5 71.9Q156.4 71.8 156.3 71.8L156.3 71.8Q156.3 71.8 156.2 71.8Q156.1 71.9 156.0 71.9L156.0 71.9L155.3 72.5Q155.1 72.7 154.9 72.8Q154.7 72.9 154.5 72.9L154.5 72.9Q154.3 72.9 154.2 72.6Q154.1 72.4 154.1 71.9L154.1 71.9Q154.1 71.6 154.2 71.4Q154.3 71.2 154.5 71.0L154.5 71.0L155.8 70.0Q156.1 69.8 156.4 69.7Q156.6 69.6 157.0 69.6L157.0 69.6Q157.6 69.6 157.9 69.9Q158.2 70.2 158.2 70.9L158.2 70.9L158.2 77.6L159.6 77.6Q160.0 77.6 160.1 77.8Q160.3 78.1 160.3 78.4Q160.3 78.8 160.1 79.0Q160.0 79.3 159.6 79.3L159.6 79.3ZM167.4 79.3L162.5 79.3Q162.1 79.3 161.9 79.0Q161.7 78.8 161.7 78.4Q161.7 78.1 161.9 77.8Q162.1 77.6 162.5 77.6L162.5 77.6L164.3 77.6L164.3 72.2Q164.3 72.0 164.3 71.9Q164.2 71.8 164.1 71.8L164.1 71.8Q164.1 71.8 164.0 71.8Q163.9 71.9 163.8 71.9L163.8 71.9L163.1 72.5Q162.9 72.7 162.7 72.8Q162.5 72.9 162.3 72.9L162.3 72.9Q162.1 72.9 162.0 72.6Q161.9 72.4 161.9 71.9L161.9 71.9Q161.9 71.6 162.0 71.4Q162.1 71.2 162.3 71.0L162.3 71.0L163.6 70.0Q163.9 69.8 164.2 69.7Q164.4 69.6 164.8 69.6L164.8 69.6Q165.4 69.6 165.7 69.9Q166.0 70.2 166.0 70.9L166.0 70.9L166.0 77.6L167.4 77.6Q167.8 77.6 167.9 77.8Q168.1 78.1 168.1 78.4Q168.1 78.8 167.9 79.0Q167.8 79.3 167.4 79.3L167.4 79.3ZM172.5 79.4L172.5 79.4Q171.8 79.4 171.2 79.2Q170.6 79.0 170.2 78.6Q169.7 78.2 169.5 77.7Q169.3 77.2 169.3 76.6L169.3 76.6Q169.3 76.2 169.4 75.8Q169.5 75.4 169.8 75.1Q170.0 74.7 170.3 74.5Q170.7 74.3 171.1 74.2L171.1 74.2L171.1 74.2Q170.4 74.1 169.9 73.5Q169.5 73.0 169.5 72.2L169.5 72.2Q169.5 71.6 169.7 71.1Q170.0 70.7 170.3 70.3Q170.7 70.0 171.3 69.8Q171.8 69.6 172.5 69.6L172.5 69.6Q173.2 69.6 173.7 69.8Q174.3 70.0 174.7 70.3Q175.0 70.7 175.3 71.1Q175.5 71.6 175.5 72.2L175.5 72.2Q175.5 73.0 175.1 73.5Q174.6 74.1 173.9 74.2L173.9 74.2L173.9 74.2Q174.3 74.3 174.7 74.5Q175.0 74.7 175.2 75.1Q175.5 75.4 175.6 75.8Q175.7 76.2 175.7 76.6L175.7 76.6Q175.7 77.2 175.5 77.7Q175.3 78.2 174.8 78.6Q174.4 79.0 173.8 79.2Q173.2 79.4 172.5 79.4ZM172.5 77.8L172.5 77.8Q172.9 77.8 173.1 77.7Q173.4 77.6 173.6 77.4Q173.8 77.3 173.9 77.0Q174.0 76.8 174.0 76.4L174.0 76.4Q174.0 76.1 173.9 75.9Q173.8 75.6 173.6 75.4Q173.4 75.2 173.1 75.1Q172.9 75.0 172.5 75.0L172.5 75.0Q172.1 75.0 171.9 75.1Q171.6 75.2 171.4 75.4Q171.2 75.6 171.1 75.9Q171.0 76.1 171.0 76.4L171.0 76.4Q171.0 76.8 171.1 77.0Q171.2 77.3 171.4 77.4Q171.6 77.6 171.9 77.7Q172.1 77.8 172.5 77.8ZM172.5 73.5L172.5 73.5Q173.1 73.5 173.4 73.2Q173.8 72.9 173.8 72.4L173.8 72.4Q173.8 71.8 173.4 71.5Q173.1 71.2 172.5 71.2L172.5 71.2Q171.9 71.2 171.6 71.5Q171.2 71.8 171.2 72.4L171.2 72.4Q171.2 72.9 171.6 73.2Q171.9 73.5 172.5 73.5Z "/><mask id="satori_om-id-1-2"><rect x="17" y="91" width="160" height="17" fill="#fff"/></mask><clipPath id="satori_cp-id-1-2-0"><rect x="17" y="93" width="14" height="14"/></clipPath><mask id="satori_om-id-1-2-0"><rect x="17" y="93" width="14" height="14" fill="#fff"/></mask><image x="17" y="93" width="14" height="14" href="data:image/svg+xml;utf8,%3Csvg  fill=%22%23B186D6%22 xmlns=%22http://www.w3.org/2000/svg%22 width=%2214%22 height=%2214%22 viewBox=%220 0 24 24%22%3E%3Cpath d=%22M7 3a2 2 0 0 0-2 2v9.17a3.001 3.001 0 1 0 2 0V5h4v2.17a3.001 3.001 0 1 0 2 0V5h2v9.17a3.001 3.001 0 1 0 2 0V5a2 2 0 0 0-2-2H7z%22%3E%3C/path%3E%3C/svg%3E" preserveAspectRatio="none" clip-path="url(#satori_cp-id-1-2-0)" mask="url(#satori_om-id-1-2-0)"/><mask id="satori_om-id-1-2-0-0"><rect x="17" y="93" width="0" height="14" fill="#fff"/></mask><mask id="satori_om-id-1-2-1"><rect x="37" y="93" width="126" height="13" fill="#fff"/></mask><path fill="#656D76" d="M40.3 100L38.8 100L38.8 102.9Q38.8 103.1 38.7 103.2Q38.6 103.3 38.4 103.3L38.4 103.3Q38.1 103.3 38.0 103.2Q37.9 103.1 37.9 102.9L37.9 102.9L37.9 96.7Q37.9 96.3 38.1 96.1Q38.3 95.9 38.7 95.9L38.7 95.9L40.3 95.9Q40.7 95.9 41.1 96.0Q41.6 96.2 41.9 96.4Q42.2 96.7 42.3 97.1Q42.5 97.5 42.5 98.0L42.5 98.0Q42.5 98.4 42.3 98.8Q42.1 99.2 41.9 99.5Q41.5 99.7 41.1 99.9Q40.7 100 40.3 100L40.3 100ZM38.8 97.2L38.8 99.1L40.3 99.1Q40.5 99.1 40.8 99.0Q41.0 99.0 41.2 98.8Q41.4 98.7 41.5 98.5Q41.6 98.2 41.6 98.0L41.6 98.0Q41.6 97.4 41.2 97.1Q40.8 96.8 40.3 96.8L40.3 96.8L39.2 96.8Q39.0 96.8 38.9 96.9Q38.8 97 38.8 97.2L38.8 97.2ZM44.8 97.2L44.8 99.1L46.3 99.1Q46.5 99.1 46.8 99.0Q47.0 99.0 47.2 98.8Q47.4 98.7 47.5 98.5Q47.6 98.2 47.6 98.0L47.6 98.0Q47.6 97.4 47.2 97.1Q46.8 96.8 46.3 96.8L46.3 96.8L45.2 96.8Q45.0 96.8 44.9 96.9Q44.8 97 44.8 97.2L44.8 97.2ZM46 100L44.8 100L44.8 102.9Q44.8 103.1 44.7 103.2Q44.6 103.3 44.4 103.3L44.4 103.3Q44.1 103.3 44.0 103.2Q43.9 103.1 43.9 102.9L43.9 102.9L43.9 96.7Q43.9 96.3 44.1 96.1Q44.3 95.9 44.7 95.9L44.7 95.9L46.3 95.9Q46.7 95.9 47.1 96.0Q47.6 96.2 47.9 96.4Q48.2 96.7 48.3 97.1Q48.5 97.5 48.5 98.0L48.5 98.0Q48.5 98.4 48.4 98.7Q48.3 99.0 48.1 99.3Q47.9 99.5 47.6 99.7Q47.3 99.8 46.9 99.9L46.9 99.9L48.3 102.7Q48.5 103.0 48.4 103.2Q48.3 103.3 48 103.3L48 103.3Q47.8 103.3 47.7 103.2Q47.5 103.2 47.5 103L47.5 103L46 100ZM52.0 103.3L52.0 103.3Q51.7 103.3 51.4 103.3Q51.1 103.2 50.9 103.1Q50.7 103.0 50.4 102.9Q50.2 102.7 50.0 102.5L50.0 102.5Q49.9 102.4 49.9 102.2Q49.8 102.1 49.8 102.0L49.8 102.0Q49.8 101.7 49.9 101.7Q50.0 101.6 50.2 101.6L50.2 101.6Q50.3 101.6 50.4 101.6Q50.5 101.7 50.6 101.8L50.6 101.8Q50.9 102.0 51.2 102.2Q51.5 102.4 52 102.4L52 102.4Q52.2 102.4 52.4 102.4Q52.6 102.4 52.8 102.3Q53.0 102.2 53.2 102.1Q53.3 101.9 53.3 101.7L53.3 101.7Q53.3 101.5 53.2 101.3Q53.0 101.2 52.8 101.1Q52.6 101.0 52.4 100.9Q52.2 100.8 52 100.8L52 100.8Q51.7 100.7 51.3 100.6Q51.0 100.5 50.7 100.4Q50.4 100.2 50.2 99.9Q50.0 99.6 50.0 99.1L50.0 99.1Q50.0 98.7 50.2 98.4Q50.3 98.1 50.6 98.0Q50.9 97.8 51.2 97.7Q51.6 97.6 52 97.6L52 97.6Q52.6 97.6 53.2 97.8Q53.7 98.0 54.0 98.5L54.0 98.5Q54.0 98.6 54.1 98.7Q54.1 98.7 54.1 98.8L54.1 98.8Q54.1 99.0 54.0 99.1Q53.9 99.2 53.7 99.2L53.7 99.2Q53.6 99.2 53.5 99.2Q53.4 99.1 53.3 99.0L53.3 99.0Q53.0 98.8 52.7 98.6Q52.5 98.5 52 98.5L52 98.5Q51.8 98.5 51.6 98.5Q51.4 98.6 51.2 98.7Q51.1 98.7 51.0 98.8Q50.9 99.0 50.9 99.1L50.9 99.1Q50.9 99.3 51.0 99.5Q51.1 99.6 51.3 99.7Q51.5 99.8 51.6 99.8Q51.8 99.9 52 99.9L52 99.9Q52.4 100.0 52.8 100.1Q53.2 100.2 53.5 100.4Q53.8 100.6 54 100.9Q54.2 101.2 54.2 101.7L54.2 101.7Q54.2 102.2 54.0 102.5Q53.8 102.8 53.5 102.9Q53.2 103.1 52.8 103.2Q52.5 103.3 52.0 103.3Z "/><mask id="satori_om-id-1-2-2"><rect x="169" y="91" width="8" height="17" fill="#fff"/></mask><path fill="#E6EDF3" d="M173.4 103.9L173.4 103.9Q173.1 104.1 172.8 104.2Q172.4 104.4 172.0 104.4L172.0 104.4Q171.7 104.4 171.6 104.3Q171.4 104.1 171.4 104.0Q171.3 103.8 171.4 103.6Q171.5 103.4 171.7 103.3L171.7 103.3Q172.8 102.5 173.4 101.6Q174.0 100.8 174.3 99.7L174.3 99.7Q174.1 100.0 173.9 100.2Q173.7 100.4 173.4 100.5Q173.1 100.7 172.8 100.7Q172.5 100.8 172.2 100.8L172.2 100.8Q171.6 100.8 171.1 100.6Q170.7 100.4 170.4 100.0Q170.0 99.6 169.9 99.0Q169.7 98.5 169.7 97.8L169.7 97.8Q169.7 97.0 169.9 96.4Q170.2 95.8 170.6 95.4Q171.1 95.0 171.6 94.8Q172.2 94.6 172.9 94.6L172.9 94.6Q173.6 94.6 174.2 94.8Q174.8 95.0 175.2 95.4Q175.6 95.8 175.9 96.4Q176.1 97.0 176.1 97.8L176.1 97.8Q176.1 98.5 176.0 99.2Q175.9 99.9 175.7 100.6L175.7 100.6Q175.3 101.6 174.7 102.4Q174.2 103.2 173.4 103.9ZM172.9 96.1L172.9 96.1Q172.2 96.1 171.8 96.5Q171.3 97.0 171.3 97.7L171.3 97.7Q171.3 98.5 171.7 99.0Q172.1 99.5 172.9 99.5L172.9 99.5Q173.3 99.5 173.6 99.4Q173.9 99.2 174.1 99.0Q174.3 98.7 174.4 98.4Q174.5 98.1 174.5 97.7L174.5 97.7Q174.5 97.0 174.0 96.6Q173.6 96.1 172.9 96.1Z "/><mask id="satori_om-id-1-3"><rect x="17" y="116" width="160" height="17" fill="#fff"/></mask><clipPath id="satori_cp-id-1-3-0"><rect x="17" y="118" width="14" height="14"/></clipPath><mask id="satori_om-id-1-3-0"><rect x="17" y="118" width="14" height="14" fill="#fff"/></mask><image x="17" y="118" width="14" height="14" href="data:image/svg+xml;utf8,%3Csvg  fill=%22%23B186D6%22 xmlns=%22http://www.w3.org/2000/svg%22 width=%2214%22 height=%2214%22 viewBox=%220 0 24 24%22%3E%3Cpath d=%22M12 2C6.48 2 2 6.48 2 12s4.48 10 10 10 10-4.48 10-10S17.52 2 12 2zm1 15h-2v-2h2v2zm0-4h-2V7h2v6z%22%3E%3C/path%3E%3C/svg%3E" preserveAspectRatio="none" clip-path="url(#satori_cp-id-1-3-0)" mask="url(#satori_om-id-1-3-0)"/><mask id="satori_om-id-1-3-0-0"><rect x="17" y="118" width="0" height="14" fill="#fff"/></mask><mask id="satori_om-id-1-3-1"><rect x="37" y="118" width="126" height="14" fill="#fff"/></mask><path fill="#656D76" d="M40.5 121.8L40.5 127.3L41.5 127.3Q41.7 127.3 41.8 127.4Q42.0 127.5 42.0 127.7L42.0 127.7Q42.0 127.9 41.8 128.1Q41.7 128.2 41.5 128.2L41.5 128.2L38.5 128.2Q38.3 128.2 38.2 128.1Q38.0 127.9 38.0 127.7L38.0 127.7Q38.0 127.5 38.2 127.4Q38.3 127.3 38.5 127.3L38.5 127.3L39.5 127.3L39.5 121.8L38.5 121.8Q38.3 121.8 38.2 121.7Q38.0 121.5 38.0 121.3L38.0 121.3Q38.0 121.1 38.2 121.0Q38.3 120.9 38.5 120.9L38.5 120.9L41.5 120.9Q41.7 120.9 41.8 121.0Q42.0 121.1 42.0 121.3L42.0 121.3Q42.0 121.5 41.8 121.7Q41.7 121.8 41.5 121.8L41.5 121.8L40.5 121.8ZM46.0 128.3L46.0 128.3Q45.7 128.3 45.4 128.3Q45.1 128.2 44.9 128.1Q44.7 128.0 44.4 127.9Q44.2 127.7 44.0 127.5L44.0 127.5Q43.9 127.4 43.9 127.2Q43.8 127.1 43.8 127.0L43.8 127.0Q43.8 126.7 43.9 126.7Q44.0 126.6 44.2 126.6L44.2 126.6Q44.3 126.6 44.4 126.6Q44.5 126.7 44.6 126.8L44.6 126.8Q44.9 127.0 45.2 127.2Q45.5 127.4 46 127.4L46 127.4Q46.2 127.4 46.4 127.4Q46.6 127.4 46.8 127.3Q47.0 127.2 47.2 127.1Q47.3 126.9 47.3 126.7L47.3 126.7Q47.3 126.5 47.2 126.3Q47.0 126.2 46.8 126.1Q46.6 126.0 46.4 125.9Q46.2 125.8 46 125.8L46 125.8Q45.7 125.7 45.3 125.6Q45.0 125.5 44.7 125.3Q44.4 125.2 44.2 124.9Q44.0 124.6 44.0 124.1L44.0 124.1Q44.0 123.7 44.2 123.4Q44.3 123.1 44.6 123.0Q44.9 122.8 45.2 122.7Q45.6 122.6 46 122.6L46 122.6Q46.6 122.6 47.2 122.8Q47.7 123.0 48.0 123.4L48.0 123.4Q48.0 123.6 48.1 123.6Q48.1 123.7 48.1 123.8L48.1 123.8Q48.1 124.0 48.0 124.1Q47.9 124.2 47.7 124.2L47.7 124.2Q47.6 124.2 47.5 124.2Q47.4 124.1 47.3 124.0L47.3 124.0Q47.0 123.8 46.7 123.6Q46.5 123.5 46 123.5L46 123.5Q45.8 123.5 45.6 123.5Q45.4 123.6 45.2 123.6Q45.1 123.7 45.0 123.8Q44.9 124.0 44.9 124.1L44.9 124.1Q44.9 124.3 45.0 124.5Q45.1 124.6 45.3 124.7Q45.5 124.8 45.6 124.8Q45.8 124.9 46 124.9L46 124.9Q46.4 125.0 46.8 125.1Q47.2 125.2 47.5 125.4Q47.8 125.6 48 125.9Q48.2 126.2 48.2 126.7L48.2 126.7Q48.2 127.1 48.0 127.5Q47.8 127.8 47.5 127.9Q47.2 128.1 46.8 128.2Q46.5 128.3 46.0 128.3ZM52.0 128.3L52.0 128.3Q51.7 128.3 51.4 128.3Q51.1 128.2 50.9 128.1Q50.7 128.0 50.4 127.9Q50.2 127.7 50.0 127.5L50.0 127.5Q49.9 127.4 49.9 127.2Q49.8 127.1 49.8 127.0L49.8 127.0Q49.8 126.7 49.9 126.7Q50.0 126.6 50.2 126.6L50.2 126.6Q50.3 126.6 50.4 126.6Q50.5 126.7 50.6 126.8L50.6 126.8Q50.9 127.0 51.2 127.2Q51.5 127.4 52 127.4L52 127.4Q52.2 127.4 52.4 127.4Q52.6 127.4 52.8 127.3Q53.0 127.2 53.2 127.1Q53.3 126.9 53.3 126.7L53.3 126.7Q53.3 126.5 53.2 126.3Q53.0 126.2 52.8 126.1Q52.6 126.0 52.4 125.9Q52.2 125.8 52 125.8L52 125.8Q51.7 125.7 51.3 125.6Q51.0 125.5 50.7 125.3Q50.4 125.2 50.2 124.9Q50.0 124.6 50.0 124.1L50.0 124.1Q50.0 123.7 50.2 123.4Q50.3 123.1 50.6 123.0Q50.9 122.8 51.2 122.7Q51.6 122.6 52 122.6L52 122.6Q52.6 122.6 53.2 122.8Q53.7 123.0 54.0 123.4L54.0 123.4Q54.0 123.6 54.1 123.6Q54.1 123.7 54.1 123.8L54.1 123.8Q54.1 124.0 54.0 124.1Q53.9 124.2 53.7 124.2L53.7 124.2Q53.6 124.2 53.5 124.2Q53.4 124.1 53.3 124.0L53.3 124.0Q53.0 123.8 52.7 123.6Q52.5 123.5 52 123.5L52 123.5Q51.8 123.5 51.6 123.5Q51.4 123.6 51.2 123.6Q51.1 123.7 51.0 123.8Q50.9 124.0 50.9 124.1L50.9 124.1Q50.9 124.3 51.0 124.5Q51.1 124.6 51.3 124.7Q51.5 124.8 51.6 124.8Q51.8 124.9 52 124.9L52 124.9Q52.4 125.0 52.8 125.1Q53.2 125.2 53.5 125.4Q53.8 125.6 54 125.9Q54.2 126.2 54.2 126.7L54.2 126.7Q54.2 127.1 54.0 127.5Q53.8 127.8 53.5 127.9Q53.2 128.1 52.8 128.2Q52.5 128.3 52.0 128.3ZM59.1 125.9L59.1 123.0Q59.1 122.8 59.3 122.7Q59.4 122.6 59.6 122.6L59.6 122.6Q59.8 122.6 59.9 122.7Q60.0 122.8 60.0 123.0L60.0 123.0L60.0 127.8Q60.0 128.1 59.9 128.2Q59.8 128.3 59.6 128.3L59.6 128.3Q59.4 128.3 59.3 128.2Q59.1 128.1 59.1 127.8L59.1 127.8L59.1 127.3Q59.0 127.7 58.7 128.0Q58.3 128.3 57.8 128.3L57.8 128.3Q57.4 128.3 57.0 128.2Q56.7 128.0 56.5 127.8Q56.2 127.5 56.1 127.2Q56.0 126.8 56.0 126.4L56.0 126.4L56.0 123.0Q56.0 122.8 56.1 122.7Q56.2 122.6 56.4 122.6L56.4 122.6Q56.6 122.6 56.7 122.7Q56.9 122.8 56.9 123.0L56.9 123.0L56.9 126.1Q56.9 126.4 56.9 126.6Q57.0 126.9 57.1 127.0Q57.3 127.2 57.5 127.3Q57.7 127.4 57.9 127.4L57.9 127.4Q58.2 127.4 58.4 127.3Q58.6 127.1 58.8 126.9Q59.0 126.7 59.1 126.4Q59.1 126.1 59.1 125.9L59.1 125.9ZM65.6 126.9L65.6 126.9Q65.8 126.9 65.9 127.0Q66.0 127.1 66.0 127.3L66.0 127.3Q66.0 127.4 66.0 127.5Q65.9 127.6 65.8 127.7L65.8 127.7Q65.7 127.8 65.5 128.0Q65.3 128.1 65.1 128.1Q64.9 128.2 64.7 128.3Q64.4 128.3 64.2 128.3L64.2 128.3Q63.6 128.3 63.2 128.1Q62.7 127.9 62.4 127.5Q62.1 127.2 61.9 126.7Q61.7 126.1 61.7 125.5L61.7 125.5Q61.7 124.9 61.9 124.4Q62.0 123.9 62.3 123.5Q62.5 123.1 63.0 122.8Q63.4 122.6 64.0 122.6L64.0 122.6Q64.7 122.6 65.0 122.8Q65.5 123.0 65.7 123.4Q65.9 123.7 66.0 124.2Q66.2 124.7 66.2 125.3L66.2 125.3Q66.2 125.5 66.0 125.7Q65.9 125.8 65.7 125.8L65.7 125.8L62.6 125.8Q62.7 126.2 62.8 126.5Q63.0 126.8 63.1 127.0Q63.4 127.2 63.6 127.3Q63.9 127.4 64.2 127.4L64.2 127.4Q64.7 127.4 64.9 127.3Q65.2 127.1 65.3 127.0L65.3 127.0Q65.4 126.9 65.5 126.9Q65.5 126.9 65.6 126.9ZM62.6 125.0L65.1 125.0Q65.1 125.0 65.2 124.9Q65.3 124.9 65.3 124.7L65.3 124.7Q65.3 124.5 65.2 124.2Q65.1 124.0 64.9 123.9Q64.8 123.7 64.6 123.6Q64.3 123.5 64.0 123.5L64.0 123.5Q63.7 123.5 63.5 123.6Q63.3 123.7 63.1 123.9Q62.9 124.1 62.8 124.4Q62.7 124.7 62.6 125.0L62.6 125.0ZM70.0 128.3L70.0 128.3Q69.7 128.3 69.4 128.3Q69.2 128.2 68.9 128.1Q68.7 128.0 68.4 127.9Q68.2 127.7 68.0 127.5L68.0 127.5Q67.9 127.4 67.9 127.2Q67.8 127.1 67.8 127.0L67.8 127.0Q67.8 126.7 67.9 126.7Q68.0 126.6 68.2 126.6L68.2 126.6Q68.3 126.6 68.4 126.6Q68.5 126.7 68.6 126.8L68.6 126.8Q68.9 127.0 69.2 127.2Q69.5 127.4 70 127.4L70 127.4Q70.2 127.4 70.4 127.4Q70.6 127.4 70.8 127.3Q71.0 127.2 71.2 127.1Q71.3 126.9 71.3 126.7L71.3 126.7Q71.3 126.5 71.2 126.3Q71.0 126.2 70.8 126.1Q70.6 126.0 70.4 125.9Q70.2 125.8 70 125.8L70 125.8Q69.7 125.7 69.3 125.6Q69.0 125.5 68.7 125.3Q68.4 125.2 68.2 124.9Q68.0 124.6 68.0 124.1L68.0 124.1Q68.0 123.7 68.2 123.4Q68.3 123.1 68.6 123.0Q68.9 122.8 69.2 122.7Q69.6 122.6 70 122.6L70 122.6Q70.7 122.6 71.2 122.8Q71.7 123.0 72.0 123.4L72.0 123.4Q72.0 123.6 72.1 123.6Q72.1 123.7 72.1 123.8L72.1 123.8Q72.1 124.0 72.0 124.1Q71.9 124.2 71.7 124.2L71.7 124.2Q71.6 124.2 71.5 124.2Q71.4 124.1 71.3 124.0L71.3 124.0Q71.0 123.8 70.7 123.6Q70.5 123.5 70 123.5L70 123.5Q69.8 123.5 69.6 123.5Q69.4 123.6 69.2 123.6Q69.1 123.7 69.0 123.8Q68.9 124.0 68.9 124.1L68.9 124.1Q68.9 124.3 69.0 124.5Q69.1 124.6 69.3 124.7Q69.5 124.8 69.7 124.8Q69.8 124.9 70 124.9L70 124.9Q70.4 125.0 70.8 125.1Q71.2 125.2 71.5 125.4Q71.8 125.6 72 125.9Q72.2 126.2 72.2 126.7L72.2 126.7Q72.2 127.1 72.0 127.5Q71.8 127.8 71.5 127.9Q71.2 128.1 70.8 128.2Q70.5 128.3 70.0 128.3Z "/><mask id="satori_om-id-1-3-2"><rect x="169" y="116" width="8" height="17" fill="#fff"/></mask><path fill="#E6EDF3" d="M175.6 129.3L170.7 129.3Q170.3 129.3 170.1 129.0Q169.9 128.8 169.9 128.4Q169.9 128.1 170.1 127.8Q170.3 127.6 170.7 127.6L170.7 127.6L172.5 127.6L172.5 122.2Q172.5 122.0 172.5 121.9Q172.4 121.8 172.3 121.8L172.3 121.8Q172.3 121.8 172.2 121.8Q172.1 121.8 172.0 121.9L172.0 121.9L171.3 122.5Q171.1 122.7 170.9 122.8Q170.7 122.9 170.5 122.9L170.5 122.9Q170.3 122.9 170.2 122.6Q170.1 122.4 170.1 121.9L170.1 121.9Q170.1 121.6 170.2 121.4Q170.3 121.2 170.5 121.0L170.5 121.0L171.8 120.0Q172.1 119.8 172.4 119.7Q172.6 119.6 173.0 119.6L173.0 119.6Q173.6 119.6 173.9 119.9Q174.2 120.2 174.2 120.9L174.2 120.9L174.2 127.6L175.6 127.6Q176.0 127.6 176.1 127.8Q176.3 128.1 176.3 128.4Q176.3 128.8 176.1 129.0Q176.0 129.3 175.6 129.3L175.6 129.3Z "/><mask id="satori_om-id-1-4"><rect x="17" y="142" width="160" height="18" fill="#fff"/></mask><clipPath id="satori_cp-id-1-4-0"><rect x="17" y="144" width="14" height="14"/></clipPath><mask id="satori_om-id-1-4-0"><rect x="17" y="144" width="14" height="14" fill="#fff"/></mask><image x="17" y="144" width="14" height="14" href="data:image/svg+xml;utf8,%3Csvg  fill=%22%23B186D6%22 xmlns=%22http://www.w3.org/2000/svg%22 width=%2214%22 height=%2214%22 viewBox=%220 0 24 24%22%3E%3Cpath d=%22M3 2.75A2.75 2.75 0 015.75 0h14.5a.75.75 0 01.75.75v20.5a.75.75 0 01-.75.75h-6a.75.75 0 010-1.5h5.25v-4H6A1.5 1.5 0 004.5 18v.75c0 .716.43 1.334 1.05 1.605a.75.75 0 01-.6 1.374A3.25 3.25 0 013 18.75V2.75z%22%3E%3C/path%3E%3C/svg%3E" preserveAspectRatio="none" clip-path="url(#satori_cp-id-1-4-0)" mask="url(#satori_om-id-1-4-0)"/><mask id="satori_om-id-1-4-0-0"><rect x="17" y="144" width="0" height="14" fill="#fff"/></mask><mask id="satori_om-id-1-4-1"><rect x="37" y="144" width="118" height="14" fill="#fff"/></mask><path fill="#656D76" d="M38.8 148.2L38.8 150.1L40.3 150.1Q40.5 150.1 40.8 150.0Q41.0 149.9 41.2 149.8Q41.4 149.7 41.5 149.4Q41.6 149.2 41.6 148.9L41.6 148.9Q41.6 148.4 41.2 148.1Q40.8 147.8 40.3 147.8L40.3 147.8L39.2 147.8Q39.0 147.8 38.9 147.9Q38.8 148 38.8 148.2L38.8 148.2ZM40 151L38.8 151L38.8 153.8Q38.8 154.1 38.7 154.2Q38.6 154.3 38.4 154.3L38.4 154.3Q38.1 154.3 38.0 154.2Q37.9 154.1 37.9 153.8L37.9 153.8L37.9 147.7Q37.9 147.3 38.1 147.1Q38.3 146.9 38.7 146.9L38.7 146.9L40.3 146.9Q40.7 146.9 41.1 147.0Q41.6 147.2 41.9 147.4Q42.2 147.7 42.3 148.1Q42.5 148.5 42.5 148.9L42.5 148.9Q42.5 149.3 42.4 149.7Q42.3 150.0 42.1 150.3Q41.9 150.5 41.6 150.7Q41.3 150.8 40.9 150.9L40.9 150.9L42.3 153.7Q42.5 154.0 42.4 154.2Q42.3 154.3 42 154.3L42 154.3Q41.8 154.3 41.7 154.2Q41.5 154.1 41.5 154L41.5 154L40 151ZM47.6 152.9L47.6 152.9Q47.8 152.9 47.9 153.0Q48.0 153.1 48.0 153.3L48.0 153.3Q48.0 153.4 48.0 153.5Q47.9 153.6 47.8 153.7L47.8 153.7Q47.7 153.8 47.5 154.0Q47.3 154.1 47.1 154.1Q46.9 154.2 46.7 154.3Q46.4 154.3 46.2 154.3L46.2 154.3Q45.6 154.3 45.2 154.1Q44.7 153.9 44.4 153.5Q44.1 153.2 43.9 152.7Q43.7 152.1 43.7 151.5L43.7 151.5Q43.7 150.9 43.9 150.4Q44.0 149.9 44.3 149.5Q44.5 149.1 45.0 148.8Q45.4 148.6 46.0 148.6L46.0 148.6Q46.6 148.6 47.0 148.8Q47.5 149.0 47.7 149.4Q47.9 149.8 48.0 150.2Q48.1 150.7 48.1 151.3L48.1 151.3Q48.1 151.5 48.0 151.7Q47.9 151.8 47.7 151.8L47.7 151.8L44.6 151.8Q44.7 152.2 44.8 152.5Q45.0 152.8 45.1 153.0Q45.4 153.2 45.6 153.3Q45.9 153.4 46.2 153.4L46.2 153.4Q46.6 153.4 46.9 153.3Q47.2 153.1 47.3 153L47.3 153Q47.4 152.9 47.5 152.9Q47.5 152.9 47.6 152.9ZM44.6 151L47.1 151Q47.1 151 47.2 150.9Q47.3 150.9 47.3 150.7L47.3 150.7Q47.3 150.5 47.2 150.3Q47.1 150.0 46.9 149.9Q46.8 149.7 46.6 149.6Q46.3 149.5 46.0 149.5L46.0 149.5Q45.7 149.5 45.5 149.6Q45.3 149.7 45.1 149.9Q44.9 150.1 44.8 150.4Q44.7 150.7 44.6 151L44.6 151ZM50.4 148.6L50.4 148.6Q50.6 148.6 50.7 148.7Q50.8 148.8 50.8 149.1L50.8 149.1L50.8 149.7Q50.9 149.4 51.0 149.3Q51.2 149.0 51.3 148.9Q51.5 148.8 51.8 148.7Q52.0 148.6 52.3 148.6L52.3 148.6Q52.9 148.6 53.3 148.8Q53.6 149.1 53.9 149.5Q54.1 149.8 54.1 150.3Q54.2 150.8 54.2 151.3L54.2 151.3Q54.2 151.8 54.1 152.3Q54.0 152.9 53.8 153.3Q53.6 153.8 53.2 154.0Q52.8 154.3 52.2 154.3L52.2 154.3Q51.6 154.3 51.3 154.0Q50.9 153.7 50.8 153.3L50.8 153.3L50.8 155.6Q50.8 155.9 50.7 156.0Q50.6 156.1 50.4 156.1L50.4 156.1Q50.1 156.1 50.0 156.0Q49.9 155.9 49.9 155.6L49.9 155.6L49.9 149.1Q49.9 148.8 50.0 148.7Q50.1 148.6 50.4 148.6ZM52.2 149.5L52.2 149.5Q51.9 149.5 51.7 149.6Q51.4 149.7 51.2 149.9Q51.0 150.1 50.9 150.3Q50.8 150.5 50.8 150.8L50.8 150.8L50.8 151.9Q50.8 152.1 50.9 152.4Q51.0 152.6 51.1 152.9Q51.3 153.1 51.5 153.3Q51.8 153.4 52.0 153.4L52.0 153.4Q52.5 153.4 52.7 153.2Q53.0 153.0 53.1 152.7Q53.2 152.4 53.3 152.1Q53.3 151.7 53.3 151.3L53.3 151.3Q53.3 150.9 53.3 150.6Q53.2 150.3 53.1 150.0Q53.0 149.8 52.7 149.6Q52.5 149.5 52.2 149.5ZM58 154.3L58 154.3Q57.4 154.3 57 154.1Q56.6 153.9 56.3 153.5Q56.0 153.1 55.9 152.6Q55.8 152.1 55.8 151.4L55.8 151.4Q55.8 150.8 55.9 150.3Q56.0 149.8 56.3 149.4Q56.6 149.0 57.0 148.8Q57.4 148.6 58 148.6L58 148.6Q58.6 148.6 59.0 148.8Q59.4 149.0 59.7 149.4Q60.0 149.8 60.1 150.3Q60.3 150.8 60.3 151.4L60.3 151.4Q60.3 152.1 60.1 152.6Q60.0 153.1 59.7 153.5Q59.4 153.9 59.0 154.1Q58.6 154.3 58 154.3ZM58 153.4L58 153.4Q58.4 153.4 58.6 153.3Q58.9 153.1 59.0 152.9Q59.2 152.6 59.3 152.2Q59.4 151.9 59.4 151.4L59.4 151.4Q59.4 151.0 59.3 150.7Q59.2 150.3 59.0 150.0Q58.9 149.8 58.6 149.6Q58.4 149.5 58 149.5L58 149.5Q57.6 149.5 57.4 149.6Q57.1 149.8 57.0 150.0Q56.8 150.3 56.7 150.7Q56.6 151.0 56.6 151.4L56.6 151.4Q56.6 151.9 56.7 152.2Q56.8 152.6 57.0 152.9Q57.1 153.1 57.4 153.3Q57.6 153.4 58 153.4ZM64.0 154.3L64.0 154.3Q63.7 154.3 63.4 154.3Q63.1 154.2 62.9 154.1Q62.7 154.0 62.4 153.9Q62.2 153.7 62.0 153.5L62.0 153.5Q61.9 153.4 61.9 153.2Q61.8 153.1 61.8 153.0L61.8 153.0Q61.8 152.7 61.9 152.7Q62.0 152.6 62.2 152.6L62.2 152.6Q62.3 152.6 62.4 152.6Q62.5 152.7 62.6 152.8L62.6 152.8Q62.9 153.0 63.2 153.2Q63.5 153.4 64 153.4L64 153.4Q64.2 153.4 64.4 153.4Q64.6 153.4 64.8 153.3Q65.0 153.2 65.2 153.1Q65.3 152.9 65.3 152.7L65.3 152.7Q65.3 152.5 65.2 152.3Q65.0 152.2 64.8 152.1Q64.6 152.0 64.4 151.9Q64.2 151.8 64 151.8L64 151.8Q63.7 151.7 63.3 151.6Q63.0 151.5 62.7 151.3Q62.4 151.2 62.2 150.9Q62.0 150.6 62.0 150.1L62.0 150.1Q62.0 149.7 62.2 149.4Q62.3 149.1 62.6 149.0Q62.9 148.8 63.2 148.7Q63.6 148.6 64 148.6L64 148.6Q64.7 148.6 65.2 148.8Q65.7 149.0 66.0 149.4L66.0 149.4Q66.0 149.6 66.1 149.6Q66.1 149.7 66.1 149.8L66.1 149.8Q66.1 150.0 66.0 150.1Q65.9 150.2 65.7 150.2L65.7 150.2Q65.6 150.2 65.5 150.2Q65.4 150.1 65.3 150.0L65.3 150.0Q65.0 149.8 64.7 149.6Q64.5 149.5 64 149.5L64 149.5Q63.8 149.5 63.6 149.5Q63.4 149.6 63.2 149.6Q63.1 149.7 63.0 149.8Q62.9 150.0 62.9 150.1L62.9 150.1Q62.9 150.3 63.0 150.5Q63.1 150.6 63.3 150.7Q63.5 150.8 63.6 150.8Q63.8 150.9 64 150.9L64 150.9Q64.4 151.0 64.8 151.1Q65.2 151.2 65.5 151.4Q65.8 151.6 66 151.9Q66.2 152.2 66.2 152.7L66.2 152.7Q66.2 153.1 66.0 153.5Q65.8 153.8 65.5 153.9Q65.2 154.1 64.8 154.2Q64.5 154.3 64.0 154.3Z "/><mask id="satori_om-id-1-4-2"><rect x="161" y="142" width="16" height="18" fill="#fff"/></mask><path fill="#E6EDF3" d="M164.9 155.4L164.9 155.4Q164.2 155.4 163.6 155.2Q163.0 155.0 162.6 154.6Q162.1 154.2 161.9 153.7Q161.7 153.2 161.7 152.6L161.7 152.6Q161.7 152.2 161.8 151.8Q161.9 151.4 162.2 151.1Q162.4 150.7 162.7 150.5Q163.1 150.3 163.5 150.2L163.5 150.2L163.5 150.2Q162.8 150.1 162.3 149.5Q161.9 149.0 161.9 148.2L161.9 148.2Q161.9 147.6 162.1 147.1Q162.4 146.7 162.7 146.3Q163.1 146.0 163.7 145.8Q164.2 145.6 164.9 145.6L164.9 145.6Q165.6 145.6 166.1 145.8Q166.7 146.0 167.1 146.3Q167.4 146.7 167.7 147.1Q167.9 147.6 167.9 148.2L167.9 148.2Q167.9 149.0 167.5 149.5Q167.0 150.1 166.3 150.2L166.3 150.2L166.3 150.2Q166.7 150.3 167.1 150.5Q167.4 150.7 167.6 151.1Q167.9 151.4 168.0 151.8Q168.1 152.2 168.1 152.6L168.1 152.6Q168.1 153.2 167.9 153.7Q167.7 154.2 167.2 154.6Q166.8 155.0 166.2 155.2Q165.6 155.4 164.9 155.4ZM164.9 153.8L164.9 153.8Q165.3 153.8 165.5 153.7Q165.8 153.6 166.0 153.4Q166.2 153.3 166.3 153.0Q166.4 152.8 166.4 152.4L166.4 152.4Q166.4 152.1 166.3 151.9Q166.2 151.6 166.0 151.4Q165.8 151.2 165.5 151.1Q165.3 151.0 164.9 151.0L164.9 151.0Q164.5 151.0 164.3 151.1Q164.0 151.2 163.8 151.4Q163.6 151.6 163.5 151.9Q163.4 152.1 163.4 152.4L163.4 152.4Q163.4 152.8 163.5 153.0Q163.6 153.3 163.8 153.4Q164.0 153.6 164.3 153.7Q164.5 153.8 164.9 153.8ZM164.9 149.5L164.9 149.5Q165.5 149.5 165.8 149.2Q166.2 148.9 166.2 148.4L166.2 148.4Q166.2 147.8 165.8 147.5Q165.5 147.2 164.9 147.2L164.9 147.2Q164.3 147.2 164.0 147.5Q163.6 147.8 163.6 148.4L163.6 148.4Q163.6 148.9 164.0 149.2Q164.3 149.5 164.9 149.5ZM175.7 152.4L175.7 152.4Q175.7 153.1 175.5 153.6Q175.3 154.2 174.8 154.6Q174.4 155.0 173.8 155.2Q173.2 155.4 172.4 155.4L172.4 155.4Q171.8 155.4 171.2 155.3Q170.6 155.2 170.1 154.9L170.1 154.9Q169.8 154.8 169.7 154.5Q169.6 154.2 169.8 153.9L169.8 153.9Q169.9 153.6 170.2 153.5Q170.5 153.4 170.9 153.5L170.9 153.5Q171.2 153.7 171.6 153.7Q172.0 153.8 172.4 153.8L172.4 153.8Q173.2 153.8 173.6 153.4Q174.0 153.1 174.0 152.3L174.0 152.3Q174.0 151.9 173.8 151.6Q173.7 151.4 173.4 151.2Q173.0 151.0 172.6 150.9Q172.2 150.9 171.6 150.9L171.6 150.9L171.4 150.9Q170.7 150.9 170.4 150.6Q170.1 150.2 170.1 149.6L170.1 149.6L170.1 147.0Q170.1 146.4 170.4 146.1Q170.7 145.8 171.4 145.8L171.4 145.8L174.8 145.8Q175.1 145.8 175.3 146.0Q175.5 146.2 175.5 146.5L175.5 146.5Q175.5 146.9 175.3 147.1Q175.1 147.4 174.8 147.4L174.8 147.4L172.5 147.4Q172.2 147.4 172.0 147.5Q171.9 147.7 171.9 148.0L171.9 148.0L171.9 148.7Q171.9 149.0 172.0 149.2Q172.2 149.4 172.5 149.4L172.5 149.4Q173.0 149.4 173.6 149.5Q174.2 149.6 174.7 149.9Q175.1 150.3 175.4 150.9Q175.7 151.5 175.7 152.4Z "/><mask id="satori_om-id-1-5"><rect x="17" y="167" width="160" height="17" fill="#fff"/></mask><clipPath id="satori_cp-id-1-5-0"><rect x="17" y="169" width="14" height="14"/></clipPath><mask id="satori_om-id-1-5-0"><rect x="17" y="169" width="14" height="14" fill="#fff"/></mask><image x="17" y="169" width="14" height="14" href="data:image/svg+xml;utf8,%3Csvg  fill=%22%23B186D6%22 xmlns=%22http://www.w3.org/2000/svg%22 width=%2214%22 height=%2214%22 viewBox=%220 0 24 24%22%3E%3Cpath d=%22M12 12c2.21 0 4-1.79 4-4s-1.79-4-4-4-4 1.79-4 4 1.79 4 4 4zm0 2c-2.67 0-8 1.34-8 4v2h16v-2c0-2.66-5.33-4-8-4z%22%3E%3C/path%3E%3C/svg%3E" preserveAspectRatio="none" clip-path="url(#satori_cp-id-1-5-0)" mask="url(#satori_om-id-1-5-0)"/><mask id="satori_om-id-1-5-0-0"><rect x="17" y="169" width="0" height="14" fill="#fff"/></mask><mask id="satori_om-id-1-5-1"><rect x="37" y="169" width="126" height="13" fill="#fff"/></mask><path fill="#656D76" d="M38.9 173.2L38.9 174.9L41.6 174.9Q41.8 174.9 41.9 175.0Q42.0 175.1 42.0 175.3L42.0 175.3Q42.0 175.5 41.9 175.6Q41.8 175.7 41.6 175.7L41.6 175.7L38.9 175.7L38.9 178.8Q38.9 179.1 38.7 179.2Q38.6 179.3 38.4 179.3L38.4 179.3Q38.2 179.3 38.1 179.2Q38.0 179.1 38.0 178.8L38.0 178.8L38.0 172.7Q38.0 172.3 38.1 172.1Q38.3 171.9 38.8 171.9L38.8 171.9L41.8 171.9Q42.0 171.9 42.1 172.0Q42.3 172.1 42.3 172.3L42.3 172.3Q42.3 172.6 42.1 172.7Q42.0 172.8 41.8 172.8L41.8 172.8L39.3 172.8Q39.0 172.8 39.0 172.9Q38.9 173 38.9 173.2L38.9 173.2ZM46 179.3L46 179.3Q45.4 179.3 45 179.1Q44.6 178.9 44.3 178.5Q44.0 178.1 43.9 177.6Q43.8 177.1 43.8 176.4L43.8 176.4Q43.8 175.8 43.9 175.3Q44.0 174.8 44.3 174.4Q44.6 174.0 45.0 173.8Q45.4 173.6 46 173.6L46 173.6Q46.6 173.6 47.0 173.8Q47.4 174.0 47.7 174.4Q48.0 174.8 48.1 175.3Q48.3 175.8 48.3 176.4L48.3 176.4Q48.3 177.1 48.1 177.6Q48.0 178.1 47.7 178.5Q47.4 178.9 47.0 179.1Q46.6 179.3 46 179.3ZM46 178.4L46 178.4Q46.4 178.4 46.6 178.3Q46.9 178.1 47.0 177.9Q47.2 177.6 47.3 177.2Q47.4 176.9 47.4 176.4L47.4 176.4Q47.4 176.0 47.3 175.7Q47.2 175.3 47.0 175.0Q46.9 174.8 46.6 174.6Q46.4 174.5 46 174.5L46 174.5Q45.6 174.5 45.4 174.6Q45.1 174.8 45.0 175.0Q44.8 175.3 44.7 175.7Q44.6 176.0 44.6 176.4L44.6 176.4Q44.6 176.9 44.7 177.2Q44.8 177.6 45.0 177.9Q45.1 178.1 45.4 178.3Q45.6 178.4 46 178.4ZM52.1 172.7L52.1 177.0Q52.1 177.7 52.3 178.0Q52.5 178.4 52.9 178.4L52.9 178.4Q53.1 178.4 53.3 178.4Q53.5 178.3 53.8 178.2L53.8 178.2Q54.0 178.1 54.1 178.2Q54.3 178.2 54.4 178.4L54.4 178.4Q54.5 178.6 54.4 178.8Q54.4 178.9 54.2 179.0L54.2 179.0Q53.9 179.2 53.6 179.3Q53.2 179.3 52.8 179.3L52.8 179.3Q52.4 179.3 52.1 179.2Q51.8 179.0 51.6 178.8Q51.4 178.5 51.3 178.1Q51.2 177.7 51.2 177.1L51.2 177.1L51.2 173.1Q51.2 172.9 51.1 172.8Q51 172.7 50.8 172.7L50.8 172.7L50.1 172.7Q49.9 172.7 49.8 172.6Q49.6 172.5 49.6 172.3L49.6 172.3Q49.6 172.1 49.8 172.0Q49.9 171.9 50.1 171.9L50.1 171.9L51.3 171.9Q51.7 171.9 51.9 172.1Q52.1 172.3 52.1 172.7L52.1 172.7ZM58.1 172.7L58.1 177.0Q58.1 177.7 58.3 178.0Q58.5 178.4 58.9 178.4L58.9 178.4Q59.1 178.4 59.3 178.4Q59.5 178.3 59.8 178.2L59.8 178.2Q60.0 178.1 60.1 178.2Q60.3 178.2 60.4 178.4L60.4 178.4Q60.5 178.6 60.4 178.8Q60.4 178.9 60.2 179.0L60.2 179.0Q59.9 179.2 59.6 179.3Q59.2 179.3 58.8 179.3L58.8 179.3Q58.4 179.3 58.1 179.2Q57.8 179.0 57.6 178.8Q57.4 178.5 57.3 178.1Q57.2 177.7 57.2 177.1L57.2 177.1L57.2 173.1Q57.2 172.9 57.1 172.8Q57 172.7 56.8 172.7L56.8 172.7L56.1 172.7Q55.9 172.7 55.8 172.6Q55.6 172.5 55.6 172.3L55.6 172.3Q55.6 172.1 55.8 172.0Q55.9 171.9 56.1 171.9L56.1 171.9L57.3 171.9Q57.7 171.9 57.9 172.1Q58.1 172.3 58.1 172.7L58.1 172.7ZM64 179.3L64 179.3Q63.4 179.3 63 179.1Q62.6 178.9 62.3 178.5Q62.0 178.1 61.9 177.6Q61.8 177.1 61.8 176.4L61.8 176.4Q61.8 175.8 61.9 175.3Q62.0 174.8 62.3 174.4Q62.6 174.0 63.0 173.8Q63.4 173.6 64 173.6L64 173.6Q64.6 173.6 65.0 173.8Q65.4 174.0 65.7 174.4Q66.0 174.8 66.1 175.3Q66.3 175.8 66.3 176.4L66.3 176.4Q66.3 177.1 66.1 177.6Q66.0 178.1 65.7 178.5Q65.4 178.9 65.0 179.1Q64.6 179.3 64 179.3ZM64 178.4L64 178.4Q64.3 178.4 64.6 178.3Q64.9 178.1 65.0 177.9Q65.2 177.6 65.3 177.2Q65.3 176.9 65.3 176.4L65.3 176.4Q65.3 176.0 65.3 175.7Q65.2 175.3 65.0 175.0Q64.9 174.8 64.6 174.6Q64.4 174.5 64 174.5L64 174.5Q63.6 174.5 63.4 174.6Q63.1 174.8 63.0 175.0Q62.8 175.3 62.7 175.7Q62.6 176.0 62.6 176.4L62.6 176.4Q62.6 176.9 62.7 177.2Q62.8 177.6 63.0 177.9Q63.1 178.1 63.4 178.3Q63.6 178.4 64 178.4ZM68.0 178.7L67.4 174.1Q67.3 173.9 67.5 173.7Q67.6 173.6 67.8 173.6L67.8 173.6Q68.0 173.6 68.1 173.7Q68.3 173.8 68.3 174.0L68.3 174.0L68.7 178.2L69.4 175.3Q69.5 175.0 69.6 174.9Q69.8 174.8 70 174.8L70 174.8Q70.2 174.8 70.4 174.9Q70.5 175.0 70.6 175.3L70.6 175.3L71.3 178.2L71.7 174.0Q71.8 173.8 71.9 173.7Q72.0 173.6 72.2 173.6L72.2 173.6Q72.4 173.6 72.5 173.7Q72.7 173.9 72.6 174.1L72.6 174.1L72.0 178.7Q72 179 71.8 179.1Q71.7 179.3 71.4 179.3L71.4 179.3Q71.0 179.3 70.9 179.1Q70.7 179 70.7 178.7L70.7 178.7L70 176.1L69.3 178.7Q69.3 179 69.1 179.1Q69.0 179.3 68.6 179.3L68.6 179.3Q68.3 179.3 68.2 179.1Q68.0 179 68.0 178.7L68.0 178.7ZM77.6 177.9L77.6 177.9Q77.8 177.9 77.9 178.0Q78.0 178.1 78.0 178.3L78.0 178.3Q78.0 178.4 78.0 178.5Q77.9 178.6 77.8 178.7L77.8 178.7Q77.7 178.8 77.5 179.0Q77.3 179.1 77.1 179.1Q76.9 179.2 76.7 179.3Q76.4 179.3 76.2 179.3L76.2 179.3Q75.6 179.3 75.2 179.1Q74.7 178.9 74.4 178.5Q74.1 178.2 73.9 177.7Q73.7 177.1 73.7 176.5L73.7 176.5Q73.7 175.9 73.9 175.4Q74.0 174.9 74.3 174.5Q74.5 174.1 75.0 173.8Q75.4 173.6 76.0 173.6L76.0 173.6Q76.7 173.6 77.0 173.8Q77.5 174.0 77.7 174.4Q77.9 174.8 78.0 175.2Q78.2 175.7 78.2 176.3L78.2 176.3Q78.2 176.5 78.0 176.7Q77.9 176.8 77.7 176.8L77.7 176.8L74.7 176.8Q74.7 177.2 74.8 177.5Q75.0 177.8 75.2 178.0Q75.3 178.2 75.6 178.3Q75.9 178.4 76.2 178.4L76.2 178.4Q76.7 178.4 76.9 178.3Q77.2 178.1 77.3 178L77.3 178Q77.4 177.9 77.5 177.9Q77.5 177.9 77.6 177.9ZM74.7 176L77.1 176Q77.1 176 77.2 175.9Q77.3 175.9 77.3 175.7L77.3 175.7Q77.3 175.5 77.2 175.3Q77.1 175.0 76.9 174.9Q76.8 174.7 76.6 174.6Q76.3 174.5 76.0 174.5L76.0 174.5Q75.7 174.5 75.5 174.6Q75.3 174.7 75.1 174.9Q74.9 175.1 74.8 175.4Q74.7 175.7 74.7 176L74.7 176ZM80.5 179.3L80.5 179.3Q80.3 179.3 80.2 179.2Q80.1 179.1 80.1 178.8L80.1 178.8L80.1 174.0Q80.1 173.8 80.2 173.7Q80.3 173.6 80.5 173.6L80.5 173.6Q80.8 173.6 80.9 173.7Q81 173.8 81 174.0L81 174.0L81 174.6Q81.1 174.4 81.3 174.2Q81.5 174.0 81.7 173.9Q82.0 173.8 82.3 173.7Q82.5 173.6 82.8 173.6L82.8 173.6Q83.3 173.6 83.6 173.8Q83.9 173.9 84.0 174.2Q84.2 174.5 84.2 174.8Q84.3 175.2 84.3 175.6L84.3 175.6L84.3 175.7Q84.3 175.9 84.2 176.0Q84.1 176.1 83.8 176.1L83.8 176.1Q83.6 176.1 83.5 176.0Q83.4 175.9 83.4 175.7L83.4 175.7L83.4 175.6Q83.4 175.3 83.4 175.2Q83.3 175.0 83.2 174.8Q83.1 174.7 83.0 174.6Q82.8 174.5 82.5 174.5L82.5 174.5Q82.3 174.5 82 174.6Q81.7 174.6 81.5 174.8Q81.3 174.9 81.1 175.2Q81 175.4 81 175.7L81 175.7L81 178.8Q81 179.1 80.9 179.2Q80.8 179.3 80.5 179.3ZM88.0 179.3L88.0 179.3Q87.7 179.3 87.4 179.3Q87.2 179.2 86.9 179.1Q86.7 179.0 86.4 178.9Q86.2 178.7 86.0 178.5L86.0 178.5Q85.9 178.4 85.9 178.2Q85.8 178.1 85.8 178.0L85.8 178.0Q85.8 177.7 85.9 177.7Q86.0 177.6 86.2 177.6L86.2 177.6Q86.3 177.6 86.4 177.6Q86.5 177.7 86.6 177.8L86.6 177.8Q86.9 178.0 87.2 178.2Q87.5 178.4 88 178.4L88 178.4Q88.2 178.4 88.4 178.4Q88.6 178.4 88.8 178.3Q89.0 178.2 89.2 178.1Q89.3 177.9 89.3 177.7L89.3 177.7Q89.3 177.5 89.2 177.3Q89.0 177.2 88.8 177.1Q88.6 177.0 88.4 176.9Q88.2 176.8 88 176.8L88 176.8Q87.7 176.7 87.3 176.6Q87.0 176.5 86.7 176.3Q86.4 176.2 86.2 175.9Q86.0 175.6 86.0 175.1L86.0 175.1Q86.0 174.7 86.2 174.4Q86.3 174.1 86.6 174.0Q86.9 173.8 87.2 173.7Q87.6 173.6 88 173.6L88 173.6Q88.7 173.6 89.2 173.8Q89.7 174.0 90.0 174.4L90.0 174.4Q90.0 174.6 90.1 174.6Q90.1 174.7 90.1 174.8L90.1 174.8Q90.1 175.0 90.0 175.1Q89.9 175.2 89.7 175.2L89.7 175.2Q89.6 175.2 89.5 175.2Q89.4 175.1 89.3 175.0L89.3 175.0Q89.0 174.8 88.7 174.6Q88.5 174.5 88 174.5L88 174.5Q87.8 174.5 87.6 174.5Q87.4 174.6 87.2 174.6Q87.1 174.7 87.0 174.8Q86.9 175.0 86.9 175.1L86.9 175.1Q86.9 175.3 87.0 175.5Q87.1 175.6 87.3 175.7Q87.5 175.8 87.7 175.8Q87.8 175.9 88 175.9L88 175.9Q88.4 176.0 88.8 176.1Q89.2 176.2 89.5 176.4Q89.8 176.6 90 176.9Q90.2 177.2 90.2 177.7L90.2 177.7Q90.2 178.1 90.0 178.5Q89.8 178.8 89.5 178.9Q89.2 179.1 88.8 179.2Q88.5 179.3 88.0 179.3Z "/><mask id="satori_om-id-1-5-2"><rect x="169" y="167" width="8" height="17" fill="#fff"/></mask><path fill="#E6EDF3" d="M172.4 171.1L172.4 171.1Q172.7 170.9 173.0 170.8Q173.4 170.6 173.8 170.6L173.8 170.6Q174.1 170.6 174.2 170.8Q174.4 170.9 174.4 171.0Q174.5 171.2 174.4 171.4Q174.3 171.6 174.1 171.8L174.1 171.8Q173.0 172.5 172.4 173.4Q171.8 174.2 171.5 175.3L171.5 175.3Q171.7 175.1 171.9 174.9Q172.1 174.6 172.4 174.5Q172.7 174.4 173.0 174.3Q173.3 174.2 173.6 174.2L173.6 174.2Q174.2 174.2 174.7 174.4Q175.1 174.7 175.4 175.1Q175.8 175.4 175.9 176.0Q176.1 176.6 176.1 177.2L176.1 177.2Q176.1 178.0 175.9 178.6Q175.6 179.2 175.2 179.6Q174.7 180.0 174.2 180.2Q173.6 180.4 172.9 180.4L172.9 180.4Q172.2 180.4 171.6 180.2Q171.0 180.0 170.6 179.6Q170.2 179.2 169.9 178.6Q169.7 178.0 169.7 177.2L169.7 177.2Q169.7 176.5 169.8 175.8Q169.9 175.1 170.1 174.4L170.1 174.4Q170.5 173.4 171.1 172.6Q171.6 171.8 172.4 171.1ZM172.9 178.9L172.9 178.9Q173.6 178.9 174.0 178.5Q174.5 178.0 174.5 177.3L174.5 177.3Q174.5 176.5 174.1 176.0Q173.7 175.5 172.9 175.5L172.9 175.5Q172.5 175.5 172.2 175.7Q171.9 175.8 171.7 176.0Q171.5 176.3 171.4 176.6Q171.3 176.9 171.3 177.3L171.3 177.3Q171.3 178.0 171.8 178.5Q172.2 178.9 172.9 178.9Z "/><mask id="satori_om-id-2"><rect x="17" y="232" width="160" height="11" fill="#fff"/></mask><path fill="#656D76" d="M17.7 238.5L17.7 234.7Q17.7 234.5 17.8 234.4Q17.9 234.3 18.1 234.3L18.1 234.3Q18.3 234.3 18.4 234.4Q18.4 234.5 18.4 234.7L18.4 234.7L18.4 238.5Q18.4 238.7 18.5 238.9Q18.6 239.1 18.7 239.2Q18.8 239.4 19.0 239.4Q19.2 239.5 19.4 239.5L19.4 239.5Q19.6 239.5 19.8 239.4Q20.0 239.4 20.1 239.2Q20.2 239.1 20.3 238.9Q20.4 238.7 20.4 238.5L20.4 238.5L20.4 234.7Q20.4 234.5 20.4 234.4Q20.5 234.3 20.7 234.3L20.7 234.3Q20.9 234.3 21.0 234.4Q21.1 234.5 21.1 234.7L21.1 234.7L21.1 238.5Q21.1 238.9 21.0 239.2Q20.9 239.5 20.6 239.8Q20.4 240.0 20.1 240.1Q19.8 240.2 19.4 240.2L19.4 240.2Q19.0 240.2 18.7 240.1Q18.4 240.0 18.2 239.8Q17.9 239.5 17.8 239.2Q17.7 238.9 17.7 238.5L17.7 238.5ZM22.9 235.7L22.9 235.7Q23.1 235.7 23.2 235.8Q23.2 235.9 23.2 236.0L23.2 236.0L23.2 236.6Q23.3 236.4 23.4 236.2Q23.5 236.0 23.7 235.9Q23.8 235.8 24 235.7Q24.2 235.7 24.4 235.7L24.4 235.7Q24.9 235.7 25.2 235.9Q25.5 236.1 25.7 236.4Q25.8 236.7 25.9 237.1Q26.0 237.4 26.0 237.8L26.0 237.8Q26.0 238.2 25.9 238.7Q25.8 239.1 25.7 239.5Q25.5 239.8 25.2 240.0Q24.8 240.2 24.3 240.2L24.3 240.2Q23.9 240.2 23.6 240.0Q23.3 239.8 23.2 239.4L23.2 239.4L23.2 241.3Q23.2 241.5 23.2 241.6Q23.1 241.7 22.9 241.7L22.9 241.7Q22.7 241.7 22.6 241.6Q22.5 241.5 22.5 241.3L22.5 241.3L22.5 236.0Q22.5 235.9 22.6 235.8Q22.7 235.7 22.9 235.7ZM24.3 236.4L24.3 236.4Q24.1 236.4 23.9 236.5Q23.7 236.6 23.6 236.7Q23.4 236.9 23.3 237.0Q23.2 237.2 23.2 237.4L23.2 237.4L23.2 238.3Q23.2 238.5 23.3 238.7Q23.4 238.9 23.5 239.1Q23.6 239.3 23.8 239.4Q24 239.5 24.2 239.5L24.2 239.5Q24.6 239.5 24.8 239.4Q25.0 239.2 25.1 239.0Q25.2 238.8 25.2 238.5Q25.2 238.2 25.2 237.9L25.2 237.9Q25.2 237.5 25.2 237.3Q25.2 237.0 25.1 236.8Q25.0 236.6 24.8 236.5Q24.6 236.4 24.3 236.4ZM30.3 240.2L30.3 240.2Q30.1 240.2 30.0 240.1Q30.0 240.1 30.0 239.9L30.0 239.9L30.0 239.4Q29.9 239.6 29.8 239.7Q29.7 239.9 29.5 240.0Q29.4 240.1 29.2 240.2Q29.0 240.2 28.8 240.2L28.8 240.2Q28.3 240.2 28.0 240.0Q27.7 239.9 27.5 239.5Q27.4 239.2 27.3 238.9Q27.2 238.5 27.2 238.1L27.2 238.1Q27.2 237.7 27.3 237.2Q27.4 236.8 27.5 236.5Q27.7 236.1 28.0 235.9Q28.4 235.7 28.9 235.7L28.9 235.7Q29.3 235.7 29.6 235.9Q29.9 236.2 30.0 236.5L30.0 236.5L30.0 234.6Q30.0 234.4 30.0 234.3Q30.1 234.2 30.3 234.2L30.3 234.2Q30.5 234.2 30.6 234.3Q30.7 234.4 30.7 234.6L30.7 234.6L30.7 239.9Q30.7 240.1 30.6 240.1Q30.5 240.2 30.3 240.2ZM28.9 239.5L28.9 239.5Q29.1 239.5 29.3 239.4Q29.5 239.3 29.6 239.2Q29.8 239.1 29.9 238.9Q30.0 238.7 30.0 238.5L30.0 238.5L30.0 237.6Q30.0 237.4 29.9 237.2Q29.8 237.0 29.7 236.8Q29.6 236.6 29.4 236.5Q29.2 236.4 29.0 236.4L29.0 236.4Q28.6 236.4 28.4 236.5Q28.2 236.7 28.1 236.9Q28.0 237.2 28.0 237.5Q28.0 237.8 28.0 238.1L28.0 238.1Q28.0 238.4 28 238.6Q28.0 238.9 28.1 239.1Q28.2 239.3 28.4 239.4Q28.6 239.5 28.9 239.5ZM33.3 240.2L33.3 240.2Q33.0 240.2 32.8 240.1Q32.5 240.0 32.4 239.8Q32.2 239.6 32.1 239.3Q32.0 238.9 32.0 238.4L32.0 238.4Q32.0 237.8 32.1 237.3Q32.2 236.8 32.4 236.5Q32.6 236.1 33.0 235.9Q33.3 235.7 33.8 235.7L33.8 235.7Q34.2 235.7 34.4 235.9L34.4 235.9Q34.6 236.0 34.7 236.3L34.7 236.3Q34.7 236.1 34.7 236.0L34.7 236.0Q34.7 235.8 34.8 235.8Q35.0 235.7 35.1 235.7L35.1 235.7Q35.3 235.7 35.4 235.8Q35.5 235.8 35.4 236.0L35.4 236.0Q35.4 236.5 35.3 237.0Q35.3 237.4 35.3 237.9Q35.3 238.4 35.4 238.9Q35.4 239.3 35.6 239.9L35.6 239.9Q35.6 240.1 35.5 240.2Q35.5 240.2 35.3 240.2Q35.1 240.2 35.0 240.2Q34.9 240.1 34.8 239.9L34.8 239.9Q34.7 239.5 34.7 239.1L34.7 239.1Q34.6 239.3 34.6 239.4L34.6 239.4Q34.4 239.8 34.1 240.0Q33.8 240.2 33.3 240.2ZM33.4 239.5L33.4 239.5Q33.7 239.5 33.9 239.4Q34.1 239.3 34.2 239.0Q34.4 238.8 34.5 238.4Q34.6 238.1 34.6 237.7L34.6 237.7Q34.6 237.5 34.5 237.3Q34.5 237.0 34.5 236.9Q34.4 236.7 34.3 236.5Q34.1 236.4 33.9 236.4L33.9 236.4Q33.6 236.4 33.4 236.6Q33.2 236.7 33.0 237.0Q32.9 237.3 32.8 237.6Q32.7 238.0 32.7 238.4L32.7 238.4Q32.7 239.0 32.9 239.2Q33.0 239.5 33.4 239.5ZM38.6 235.9L40.0 235.9Q40.2 235.9 40.3 236.0Q40.4 236.1 40.4 236.3Q40.4 236.4 40.3 236.5Q40.2 236.6 40.0 236.6L40.0 236.6L38.6 236.6L38.6 238.4Q38.6 238.9 38.7 239.2Q38.9 239.5 39.2 239.5L39.2 239.5Q39.4 239.5 39.6 239.5Q39.7 239.5 39.9 239.4L39.9 239.4Q40.0 239.3 40.2 239.3Q40.3 239.4 40.4 239.5L40.4 239.5Q40.5 239.7 40.4 239.8Q40.4 240.0 40.3 240.0L40.3 240.0Q40.0 240.2 39.7 240.2Q39.5 240.2 39.1 240.2L39.1 240.2Q38.8 240.2 38.6 240.1Q38.4 240.0 38.2 239.8Q38.0 239.6 37.9 239.3Q37.8 239.0 37.8 238.5L37.8 238.5L37.8 236.6L36.9 236.6Q36.7 236.6 36.7 236.5Q36.6 236.4 36.6 236.3Q36.6 236.1 36.7 236.0Q36.7 235.9 36.9 235.9L36.9 235.9L37.8 235.9L37.8 234.9Q37.8 234.7 37.9 234.6Q38.0 234.5 38.2 234.5Q38.4 234.5 38.5 234.6Q38.6 234.7 38.6 234.9L38.6 234.9L38.6 235.9ZM44.7 239.1L44.7 239.1Q44.8 239.1 44.9 239.2Q45.0 239.3 45.0 239.5L45.0 239.5Q45.0 239.5 45.0 239.6Q45.0 239.7 44.9 239.8L44.9 239.8Q44.7 239.9 44.6 240.0Q44.4 240.1 44.3 240.1Q44.1 240.2 43.9 240.2Q43.8 240.2 43.6 240.2L43.6 240.2Q43.1 240.2 42.7 240.1Q42.4 239.9 42.1 239.6Q41.9 239.3 41.7 238.9Q41.6 238.5 41.6 238.0L41.6 238.0Q41.6 237.5 41.7 237.1Q41.8 236.7 42.0 236.4Q42.2 236.1 42.6 235.9Q42.9 235.7 43.4 235.7L43.4 235.7Q43.9 235.7 44.2 235.8Q44.6 236.0 44.8 236.3Q45.0 236.6 45.0 237.0Q45.1 237.4 45.1 237.9L45.1 237.9Q45.1 238.0 45.0 238.1Q44.9 238.2 44.7 238.2L44.7 238.2L42.3 238.2Q42.4 238.6 42.5 238.8Q42.6 239.0 42.7 239.2Q42.9 239.4 43.1 239.4Q43.3 239.5 43.6 239.5L43.6 239.5Q43.9 239.5 44.1 239.4Q44.3 239.3 44.5 239.2L44.5 239.2Q44.5 239.1 44.6 239.1Q44.6 239.1 44.7 239.1ZM42.3 237.6L44.3 237.6Q44.3 237.6 44.4 237.6Q44.4 237.5 44.4 237.3L44.4 237.3Q44.4 237.2 44.3 237Q44.3 236.8 44.1 236.7Q44.0 236.6 43.8 236.5Q43.7 236.4 43.4 236.4L43.4 236.4Q43.2 236.4 43.0 236.5Q42.8 236.6 42.7 236.7Q42.5 236.9 42.4 237.1Q42.4 237.3 42.3 237.6L42.3 237.6ZM49.5 240.2L49.5 240.2Q49.3 240.2 49.2 240.1Q49.2 240.1 49.2 239.9L49.2 239.9L49.2 239.4Q49.1 239.6 49.0 239.7Q48.9 239.9 48.7 240.0Q48.6 240.1 48.4 240.2Q48.2 240.2 48.0 240.2L48.0 240.2Q47.5 240.2 47.2 240.0Q46.9 239.9 46.7 239.5Q46.6 239.2 46.5 238.9Q46.4 238.5 46.4 238.1L46.4 238.1Q46.4 237.7 46.5 237.2Q46.6 236.8 46.7 236.5Q46.9 236.1 47.2 235.9Q47.6 235.7 48.1 235.7L48.1 235.7Q48.5 235.7 48.8 235.9Q49.1 236.2 49.2 236.5L49.2 236.5L49.2 234.6Q49.2 234.4 49.2 234.3Q49.3 234.2 49.5 234.2L49.5 234.2Q49.7 234.2 49.8 234.3Q49.9 234.4 49.9 234.6L49.9 234.6L49.9 239.9Q49.9 240.1 49.8 240.1Q49.7 240.2 49.5 240.2ZM48.1 239.5L48.1 239.5Q48.3 239.5 48.5 239.4Q48.7 239.3 48.8 239.2Q49.0 239.1 49.1 238.9Q49.2 238.7 49.2 238.5L49.2 238.5L49.2 237.6Q49.2 237.4 49.1 237.2Q49.0 237.0 48.9 236.8Q48.8 236.6 48.6 236.5Q48.4 236.4 48.2 236.4L48.2 236.4Q47.8 236.4 47.6 236.5Q47.4 236.7 47.3 236.9Q47.2 237.2 47.2 237.5Q47.2 237.8 47.2 238.1L47.2 238.1Q47.2 238.4 47.2 238.6Q47.2 238.9 47.3 239.1Q47.4 239.3 47.6 239.4Q47.8 239.5 48.1 239.5ZM52.3 239.6L52.3 239.6Q52.3 239.3 52.5 239.1Q52.7 238.9 53.0 238.9L53.0 238.9Q53.3 238.9 53.5 239.1Q53.7 239.3 53.7 239.6L53.7 239.6Q53.7 239.8 53.5 240.0Q53.3 240.2 53.0 240.2L53.0 240.2Q52.7 240.2 52.5 240.0Q52.3 239.8 52.3 239.6ZM52.3 236.6L52.3 236.6Q52.3 236.3 52.5 236.1Q52.7 235.9 53.0 235.9L53.0 235.9Q53.3 235.9 53.5 236.1Q53.7 236.3 53.7 236.6L53.7 236.6Q53.7 236.9 53.5 237.1Q53.3 237.3 53.0 237.3L53.0 237.3Q52.7 237.3 52.5 237.1Q52.3 236.9 52.3 236.6Z M64.1 240.2L61.3 240.2Q61.1 240.2 60.9 240.0Q60.8 239.9 60.8 239.7L60.8 239.7Q60.8 239.6 60.8 239.5Q60.9 239.4 61.0 239.3L61.0 239.3L62.8 237.4Q62.9 237.3 63.0 237.1Q63.2 236.9 63.3 236.8Q63.4 236.6 63.5 236.4Q63.6 236.2 63.6 236.0L63.6 236.0Q63.6 235.7 63.5 235.5Q63.4 235.3 63.3 235.2Q63.1 235.1 62.9 235.0Q62.7 235.0 62.5 235.0L62.5 235.0Q62.2 235.0 61.9 235.0Q61.7 235.1 61.5 235.2L61.5 235.2Q61.4 235.3 61.2 235.3Q61.1 235.2 61.0 235.1L61.0 235.1Q61.0 234.9 61.0 234.8Q61.0 234.7 61.2 234.6L61.2 234.6Q61.4 234.4 61.7 234.3Q62.1 234.2 62.5 234.2L62.5 234.2Q62.9 234.2 63.2 234.3Q63.6 234.4 63.8 234.6Q64.0 234.8 64.2 235.1Q64.3 235.4 64.3 235.9L64.3 235.9Q64.3 236.1 64.3 236.4Q64.2 236.6 64.1 236.9Q63.9 237.1 63.7 237.3Q63.6 237.6 63.4 237.8L63.4 237.8L61.9 239.3Q61.9 239.3 61.9 239.4Q61.9 239.4 62.1 239.4L62.1 239.4L64.1 239.4Q64.3 239.4 64.4 239.5Q64.5 239.6 64.5 239.8L64.5 239.8Q64.5 240.0 64.4 240.1Q64.3 240.2 64.1 240.2L64.1 240.2ZM67.4 240.2L67.4 240.2Q66.8 240.2 66.4 239.9Q66.1 239.7 65.9 239.2Q65.6 238.8 65.6 238.2Q65.5 237.7 65.5 237.2Q65.5 236.8 65.6 236.2Q65.6 235.7 65.9 235.3Q66.1 234.8 66.4 234.5Q66.8 234.2 67.4 234.2L67.4 234.2Q68.0 234.2 68.4 234.5Q68.8 234.8 69.0 235.3Q69.2 235.7 69.2 236.2Q69.3 236.7 69.3 237.2L69.3 237.2Q69.3 237.7 69.2 238.2Q69.2 238.8 68.9 239.2Q68.7 239.7 68.4 239.9Q68 240.2 67.4 240.2ZM67.4 239.5L67.4 239.5Q67.8 239.5 68.0 239.3Q68.2 239.0 68.4 238.7Q68.5 238.3 68.5 237.9Q68.6 237.5 68.6 237.2L68.6 237.2Q68.6 237.0 68.6 236.8L68.6 236.8L66.4 238.6Q66.4 238.6 66.4 238.7L66.4 238.7Q66.6 239.0 66.8 239.3Q67.0 239.5 67.4 239.5ZM66.2 237.7L68.4 235.8Q68.4 235.8 68.4 235.8L68.4 235.8Q68.2 235.5 68.0 235.2Q67.8 235.0 67.4 235.0Q67.0 235.0 66.8 235.2Q66.6 235.5 66.4 235.8Q66.3 236.2 66.3 236.6Q66.2 237.0 66.2 237.2L66.2 237.2Q66.2 237.4 66.2 237.7L66.2 237.7ZM73.7 240.2L70.9 240.2Q70.7 240.2 70.5 240.0Q70.4 239.9 70.4 239.7L70.4 239.7Q70.4 239.6 70.4 239.5Q70.5 239.4 70.6 239.3L70.6 239.3L72.4 237.4Q72.5 237.3 72.6 237.1Q72.8 236.9 72.9 236.8Q73.0 236.6 73.1 236.4Q73.2 236.2 73.2 236.0L73.2 236.0Q73.2 235.7 73.1 235.5Q73.0 235.3 72.9 235.2Q72.7 235.1 72.5 235.0Q72.3 235.0 72.1 235.0L72.1 235.0Q71.8 235.0 71.5 235.0Q71.3 235.1 71.1 235.2L71.1 235.2Q71.0 235.3 70.8 235.3Q70.7 235.2 70.6 235.1L70.6 235.1Q70.6 234.9 70.6 234.8Q70.6 234.7 70.8 234.6L70.8 234.6Q71.0 234.4 71.3 234.3Q71.7 234.2 72.1 234.2L72.1 234.2Q72.5 234.2 72.8 234.3Q73.2 234.4 73.4 234.6Q73.6 234.8 73.8 235.1Q73.9 235.4 73.9 235.9L73.9 235.9Q73.9 236.1 73.9 236.4Q73.8 236.6 73.7 236.9Q73.5 237.1 73.3 237.3Q73.2 237.6 73.0 237.8L73.0 237.8L71.5 239.3Q71.5 239.3 71.5 239.4Q71.5 239.4 71.7 239.4L71.7 239.4L73.7 239.4Q73.9 239.4 74.0 239.5Q74.1 239.6 74.1 239.8L74.1 239.8Q74.1 240.0 74.0 240.1Q73.9 240.2 73.7 240.2L73.7 240.2ZM77.0 234.5L77.0 234.5Q77.1 234.4 77.2 234.3Q77.4 234.2 77.5 234.2L77.5 234.2Q77.7 234.2 77.7 234.3Q77.8 234.3 77.8 234.4Q77.8 234.5 77.8 234.6Q77.8 234.6 77.7 234.7L77.7 234.7Q77 235.2 76.5 235.9Q76.1 236.5 75.9 237.2L75.9 237.2Q76 237.0 76.1 236.9Q76.3 236.8 76.5 236.7Q76.6 236.6 76.9 236.5Q77.1 236.5 77.3 236.5L77.3 236.5Q77.7 236.5 78.0 236.6Q78.3 236.7 78.5 237.0Q78.7 237.2 78.8 237.6Q78.9 237.9 78.9 238.4L78.9 238.4Q78.9 238.8 78.7 239.2Q78.6 239.5 78.4 239.8Q78.1 240 77.8 240.1Q77.4 240.2 77.0 240.2L77.0 240.2Q76.6 240.2 76.2 240.1Q75.9 240 75.6 239.8Q75.4 239.5 75.3 239.2Q75.1 238.8 75.1 238.4L75.1 238.4Q75.1 237.9 75.2 237.5Q75.2 237.1 75.3 236.7L75.3 236.7Q75.6 236.1 76.0 235.5Q76.4 234.9 77.0 234.5ZM77 239.5L77 239.5Q77.5 239.5 77.8 239.2Q78.2 238.9 78.2 238.4L78.2 238.4Q78.2 237.8 77.9 237.4Q77.6 237.1 77 237.1L77 237.1Q76.7 237.1 76.5 237.2Q76.3 237.3 76.2 237.5Q76 237.7 75.9 237.9Q75.8 238.1 75.8 238.4L75.8 238.4Q75.8 238.9 76.2 239.2Q76.5 239.5 77 239.5ZM83.2 237.9L80.4 237.9Q80.2 237.9 80.1 237.8Q80.0 237.7 80.0 237.5L80.0 237.5Q80.0 237.3 80.1 237.2Q80.2 237.2 80.4 237.2L80.4 237.2L83.2 237.2Q83.4 237.2 83.5 237.2Q83.6 237.3 83.6 237.5L83.6 237.5Q83.6 237.7 83.5 237.8Q83.4 237.9 83.2 237.9L83.2 237.9ZM86.6 240.2L86.6 240.2Q86.0 240.2 85.6 239.9Q85.3 239.7 85.1 239.2Q84.8 238.8 84.8 238.2Q84.7 237.7 84.7 237.2Q84.7 236.8 84.8 236.2Q84.8 235.7 85.1 235.3Q85.3 234.8 85.6 234.5Q86.0 234.2 86.6 234.2L86.6 234.2Q87.2 234.2 87.6 234.5Q88.0 234.8 88.2 235.3Q88.4 235.7 88.4 236.2Q88.5 236.7 88.5 237.2L88.5 237.2Q88.5 237.7 88.4 238.2Q88.4 238.8 88.1 239.2Q87.9 239.7 87.6 239.9Q87.2 240.2 86.6 240.2ZM86.6 239.5L86.6 239.5Q87.0 239.5 87.2 239.3Q87.4 239.0 87.6 238.7Q87.7 238.3 87.7 237.9Q87.8 237.5 87.8 237.2L87.8 237.2Q87.8 237.0 87.8 236.8L87.8 236.8L85.6 238.6Q85.6 238.6 85.6 238.7L85.6 238.7Q85.8 239.0 86.0 239.3Q86.2 239.5 86.6 239.5ZM85.4 237.7L87.6 235.8Q87.6 235.8 87.6 235.8L87.6 235.8Q87.4 235.5 87.2 235.2Q87.0 235.0 86.6 235.0Q86.2 235.0 86.0 235.2Q85.8 235.5 85.6 235.8Q85.5 236.2 85.5 236.6Q85.4 237.0 85.4 237.2L85.4 237.2Q85.4 237.4 85.4 237.7L85.4 237.7ZM89.8 240.0L89.8 240.0Q89.6 239.9 89.6 239.8Q89.5 239.6 89.6 239.5L89.6 239.5Q89.7 239.3 89.8 239.3Q89.9 239.2 90.2 239.3L90.2 239.3Q90.4 239.4 90.6 239.5Q90.9 239.5 91.2 239.5L91.2 239.5Q91.8 239.5 92.1 239.2Q92.4 238.9 92.4 238.4L92.4 238.4Q92.4 238.0 92.3 237.9Q92.1 237.7 91.8 237.6Q91.5 237.5 91.2 237.5Q90.9 237.4 90.6 237.5L90.6 237.5Q90.6 237.5 90.5 237.5Q90.4 237.4 90.4 237.4Q90.3 237.3 90.3 237.3Q90.3 237.2 90.3 237.1L90.3 237.1Q90.3 236.9 90.4 236.8Q90.5 236.7 90.7 236.7L90.7 236.7Q90.9 236.7 91.2 236.7Q91.4 236.7 91.7 236.5Q91.9 236.4 92.0 236.2Q92.2 236.1 92.2 235.8L92.2 235.8Q92.2 235.5 92.1 235.4Q92.0 235.2 91.8 235.1Q91.6 235.0 91.4 235.0Q91.2 235.0 91.0 235.0L91.0 235.0Q90.8 235.0 90.6 235.0Q90.4 235.0 90.2 235.2L90.2 235.2Q90.1 235.2 90.0 235.2Q89.8 235.1 89.8 235.0L89.8 235.0Q89.7 234.9 89.7 234.7Q89.8 234.6 89.9 234.5L89.9 234.5Q90.1 234.4 90.4 234.3Q90.7 234.2 91.0 234.2L91.0 234.2Q91.4 234.2 91.7 234.3Q92.1 234.4 92.3 234.6Q92.6 234.7 92.7 235.0Q92.9 235.3 92.9 235.7L92.9 235.7Q92.9 235.9 92.8 236.1Q92.8 236.4 92.7 236.5Q92.6 236.7 92.4 236.8Q92.2 237.0 92.0 237.0L92.0 237.0Q92.3 237.0 92.5 237.2Q92.8 237.3 92.9 237.5Q93.0 237.7 93.1 238.0Q93.2 238.2 93.2 238.5L93.2 238.5Q93.2 238.9 93.0 239.2Q92.9 239.5 92.6 239.8Q92.4 240.0 92.0 240.1Q91.7 240.2 91.2 240.2L91.2 240.2Q90.8 240.2 90.5 240.2Q90.1 240.1 89.8 240.0ZM97.6 237.9L94.8 237.9Q94.6 237.9 94.5 237.8Q94.4 237.7 94.4 237.5L94.4 237.5Q94.4 237.3 94.5 237.2Q94.6 237.2 94.8 237.2L94.8 237.2L97.6 237.2Q97.8 237.2 97.9 237.2Q98.0 237.3 98.0 237.5L98.0 237.5Q98.0 237.7 97.9 237.8Q97.8 237.9 97.6 237.9L97.6 237.9ZM101.0 240.2L101.0 240.2Q100.4 240.2 100.0 239.9Q99.7 239.7 99.5 239.2Q99.2 238.8 99.2 238.2Q99.1 237.7 99.1 237.2Q99.1 236.8 99.2 236.2Q99.2 235.7 99.5 235.3Q99.7 234.8 100.0 234.5Q100.4 234.2 101.0 234.2L101.0 234.2Q101.6 234.2 102.0 234.5Q102.4 234.8 102.6 235.3Q102.8 235.7 102.8 236.2Q102.9 236.7 102.9 237.2L102.9 237.2Q102.9 237.7 102.8 238.2Q102.8 238.8 102.5 239.2Q102.3 239.7 102.0 239.9Q101.6 240.2 101.0 240.2ZM101.0 239.5L101.0 239.5Q101.4 239.5 101.6 239.3Q101.8 239.0 102.0 238.7Q102.1 238.3 102.1 237.9Q102.2 237.5 102.2 237.2L102.2 237.2Q102.2 237.0 102.2 236.8L102.2 236.8L100.0 238.6Q100.0 238.6 100.0 238.7L100.0 238.7Q100.2 239.0 100.4 239.3Q100.6 239.5 101.0 239.5ZM99.8 237.7L102.0 235.8Q102.0 235.8 102.0 235.8L102.0 235.8Q101.8 235.5 101.6 235.2Q101.4 235.0 101.0 235.0Q100.6 235.0 100.4 235.2Q100.2 235.5 100.0 235.8Q99.9 236.2 99.9 236.6Q99.8 237.0 99.8 237.2L99.8 237.2Q99.8 237.4 99.8 237.7L99.8 237.7ZM107.4 240.2L104.4 240.2Q104.2 240.2 104.1 240.1Q104.0 240.0 104.0 239.8Q104.0 239.6 104.1 239.5Q104.2 239.4 104.4 239.4L104.4 239.4L105.7 239.4L105.7 235.3Q105.7 235.2 105.7 235.1Q105.7 235.1 105.6 235.1L105.6 235.1Q105.6 235.1 105.5 235.1Q105.5 235.1 105.5 235.1L105.5 235.1L104.7 235.8Q104.6 235.9 104.5 235.9Q104.4 235.9 104.3 235.9L104.3 235.9Q104.2 235.9 104.2 235.9Q104.1 235.8 104.1 235.6L104.1 235.6Q104.1 235.4 104.2 235.3Q104.2 235.2 104.3 235.1L104.3 235.1L105.2 234.4Q105.3 234.3 105.5 234.3Q105.6 234.2 105.8 234.2L105.8 234.2Q106.1 234.2 106.3 234.4Q106.4 234.6 106.4 234.9L106.4 234.9L106.4 239.4L107.4 239.4Q107.6 239.4 107.7 239.5Q107.8 239.6 107.8 239.8Q107.8 240.0 107.7 240.1Q107.6 240.2 107.4 240.2L107.4 240.2Z M117.0 240.2L114.0 240.2Q113.8 240.2 113.7 240.1Q113.6 240.0 113.6 239.8Q113.6 239.6 113.7 239.5Q113.8 239.4 114.0 239.4L114.0 239.4L115.3 239.4L115.3 235.3Q115.3 235.2 115.3 235.1Q115.3 235.1 115.2 235.1L115.2 235.1Q115.2 235.1 115.1 235.1Q115.1 235.1 115.1 235.1L115.1 235.1L114.3 235.8Q114.2 235.9 114.1 235.9Q114.0 235.9 113.9 235.9L113.9 235.9Q113.8 235.9 113.8 235.9Q113.7 235.8 113.7 235.6L113.7 235.6Q113.7 235.4 113.8 235.3Q113.8 235.2 113.9 235.1L113.9 235.1L114.8 234.4Q114.9 234.3 115.1 234.3Q115.2 234.2 115.4 234.2L115.4 234.2Q115.7 234.2 115.9 234.4Q116.0 234.6 116.0 234.9L116.0 234.9L116.0 239.4L117.0 239.4Q117.2 239.4 117.3 239.5Q117.4 239.6 117.4 239.8Q117.4 240.0 117.3 240.1Q117.2 240.2 117.0 240.2L117.0 240.2ZM121.7 240.2L118.9 240.2Q118.7 240.2 118.5 240.0Q118.4 239.9 118.4 239.7L118.4 239.7Q118.4 239.6 118.4 239.5Q118.5 239.4 118.6 239.3L118.6 239.3L120.4 237.4Q120.5 237.3 120.6 237.1Q120.8 236.9 120.9 236.8Q121.0 236.6 121.1 236.4Q121.2 236.2 121.2 236.0L121.2 236.0Q121.2 235.7 121.1 235.5Q121.0 235.3 120.9 235.2Q120.7 235.1 120.5 235.0Q120.3 235.0 120.1 235.0L120.1 235.0Q119.8 235.0 119.5 235.0Q119.3 235.1 119.1 235.2L119.1 235.2Q119.0 235.3 118.8 235.3Q118.7 235.2 118.6 235.1L118.6 235.1Q118.6 234.9 118.6 234.8Q118.6 234.7 118.8 234.6L118.8 234.6Q119.0 234.4 119.3 234.3Q119.7 234.2 120.1 234.2L120.1 234.2Q120.5 234.2 120.8 234.3Q121.2 234.4 121.4 234.6Q121.6 234.8 121.8 235.1Q121.9 235.4 121.9 235.9L121.9 235.9Q121.9 236.1 121.9 236.4Q121.8 236.6 121.7 236.9Q121.5 237.1 121.3 237.3Q121.2 237.6 121.0 237.8L121.0 237.8L119.5 239.3Q119.5 239.3 119.5 239.4Q119.5 239.4 119.7 239.4L119.7 239.4L121.7 239.4Q121.9 239.4 122.0 239.5Q122.1 239.6 122.1 239.8L122.1 239.8Q122.1 240.0 122.0 240.1Q121.9 240.2 121.7 240.2L121.7 240.2ZM124.3 239.6L124.3 239.6Q124.3 239.3 124.5 239.1Q124.7 238.9 125.0 238.9L125.0 238.9Q125.3 238.9 125.5 239.1Q125.7 239.3 125.7 239.6L125.7 239.6Q125.7 239.8 125.5 240.0Q125.3 240.2 125.0 240.2L125.0 240.2Q124.7 240.2 124.5 240.0Q124.3 239.8 124.3 239.6ZM124.3 236.6L124.3 236.6Q124.3 236.3 124.5 236.1Q124.7 235.9 125.0 235.9L125.0 235.9Q125.3 235.9 125.5 236.1Q125.7 236.3 125.7 236.6L125.7 236.6Q125.7 236.9 125.5 237.1Q125.3 237.3 125.0 237.3L125.0 237.3Q124.7 237.3 124.5 237.1Q124.3 236.9 124.3 236.6ZM128.2 240.0L128.2 240.0Q128.0 239.9 128.0 239.8Q127.9 239.6 128.0 239.5L128.0 239.5Q128.1 239.3 128.2 239.3Q128.3 239.2 128.6 239.3L128.6 239.3Q128.8 239.4 129.0 239.5Q129.3 239.5 129.6 239.5L129.6 239.5Q130.2 239.5 130.5 239.2Q130.8 238.9 130.8 238.4L130.8 238.4Q130.8 238.0 130.7 237.9Q130.5 237.7 130.2 237.6Q129.9 237.5 129.6 237.5Q129.3 237.4 129.0 237.5L129.0 237.5Q129.0 237.5 128.9 237.5Q128.8 237.4 128.8 237.4Q128.7 237.3 128.7 237.3Q128.7 237.2 128.7 237.1L128.7 237.1Q128.7 236.9 128.8 236.8Q128.9 236.7 129.1 236.7L129.1 236.7Q129.3 236.7 129.6 236.7Q129.8 236.7 130.1 236.5Q130.3 236.4 130.4 236.2Q130.6 236.1 130.6 235.8L130.6 235.8Q130.6 235.5 130.5 235.4Q130.4 235.2 130.2 235.1Q130.0 235.0 129.8 235.0Q129.6 235.0 129.4 235.0L129.4 235.0Q129.2 235.0 129.0 235.0Q128.8 235.0 128.6 235.2L128.6 235.2Q128.5 235.2 128.4 235.2Q128.2 235.1 128.2 235.0L128.2 235.0Q128.1 234.9 128.1 234.7Q128.2 234.6 128.3 234.5L128.3 234.5Q128.5 234.4 128.8 234.3Q129.1 234.2 129.4 234.2L129.4 234.2Q129.8 234.2 130.1 234.3Q130.5 234.4 130.7 234.6Q131.0 234.7 131.1 235.0Q131.3 235.3 131.3 235.7L131.3 235.7Q131.3 235.9 131.2 236.1Q131.2 236.4 131.1 236.5Q131.0 236.7 130.8 236.8Q130.6 237.0 130.4 237.0L130.4 237.0Q130.7 237.0 130.9 237.2Q131.2 237.3 131.3 237.5Q131.4 237.7 131.5 238.0Q131.6 238.2 131.6 238.5L131.6 238.5Q131.6 238.9 131.4 239.2Q131.3 239.5 131.0 239.8Q130.8 240.0 130.4 240.1Q130.1 240.2 129.6 240.2L129.6 240.2Q129.2 240.2 128.9 240.2Q128.5 240.1 128.2 240.0ZM136.2 240.2L133.2 240.2Q133.0 240.2 132.9 240.1Q132.8 240.0 132.8 239.8Q132.8 239.6 132.9 239.5Q133.0 239.4 133.2 239.4L133.2 239.4L134.5 239.4L134.5 235.3Q134.5 235.2 134.5 235.1Q134.5 235.1 134.4 235.1L134.4 235.1Q134.4 235.1 134.3 235.1Q134.3 235.1 134.3 235.1L134.3 235.1L133.5 235.8Q133.4 235.9 133.3 235.9Q133.2 235.9 133.1 235.9L133.1 235.9Q133.0 235.9 133.0 235.9Q132.9 235.8 132.9 235.6L132.9 235.6Q132.9 235.4 133.0 235.3Q133.0 235.2 133.1 235.1L133.1 235.1L134.0 234.4Q134.1 234.3 134.3 234.3Q134.4 234.2 134.6 234.2L134.6 234.2Q134.9 234.2 135.1 234.4Q135.2 234.6 135.2 234.9L135.2 234.9L135.2 239.4L136.2 239.4Q136.4 239.4 136.5 239.5Q136.6 239.6 136.6 239.8Q136.6 240.0 136.5 240.1Q136.4 240.2 136.2 240.2L136.2 240.2Z M142.3 237.2L142.3 237.2Q142.3 236.6 142.4 236.1Q142.5 235.5 142.8 235.1Q143.1 234.7 143.6 234.5Q144.0 234.2 144.6 234.2L144.6 234.2Q145.0 234.2 145.2 234.3Q145.5 234.4 145.7 234.5Q145.8 234.6 145.9 234.7Q146.1 234.8 146.1 235.0L146.1 235.0Q146.2 235.2 146.1 235.3Q146.1 235.4 146.0 235.5L146.0 235.5Q145.9 235.6 145.8 235.5Q145.6 235.5 145.5 235.4L145.5 235.4Q145.4 235.2 145.2 235.1Q145.0 235.0 144.6 235.0L144.6 235.0Q144.2 235.0 143.9 235.1Q143.6 235.3 143.4 235.6Q143.2 236.0 143.1 236.4Q143.0 236.8 143.0 237.2L143.0 237.2Q143.0 237.6 143.1 238.0Q143.2 238.4 143.4 238.8Q143.6 239.1 143.9 239.3Q144.2 239.5 144.7 239.5L144.7 239.5Q144.8 239.5 144.9 239.5Q145.0 239.5 145.1 239.5Q145.3 239.4 145.4 239.4Q145.5 239.4 145.5 239.3L145.5 239.3Q145.7 239.2 145.8 239.2Q146.0 239.2 146.1 239.3L146.1 239.3Q146.2 239.4 146.2 239.6Q146.2 239.7 146.0 239.9L146.0 239.9Q145.9 240.0 145.7 240.1Q145.6 240.1 145.4 240.2Q145.2 240.2 145.0 240.2Q144.8 240.2 144.6 240.2L144.6 240.2Q144.0 240.2 143.5 240.0Q143.1 239.7 142.8 239.3Q142.5 238.9 142.4 238.4Q142.3 237.8 142.3 237.2ZM149.9 235.5L149.9 235.5Q149.8 235.2 149.5 235.1Q149.3 235.0 149 235.0L149 235.0Q148.6 235.0 148.3 235.2Q148.0 235.4 148.0 235.8L148.0 235.8Q148.0 236.0 148.1 236.2Q148.2 236.4 148.3 236.5Q148.4 236.6 148.6 236.6Q148.8 236.7 149 236.7L149 236.7Q149.4 236.8 149.7 237.0Q150.0 237.1 150.3 237.3Q150.5 237.5 150.7 237.8Q150.8 238.1 150.8 238.6L150.8 238.6Q150.8 239.0 150.7 239.3Q150.6 239.6 150.3 239.8Q150.1 240 149.8 240.1Q149.4 240.2 149 240.2L149 240.2Q148.6 240.2 148.3 240.2Q148.0 240.1 147.8 239.9Q147.6 239.7 147.4 239.5Q147.3 239.2 147.2 238.9L147.2 238.9Q147.2 238.8 147.3 238.7Q147.3 238.6 147.5 238.6L147.5 238.6Q147.7 238.6 147.8 238.6Q147.9 238.7 148.0 238.9L148.0 238.9Q148.1 239.2 148.3 239.4Q148.6 239.5 149 239.5L149 239.5Q149.3 239.5 149.5 239.5Q149.7 239.4 149.8 239.3Q150.0 239.2 150.0 239.0Q150.1 238.8 150.1 238.6L150.1 238.6Q150.1 238.3 150.0 238.1Q149.9 237.9 149.8 237.8Q149.6 237.7 149.4 237.6Q149.2 237.5 149 237.5L149 237.5Q148.7 237.4 148.3 237.3Q148.0 237.2 147.8 237.0Q147.6 236.8 147.5 236.5Q147.3 236.2 147.3 235.8L147.3 235.8Q147.3 235.4 147.4 235.2Q147.6 234.9 147.8 234.7Q148 234.5 148.3 234.4Q148.6 234.2 149 234.2L149 234.2Q149.3 234.2 149.6 234.3Q149.9 234.4 150.1 234.6Q150.3 234.7 150.4 234.9Q150.6 235.2 150.6 235.4L150.6 235.4Q150.7 235.6 150.6 235.7Q150.5 235.8 150.3 235.8L150.3 235.8Q150.1 235.8 150.1 235.7Q150.0 235.6 149.9 235.5ZM153.4 239.9L153.4 235.0L152.2 235.0Q152.0 235.0 151.9 234.9Q151.8 234.8 151.8 234.7L151.8 234.7Q151.8 234.5 151.9 234.4Q152.0 234.3 152.2 234.3L152.2 234.3L155.4 234.3Q155.6 234.3 155.7 234.4Q155.8 234.5 155.8 234.7L155.8 234.7Q155.8 234.8 155.7 234.9Q155.6 235.0 155.4 235.0L155.4 235.0L154.2 235.0L154.2 239.9Q154.2 240.1 154.1 240.2Q154.0 240.2 153.8 240.2L153.8 240.2Q153.6 240.2 153.5 240.2Q153.4 240.1 153.4 239.9L153.4 239.9Z "/></svg>