<svg width="390" height="260" viewBox="0 0 390 260" xmlns="http://www.w3.org/2000/svg"><defs><clipPath id="satori_bc-id"><path x="0" y="0" width="390" height="260" d="M16,0 h358 a16,16 0 0 1 16,16 v228 a16,16 0 0 1 -16,16 h-358 a16,16 0 0 1 -16,-16 v-228 a16,16 0 0 1 16,-16"/></clipPath></defs><mask id="satori_om-id"><rect x="1" y="1" width="388" height="258" fill="#fff"/><path width="390" height="260" fill="none" stroke="#000" stroke-width="2" d="M4.686,4.686 A16,16 0 0 1 16,0 h358 a16,16 0 0 1 16,16 v228 a16,16 0 0 1 -16,16 h-358 a16,16 0 0 1 -16,-16 v-228 A16,16 0 0 1 4.686,4.686"/></mask><path x="0" y="0" width="390" height="260" fill="#161B22" d="M16,0 h358 a16,16 0 0 1 16,16 v228 a16,16 0 0 1 -16,16 h-358 a16,16 0 0 1 -16,-16 v-228 a16,16 0 0 1 16,-16"/><path width="390" height="260" clip-path="url(#satori_bc-id)" fill="none" stroke="#30363D" stroke-width="2" d="M4.686,4.686 A16,16 0 0 1 16,0 h358 a16,16 0 0 1 16,16 v228 a16,16 0 0 1 -16,16 h-358 a16,16 0 0 1 -16,-16 v-228 A16,16 0 0 1 4.686,4.686"/><mask id="satori_om-id-0"><rect x="25" y="25" width="340" height="17" fill="#fff"/></mask><path fill="#8B949E" d="M30.4 38.7L30.4 38.7Q29.0 38.7 27.9 38.1Q26.9 37.4 26.2 36.3Q25.6 35.1 25.6 33.5L25.6 33.5Q25.6 31.8 26.3 30.7Q26.9 29.5 28.0 28.9Q29.0 28.2 30.4 28.2L30.4 28.2Q31.2 28.2 32.0 28.5Q32.7 28.7 33.3 29.2Q33.9 29.7 34.3 30.3Q34.6 30.9 34.7 31.7L34.7 31.7L32.6 31.7Q32.5 31.3 32.3 31.0Q32.1 30.7 31.8 30.5Q31.6 30.3 31.2 30.2Q30.8 30.1 30.4 30.1L30.4 30.1Q29.6 30.1 29.0 30.5Q28.4 30.9 28.1 31.6Q27.8 32.4 27.8 33.5Q27.8 34.5 28.1 35.3Q28.4 36.1 29.0 36.5Q29.6 36.8 30.4 36.8L30.4 36.8Q31.2 36.8 31.7 36.6Q32.2 36.3 32.5 35.8L32.5 35.8Q32.8 35.3 32.8 34.7L32.8 34.7L30.6 34.7L30.6 33.1L34.8 33.1L34.8 34.4Q34.8 35.7 34.3 36.7Q33.7 37.7 32.7 38.2Q31.7 38.7 30.4 38.7ZM38.4 38.6L36.4 38.6L36.4 30.9L38.4 30.9L38.4 38.6ZM37.4 29.9L37.4 29.9Q36.9 29.9 36.6 29.6Q36.3 29.3 36.3 28.9L36.3 28.9Q36.3 28.4 36.6 28.1Q36.9 27.8 37.4 27.8L37.4 27.8Q37.9 27.8 38.2 28.1Q38.5 28.4 38.5 28.9L38.5 28.9Q38.5 29.3 38.2 29.6Q37.9 29.9 37.4 29.9ZM42.5 30.9L44.0 30.9L44.0 32.5L42.5 32.5L42.5 36.3Q42.5 36.7 42.7 36.9Q42.9 37.0 43.2 37.0L43.2 37.0Q43.4 37.0 43.6 37.0Q43.8 37.0 43.9 36.9L43.9 36.9L44.2 38.5Q43.8 38.6 43.5 38.6Q43.2 38.7 42.9 38.7L42.9 38.7Q41.7 38.7 41.1 38.1Q40.5 37.6 40.5 36.5L40.5 36.5L40.5 32.5L39.4 32.5L39.4 30.9L40.5 30.9L40.5 29.1L42.5 29.1L42.5 30.9ZM47.4 38.6L45.4 38.6L45.4 28.4L47.4 28.4L47.4 32.5L51.9 32.5L51.9 28.4L54.0 28.4L54.0 38.6L51.9 38.6L51.9 34.2L47.4 34.2L47.4 38.6ZM58.4 38.7L58.4 38.7Q57.6 38.7 57.0 38.3Q56.4 38.0 56.1 37.3Q55.8 36.7 55.8 35.8L55.8 35.8L55.8 30.9L57.8 30.9L57.8 35.4Q57.8 36.1 58.2 36.5Q58.6 36.9 59.2 36.9L59.2 36.9Q59.6 36.9 60.0 36.8Q60.3 36.6 60.5 36.2Q60.7 35.8 60.7 35.3L60.7 35.3L60.7 30.9L62.7 30.9L62.7 38.6L60.8 38.6L60.8 37.0Q60.5 37.7 60.0 38.1L60.0 38.1Q59.3 38.7 58.4 38.7ZM68.8 38.7L68.8 38.7Q68.1 38.7 67.7 38.5Q67.3 38.3 67.0 38.0Q66.7 37.6 66.6 37.3L66.6 37.3L66.5 37.3L66.5 38.6L64.5 38.6L64.5 28.4L66.5 28.4L66.5 32.2L66.6 32.2Q66.7 31.9 67.0 31.6Q67.3 31.3 67.7 31.0Q68.1 30.8 68.8 30.8L68.8 30.8Q69.6 30.8 70.3 31.3Q71.0 31.7 71.4 32.6Q71.9 33.4 71.9 34.8L71.9 34.8Q71.9 36.0 71.5 36.9Q71.0 37.8 70.3 38.2Q69.6 38.7 68.8 38.7ZM68.1 37.0L68.1 37.0Q68.7 37.0 69.0 36.8Q69.4 36.5 69.6 35.9Q69.8 35.4 69.8 34.7L69.8 34.7Q69.8 34.1 69.6 33.6Q69.4 33.1 69.0 32.8Q68.7 32.5 68.1 32.5L68.1 32.5Q67.6 32.5 67.2 32.7Q66.9 33.0 66.7 33.5Q66.5 34.1 66.5 34.7L66.5 34.7Q66.5 35.4 66.7 36.0Q66.9 36.5 67.2 36.8Q67.6 37.0 68.1 37.0Z M80.4 38.7L80.4 38.7Q79.2 38.7 78.3 38.3Q77.4 38.0 76.9 37.2Q76.4 36.5 76.3 35.4L76.3 35.4L78.4 35.4Q78.4 35.9 78.7 36.3Q78.9 36.6 79.4 36.8Q79.8 36.9 80.4 36.9L80.4 36.9Q80.9 36.9 81.4 36.8Q81.8 36.6 82.0 36.3Q82.2 36.0 82.2 35.7L82.2 35.7Q82.2 35.3 82.0 35.1Q81.8 34.8 81.4 34.7Q81.0 34.5 80.5 34.4L80.5 34.4L79.4 34.1Q78.1 33.8 77.3 33.1Q76.6 32.4 76.6 31.3L76.6 31.3Q76.6 30.4 77.1 29.7Q77.6 29.0 78.5 28.6Q79.3 28.2 80.4 28.2L80.4 28.2Q81.6 28.2 82.4 28.6Q83.2 29.0 83.7 29.7Q84.2 30.4 84.2 31.3L84.2 31.3L82.2 31.3Q82.1 30.7 81.7 30.3Q81.2 30.0 80.4 30.0L80.4 30.0Q79.9 30.0 79.5 30.1Q79.1 30.3 78.9 30.6Q78.7 30.8 78.7 31.2L78.7 31.2Q78.7 31.5 79.0 31.8Q79.2 32.0 79.6 32.2Q79.9 32.4 80.4 32.5L80.4 32.5L81.3 32.7Q81.9 32.8 82.5 33.1Q83.0 33.3 83.5 33.7Q83.9 34.0 84.1 34.5Q84.3 35.0 84.3 35.7L84.3 35.7Q84.3 36.6 83.9 37.3Q83.4 38.0 82.5 38.3Q81.6 38.7 80.4 38.7ZM88.2 30.9L89.6 30.9L89.6 32.5L88.2 32.5L88.2 36.3Q88.2 36.7 88.3 36.9Q88.5 37.0 88.8 37.0L88.8 37.0Q89.0 37.0 89.2 37.0Q89.4 37.0 89.5 36.9L89.5 36.9L89.8 38.5Q89.4 38.6 89.1 38.6Q88.8 38.7 88.5 38.7L88.5 38.7Q87.3 38.7 86.7 38.1Q86.1 37.6 86.1 36.5L86.1 36.5L86.1 32.5L85.0 32.5L85.0 30.9L86.1 30.9L86.1 29.1L88.2 29.1L88.2 30.9ZM93.0 38.7L93.0 38.7Q92.3 38.7 91.7 38.5Q91.2 38.2 90.8 37.7Q90.5 37.2 90.5 36.4L90.5 36.4Q90.5 35.8 90.7 35.4Q91.0 34.9 91.4 34.7Q91.8 34.4 92.3 34.3Q92.8 34.1 93.4 34.1L93.4 34.1Q94.0 34.0 94.5 34.0Q94.9 33.9 95.1 33.8Q95.2 33.6 95.2 33.4L95.2 33.4L95.2 33.4Q95.2 33.0 95.1 32.8Q95.0 32.6 94.7 32.5Q94.4 32.3 94.0 32.3L94.0 32.3Q93.6 32.3 93.4 32.5Q93.1 32.6 92.9 32.8Q92.7 33.0 92.6 33.2L92.6 33.2L90.7 32.9Q90.9 32.2 91.4 31.8Q91.8 31.3 92.5 31.1Q93.2 30.8 94.0 30.8L94.0 30.8Q94.7 30.8 95.2 31.0Q95.8 31.1 96.3 31.4Q96.8 31.7 97.0 32.2Q97.3 32.7 97.3 33.4L97.3 33.4L97.3 38.6L95.3 38.6L95.3 37.5L95.3 37.5Q95.1 37.9 94.8 38.1Q94.5 38.4 94.0 38.6Q93.6 38.7 93.0 38.7ZM93.6 37.3L93.6 37.3Q94.1 37.3 94.5 37.1Q94.8 36.9 95.0 36.6Q95.3 36.2 95.3 35.8L95.3 35.8L95.3 35.0Q95.2 35.1 95.0 35.1Q94.8 35.2 94.6 35.2Q94.3 35.3 94.1 35.3Q93.9 35.3 93.7 35.3L93.7 35.3Q93.4 35.4 93.1 35.5Q92.8 35.7 92.6 35.9Q92.5 36.1 92.5 36.4L92.5 36.4Q92.5 36.7 92.6 36.9Q92.8 37.1 93.0 37.2Q93.3 37.3 93.6 37.3ZM101.4 30.9L102.8 30.9L102.8 32.5L101.4 32.5L101.4 36.3Q101.4 36.7 101.6 36.9Q101.7 37.0 102.1 37.0L102.1 37.0Q102.2 37.0 102.4 37.0Q102.6 37.0 102.8 36.9L102.8 36.9L103.0 38.5Q102.7 38.6 102.4 38.6Q102.0 38.7 101.7 38.7L101.7 38.7Q100.6 38.7 100.0 38.1Q99.4 37.6 99.4 36.5L99.4 36.5L99.4 32.5L98.3 32.5L98.3 30.9L99.4 30.9L99.4 29.1L101.4 29.1L101.4 30.9ZM106.2 38.6L104.2 38.6L104.2 30.9L106.2 30.9L106.2 38.6ZM105.2 29.9L105.2 29.9Q104.7 29.9 104.4 29.6Q104.1 29.3 104.1 28.9L104.1 28.9Q104.1 28.4 104.4 28.1Q104.7 27.8 105.2 27.8L105.2 27.8Q105.7 27.8 106.0 28.1Q106.3 28.4 106.3 28.9L106.3 28.9Q106.3 29.3 106.0 29.6Q105.7 29.9 105.2 29.9ZM111.0 38.7L111.0 38.7Q110.1 38.7 109.4 38.4Q108.7 38.2 108.2 37.7Q107.7 37.2 107.6 36.5L107.6 36.5L109.5 36.1Q109.7 36.7 110.1 36.9Q110.4 37.2 111.1 37.2L111.1 37.2Q111.6 37.2 112.0 37.0Q112.3 36.8 112.3 36.4L112.3 36.4Q112.3 36.1 112.1 35.9Q111.8 35.7 111.3 35.6L111.3 35.6L110.0 35.4Q108.9 35.1 108.4 34.6Q107.8 34.1 107.8 33.2L107.8 33.2Q107.8 32.5 108.2 31.9Q108.6 31.4 109.3 31.1Q110.1 30.8 111.0 30.8L111.0 30.8Q111.9 30.8 112.6 31.1Q113.3 31.3 113.7 31.8Q114.1 32.2 114.2 32.9L114.2 32.9L112.4 33.2Q112.3 32.8 111.9 32.5Q111.6 32.3 111.1 32.3L111.1 32.3Q110.6 32.3 110.2 32.5Q109.9 32.7 109.9 33.1L109.9 33.1Q109.9 33.4 110.1 33.6Q110.3 33.8 110.9 33.9L110.9 33.9L112.2 34.1Q113.3 34.4 113.9 34.9Q114.4 35.4 114.4 36.2L114.4 36.2Q114.4 37.0 114.0 37.5Q113.5 38.1 112.8 38.4Q112.0 38.7 111.0 38.7ZM118.2 30.9L119.6 30.9L119.6 32.5L118.2 32.5L118.2 36.3Q118.2 36.7 118.3 36.9Q118.5 37.0 118.9 37.0L118.9 37.0Q119.0 37.0 119.2 37.0Q119.4 37.0 119.5 36.9L119.5 36.9L119.8 38.5Q119.5 38.6 119.1 38.6Q118.8 38.7 118.5 38.7L118.5 38.7Q117.3 38.7 116.7 38.1Q116.1 37.6 116.1 36.5L116.1 36.5L116.1 32.5L115.1 32.5L115.1 30.9L116.1 30.9L116.1 29.1L118.2 29.1L118.2 30.9ZM123.0 38.6L120.9 38.6L120.9 30.9L123.0 30.9L123.0 38.6ZM122.0 29.9L122.0 29.9Q121.5 29.9 121.2 29.6Q120.8 29.3 120.8 28.9L120.8 28.9Q120.8 28.4 121.2 28.1Q121.5 27.8 122.0 27.8L122.0 27.8Q122.4 27.8 122.8 28.1Q123.1 28.4 123.1 28.9L123.1 28.9Q123.1 29.3 122.8 29.6Q122.4 29.9 122.0 29.9ZM128.1 38.7L128.1 38.7Q127.0 38.7 126.1 38.2Q125.3 37.7 124.9 36.8Q124.4 36.0 124.4 34.8L124.4 34.8Q124.4 33.6 124.9 32.7Q125.3 31.8 126.1 31.3Q127.0 30.8 128.1 30.8L128.1 30.8Q128.8 30.8 129.4 31.0Q130.0 31.2 130.4 31.5Q130.9 31.8 131.1 32.3Q131.4 32.8 131.5 33.4L131.5 33.4L129.6 33.7Q129.6 33.4 129.4 33.2Q129.3 33.0 129.1 32.8Q128.9 32.6 128.7 32.5Q128.5 32.4 128.2 32.4L128.2 32.4Q127.6 32.4 127.2 32.7Q126.9 33.0 126.7 33.6Q126.5 34.1 126.5 34.8L126.5 34.8Q126.5 35.4 126.7 36.0Q126.9 36.5 127.2 36.8Q127.6 37.1 128.2 37.1L128.2 37.1Q128.5 37.1 128.7 37.0Q128.9 36.9 129.1 36.7Q129.3 36.6 129.5 36.3Q129.6 36.1 129.6 35.8L129.6 35.8L131.6 36.1Q131.4 36.7 131.2 37.2Q130.9 37.7 130.4 38.0Q130.0 38.4 129.4 38.5Q128.8 38.7 128.1 38.7ZM136.0 38.7L136.0 38.7Q135.1 38.7 134.4 38.4Q133.7 38.2 133.2 37.7Q132.7 37.2 132.6 36.5L132.6 36.5L134.5 36.1Q134.7 36.7 135.1 36.9Q135.4 37.2 136.1 37.2L136.1 37.2Q136.6 37.2 137.0 37.0Q137.3 36.8 137.3 36.4L137.3 36.4Q137.3 36.1 137.1 35.9Q136.8 35.7 136.3 35.6L136.3 35.6L135.0 35.4Q133.9 35.1 133.4 34.6Q132.8 34.1 132.8 33.2L132.8 33.2Q132.8 32.5 133.2 31.9Q133.6 31.4 134.3 31.1Q135.1 30.8 136.0 30.8L136.0 30.8Q136.9 30.8 137.6 31.1Q138.3 31.3 138.7 31.8Q139.1 32.2 139.2 32.9L139.2 32.9L137.4 33.2Q137.3 32.8 136.9 32.5Q136.6 32.3 136.1 32.3L136.1 32.3Q135.6 32.3 135.2 32.5Q134.9 32.7 134.9 33.1L134.9 33.1Q134.9 33.4 135.1 33.6Q135.3 33.8 135.9 33.9L135.9 33.9L137.2 34.1Q138.3 34.4 138.9 34.9Q139.4 35.4 139.4 36.2L139.4 36.2Q139.4 37.0 139.0 37.5Q138.5 38.1 137.8 38.4Q137 38.7 136.0 38.7Z "/><mask id="satori_om-id-1"><rect x="25" y="52" width="340" height="57" fill="#fff"/></mask><mask id="satori_om-id-1-0"><rect x="25" y="52" width="167" height="57" fill="#fff"/></mask><path x="25" y="52" width="167" height="57" fill="#21262D" d="M33,52 h151 a8,8 0 0 1 8,8 v41 a8,8 0 0 1 -8,8 h-151 a8,8 0 0 1 -8,-8 v-41 a8,8 0 0 1 8,-8"/><clipPath id="satori_cp-id-1-0-0"><rect x="37" y="72" width="18" height="18"/></clipPath><mask id="satori_om-id-1-0-0"><rect x="37" y="72" width="18" height="18" fill="#fff"/></mask><image x="37" y="72" width="18" height="18" href="data:image/svg+xml;utf8,%3Csvg  fill=%22%23B186D6%22 xmlns=%22http://www.w3.org/2000/svg%22 width=%2218%22 height=%2218%22 viewBox=%220 0 24 24%22%3E%3Cpath d=%22M12 2l3.09 6.26L22 9.27l-5 4.87L18.18 21 12 17.27 5.82 21 7 14.14 2 9.27l6.91-1.01L12 2z%22%3E%3C/path%3E%3C/svg%3E" preserveAspectRatio="none" clip-path="url(#satori_cp-id-1-0-0)" mask="url(#satori_om-id-1-0-0)"/><mask id="satori_om-id-1-0-0-0"><rect x="37" y="72" width="0" height="18" fill="#fff"/></mask><mask id="satori_om-id-1-0-1"><rect x="65" y="63" width="39" height="35" fill="#fff"/></mask><mask id="satori_om-id-1-0-1-0"><rect x="65" y="63" width="39" height="13" fill="#fff"/></mask><path fill="#656D76" d="M68.5 73.8L68.5 73.8Q67.7 73.8 67.0 73.5Q66.4 73.2 66.0 72.7Q65.7 72.2 65.6 71.6L65.6 71.6L66.7 71.6Q66.7 72.0 67.0 72.3Q67.2 72.6 67.7 72.7Q68.1 72.9 68.5 72.9L68.5 72.9Q69.1 72.9 69.5 72.7Q69.9 72.5 70.2 72.2Q70.4 71.9 70.4 71.5L70.4 71.5Q70.4 71.1 70.2 70.8Q70.0 70.6 69.6 70.4Q69.3 70.3 68.9 70.2L68.9 70.2L67.9 69.9Q66.9 69.6 66.4 69.1Q65.8 68.6 65.8 67.8L65.8 67.8Q65.8 67.1 66.2 66.6Q66.6 66.1 67.2 65.8Q67.8 65.5 68.6 65.5L68.6 65.5Q69.4 65.5 70.0 65.8Q70.6 66.1 71.0 66.6Q71.3 67.1 71.3 67.7L71.3 67.7L70.3 67.7Q70.3 67.1 69.8 66.8Q69.3 66.4 68.6 66.4L68.6 66.4Q68.1 66.4 67.7 66.6Q67.3 66.8 67.1 67.1Q66.8 67.4 66.8 67.7L66.8 67.7Q66.8 68.2 67.1 68.4Q67.4 68.7 67.7 68.8Q68.1 69.0 68.4 69.0L68.4 69.0L69.2 69.3Q69.5 69.3 69.9 69.5Q70.3 69.6 70.6 69.9Q71.0 70.1 71.2 70.5Q71.4 70.9 71.4 71.5L71.4 71.5Q71.4 72.1 71.1 72.7Q70.8 73.2 70.1 73.5Q69.5 73.8 68.5 73.8ZM75.6 66.6L73.1 66.6L73.1 65.7L79.1 65.7L79.1 66.6L76.6 66.6L76.6 73.7L75.6 73.7L75.6 66.6ZM81.5 73.7L80.4 73.7L83.3 65.7L84.5 65.7L87.5 73.7L86.4 73.7L85.6 71.4L82.3 71.4L81.5 73.7ZM82.6 70.5L85.3 70.5L84.7 68.9Q84.5 68.5 84.3 67.8L84.3 67.8Q84.2 67.3 83.9 66.5L83.9 66.5Q83.7 67.3 83.5 67.8L83.5 67.8Q83.3 68.5 83.2 68.9L83.2 68.9L82.6 70.5ZM90.2 73.7L89.2 73.7L89.2 65.7L92.0 65.7Q92.9 65.7 93.5 66.0Q94.1 66.3 94.4 66.9Q94.7 67.4 94.7 68.1Q94.7 68.8 94.4 69.4Q94.1 69.9 93.5 70.2L93.5 70.2Q93.4 70.3 93.2 70.4L93.2 70.4L95.0 73.7L93.8 73.7L92.1 70.5Q92.1 70.6 92.0 70.6L92.0 70.6L90.2 70.6L90.2 73.7ZM90.2 66.6L90.2 69.6L91.9 69.6Q92.5 69.6 92.9 69.5Q93.3 69.3 93.5 68.9Q93.7 68.6 93.7 68.1L93.7 68.1Q93.7 67.6 93.5 67.3Q93.3 66.9 92.9 66.7Q92.5 66.6 91.9 66.6L91.9 66.6L90.2 66.6ZM99.4 73.8L99.4 73.8Q98.5 73.8 97.9 73.5Q97.2 73.2 96.9 72.7Q96.5 72.2 96.4 71.6L96.4 71.6L97.5 71.6Q97.5 72.0 97.8 72.3Q98.1 72.6 98.5 72.7Q98.9 72.9 99.4 72.9L99.4 72.9Q99.9 72.9 100.3 72.7Q100.8 72.5 101.0 72.2Q101.3 71.9 101.3 71.5L101.3 71.5Q101.3 71.1 101.1 70.8Q100.8 70.6 100.5 70.4Q100.1 70.3 99.7 70.2L99.7 70.2L98.7 69.9Q97.7 69.6 97.2 69.1Q96.7 68.6 96.7 67.8L96.7 67.8Q96.7 67.1 97.0 66.6Q97.4 66.1 98.0 65.8Q98.7 65.5 99.4 65.5L99.4 65.5Q100.2 65.5 100.8 65.8Q101.4 66.1 101.8 66.6Q102.1 67.1 102.2 67.7L102.2 67.7L101.2 67.7Q101.1 67.1 100.6 66.8Q100.1 66.4 99.4 66.4L99.4 66.4Q98.9 66.4 98.5 66.6Q98.1 66.8 97.9 67.1Q97.7 67.4 97.7 67.7L97.7 67.7Q97.7 68.2 97.9 68.4Q98.2 68.7 98.5 68.8Q98.9 69.0 99.2 69.0L99.2 69.0L100.0 69.3Q100.3 69.3 100.7 69.5Q101.1 69.6 101.5 69.9Q101.8 70.1 102.0 70.5Q102.3 70.9 102.3 71.5L102.3 71.5Q102.3 72.1 101.9 72.7Q101.6 73.2 100.9 73.5Q100.3 73.8 99.4 73.8Z "/><mask id="satori_om-id-1-0-1-1"><rect x="65" y="76" width="39" height="22" fill="#fff"/></mask><path fill="#E6EDF3" d="M68.7 80.3L71.6 80.3L71.6 93.4L68.9 93.4L68.9 82.7L68.8 82.7L65.8 84.8L65.8 82.4L68.7 80.3ZM83.1 93.4L73.9 93.4L73.9 91.5L78.5 87.2Q79.1 86.6 79.5 86.1Q79.9 85.6 80.1 85.2Q80.3 84.7 80.3 84.2L80.3 84.2Q80.3 83.6 80.1 83.2Q79.8 82.8 79.4 82.5Q78.9 82.3 78.3 82.3L78.3 82.3Q77.7 82.3 77.2 82.6Q76.8 82.8 76.5 83.3Q76.3 83.7 76.3 84.4L76.3 84.4L73.7 84.4Q73.7 83.1 74.3 82.1Q74.9 81.2 75.9 80.7Q77.0 80.2 78.3 80.2L78.3 80.2Q79.7 80.2 80.8 80.7Q81.8 81.2 82.4 82.0Q82.9 82.9 82.9 84.0L82.9 84.0Q82.9 84.8 82.7 85.5Q82.4 86.2 81.6 87.1Q80.9 88.0 79.6 89.2L79.6 89.2L77.6 91.1L77.6 91.2L83.1 91.2L83.1 93.4Z "/><mask id="satori_om-id-1-1"><rect x="198" y="52" width="167" height="57" fill="#fff"/></mask><path x="198" y="52" width="167" height="57" fill="#21262D" d="M206,52 h151 a8,8 0 0 1 8,8 v41 a8,8 0 0 1 -8,8 h-151 a8,8 0 0 1 -8,-8 v-41 a8,8 0 0 1 8,-8"/><clipPath id="satori_cp-id-1-1-0"><rect x="210" y="72" width="18" height="18"/></clipPath><mask id="satori_om-id-1-1-0"><rect x="210" y="72" width="18" height="18" fill="#fff"/></mask><image x="210" y="72" width="18" height="18" href="data:image/svg+xml;utf8,%3Csvg  fill=%22%23B186D6%22 xmlns=%22http://www.w3.org/2000/svg%22 width=%2218%22 height=%2218%22 viewBox=%220 0 24 24%22%3E%3Cpath d=%22M12 2C6.48 2 2 6.48 2 12s4.48 10 10 10 10-4.48 10-10S17.52 2 12 2zm0 14c-2.21 0-4-1.79-4-4s1.79-4 4-4 4 1.79 4 4-1.79 4-4 4z%22%3E%3C/path%3E%3C/svg%3E" preserveAspectRatio="none" clip-path="url(#satori_cp-id-1-1-0)" mask="url(#satori_om-id-1-1-0)"/><mask id="satori_om-id-1-1-0-0"><rect x="210" y="72" width="0" height="18" fill="#fff"/></mask><mask id="satori_om-id-1-1-1"><rect x="238" y="63" width="57" height="35" fill="#fff"/></mask><mask id="satori_om-id-1-1-1-0"><rect x="238" y="63" width="57" height="13" fill="#fff"/></mask><path fill="#656D76" d="M242.2 73.8L242.2 73.8Q241.2 73.8 240.4 73.3Q239.6 72.8 239.1 71.8Q238.7 70.9 238.7 69.7L238.7 69.7Q238.7 68.4 239.1 67.5Q239.6 66.5 240.4 66.0Q241.2 65.5 242.2 65.5L242.2 65.5Q242.8 65.5 243.4 65.7Q243.9 65.9 244.3 66.2Q244.8 66.6 245.0 67.1Q245.3 67.6 245.4 68.2L245.4 68.2L244.4 68.2Q244.3 67.8 244.1 67.4Q243.9 67.1 243.6 66.9Q243.3 66.7 243.0 66.6Q242.6 66.5 242.2 66.5L242.2 66.5Q241.5 66.5 240.9 66.9Q240.3 67.2 240.0 67.9Q239.6 68.6 239.6 69.7L239.6 69.7Q239.6 70.7 240.0 71.4Q240.3 72.1 240.9 72.5Q241.5 72.8 242.2 72.8L242.2 72.8Q242.6 72.8 243.0 72.7Q243.3 72.6 243.6 72.4Q243.9 72.2 244.1 71.9Q244.3 71.5 244.4 71.1L244.4 71.1L245.4 71.1Q245.3 71.7 245.0 72.2Q244.8 72.7 244.3 73.1Q243.9 73.4 243.4 73.6Q242.8 73.8 242.2 73.8ZM250.7 73.8L250.7 73.8Q249.7 73.8 248.9 73.3Q248.1 72.8 247.7 71.8Q247.2 70.9 247.2 69.7L247.2 69.7Q247.2 68.4 247.7 67.5Q248.1 66.5 248.9 66.0Q249.7 65.5 250.7 65.5L250.7 65.5Q251.8 65.5 252.6 66.0Q253.4 66.5 253.8 67.5Q254.3 68.4 254.3 69.7L254.3 69.7Q254.3 70.9 253.8 71.8Q253.4 72.8 252.6 73.3Q251.8 73.8 250.7 73.8ZM250.7 72.8L250.7 72.8Q251.5 72.8 252.0 72.5Q252.6 72.1 253.0 71.4Q253.3 70.7 253.3 69.7L253.3 69.7Q253.3 68.6 253.0 67.9Q252.6 67.2 252.0 66.9Q251.5 66.5 250.7 66.5L250.7 66.5Q250.0 66.5 249.4 66.9Q248.9 67.2 248.5 67.9Q248.2 68.6 248.2 69.7L248.2 69.7Q248.2 70.7 248.5 71.4Q248.9 72.1 249.4 72.5Q250.0 72.8 250.7 72.8ZM257.4 73.7L256.4 73.7L256.4 65.7L257.9 65.7L259.8 70.7Q259.9 70.9 260.0 71.1Q260.1 71.4 260.2 71.7Q260.3 72.0 260.4 72.3L260.4 72.3Q260.4 72.4 260.4 72.5L260.4 72.5Q260.4 72.4 260.5 72.4L260.5 72.4Q260.6 72.1 260.7 71.7Q260.8 71.4 260.9 71.2Q260.9 70.9 261.0 70.7L261.0 70.7L263.0 65.7L264.4 65.7L264.4 73.7L263.4 73.7L263.4 69.1Q263.4 68.8 263.4 68.5Q263.4 68.2 263.4 67.9Q263.4 67.5 263.4 67.1L263.4 67.1Q263.4 66.9 263.4 66.7L263.4 66.7Q263.4 67.0 263.3 67.2L263.3 67.2Q263.2 67.6 263.1 67.9Q262.9 68.3 262.8 68.6Q262.7 68.9 262.6 69.1L262.6 69.1L260.9 73.7L260.0 73.7L258.2 69.1Q258.1 68.9 258.0 68.6Q257.9 68.3 257.8 68.0Q257.6 67.6 257.5 67.2L257.5 67.2Q257.4 67.0 257.3 66.8L257.3 66.8Q257.4 66.9 257.4 67.1L257.4 67.1Q257.4 67.4 257.4 67.8Q257.4 68.2 257.4 68.5Q257.4 68.8 257.4 69.1L257.4 69.1L257.4 73.7ZM267.8 73.7L266.8 73.7L266.8 65.7L268.3 65.7L270.3 70.7Q270.3 70.9 270.4 71.1Q270.5 71.4 270.6 71.7Q270.7 72.0 270.8 72.3L270.8 72.3Q270.8 72.4 270.9 72.5L270.9 72.5Q270.9 72.4 270.9 72.4L270.9 72.4Q271.0 72.1 271.1 71.7Q271.2 71.4 271.3 71.2Q271.4 70.9 271.5 70.7L271.5 70.7L273.4 65.7L274.9 65.7L274.9 73.7L273.8 73.7L273.8 69.1Q273.8 68.8 273.9 68.5Q273.9 68.2 273.9 67.9Q273.9 67.5 273.9 67.1L273.9 67.1Q273.9 66.9 273.9 66.7L273.9 66.7Q273.8 67.0 273.7 67.2L273.7 67.2Q273.6 67.6 273.5 67.9Q273.4 68.3 273.3 68.6Q273.2 68.9 273.1 69.1L273.1 69.1L271.3 73.7L270.4 73.7L268.6 69.1Q268.5 68.9 268.4 68.6Q268.3 68.3 268.2 68.0Q268.1 67.6 267.9 67.2L267.9 67.2Q267.9 67.0 267.8 66.8L267.8 66.8Q267.8 66.9 267.8 67.1L267.8 67.1Q267.8 67.4 267.8 67.8Q267.8 68.2 267.8 68.5Q267.8 68.8 267.8 69.1L267.8 69.1L267.8 73.7ZM277.3 65.7L278.3 65.7L278.3 73.7L277.3 73.7L277.3 65.7ZM282.8 66.6L280.3 66.6L280.3 65.7L286.3 65.7L286.3 66.6L283.8 66.6L283.8 73.7L282.8 73.7L282.8 66.6ZM290.9 73.8L290.9 73.8Q290.0 73.8 289.4 73.5Q288.8 73.2 288.4 72.7Q288.0 72.2 288.0 71.6L288.0 71.6L289.0 71.6Q289.1 72.0 289.4 72.3Q289.6 72.6 290.0 72.7Q290.4 72.9 290.9 72.9L290.9 72.9Q291.4 72.9 291.9 72.7Q292.3 72.5 292.6 72.2Q292.8 71.9 292.8 71.5L292.8 71.5Q292.8 71.1 292.6 70.8Q292.4 70.6 292.0 70.4Q291.7 70.3 291.2 70.2L291.2 70.2L290.3 69.9Q289.3 69.6 288.8 69.1Q288.2 68.6 288.2 67.8L288.2 67.8Q288.2 67.1 288.6 66.6Q289.0 66.1 289.6 65.8Q290.2 65.5 291.0 65.5L291.0 65.5Q291.8 65.5 292.4 65.8Q293.0 66.1 293.3 66.6Q293.7 67.1 293.7 67.7L293.7 67.7L292.7 67.7Q292.6 67.1 292.1 66.8Q291.7 66.4 290.9 66.4L290.9 66.4Q290.4 66.4 290.0 66.6Q289.6 66.8 289.4 67.1Q289.2 67.4 289.2 67.7L289.2 67.7Q289.2 68.2 289.5 68.4Q289.7 68.7 290.1 68.8Q290.5 69.0 290.7 69.0L290.7 69.0L291.5 69.3Q291.9 69.3 292.3 69.5Q292.6 69.6 293.0 69.9Q293.4 70.1 293.6 70.5Q293.8 70.9 293.8 71.5L293.8 71.5Q293.8 72.1 293.5 72.7Q293.1 73.2 292.5 73.5Q291.8 73.8 290.9 73.8Z "/><mask id="satori_om-id-1-1-1-1"><rect x="238" y="76" width="57" height="22" fill="#fff"/></mask><path fill="#E6EDF3" d="M241.7 80.3L244.6 80.3L244.6 93.4L241.9 93.4L241.9 82.7L241.8 82.7L238.8 84.8L238.8 82.4L241.7 80.3ZM251.8 93.6L251.8 93.6Q250.2 93.6 249.0 92.8Q247.8 92.0 247.2 90.5Q246.6 89.0 246.6 86.9L246.6 86.9Q246.6 84.8 247.2 83.3Q247.8 81.8 249.0 81.0Q250.2 80.2 251.8 80.2L251.8 80.2Q253.5 80.2 254.7 81.0Q255.8 81.8 256.4 83.3Q257.1 84.8 257.1 86.9L257.1 86.9Q257.1 89.0 256.5 90.5Q255.8 92.0 254.7 92.8Q253.5 93.6 251.8 93.6ZM251.8 91.4L251.8 91.4Q252.6 91.4 253.2 90.9Q253.8 90.3 254.0 89.3Q254.3 88.3 254.3 86.9L254.3 86.9Q254.3 85.5 254.0 84.4Q253.8 83.4 253.2 82.9Q252.6 82.4 251.8 82.4L251.8 82.4Q251.0 82.4 250.5 82.9Q249.9 83.4 249.6 84.5Q249.3 85.5 249.3 86.9L249.3 86.9Q249.3 88.3 249.6 89.3Q249.9 90.3 250.5 90.9Q251.0 91.4 251.8 91.4ZM265.1 91.1L258.8 91.1L258.8 89.0L264.3 80.3L267.6 80.3L267.6 88.9L269.3 88.9L269.3 91.1L267.6 91.1L267.6 93.4L265.1 93.4L265.1 91.1ZM261.5 88.9L265.1 88.9L265.1 83.3L265 83.3L261.5 88.8L261.5 88.9Z "/><mask id="satori_om-id-2"><rect x="25" y="115" width="340" height="57" fill="#fff"/></mask><mask id="satori_om-id-2-0"><rect x="25" y="115" width="167" height="57" fill="#fff"/></mask><path x="25" y="115" width="167" height="57" fill="#21262D" d="M33,115 h151 a8,8 0 0 1 8,8 v41 a8,8 0 0 1 -8,8 h-151 a8,8 0 0 1 -8,-8 v-41 a8,8 0 0 1 8,-8"/><clipPath id="satori_cp-id-2-0-0"><rect x="37" y="135" width="18" height="18"/></clipPath><mask id="satori_om-id-2-0-0"><rect x="37" y="135" width="18" height="18" fill="#fff"/></mask><image x="37" y="135" width="18" height="18" href="data:image/svg+xml;utf8,%3Csvg  fill=%22%23B186D6%22 xmlns=%22http://www.w3.org/2000/svg%22 width=%2218%22 height=%2218%22 viewBox=%220 0 24 24%22%3E%3Cpath d=%22M7 3a2 2 0 0 0-2 2v9.17a3.001 3.001 0 1 0 2 0V5h4v2.17a3.001 3.001 0 1 0 2 0V5h2v9.17a3.001 3.001 0 1 0 2 0V5a2 2 0 0 0-2-2H7z%22%3E%3C/path%3E%3C/svg%3E" preserveAspectRatio="none" clip-path="url(#satori_cp-id-2-0-0)" mask="url(#satori_om-id-2-0-0)"/><mask id="satori_om-id-2-0-0-0"><rect x="37" y="135" width="0" height="18" fill="#fff"/></mask><mask id="satori_om-id-2-0-1"><rect x="65" y="126" width="23" height="35" fill="#fff"/></mask><mask id="satori_om-id-2-0-1-0"><rect x="65" y="126" width="23" height="13" fill="#fff"/></mask><path fill="#656D76" d="M67.0 136.7L66.0 136.7L66.0 128.7L68.7 128.7Q69.6 128.7 70.2 129.0Q70.8 129.3 71.1 129.9Q71.4 130.5 71.4 131.2Q71.4 131.9 71.1 132.5Q70.8 133.1 70.2 133.4Q69.6 133.8 68.7 133.8L68.7 133.8L67.0 133.8L67.0 136.7ZM67.0 129.6L67.0 132.9L68.7 132.9Q69.3 132.9 69.7 132.6Q70.1 132.4 70.2 132.1Q70.4 131.7 70.4 131.2Q70.4 130.7 70.2 130.4Q70.1 130.0 69.7 129.8Q69.3 129.6 68.7 129.6L68.7 129.6L67.0 129.6ZM74.5 136.7L73.5 136.7L73.5 128.7L76.2 128.7Q77.2 128.7 77.8 129.0Q78.4 129.3 78.7 129.9Q79.0 130.4 79.0 131.1Q79.0 131.8 78.7 132.4Q78.4 132.9 77.8 133.2L77.8 133.2Q77.6 133.3 77.5 133.4L77.5 133.4L79.3 136.7L78.1 136.7L76.4 133.5Q76.3 133.6 76.2 133.6L76.2 133.6L74.5 133.6L74.5 136.7ZM74.5 129.6L74.5 132.6L76.2 132.6Q76.8 132.6 77.2 132.5Q77.6 132.3 77.8 131.9Q77.9 131.6 77.9 131.1L77.9 131.1Q77.9 130.6 77.8 130.3Q77.6 129.9 77.2 129.7Q76.8 129.6 76.2 129.6L76.2 129.6L74.5 129.6ZM83.6 136.8L83.6 136.8Q82.8 136.8 82.1 136.5Q81.5 136.2 81.1 135.7Q80.8 135.2 80.7 134.6L80.7 134.6L81.8 134.6Q81.8 135.0 82.1 135.3Q82.3 135.6 82.8 135.7Q83.2 135.9 83.6 135.9L83.6 135.9Q84.2 135.9 84.6 135.7Q85.0 135.5 85.3 135.2Q85.5 134.9 85.5 134.5L85.5 134.5Q85.5 134.1 85.3 133.8Q85.1 133.6 84.8 133.4Q84.4 133.3 84.0 133.2L84.0 133.2L83.0 132.9Q82.0 132.6 81.5 132.1Q81.0 131.6 81.0 130.8L81.0 130.8Q81.0 130.1 81.3 129.6Q81.7 129.1 82.3 128.8Q82.9 128.5 83.7 128.5L83.7 128.5Q84.5 128.5 85.1 128.8Q85.7 129.1 86.1 129.6Q86.4 130.1 86.4 130.7L86.4 130.7L85.4 130.7Q85.4 130.1 84.9 129.8Q84.4 129.4 83.7 129.4L83.7 129.4Q83.2 129.4 82.8 129.6Q82.4 129.8 82.2 130.1Q81.9 130.4 81.9 130.7L81.9 130.7Q81.9 131.2 82.2 131.4Q82.5 131.7 82.8 131.8Q83.2 132.0 83.5 132.0L83.5 132.0L84.3 132.3Q84.6 132.3 85.0 132.5Q85.4 132.6 85.7 132.9Q86.1 133.1 86.3 133.5Q86.5 133.9 86.5 134.5L86.5 134.5Q86.5 135.1 86.2 135.7Q85.9 136.2 85.2 136.5Q84.6 136.8 83.6 136.8Z "/><mask id="satori_om-id-2-0-1-1"><rect x="65" y="139" width="23" height="22" fill="#fff"/></mask><path fill="#E6EDF3" d="M70.6 156.6L70.6 156.6Q69.3 156.6 68.3 156.1Q67.3 155.6 66.7 154.7Q66.1 153.9 66.0 152.8L66.0 152.8L68.6 152.8Q68.8 153.5 69.3 153.9Q69.8 154.3 70.6 154.3L70.6 154.3Q71.5 154.3 72.0 153.8Q72.6 153.3 72.9 152.3Q73.2 151.4 73.2 150.1L73.2 150.1L73.2 150.1Q72.9 150.7 72.4 151.1Q71.9 151.5 71.2 151.7Q70.6 151.9 69.9 151.9L69.9 151.9Q68.7 151.9 67.8 151.4Q66.9 150.9 66.3 149.9Q65.8 148.9 65.8 147.7L65.8 147.7Q65.8 146.4 66.4 145.4Q67.1 144.3 68.2 143.7Q69.3 143.1 70.7 143.1L70.7 143.1Q71.7 143.1 72.6 143.5Q73.5 143.8 74.3 144.6Q75.0 145.3 75.4 146.5Q75.9 147.8 75.9 149.6L75.9 149.6Q75.9 151.2 75.5 152.5Q75.1 153.8 74.4 154.8Q73.7 155.7 72.8 156.2Q71.8 156.6 70.6 156.6ZM70.7 150.0L70.7 150.0Q71.2 150.0 71.6 149.8Q72.0 149.6 72.3 149.3Q72.6 149.0 72.8 148.5Q73.0 148.1 73.0 147.6L73.0 147.6Q73.0 147.0 72.7 146.5Q72.4 145.9 71.9 145.6Q71.4 145.3 70.7 145.3L70.7 145.3Q70.1 145.3 69.5 145.6Q69.0 145.9 68.7 146.4Q68.4 147.0 68.4 147.6L68.4 147.6Q68.4 148.3 68.7 148.8Q69.0 149.4 69.5 149.7Q70.0 150.0 70.7 150.0Z "/><mask id="satori_om-id-2-1"><rect x="198" y="115" width="167" height="57" fill="#fff"/></mask><path x="198" y="115" width="167" height="57" fill="#21262D" d="M206,115 h151 a8,8 0 0 1 8,8 v41 a8,8 0 0 1 -8,8 h-151 a8,8 0 0 1 -8,-8 v-41 a8,8 0 0 1 8,-8"/><clipPath id="satori_cp-id-2-1-0"><rect x="210" y="135" width="18" height="18"/></clipPath><mask id="satori_om-id-2-1-0"><rect x="210" y="135" width="18" height="18" fill="#fff"/></mask><image x="210" y="135" width="18" height="18" href="data:image/svg+xml;utf8,%3Csvg  fill=%22%23B186D6%22 xmlns=%22http://www.w3.org/2000/svg%22 width=%2218%22 height=%2218%22 viewBox=%220 0 24 24%22%3E%3Cpath d=%22M12 2C6.48 2 2 6.48 2 12s4.48 10 10 10 10-4.48 10-10S17.52 2 12 2zm1 15h-2v-2h2v2zm0-4h-2V7h2v6z%22%3E%3C/path%3E%3C/svg%3E" preserveAspectRatio="none" clip-path="url(#satori_cp-id-2-1-0)" mask="url(#satori_om-id-2-1-0)"/><mask id="satori_om-id-2-1-0-0"><rect x="210" y="135" width="0" height="18" fill="#fff"/></mask><mask id="satori_om-id-2-1-1"><rect x="238" y="126" width="42" height="35" fill="#fff"/></mask><mask id="satori_om-id-2-1-1-0"><rect x="238" y="126" width="42" height="13" fill="#fff"/></mask><path fill="#656D76" d="M239.0 128.7L240.0 128.7L240.0 136.7L239.0 136.7L239.0 128.7ZM245.0 136.8L245.0 136.8Q244.1 136.8 243.5 136.5Q242.8 136.2 242.5 135.7Q242.1 135.2 242.1 134.6L242.1 134.6L243.1 134.6Q243.2 135.0 243.4 135.3Q243.7 135.6 244.1 135.7Q244.5 135.9 245.0 135.9L245.0 135.9Q245.5 135.9 246.0 135.7Q246.4 135.5 246.6 135.2Q246.9 134.9 246.9 134.5L246.9 134.5Q246.9 134.1 246.7 133.8Q246.5 133.6 246.1 133.4Q245.7 133.3 245.3 133.2L245.3 133.2L244.3 132.9Q243.4 132.6 242.8 132.1Q242.3 131.6 242.3 130.8L242.3 130.8Q242.3 130.1 242.7 129.6Q243.0 129.1 243.7 128.8Q244.3 128.5 245.1 128.5L245.1 128.5Q245.8 128.5 246.4 128.8Q247.1 129.1 247.4 129.6Q247.8 130.1 247.8 130.7L247.8 130.7L246.8 130.7Q246.7 130.1 246.2 129.8Q245.7 129.4 245.0 129.4L245.0 129.4Q244.5 129.4 244.1 129.6Q243.7 129.8 243.5 130.1Q243.3 130.4 243.3 130.7L243.3 130.7Q243.3 131.2 243.6 131.4Q243.8 131.7 244.2 131.8Q244.5 132.0 244.8 132.0L244.8 132.0L245.6 132.3Q245.9 132.3 246.3 132.5Q246.7 132.6 247.1 132.9Q247.4 133.1 247.7 133.5Q247.9 133.9 247.9 134.5L247.9 134.5Q247.9 135.1 247.5 135.7Q247.2 136.2 246.6 136.5Q245.9 136.8 245.0 136.8ZM252.5 136.8L252.5 136.8Q251.7 136.8 251.0 136.5Q250.4 136.2 250.0 135.7Q249.7 135.2 249.6 134.6L249.6 134.6L250.7 134.6Q250.7 135.0 251.0 135.3Q251.3 135.6 251.7 135.7Q252.1 135.9 252.5 135.9L252.5 135.9Q253.1 135.9 253.5 135.7Q253.9 135.5 254.2 135.2Q254.5 134.9 254.5 134.5L254.5 134.5Q254.5 134.1 254.2 133.8Q254.0 133.6 253.7 133.4Q253.3 133.3 252.9 133.2L252.9 133.2L251.9 132.9Q250.9 132.6 250.4 132.1Q249.9 131.6 249.9 130.8L249.9 130.8Q249.9 130.1 250.2 129.6Q250.6 129.1 251.2 128.8Q251.8 128.5 252.6 128.5L252.6 128.5Q253.4 128.5 254.0 128.8Q254.6 129.1 255.0 129.6Q255.3 130.1 255.3 130.7L255.3 130.7L254.3 130.7Q254.3 130.1 253.8 129.8Q253.3 129.4 252.6 129.4L252.6 129.4Q252.1 129.4 251.7 129.6Q251.3 129.8 251.1 130.1Q250.9 130.4 250.9 130.7L250.9 130.7Q250.9 131.2 251.1 131.4Q251.4 131.7 251.7 131.8Q252.1 132.0 252.4 132.0L252.4 132.0L253.2 132.3Q253.5 132.3 253.9 132.5Q254.3 132.6 254.6 132.9Q255.0 133.1 255.2 133.5Q255.4 133.9 255.4 134.5L255.4 134.5Q255.4 135.1 255.1 135.7Q254.8 136.2 254.1 136.5Q253.5 136.8 252.5 136.8ZM260.7 136.8L260.7 136.8Q259.7 136.8 259.0 136.4Q258.3 136.0 257.9 135.4Q257.5 134.8 257.5 133.9L257.5 133.9L257.5 128.7L258.6 128.7L258.6 133.9Q258.6 134.4 258.8 134.9Q259.1 135.3 259.5 135.6Q260.0 135.8 260.7 135.8L260.7 135.8Q261.3 135.8 261.8 135.6Q262.3 135.3 262.5 134.9Q262.8 134.4 262.8 133.9L262.8 133.9L262.8 128.7L263.8 128.7L263.8 133.9Q263.8 134.8 263.4 135.4Q263.0 136.0 262.3 136.4Q261.6 136.8 260.7 136.8ZM271.1 136.7L266.2 136.7L266.2 128.7L271.1 128.7L271.1 129.6L267.2 129.6L267.2 132.2L270.8 132.2L270.8 133.1L267.2 133.1L267.2 135.8L271.1 135.8L271.1 136.7ZM275.9 136.8L275.9 136.8Q275.0 136.8 274.4 136.5Q273.8 136.2 273.4 135.7Q273.0 135.2 273.0 134.6L273.0 134.6L274.0 134.6Q274.1 135.0 274.3 135.3Q274.6 135.6 275.0 135.7Q275.4 135.9 275.9 135.9L275.9 135.9Q276.4 135.9 276.9 135.7Q277.3 135.5 277.6 135.2Q277.8 134.9 277.8 134.5L277.8 134.5Q277.8 134.1 277.6 133.8Q277.4 133.6 277.0 133.4Q276.7 133.3 276.2 133.2L276.2 133.2L275.3 132.9Q274.3 132.6 273.8 132.1Q273.2 131.6 273.2 130.8L273.2 130.8Q273.2 130.1 273.6 129.6Q273.9 129.1 274.6 128.8Q275.2 128.5 276.0 128.5L276.0 128.5Q276.8 128.5 277.4 128.8Q278.0 129.1 278.3 129.6Q278.7 130.1 278.7 130.7L278.7 130.7L277.7 130.7Q277.6 130.1 277.1 129.8Q276.6 129.4 275.9 129.4L275.9 129.4Q275.4 129.4 275.0 129.6Q274.6 129.8 274.4 130.1Q274.2 130.4 274.2 130.7L274.2 130.7Q274.2 131.2 274.5 131.4Q274.7 131.7 275.1 131.8Q275.4 132.0 275.7 132.0L275.7 132.0L276.5 132.3Q276.9 132.3 277.2 132.5Q277.6 132.6 278.0 132.9Q278.3 133.1 278.6 133.5Q278.8 133.9 278.8 134.5L278.8 134.5Q278.8 135.1 278.5 135.7Q278.1 136.2 277.5 136.5Q276.8 136.8 275.9 136.8Z "/><mask id="satori_om-id-2-1-1-1"><rect x="238" y="139" width="42" height="22" fill="#fff"/></mask><path fill="#E6EDF3" d="M244.1 156.6L244.1 156.6Q242.4 156.6 241.2 155.8Q240.1 155.0 239.5 153.5Q238.8 152.0 238.8 149.9L238.8 149.9Q238.8 147.8 239.5 146.3Q240.1 144.8 241.2 144.0Q242.4 143.2 244.1 143.2L244.1 143.2Q245.7 143.2 246.9 144.0Q248.1 144.8 248.7 146.3Q249.3 147.8 249.3 149.9L249.3 149.9Q249.3 152.0 248.7 153.5Q248.1 155.0 246.9 155.8Q245.7 156.6 244.1 156.6ZM244.1 154.4L244.1 154.4Q244.9 154.4 245.4 153.9Q246.0 153.3 246.3 152.3Q246.6 151.3 246.6 149.9L246.6 149.9Q246.6 148.5 246.3 147.4Q246.0 146.4 245.4 145.9Q244.9 145.4 244.1 145.4L244.1 145.4Q243.3 145.4 242.7 145.9Q242.1 146.4 241.8 147.5Q241.6 148.5 241.6 149.9L241.6 149.9Q241.6 151.3 241.8 152.3Q242.1 153.3 242.7 153.9Q243.3 154.4 244.1 154.4Z "/><mask id="satori_om-id-3"><rect x="25" y="178" width="340" height="57" fill="#fff"/></mask><mask id="satori_om-id-3-0"><rect x="25" y="178" width="167" height="57" fill="#fff"/></mask><path x="25" y="178" width="167" height="57" fill="#21262D" d="M33,178 h151 a8,8 0 0 1 8,8 v41 a8,8 0 0 1 -8,8 h-151 a8,8 0 0 1 -8,-8 v-41 a8,8 0 0 1 8,-8"/><clipPath id="satori_cp-id-3-0-0"><rect x="37" y="198" width="18" height="18"/></clipPath><mask id="satori_om-id-3-0-0"><rect x="37" y="198" width="18" height="18" fill="#fff"/></mask><image x="37" y="198" width="18" height="18" href="data:image/svg+xml;utf8,%3Csvg  fill=%22%23B186D6%22 xmlns=%22http://www.w3.org/2000/svg%22 width=%2218%22 height=%2218%22 viewBox=%220 0 24 24%22%3E%3Cpath d=%22M3 2.75A2.75 2.75 0 015.75 0h14.5a.75.75 0 01.75.75v20.5a.75.75 0 01-.75.75h-6a.75.75 0 010-1.5h5.25v-4H6A1.5 1.5 0 004.5 18v.75c0 .716.43 1.334 1.05 1.605a.75.75 0 01-.6 1.374A3.25 3.25 0 013 18.75V2.75z%22%3E%3C/path%3E%3C/svg%3E" preserveAspectRatio="none" clip-path="url(#satori_cp-id-3-0-0)" mask="url(#satori_om-id-3-0-0)"/><mask id="satori_om-id-3-0-0-0"><rect x="37" y="198" width="0" height="18" fill="#fff"/></mask><mask id="satori_om-id-3-0-1"><rect x="65" y="189" width="39" height="35" fill="#fff"/></mask><mask id="satori_om-id-3-0-1-0"><rect x="65" y="189" width="39" height="13" fill="#fff"/></mask><path fill="#656D76" d="M67.0 199.7L66.0 199.7L66.0 191.7L68.7 191.7Q69.6 191.7 70.2 192.0Q70.8 192.3 71.1 192.9Q71.4 193.4 71.4 194.1Q71.4 194.8 71.1 195.4Q70.8 195.9 70.2 196.2L70.2 196.2Q70.1 196.3 70.0 196.4L70.0 196.4L71.7 199.7L70.6 199.7L68.9 196.5Q68.8 196.6 68.7 196.6L68.7 196.6L67.0 196.6L67.0 199.7ZM67.0 192.6L67.0 195.6L68.7 195.6Q69.3 195.6 69.7 195.5Q70.1 195.3 70.2 194.9Q70.4 194.6 70.4 194.1L70.4 194.1Q70.4 193.6 70.2 193.3Q70.1 192.9 69.7 192.7Q69.3 192.6 68.7 192.6L68.7 192.6L67.0 192.6ZM78.5 199.7L73.5 199.7L73.5 191.7L78.4 191.7L78.4 192.6L74.6 192.6L74.6 195.2L78.2 195.2L78.2 196.1L74.6 196.1L74.6 198.8L78.5 198.8L78.5 199.7ZM81.7 199.7L80.7 199.7L80.7 191.7L83.4 191.7Q84.3 191.7 84.9 192.0Q85.5 192.3 85.8 192.9Q86.1 193.5 86.1 194.2Q86.1 194.9 85.8 195.5Q85.5 196.1 84.9 196.4Q84.3 196.8 83.4 196.8L83.4 196.8L81.7 196.8L81.7 199.7ZM81.7 192.6L81.7 195.9L83.4 195.9Q84.0 195.9 84.4 195.6Q84.8 195.4 84.9 195.1Q85.1 194.7 85.1 194.2Q85.1 193.7 84.9 193.4Q84.8 193.0 84.4 192.8Q84.0 192.6 83.3 192.6L83.3 192.6L81.7 192.6ZM91.4 199.8L91.4 199.8Q90.4 199.8 89.6 199.3Q88.8 198.8 88.3 197.8Q87.9 196.9 87.9 195.7L87.9 195.7Q87.9 194.4 88.3 193.5Q88.8 192.5 89.6 192.0Q90.4 191.5 91.4 191.5L91.4 191.5Q92.5 191.5 93.3 192.0Q94.1 192.5 94.5 193.5Q95.0 194.4 95.0 195.7L95.0 195.7Q95.0 196.9 94.5 197.8Q94.1 198.8 93.3 199.3Q92.5 199.8 91.4 199.8ZM91.4 198.8L91.4 198.8Q92.1 198.8 92.7 198.5Q93.3 198.1 93.6 197.4Q94.0 196.7 94.0 195.7L94.0 195.7Q94.0 194.6 93.6 193.9Q93.3 193.2 92.7 192.9Q92.1 192.5 91.4 192.5L91.4 192.5Q90.7 192.5 90.1 192.9Q89.5 193.2 89.2 193.9Q88.9 194.6 88.9 195.7L88.9 195.7Q88.9 196.7 89.2 197.4Q89.5 198.1 90.1 198.5Q90.7 198.8 91.4 198.8ZM99.7 199.8L99.7 199.8Q98.8 199.8 98.2 199.5Q97.5 199.2 97.2 198.7Q96.8 198.2 96.8 197.6L96.8 197.6L97.8 197.6Q97.8 198.0 98.1 198.3Q98.4 198.6 98.8 198.7Q99.2 198.9 99.7 198.9L99.7 198.9Q100.2 198.9 100.6 198.7Q101.1 198.5 101.3 198.2Q101.6 197.9 101.6 197.5L101.6 197.5Q101.6 197.1 101.4 196.8Q101.1 196.6 100.8 196.4Q100.4 196.3 100.0 196.2L100.0 196.2L99.0 195.9Q98.1 195.6 97.5 195.1Q97.0 194.6 97.0 193.8L97.0 193.8Q97.0 193.1 97.3 192.6Q97.7 192.1 98.3 191.8Q99.0 191.5 99.7 191.5L99.7 191.5Q100.5 191.5 101.1 191.8Q101.7 192.1 102.1 192.6Q102.4 193.1 102.5 193.7L102.5 193.7L101.5 193.7Q101.4 193.1 100.9 192.8Q100.4 192.4 99.7 192.4L99.7 192.4Q99.2 192.4 98.8 192.6Q98.4 192.8 98.2 193.1Q98.0 193.4 98.0 193.7L98.0 193.7Q98.0 194.2 98.2 194.4Q98.5 194.7 98.8 194.8Q99.2 195.0 99.5 195.0L99.5 195.0L100.3 195.3Q100.6 195.3 101.0 195.5Q101.4 195.6 101.8 195.9Q102.1 196.1 102.3 196.5Q102.6 196.9 102.6 197.5L102.6 197.5Q102.6 198.1 102.2 198.7Q101.9 199.2 101.2 199.5Q100.6 199.8 99.7 199.8Z "/><mask id="satori_om-id-3-0-1-1"><rect x="65" y="202" width="39" height="22" fill="#fff"/></mask><path fill="#E6EDF3" d="M70.9 219.6L70.9 219.6Q69.4 219.6 68.3 219.1Q67.1 218.6 66.5 217.8Q65.8 217.0 65.8 215.9L65.8 215.9Q65.8 215.1 66.2 214.4Q66.6 213.7 67.2 213.3Q67.8 212.8 68.6 212.7L68.6 212.7L68.6 212.6Q67.6 212.4 67.0 211.6Q66.3 210.8 66.3 209.7L66.3 209.7Q66.3 208.7 66.9 207.9Q67.5 207.1 68.5 206.6Q69.5 206.2 70.9 206.2L70.9 206.2Q72.2 206.2 73.2 206.6Q74.2 207.1 74.8 207.9Q75.4 208.7 75.4 209.7L75.4 209.7Q75.4 210.8 74.8 211.6Q74.1 212.4 73.1 212.6L73.1 212.6L73.1 212.7Q73.9 212.8 74.5 213.3Q75.1 213.7 75.5 214.4Q75.9 215.1 75.9 215.9L75.9 215.9Q75.9 217.0 75.2 217.8Q74.6 218.6 73.5 219.1Q72.3 219.6 70.9 219.6ZM70.9 217.6L70.9 217.6Q71.5 217.6 72.0 217.4Q72.5 217.1 72.8 216.7Q73.1 216.3 73.1 215.7L73.1 215.7Q73.1 215.1 72.8 214.7Q72.5 214.2 72.0 214.0Q71.5 213.7 70.9 213.7L70.9 213.7Q70.2 213.7 69.7 214.0Q69.2 214.2 68.9 214.7Q68.6 215.1 68.6 215.7L68.6 215.7Q68.6 216.3 68.9 216.7Q69.2 217.1 69.7 217.4Q70.2 217.6 70.9 217.6ZM70.9 211.8L70.9 211.8Q71.4 211.8 71.9 211.5Q72.3 211.3 72.5 210.9Q72.8 210.5 72.8 210.0L72.8 210.0Q72.8 209.4 72.5 209.0Q72.3 208.7 71.9 208.4Q71.4 208.2 70.9 208.2L70.9 208.2Q70.3 208.2 69.8 208.4Q69.4 208.7 69.2 209.0Q68.9 209.4 68.9 210.0L68.9 210.0Q68.9 210.5 69.2 210.9Q69.4 211.3 69.9 211.5Q70.3 211.8 70.9 211.8ZM82.8 219.6L82.8 219.6Q81.1 219.6 80.0 218.8Q78.8 218.0 78.2 216.5Q77.5 215.0 77.5 212.9L77.5 212.9Q77.5 210.8 78.2 209.3Q78.8 207.8 80.0 207.0Q81.1 206.2 82.8 206.2L82.8 206.2Q84.4 206.2 85.6 207.0Q86.8 207.8 87.4 209.3Q88.0 210.8 88.0 212.9L88.0 212.9Q88.0 215.0 87.4 216.5Q86.8 218.0 85.6 218.8Q84.4 219.6 82.8 219.6ZM82.8 217.4L82.8 217.4Q83.6 217.4 84.1 216.9Q84.7 216.3 85.0 215.3Q85.3 214.3 85.3 212.9L85.3 212.9Q85.3 211.5 85.0 210.4Q84.7 209.4 84.1 208.9Q83.6 208.4 82.8 208.4L82.8 208.4Q82.0 208.4 81.4 208.9Q80.9 209.4 80.6 210.5Q80.3 211.5 80.3 212.9L80.3 212.9Q80.3 214.3 80.6 215.3Q80.9 216.3 81.4 216.9Q82.0 217.4 82.8 217.4Z "/><mask id="satori_om-id-3-1"><rect x="198" y="178" width="167" height="57" fill="#fff"/></mask><path x="198" y="178" width="167" height="57" fill="#21262D" d="M206,178 h151 a8,8 0 0 1 8,8 v41 a8,8 0 0 1 -8,8 h-151 a8,8 0 0 1 -8,-8 v-41 a8,8 0 0 1 8,-8"/><clipPath id="satori_cp-id-3-1-0"><rect x="210" y="198" width="18" height="18"/></clipPath><mask id="satori_om-id-3-1-0"><rect x="210" y="198" width="18" height="18" fill="#fff"/></mask><image x="210" y="198" width="18" height="18" href="data:image/svg+xml;utf8,%3Csvg  fill=%22%23B186D6%22 xmlns=%22http://www.w3.org/2000/svg%22 width=%2218%22 height=%2218%22 viewBox=%220 0 24 24%22%3E%3Cpath d=%22M12 12c2.21 0 4-1.79 4-4s-1.79-4-4-4-4 1.79-4 4 1.79 4 4 4zm0 2c-2.67 0-8 1.34-8 4v2h16v-2c0-2.66-5.33-4-8-4z%22%3E%3C/path%3E%3C/svg%3E" preserveAspectRatio="none" clip-path="url(#satori_cp-id-3-1-0)" mask="url(#satori_om-id-3-1-0)"/><mask id="satori_om-id-3-1-0-0"><rect x="210" y="198" width="0" height="18" fill="#fff"/></mask><mask id="satori_om-id-3-1-1"><rect x="238" y="189" width="72" height="35" fill="#fff"/></mask><mask id="satori_om-id-3-1-1-0"><rect x="238" y="189" width="72" height="13" fill="#fff"/></mask><path fill="#656D76" d="M240.0 199.7L239.0 199.7L239.0 191.7L243.8 191.7L243.8 192.6L240.0 192.6L240.0 195.3L243.4 195.3L243.4 196.2L240.0 196.2L240.0 199.7ZM249.2 199.8L249.2 199.8Q248.2 199.8 247.4 199.3Q246.6 198.8 246.1 197.8Q245.6 196.9 245.6 195.7L245.6 195.7Q245.6 194.4 246.1 193.5Q246.6 192.5 247.4 192.0Q248.2 191.5 249.2 191.5L249.2 191.5Q250.2 191.5 251.0 192.0Q251.8 192.5 252.3 193.5Q252.7 194.4 252.7 195.7L252.7 195.7Q252.7 196.9 252.3 197.8Q251.8 198.8 251.0 199.3Q250.2 199.8 249.2 199.8ZM249.2 198.8L249.2 198.8Q249.9 198.8 250.5 198.5Q251.1 198.1 251.4 197.4Q251.8 196.7 251.8 195.7L251.8 195.7Q251.8 194.6 251.4 193.9Q251.1 193.2 250.5 192.9Q249.9 192.5 249.2 192.5L249.2 192.5Q248.5 192.5 247.9 192.9Q247.3 193.2 247.0 193.9Q246.6 194.6 246.6 195.7L246.6 195.7Q246.6 196.7 247.0 197.4Q247.3 198.1 247.9 198.5Q248.5 198.8 249.2 198.8ZM259.6 199.7L254.9 199.7L254.9 191.7L255.9 191.7L255.9 198.8L259.6 198.8L259.6 199.7ZM266.3 199.7L261.6 199.7L261.6 191.7L262.6 191.7L262.6 198.8L266.3 198.8L266.3 199.7ZM271.6 199.8L271.6 199.8Q270.5 199.8 269.7 199.3Q268.9 198.8 268.5 197.8Q268.0 196.9 268.0 195.7L268.0 195.7Q268.0 194.4 268.5 193.5Q268.9 192.5 269.7 192.0Q270.5 191.5 271.6 191.5L271.6 191.5Q272.6 191.5 273.4 192.0Q274.2 192.5 274.6 193.5Q275.1 194.4 275.1 195.7L275.1 195.7Q275.1 196.9 274.6 197.8Q274.2 198.8 273.4 199.3Q272.6 199.8 271.6 199.8ZM271.6 198.8L271.6 198.8Q272.3 198.8 272.8 198.5Q273.4 198.1 273.8 197.4Q274.1 196.7 274.1 195.7L274.1 195.7Q274.1 194.6 273.8 193.9Q273.4 193.2 272.8 192.9Q272.3 192.5 271.6 192.5L271.6 192.5Q270.8 192.5 270.3 192.9Q269.7 193.2 269.3 193.9Q269.0 194.6 269.0 195.7L269.0 195.7Q269.0 196.7 269.3 197.4Q269.7 198.1 270.3 198.5Q270.8 198.8 271.6 198.8ZM279.9 199.7L278.7 199.7L276.5 191.7L277.6 191.7L278.8 196.6Q278.9 197.0 279.0 197.4Q279.1 197.8 279.2 198.2L279.2 198.2Q279.3 198.4 279.3 198.7L279.3 198.7Q279.4 198.4 279.4 198.2L279.4 198.2Q279.5 197.8 279.6 197.4Q279.7 197.0 279.8 196.6L279.8 196.6L281.1 191.7L282.3 191.7L283.5 196.6Q283.6 197.0 283.7 197.4Q283.8 197.8 283.9 198.2L283.9 198.2Q284.0 198.4 284.0 198.7L284.0 198.7Q284.1 198.4 284.1 198.2L284.1 198.2Q284.2 197.8 284.3 197.4Q284.4 197.0 284.5 196.6L284.5 196.6L285.8 191.7L286.8 191.7L284.6 199.7L283.4 199.7L282.1 194.6Q281.9 194.1 281.8 193.5L281.8 193.5Q281.7 193.2 281.7 192.8L281.7 192.8Q281.6 193.1 281.5 193.4L281.5 193.4Q281.4 194.0 281.3 194.6L281.3 194.6L279.9 199.7ZM293.5 199.7L288.6 199.7L288.6 191.7L293.4 191.7L293.4 192.6L289.6 192.6L289.6 195.2L293.2 195.2L293.2 196.1L289.6 196.1L289.6 198.8L293.5 198.8L293.5 199.7ZM296.7 199.7L295.7 199.7L295.7 191.7L298.4 191.7Q299.3 191.7 300.0 192.0Q300.6 192.3 300.8 192.9Q301.1 193.4 301.1 194.1Q301.1 194.8 300.8 195.4Q300.6 195.9 300.0 196.2L300.0 196.2Q299.8 196.3 299.7 196.4L299.7 196.4L301.5 199.7L300.3 199.7L298.6 196.5Q298.5 196.6 298.4 196.6L298.4 196.6L296.7 196.6L296.7 199.7ZM296.7 192.6L296.7 195.6L298.4 195.6Q299.0 195.6 299.4 195.5Q299.8 195.3 299.9 194.9Q300.1 194.6 300.1 194.1L300.1 194.1Q300.1 193.6 299.9 193.3Q299.8 192.9 299.4 192.7Q299.0 192.6 298.4 192.6L298.4 192.6L296.7 192.6ZM305.8 199.8L305.8 199.8Q304.9 199.8 304.3 199.5Q303.7 199.2 303.3 198.7Q303.0 198.2 302.9 197.6L302.9 197.6L304.0 197.6Q304.0 198.0 304.3 198.3Q304.5 198.6 304.9 198.7Q305.3 198.9 305.8 198.9L305.8 198.9Q306.4 198.9 306.8 198.7Q307.2 198.5 307.5 198.2Q307.7 197.9 307.7 197.5L307.7 197.5Q307.7 197.1 307.5 196.8Q307.3 196.6 306.9 196.4Q306.6 196.3 306.1 196.2L306.1 196.2L305.2 195.9Q304.2 195.6 303.7 195.1Q303.1 194.6 303.1 193.8L303.1 193.8Q303.1 193.1 303.5 192.6Q303.9 192.1 304.5 191.8Q305.1 191.5 305.9 191.5L305.9 191.5Q306.7 191.5 307.3 191.8Q307.9 192.1 308.2 192.6Q308.6 193.1 308.6 193.7L308.6 193.7L307.6 193.7Q307.5 193.1 307.1 192.8Q306.6 192.4 305.9 192.4L305.9 192.4Q305.3 192.4 304.9 192.6Q304.6 192.8 304.3 193.1Q304.1 193.4 304.1 193.7L304.1 193.7Q304.1 194.2 304.4 194.4Q304.6 194.7 305.0 194.8Q305.4 195.0 305.7 195.0L305.7 195.0L306.5 195.3Q306.8 195.3 307.2 195.5Q307.6 195.6 307.9 195.9Q308.3 196.1 308.5 196.5Q308.7 196.9 308.7 197.5L308.7 197.5Q308.7 198.1 308.4 198.7Q308.0 199.2 307.4 199.5Q306.7 199.8 305.8 199.8Z "/><mask id="satori_om-id-3-1-1-1"><rect x="238" y="202" width="72" height="22" fill="#fff"/></mask><path fill="#E6EDF3" d="M244.0 219.6L244.0 219.6Q243.0 219.6 242.1 219.3Q241.2 218.9 240.4 218.2Q239.7 217.5 239.3 216.2Q238.8 215.0 238.8 213.2L238.8 213.2Q238.8 211.5 239.2 210.2Q239.6 208.9 240.3 208.0Q241.0 207.1 241.9 206.6Q242.9 206.2 244.1 206.2L244.1 206.2Q245.4 206.2 246.4 206.7Q247.4 207.2 248.0 208.0Q248.6 208.9 248.7 210.0L248.7 210.0L246.1 210.0Q245.9 209.3 245.4 208.9Q244.9 208.5 244.1 208.5L244.1 208.5Q243.2 208.5 242.7 209.0Q242.1 209.5 241.8 210.4Q241.5 211.4 241.5 212.7L241.5 212.7L241.6 212.7Q241.8 212.1 242.3 211.7Q242.8 211.3 243.5 211.0Q244.1 210.8 244.8 210.8L244.8 210.8Q246.0 210.8 246.9 211.4Q247.8 211.9 248.3 212.9Q248.9 213.8 248.9 215.1L248.9 215.1Q248.9 216.4 248.3 217.4Q247.6 218.4 246.6 219.0Q245.5 219.6 244.0 219.6ZM244.0 217.5L244.0 217.5Q244.6 217.5 245.2 217.2Q245.7 216.9 246.0 216.3Q246.3 215.8 246.3 215.1L246.3 215.1Q246.3 214.5 246.0 213.9Q245.7 213.4 245.2 213.1Q244.7 212.8 244.0 212.8L244.0 212.8Q243.5 212.8 243.1 213.0Q242.7 213.2 242.4 213.5Q242.1 213.8 241.9 214.2Q241.7 214.7 241.7 215.1L241.7 215.1Q241.7 215.8 242.0 216.3Q242.3 216.8 242.8 217.2Q243.3 217.5 244.0 217.5Z "/></svg>